<?xml version="1.0" encoding="UTF-8" standalone="no"?><!DOCTYPE svg PUBLIC "-//W3C//DTD SVG 1.1//EN" "http://www.w3.org/Graphics/SVG/1.1/DTD/svg11.dtd"><svg width="100%" height="100%" viewBox="0 0 1080 834" version="1.1" xmlns="http://www.w3.org/2000/svg" xmlns:xlink="http://www.w3.org/1999/xlink" xml:space="preserve" xmlns:serif="http://www.serif.com/" style="fill-rule:evenodd;clip-rule:evenodd;stroke-linejoin:round;stroke-miterlimit:2;"><g><path d="M122.585,579.462c1.51,-1.091 3.278,-2.074 5.285,-2.902l494.67,-203.036c14.338,-5.873 31.995,-5.87 46.337,0.013l268.235,110.143l23.637,-0l0,17.571c0.044,4.687 -3.189,9.382 -9.724,12.061l-493.809,202.687c-19.425,7.963 -43.361,7.957 -62.783,-0.013l-266.573,-109.465c-8.079,-3.316 -12.13,-9.103 -12.164,-14.896l-0.011,-0l0,-17.944l6.9,5.781Z" style="fill:#b8bcfc;fill-rule:nonzero;"/><path d="M405.752,718.668c-4.024,-0.945 -7.953,-2.176 -11.701,-3.719l-266.208,-109.326c-8.069,-3.312 -12.113,-9.089 -12.147,-14.876l-0.011,-0l0,-17.919l6.89,5.772c1.51,-1.088 3.271,-2.071 5.278,-2.895l29.347,-12.023l248.552,96.835l0,58.151Z" style="fill:#c9dafc;fill-rule:nonzero;"/><path d="M442.497,720.297c-6.324,1.228 -12.836,1.775 -19.337,1.654l0,-29.664l19.337,0l-0,28.01Z" style="fill:#c9dafc;fill-rule:nonzero;"/><path d="M127.87,558.426l494.664,-203.037c14.338,-5.873 31.998,-5.87 46.336,0.01l282.155,115.857c12.971,5.32 12.961,18.606 -0.011,23.919l-493.801,202.689c-19.429,7.96 -43.362,7.954 -62.78,-0.019l-133.285,-54.734l-133.288,-54.735c-16.239,-6.662 -16.229,-23.301 0.01,-29.95Z" style="fill:#ecf3fa;fill-rule:nonzero;"/><path d="M557.068,587.206l-272.767,-122.564l-0,57.521l272.767,122.472l0,-57.429Z" style="fill:#b8bcfc;fill-rule:nonzero;"/><path d="M547.33,346.519l-263.029,118.094l272.767,122.567l263.139,-118.148l-272.877,-122.513Z" style="fill:#fff;fill-rule:nonzero;"/><path d="M820.237,468.988l-263.135,118.148l0,57.429l263.135,-118.38l0,-57.197Z" style="fill:#b8bcfc;fill-rule:nonzero;"/><path d="M556.394,453.99l-215.201,-96.695l0,104.789l215.211,96.622l-0.01,-104.716Z" style="fill:#c9dafc;fill-rule:nonzero;"/><path d="M548.72,264.119l-207.527,93.17l215.201,96.698l207.612,-93.211l-215.286,-96.657Z" style="fill:#fff;fill-rule:nonzero;"/><path d="M763.74,360.884l-207.612,93.211l0.01,104.713l207.602,-93.393l0,-104.531Z" style="fill:#b8bcfc;fill-rule:nonzero;"/><path d="M549.32,590.766l8.12,-3.656l-0,57.413l-8.12,3.653l0,-57.41Z" style="fill:#b8bcfc;fill-rule:nonzero;"/><path d="M538.972,578.981l18.161,8.161l-8.12,3.656l-18.171,-8.161l8.13,-3.656Z" style="fill:#fff;fill-rule:nonzero;"/><path d="M530.842,582.573l18.171,8.164l0,57.41l-18.171,-8.176l0,-57.398Z" style="fill:#c9dafc;fill-rule:nonzero;"/><path d="M294.509,476.423l8.134,-3.656l-0,57.417l-8.134,3.652l0,-57.413Z" style="fill:#c9dafc;fill-rule:nonzero;"/><path d="M284.648,464.642l18.162,8.157l-8.134,3.659l-18.157,-8.161l8.129,-3.655Z" style="fill:#fff;fill-rule:nonzero;"/><path d="M276.519,468.234l18.157,8.16l0,57.413l-18.157,-8.176l-0,-57.397Z" style="fill:#b8bcfc;fill-rule:nonzero;"/><path d="M531.68,119.039l-8.133,-3.655l0,183.206l8.133,3.652l0,-183.203Z" style="fill:#c9dafc;fill-rule:nonzero;"/><path d="M549.838,103.663l-26.291,11.819l8.133,3.656l26.291,-11.819l-8.133,-3.656Z" style="fill:#fff;fill-rule:nonzero;"/><path d="M558.104,107.255l-26.291,11.819l0,183.2l26.291,-36.803l0,-158.216Z" style="fill:#b8bcfc;fill-rule:nonzero;"/><path d="M703.468,179.895l8.133,-3.659l0,183.207l-8.133,3.652l0,-183.2Z" style="fill:#b8bcfc;fill-rule:nonzero;"/><path d="M685.344,164.331l26.291,11.819l-8.133,3.656l-26.291,-11.819l8.133,-3.656Z" style="fill:#fff;fill-rule:nonzero;"/><path d="M677.211,168.111l26.291,11.819l0,183.2l-26.291,-11.832l0,-183.187Z" style="fill:#c9dafc;fill-rule:nonzero;"/><path d="M567.798,119.039l8.133,-3.655l0,183.203l-8.133,3.655l0,-183.203Z" style="fill:#b8bcfc;fill-rule:nonzero;"/><path d="M557.937,107.255l18.161,8.161l-8.133,3.655l-18.158,-8.16l8.13,-3.656Z" style="fill:#fff;fill-rule:nonzero;"/><path d="M549.807,111.035l18.158,8.16l0,183.2l-18.158,-8.173l0,-183.187Z" style="fill:#c9dafc;fill-rule:nonzero;"/><path d="M401.36,177.627l-8.133,-3.659l-0,183.209l8.133,3.649l-0,-183.199Z" style="fill:#c9dafc;fill-rule:nonzero;"/><path d="M419.518,162.063l-26.291,11.816l8.133,3.658l26.291,-11.819l-8.133,-3.655Z" style="fill:#fff;fill-rule:nonzero;"/><path d="M427.784,165.655l-26.291,11.819l-0,183.2l26.291,-11.829l-0,-183.19Z" style="fill:#b8bcfc;fill-rule:nonzero;"/><path d="M555.102,239.274l-145.343,-65.306l0,183.26l145.343,65.256l0,-183.21Z" style="fill:#5f5363;fill-rule:nonzero;"/><path d="M549.91,111.035l-140.151,62.92l145.343,65.307l140.205,-62.953l-145.397,-65.274Z" style="fill:#2563eb;fill-rule:nonzero;"/><path d="M695.362,176.236l-140.209,62.952l0,183.21l140.209,-63.073l-0,-183.089Z" style="fill:#5f5363;fill-rule:nonzero;"/><path d="M419.487,185.752l8.12,-3.655l-0,183.203l-8.12,3.652l-0,-183.2Z" style="fill:#b8bcfc;fill-rule:nonzero;"/><path d="M409.623,173.968l18.161,8.16l-8.12,3.659l-18.171,-8.164l8.13,-3.655Z" style="fill:#fff;fill-rule:nonzero;"/><path d="M401.493,177.56l18.171,8.16l0,183.203l-18.171,-8.176l-0,-183.187Z" style="fill:#c9dafc;fill-rule:nonzero;"/><path d="M528.897,234.703l8.129,-3.659l0,18.402l-8.129,3.652l-0,-18.395Z" style="fill:#b8bcfc;fill-rule:nonzero;"/><path d="M427.617,182.097l109.001,48.985l-8.13,3.659l-109.001,-48.989l8.13,-3.655Z" style="fill:#fff;fill-rule:nonzero;"/><path d="M419.487,185.688l109.001,48.989l-0,18.392l-109.001,-49.001l-0,-18.38Z" style="fill:#c9dafc;fill-rule:nonzero;"/><path d="M685.331,188.024l-8.12,-3.659l0,183.206l8.133,3.649l-0.013,-183.196Z" style="fill:#c9dafc;fill-rule:nonzero;"/><path d="M695.369,176.236l-18.158,8.154l8.12,3.659l18.171,-8.157l-8.133,-3.656Z" style="fill:#fff;fill-rule:nonzero;"/><path d="M703.165,179.828l-18.168,8.157l0.007,183.2l18.161,-8.166l-0,-183.191Z" style="fill:#b8bcfc;fill-rule:nonzero;"/><path d="M546.887,242.831l8.123,-3.658l0,183.203l-8.123,3.655l0,-183.2Z" style="fill:#b8bcfc;fill-rule:nonzero;"/><path d="M537.026,231.044l18.162,8.164l-8.12,3.655l-18.171,-8.164l8.129,-3.655Z" style="fill:#fff;fill-rule:nonzero;"/><path d="M528.897,234.636l18.171,8.163l-0,183.2l-18.171,-8.176l-0,-183.187Z" style="fill:#c9dafc;fill-rule:nonzero;"/><path d="M581.271,234.703l-8.123,-3.659l-0,18.398l8.123,3.656l-0,-18.395Z" style="fill:#b8bcfc;fill-rule:nonzero;"/><path d="M677.034,184.365l-103.886,46.644l8.123,3.655l103.896,-46.644l-8.133,-3.655Z" style="fill:#fff;fill-rule:nonzero;"/><path d="M685.31,187.957l-103.896,46.644l-0,18.395l103.896,-46.66l0,-18.379Z" style="fill:#b8bcfc;fill-rule:nonzero;"/><path d="M555.01,246.423l-8.123,-3.659l0,183.204l8.123,3.655l0,-183.2Z" style="fill:#c9dafc;fill-rule:nonzero;"/><path d="M573.178,231.044l-26.291,11.819l8.123,3.659l26.302,-11.823l-8.134,-3.655Z" style="fill:#fff;fill-rule:nonzero;"/><path d="M581.455,234.636l-26.302,11.819l0,183.203l26.302,-11.835l-0,-183.187Z" style="fill:#b8bcfc;fill-rule:nonzero;"/><path d="M431.157,173.958l118.753,-53.312l123.986,55.663l-118.794,53.341l-123.945,-55.692Zm118.753,-62.923l-140.151,62.92l145.343,65.307l140.205,-62.953l-145.397,-65.274Z" style="fill:#fff;fill-rule:nonzero;"/><path d="M431.157,173.799l118.753,-53.315l-0,6.216l-111.901,50.173l-6.852,-3.074Z" style="fill:#b8bcfc;fill-rule:nonzero;"/><path d="M673.794,176.15l-123.987,-55.666l0,6.216l117.141,52.527l6.846,-3.077Z" style="fill:#c9dafc;fill-rule:nonzero;"/><path d="M564.398,464.944l-0,90.052l18.222,-8.243l0,-90.049l-18.222,8.24Z" style="fill:#5f5363;fill-rule:nonzero;"/><path d="M564.398,551.732l-0,3.274l18.222,-8.243l-3.567,-1.61l-14.655,6.579Z" style="fill:#ecf3fa;fill-rule:nonzero;"/><path d="M583.039,456.704l0,90.052l-3.571,-1.613l0,-86.829l3.571,-1.61Z" style="fill:#c9dafc;fill-rule:nonzero;"/><path d="M589.196,453.793l0,90.052l18.223,-8.243l-0,-90.049l-18.223,8.24Z" style="fill:#5f5363;fill-rule:nonzero;"/><path d="M589.196,540.584l0,3.271l18.223,-8.24l-3.561,-1.613l-14.662,6.582Z" style="fill:#ecf3fa;fill-rule:nonzero;"/><path d="M607.344,445.553l-0,90.052l-3.558,-1.613l0,-86.829l3.558,-1.61Z" style="fill:#c9dafc;fill-rule:nonzero;"/><path d="M613.995,442.645l-0,90.049l18.226,-8.24l-0,-90.052l-18.226,8.243Z" style="fill:#5f5363;fill-rule:nonzero;"/><path d="M613.995,529.433l-0,3.27l18.226,-8.24l-3.561,-1.613l-14.665,6.583Z" style="fill:#ecf3fa;fill-rule:nonzero;"/><path d="M632.146,434.402l-0,90.055l-3.561,-1.613l0,-86.829l3.561,-1.613Z" style="fill:#c9dafc;fill-rule:nonzero;"/><path d="M638.793,431.491l0,90.055l18.216,-8.246l0,-90.049l-18.216,8.24Z" style="fill:#5f5363;fill-rule:nonzero;"/><path d="M638.793,518.282l0,3.27l18.216,-8.24l-3.561,-1.61l-14.655,6.58Z" style="fill:#ecf3fa;fill-rule:nonzero;"/><path d="M656.944,423.251l0,90.052l-3.56,-1.61l-0,-86.829l3.56,-1.613Z" style="fill:#c9dafc;fill-rule:nonzero;"/><path d="M663.595,420.343l0,90.049l18.223,-8.24l-0,-90.053l-18.223,8.244Z" style="fill:#5f5363;fill-rule:nonzero;"/><path d="M663.595,507.131l0,3.27l18.223,-8.237l-3.568,-1.613l-14.655,6.58Z" style="fill:#ecf3fa;fill-rule:nonzero;"/><path d="M681.756,412.099l0,90.056l-3.57,-1.613l-0,-86.83l3.57,-1.613Z" style="fill:#c9dafc;fill-rule:nonzero;"/><path d="M688.394,409.192l-0,90.052l18.226,-8.244l-0,-90.049l-18.226,8.241Z" style="fill:#5f5363;fill-rule:nonzero;"/><path d="M688.394,495.983l-0,3.27l18.226,-8.243l-3.561,-1.613l-14.665,6.586Z" style="fill:#ecf3fa;fill-rule:nonzero;"/><path d="M706.541,400.951l0,90.049l-3.557,-1.609l0,-86.83l3.557,-1.61Z" style="fill:#c9dafc;fill-rule:nonzero;"/><path d="M713.196,398.04l-0,90.053l18.222,-8.244l0,-90.049l-18.222,8.24Z" style="fill:#5f5363;fill-rule:nonzero;"/><path d="M713.196,484.832l-0,3.27l18.222,-8.243l-3.56,-1.61l-14.662,6.583Z" style="fill:#ecf3fa;fill-rule:nonzero;"/><path d="M731.343,389.8l0,90.053l-3.56,-1.613l-0,-86.83l3.56,-1.61Z" style="fill:#c9dafc;fill-rule:nonzero;"/><path d="M737.995,386.889l-0,90.052l18.215,-8.243l0,-90.049l-18.215,8.24Z" style="fill:#5f5363;fill-rule:nonzero;"/><path d="M737.995,473.68l-0,3.268l18.215,-8.24l-3.56,-1.61l-14.655,6.582Z" style="fill:#ecf3fa;fill-rule:nonzero;"/><path d="M756.145,378.649l0,90.052l-3.56,-1.609l-0,-86.833l3.56,-1.61Z" style="fill:#c9dafc;fill-rule:nonzero;"/><path d="M543.715,463.054l0,90.052l-18.222,-8.243l-0,-90.049l18.222,8.24Z" style="fill:#5f5363;fill-rule:nonzero;"/><path d="M543.715,549.845l0,3.271l-18.222,-8.24l3.56,-1.613l14.662,6.582Z" style="fill:#ecf3fa;fill-rule:nonzero;"/><path d="M525.493,454.814l-0,90.052l3.56,-1.609l0,-86.83l-3.56,-1.613Z" style="fill:#b8bcfc;fill-rule:nonzero;"/><path d="M518.916,451.906l0,90.049l-18.225,-8.24l-0,-90.052l18.225,8.243Z" style="fill:#5f5363;fill-rule:nonzero;"/><path d="M518.916,538.694l0,3.271l-18.225,-8.24l3.56,-1.613l14.665,6.582Z" style="fill:#ecf3fa;fill-rule:nonzero;"/><path d="M500.691,443.663l-0,90.055l3.56,-1.613l0,-86.829l-3.56,-1.613Z" style="fill:#b8bcfc;fill-rule:nonzero;"/><path d="M494.104,440.752l0,90.055l-18.212,-8.246l0,-90.049l18.212,8.24Z" style="fill:#5f5363;fill-rule:nonzero;"/><path d="M494.104,527.543l0,3.271l-18.212,-8.24l3.561,-1.613l14.651,6.582Z" style="fill:#ecf3fa;fill-rule:nonzero;"/><path d="M475.892,432.512l0,90.052l3.561,-1.61l-0,-86.832l-3.561,-1.61Z" style="fill:#b8bcfc;fill-rule:nonzero;"/><path d="M469.316,429.604l-0,90.049l-18.226,-8.243l0,-90.049l18.226,8.243Z" style="fill:#5f5363;fill-rule:nonzero;"/><path d="M469.316,516.392l-0,3.271l-18.226,-8.241l3.561,-1.613l14.665,6.583Z" style="fill:#ecf3fa;fill-rule:nonzero;"/><path d="M451.09,421.361l0,90.055l3.561,-1.613l-0,-86.829l-3.561,-1.613Z" style="fill:#b8bcfc;fill-rule:nonzero;"/><path d="M444.514,418.453l-0,90.052l-18.223,-8.243l0,-90.049l18.223,8.24Z" style="fill:#5f5363;fill-rule:nonzero;"/><path d="M444.514,505.244l-0,3.267l-18.223,-8.24l3.561,-1.613l14.662,6.586Z" style="fill:#ecf3fa;fill-rule:nonzero;"/><path d="M426.291,410.213l0,90.052l3.561,-1.61l0,-86.832l-3.561,-1.61Z" style="fill:#b8bcfc;fill-rule:nonzero;"/><path d="M419.705,407.489l0,90.053l-18.212,-8.244l-0,-90.049l18.212,8.24Z" style="fill:#5f5363;fill-rule:nonzero;"/><path d="M419.705,494.093l0,3.27l-18.212,-8.24l3.557,-1.613l14.655,6.583Z" style="fill:#ecf3fa;fill-rule:nonzero;"/><path d="M401.493,399.249l-0,90.053l3.557,-1.61l0,-86.833l-3.557,-1.61Z" style="fill:#b8bcfc;fill-rule:nonzero;"/><path d="M394.913,396.342l0,90.048l-18.222,-8.243l-0,-90.049l18.222,8.244Z" style="fill:#5f5363;fill-rule:nonzero;"/><path d="M394.913,483.129l0,3.271l-18.222,-8.24l3.571,-1.613l14.651,6.582Z" style="fill:#ecf3fa;fill-rule:nonzero;"/><path d="M376.691,388.098l-0,90.056l3.571,-1.613l-0,-86.83l-3.571,-1.613Z" style="fill:#b8bcfc;fill-rule:nonzero;"/><path d="M370.115,385.19l-0,90.049l-18.223,-8.24l0,-90.052l18.223,8.243Z" style="fill:#5f5363;fill-rule:nonzero;"/><path d="M370.115,471.982l-0,3.267l-18.223,-8.24l3.571,-1.613l14.652,6.586Z" style="fill:#ecf3fa;fill-rule:nonzero;"/><path d="M351.892,376.947l0,90.052l3.571,-1.613l0,-86.826l-3.571,-1.613Z" style="fill:#b8bcfc;fill-rule:nonzero;"/><path d="M524.951,625.788l-50.953,-22.805l-4.91,2.214l55.863,25.048l-0,-4.457Z" style="fill:#ecf3fa;fill-rule:nonzero;"/><path d="M474.434,602.995l-0,-44.426l50.95,22.617l-0,44.618l-50.95,-22.809Z" style="fill:#5f5363;fill-rule:nonzero;"/><path d="M469.088,556.301l-0,48.848l4.91,-2.214l-0,-44.426l-4.91,-2.208Z" style="fill:#c9dafc;fill-rule:nonzero;"/><path d="M483.674,562.73l0,45.852l1.581,-0.709l0,-44.446l-1.581,-0.697Z" style="fill:#b8bcfc;fill-rule:nonzero;"/><path d="M483.896,608.566l-1.683,-0.751l-0,-45.842l1.683,0.757l-0,45.836Z" style="fill:#c9dafc;fill-rule:nonzero;"/><path d="M514.794,576.522l-0,45.855l1.577,-0.713l0,-44.445l-1.577,-0.697Z" style="fill:#b8bcfc;fill-rule:nonzero;"/><path d="M514.535,622.361l-1.684,-0.754l0,-45.839l1.684,0.754l-0,45.839Z" style="fill:#c9dafc;fill-rule:nonzero;"/><path d="M368.854,555.48l-50.953,-22.802l-4.914,2.214l55.867,25.045l-0,-4.457Z" style="fill:#ecf3fa;fill-rule:nonzero;"/><path d="M317.853,532.694l-0,-44.43l50.95,22.618l-0,44.614l-50.95,-22.802Z" style="fill:#5f5363;fill-rule:nonzero;"/><path d="M312.987,486.184l0,48.848l4.914,-2.214l-0,-44.43l-4.914,-2.204Z" style="fill:#c9dafc;fill-rule:nonzero;"/><path d="M327.578,492.613l-0,45.852l1.577,-0.709l0,-44.446l-1.577,-0.697Z" style="fill:#b8bcfc;fill-rule:nonzero;"/><path d="M327.802,538.452l-1.686,-0.754l-0,-45.842l1.686,0.757l0,45.839Z" style="fill:#c9dafc;fill-rule:nonzero;"/><path d="M358.213,506.221l-0,45.851l1.577,-0.709l0,-44.449l-1.577,-0.693Z" style="fill:#b8bcfc;fill-rule:nonzero;"/><path d="M358.428,552.06l-1.673,-0.754l-0,-45.842l1.673,0.757l-0,45.839Z" style="fill:#c9dafc;fill-rule:nonzero;"/><path d="M438.953,588.284l-36.83,-16.483l-3.547,1.6l40.377,18.106l0,-3.223Z" style="fill:#ecf3fa;fill-rule:nonzero;"/><path d="M402.461,571.721l-0,-39.231l36.833,16.35l-0,39.368l-36.833,-16.487Z" style="fill:#5f5363;fill-rule:nonzero;"/><path d="M398.576,530.979l0,42.425l3.547,-1.6l0,-39.234l-3.547,-1.591Z" style="fill:#c9dafc;fill-rule:nonzero;"/><path d="M395.012,568.584l-5.533,-2.456l-3.547,1.604l9.08,4.072l0,-3.22Z" style="fill:#ecf3fa;fill-rule:nonzero;"/><path d="M389.819,566.154l0,-39.145l5.534,2.475l-0,39.123l-5.534,-2.453Z" style="fill:#5f5363;fill-rule:nonzero;"/><path d="M385.932,525.494l-0,42.343l3.547,-1.601l-0,-39.148l-3.547,-1.594Z" style="fill:#c9dafc;fill-rule:nonzero;"/><path d="M451.904,593.909l-5.519,-2.453l-3.561,1.6l9.08,4.076l0,-3.223Z" style="fill:#ecf3fa;fill-rule:nonzero;"/><path d="M446.228,591.478l-0,-39.145l5.523,2.476l0,39.122l-5.523,-2.453Z" style="fill:#5f5363;fill-rule:nonzero;"/><path d="M442.824,550.822l-0,42.339l3.55,-1.6l0,-39.145l-3.55,-1.594Z" style="fill:#c9dafc;fill-rule:nonzero;"/><path d="M409.272,535.704l-0,40.261l1.131,-0.512l0,-39.247l-1.131,-0.502Z" style="fill:#b8bcfc;fill-rule:nonzero;"/><path d="M409.03,575.937l-1.217,-0.547l0,-40.253l1.217,0.544l-0,40.256Z" style="fill:#c9dafc;fill-rule:nonzero;"/><path d="M431.641,545.531l-0,40.265l1.138,-0.515l0,-39.247l-1.138,-0.503Z" style="fill:#b8bcfc;fill-rule:nonzero;"/><path d="M431.396,585.764l-1.213,-0.547l-0,-40.252l1.213,0.544l-0,40.255Z" style="fill:#c9dafc;fill-rule:nonzero;"/><path d="M563.907,628.438l15.091,-6.745l3.602,1.626l-18.693,8.393l-0,-3.274Z" style="fill:#ecf3fa;fill-rule:nonzero;"/><path d="M578.998,621.645l0,-30.189l-15.091,6.774l-0,30.157l15.091,-6.742Z" style="fill:#5f5363;fill-rule:nonzero;"/><path d="M582.586,589.754l-0,33.431l-3.602,-1.626l0,-30.186l3.602,-1.619Z" style="fill:#c9dafc;fill-rule:nonzero;"/><path d="M588.709,617.099l15.091,-6.745l3.602,1.623l-18.693,8.386l-0,-3.264Z" style="fill:#ecf3fa;fill-rule:nonzero;"/><path d="M603.8,610.31l0,-30.196l-15.091,6.777l-0,30.163l15.091,-6.744Z" style="fill:#5f5363;fill-rule:nonzero;"/><path d="M607.385,578.606l-0,33.434l-3.602,-1.625l0,-30.196l3.602,-1.613Z" style="fill:#c9dafc;fill-rule:nonzero;"/><path d="M613.995,605.948l15.077,-6.745l3.605,1.623l-18.682,8.396l-0,-3.274Z" style="fill:#ecf3fa;fill-rule:nonzero;"/><path d="M629.072,599.159l0,-30.193l-15.077,6.774l-0,30.16l15.077,-6.741Z" style="fill:#5f5363;fill-rule:nonzero;"/><path d="M632.67,567.452l0,33.431l-3.601,-1.619l-0,-30.196l3.601,-1.616Z" style="fill:#c9dafc;fill-rule:nonzero;"/><path d="M638.793,594.609l15.091,-6.745l3.602,1.626l-18.693,8.39l0,-3.271Z" style="fill:#ecf3fa;fill-rule:nonzero;"/><path d="M653.884,588.004l0,-30.192l-15.091,6.776l0,30.161l15.091,-6.745Z" style="fill:#5f5363;fill-rule:nonzero;"/><path d="M657.472,556.113l0,33.431l-3.601,-1.623l-0,-30.192l3.601,-1.616Z" style="fill:#c9dafc;fill-rule:nonzero;"/><path d="M664.083,583.458l15.081,-6.745l3.611,1.623l-18.692,8.392l-0,-3.27Z" style="fill:#ecf3fa;fill-rule:nonzero;"/><path d="M679.164,576.665l-0,-30.189l-15.081,6.77l-0,30.164l15.081,-6.745Z" style="fill:#5f5363;fill-rule:nonzero;"/><path d="M682.768,544.962l0,33.434l-3.611,-1.626l-0,-30.192l3.611,-1.616Z" style="fill:#c9dafc;fill-rule:nonzero;"/><path d="M688.881,572.307l15.091,-6.745l3.602,1.626l-18.693,8.389l0,-3.27Z" style="fill:#ecf3fa;fill-rule:nonzero;"/><path d="M703.972,565.517l0,-30.192l-15.091,6.773l0,30.161l15.091,-6.742Z" style="fill:#5f5363;fill-rule:nonzero;"/><path d="M707.557,533.623l-0,33.434l-3.598,-1.625l-0,-30.19l3.598,-1.619Z" style="fill:#c9dafc;fill-rule:nonzero;"/><path d="M713.683,560.968l15.091,-6.742l3.602,1.623l-18.693,8.386l0,-3.267Z" style="fill:#ecf3fa;fill-rule:nonzero;"/><path d="M728.774,554.363l0,-30.189l-15.091,6.773l0,30.161l15.091,-6.745Z" style="fill:#5f5363;fill-rule:nonzero;"/><path d="M732.359,522.472l-0,33.431l-3.598,-1.623l-0,-30.189l3.598,-1.619Z" style="fill:#c9dafc;fill-rule:nonzero;"/><path d="M738.969,549.82l15.081,-6.748l3.601,1.626l-18.682,8.389l0,-3.267Z" style="fill:#ecf3fa;fill-rule:nonzero;"/><path d="M754.05,543.024l-0,-30.189l-15.081,6.773l0,30.161l15.081,-6.745Z" style="fill:#5f5363;fill-rule:nonzero;"/><path d="M757.645,511.321l-0,33.434l-3.602,-1.626l0,-30.189l3.602,-1.619Z" style="fill:#c9dafc;fill-rule:nonzero;"/><path d="M763.771,538.666l15.091,-6.745l3.602,1.626l-18.693,8.386l0,-3.267Z" style="fill:#ecf3fa;fill-rule:nonzero;"/><path d="M778.862,531.876l0,-30.192l-15.091,6.773l0,30.161l15.091,-6.742Z" style="fill:#5f5363;fill-rule:nonzero;"/><path d="M782.447,499.985l-0,33.431l-3.602,-1.622l0,-30.193l3.602,-1.616Z" style="fill:#c9dafc;fill-rule:nonzero;"/><path d="M789.057,527.327l15.077,-6.745l3.616,1.626l-18.693,8.393l-0,-3.274Z" style="fill:#ecf3fa;fill-rule:nonzero;"/><path d="M804.134,520.534l0,-30.189l-15.077,6.773l-0,30.161l15.077,-6.745Z" style="fill:#5f5363;fill-rule:nonzero;"/><path d="M807.743,488.831l-0,33.434l-3.612,-1.626l-0,-30.189l3.612,-1.619Z" style="fill:#c9dafc;fill-rule:nonzero;"/><path d="M632.96,387.169l0,-157.423l3.837,-1.725l-0,157.421l-3.837,1.727Z" style="fill:#514555;"/><path d="M522.174,407.623l-3.847,-1.724l0.01,-31.774l-10.092,-4.543l-0,31.78l-3.837,-1.724l0,-118.772l-10.092,-4.54l-0,118.781l-3.834,-1.724l0,-157.424l3.834,1.725l-0,22.617l10.092,4.533l0,-22.617l3.837,1.721l-0,109.622l10.092,4.534l0,-109.619l3.837,1.725l-0,157.423Z" style="fill:#514555;fill-rule:nonzero;"/><path d="M480.359,388.795l-3.84,-1.724l-0,-35.881l-10.089,-4.54l-0,35.89l-3.837,-1.727l0,-132.385l-10.086,-4.54l-0.006,132.394l-3.837,-1.727l0,-69.646l-9.295,-4.181l-0,69.621l-3.837,-1.728l0.01,-157.42l3.827,1.731l-0,71.774l9.295,4.174l0.007,-71.746l3.836,1.725l0,9.007l10.093,4.533l0,-9.003l3.83,1.721l-0,105.508l10.089,4.536l-0,-105.511l3.84,1.725l0,157.42Z" style="fill:#514555;fill-rule:nonzero;"/><path d="M439.359,212.932l-3.827,-1.725l0,-0.006l3.827,1.724l-0,0.007Z" style="fill:#9096b0;fill-rule:nonzero;"/><path d="M591.152,405.924l-0.01,-157.423l3.836,-1.725l0,11.568l10.093,-4.533l-0,-11.571l3.837,-1.725l-0,72.869l10.092,-4.534l0,-72.868l3.837,-1.722l-0,157.421l-3.837,1.727l0,-68.536l-10.092,4.54l0.01,68.523l-3.837,1.728l-0.01,-39.855l-10.082,4.54l-0,39.849l-3.837,1.727Zm13.919,-136.091l-10.093,4.54l0.011,73.947l10.082,-4.534l-0,-73.953Z" style="fill:#514555;fill-rule:nonzero;"/><path d="M661.163,374.707l3.84,-1.727l-3.84,1.727Z" style="fill:#b1adb2;fill-rule:nonzero;"/><path d="M647.063,380.956l-0,-157.424l3.837,-1.724l-0,6.398l10.092,-4.534l0,-6.401l3.837,-1.721l-0,157.417l-3.837,1.728l0,-4.133l-10.092,4.54l-0,4.126l-3.837,1.728Zm13.929,-97.637l-10.092,4.54l-0,71.214l10.092,-4.533l0,-71.221Zm0,-43.625l-10.092,4.543l-0,27.594l10.092,-4.537l0,-27.6Z" style="fill:#514555;fill-rule:nonzero;"/><path d="M431.661,197.339l-0.02,4.486l6.126,-2.768l0.024,-4.486l-6.13,2.768Z" style="fill:#257ce0;fill-rule:nonzero;"/><path d="M442.449,200.527l-0.14,0.051l-0.041,0.009c-0.95,0.249 -2.006,-0.365 -2.804,-0.722c-0.361,-0.165 -0.736,-0.328 -1.097,-0.493l-0.6,-0.267l-6.126,2.771l2.283,1.021l0.201,0.089l0.02,0.01l0.201,0.079l0.024,0.01l0.051,0.019l0.164,0.06l0.051,0.016l0.095,0.035l0.045,0.013l0.041,0.013l0.085,0.025l0.044,0.013l0.041,0.009l0.075,0.02l0.089,0.019l0.105,0.022l0.051,0.009l0.055,0.01l0.03,0.006l0.106,0.013l0.014,0.003l0.126,0.01l0.109,0.003l0.02,0l0.116,-0.006l0.13,-0.013l0.01,-0l0.116,-0.026l0.02,-0.006l0.024,-0.006l0.136,-0.051l6.13,-2.768Z" style="fill:#25cae0;fill-rule:nonzero;"/><path d="M431.661,189.401l-0.02,3.828l6.126,-2.768l0.024,-3.828l-6.13,2.768Z" style="fill:#257ce0;fill-rule:nonzero;"/><path d="M442.084,191.673l-0.136,0.048l-0.075,0.019l-0.18,0.028c-0.706,0.067 -1.377,-0.216 -1.973,-0.48l-1.953,-0.875l-6.126,2.768l1.949,0.875l0.204,0.089l0.171,0.07l0.065,0.022l0.201,0.076l0.03,0.01l0.15,0.051l0.109,0.032l0.041,0.009l0.024,0.01l0.16,0.038l0.061,0.013l0.034,0.009l0.041,0.01l0.14,0.022l0.075,0.013l0.051,0.003l0.13,0.01l0.064,0.003l0.051,-0l0.13,-0.003l0.01,-0l0.031,-0.004l0.085,-0.009l0.099,-0.019l0.051,-0.013l0.024,-0.006l0.126,-0.048l6.136,-2.771Z" style="fill:#25cae0;fill-rule:nonzero;"/><path d="M439.423,198.472l6.127,-2.768l-0,0.146l-6.127,2.768l0,-0.146Z" style="fill:#53a396;fill-rule:nonzero;"/><path d="M449.748,202.741c0.034,-2.469 -1.384,-4.762 -3.667,-6.465c-0.126,-0.095 -0.255,-0.19 -0.392,-0.286l-0.139,-0.098l-6.127,2.767c0.181,0.128 0.361,0.258 0.532,0.385c0.15,0.115 0.3,0.233 0.446,0.35l0.085,0.074c0.14,0.114 0.28,0.225 0.406,0.34l0.054,0.048c0.126,0.117 0.256,0.235 0.372,0.356l0.044,0.035c0.092,0.102 0.191,0.204 0.286,0.309l0.096,0.111c0.109,0.114 0.204,0.229 0.3,0.344l0.04,0.06c0.086,0.111 0.171,0.226 0.256,0.337l0.034,0.048c0.095,0.134 0.181,0.267 0.256,0.404c0.085,0.134 0.16,0.27 0.225,0.407l0.017,0.026c0.068,0.136 0.132,0.273 0.194,0.413l0.01,0.026c0.055,0.133 0.109,0.27 0.15,0.407l0.02,0.044c0.045,0.134 0.086,0.268 0.13,0.405l0.01,0.047c0.034,0.14 0.065,0.277 0.095,0.42l0,0.032c0.031,0.137 0.055,0.274 0.075,0.41l0,0.048c0.021,0.137 0.031,0.274 0.045,0.414l0.01,0.102c-0,0.143 0.01,0.286 0.01,0.432l-0.01,0.14l-0,0.172l-0.01,0.143l-0.014,0.143l-0.02,0.144l-0.011,0.13l-0.03,0.127l-0.024,0.134l-0.031,0.105l-0.03,0.146l-0.035,0.089l-0.054,0.153l-0.031,0.083l-0.064,0.159l-0.041,0.079l-0.096,0.175l-0.044,0.086l-0.041,0.064l-0.085,0.108l-0.044,0.06l-0.051,0.064l-0.15,0.169l-0.055,0.047l-0.211,0.182l-0.044,0.032l-0.202,0.133l-0.064,0.042l-0.269,0.136c1.196,-0.54 2.388,-1.078 3.581,-1.622c1.567,-0.703 3.4,-1.244 4,-2.682c0.167,-0.407 0.255,-0.837 0.286,-1.266c0.01,-0.144 0.021,-0.284 0.021,-0.427Z" style="fill:#257ce0;fill-rule:nonzero;"/><path d="M425.32,182.03l6.127,-2.768l8.344,3.744l-6.126,2.768l-8.345,-3.744Z" style="fill:#25cae0;fill-rule:nonzero;"/><path d="M434.067,202.916l-2.283,-1.021l0.024,-4.483l2.14,0.961c1.025,0.458 1.802,1.002 2.344,1.623c0.535,0.623 0.814,1.288 0.804,2.001c0,1.517 -1.015,1.826 -3.029,0.919Zm-2.225,-13.553l1.809,0.815c2.024,0.909 3.04,1.963 3.04,3.162c-0,0.671 -0.256,1.063 -0.77,1.177c-0.512,0.115 -1.227,-0.038 -2.154,-0.455l-1.949,-0.872l0.024,-3.827Zm10.921,12.472c-0.662,-1.117 -1.738,-2.186 -3.207,-3.201l0,-0.146c1.121,0.26 2.024,0.12 2.719,-0.417c0.692,-0.541 1.033,-1.41 1.043,-2.606c-0,-1.823 -0.777,-3.515 -2.355,-5.084c-1.567,-1.568 -3.973,-3.083 -7.227,-4.543l-8.344,-3.741l-0.075,21.354l9.305,4.177c2.815,1.263 5.03,1.705 6.672,1.32c1.629,-0.385 2.45,-1.546 2.46,-3.483c0,-1.305 -0.33,-2.517 -0.991,-3.63Z" style="fill:#259de0;fill-rule:nonzero;"/><path d="M449.305,192.685c0.044,-1.922 -1.023,-3.812 -2.59,-5.317c-1.768,-1.708 -4.143,-3.009 -6.552,-4.123l-0.15,-0.067c-0.099,-0.047 -0.205,-0.092 -0.297,-0.137l-6.129,2.768c0.149,0.07 0.296,0.137 0.446,0.204c0.099,0.048 0.204,0.095 0.3,0.143c0.095,0.045 0.191,0.089 0.286,0.134c0.099,0.047 0.191,0.095 0.29,0.143c0.095,0.048 0.201,0.095 0.299,0.143l0.222,0.115c0.095,0.051 0.201,0.101 0.3,0.152l0.211,0.115c0.106,0.057 0.225,0.118 0.331,0.175l0.149,0.079c0.15,0.086 0.311,0.172 0.46,0.258l0.031,0.016c0.136,0.08 0.266,0.159 0.406,0.239l0.126,0.079l0.235,0.143c0.16,0.099 0.32,0.198 0.47,0.299l0.095,0.061c0.171,0.108 0.327,0.219 0.491,0.331l0.136,0.098c0.099,0.073 0.205,0.143 0.297,0.213l0.174,0.134l0.211,0.159l0.18,0.15l0.164,0.13l0.201,0.169l0.116,0.102c0.085,0.079 0.174,0.152 0.255,0.229l0.045,0.041c0.105,0.095 0.204,0.191 0.296,0.29c0.089,0.079 0.16,0.162 0.235,0.241c0.075,0.077 0.14,0.153 0.215,0.226l0.095,0.105l0.065,0.086l0.16,0.194l0.082,0.105l0.129,0.166l0.106,0.159l0.13,0.184l0.04,0.064c0.069,0.089 0.12,0.178 0.174,0.267l0.021,0.045c0.054,0.089 0.105,0.181 0.16,0.273l0.01,0.038c0.051,0.093 0.095,0.188 0.15,0.284l0.007,0.028c0.044,0.092 0.075,0.182 0.119,0.274l0.01,0.035c0.045,0.095 0.075,0.187 0.109,0.283l0.021,0.064c0.03,0.095 0.064,0.194 0.085,0.289l0.01,0.01c0.021,0.095 0.044,0.187 0.065,0.283l0.02,0.073c0.021,0.099 0.041,0.194 0.051,0.296c0.024,0.098 0.034,0.197 0.045,0.296l0.01,0.089c-0,0.076 0.01,0.149 0.01,0.226l0.01,0.092c0,0.102 0.014,0.204 0.014,0.309l-0,0.05l-0.014,0.21l-0.01,0.083l-0.01,0.162l-0,0.083l-0.031,0.159l0,0.067l-0.041,0.216l-0.013,0.026l-0.041,0.181l-0.021,0.064l-0.075,0.21l-0.085,0.203l-0.013,0.019l-0.106,0.201l-0.031,0.048l-0.044,0.07l-0.044,0.066l-0.051,0.067l-0.041,0.058l-0.164,0.171l-0.03,0.032l-0.181,0.156l-0.245,0.172l-0.266,0.137l6.126,-2.768c1.036,-0.468 1.418,-1.483 1.537,-2.351c0.02,-0.182 0.031,-0.363 0.031,-0.544Z" style="fill:#25cae0;fill-rule:nonzero;"/><path d="M453.291,212.079l-1.226,3.461l6.126,-2.767l1.227,-3.462l-6.127,2.768Z" style="fill:#257ce0;fill-rule:nonzero;"/><path d="M454.981,207.924l6.127,-2.771l5.097,2.284l-6.13,2.771l-5.094,-2.284Z" style="fill:#25cae0;fill-rule:nonzero;"/><path d="M457.516,199.983c-0.095,0.452 -0.286,1.183 -0.582,2.195l-0.045,0.137l-0.024,0.095l-0.04,0.118l-0.031,0.105l-0.034,0.127l-0.041,0.121l-0.044,0.137l-0.041,0.13l-0.045,0.153l-0.054,0.134l-0.051,0.172l-0.044,0.136l-0.055,0.182l-0.051,0.156l-0.065,0.171l-0.051,0.185l-0.065,0.188l-0.064,0.184l-0.075,0.213l-0.051,0.185c-0.031,0.073 -0.055,0.149 -0.086,0.226l-0.064,0.194l-0.075,0.219c-0.024,0.074 -0.045,0.15 -0.075,0.226c-0.024,0.073 -0.055,0.15 -0.072,0.226c-0.034,0.08 -0.058,0.156 -0.088,0.232c-0.031,0.099 -0.062,0.198 -0.096,0.296l-0.065,0.188c-0.051,0.143 -0.105,0.293 -0.15,0.442l-0.02,0.061c-0.061,0.175 -0.129,0.35 -0.191,0.531l6.127,-2.768c0.064,-0.181 0.129,-0.356 0.19,-0.531l0.024,-0.061c0.842,-2.437 1.728,-4.886 2.304,-7.371l0.02,-0.102l-6.13,2.768Z" style="fill:#257ce0;fill-rule:nonzero;"/><path d="M459.165,191.733l-6.126,2.768l8.617,3.869l6.13,-2.768l-8.621,-3.869Z" style="fill:#25cae0;fill-rule:nonzero;"/><path d="M467.919,195.516l-6.13,2.768l7.82,24.987l6.13,-2.767l-7.82,-24.988Z" style="fill:#257ce0;fill-rule:nonzero;"/><path d="M454.934,207.921c1.011,-2.905 1.662,-4.862 1.949,-5.873c0.299,-1.009 0.49,-1.741 0.586,-2.192c0.109,0.585 0.33,1.571 0.674,2.962c0.341,1.39 0.627,2.529 0.862,3.417l1.022,3.967l-5.093,-2.281Zm6.821,-9.672l-8.624,-3.869l-7.874,17.944l7.097,3.188l1.223,-3.462l7.773,3.487l1.158,4.531l7.07,3.172l-7.823,-24.991Z" style="fill:#259de0;fill-rule:nonzero;"/><path d="M483.77,214.681l-0,-0.385c-0,-0.079 -0,-0.159 -0.014,-0.241l0,-0.089c0,-0.112 0,-0.226 -0.01,-0.344l-0,-0.045c-0,-0.105 -0,-0.21 -0.007,-0.321l0,-0.118c-0.013,-0.092 -0.013,-0.184 -0.013,-0.28l-0.011,-0.111c0,-0.13 -0.01,-0.264 -0.02,-0.401l-0,-0.06c-0.014,-0.121 -0.014,-0.245 -0.024,-0.369l-0.007,-0.137c0,-0.108 -0.013,-0.22 -0.013,-0.331l-0.011,-0.13c-0.01,-0.156 -0.02,-0.312 -0.03,-0.474l-0,-0.026c-0.014,-0.153 -0.021,-0.309 -0.034,-0.468l-0.021,-0.152c0,-0.128 -0.01,-0.255 -0.02,-0.382l-0.014,-0.153c-0.007,-0.178 -0.031,-0.356 -0.041,-0.541l-6.126,2.768c0.01,0.185 0.02,0.363 0.041,0.541l0.013,0.153c0.007,0.127 0.021,0.254 0.021,0.382l0.01,0.152c0.02,0.159 0.031,0.315 0.044,0.471l0,0.022c0.007,0.163 0.017,0.319 0.031,0.474l-0,0.134c0.01,0.111 0.02,0.223 0.02,0.331l0.011,0.134c0.01,0.124 0.01,0.248 0.02,0.372l0,0.057c0.01,0.137 0.024,0.271 0.024,0.401l0.01,0.108c0,0.099 0,0.194 0.01,0.286l0,0.115c0.011,0.108 0.011,0.22 0.011,0.325l-0,0.041c0.01,0.118 0.01,0.232 0.01,0.34l-0,0.093c0.01,0.082 0.01,0.162 0.01,0.241l0,0.385l-0.031,9.628l6.13,-2.768l0.031,-9.628Z" style="fill:#257ce0;fill-rule:nonzero;"/><path d="M489.024,225.689l6.126,-2.771l0.096,0.045l-6.127,2.768l-0.095,-0.042Z" style="fill:#5cb6a7;fill-rule:nonzero;"/><path d="M472.004,203.009l6.127,-2.768l8.44,3.789l-6.13,2.768l-8.437,-3.789Z" style="fill:#25cae0;fill-rule:nonzero;"/><path d="M480.754,206.976l6.127,-2.768l8.644,18.745l-6.126,2.768l-8.645,-18.745Z" style="fill:#257ce0;fill-rule:nonzero;"/><path d="M494.932,213.402l6.13,-2.767l-0.075,21.354l-6.13,2.771l0.075,-21.358Z" style="fill:#257ce0;fill-rule:nonzero;"/><path d="M489.024,210.755l6.126,-2.767l5.755,2.586l-6.13,2.768l-5.751,-2.587Z" style="fill:#25cae0;fill-rule:nonzero;"/><path d="M489.099,210.708l-0.034,9.656c-0.01,1.304 0.065,3.07 0.201,5.287l-0.092,-0.041l-8.645,-18.749l-8.44,-3.786l-0.085,21.358l5.735,2.567l0.03,-9.627c0,-1.244 -0.095,-3.099 -0.289,-5.558l0.14,0.067l8.685,18.965l8.47,3.801l0.075,-21.357l-5.751,-2.583Z" style="fill:#259de0;fill-rule:nonzero;"/><path d="M506.548,232.682l-0.021,7.143l6.13,-2.768l0.021,-7.146l-6.13,2.771Z" style="fill:#257ce0;fill-rule:nonzero;"/><path d="M518.978,228.212l-6.127,2.768l7.377,15.112l6.127,-2.768l-7.377,-15.112Z" style="fill:#25cae0;fill-rule:nonzero;"/><path d="M500.203,215.671l6.13,-2.768l6.488,2.914l-6.127,2.768l-6.491,-2.914Z" style="fill:#25cae0;fill-rule:nonzero;"/><path d="M506.558,218.506l6.13,-2.768l-0.031,9.274l-6.13,2.768l0.031,-9.274Z" style="fill:#257ce0;fill-rule:nonzero;"/><path d="M520.429,224.932l-7.578,6.185l6.127,-2.771l7.578,-6.185l-6.127,2.771Z" style="fill:#257ce0;fill-rule:nonzero;"/><path d="M513.335,221.719l6.13,-2.768l7.067,3.169l-6.13,2.771l-7.067,-3.172Z" style="fill:#25cae0;fill-rule:nonzero;"/><path d="M520.354,224.776l-7.066,-3.172l-5.04,4.292c-1.002,0.802 -1.663,1.413 -1.993,1.842l0.03,-9.277l-6.487,-2.911l-0.075,21.354l6.488,2.914l0.023,-7.142l1.919,-0.162l4.698,10.285l7.302,3.274l-7.377,-15.115l7.578,-6.182Z" style="fill:#259de0;fill-rule:nonzero;"/></g></svg>