<?xml version="1.0" encoding="UTF-8" standalone="no"?><!DOCTYPE svg PUBLIC "-//W3C//DTD SVG 1.1//EN" "http://www.w3.org/Graphics/SVG/1.1/DTD/svg11.dtd"><svg width="100%" height="100%" viewBox="0 0 1080 834" version="1.1" xmlns="http://www.w3.org/2000/svg" xmlns:xlink="http://www.w3.org/1999/xlink" xml:space="preserve" xmlns:serif="http://www.serif.com/" style="fill-rule:evenodd;clip-rule:evenodd;stroke-linejoin:round;stroke-miterlimit:2;"><g><path d="M127.605,180.229l593.891,163.551l-0,373.498l-593.891,-163.543l0,-373.506Z" style="fill:#abbadf;fill-rule:nonzero;"/><path d="M182.535,289.736l-0,249.236l480.973,132.136l0,-249.248l-480.973,-132.124Z" style="fill:url(#_Linear1);"/><path d="M182.535,224.109l-0,49.886c-0,2.956 3.288,5.671 8.607,7.138l446.949,122.761c11.359,3.117 25.486,-0.837 25.486,-7.138l0,-49.886c0,-2.944 -3.288,-5.671 -8.607,-7.138l-446.949,-122.762c-11.379,-3.117 -25.486,0.825 -25.486,7.139Z" style="fill:url(#_Linear2);"/><path d="M316.347,287.964l-10.658,-18.069l-10.454,12.179l21.112,5.89Zm-32.225,6.953l-21.293,-5.921l32.067,-33.387l20.483,5.704l32.807,51.442l-20.483,-5.705l-5.339,-8.973l-33.034,-9.203l-5.208,6.043Z" style="fill:#fff;fill-rule:nonzero;"/><path d="M432.21,292.801l-0,9.102l-25.125,-6.66l0,33.189l-19.943,-5.549l-0,-33.202l-22.893,-6.365l-0,-9.114l67.961,18.599Z" style="fill:#fff;fill-rule:nonzero;"/><path d="M539.265,322.581l-0,42.316l-17.755,-4.944l-0,-26.8l-17.758,17.619l-13.091,-3.64l-17.8,-27.516l-0.069,26.779l-17.689,-4.931l-0,-42.304l21.813,6.073l20.279,30.331l20.28,-19.043l21.79,6.06Z" style="fill:#fff;fill-rule:nonzero;"/><path d="M182.535,538.999l480.973,132.137l0,-61.402l-387.934,-106.077l-93.039,35.342Z" style="fill:url(#_Linear3);"/><path d="M663.442,421.827l0,187.867l-387.934,-106.085l78.527,-166.76l309.407,84.978Z" style="fill:#8196cd;fill-rule:nonzero;"/><path d="M650.763,425.76l-279.322,-77.45l-62.125,132.222l279.187,77.425l62.26,-132.197Z" style="fill:url(#_Linear4);"/><path d="M636.623,440.581l-227.991,-63.237l-50.723,107.952l227.879,63.194l50.835,-107.909Z" style="fill:url(#_Linear5);"/><path d="M550.637,552.691l-10.026,17.297l-191.151,-52.483l10.615,-18.176l190.562,53.362Z" style="fill:url(#_Linear6);"/><path d="M548.231,556.642l-7.844,13.297l-174.025,-48.169l8.361,-14.037l173.508,48.909Z" style="fill:#31469d;fill-rule:nonzero;"/><path d="M543.405,565.126l-2.883,4.758l-191.062,-52.513l2.794,-4.542l191.151,52.297Z" style="fill:url(#_Linear7);"/><path d="M619.915,504.674l35.628,9.714l5.743,-12.231l-35.605,-9.702l-5.766,12.219Z" style="fill:url(#_Linear8);"/><path d="M603.012,538.813l35.599,9.702l5.77,-12.222l-35.598,-9.714l-5.771,12.234Z" style="fill:url(#_Linear9);"/><path d="M663.429,462.763l-22.985,-6.474l-5.744,12.234l28.729,8.082l0,-13.842Z" style="fill:url(#_Linear10);"/><path d="M330.451,576.152l137.433,38.425c3.13,0.868 7.054,0.706 9.822,-0.423l67.961,-27.823c4.486,-1.835 3.854,-5.266 -1.241,-6.691l-135.827,-37.993c-3.087,-0.855 -6.918,-0.703 -9.69,0.381l-69.538,27.378c-4.641,1.824 -4.055,5.303 1.08,6.746Z" style="fill:#abbadf;fill-rule:nonzero;"/><path d="M495.523,584.401l18.028,5.032l2.367,-0.088l14.489,-5.638l-0.273,-1.662l-18.025,-5.041l-2.366,0.088l-14.49,5.638l0.27,1.671Z" style="fill:url(#_Linear11);"/><path d="M465.942,576.496l18.024,5.041l2.39,-0.085l14.443,-5.641l-0.246,-1.65l-18.028,-5.05l-2.387,0.094l-14.469,5.629l0.273,1.662Z" style="fill:url(#_Linear12);"/><path d="M438.474,568.338l18.028,5.029l2.366,-0.089l14.49,-5.625l-0.274,-1.671l-18.047,-5.023l-2.344,0.076l-14.489,5.641l0.27,1.662Z" style="fill:url(#_Linear13);"/><path d="M472.278,593.296l18.028,5.038l2.363,-0.085l14.467,-5.629l-0.27,-1.662l-18.025,-5.038l-2.366,0.085l-14.467,5.629l0.27,1.662Z" style="fill:url(#_Linear14);"/><path d="M444.81,585.156l18.005,5.038l2.386,-0.082l14.467,-5.632l-0.247,-1.671l-18.028,-5.041l-2.387,0.089l-14.466,5.637l0.27,1.662Z" style="fill:url(#_Linear15);"/><path d="M415.229,577.263l18.024,5.05l2.367,-0.097l14.466,-5.638l-0.27,-1.662l-18.024,-5.044l-2.367,0.1l-14.466,5.617l0.27,1.674Z" style="fill:url(#_Linear16);"/><path d="M449.036,602.218l18.025,5.041l2.367,-0.085l14.466,-5.653l-0.27,-1.65l-18.005,-5.038l-2.389,0.085l-14.467,5.638l0.273,1.662Z" style="fill:url(#_Linear17);"/><path d="M421.565,594.069l18.028,5.029l2.363,-0.076l14.49,-5.635l-0.27,-1.662l-18.028,-5.044l-2.364,0.089l-14.489,5.625l0.27,1.674Z" style="fill:url(#_Linear18);"/><path d="M391.967,586.164l18.051,5.041l2.367,-0.085l14.466,-5.629l-0.27,-1.674l-18.005,-5.029l-2.389,0.076l-14.467,5.638l0.247,1.662Z" style="fill:url(#_Linear19);"/><path d="M385.647,554.076l38.893,10.883l2.39,-0.095l14.444,-5.619l-0.247,-1.671l-38.893,-10.877l-2.39,0.089l-14.467,5.628l0.27,1.662Z" style="fill:url(#_Linear20);"/><path d="M364.519,563.001l38.893,10.871l2.367,-0.082l14.466,-5.641l-0.25,-1.65l-38.916,-10.885l-2.364,0.097l-14.466,5.616l0.27,1.674Z" style="fill:url(#_Linear21);"/><path d="M341.277,571.659l38.893,10.885l2.39,-0.097l14.489,-5.629l-0.273,-1.674l-38.913,-10.87l-2.366,0.082l-14.49,5.65l0.27,1.653Z" style="fill:url(#_Linear22);"/><path d="M965.661,276.494l-158.904,416.918l-85.423,23.78l0,-373.494l244.327,-67.204Z" style="fill:url(#_Linear23);"/><path d="M371.958,112.994l593.864,163.534l-244.326,67.2l-593.891,-163.551l244.353,-67.183Z" style="fill:#b7ceeb;fill-rule:nonzero;"/></g><defs><linearGradient id="_Linear1" x1="0" y1="0" x2="1" y2="0" gradientUnits="userSpaceOnUse" gradientTransform="matrix(480.97,0,0,444.805,182.535,480.416)"><stop offset="0" style="stop-color:#b7ceeb;stop-opacity:1"/><stop offset="1" style="stop-color:#abbadf;stop-opacity:1"/></linearGradient><linearGradient id="_Linear2" x1="0" y1="0" x2="1" y2="0" gradientUnits="userSpaceOnUse" gradientTransform="matrix(481.036,0,0,444.866,182.535,310.443)"><stop offset="0" style="stop-color:#f1677f;stop-opacity:1"/><stop offset="1" style="stop-color:#f9a468;stop-opacity:1"/></linearGradient><linearGradient id="_Linear3" x1="0" y1="0" x2="1" y2="0" gradientUnits="userSpaceOnUse" gradientTransform="matrix(480.97,0,0,444.805,182.535,587.394)"><stop offset="0" style="stop-color:#4b5ba9;stop-opacity:1"/><stop offset="1" style="stop-color:#6c77b9;stop-opacity:1"/></linearGradient><linearGradient id="_Linear4" x1="0" y1="0" x2="1" y2="0" gradientUnits="userSpaceOnUse" gradientTransform="matrix(341.431,0,0,315.758,309.308,453.135)"><stop offset="0" style="stop-color:#4b5ba9;stop-opacity:1"/><stop offset="1" style="stop-color:#6c77b9;stop-opacity:1"/></linearGradient><linearGradient id="_Linear5" x1="0" y1="0" x2="1" y2="0" gradientUnits="userSpaceOnUse" gradientTransform="matrix(278.718,0,0,257.76,357.909,462.922)"><stop offset="0" style="stop-color:#00aab7;stop-opacity:1"/><stop offset="1" style="stop-color:#00b3c4;stop-opacity:1"/></linearGradient><linearGradient id="_Linear6" x1="0" y1="0" x2="1" y2="0" gradientUnits="userSpaceOnUse" gradientTransform="matrix(201.193,0,0,186.065,349.461,534.658)"><stop offset="0" style="stop-color:#4b5ba9;stop-opacity:1"/><stop offset="1" style="stop-color:#6c77b9;stop-opacity:1"/></linearGradient><linearGradient id="_Linear7" x1="0" y1="0" x2="1" y2="0" gradientUnits="userSpaceOnUse" gradientTransform="matrix(193.955,0,0,179.371,349.457,541.358)"><stop offset="0" style="stop-color:#4b5ba9;stop-opacity:1"/><stop offset="1" style="stop-color:#6c77b9;stop-opacity:1"/></linearGradient><linearGradient id="_Linear8" x1="0" y1="0" x2="1" y2="0" gradientUnits="userSpaceOnUse" gradientTransform="matrix(41.3704,0,0,38.2596,619.915,503.417)"><stop offset="0" style="stop-color:#e9eaf6;stop-opacity:1"/><stop offset="1" style="stop-color:#c6cfea;stop-opacity:1"/></linearGradient><linearGradient id="_Linear9" x1="0" y1="0" x2="1" y2="0" gradientUnits="userSpaceOnUse" gradientTransform="matrix(41.3704,0,0,38.2596,603.012,537.544)"><stop offset="0" style="stop-color:#e9eaf6;stop-opacity:1"/><stop offset="1" style="stop-color:#c6cfea;stop-opacity:1"/></linearGradient><linearGradient id="_Linear10" x1="0" y1="0" x2="1" y2="0" gradientUnits="userSpaceOnUse" gradientTransform="matrix(28.7383,0,0,26.5774,634.707,466.444)"><stop offset="0" style="stop-color:#e9eaf6;stop-opacity:1"/><stop offset="1" style="stop-color:#c6cfea;stop-opacity:1"/></linearGradient><linearGradient id="_Linear11" x1="0" y1="0" x2="1" y2="0" gradientUnits="userSpaceOnUse" gradientTransform="matrix(36.7269,0,0,33.9654,494.46,583.22)"><stop offset="0" style="stop-color:#e9eaf6;stop-opacity:1"/><stop offset="1" style="stop-color:#c6cfea;stop-opacity:1"/></linearGradient><linearGradient id="_Linear12" x1="0" y1="0" x2="1" y2="0" gradientUnits="userSpaceOnUse" gradientTransform="matrix(36.7049,0,0,33.945,464.902,575.321)"><stop offset="0" style="stop-color:#e9eaf6;stop-opacity:1"/><stop offset="1" style="stop-color:#c6cfea;stop-opacity:1"/></linearGradient><linearGradient id="_Linear13" x1="0" y1="0" x2="1" y2="0" gradientUnits="userSpaceOnUse" gradientTransform="matrix(36.7269,0,0,33.9654,437.423,567.181)"><stop offset="0" style="stop-color:#e9eaf6;stop-opacity:1"/><stop offset="1" style="stop-color:#c6cfea;stop-opacity:1"/></linearGradient><linearGradient id="_Linear14" x1="0" y1="0" x2="1" y2="0" gradientUnits="userSpaceOnUse" gradientTransform="matrix(36.7046,0,0,33.9447,471.215,592.124)"><stop offset="0" style="stop-color:#e9eaf6;stop-opacity:1"/><stop offset="1" style="stop-color:#c6cfea;stop-opacity:1"/></linearGradient><linearGradient id="_Linear15" x1="0" y1="0" x2="1" y2="0" gradientUnits="userSpaceOnUse" gradientTransform="matrix(36.7266,0,0,33.9651,443.747,583.996)"><stop offset="0" style="stop-color:#e9eaf6;stop-opacity:1"/><stop offset="1" style="stop-color:#c6cfea;stop-opacity:1"/></linearGradient><linearGradient id="_Linear16" x1="0" y1="0" x2="1" y2="0" gradientUnits="userSpaceOnUse" gradientTransform="matrix(36.7049,0,0,33.945,414.165,576.079)"><stop offset="0" style="stop-color:#e9eaf6;stop-opacity:1"/><stop offset="1" style="stop-color:#c6cfea;stop-opacity:1"/></linearGradient><linearGradient id="_Linear17" x1="0" y1="0" x2="1" y2="0" gradientUnits="userSpaceOnUse" gradientTransform="matrix(36.7049,0,0,33.945,447.971,601.043)"><stop offset="0" style="stop-color:#e9eaf6;stop-opacity:1"/><stop offset="1" style="stop-color:#c6cfea;stop-opacity:1"/></linearGradient><linearGradient id="_Linear18" x1="0" y1="0" x2="1" y2="0" gradientUnits="userSpaceOnUse" gradientTransform="matrix(36.7046,0,0,33.9447,420.5,592.9)"><stop offset="0" style="stop-color:#e9eaf6;stop-opacity:1"/><stop offset="1" style="stop-color:#c6cfea;stop-opacity:1"/></linearGradient><linearGradient id="_Linear19" x1="0" y1="0" x2="1" y2="0" gradientUnits="userSpaceOnUse" gradientTransform="matrix(36.7049,0,0,33.945,390.93,584.989)"><stop offset="0" style="stop-color:#e9eaf6;stop-opacity:1"/><stop offset="1" style="stop-color:#c6cfea;stop-opacity:1"/></linearGradient><linearGradient id="_Linear20" x1="0" y1="0" x2="1" y2="0" gradientUnits="userSpaceOnUse" gradientTransform="matrix(57.5876,0,0,53.2574,384.585,555.821)"><stop offset="0" style="stop-color:#e9eaf6;stop-opacity:1"/><stop offset="1" style="stop-color:#c6cfea;stop-opacity:1"/></linearGradient><linearGradient id="_Linear21" x1="0" y1="0" x2="1" y2="0" gradientUnits="userSpaceOnUse" gradientTransform="matrix(57.5876,0,0,53.2574,363.455,564.752)"><stop offset="0" style="stop-color:#e9eaf6;stop-opacity:1"/><stop offset="1" style="stop-color:#c6cfea;stop-opacity:1"/></linearGradient><linearGradient id="_Linear22" x1="0" y1="0" x2="1" y2="0" gradientUnits="userSpaceOnUse" gradientTransform="matrix(57.61,0,0,53.2781,340.226,573.409)"><stop offset="0" style="stop-color:#e9eaf6;stop-opacity:1"/><stop offset="1" style="stop-color:#c6cfea;stop-opacity:1"/></linearGradient><linearGradient id="_Linear23" x1="0" y1="0" x2="1" y2="0" gradientUnits="userSpaceOnUse" gradientTransform="matrix(244.348,0,0,225.975,721.331,496.836)"><stop offset="0" style="stop-color:#b7ceeb;stop-opacity:1"/><stop offset="1" style="stop-color:#abbadf;stop-opacity:1"/></linearGradient></defs></svg>