<?xml version="1.0" encoding="UTF-8" standalone="no"?><!DOCTYPE svg PUBLIC "-//W3C//DTD SVG 1.1//EN" "http://www.w3.org/Graphics/SVG/1.1/DTD/svg11.dtd"><svg width="100%" height="100%" viewBox="0 0 1080 834" version="1.1" xmlns="http://www.w3.org/2000/svg" xmlns:xlink="http://www.w3.org/1999/xlink" xml:space="preserve" xmlns:serif="http://www.serif.com/" style="fill-rule:evenodd;clip-rule:evenodd;stroke-linejoin:round;stroke-miterlimit:2;"><g><g><path d="M582.763,465.463l347.865,-152.099l-0,256.385l-347.865,152.024l-0,-256.31Z" style="fill:#b8bcfc;fill-rule:nonzero;"/><path d="M459.374,106.717l475.931,206.634l-347.869,152.099l-476.011,-206.674l347.949,-152.059Z" style="fill:#ef6583;fill-rule:nonzero;"/><path d="M111.425,258.785l-0,52.719l2.892,1.259l0,110.713l-2.892,1.1l-0,89.202l476.011,207.995l0,-256.313l-476.011,-206.675Z" style="fill:#c9dafc;fill-rule:nonzero;"/><path d="M582.763,630.182l278.332,-121.582l2.893,1.258l-281.225,122.856l-0,-2.532Z" style="fill:#ecf3fa;fill-rule:nonzero;"/><path d="M861.095,508.612l0,-110.757l-278.332,121.517l-0,110.822l278.332,-121.582Z" style="fill:#524556;fill-rule:nonzero;"/><path d="M867.375,509.852l-2.892,-1.259l-0,-110.756l2.892,-1.255l-0,113.27Z" style="fill:url(#_Linear1);"/><path d="M587.433,630.182l-473.116,-206.709l-2.892,1.258l476.011,207.983l0,-2.532l-0.003,-0Z" style="fill:#ecf3fa;fill-rule:nonzero;"/><path d="M111.425,423.476l-0,-110.717l473.119,206.604l-0,110.819l-473.119,-206.706Z" style="fill:#5f5363;fill-rule:nonzero;"/><path d="M133.099,258.748l13.966,6.102l309.936,-135.497l-0,-12.146l-323.899,141.541l-0.003,-0Z" style="fill:#b8bcfc;fill-rule:nonzero;"/><path d="M587.409,454.963l-451.9,-196.215l323.889,-141.544l451.816,196.178l-323.805,141.581Zm-128.035,-348.246l-347.949,152.059l476.011,206.674l347.869,-152.099l-475.931,-206.634Z" style="fill:#fff;fill-rule:nonzero;"/><path d="M582.763,660.674l-0,61.099l103.317,-45.21l0,-60.715l-103.317,44.826Z" style="fill:#524556;fill-rule:nonzero;"/><path d="M582.763,718.092l-0,3.666l103.317,-45.207l-3.757,-1.643l-99.56,43.184Z" style="fill:#ecf3fa;fill-rule:nonzero;"/><path d="M689.457,615.848l0,60.718l-3.757,-1.639l-0,-57.449l3.757,-1.63Z" style="fill:url(#_Linear2);"/><path d="M890.873,305.108l-13.963,6.102l-418.755,-181.838l0,-12.165l432.718,187.901Z" style="fill:#c9dafc;fill-rule:nonzero;"/><path d="M861.385,357.483l-126.931,54.662l0,34.46l126.931,-54.864l-0,-34.258Z" style="fill:url(#_Linear3);fill-rule:nonzero;"/><path d="M729.04,410.822l3.014,1.32l-0,34.456l-3.014,-1.32l0,-34.456Z" style="fill:url(#_Linear4);fill-rule:nonzero;"/><path d="M729.04,410.81l3.01,1.32l126.931,-54.659l-3.007,-1.321l-126.934,54.66Z" style="fill:#f1f1f1;"/><path d="M849.223,376.828l-7.515,3.26l-0.014,-3.437l8.452,-3.666l-0.01,-3.105l-12.745,5.528l0.061,16.429l4.29,-1.86l-0.021,-6.784l7.512,-3.263l-0.01,-3.102Z" style="fill:#ecf3fa;fill-rule:nonzero;"/><path d="M839.3,376.716l-12.744,5.526l0.061,16.428l4.279,-1.853l-0.023,-6.787l7.539,-3.263l-0.011,-3.106l-7.542,3.264l-0.01,-3.437l8.462,-3.67l-0.011,-3.102Z" style="fill:#ecf3fa;fill-rule:nonzero;"/><path d="M813.671,396.238c-0.226,0.746 -0.559,1.45 -0.987,2.101c-0.424,0.654 -0.96,1.246 -1.586,1.766c-0.64,0.527 -1.34,0.964 -2.135,1.308c-0.804,0.347 -1.515,0.527 -2.134,0.546c-0.626,0.018 -1.162,-0.112 -1.586,-0.394c-0.441,-0.276 -0.775,-0.694 -0.997,-1.243c-0.239,-0.545 -0.347,-1.224 -0.357,-2.03c0,-0.793 0.108,-1.565 0.344,-2.318c0.225,-0.759 0.545,-1.463 0.983,-2.117c0.428,-0.65 0.949,-1.242 1.566,-1.772c0.629,-0.527 1.34,-0.97 2.144,-1.317c0.785,-0.341 1.495,-0.527 2.135,-0.552c0.63,-0.016 1.162,0.115 1.603,0.394c0.424,0.282 0.757,0.7 0.993,1.252c0.226,0.561 0.344,1.239 0.344,2.045c-0,0.809 -0.108,1.587 -0.33,2.331Zm1.956,-9.447c-0.869,-0.35 -1.876,-0.461 -3.027,-0.325c-1.158,0.136 -2.381,0.487 -3.684,1.051c-1.269,0.548 -2.464,1.252 -3.616,2.116c-1.138,0.856 -2.145,1.838 -3.01,2.938c-0.865,1.107 -1.552,2.303 -2.064,3.595c-0.508,1.286 -0.758,2.635 -0.758,4.045c0,1.41 0.26,2.535 0.758,3.381c0.498,0.858 1.175,1.453 2.04,1.804c0.866,0.347 1.873,0.446 3.034,0.313c1.152,-0.137 2.381,-0.493 3.674,-1.054c1.343,-0.58 2.599,-1.305 3.747,-2.166c1.172,-0.878 2.168,-1.841 3.014,-2.932c0.838,-1.088 1.491,-2.263 1.976,-3.546c0.488,-1.27 0.724,-2.612 0.714,-4.022c-0,-1.41 -0.263,-2.535 -0.751,-3.388c-0.508,-0.852 -1.182,-1.453 -2.047,-1.81Z" style="fill:#ecf3fa;fill-rule:nonzero;"/><path d="M789.357,411.408c-0.333,0.517 -0.761,0.883 -1.272,1.103c-0.532,0.233 -0.957,0.236 -1.28,0c-0.32,-0.229 -0.485,-0.75 -0.485,-1.556c0,-0.802 0.155,-1.456 0.475,-1.964c0.32,-0.503 0.747,-0.865 1.279,-1.098c0.499,-0.22 0.936,-0.223 1.256,-0.006c0.334,0.226 0.499,0.738 0.499,1.544c0.013,0.805 -0.155,1.465 -0.472,1.977Zm2.249,-6.167c-0.878,-0.403 -2.06,-0.289 -3.542,0.353c-1.495,0.648 -2.67,1.553 -3.545,2.721c-0.876,1.171 -1.317,2.504 -1.303,3.988c-0,1.485 0.448,2.433 1.326,2.845c0.889,0.4 2.061,0.289 3.556,-0.359c1.481,-0.642 2.657,-1.55 3.532,-2.715c0.879,-1.171 1.317,-2.504 1.303,-3.988c0,-1.488 -0.448,-2.433 -1.327,-2.845Z" style="fill:#ecf3fa;fill-rule:nonzero;"/><path d="M783.061,399.417l-10.684,21.087l3.832,-1.658l10.68,-21.087l-3.828,1.658Z" style="fill:#ecf3fa;fill-rule:nonzero;"/><path d="M770.546,410.388c-0.31,-0.238 -0.475,-0.759 -0.475,-1.565c-0.014,-0.806 0.155,-1.456 0.461,-1.955c0.32,-0.509 0.748,-0.874 1.28,-1.104c0.511,-0.223 0.936,-0.223 1.269,0c0.333,0.22 0.498,0.732 0.498,1.534c0.01,0.806 -0.155,1.472 -0.488,1.99c-0.33,0.508 -0.744,0.877 -1.266,1.103c-0.522,0.23 -0.949,0.227 -1.279,-0.003Zm4.835,-0.449c0.878,-1.169 1.303,-2.498 1.303,-3.983c-0.01,-1.487 -0.451,-2.429 -1.327,-2.841c-0.889,-0.41 -2.061,-0.295 -3.555,0.353c-1.482,0.638 -2.657,1.549 -3.532,2.721c-0.879,1.171 -1.317,2.495 -1.307,3.982c0,1.485 0.451,2.433 1.33,2.845c0.876,0.409 2.061,0.295 3.542,-0.35c1.495,-0.645 2.67,-1.549 3.546,-2.727Z" style="fill:#ecf3fa;fill-rule:nonzero;"/><path d="M765.562,419.091c-0.09,0.715 -0.235,1.363 -0.424,1.937c-0.202,0.579 -0.475,1.078 -0.831,1.5c-0.344,0.418 -0.768,0.734 -1.28,0.957c-0.522,0.226 -0.949,0.279 -1.293,0.155c-0.33,-0.118 -0.603,-0.384 -0.815,-0.784c-0.225,-0.394 -0.367,-0.911 -0.464,-1.55c-0.095,-0.644 -0.142,-1.372 -0.155,-2.191c-0,-0.827 0.05,-1.593 0.131,-2.302c0.094,-0.716 0.239,-1.355 0.451,-1.943c0.212,-0.583 0.485,-1.079 0.818,-1.494c0.344,-0.419 0.771,-0.735 1.28,-0.958c0.512,-0.223 0.939,-0.276 1.293,-0.158c0.357,0.118 0.629,0.375 0.828,0.781c0.202,0.406 0.357,0.921 0.441,1.556c0.105,0.632 0.142,1.357 0.142,2.182c0.013,0.818 -0.024,1.586 -0.122,2.312Zm-2.592,-9.71c-1.044,0.456 -1.993,1.051 -2.835,1.798c-0.829,0.746 -1.552,1.608 -2.155,2.603c-0.606,0.992 -1.068,2.079 -1.377,3.282c-0.32,1.193 -0.475,2.479 -0.475,3.861c0.013,2.765 0.63,4.615 1.852,5.569c1.232,0.949 2.916,0.955 5.061,0.028c2.131,-0.929 3.814,-2.395 5.023,-4.4c1.209,-2.009 1.815,-4.389 1.805,-7.153c-0.014,-2.758 -0.63,-4.606 -1.852,-5.557c-1.219,-0.948 -2.902,-0.958 -5.047,-0.031Z" style="fill:#ecf3fa;fill-rule:nonzero;"/><path d="M750.875,422.307c-1.279,-0.365 -3.259,-0.055 -5.926,0.946c0.048,-0.416 0.095,-0.902 0.142,-1.451c0.037,-0.545 0.084,-1.118 0.118,-1.704l6.865,-2.978l0,-2.96l-10.313,4.469c-0.071,1.357 -0.155,2.823 -0.283,4.391c-0.121,1.578 -0.286,3.146 -0.478,4.699c1.508,-0.654 2.751,-1.125 3.737,-1.429c0.994,-0.304 1.778,-0.462 2.357,-0.48c0.593,-0.019 1.01,0.102 1.243,0.35c0.239,0.254 0.357,0.61 0.357,1.069c0.013,0.583 -0.273,1.221 -0.842,1.897c-0.556,0.681 -1.482,1.298 -2.738,1.844c-1.053,0.452 -1.942,0.756 -2.7,0.917c-0.747,0.158 -1.35,0.254 -1.815,0.279l-0.724,3.238c0.212,0.004 0.536,-0.043 0.936,-0.12c0.404,-0.084 0.856,-0.183 1.354,-0.32c0.508,-0.13 1.03,-0.282 1.576,-0.465c0.532,-0.179 1.054,-0.375 1.552,-0.588c1.266,-0.549 2.36,-1.166 3.306,-1.838c0.94,-0.679 1.721,-1.385 2.347,-2.135c0.616,-0.744 1.081,-1.507 1.387,-2.291c0.31,-0.781 0.465,-1.555 0.465,-2.312c-0.013,-1.645 -0.653,-2.656 -1.923,-3.028Z" style="fill:#ecf3fa;fill-rule:nonzero;"/><path d="M725.949,415.877l-126.934,54.662l0,34.456l126.934,-54.86l0,-34.258Z" style="fill:url(#_Linear5);fill-rule:nonzero;"/><path d="M593.598,469.216l3.023,1.32l0,34.456l-3.023,-1.32l-0,-34.456Z" style="fill:url(#_Linear6);fill-rule:nonzero;"/><path d="M593.598,469.235l3.023,1.32l126.931,-54.663l-3.024,-1.317l-126.93,54.66Z" style="fill:#f1f1f1;"/><path d="M719.212,435.222l-7.529,3.26l-0.013,-3.437l8.454,-3.666l-0.013,-3.106l-12.744,5.526l0.06,16.432l4.293,-1.863l-0.023,-6.784l7.525,-3.26l-0.01,-3.102Z" style="fill:#ecf3fa;fill-rule:nonzero;"/><path d="M703.858,435.107l-12.741,5.529l0.058,16.428l4.292,-1.856l-0.037,-6.784l7.539,-3.267l-0.01,-3.102l-7.542,3.264l-0.01,-3.437l8.465,-3.67l-0.014,-3.105Z" style="fill:#ecf3fa;fill-rule:nonzero;"/><path d="M683.649,454.628c-0.225,0.747 -0.559,1.454 -0.986,2.102c-0.428,0.653 -0.96,1.248 -1.586,1.769c-0.63,0.524 -1.34,0.964 -2.135,1.305c-0.795,0.35 -1.518,0.53 -2.135,0.548c-0.629,0.019 -1.148,-0.114 -1.589,-0.393c-0.424,-0.279 -0.757,-0.697 -0.993,-1.243c-0.239,-0.545 -0.344,-1.227 -0.344,-2.033c-0.013,-0.79 0.091,-1.562 0.33,-2.315c0.226,-0.759 0.546,-1.463 0.984,-2.117c0.427,-0.651 0.949,-1.242 1.579,-1.772c0.613,-0.527 1.326,-0.97 2.131,-1.321c0.795,-0.341 1.495,-0.523 2.135,-0.548c0.626,-0.016 1.161,0.114 1.599,0.39c0.428,0.282 0.758,0.701 0.997,1.252c0.225,0.564 0.343,1.243 0.343,2.049c0,0.806 -0.104,1.584 -0.33,2.327Zm1.953,-9.443c-0.865,-0.35 -1.869,-0.465 -3.02,-0.325c-1.162,0.136 -2.384,0.483 -3.687,1.05c-1.269,0.549 -2.465,1.253 -3.616,2.114c-1.138,0.859 -2.145,1.841 -3.01,2.941c-0.869,1.107 -1.553,2.3 -2.064,3.595c-0.509,1.286 -0.758,2.634 -0.758,4.041c0.014,1.411 0.259,2.539 0.758,3.385c0.498,0.858 1.175,1.45 2.04,1.8c0.862,0.35 1.872,0.45 3.034,0.313c1.151,-0.136 2.384,-0.489 3.687,-1.053c1.326,-0.577 2.582,-1.302 3.747,-2.167c1.162,-0.874 2.155,-1.841 2.997,-2.928c0.842,-1.091 1.495,-2.266 1.993,-3.546c0.471,-1.274 0.711,-2.612 0.697,-4.022c0,-1.411 -0.249,-2.539 -0.744,-3.388c-0.512,-0.852 -1.189,-1.453 -2.054,-1.81Z" style="fill:#ecf3fa;fill-rule:nonzero;"/><path d="M653.915,469.802c-0.33,0.517 -0.758,0.883 -1.266,1.103c-0.522,0.229 -0.95,0.235 -1.28,-0c-0.323,-0.229 -0.488,-0.75 -0.488,-1.556c0,-0.806 0.155,-1.46 0.475,-1.965c0.32,-0.502 0.744,-0.867 1.279,-1.097c0.512,-0.22 0.936,-0.223 1.27,-0.006c0.333,0.223 0.485,0.738 0.498,1.543c0,0.806 -0.165,1.466 -0.488,1.978Zm2.252,-6.168c-0.875,-0.406 -2.06,-0.288 -3.542,0.354c-1.481,0.647 -2.656,1.552 -3.545,2.721c-0.879,1.171 -1.317,2.501 -1.303,3.988c-0,1.485 0.451,2.43 1.326,2.842c0.889,0.403 2.075,0.288 3.559,-0.359c1.478,-0.639 2.664,-1.55 3.529,-2.712c0.879,-1.175 1.317,-2.504 1.317,-3.989c-0.011,-1.487 -0.462,-2.432 -1.341,-2.845Z" style="fill:#ecf3fa;fill-rule:nonzero;"/><path d="M653.036,457.839l-10.683,21.09l3.818,-1.658l10.68,-21.087l-3.815,1.655Z" style="fill:#ecf3fa;fill-rule:nonzero;"/><path d="M640.528,468.813c-0.317,-0.239 -0.485,-0.759 -0.485,-1.565c-0,-0.806 0.155,-1.46 0.461,-1.956c0.323,-0.508 0.747,-0.874 1.279,-1.103c0.522,-0.223 0.94,-0.223 1.273,0c0.33,0.217 0.495,0.728 0.509,1.534c-0,0.806 -0.165,1.469 -0.499,1.987c-0.333,0.511 -0.747,0.88 -1.256,1.103c-0.532,0.232 -0.959,0.229 -1.282,0Zm4.825,-0.446c0.878,-1.172 1.306,-2.501 1.306,-3.989c-0.014,-1.484 -0.451,-2.426 -1.327,-2.839c-0.892,-0.409 -2.064,-0.294 -3.559,0.351c-1.471,0.641 -2.653,1.552 -3.532,2.724c-0.878,1.171 -1.316,2.495 -1.306,3.982c-0,1.485 0.451,2.433 1.33,2.842c0.889,0.412 2.064,0.294 3.545,-0.347c1.492,-0.645 2.667,-1.55 3.543,-2.724Z" style="fill:#ecf3fa;fill-rule:nonzero;"/><path d="M630.12,477.481c-0.081,0.719 -0.222,1.367 -0.424,1.94c-0.202,0.58 -0.475,1.079 -0.832,1.497c-0.34,0.422 -0.768,0.738 -1.279,0.961c-0.522,0.223 -0.95,0.276 -1.28,0.152c-0.343,-0.118 -0.616,-0.381 -0.828,-0.781c-0.212,-0.394 -0.367,-0.914 -0.465,-1.553c-0.094,-0.641 -0.141,-1.373 -0.141,-2.191c-0.014,-0.824 0.037,-1.59 0.121,-2.303c0.091,-0.715 0.236,-1.354 0.448,-1.94c0.212,-0.585 0.485,-1.078 0.818,-1.496c0.344,-0.416 0.771,-0.735 1.28,-0.955c0.521,-0.226 0.949,-0.279 1.292,-0.158c0.357,0.118 0.63,0.375 0.829,0.778c0.202,0.406 0.357,0.92 0.441,1.556c0.104,0.632 0.141,1.357 0.155,2.184c-0,0.819 -0.037,1.587 -0.135,2.309Zm-2.593,-9.706c-1.043,0.455 -1.979,1.05 -2.831,1.797c-0.832,0.744 -1.556,1.609 -2.158,2.604c-0.607,0.991 -1.058,2.076 -1.378,3.278c-0.319,1.197 -0.471,2.483 -0.471,3.862c0.01,2.764 0.626,4.618 1.849,5.569c1.232,0.948 2.915,0.958 5.06,0.028c2.135,-0.927 3.815,-2.393 5.024,-4.398c1.222,-2.011 1.815,-4.388 1.805,-7.152c-0.014,-2.759 -0.63,-4.609 -1.852,-5.557c-1.219,-0.952 -2.903,-0.958 -5.048,-0.031Z" style="fill:#ecf3fa;fill-rule:nonzero;"/><path d="M615.433,480.701c-1.283,-0.369 -3.259,-0.055 -5.926,0.946c0.047,-0.416 0.094,-0.902 0.141,-1.451c0.048,-0.545 0.085,-1.119 0.118,-1.704l6.876,-2.982l-0.01,-2.956l-10.317,4.469c-0.057,1.357 -0.151,2.823 -0.283,4.391c-0.118,1.578 -0.286,3.146 -0.474,4.698c1.508,-0.654 2.75,-1.125 3.737,-1.428c0.993,-0.304 1.778,-0.462 2.367,-0.481c0.582,-0.018 0.997,0.103 1.236,0.351c0.235,0.254 0.353,0.61 0.367,1.069c-0,0.582 -0.287,1.221 -0.856,1.896c-0.555,0.682 -1.481,1.296 -2.737,1.841c-1.044,0.456 -1.943,0.76 -2.704,0.921c-0.744,0.158 -1.35,0.251 -1.798,0.279l-0.737,3.235c0.212,0.003 0.532,-0.04 0.936,-0.118c0.404,-0.086 0.855,-0.182 1.364,-0.319c0.498,-0.13 1.02,-0.285 1.565,-0.465c0.546,-0.179 1.054,-0.375 1.553,-0.589c1.269,-0.548 2.37,-1.165 3.309,-1.837c0.933,-0.679 1.714,-1.386 2.347,-2.136c0.613,-0.743 1.074,-1.509 1.384,-2.29c0.32,-0.781 0.465,-1.556 0.465,-2.312c-0,-1.645 -0.64,-2.656 -1.923,-3.028Z" style="fill:#ecf3fa;fill-rule:nonzero;"/><path d="M907.82,319.602l69.276,-30.365l0,296.348l-69.276,30.285l-0,-296.271l-0,0.003Z" style="fill:#f5bb67;fill-rule:nonzero;"/><path d="M933.85,272.167l39.071,17.076l-69.273,30.366l-39.165,-17.117l69.367,-30.325Z" style="fill:#f9e268;fill-rule:nonzero;"/><path d="M864.483,302.495l39.165,17.117l-0.014,296.264l-39.151,-17.033l-0,-296.351l-0,0.003Z" style="fill:#f9cb69;fill-rule:nonzero;"/><path d="M962.258,320.262l-43.6,18.713l0,89.903l43.6,-18.902l-0,-89.714Z" style="fill:url(#_Linear7);fill-rule:nonzero;"/><path d="M918.658,337.745l2.822,1.239l-0,89.9l-2.822,-1.237l0,-89.902Z" style="fill:url(#_Linear8);fill-rule:nonzero;"/><path d="M918.658,337.766l2.818,1.24l43.6,-18.716l-2.835,-1.236l-43.583,18.712Z" style="fill:#f1f1f1;"/><path d="M962.258,424.111l-43.6,18.713l0,89.902l43.6,-18.901l-0,-89.714Z" style="fill:url(#_Linear9);fill-rule:nonzero;"/><path d="M918.658,441.593l2.822,1.237l-0,89.903l-2.822,-1.237l0,-89.903Z" style="fill:url(#_Linear10);fill-rule:nonzero;"/><path d="M918.658,441.581l2.818,1.24l43.6,-18.713l-2.835,-1.236l-43.583,18.709Z" style="fill:#f1f1f1;"/><path d="M712.788,665.738l-0,-70.973l142.186,-62.039l0,70.902l-142.186,62.11Z" style="fill:#524556;fill-rule:nonzero;"/><path d="M856.725,532.726l-3.081,1.324l0,68.283l3.081,1.295l-0,-70.902Z" style="fill:url(#_Linear11);"/><path d="M851.893,602.339l-139.105,60.672l-0,2.733l142.186,-62.113l-3.081,-1.292Z" style="fill:#ecf3fa;fill-rule:nonzero;"/><path d="M851.893,546.043l-139.105,60.675l-0,1.733l141.024,-61.605l-1.919,-0.803Z" style="fill:url(#_Linear12);"/><path d="M828.226,613.267l-1.67,-0.732l0,-68.249l1.67,-0.719l0,69.7Z" style="fill:url(#_Linear13);"/><path d="M801.139,626.714l-1.671,-0.729l0,-68.252l1.671,-0.722l-0,69.703Z" style="fill:url(#_Linear14);"/><path d="M768.637,640.542l-1.674,-0.731l0,-68.253l1.674,-0.719l-0,69.703Z" style="fill:url(#_Linear15);"/><path d="M736.124,653.986l-1.67,-0.728l0,-68.252l1.67,-0.722l0,69.702Z" style="fill:url(#_Linear16);"/><path d="M831.974,613.282l-0,-69.724l2.774,-1.2l0,69.719l-2.774,1.205Z" style="fill:url(#_Linear17);"/><path d="M799.468,626.726l0,-69.724l2.788,-1.199l0,69.718l-2.788,1.205Z" style="fill:url(#_Linear18);"/><path d="M766.963,640.554l0,-69.724l2.788,-1.199l0,69.718l-2.788,1.205Z" style="fill:url(#_Linear19);"/><path d="M739.875,654.002l0,-69.725l2.785,-1.202l-0,69.721l-2.785,1.206Z" style="fill:url(#_Linear20);"/><path d="M853.812,546.84l0,1.732l-141.024,61.521l-0,-1.652l141.024,-61.601Z" style="fill:url(#_Linear21);"/><path d="M739.875,604.034l6.01,-2.711l6.044,2.624l-5.996,2.712l-6.058,-2.625Z" style="fill:#f5f5f6;fill-rule:nonzero;"/><path d="M875.318,544.116l6.01,-2.712l6.044,2.625l-5.997,2.712l-6.057,-2.625Z" style="fill:#f5f5f6;fill-rule:nonzero;"/><path d="M707.367,591.213l-0,4.571l46.613,20.166l-0,-4.574l-46.613,-20.163Z" style="fill:#f9cb69;fill-rule:nonzero;"/><path d="M902.23,547.283l0,4.571l-146.102,64.1l-0,-4.575l146.102,-64.096Z" style="fill:#f5bb67;fill-rule:nonzero;"/><path d="M900.079,547.274l-46.586,-20.173l-146.126,64.106l46.613,20.163l146.099,-64.096Z" style="fill:#f9e268;fill-rule:nonzero;"/><path d="M889.624,546.8l-34.849,-15.09l-136.57,59.965l34.872,15.077l136.547,-59.952Z" style="fill:#e4e3e5;fill-rule:nonzero;"/><path d="M707.367,584.668l-0,4.568l46.613,20.166l-0,-4.571l-46.613,-20.163Z" style="fill:#f9cb69;fill-rule:nonzero;"/><path d="M902.23,540.738l0,4.568l-146.102,64.099l-0,-4.574l146.102,-64.093Z" style="fill:#f5bb67;fill-rule:nonzero;"/><path d="M900.079,540.725l-46.586,-20.172l-146.126,64.106l46.613,20.162l146.099,-64.096Z" style="fill:#f9e268;fill-rule:nonzero;"/><path d="M665.174,625.449l0,58.45l-1.148,-0.505l0,-57.446l1.148,-0.499Z" style="fill:url(#_Linear22);"/><path d="M664.026,683.88l1.232,-0.533l0,-58.44l-1.232,0.536l0,58.437Z" style="fill:url(#_Linear23);"/><path d="M643.517,634.158l0,58.459l-1.164,-0.505l-0,-57.455l1.164,-0.499Z" style="fill:url(#_Linear24);"/><path d="M647.777,692.632l1.219,-0.533l-0,-58.449l-1.219,0.536l-0,58.446Z" style="fill:url(#_Linear25);"/><path d="M627.251,642.931l0,58.422l-1.148,-0.502l0,-57.421l1.148,-0.499Z" style="fill:url(#_Linear26);"/><path d="M626.103,701.338l1.233,-0.536l-0,-58.41l-1.233,0.533l0,58.413Z" style="fill:url(#_Linear27);"/><path d="M605.584,651.64l0,58.428l-1.151,-0.505l-0,-57.424l1.151,-0.499Z" style="fill:url(#_Linear28);"/><path d="M604.433,710.083l1.232,-0.536l0,-58.415l-1.232,0.536l-0,58.415Z" style="fill:url(#_Linear29);"/><path d="M583.143,660.674l0,61.099l-103.321,-45.21l0,-60.715l103.321,44.826Z" style="fill:#5f5363;fill-rule:nonzero;"/><path d="M583.143,718.092l0,3.666l-103.321,-45.207l3.761,-1.643l99.56,43.184Z" style="fill:#ecf3fa;fill-rule:nonzero;"/><path d="M479.822,615.848l0,60.718l3.761,-1.639l0,-57.449l-3.761,-1.63Z" style="fill:url(#_Linear30);"/><path d="M501.496,625.449l-0,58.431l1.151,-0.502l0,-57.43l-1.151,-0.499Z" style="fill:url(#_Linear31);"/><path d="M502.732,683.868l-1.236,-0.536l-0,-58.425l1.236,0.536l-0,58.425Z" style="fill:url(#_Linear32);"/><path d="M523.17,634.192l-0,58.449l1.148,-0.502l-0,-57.448l-1.148,-0.499Z" style="fill:url(#_Linear33);"/><path d="M524.402,692.626l-1.232,-0.533l-0,-58.443l1.232,0.533l-0,58.443Z" style="fill:url(#_Linear34);"/><path d="M544.836,642.931l0,58.422l1.152,-0.505l-0,-57.418l-1.152,-0.499Z" style="fill:url(#_Linear35);"/><path d="M546.069,701.338l-1.233,-0.536l0,-58.41l1.233,0.533l-0,58.413Z" style="fill:url(#_Linear36);"/><path d="M566.507,651.64l-0,58.431l1.151,-0.502l0,-57.427l-1.151,-0.502Z" style="fill:url(#_Linear37);"/><path d="M562.328,710.056l-1.236,-0.534l0,-58.421l1.236,0.536l0,58.419Z" style="fill:url(#_Linear38);"/><path d="M463.96,608.578l0,61.099l-103.317,-45.213l-0,-60.712l103.317,44.826Z" style="fill:#5f5363;fill-rule:nonzero;"/><path d="M463.96,666.023l0,3.669l-103.317,-45.21l3.744,-1.639l99.573,43.18Z" style="fill:#ecf3fa;fill-rule:nonzero;"/><path d="M360.643,563.752l-0,60.718l3.744,-1.643l-0,-57.448l-3.744,-1.627Z" style="fill:url(#_Linear39);"/><path d="M382.31,573.35l-0,58.434l1.148,-0.502l-0,-57.433l-1.148,-0.499Z" style="fill:url(#_Linear40);"/><path d="M383.542,631.799l-1.232,-0.533l-0,-58.424l1.232,0.533l0,58.424Z" style="fill:url(#_Linear41);"/><path d="M403.98,582.089l-0,58.453l1.151,-0.502l0,-57.452l-1.151,-0.499Z" style="fill:url(#_Linear42);"/><path d="M405.212,640.53l-1.232,-0.537l-0,-58.443l1.232,0.536l0,58.444Z" style="fill:url(#_Linear43);"/><path d="M425.65,590.832l0,58.422l1.148,-0.502l0,-57.418l-1.148,-0.502Z" style="fill:url(#_Linear44);"/><path d="M426.869,649.238l-1.219,-0.533l0,-58.412l1.219,0.533l0,58.412Z" style="fill:url(#_Linear45);"/><path d="M447.32,599.541l0,58.431l1.152,-0.503l-0,-57.43l-1.152,-0.498Z" style="fill:url(#_Linear46);"/><path d="M443.139,657.987l-1.233,-0.533l0,-58.422l1.233,0.536l-0,58.419Z" style="fill:url(#_Linear47);"/><path d="M344.771,556.382l-0,61.099l-103.318,-45.21l0,-60.715l103.318,44.826Z" style="fill:#5f5363;fill-rule:nonzero;"/><path d="M344.771,613.831l-0,3.666l-103.318,-45.207l3.758,-1.643l99.56,43.184Z" style="fill:#ecf3fa;fill-rule:nonzero;"/><path d="M241.453,511.556l0,60.718l3.758,-1.642l-0,-57.449l-3.758,-1.627Z" style="fill:url(#_Linear48);"/><path d="M263.12,521.188l0,58.434l1.152,-0.505l-0,-57.43l-1.152,-0.499Z" style="fill:url(#_Linear49);"/><path d="M264.352,579.604l-1.232,-0.533l0,-58.425l1.232,0.536l0,58.422Z" style="fill:url(#_Linear50);"/><path d="M284.79,529.897l0,58.453l1.152,-0.502l-0,-57.452l-1.152,-0.499Z" style="fill:url(#_Linear51);"/><path d="M286.023,588.334l-1.233,-0.533l0,-58.443l1.233,0.533l-0,58.443Z" style="fill:url(#_Linear52);"/><path d="M306.464,538.64l-0,58.418l1.148,-0.502l0,-57.418l-1.148,-0.498Z" style="fill:url(#_Linear53);"/><path d="M307.696,597.046l-1.232,-0.536l-0,-58.413l1.232,0.536l0,58.413Z" style="fill:url(#_Linear54);"/><path d="M322.717,547.379l-0,58.431l1.151,-0.502l0,-57.43l-1.151,-0.499Z" style="fill:url(#_Linear55);"/><path d="M323.949,605.795l-1.232,-0.533l-0,-58.422l1.232,0.533l-0,58.422Z" style="fill:url(#_Linear56);"/><path d="M225.581,504.283l-0,61.099l-103.321,-45.21l0,-60.715l103.321,44.826Z" style="fill:#5f5363;fill-rule:nonzero;"/><path d="M225.581,561.7l-0,3.666l-103.321,-45.207l3.758,-1.642l99.563,43.183Z" style="fill:#ecf3fa;fill-rule:nonzero;"/><path d="M122.26,459.457l0,60.718l3.758,-1.643l-0,-57.445l-3.758,-1.63Z" style="fill:url(#_Linear57);"/><path d="M143.934,469.058l-0,58.434l1.151,-0.502l0,-57.436l-1.151,-0.496Z" style="fill:url(#_Linear58);"/><path d="M145.169,527.476l-1.235,-0.533l-0,-58.427l1.235,0.536l0,58.424Z" style="fill:url(#_Linear59);"/><path d="M165.604,477.797l-0,58.453l1.148,-0.505l0,-57.449l-1.148,-0.499Z" style="fill:url(#_Linear60);"/><path d="M166.836,536.235l-1.232,-0.533l-0,-58.444l1.232,0.536l0,58.441Z" style="fill:url(#_Linear61);"/><path d="M187.274,486.54l0,58.422l1.152,-0.505l-0,-57.421l-1.152,-0.496Z" style="fill:url(#_Linear62);"/><path d="M188.507,544.943l-1.233,-0.53l0,-58.415l1.233,0.536l-0,58.409Z" style="fill:url(#_Linear63);"/><path d="M203.527,495.249l-0,58.431l1.151,-0.502l0,-57.427l-1.151,-0.502Z" style="fill:url(#_Linear64);"/><path d="M204.759,553.664l-1.232,-0.536l-0,-58.419l1.232,0.533l0,58.422Z" style="fill:url(#_Linear65);"/><path d="M582.763,538.891l-0,-4.389l278.332,-121.517l0,4.324l-278.332,121.582Z" style="fill:#372b3c;fill-rule:nonzero;"/><path d="M584.544,538.912l-473.119,-206.709l-0,-4.28l473.119,206.601l-0,4.388Z" style="fill:#4b3c4f;fill-rule:nonzero;"/><path d="M582.763,558.567l-0,-4.388l278.332,-121.517l0,4.323l-278.332,121.582Z" style="fill:#372b3c;fill-rule:nonzero;"/><path d="M584.544,558.555l-473.119,-206.706l-0,-4.283l473.119,206.603l-0,4.386Z" style="fill:#4b3c4f;fill-rule:nonzero;"/><path d="M582.763,578.212l-0,-4.388l278.332,-121.52l0,4.326l-278.332,121.582Z" style="fill:#372b3c;fill-rule:nonzero;"/><path d="M584.544,578.2l-473.119,-206.706l-0,-4.283l473.119,206.601l-0,4.388Z" style="fill:#4b3c4f;fill-rule:nonzero;"/><path d="M582.763,597.855l-0,-4.386l278.332,-121.52l0,4.327l-278.332,121.579Z" style="fill:#372b3c;fill-rule:nonzero;"/><path d="M584.544,597.876l-473.119,-206.705l-0,-4.283l473.119,206.6l-0,4.388Z" style="fill:#4b3c4f;fill-rule:nonzero;"/><path d="M582.763,617.531l-0,-4.385l278.332,-121.52l0,4.326l-278.332,121.579Z" style="fill:#372b3c;fill-rule:nonzero;"/><path d="M584.544,617.519l-473.119,-206.706l-0,-4.283l473.119,206.603l-0,4.386Z" style="fill:#4b3c4f;fill-rule:nonzero;"/><path d="M582.763,636.972l-0,3.666l103.317,-45.207l-3.757,-1.642l-99.56,43.183Z" style="fill:#ecf3fa;fill-rule:nonzero;"/><path d="M582.763,640.619l-0,26.647l103.317,-45.21l0,-26.265l-103.317,44.828Z" style="fill:url(#_Linear66);"/><path d="M583.143,640.619l0,26.647l-103.321,-45.21l0,-26.265l103.321,44.828Z" style="fill:url(#_Linear67);"/><path d="M583.143,636.99l0,3.67l-103.321,-44.848l3.761,-1.642l99.56,42.82Z" style="fill:url(#_Linear68);"/><path d="M241.453,490.386l102.476,44.51l-0,26.311l-102.476,-44.782l0,-26.039Z" style="fill:url(#_Linear69);fill-rule:nonzero;"/><path d="M348.535,533.073l-4.152,1.817l0,26.314l4.152,-1.813l-0,-26.318Z" style="fill:url(#_Linear70);fill-rule:nonzero;"/><path d="M348.08,533.083l-4.151,1.816l-102.476,-44.51l4.148,-1.816l102.479,44.51Z" style="fill:url(#_Linear71);fill-rule:nonzero;"/><path d="M122.26,438.16l102.479,44.509l0,26.315l-102.479,-44.786l0,-26.038Z" style="fill:url(#_Linear72);fill-rule:nonzero;"/><path d="M229.349,480.85l-4.149,1.813l0,26.318l4.149,-1.816l-0,-26.315Z" style="fill:url(#_Linear73);fill-rule:nonzero;"/><path d="M228.887,480.856l-4.148,1.816l-102.479,-44.509l4.148,-1.816l102.479,44.509Z" style="fill:url(#_Linear74);fill-rule:nonzero;"/><path d="M127.678,453.066l16.737,7.231l0,3.709l-16.737,-7.264l-0,-3.676Z" style="fill:#ecf3fa;"/><path d="M127.678,458.536l16.737,7.231l0,3.706l-16.737,-7.264l-0,-3.673Z" style="fill:#ecf3fa;"/><path d="M147.658,459.156l-3.724,-1.605l-0,13.239l3.724,1.612l-0,-13.246Z" style="fill:#ecf3fa;"/><path d="M153.072,458.586l-3.721,-1.609l0,16.364l3.721,1.615l-0,-16.37Z" style="fill:#ecf3fa;"/><path d="M158.489,471.491l-3.72,-1.609l-0,5.96l3.72,1.615l0,-5.966Z" style="fill:#ecf3fa;"/><path d="M169.325,465.578l-3.721,-1.609l-0,14.396l3.721,1.614l-0,-14.401Z" style="fill:#ecf3fa;"/><path d="M174.742,474.159l-3.72,-1.605l-0,8.339l3.72,1.615l0,-8.349Z" style="fill:#ecf3fa;"/><path d="M180.15,470.378l-3.711,-1.608l0,14.637l3.711,1.614l-0,-14.643Z" style="fill:#ecf3fa;"/><path d="M185.574,478.802l-3.721,-1.606l0,8.746l3.721,1.615l-0,-8.755Z" style="fill:#ecf3fa;"/><path d="M190.995,476.068l-3.721,-1.608l0,13.974l3.721,1.617l-0,-13.983Z" style="fill:#ecf3fa;"/><path d="M196.412,482.52l-3.724,-1.608l0,10.082l3.724,1.611l0,-10.085Z" style="fill:#ecf3fa;"/><path d="M201.833,479.979l-3.724,-1.608l0,15.145l3.724,1.615l0,-15.152Z" style="fill:#ecf3fa;"/><path d="M246.867,505.962l16.738,7.231l-0,3.709l-16.738,-7.267l0,-3.673Z" style="fill:#ecf3fa;"/><path d="M246.867,511.429l16.738,7.23l-0,3.707l-16.738,-7.264l0,-3.673Z" style="fill:#ecf3fa;"/><path d="M272.262,512.052l-3.724,-1.608l-0,13.239l3.724,1.615l-0,-13.246Z" style="fill:#ecf3fa;"/><path d="M277.679,511.479l-3.724,-1.609l0,16.364l3.724,1.614l0,-16.369Z" style="fill:#ecf3fa;"/><path d="M283.097,519.902l-3.724,-1.608l-0,10.435l3.724,1.611l-0,-10.438Z" style="fill:#ecf3fa;"/><path d="M288.514,518.47l-3.724,-1.605l0,14.392l3.724,1.615l0,-14.402Z" style="fill:#ecf3fa;"/><path d="M293.918,527.052l-3.71,-1.605l-0,8.339l3.71,1.615l0,-8.349Z" style="fill:#ecf3fa;"/><path d="M299.349,523.271l-3.72,-1.605l-0,14.634l3.72,1.614l0,-14.643Z" style="fill:#ecf3fa;"/><path d="M304.763,531.697l-3.72,-1.608l-0,8.746l3.72,1.614l0,-8.752Z" style="fill:#ecf3fa;"/><path d="M310.184,528.961l-3.72,-1.609l-0,13.974l3.72,1.618l0,-13.983Z" style="fill:#ecf3fa;"/><path d="M315.602,535.413l-3.721,-1.605l0,10.078l3.721,1.612l-0,-10.085Z" style="fill:#ecf3fa;"/><path d="M321.02,532.872l-3.724,-1.608l-0,15.148l3.724,1.615l-0,-15.155Z" style="fill:#ecf3fa;"/><path d="M490.664,607.298l16.734,7.23l0,8.572l-16.734,-7.267l0,-8.535Z" style="fill:#ecf3fa;"/><path d="M490.664,617.63l16.734,7.23l0,3.71l-16.734,-7.267l0,-3.673Z" style="fill:#ecf3fa;"/><path d="M516.055,618.253l-3.721,-1.608l0,13.239l3.721,1.612l0,-13.243Z" style="fill:#ecf3fa;"/><path d="M521.473,617.677l-3.724,-1.606l-0,16.364l3.724,1.614l-0,-16.372Z" style="fill:#ecf3fa;"/><path d="M526.89,630.585l-3.72,-1.609l-0,5.963l3.72,1.611l0,-5.965Z" style="fill:#ecf3fa;"/><path d="M532.298,624.671l-3.711,-1.608l0,14.392l3.711,1.615l-0,-14.399Z" style="fill:#ecf3fa;"/><path d="M537.722,633.253l-3.721,-1.605l0,8.339l3.721,1.615l-0,-8.349Z" style="fill:#ecf3fa;"/><path d="M543.146,629.472l-3.724,-1.609l0,14.638l3.724,1.614l0,-14.643Z" style="fill:#ecf3fa;"/><path d="M548.56,637.895l-3.724,-1.608l0,8.746l3.724,1.617l0,-8.755Z" style="fill:#ecf3fa;"/><path d="M553.981,635.193l-3.724,-1.605l0,13.974l3.724,1.614l0,-13.983Z" style="fill:#ecf3fa;"/><path d="M559.396,641.614l-3.721,-1.608l-0,10.078l3.721,1.615l-0,-10.085Z" style="fill:#ecf3fa;"/><path d="M564.816,639.07l-3.724,-1.605l0,15.145l3.724,1.615l0,-15.155Z" style="fill:#ecf3fa;"/><path d="M680.764,612.163l-16.738,7.231l0,3.706l16.738,-7.264l-0,-3.673Z" style="fill:#ecf3fa;"/><path d="M680.764,617.63l-16.738,7.23l0,3.71l16.738,-7.267l-0,-3.673Z" style="fill:#ecf3fa;"/><path d="M658.609,618.253l3.723,-1.608l0,13.239l-3.723,1.612l-0,-13.243Z" style="fill:#ecf3fa;"/><path d="M647.777,617.677l3.72,-1.606l0,16.364l-3.72,1.614l-0,-16.372Z" style="fill:#ecf3fa;"/><path d="M642.353,630.585l3.723,-1.609l0,5.963l-3.723,1.611l-0,-5.965Z" style="fill:#ecf3fa;"/><path d="M636.935,624.671l3.724,-1.608l-0,14.392l-3.724,1.615l-0,-14.399Z" style="fill:#ecf3fa;"/><path d="M631.521,633.253l3.724,-1.605l-0,8.339l-3.724,1.615l-0,-8.349Z" style="fill:#ecf3fa;"/><path d="M626.103,629.472l3.721,-1.609l-0,14.638l-3.721,1.614l0,-14.643Z" style="fill:#ecf3fa;"/><path d="M620.689,637.895l3.707,-1.608l0,8.746l-3.707,1.617l0,-8.755Z" style="fill:#ecf3fa;"/><path d="M615.271,635.193l3.718,-1.605l-0,13.974l-3.718,1.614l0,-13.983Z" style="fill:#ecf3fa;"/><path d="M609.851,641.614l3.723,-1.608l0,10.078l-3.723,1.615l-0,-10.085Z" style="fill:#ecf3fa;"/><path d="M604.433,639.07l3.724,-1.605l-0,15.145l-3.724,1.615l-0,-15.155Z" style="fill:#ecf3fa;"/><path d="M934.638,373.719l11.33,-4.915l0,-25.654l-5.145,2.218l0,21.323l-6.185,2.69l0,-21.307l-5.145,2.219l0,25.655l5.145,-2.219l0,-0.01Z" style="fill:#ecf3fa;fill-rule:nonzero;"/><path d="M951.16,340.441l0,25.654l5.135,-2.219l-0,-25.654l-5.135,2.219Z" style="fill:#ecf3fa;fill-rule:nonzero;"/><path d="M934.638,477.853l11.33,-4.915l0,-25.655l-5.145,2.219l0,21.325l-6.185,2.687l0,-21.306l-5.145,2.219l0,25.654l5.145,-2.219l0,-0.009Z" style="fill:#ecf3fa;fill-rule:nonzero;"/><path d="M951.16,470.229l5.135,-2.219l-0,-25.654l-5.135,2.219l0,25.654Z" style="fill:#ecf3fa;fill-rule:nonzero;"/><path d="M940.823,400.945l-6.185,2.687l0,-16.537l6.185,-2.826l0,16.676Zm11.344,-26.228l-6.199,2.687l-5.145,2.216l0,0.012l-11.33,4.916l0,25.654l5.145,-2.219l0,-0.012l11.33,-4.912l0,-21.133l6.199,-2.823l-0,21.26l5.135,-2.219l-0,-25.655l-5.135,2.216l-0,0.012Z" style="fill:#ecf3fa;fill-rule:nonzero;"/><path d="M940.823,505.082l-6.185,2.684l0,-6.394l6.185,-2.736l0,6.446Zm11.344,-16.345l-6.199,2.687l0,-9.886l-5.145,2.216l0,9.899l-6.185,2.683l0,-9.877l-5.145,2.223l0,25.654l5.145,-2.219l0,-0.009l11.33,-4.915l0,-10.826l6.199,-2.736l-0,10.865l5.135,-2.219l-0,-25.654l-5.135,2.216l-0,9.898Z" style="fill:#ecf3fa;fill-rule:nonzero;"/><path d="M420.233,436.235l3.653,-1.596l0.033,-7.636l-3.659,1.593l-0.027,7.639Z" style="fill:#4b4fa0;fill-rule:nonzero;"/><path d="M430.738,424.691c-0.095,0.018 -0.206,0.034 -0.32,0.037c-0.263,0.006 -0.559,-0.016 -0.879,-0.062l-0.024,-0.006c-0.309,-0.047 -0.653,-0.124 -1.02,-0.227l-0.07,-0.018c-0.367,-0.102 -0.758,-0.233 -1.176,-0.384l-0.07,-0.022c-0.438,-0.164 -0.913,-0.356 -1.421,-0.573l-1.872,-0.816l0.023,-6.585l-3.649,1.596l-0.027,6.586l1.875,0.812c0.222,0.096 0.438,0.192 0.65,0.275c0.249,0.1 0.488,0.192 0.71,0.276l0.061,0.022l0.071,0.025c0.155,0.055 0.309,0.111 0.451,0.161c0.165,0.056 0.333,0.108 0.485,0.155l0.239,0.065l0.057,0.018l0.121,0.035c0.128,0.034 0.246,0.062 0.367,0.089c0.105,0.025 0.212,0.047 0.32,0.065l0.226,0.041l0.023,0.003l0.034,0.006l0.259,0.031l0.253,0.022l0.225,0.006l0.105,-0.003l0.084,-0.003l0.165,-0.019l0.07,-0.015l0.061,-0.01l0.071,-0.012l0.212,-0.078l3.653,-1.596l-0.286,0.09l-0.057,0.013Z" style="fill:#4b4fa0;fill-rule:nonzero;"/><path d="M438.596,424.523l-0.023,-0.155c-0.014,-0.086 -0.014,-0.17 -0.024,-0.257c-0.027,-0.13 -0.037,-0.257 -0.06,-0.387c-0.01,-0.087 -0.037,-0.174 -0.047,-0.264l-0.011,-0.046l-0.013,-0.056c-0.024,-0.115 -0.047,-0.232 -0.084,-0.35c-0.024,-0.112 -0.057,-0.223 -0.081,-0.335l-0.047,-0.161l-0.027,-0.056l-0.034,-0.105c-0.037,-0.105 -0.07,-0.208 -0.108,-0.31c-0.033,-0.096 -0.07,-0.195 -0.104,-0.294l-0.071,-0.165l-0.027,-0.037l-0.023,-0.077c-0.047,-0.087 -0.084,-0.177 -0.128,-0.264c-0.037,-0.083 -0.084,-0.164 -0.118,-0.245l-0.131,-0.238l-0.024,-0.041l-0.013,-0.024l-0.095,-0.168l-0.144,-0.232c-0.044,-0.084 -0.105,-0.167 -0.162,-0.248l-0.121,-0.18l-0.024,-0.037l-0.047,-0.062c-0.094,-0.143 -0.202,-0.285 -0.306,-0.425l-0.179,-0.204c-0.06,-0.081 -0.131,-0.161 -0.202,-0.242l-0.155,-0.183c-0.131,-0.148 -0.272,-0.294 -0.414,-0.44l-0.07,-0.068c-0.098,-0.105 -0.203,-0.208 -0.324,-0.313c-0.118,-0.115 -0.235,-0.226 -0.353,-0.341l-0.118,-0.099l-0.084,-0.068l-0.189,-0.171c-0.141,-0.117 -0.286,-0.235 -0.427,-0.353l-0.189,-0.152l-0.121,-0.096l-0.162,-0.127c-0.178,-0.133 -0.357,-0.266 -0.535,-0.4l-0.179,-0.118l-0.178,-0.123l-0.273,-0.19c-0.212,-0.151 -0.451,-0.3 -0.683,-0.452l-0.014,-0.012l-0.06,-0.034c-0.236,-0.146 -0.462,-0.289 -0.711,-0.431l-0.273,-0.158l-0.306,-0.18l-0.286,-0.155c-0.202,-0.115 -0.414,-0.226 -0.63,-0.338l-0.249,-0.136l-0.081,-0.047c-0.357,-0.179 -0.724,-0.359 -1.094,-0.536l-0.071,-0.031c-0.118,-0.059 -0.246,-0.111 -0.363,-0.17c-0.263,-0.124 -0.536,-0.248 -0.809,-0.369l-0.309,-0.136c-0.367,-0.158 -0.758,-0.32 -1.159,-0.487l-0.141,-0.059l-0.192,-0.077c-0.249,-0.103 -0.512,-0.205 -0.781,-0.31c-0.118,-0.044 -0.226,-0.09 -0.343,-0.134c-0.394,-0.151 -0.785,-0.303 -1.199,-0.458l-0.084,-0.028c-0.472,-0.18 -0.946,-0.347 -1.421,-0.502c-0.132,-0.047 -0.259,-0.084 -0.394,-0.127c-0.152,-0.053 -0.317,-0.102 -0.472,-0.149c-0.168,-0.056 -0.356,-0.118 -0.521,-0.167c-0.415,-0.127 -0.829,-0.242 -1.233,-0.351l-3.65,1.597c0.569,0.148 1.162,0.328 1.751,0.514c0.155,0.05 0.31,0.099 0.478,0.152c0.613,0.201 1.243,0.415 1.896,0.654c0.414,0.158 0.805,0.31 1.195,0.458c0.118,0.047 0.226,0.09 0.344,0.137c0.262,0.102 0.522,0.207 0.781,0.31c0.108,0.046 0.225,0.09 0.333,0.136c0.404,0.164 0.795,0.329 1.162,0.487c0.38,0.164 0.747,0.331 1.114,0.502c0.118,0.055 0.25,0.114 0.371,0.173c0.424,0.202 0.838,0.406 1.229,0.614l0.262,0.133c0.307,0.164 0.616,0.329 0.913,0.496l0.31,0.177c0.33,0.198 0.659,0.39 0.983,0.592l0.057,0.034c0.333,0.213 0.653,0.43 0.973,0.65l0.178,0.128c0.297,0.21 0.593,0.424 0.866,0.644l0.118,0.093c0.286,0.223 0.555,0.446 0.818,0.679l0.081,0.068c0.272,0.248 0.548,0.499 0.794,0.75c0.226,0.229 0.441,0.459 0.64,0.694c0.074,0.081 0.131,0.158 0.202,0.239c0.192,0.229 0.367,0.459 0.535,0.694l0.024,0.034c0.189,0.273 0.367,0.549 0.522,0.831l0.01,0.021c0.155,0.286 0.296,0.574 0.428,0.865l0.013,0.04c0.128,0.285 0.236,0.577 0.33,0.874l0.013,0.053c0.095,0.294 0.179,0.598 0.236,0.902l0.014,0.046c0.057,0.301 0.094,0.605 0.128,0.911l0.013,0.069c0.024,0.322 0.034,0.647 0.034,0.979c-0,0.254 -0.01,0.493 -0.024,0.725l-0.01,0.112c-0.024,0.217 -0.061,0.424 -0.094,0.626l-0.014,0.099c-0.047,0.195 -0.094,0.384 -0.155,0.561l-0.02,0.084c-0.064,0.182 -0.134,0.356 -0.215,0.514l-0.01,0.025c-0.074,0.142 -0.155,0.279 -0.239,0.403l-0.105,0.142l-0.182,0.199c-0.091,0.114 -0.212,0.22 -0.33,0.313l-0.154,0.124c-0.179,0.124 -0.354,0.235 -0.556,0.325l3.65,-1.593c0.202,-0.09 0.39,-0.205 0.559,-0.328l0.155,-0.121c0.117,-0.096 0.235,-0.202 0.343,-0.316l0.081,-0.078l0.081,-0.121l0.107,-0.139l0.075,-0.099c0.057,-0.097 0.117,-0.199 0.165,-0.304l0.01,-0.025l0.013,-0.006c0.047,-0.106 0.094,-0.217 0.141,-0.329l0.058,-0.179l0.037,-0.084l0.027,-0.071c0.033,-0.112 0.057,-0.23 0.091,-0.351l0.027,-0.139l0.023,-0.102l0.02,-0.127c0.014,-0.131 0.037,-0.261 0.051,-0.4l0.01,-0.096l0.013,-0.112l0.01,-0.223c0.014,-0.155 0.014,-0.313 0.024,-0.477l0,-0.025c0,-0.155 -0.01,-0.304 -0.01,-0.456c-0.014,-0.148 -0.014,-0.294 -0.024,-0.44Z" style="fill:#4b4fa0;fill-rule:nonzero;"/><path d="M451.506,423.733l-5.95,-2.578l-3.65,1.593l5.95,2.581l-0.071,18.409l11.711,5.079l-0.014,4.411l3.653,-1.593l0.014,-4.411l-11.714,-5.079l0.071,-18.412Z" style="fill:#4b4fa0;fill-rule:nonzero;"/><path d="M476.115,454.563c-0.259,0.518 -0.508,1.038 -0.771,1.559c-0.33,0.694 -0.65,1.373 -0.936,2.03l3.653,-1.593c0.283,-0.66 0.603,-1.339 0.947,-2.03c0.333,-0.691 0.676,-1.385 1.006,-2.064l-3.65,1.593c-0.08,0.167 -0.165,0.335 -0.249,0.505Z" style="fill:#4b4fa0;fill-rule:nonzero;"/><path d="M479.307,446.67c0.414,-0.729 0.778,-1.392 1.111,-1.99c0.32,-0.607 0.616,-1.143 0.879,-1.605c0.118,-0.214 0.222,-0.403 0.32,-0.58l0.094,-0.167c0.034,-0.081 0.084,-0.171 0.118,-0.242l0.061,-0.111l-3.664,1.593c-0.047,0.102 -0.107,0.232 -0.178,0.359l-0.084,0.161c-0.091,0.177 -0.202,0.369 -0.317,0.583c-0.262,0.458 -0.559,0.995 -0.879,1.602c-0.343,0.601 -0.71,1.265 -1.114,1.993c-0.404,0.722 -0.818,1.484 -1.246,2.293l7.576,3.279l3.65,-1.596l-7.562,-3.279c0.414,-0.806 0.828,-1.571 1.235,-2.293Z" style="fill:#4b4fa0;fill-rule:nonzero;"/><path d="M490.2,454.194l-0.061,-0.161l-0.037,-0.086c-0.141,-0.406 -0.296,-0.806 -0.451,-1.203c-0.071,-0.195 -0.142,-0.394 -0.212,-0.586c-0.226,-0.585 -0.438,-1.165 -0.664,-1.735c-0.377,-1.014 -0.771,-1.999 -1.148,-2.969c-0.131,-0.301 -0.249,-0.598 -0.367,-0.896c-0.168,-0.428 -0.343,-0.861 -0.512,-1.28c-0.165,-0.406 -0.33,-0.809 -0.498,-1.212c-0.828,-2.02 -1.694,-4.013 -2.549,-5.972l-5.64,-2.445l-3.653,1.593l5.643,2.445c0.852,1.959 1.707,3.955 2.549,5.976c0.334,0.815 0.677,1.651 1.007,2.494c0.118,0.298 0.239,0.586 0.357,0.887c0.39,0.973 0.768,1.961 1.161,2.972c0.226,0.57 0.438,1.15 0.664,1.735c0.07,0.196 0.141,0.391 0.212,0.586c0.155,0.397 0.296,0.796 0.451,1.202c0.037,0.084 0.057,0.168 0.094,0.248c0.391,1.063 0.785,2.148 1.186,3.264c0.892,2.473 1.828,5.157 2.811,8.045l3.65,-1.593c-0.983,-2.891 -1.923,-5.575 -2.808,-8.048c-0.404,-1.113 -0.795,-2.198 -1.185,-3.261Z" style="fill:#4b4fa0;fill-rule:nonzero;"/><path d="M514.941,463.938c1.171,-0.942 2.36,-1.835 3.569,-2.678c1.195,-0.836 2.357,-1.593 3.484,-2.259c1.125,-0.672 2.088,-1.19 2.903,-1.559l0.013,-3.561l-19.761,-8.569l-3.653,1.593l19.761,8.569l-0.01,3.561c-0.818,0.372 -1.791,0.89 -2.906,1.559c-1.124,0.666 -2.286,1.423 -3.495,2.263c-1.198,0.839 -2.384,1.735 -3.555,2.677c-1.186,0.942 -2.233,1.872 -3.155,2.789l13.478,5.845l-0.013,4.311l3.653,-1.596l0.01,-4.311l-13.478,-5.842c0.926,-0.92 1.979,-1.847 3.155,-2.792Z" style="fill:#4b4fa0;fill-rule:nonzero;"/><path d="M530.082,480.336c-0.178,0.368 -0.37,0.737 -0.549,1.106l0,0.015l-0.033,0.066c-0.33,0.666 -0.627,1.326 -0.913,1.961l3.65,-1.596c0.296,-0.654 0.606,-1.339 0.95,-2.023c0.333,-0.698 0.676,-1.386 1.02,-2.068l-3.664,1.596c-0.155,0.313 -0.306,0.626 -0.461,0.943Z" style="fill:#4b4fa0;fill-rule:nonzero;"/><path d="M550.978,482.793c-0.394,-1.084 -0.775,-2.141 -1.162,-3.18l-0.07,-0.201l-0.048,-0.118c-0.144,-0.396 -0.286,-0.784 -0.427,-1.177c-0.084,-0.202 -0.155,-0.409 -0.239,-0.608c-0.212,-0.592 -0.438,-1.174 -0.664,-1.748c-0.39,-1.032 -0.781,-2.039 -1.171,-3.028c-0.135,-0.322 -0.263,-0.632 -0.394,-0.954c-0.175,-0.453 -0.354,-0.917 -0.542,-1.364c-0.145,-0.338 -0.273,-0.675 -0.418,-1.01c-0.842,-2.024 -1.683,-4.017 -2.549,-5.975l-5.639,-2.448l-3.654,1.596l5.643,2.448c0.866,1.959 1.708,3.951 2.549,5.975c0.32,0.769 0.64,1.571 0.96,2.371c0.128,0.319 0.263,0.632 0.391,0.954c0.39,0.989 0.784,1.996 1.171,3.028c0.226,0.574 0.441,1.156 0.667,1.748c0.071,0.202 0.155,0.409 0.225,0.611c0.155,0.39 0.297,0.778 0.438,1.177c0.047,0.106 0.084,0.214 0.118,0.32c0.381,1.035 0.771,2.091 1.162,3.179c0.889,2.473 1.825,5.157 2.808,8.042l3.653,-1.592c-0.983,-2.889 -1.919,-5.573 -2.808,-8.046Z" style="fill:#4b4fa0;fill-rule:nonzero;"/><path d="M538.897,472.005c0.404,-0.728 0.771,-1.391 1.091,-1.996c0.343,-0.604 0.63,-1.14 0.889,-1.599c0.262,-0.455 0.451,-0.824 0.592,-1.103l-3.649,1.596c-0.145,0.276 -0.334,0.645 -0.593,1.103c-0.263,0.459 -0.559,0.995 -0.889,1.599c-0.323,0.602 -0.687,1.265 -1.104,1.993c-0.202,0.363 -0.401,0.735 -0.617,1.116c-0.202,0.381 -0.414,0.775 -0.616,1.177l7.566,3.282l3.647,-1.596l-7.559,-3.279c0.414,-0.808 0.828,-1.571 1.242,-2.293Z" style="fill:#4b4fa0;fill-rule:nonzero;"/><path d="M427.347,426.327c-1.057,0.034 -2.609,-0.4 -4.66,-1.292l-1.872,-0.812l0.024,-6.586c0.296,0.115 0.663,0.248 1.077,0.406c0.428,0.164 0.855,0.335 1.293,0.524c0.852,0.375 1.647,0.765 2.36,1.174c0.711,0.403 1.317,0.843 1.815,1.311c0.495,0.468 0.862,0.967 1.138,1.503c0.259,0.53 0.387,1.116 0.387,1.755c0,1.31 -0.532,1.989 -1.562,2.017Zm-4.505,-12.307c-1.091,-0.474 -2.37,-0.982 -3.818,-1.524c-1.458,-0.537 -2.822,-0.98 -4.125,-1.324l-0.081,22.491l5.95,2.578l0.024,-7.639l1.872,0.815c3.969,1.717 7.016,2.43 9.161,2.141c2.148,-0.288 3.212,-1.81 3.226,-4.552c0.013,-2.724 -1.03,-5.139 -3.142,-7.249c-2.097,-2.117 -5.121,-4.026 -9.067,-5.737Z" style="fill:#6469af;fill-rule:nonzero;"/><path d="M447.95,425.323l-5.95,-2.582l-0.094,22.822l17.674,7.658l0.013,-4.41l-11.714,-5.076l0.071,-18.412Z" style="fill:#6469af;fill-rule:nonzero;"/><path d="M478.502,450.565c0.425,-0.809 0.842,-1.574 1.246,-2.293c0.401,-0.728 0.768,-1.395 1.111,-1.993c0.32,-0.607 0.617,-1.143 0.879,-1.602c0.259,-0.452 0.448,-0.821 0.583,-1.1c0.165,0.393 0.363,0.926 0.626,1.611c0.249,0.682 0.545,1.469 0.889,2.365c0.333,0.896 0.697,1.881 1.067,2.941c0.381,1.069 0.771,2.188 1.175,3.353l-7.576,-3.282Zm11.866,1.448c-0.842,-2.216 -1.684,-4.33 -2.525,-6.357c-0.842,-2.02 -1.694,-4.013 -2.549,-5.972l-5.643,-2.445c-0.903,1.193 -1.778,2.442 -2.606,3.738c-0.832,1.298 -1.684,2.68 -2.539,4.159c-0.879,1.469 -1.754,3.055 -2.643,4.757c-0.899,1.695 -1.862,3.558 -2.869,5.584l6.189,2.681c0.286,-0.657 0.602,-1.339 0.936,-2.03c0.343,-0.691 0.676,-1.382 1.02,-2.064l10.323,4.475c0.334,0.977 0.677,1.953 1.007,2.938c0.333,0.98 0.653,1.934 0.939,2.848l6.377,2.768c-0.983,-2.888 -1.919,-5.575 -2.811,-8.048c-0.886,-2.47 -1.751,-4.816 -2.606,-7.032Z" style="fill:#6469af;fill-rule:nonzero;"/><path d="M506.57,465.528c1.172,-0.942 2.36,-1.838 3.556,-2.678c1.208,-0.84 2.373,-1.593 3.498,-2.262c1.115,-0.669 2.088,-1.187 2.902,-1.556l0.014,-3.561l-19.761,-8.569l-0.014,4.32l11.869,5.142c-0.997,0.601 -2.074,1.305 -3.239,2.11c-1.158,0.8 -2.31,1.661 -3.434,2.57c-1.128,0.908 -2.209,1.822 -3.236,2.748c-1.044,0.924 -1.923,1.789 -2.633,2.604l-0.014,3.062l20.805,9.015l0.01,-4.311l-13.474,-5.845c0.922,-0.914 1.966,-1.844 3.151,-2.789Z" style="fill:#6469af;fill-rule:nonzero;"/><path d="M532.688,475.901c0.414,-0.806 0.828,-1.572 1.233,-2.291c0.414,-0.728 0.784,-1.394 1.101,-1.995c0.333,-0.605 0.629,-1.141 0.892,-1.6c0.259,-0.455 0.448,-0.824 0.589,-1.1c0.141,0.388 0.357,0.927 0.62,1.609c0.245,0.685 0.542,1.472 0.885,2.367c0.337,0.896 0.7,1.882 1.067,2.942c0.381,1.066 0.775,2.184 1.176,3.35l-7.563,-3.282Zm14.462,8.482c-0.889,-2.476 -1.755,-4.819 -2.606,-7.035c-0.842,-2.213 -1.697,-4.333 -2.526,-6.353c-0.842,-2.024 -1.683,-4.017 -2.549,-5.975l-5.643,-2.449c-0.899,1.197 -1.764,2.446 -2.606,3.744c-0.832,1.299 -1.687,2.678 -2.552,4.153c-0.852,1.475 -1.741,3.059 -2.643,4.757c-0.899,1.698 -1.849,3.564 -2.855,5.588l6.188,2.681c0.283,-0.657 0.603,-1.339 0.946,-2.027c0.334,-0.698 0.677,-1.386 1.007,-2.064l10.327,4.475c0.343,0.973 0.677,1.949 1.007,2.935c0.333,0.982 0.653,1.937 0.936,2.851l6.38,2.761c-0.986,-2.885 -1.923,-5.569 -2.811,-8.042Z" style="fill:#6469af;fill-rule:nonzero;"/><path d="M185.315,344.123l-0,15.148l-30.546,-13.338l-0,-15.149l30.546,13.339Z" style="fill:#524556;"/><path d="M461.603,466.185l0,15.149l-30.535,-13.339l-0,-15.149l30.535,13.339Z" style="fill:#524556;"/><path d="M636.935,495.744l-0,15.152l30.549,-13.339l0,-15.151l-30.549,13.338Z" style="fill:#3b313f;"/><path d="M364.101,441.835l-0,15.313l-30.549,-13.339l-0,-15.313l30.549,13.339Z" style="fill:#524556;"/><path d="M282.837,425.847l0,15.312l-30.549,-13.338l0,-15.313l30.549,13.339Z" style="fill:#524556;"/><path d="M201.557,411.671l0,15.313l-30.535,-13.339l-0,-15.312l30.535,13.338Z" style="fill:#524556;"/><path d="M371.475,485.204l-0,15.313l30.545,13.342l0,-15.316l-30.545,-13.339Z" style="fill:#524556;"/><path d="M788.633,488.307l0,15.315l30.549,-13.341l0,-15.313l-30.549,13.339Z" style="fill:#3b313f;"/><path d="M337.01,488.818l-0,15.31l-30.546,-13.339l-0,-15.31l30.546,13.339Z" style="fill:#524556;"/><path d="M707.367,543.809l-0,15.313l30.549,-13.339l-0,-15.313l-30.549,13.339Z" style="fill:#3b313f;"/><path d="M553.715,604.171l0,12.678l-30.545,-13.338l-0,-12.679l30.545,13.339Z" style="fill:#524556;"/><path d="M277.416,483.794l0,12.676l-30.549,-13.339l0,-12.675l30.549,13.338Z" style="fill:#524556;"/><path d="M504.957,524.799l0,15.313l-30.549,-13.339l0,-15.313l30.549,13.339Z" style="fill:#524556;"/><path d="M647.777,531.093l-0,15.313l30.549,-13.339l-0,-15.313l-30.549,13.339Z" style="fill:#3b313f;"/><path d="M745.289,468.887l0,15.313l30.55,-13.338l-0,-15.316l-30.55,13.341Z" style="fill:#3b313f;"/><path d="M147.395,345.84l0,15.312l-30.549,-13.338l-0,-15.313l30.549,13.339Z" style="fill:#524556;"/><path d="M460.627,222.023c7.798,-3.403 12.317,-7.069 13.549,-10.999c1.242,-3.936 -0.903,-9.049 -6.451,-15.343c-5.714,-6.602 -8.829,-10.804 -9.411,-12.608c-0.556,-1.803 0.286,-3.204 2.549,-4.193c2.097,-0.917 4.801,-1.283 8.084,-1.1c3.273,0.183 6.946,1.162 11.037,2.932c7.892,3.427 14.805,8.575 20.731,15.446l33.714,-6.347c-6.98,-7.838 -16.488,-14.368 -28.519,-19.584c-13.633,-5.91 -27.313,-9.251 -41.064,-10.035c-13.751,-0.784 -25.95,1.15 -36.583,5.793c-5.69,2.482 -9.697,5.03 -12.03,7.639c-2.337,2.609 -3.203,5.436 -2.633,8.485c0.569,3.044 2.952,6.955 7.101,11.74c4.633,5.265 7.313,8.581 8.047,9.948c0.724,1.37 0.929,2.501 0.619,3.4c-0.309,0.896 -1.256,1.686 -2.845,2.377c-2.525,1.103 -5.68,1.534 -9.461,1.292c-3.781,-0.241 -7.99,-1.373 -12.66,-3.396c-5.404,-2.346 -10.489,-5.291 -15.243,-8.845c-4.764,-3.555 -8.606,-7.293 -11.545,-11.225l-27.812,12.139c2.99,3.632 6.569,6.824 10.727,9.57c4.175,2.749 10.138,5.799 17.876,9.155c9.273,4.019 18.899,6.858 28.865,8.498c9.994,1.645 19.573,2.048 28.795,1.208c9.209,-0.836 17.401,-2.823 24.563,-5.947Z" style="fill:#fff;fill-rule:nonzero;"/><path d="M563.941,239.654l-13.963,10.45l-24.728,-10.726c22.937,-5.817 38.193,-9.765 45.755,-11.845c7.562,-2.079 12.946,-3.601 16.098,-4.568c-2.36,1.497 -6.057,4.063 -11.071,7.708c-5.027,3.641 -9.047,6.635 -12.091,8.981Zm21.054,-34.174l-153.927,34.177l34.519,14.966l27.539,-6.899l37.778,16.382l-15.933,11.929l34.354,14.897l77.583,-67.279l-41.913,-18.173Z" style="fill:#fff;fill-rule:nonzero;"/><path d="M623.133,299.009l90.308,-39.412l-31.415,-13.621l-115.519,50.417l76.189,33.034l25.212,-11.002l-44.775,-19.416Z" style="fill:#fff;fill-rule:nonzero;"/><path d="M818.118,327.942l25.048,-10.931l-69.038,-29.934l-115.519,50.417l69.041,29.931l25.448,-11.104l-37.624,-16.314l21.799,-9.517l34.842,15.105l25.047,-10.931l-34.842,-15.105l18.172,-7.931l37.626,16.314Z" style="fill:#fff;fill-rule:nonzero;"/><path d="M116.846,136.165l13.455,-5.817l0.023,0.009c4.364,-2.042 10.101,-2.417 15.196,-0.211l441.317,191.164c9.778,4.236 15.811,12.074 15.811,20.556l0,82.837c0,2.96 -2.218,5.334 -5.262,6.549l-0,0.012l-13.549,5.867l-2.158,-4.231l3.912,-2.727l-451.617,-195.629c-6.566,-2.845 -10.62,-8.114 -10.62,-13.813l0,-80.971c0,-0.158 0.034,-0.307 0.048,-0.462l-6.556,-3.133Z" style="fill:#fff;fill-rule:nonzero;"/><path d="M555.675,351.706l46.775,-20.265c-2.714,-4.175 -7.054,-7.732 -12.59,-10.131l-5.215,-2.256l-28.95,12.576l-0.02,20.076Z" style="fill:#b8bcfc;fill-rule:nonzero;"/><path d="M603.817,340.701l-21.054,9.146l-0,78.572l4.054,1.757l-3.913,2.724l2.158,4.231l13.549,-5.864l0,-0.012c3.048,-1.218 5.263,-3.592 5.263,-6.552l0,-82.833c0,-0.391 -0.034,-0.781 -0.057,-1.169Z" style="fill:#b8bcfc;fill-rule:nonzero;"/><path d="M133.59,136.063l441.314,191.163c9.781,4.24 15.815,12.077 15.815,20.56l0,82.836c0,5.715 -8.239,9.289 -14.832,6.431l-453.842,-196.59c-6.566,-2.848 -10.62,-8.114 -10.62,-13.813l-0,-80.974c-0,-8.541 12.317,-13.881 22.165,-9.613Z" style="fill:#c9dafc;fill-rule:nonzero;"/><path d="M577.147,425.658l-454.887,-197.049l0,-85.273l454.887,197.043l-0,85.279Zm-32.873,-60.749c-1.289,-0 -2.417,0.291 -3.377,0.873c-2.192,1.333 -3.306,4.116 -3.32,8.35c-0.01,4.066 1.091,7.775 3.33,11.144c2.229,3.366 5.266,5.885 9.094,7.546c2.3,0.995 4.304,1.494 6.011,1.494c1.316,0 2.451,-0.294 3.427,-0.886c2.226,-1.361 3.34,-4.144 3.364,-8.362c0.013,-4.06 -1.125,-7.772 -3.414,-11.135c-2.286,-3.362 -5.381,-5.888 -9.283,-7.583c-2.212,-0.961 -4.158,-1.441 -5.832,-1.441Zm-4.111,-19.094l-27.286,30.446l9.932,4.307l27.287,-30.445l-9.933,-4.308Zm-69.277,-29.135c-2.013,-0 -3.683,0.524 -5.047,1.565c-2.906,2.25 -4.377,7.122 -4.411,14.631c-0.023,7.156 1.435,13.196 4.388,18.108c2.949,4.915 7.346,8.64 13.202,11.176c3.212,1.397 5.986,2.095 8.323,2.095c1.993,-0 3.663,-0.512 5.003,-1.534c2.916,-2.219 4.384,-7.06 4.411,-14.529c0.034,-7.218 -1.434,-13.295 -4.401,-18.232c-2.963,-4.94 -7.36,-8.675 -13.181,-11.194c-3.199,-1.392 -5.96,-2.086 -8.287,-2.086Zm36.263,15.291c-1.303,-0 -2.431,0.291 -3.39,0.877c-2.192,1.333 -3.307,4.119 -3.32,8.352c-0.01,4.079 1.091,7.804 3.33,11.173c2.232,3.368 5.262,5.885 9.094,7.546c2.31,1.001 4.313,1.503 6.034,1.503c1.316,-0 2.454,-0.298 3.414,-0.893c2.229,-1.36 3.33,-4.159 3.354,-8.392c0.013,-4.06 -1.125,-7.773 -3.415,-11.135c-2.286,-3.366 -5.38,-5.895 -9.283,-7.587c-2.215,-0.964 -4.158,-1.444 -5.818,-1.444Zm-73.91,-30.697c-0.131,0 -0.259,0.003 -0.39,0.006c-3.805,0.081 -6.697,1.525 -8.667,4.324c-1.953,2.801 -2.949,7.146 -2.973,13.041c-0.027,5.811 1.589,11.042 4.835,15.684c3.236,4.646 7.751,8.222 13.525,10.726c3.438,1.494 6.401,2.238 8.893,2.238c1.434,0 2.714,-0.251 3.838,-0.756c3.034,-1.37 4.576,-4.37 4.589,-9.006c0.021,-4.314 -1.161,-8.197 -3.555,-11.653c-2.397,-3.455 -5.764,-6.127 -10.115,-8.011c-1.966,-0.859 -3.697,-1.286 -5.192,-1.286c-1.872,-0 -3.367,0.669 -4.491,2.005l-0.391,-0.177c0.202,-3.706 1.397,-5.925 3.569,-6.66c0.603,-0.204 1.303,-0.31 2.071,-0.31c2.017,0 4.626,0.691 7.801,2.074c2.62,1.131 5.037,2.361 7.266,3.697l0.037,-8.92c-2.656,-1.478 -4.979,-2.649 -6.959,-3.511c-5.391,-2.337 -9.957,-3.505 -13.691,-3.505Zm-59.091,13.19l-0,2.597l17.138,7.457l0,-2.598l-17.138,-7.456Zm-0,-5.247l-0,2.6l28.579,12.431l0,-2.6l-28.579,-12.431Zm-55.583,-34.558l-0,27.018l50.903,22.047l-0,-27.018l-50.903,-22.047Zm55.583,29.314l-0,2.601l28.579,12.43l0,-2.6l-28.579,-12.431Zm-0,-5.243l-0,2.597l28.579,12.43l0,-2.6l-28.579,-12.427Zm-0,-17.82l-0,2.6l17.138,7.453l0,-2.597l-17.138,-7.456Zm-0,-5.244l-0,2.597l28.579,12.431l0,-2.597l-28.579,-12.431Zm-55.583,-34.562l-0,27.019l50.903,22.047l-0,-27.018l-50.903,-22.048Zm55.583,29.315l-0,2.6l28.579,12.431l0,-2.6l-28.579,-12.431Zm-91.301,4.525l0,2.6l17.142,7.457l0,-2.601l-17.142,-7.456Zm0,-5.244l0,2.6l28.58,12.431l-0,-2.6l-28.58,-12.431Zm-55.583,-34.561l0,27.018l50.9,22.05l-0,-27.018l-50.9,-22.05Zm146.884,30.036l-0,2.597l28.579,12.431l0,-2.597l-28.579,-12.431Zm-91.301,-0.719l0,2.597l28.58,12.431l-0,-2.597l-28.58,-12.431Zm0,-5.246l0,2.6l28.58,12.43l-0,-2.6l-28.58,-12.43Zm0,-17.817l0,2.597l17.142,7.456l0,-2.597l-17.142,-7.456Zm0,-5.247l0,2.6l28.58,12.431l-0,-2.601l-28.58,-12.43Zm-55.583,-34.559l0,27.019l50.9,22.047l-0,-27.018l-50.9,-22.048Zm55.583,29.315l0,2.597l28.58,12.434l-0,-2.6l-28.58,-12.431Zm-91.3,4.469l-0,2.597l17.142,7.457l-0,-2.597l-17.142,-7.457Zm-0,-5.247l-0,2.6l28.583,12.431l-0,-2.6l-28.583,-12.431Zm-55.583,-34.558l-0,27.018l50.903,22.047l-0,-27.018l-50.903,-22.047Zm146.883,30.089l0,2.6l28.58,12.431l-0,-2.597l-28.58,-12.434Zm-91.3,-0.774l-0,2.597l28.583,12.43l-0,-2.597l-28.583,-12.43Zm-0,-5.247l-0,2.6l28.583,12.43l-0,-2.6l-28.583,-12.43Zm-0,-17.817l-0,2.597l17.142,7.456l-0,-2.597l-17.142,-7.456Zm-0,-5.247l-0,2.6l28.583,12.431l-0,-2.597l-28.583,-12.434Zm-55.583,-34.558l-0,27.018l50.903,22.047l-0,-27.018l-50.903,-22.047Zm55.583,29.314l-0,2.6l28.583,12.431l-0,-2.6l-28.583,-12.431Zm-0,-5.243l-0,2.597l28.583,12.43l-0,-2.597l-28.583,-12.43Zm359.401,200.086c-0.236,-0 -0.499,-0.062 -0.782,-0.19c-0.855,-0.365 -1.481,-1.131 -1.895,-2.293c-0.428,-1.168 -0.63,-2.857 -0.63,-5.07c0.014,-2.176 0.226,-3.676 0.64,-4.497c0.286,-0.564 0.677,-0.846 1.175,-0.846c0.236,0 0.488,0.059 0.758,0.177c0.959,0.415 1.626,1.27 1.979,2.556c0.367,1.284 0.546,2.889 0.536,4.817c-0,1.924 -0.192,3.365 -0.569,4.335c-0.263,0.673 -0.664,1.011 -1.212,1.011Zm-70.483,-32.768c-0.427,0 -0.902,-0.111 -1.41,-0.337c-1.637,-0.707 -2.798,-2.105 -3.475,-4.193c-0.687,-2.089 -1.017,-5.52 -1.007,-10.299c0.024,-4.807 0.381,-7.971 1.078,-9.48c0.478,-1.029 1.165,-1.54 2.077,-1.54c0.424,-0 0.902,0.111 1.421,0.337c1.623,0.704 2.774,2.145 3.461,4.321c0.687,2.175 1.02,5.606 0.997,10.282c-0.014,4.658 -0.367,7.761 -1.054,9.316c-0.465,1.063 -1.162,1.593 -2.088,1.593Zm33.311,-0.176c-0.226,-0 -0.475,-0.059 -0.748,-0.177c-0.855,-0.366 -1.481,-1.137 -1.896,-2.299c-0.427,-1.163 -0.629,-2.852 -0.629,-5.071c0.01,-2.172 0.225,-3.669 0.643,-4.49c0.283,-0.564 0.673,-0.849 1.172,-0.849c0.235,-0 0.484,0.058 0.757,0.179c0.842,0.369 1.472,1.132 1.886,2.291c0.4,1.162 0.606,2.848 0.606,5.06c-0.014,2.254 -0.226,3.772 -0.64,4.559c-0.286,0.53 -0.667,0.797 -1.151,0.797Zm-72.442,-16.85c-0.603,-0 -1.28,-0.161 -2.037,-0.487c-1.482,-0.647 -2.691,-1.76 -3.603,-3.344c-0.916,-1.58 -1.35,-3.291 -1.35,-5.138c0.007,-1.271 0.485,-2.148 1.431,-2.619c0.404,-0.198 0.852,-0.3 1.35,-0.3c0.69,-0 1.471,0.192 2.36,0.576c3.071,1.333 4.6,3.716 4.59,7.137c-0.014,2.005 -0.452,3.27 -1.341,3.803c-0.414,0.251 -0.878,0.372 -1.4,0.372Z" style="fill:url(#_Linear75);"/><path d="M189.416,211.092l-50.903,-22.047l-0,-27.018l50.903,22.047l-0,27.018Z" style="fill:url(#_Linear76);"/><path d="M221.268,201.119l-28.58,-12.43l0,-2.6l28.58,12.43l-0,2.6Z" style="fill:url(#_Linear77);"/><path d="M221.268,206.363l-28.58,-12.43l0,-2.597l28.58,12.43l-0,2.597Z" style="fill:url(#_Linear78);"/><path d="M221.268,211.61l-28.58,-12.434l0,-2.597l28.58,12.431l-0,2.6Z" style="fill:url(#_Linear79);"/><path d="M209.83,211.88l-17.142,-7.457l0,-2.6l17.142,7.456l-0,2.601Z" style="fill:url(#_Linear80);"/><path d="M281.514,250.668l-50.899,-22.05l-0,-27.018l50.899,22.047l0,27.021Z" style="fill:url(#_Linear81);"/><path d="M313.373,240.695l-28.583,-12.433l0,-2.597l28.583,12.43l-0,2.6Z" style="fill:url(#_Linear82);"/><path d="M313.373,245.939l-28.583,-12.431l0,-2.6l28.583,12.431l-0,2.6Z" style="fill:url(#_Linear83);"/><path d="M313.373,251.183l-28.583,-12.431l0,-2.6l28.583,12.434l-0,2.597Z" style="fill:url(#_Linear84);"/><path d="M301.932,251.452l-17.142,-7.456l0,-2.597l17.142,7.456l-0,2.597Z" style="fill:url(#_Linear85);"/><path d="M368.198,290.179l-50.902,-22.047l-0,-27.018l50.902,22.044l0,27.021Z" style="fill:url(#_Linear86);"/><path d="M405.472,280.203l-28.58,-12.431l0,-2.597l28.58,12.431l-0,2.597Z" style="fill:url(#_Linear87);"/><path d="M405.472,285.45l-28.58,-12.431l0,-2.6l28.58,12.431l-0,2.6Z" style="fill:url(#_Linear88);"/><path d="M405.472,290.694l-28.58,-12.431l0,-2.597l28.58,12.431l-0,2.597Z" style="fill:url(#_Linear89);"/><path d="M394.034,290.963l-17.142,-7.453l0,-2.6l17.142,7.456l-0,2.597Z" style="fill:url(#_Linear90);"/><path d="M189.416,244.628l-50.903,-22.047l-0,-27.018l50.903,22.047l-0,27.018Z" style="fill:url(#_Linear91);"/><path d="M221.268,234.655l-28.58,-12.43l0,-2.601l28.58,12.431l-0,2.6Z" style="fill:url(#_Linear92);"/><path d="M221.268,239.899l-28.58,-12.431l0,-2.6l28.58,12.434l-0,2.597Z" style="fill:url(#_Linear93);"/><path d="M221.268,245.143l-28.58,-12.431l0,-2.597l28.58,12.431l-0,2.597Z" style="fill:url(#_Linear94);"/><path d="M209.83,245.415l-17.142,-7.456l0,-2.6l17.142,7.456l-0,2.6Z" style="fill:url(#_Linear95);"/><path d="M281.514,284.204l-50.899,-22.05l-0,-27.018l50.899,22.047l0,27.021Z" style="fill:url(#_Linear96);"/><path d="M313.373,274.228l-28.583,-12.431l0,-2.597l28.583,12.431l-0,2.597Z" style="fill:url(#_Linear97);"/><path d="M313.373,279.475l-28.583,-12.431l0,-2.6l28.583,12.431l-0,2.6Z" style="fill:url(#_Linear98);"/><path d="M313.373,284.719l-28.583,-12.431l0,-2.6l28.583,12.43l-0,2.601Z" style="fill:url(#_Linear99);"/><path d="M301.932,284.988l-17.142,-7.456l0,-2.597l17.142,7.456l-0,2.597Z" style="fill:url(#_Linear100);"/><path d="M368.198,323.715l-50.902,-22.047l-0,-27.022l50.902,22.051l0,27.018Z" style="fill:url(#_Linear101);"/><path d="M405.472,313.773l-28.58,-12.431l0,-2.6l28.58,12.431l-0,2.6Z" style="fill:url(#_Linear102);"/><path d="M405.472,319.017l-28.58,-12.431l0,-2.6l28.58,12.434l-0,2.597Z" style="fill:url(#_Linear103);"/><path d="M405.472,324.263l-28.58,-12.433l0,-2.597l28.58,12.43l-0,2.6Z" style="fill:url(#_Linear104);"/><path d="M394.034,324.533l-17.142,-7.456l0,-2.601l17.142,7.457l-0,2.6Z" style="fill:url(#_Linear105);"/><path d="M447.485,347.305c-2.488,0 -5.451,-0.746 -8.889,-2.237c-5.774,-2.504 -10.289,-6.084 -13.525,-10.729c-3.249,-4.646 -4.862,-9.874 -4.838,-15.685c0.027,-5.891 1.02,-10.236 2.976,-13.038c1.97,-2.802 4.862,-4.243 8.667,-4.326c0.128,-0.004 0.259,-0.007 0.39,-0.007c3.734,0 8.297,1.169 13.691,3.505c1.98,0.862 4.303,2.037 6.959,3.512l-0.037,8.922c-2.229,-1.339 -4.646,-2.569 -7.266,-3.7c-3.175,-1.382 -5.784,-2.07 -7.801,-2.07c-0.771,-0 -1.468,0.102 -2.071,0.306c-2.172,0.735 -3.367,2.954 -3.569,6.66l0.391,0.177c1.124,-1.336 2.619,-2.005 4.491,-2.005c1.495,-0 3.226,0.428 5.192,1.283c4.35,1.887 7.718,4.559 10.115,8.017c2.394,3.453 3.576,7.339 3.555,11.65c-0.013,4.636 -1.555,7.636 -4.589,9.009c-1.124,0.502 -2.404,0.756 -3.842,0.756Zm-11.33,-22.806c-0.498,-0 -0.949,0.099 -1.35,0.297c-0.949,0.475 -1.424,1.349 -1.438,2.619c0,1.847 0.441,3.558 1.354,5.139c0.912,1.583 2.121,2.696 3.603,3.344c0.757,0.325 1.434,0.486 2.04,0.486c0.519,0 0.983,-0.121 1.397,-0.369c0.889,-0.536 1.33,-1.797 1.337,-3.805c0.014,-3.422 -1.515,-5.805 -4.586,-7.138c-0.889,-0.381 -1.67,-0.573 -2.357,-0.573Z" style="fill:url(#_Linear106);"/><path d="M489.486,364.242c-2.334,0 -5.108,-0.697 -8.32,-2.092c-5.859,-2.535 -10.256,-6.263 -13.206,-11.175c-2.953,-4.915 -4.411,-10.953 -4.387,-18.112c0.037,-7.506 1.508,-12.381 4.411,-14.627c1.364,-1.045 3.034,-1.565 5.05,-1.565c2.324,-0 5.085,0.694 8.287,2.082c5.818,2.523 10.219,6.257 13.178,11.194c2.967,4.94 4.435,11.018 4.398,18.235c-0.021,7.469 -1.492,12.31 -4.408,14.526c-1.34,1.023 -3.013,1.534 -5.003,1.534Zm-9.613,-36.703c-0.913,0 -1.599,0.515 -2.074,1.544c-0.701,1.509 -1.057,4.67 -1.078,9.48c-0.013,4.776 0.32,8.206 1.007,10.295c0.677,2.089 1.838,3.49 3.475,4.196c0.505,0.227 0.983,0.338 1.407,0.338c0.926,0 1.627,-0.53 2.088,-1.593c0.687,-1.556 1.044,-4.661 1.054,-9.319c0.023,-4.673 -0.307,-8.104 -0.994,-10.28c-0.69,-2.175 -1.838,-3.62 -3.464,-4.323c-0.519,-0.223 -0.994,-0.338 -1.421,-0.338Z" style="fill:url(#_Linear107);"/><path d="M519.954,361.406c-1.717,0 -3.721,-0.498 -6.034,-1.499c-3.828,-1.662 -6.862,-4.181 -9.091,-7.547c-2.242,-3.369 -3.343,-7.094 -3.33,-11.172c0.01,-4.234 1.125,-7.017 3.317,-8.352c0.963,-0.583 2.087,-0.874 3.39,-0.874c1.66,-0 3.607,0.477 5.822,1.441c3.899,1.692 6.993,4.221 9.283,7.583c2.286,3.366 3.424,7.079 3.414,11.139c-0.027,4.233 -1.128,7.032 -3.357,8.392c-0.959,0.592 -2.097,0.889 -3.414,0.889Zm-6.579,-21.077c-0.498,0 -0.889,0.279 -1.175,0.846c-0.414,0.822 -0.626,2.319 -0.64,4.491c0,2.219 0.205,3.908 0.633,5.07c0.414,1.165 1.04,1.934 1.896,2.3c0.269,0.118 0.522,0.176 0.747,0.176c0.485,0 0.862,-0.266 1.148,-0.796c0.414,-0.787 0.63,-2.306 0.64,-4.559c0,-2.213 -0.202,-3.902 -0.606,-5.061c-0.414,-1.159 -1.04,-1.921 -1.886,-2.29c-0.269,-0.118 -0.518,-0.177 -0.757,-0.177Z" style="fill:url(#_Linear108);"/><path d="M557.857,394.332c-1.707,-0 -3.711,-0.499 -6.01,-1.494c-3.829,-1.664 -6.866,-4.178 -9.091,-7.547c-2.243,-3.368 -3.344,-7.081 -3.334,-11.144c0.014,-4.233 1.128,-7.016 3.32,-8.352c0.963,-0.583 2.088,-0.874 3.381,-0.874c1.67,-0 3.612,0.483 5.831,1.444c3.899,1.695 6.994,4.218 9.28,7.584c2.289,3.362 3.428,7.075 3.414,11.135c-0.023,4.218 -1.138,7.001 -3.367,8.361c-0.97,0.589 -2.108,0.887 -3.424,0.887Zm-6.556,-21.047c-0.498,0 -0.889,0.286 -1.175,0.853c-0.414,0.818 -0.626,2.318 -0.64,4.493c0,2.213 0.206,3.902 0.63,5.071c0.414,1.162 1.044,1.927 1.896,2.293c0.286,0.127 0.545,0.189 0.784,0.189c0.542,0 0.946,-0.338 1.209,-1.01c0.38,-0.97 0.569,-2.415 0.569,-4.339c0.01,-1.928 -0.168,-3.53 -0.532,-4.816c-0.357,-1.283 -1.02,-2.139 -1.983,-2.554c-0.273,-0.121 -0.519,-0.18 -0.758,-0.18Z" style="fill:url(#_Linear109);"/><path d="M522.267,380.572l-9.933,-4.308l27.287,-30.446l9.933,4.311l-27.287,30.443Z" style="fill:url(#_Linear110);"/></g></g><defs><linearGradient id="_Linear1" x1="0" y1="0" x2="1" y2="0" gradientUnits="userSpaceOnUse" gradientTransform="matrix(1.89799e-14,-285.303,309.966,1.74698e-14,865.93,553.701)"><stop offset="0" style="stop-color:#ebf2f9;stop-opacity:1"/><stop offset="1" style="stop-color:#93d8f6;stop-opacity:1"/></linearGradient><linearGradient id="_Linear2" x1="0" y1="0" x2="1" y2="0" gradientUnits="userSpaceOnUse" gradientTransform="matrix(1.64803e-14,-247.729,269.144,1.5169e-14,687.572,720.18)"><stop offset="0" style="stop-color:#ebf2f9;stop-opacity:1"/><stop offset="1" style="stop-color:#93d8f6;stop-opacity:1"/></linearGradient><linearGradient id="_Linear3" x1="0" y1="0" x2="1" y2="0" gradientUnits="userSpaceOnUse" gradientTransform="matrix(126.932,0,0,116.833,734.454,402.044)"><stop offset="0" style="stop-color:#70a3d6;stop-opacity:1"/><stop offset="1" style="stop-color:#6e7cbc;stop-opacity:1"/></linearGradient><linearGradient id="_Linear4" x1="0" y1="0" x2="1" y2="0" gradientUnits="userSpaceOnUse" gradientTransform="matrix(4.56864e-14,-686.749,746.115,4.20512e-14,730.545,748.107)"><stop offset="0" style="stop-color:#ebf2f9;stop-opacity:1"/><stop offset="1" style="stop-color:#93d8f6;stop-opacity:1"/></linearGradient><linearGradient id="_Linear5" x1="0" y1="0" x2="1" y2="0" gradientUnits="userSpaceOnUse" gradientTransform="matrix(126.935,0,0,116.835,599.012,460.436)"><stop offset="0" style="stop-color:#db6777;stop-opacity:1"/><stop offset="1" style="stop-color:#c34297;stop-opacity:1"/></linearGradient><linearGradient id="_Linear6" x1="0" y1="0" x2="1" y2="0" gradientUnits="userSpaceOnUse" gradientTransform="matrix(4.56864e-14,-686.749,746.115,4.20512e-14,595.103,748.094)"><stop offset="0" style="stop-color:#ebf2f9;stop-opacity:1"/><stop offset="1" style="stop-color:#93d8f6;stop-opacity:1"/></linearGradient><linearGradient id="_Linear7" x1="0" y1="0" x2="1" y2="0" gradientUnits="userSpaceOnUse" gradientTransform="matrix(43.595,0,0,40.1263,918.658,374.57)"><stop offset="0" style="stop-color:#db6777;stop-opacity:1"/><stop offset="1" style="stop-color:#c34297;stop-opacity:1"/></linearGradient><linearGradient id="_Linear8" x1="0" y1="0" x2="1" y2="0" gradientUnits="userSpaceOnUse" gradientTransform="matrix(4.56866e-14,-686.752,746.118,4.20514e-14,920.069,748.094)"><stop offset="0" style="stop-color:#ebf2f9;stop-opacity:1"/><stop offset="1" style="stop-color:#93d8f6;stop-opacity:1"/></linearGradient><linearGradient id="_Linear9" x1="0" y1="0" x2="1" y2="0" gradientUnits="userSpaceOnUse" gradientTransform="matrix(43.595,0,0,40.1263,918.658,478.414)"><stop offset="0" style="stop-color:#db6777;stop-opacity:1"/><stop offset="1" style="stop-color:#c34297;stop-opacity:1"/></linearGradient><linearGradient id="_Linear10" x1="0" y1="0" x2="1" y2="0" gradientUnits="userSpaceOnUse" gradientTransform="matrix(4.56866e-14,-686.752,746.118,4.20514e-14,920.069,748.113)"><stop offset="0" style="stop-color:#ebf2f9;stop-opacity:1"/><stop offset="1" style="stop-color:#93d8f6;stop-opacity:1"/></linearGradient><linearGradient id="_Linear11" x1="0" y1="0" x2="1" y2="0" gradientUnits="userSpaceOnUse" gradientTransform="matrix(1.64803e-14,-247.729,269.144,1.5169e-14,855.183,720.168)"><stop offset="0" style="stop-color:#ebf2f9;stop-opacity:1"/><stop offset="1" style="stop-color:#93d8f6;stop-opacity:1"/></linearGradient><linearGradient id="_Linear12" x1="0" y1="0" x2="1" y2="0" gradientUnits="userSpaceOnUse" gradientTransform="matrix(4.56864e-14,-686.749,746.115,4.20512e-14,783.297,748.113)"><stop offset="0" style="stop-color:#ebf2f9;stop-opacity:1"/><stop offset="1" style="stop-color:#93d8f6;stop-opacity:1"/></linearGradient><linearGradient id="_Linear13" x1="0" y1="0" x2="1" y2="0" gradientUnits="userSpaceOnUse" gradientTransform="matrix(4.56866e-14,-686.752,746.118,4.20514e-14,827.388,748.107)"><stop offset="0" style="stop-color:#ebf2f9;stop-opacity:1"/><stop offset="1" style="stop-color:#93d8f6;stop-opacity:1"/></linearGradient><linearGradient id="_Linear14" x1="0" y1="0" x2="1" y2="0" gradientUnits="userSpaceOnUse" gradientTransform="matrix(4.56864e-14,-686.749,746.115,4.20512e-14,800.307,748.1)"><stop offset="0" style="stop-color:#ebf2f9;stop-opacity:1"/><stop offset="1" style="stop-color:#93d8f6;stop-opacity:1"/></linearGradient><linearGradient id="_Linear15" x1="0" y1="0" x2="1" y2="0" gradientUnits="userSpaceOnUse" gradientTransform="matrix(4.56864e-14,-686.749,746.115,4.20512e-14,767.791,748.11)"><stop offset="0" style="stop-color:#ebf2f9;stop-opacity:1"/><stop offset="1" style="stop-color:#93d8f6;stop-opacity:1"/></linearGradient><linearGradient id="_Linear16" x1="0" y1="0" x2="1" y2="0" gradientUnits="userSpaceOnUse" gradientTransform="matrix(4.56866e-14,-686.752,746.118,4.20514e-14,735.296,748.113)"><stop offset="0" style="stop-color:#ebf2f9;stop-opacity:1"/><stop offset="1" style="stop-color:#93d8f6;stop-opacity:1"/></linearGradient><linearGradient id="_Linear17" x1="0" y1="0" x2="1" y2="0" gradientUnits="userSpaceOnUse" gradientTransform="matrix(4.56864e-14,-686.749,746.115,4.20512e-14,833.361,748.097)"><stop offset="0" style="stop-color:#ebf2f9;stop-opacity:1"/><stop offset="1" style="stop-color:#93d8f6;stop-opacity:1"/></linearGradient><linearGradient id="_Linear18" x1="0" y1="0" x2="1" y2="0" gradientUnits="userSpaceOnUse" gradientTransform="matrix(4.56864e-14,-686.749,746.115,4.20512e-14,800.856,748.091)"><stop offset="0" style="stop-color:#ebf2f9;stop-opacity:1"/><stop offset="1" style="stop-color:#93d8f6;stop-opacity:1"/></linearGradient><linearGradient id="_Linear19" x1="0" y1="0" x2="1" y2="0" gradientUnits="userSpaceOnUse" gradientTransform="matrix(4.56864e-14,-686.749,746.115,4.20512e-14,768.35,748.1)"><stop offset="0" style="stop-color:#ebf2f9;stop-opacity:1"/><stop offset="1" style="stop-color:#93d8f6;stop-opacity:1"/></linearGradient><linearGradient id="_Linear20" x1="0" y1="0" x2="1" y2="0" gradientUnits="userSpaceOnUse" gradientTransform="matrix(4.56864e-14,-686.749,746.115,4.20512e-14,741.263,748.107)"><stop offset="0" style="stop-color:#ebf2f9;stop-opacity:1"/><stop offset="1" style="stop-color:#93d8f6;stop-opacity:1"/></linearGradient><linearGradient id="_Linear21" x1="0" y1="0" x2="1" y2="0" gradientUnits="userSpaceOnUse" gradientTransform="matrix(4.56864e-14,-686.749,746.115,4.20512e-14,783.297,748.104)"><stop offset="0" style="stop-color:#ebf2f9;stop-opacity:1"/><stop offset="1" style="stop-color:#93d8f6;stop-opacity:1"/></linearGradient><linearGradient id="_Linear22" x1="0" y1="0" x2="1" y2="0" gradientUnits="userSpaceOnUse" gradientTransform="matrix(4.56866e-14,-686.752,746.118,4.20514e-14,664.605,748.113)"><stop offset="0" style="stop-color:#ebf2f9;stop-opacity:1"/><stop offset="1" style="stop-color:#93d8f6;stop-opacity:1"/></linearGradient><linearGradient id="_Linear23" x1="0" y1="0" x2="1" y2="0" gradientUnits="userSpaceOnUse" gradientTransform="matrix(4.56866e-14,-686.752,746.118,4.20514e-14,664.642,748.107)"><stop offset="0" style="stop-color:#ebf2f9;stop-opacity:1"/><stop offset="1" style="stop-color:#93d8f6;stop-opacity:1"/></linearGradient><linearGradient id="_Linear24" x1="0" y1="0" x2="1" y2="0" gradientUnits="userSpaceOnUse" gradientTransform="matrix(4.56866e-14,-686.752,746.118,4.20514e-14,642.938,748.088)"><stop offset="0" style="stop-color:#ebf2f9;stop-opacity:1"/><stop offset="1" style="stop-color:#93d8f6;stop-opacity:1"/></linearGradient><linearGradient id="_Linear25" x1="0" y1="0" x2="1" y2="0" gradientUnits="userSpaceOnUse" gradientTransform="matrix(4.56866e-14,-686.752,746.118,4.20514e-14,648.383,748.113)"><stop offset="0" style="stop-color:#ebf2f9;stop-opacity:1"/><stop offset="1" style="stop-color:#93d8f6;stop-opacity:1"/></linearGradient><linearGradient id="_Linear26" x1="0" y1="0" x2="1" y2="0" gradientUnits="userSpaceOnUse" gradientTransform="matrix(4.56864e-14,-686.749,746.115,4.20512e-14,626.672,748.113)"><stop offset="0" style="stop-color:#ebf2f9;stop-opacity:1"/><stop offset="1" style="stop-color:#93d8f6;stop-opacity:1"/></linearGradient><linearGradient id="_Linear27" x1="0" y1="0" x2="1" y2="0" gradientUnits="userSpaceOnUse" gradientTransform="matrix(4.56861e-14,-686.746,746.111,4.2051e-14,626.719,748.11)"><stop offset="0" style="stop-color:#ebf2f9;stop-opacity:1"/><stop offset="1" style="stop-color:#93d8f6;stop-opacity:1"/></linearGradient><linearGradient id="_Linear28" x1="0" y1="0" x2="1" y2="0" gradientUnits="userSpaceOnUse" gradientTransform="matrix(4.56864e-14,-686.749,746.115,4.20512e-14,605.015,748.088)"><stop offset="0" style="stop-color:#ebf2f9;stop-opacity:1"/><stop offset="1" style="stop-color:#93d8f6;stop-opacity:1"/></linearGradient><linearGradient id="_Linear29" x1="0" y1="0" x2="1" y2="0" gradientUnits="userSpaceOnUse" gradientTransform="matrix(4.56864e-14,-686.749,746.115,4.20512e-14,605.046,748.116)"><stop offset="0" style="stop-color:#ebf2f9;stop-opacity:1"/><stop offset="1" style="stop-color:#93d8f6;stop-opacity:1"/></linearGradient><linearGradient id="_Linear30" x1="0" y1="0" x2="1" y2="0" gradientUnits="userSpaceOnUse" gradientTransform="matrix(4.56864e-14,-686.749,746.115,4.20512e-14,481.708,748.107)"><stop offset="0" style="stop-color:#ebf2f9;stop-opacity:1"/><stop offset="1" style="stop-color:#93d8f6;stop-opacity:1"/></linearGradient><linearGradient id="_Linear31" x1="0" y1="0" x2="1" y2="0" gradientUnits="userSpaceOnUse" gradientTransform="matrix(4.56866e-14,-686.752,746.118,4.20514e-14,502.082,748.094)"><stop offset="0" style="stop-color:#ebf2f9;stop-opacity:1"/><stop offset="1" style="stop-color:#93d8f6;stop-opacity:1"/></linearGradient><linearGradient id="_Linear32" x1="0" y1="0" x2="1" y2="0" gradientUnits="userSpaceOnUse" gradientTransform="matrix(4.56866e-14,-686.752,746.118,4.20514e-14,502.119,748.091)"><stop offset="0" style="stop-color:#ebf2f9;stop-opacity:1"/><stop offset="1" style="stop-color:#93d8f6;stop-opacity:1"/></linearGradient><linearGradient id="_Linear33" x1="0" y1="0" x2="1" y2="0" gradientUnits="userSpaceOnUse" gradientTransform="matrix(4.56866e-14,-686.752,746.118,4.20514e-14,523.739,748.113)"><stop offset="0" style="stop-color:#ebf2f9;stop-opacity:1"/><stop offset="1" style="stop-color:#93d8f6;stop-opacity:1"/></linearGradient><linearGradient id="_Linear34" x1="0" y1="0" x2="1" y2="0" gradientUnits="userSpaceOnUse" gradientTransform="matrix(4.56866e-14,-686.752,746.118,4.20514e-14,523.782,748.107)"><stop offset="0" style="stop-color:#ebf2f9;stop-opacity:1"/><stop offset="1" style="stop-color:#93d8f6;stop-opacity:1"/></linearGradient><linearGradient id="_Linear35" x1="0" y1="0" x2="1" y2="0" gradientUnits="userSpaceOnUse" gradientTransform="matrix(4.56866e-14,-686.752,746.118,4.20514e-14,545.419,748.113)"><stop offset="0" style="stop-color:#ebf2f9;stop-opacity:1"/><stop offset="1" style="stop-color:#93d8f6;stop-opacity:1"/></linearGradient><linearGradient id="_Linear36" x1="0" y1="0" x2="1" y2="0" gradientUnits="userSpaceOnUse" gradientTransform="matrix(4.56866e-14,-686.752,746.118,4.20514e-14,545.453,748.11)"><stop offset="0" style="stop-color:#ebf2f9;stop-opacity:1"/><stop offset="1" style="stop-color:#93d8f6;stop-opacity:1"/></linearGradient><linearGradient id="_Linear37" x1="0" y1="0" x2="1" y2="0" gradientUnits="userSpaceOnUse" gradientTransform="matrix(4.56864e-14,-686.749,746.115,4.20512e-14,567.076,748.091)"><stop offset="0" style="stop-color:#ebf2f9;stop-opacity:1"/><stop offset="1" style="stop-color:#93d8f6;stop-opacity:1"/></linearGradient><linearGradient id="_Linear38" x1="0" y1="0" x2="1" y2="0" gradientUnits="userSpaceOnUse" gradientTransform="matrix(4.56866e-14,-686.752,746.118,4.20514e-14,561.709,748.088)"><stop offset="0" style="stop-color:#ebf2f9;stop-opacity:1"/><stop offset="1" style="stop-color:#93d8f6;stop-opacity:1"/></linearGradient><linearGradient id="_Linear39" x1="0" y1="0" x2="1" y2="0" gradientUnits="userSpaceOnUse" gradientTransform="matrix(4.56861e-14,-686.746,746.111,4.2051e-14,362.516,748.104)"><stop offset="0" style="stop-color:#ebf2f9;stop-opacity:1"/><stop offset="1" style="stop-color:#93d8f6;stop-opacity:1"/></linearGradient><linearGradient id="_Linear40" x1="0" y1="0" x2="1" y2="0" gradientUnits="userSpaceOnUse" gradientTransform="matrix(4.56866e-14,-686.752,746.118,4.20514e-14,382.89,748.091)"><stop offset="0" style="stop-color:#ebf2f9;stop-opacity:1"/><stop offset="1" style="stop-color:#93d8f6;stop-opacity:1"/></linearGradient><linearGradient id="_Linear41" x1="0" y1="0" x2="1" y2="0" gradientUnits="userSpaceOnUse" gradientTransform="matrix(4.56864e-14,-686.749,746.115,4.20512e-14,382.924,748.119)"><stop offset="0" style="stop-color:#ebf2f9;stop-opacity:1"/><stop offset="1" style="stop-color:#93d8f6;stop-opacity:1"/></linearGradient><linearGradient id="_Linear42" x1="0" y1="0" x2="1" y2="0" gradientUnits="userSpaceOnUse" gradientTransform="matrix(4.56868e-14,-686.755,746.121,4.20516e-14,404.549,748.11)"><stop offset="0" style="stop-color:#ebf2f9;stop-opacity:1"/><stop offset="1" style="stop-color:#93d8f6;stop-opacity:1"/></linearGradient><linearGradient id="_Linear43" x1="0" y1="0" x2="1" y2="0" gradientUnits="userSpaceOnUse" gradientTransform="matrix(4.56866e-14,-686.752,746.118,4.20514e-14,404.598,748.104)"><stop offset="0" style="stop-color:#ebf2f9;stop-opacity:1"/><stop offset="1" style="stop-color:#93d8f6;stop-opacity:1"/></linearGradient><linearGradient id="_Linear44" x1="0" y1="0" x2="1" y2="0" gradientUnits="userSpaceOnUse" gradientTransform="matrix(4.56861e-14,-686.746,746.111,4.2051e-14,426.23,748.11)"><stop offset="0" style="stop-color:#ebf2f9;stop-opacity:1"/><stop offset="1" style="stop-color:#93d8f6;stop-opacity:1"/></linearGradient><linearGradient id="_Linear45" x1="0" y1="0" x2="1" y2="0" gradientUnits="userSpaceOnUse" gradientTransform="matrix(4.56866e-14,-686.752,746.118,4.20514e-14,426.255,748.104)"><stop offset="0" style="stop-color:#ebf2f9;stop-opacity:1"/><stop offset="1" style="stop-color:#93d8f6;stop-opacity:1"/></linearGradient><linearGradient id="_Linear46" x1="0" y1="0" x2="1" y2="0" gradientUnits="userSpaceOnUse" gradientTransform="matrix(4.56866e-14,-686.752,746.118,4.20514e-14,447.889,748.088)"><stop offset="0" style="stop-color:#ebf2f9;stop-opacity:1"/><stop offset="1" style="stop-color:#93d8f6;stop-opacity:1"/></linearGradient><linearGradient id="_Linear47" x1="0" y1="0" x2="1" y2="0" gradientUnits="userSpaceOnUse" gradientTransform="matrix(4.56864e-14,-686.749,746.115,4.20512e-14,442.523,748.113)"><stop offset="0" style="stop-color:#ebf2f9;stop-opacity:1"/><stop offset="1" style="stop-color:#93d8f6;stop-opacity:1"/></linearGradient><linearGradient id="_Linear48" x1="0" y1="0" x2="1" y2="0" gradientUnits="userSpaceOnUse" gradientTransform="matrix(4.56861e-14,-686.746,746.111,4.2051e-14,243.324,748.097)"><stop offset="0" style="stop-color:#ebf2f9;stop-opacity:1"/><stop offset="1" style="stop-color:#93d8f6;stop-opacity:1"/></linearGradient><linearGradient id="_Linear49" x1="0" y1="0" x2="1" y2="0" gradientUnits="userSpaceOnUse" gradientTransform="matrix(4.56861e-14,-686.746,746.111,4.2051e-14,263.69,748.119)"><stop offset="0" style="stop-color:#ebf2f9;stop-opacity:1"/><stop offset="1" style="stop-color:#93d8f6;stop-opacity:1"/></linearGradient><linearGradient id="_Linear50" x1="0" y1="0" x2="1" y2="0" gradientUnits="userSpaceOnUse" gradientTransform="matrix(4.56864e-14,-686.749,746.115,4.20512e-14,263.736,748.113)"><stop offset="0" style="stop-color:#ebf2f9;stop-opacity:1"/><stop offset="1" style="stop-color:#93d8f6;stop-opacity:1"/></linearGradient><linearGradient id="_Linear51" x1="0" y1="0" x2="1" y2="0" gradientUnits="userSpaceOnUse" gradientTransform="matrix(4.56868e-14,-686.755,746.121,4.20516e-14,285.372,748.104)"><stop offset="0" style="stop-color:#ebf2f9;stop-opacity:1"/><stop offset="1" style="stop-color:#93d8f6;stop-opacity:1"/></linearGradient><linearGradient id="_Linear52" x1="0" y1="0" x2="1" y2="0" gradientUnits="userSpaceOnUse" gradientTransform="matrix(4.56866e-14,-686.752,746.118,4.20514e-14,285.407,748.097)"><stop offset="0" style="stop-color:#ebf2f9;stop-opacity:1"/><stop offset="1" style="stop-color:#93d8f6;stop-opacity:1"/></linearGradient><linearGradient id="_Linear53" x1="0" y1="0" x2="1" y2="0" gradientUnits="userSpaceOnUse" gradientTransform="matrix(4.56866e-14,-686.752,746.118,4.20514e-14,307.032,748.104)"><stop offset="0" style="stop-color:#ebf2f9;stop-opacity:1"/><stop offset="1" style="stop-color:#93d8f6;stop-opacity:1"/></linearGradient><linearGradient id="_Linear54" x1="0" y1="0" x2="1" y2="0" gradientUnits="userSpaceOnUse" gradientTransform="matrix(4.56866e-14,-686.752,746.118,4.20514e-14,307.078,748.1)"><stop offset="0" style="stop-color:#ebf2f9;stop-opacity:1"/><stop offset="1" style="stop-color:#93d8f6;stop-opacity:1"/></linearGradient><linearGradient id="_Linear55" x1="0" y1="0" x2="1" y2="0" gradientUnits="userSpaceOnUse" gradientTransform="matrix(4.56866e-14,-686.752,746.118,4.20514e-14,323.297,748.113)"><stop offset="0" style="stop-color:#ebf2f9;stop-opacity:1"/><stop offset="1" style="stop-color:#93d8f6;stop-opacity:1"/></linearGradient><linearGradient id="_Linear56" x1="0" y1="0" x2="1" y2="0" gradientUnits="userSpaceOnUse" gradientTransform="matrix(4.56866e-14,-686.752,746.118,4.20514e-14,323.332,748.11)"><stop offset="0" style="stop-color:#ebf2f9;stop-opacity:1"/><stop offset="1" style="stop-color:#93d8f6;stop-opacity:1"/></linearGradient><linearGradient id="_Linear57" x1="0" y1="0" x2="1" y2="0" gradientUnits="userSpaceOnUse" gradientTransform="matrix(4.56864e-14,-686.749,746.115,4.20512e-14,124.133,748.11)"><stop offset="0" style="stop-color:#ebf2f9;stop-opacity:1"/><stop offset="1" style="stop-color:#93d8f6;stop-opacity:1"/></linearGradient><linearGradient id="_Linear58" x1="0" y1="0" x2="1" y2="0" gradientUnits="userSpaceOnUse" gradientTransform="matrix(4.56861e-14,-686.746,746.111,4.2051e-14,144.504,748.097)"><stop offset="0" style="stop-color:#ebf2f9;stop-opacity:1"/><stop offset="1" style="stop-color:#93d8f6;stop-opacity:1"/></linearGradient><linearGradient id="_Linear59" x1="0" y1="0" x2="1" y2="0" gradientUnits="userSpaceOnUse" gradientTransform="matrix(4.56866e-14,-686.752,746.118,4.20514e-14,144.551,748.091)"><stop offset="0" style="stop-color:#ebf2f9;stop-opacity:1"/><stop offset="1" style="stop-color:#93d8f6;stop-opacity:1"/></linearGradient><linearGradient id="_Linear60" x1="0" y1="0" x2="1" y2="0" gradientUnits="userSpaceOnUse" gradientTransform="matrix(4.56866e-14,-686.752,746.118,4.20514e-14,166.183,748.116)"><stop offset="0" style="stop-color:#ebf2f9;stop-opacity:1"/><stop offset="1" style="stop-color:#93d8f6;stop-opacity:1"/></linearGradient><linearGradient id="_Linear61" x1="0" y1="0" x2="1" y2="0" gradientUnits="userSpaceOnUse" gradientTransform="matrix(4.56868e-14,-686.755,746.121,4.20516e-14,166.218,748.11)"><stop offset="0" style="stop-color:#ebf2f9;stop-opacity:1"/><stop offset="1" style="stop-color:#93d8f6;stop-opacity:1"/></linearGradient><linearGradient id="_Linear62" x1="0" y1="0" x2="1" y2="0" gradientUnits="userSpaceOnUse" gradientTransform="matrix(4.56864e-14,-686.749,746.115,4.20512e-14,187.843,748.116)"><stop offset="0" style="stop-color:#ebf2f9;stop-opacity:1"/><stop offset="1" style="stop-color:#93d8f6;stop-opacity:1"/></linearGradient><linearGradient id="_Linear63" x1="0" y1="0" x2="1" y2="0" gradientUnits="userSpaceOnUse" gradientTransform="matrix(4.56866e-14,-686.752,746.118,4.20514e-14,187.889,748.11)"><stop offset="0" style="stop-color:#ebf2f9;stop-opacity:1"/><stop offset="1" style="stop-color:#93d8f6;stop-opacity:1"/></linearGradient><linearGradient id="_Linear64" x1="0" y1="0" x2="1" y2="0" gradientUnits="userSpaceOnUse" gradientTransform="matrix(4.56866e-14,-686.752,746.118,4.20514e-14,204.108,748.094)"><stop offset="0" style="stop-color:#ebf2f9;stop-opacity:1"/><stop offset="1" style="stop-color:#93d8f6;stop-opacity:1"/></linearGradient><linearGradient id="_Linear65" x1="0" y1="0" x2="1" y2="0" gradientUnits="userSpaceOnUse" gradientTransform="matrix(4.56864e-14,-686.749,746.115,4.20512e-14,204.143,748.088)"><stop offset="0" style="stop-color:#ebf2f9;stop-opacity:1"/><stop offset="1" style="stop-color:#93d8f6;stop-opacity:1"/></linearGradient><linearGradient id="_Linear66" x1="0" y1="0" x2="1" y2="0" gradientUnits="userSpaceOnUse" gradientTransform="matrix(103.316,0,0,95.0959,582.763,631.53)"><stop offset="0" style="stop-color:#db6777;stop-opacity:1"/><stop offset="1" style="stop-color:#c34297;stop-opacity:1"/></linearGradient><linearGradient id="_Linear67" x1="0" y1="0" x2="1" y2="0" gradientUnits="userSpaceOnUse" gradientTransform="matrix(103.316,0,0,95.0959,479.826,631.53)"><stop offset="0" style="stop-color:#f07279;stop-opacity:1"/><stop offset="1" style="stop-color:#ed529c;stop-opacity:1"/></linearGradient><linearGradient id="_Linear68" x1="0" y1="0" x2="1" y2="0" gradientUnits="userSpaceOnUse" gradientTransform="matrix(4.56866e-14,-686.752,746.118,4.20514e-14,531.483,748.113)"><stop offset="0" style="stop-color:#ebf2f9;stop-opacity:1"/><stop offset="1" style="stop-color:#93d8f6;stop-opacity:1"/></linearGradient><linearGradient id="_Linear69" x1="0" y1="0" x2="1" y2="0" gradientUnits="userSpaceOnUse" gradientTransform="matrix(102.477,0,0,94.3229,241.452,525.797)"><stop offset="0" style="stop-color:#f07279;stop-opacity:1"/><stop offset="1" style="stop-color:#ed529c;stop-opacity:1"/></linearGradient><linearGradient id="_Linear70" x1="0" y1="0" x2="1" y2="0" gradientUnits="userSpaceOnUse" gradientTransform="matrix(1.51159e-14,-227.219,246.861,1.39131e-14,346.46,588.346)"><stop offset="0" style="stop-color:#f07279;stop-opacity:1"/><stop offset="1" style="stop-color:#ed529c;stop-opacity:1"/></linearGradient><linearGradient id="_Linear71" x1="0" y1="0" x2="1" y2="0" gradientUnits="userSpaceOnUse" gradientTransform="matrix(106.629,0,0,98.1445,241.453,511.736)"><stop offset="0" style="stop-color:#f07279;stop-opacity:1"/><stop offset="1" style="stop-color:#ed529c;stop-opacity:1"/></linearGradient><linearGradient id="_Linear72" x1="0" y1="0" x2="1" y2="0" gradientUnits="userSpaceOnUse" gradientTransform="matrix(102.477,0,0,94.3229,122.261,473.573)"><stop offset="0" style="stop-color:#f07279;stop-opacity:1"/><stop offset="1" style="stop-color:#ed529c;stop-opacity:1"/></linearGradient><linearGradient id="_Linear73" x1="0" y1="0" x2="1" y2="0" gradientUnits="userSpaceOnUse" gradientTransform="matrix(1.51161e-14,-227.223,246.865,1.39134e-14,227.274,588.337)"><stop offset="0" style="stop-color:#f07279;stop-opacity:1"/><stop offset="1" style="stop-color:#ed529c;stop-opacity:1"/></linearGradient><linearGradient id="_Linear74" x1="0" y1="0" x2="1" y2="0" gradientUnits="userSpaceOnUse" gradientTransform="matrix(106.629,0,0,98.1445,122.261,459.509)"><stop offset="0" style="stop-color:#f07279;stop-opacity:1"/><stop offset="1" style="stop-color:#ed529c;stop-opacity:1"/></linearGradient><linearGradient id="_Linear75" x1="0" y1="0" x2="1" y2="0" gradientUnits="userSpaceOnUse" gradientTransform="matrix(1.60836e-14,241.766,-262.665,1.48039e-14,349.704,135.69)"><stop offset="0" style="stop-color:#52afe6;stop-opacity:1"/><stop offset="1" style="stop-color:#2b77e6;stop-opacity:1"/></linearGradient><linearGradient id="_Linear76" x1="0" y1="0" x2="1" y2="0" gradientUnits="userSpaceOnUse" gradientTransform="matrix(1.60836e-14,241.766,-262.665,1.48039e-14,352.254,135.703)"><stop offset="0" style="stop-color:#a4ffff;stop-opacity:1"/><stop offset="1" style="stop-color:#58f0ff;stop-opacity:1"/></linearGradient><linearGradient id="_Linear77" x1="0" y1="0" x2="1" y2="0" gradientUnits="userSpaceOnUse" gradientTransform="matrix(1.60836e-14,241.765,-262.665,1.48039e-14,350.845,135.698)"><stop offset="0" style="stop-color:#a4ffff;stop-opacity:1"/><stop offset="1" style="stop-color:#58f0ff;stop-opacity:1"/></linearGradient><linearGradient id="_Linear78" x1="0" y1="0" x2="1" y2="0" gradientUnits="userSpaceOnUse" gradientTransform="matrix(1.60836e-14,241.765,-262.665,1.48039e-14,350.845,135.698)"><stop offset="0" style="stop-color:#a4ffff;stop-opacity:1"/><stop offset="1" style="stop-color:#58f0ff;stop-opacity:1"/></linearGradient><linearGradient id="_Linear79" x1="0" y1="0" x2="1" y2="0" gradientUnits="userSpaceOnUse" gradientTransform="matrix(1.60836e-14,241.766,-262.665,1.48039e-14,350.845,135.698)"><stop offset="0" style="stop-color:#a4ffff;stop-opacity:1"/><stop offset="1" style="stop-color:#58f0ff;stop-opacity:1"/></linearGradient><linearGradient id="_Linear80" x1="0" y1="0" x2="1" y2="0" gradientUnits="userSpaceOnUse" gradientTransform="matrix(1.60836e-14,241.765,-262.665,1.48039e-14,350.843,135.698)"><stop offset="0" style="stop-color:#a4ffff;stop-opacity:1"/><stop offset="1" style="stop-color:#58f0ff;stop-opacity:1"/></linearGradient><linearGradient id="_Linear81" x1="0" y1="0" x2="1" y2="0" gradientUnits="userSpaceOnUse" gradientTransform="matrix(1.60836e-14,241.766,-262.665,1.48039e-14,353.054,135.705)"><stop offset="0" style="stop-color:#a4ffff;stop-opacity:1"/><stop offset="1" style="stop-color:#58f0ff;stop-opacity:1"/></linearGradient><linearGradient id="_Linear82" x1="0" y1="0" x2="1" y2="0" gradientUnits="userSpaceOnUse" gradientTransform="matrix(1.60836e-14,241.766,-262.666,1.48039e-14,351.647,135.699)"><stop offset="0" style="stop-color:#a4ffff;stop-opacity:1"/><stop offset="1" style="stop-color:#58f0ff;stop-opacity:1"/></linearGradient><linearGradient id="_Linear83" x1="0" y1="0" x2="1" y2="0" gradientUnits="userSpaceOnUse" gradientTransform="matrix(1.60835e-14,241.765,-262.664,1.48038e-14,351.647,135.699)"><stop offset="0" style="stop-color:#a4ffff;stop-opacity:1"/><stop offset="1" style="stop-color:#58f0ff;stop-opacity:1"/></linearGradient><linearGradient id="_Linear84" x1="0" y1="0" x2="1" y2="0" gradientUnits="userSpaceOnUse" gradientTransform="matrix(1.60836e-14,241.766,-262.665,1.48039e-14,351.647,135.698)"><stop offset="0" style="stop-color:#a4ffff;stop-opacity:1"/><stop offset="1" style="stop-color:#58f0ff;stop-opacity:1"/></linearGradient><linearGradient id="_Linear85" x1="0" y1="0" x2="1" y2="0" gradientUnits="userSpaceOnUse" gradientTransform="matrix(1.60835e-14,241.764,-262.664,1.48038e-14,351.648,135.697)"><stop offset="0" style="stop-color:#a4ffff;stop-opacity:1"/><stop offset="1" style="stop-color:#58f0ff;stop-opacity:1"/></linearGradient><linearGradient id="_Linear86" x1="0" y1="0" x2="1" y2="0" gradientUnits="userSpaceOnUse" gradientTransform="matrix(1.60836e-14,241.765,-262.664,1.48038e-14,348.436,135.697)"><stop offset="0" style="stop-color:#a4ffff;stop-opacity:1"/><stop offset="1" style="stop-color:#58f0ff;stop-opacity:1"/></linearGradient><linearGradient id="_Linear87" x1="0" y1="0" x2="1" y2="0" gradientUnits="userSpaceOnUse" gradientTransform="matrix(1.60836e-14,241.765,-262.664,1.48038e-14,352.447,135.691)"><stop offset="0" style="stop-color:#a4ffff;stop-opacity:1"/><stop offset="1" style="stop-color:#58f0ff;stop-opacity:1"/></linearGradient><linearGradient id="_Linear88" x1="0" y1="0" x2="1" y2="0" gradientUnits="userSpaceOnUse" gradientTransform="matrix(1.60836e-14,241.766,-262.665,1.48039e-14,352.447,135.69)"><stop offset="0" style="stop-color:#a4ffff;stop-opacity:1"/><stop offset="1" style="stop-color:#58f0ff;stop-opacity:1"/></linearGradient><linearGradient id="_Linear89" x1="0" y1="0" x2="1" y2="0" gradientUnits="userSpaceOnUse" gradientTransform="matrix(1.60837e-14,241.767,-262.667,1.4804e-14,352.447,135.689)"><stop offset="0" style="stop-color:#a4ffff;stop-opacity:1"/><stop offset="1" style="stop-color:#58f0ff;stop-opacity:1"/></linearGradient><linearGradient id="_Linear90" x1="0" y1="0" x2="1" y2="0" gradientUnits="userSpaceOnUse" gradientTransform="matrix(1.60836e-14,241.765,-262.665,1.48039e-14,352.448,135.689)"><stop offset="0" style="stop-color:#a4ffff;stop-opacity:1"/><stop offset="1" style="stop-color:#58f0ff;stop-opacity:1"/></linearGradient><linearGradient id="_Linear91" x1="0" y1="0" x2="1" y2="0" gradientUnits="userSpaceOnUse" gradientTransform="matrix(1.60836e-14,241.766,-262.665,1.48039e-14,352.254,135.687)"><stop offset="0" style="stop-color:#a4ffff;stop-opacity:1"/><stop offset="1" style="stop-color:#58f0ff;stop-opacity:1"/></linearGradient><linearGradient id="_Linear92" x1="0" y1="0" x2="1" y2="0" gradientUnits="userSpaceOnUse" gradientTransform="matrix(1.60836e-14,241.765,-262.664,1.48038e-14,350.845,135.68)"><stop offset="0" style="stop-color:#a4ffff;stop-opacity:1"/><stop offset="1" style="stop-color:#58f0ff;stop-opacity:1"/></linearGradient><linearGradient id="_Linear93" x1="0" y1="0" x2="1" y2="0" gradientUnits="userSpaceOnUse" gradientTransform="matrix(1.60836e-14,241.765,-262.665,1.48039e-14,350.845,135.68)"><stop offset="0" style="stop-color:#a4ffff;stop-opacity:1"/><stop offset="1" style="stop-color:#58f0ff;stop-opacity:1"/></linearGradient><linearGradient id="_Linear94" x1="0" y1="0" x2="1" y2="0" gradientUnits="userSpaceOnUse" gradientTransform="matrix(1.60836e-14,241.766,-262.665,1.48039e-14,350.845,135.679)"><stop offset="0" style="stop-color:#a4ffff;stop-opacity:1"/><stop offset="1" style="stop-color:#58f0ff;stop-opacity:1"/></linearGradient><linearGradient id="_Linear95" x1="0" y1="0" x2="1" y2="0" gradientUnits="userSpaceOnUse" gradientTransform="matrix(1.60836e-14,241.765,-262.664,1.48038e-14,350.843,135.68)"><stop offset="0" style="stop-color:#a4ffff;stop-opacity:1"/><stop offset="1" style="stop-color:#58f0ff;stop-opacity:1"/></linearGradient><linearGradient id="_Linear96" x1="0" y1="0" x2="1" y2="0" gradientUnits="userSpaceOnUse" gradientTransform="matrix(1.60835e-14,241.765,-262.664,1.48038e-14,353.054,135.686)"><stop offset="0" style="stop-color:#a4ffff;stop-opacity:1"/><stop offset="1" style="stop-color:#58f0ff;stop-opacity:1"/></linearGradient><linearGradient id="_Linear97" x1="0" y1="0" x2="1" y2="0" gradientUnits="userSpaceOnUse" gradientTransform="matrix(1.60836e-14,241.765,-262.664,1.48038e-14,351.647,135.68)"><stop offset="0" style="stop-color:#a4ffff;stop-opacity:1"/><stop offset="1" style="stop-color:#58f0ff;stop-opacity:1"/></linearGradient><linearGradient id="_Linear98" x1="0" y1="0" x2="1" y2="0" gradientUnits="userSpaceOnUse" gradientTransform="matrix(1.60836e-14,241.765,-262.665,1.48039e-14,351.647,135.68)"><stop offset="0" style="stop-color:#a4ffff;stop-opacity:1"/><stop offset="1" style="stop-color:#58f0ff;stop-opacity:1"/></linearGradient><linearGradient id="_Linear99" x1="0" y1="0" x2="1" y2="0" gradientUnits="userSpaceOnUse" gradientTransform="matrix(1.60836e-14,241.766,-262.665,1.48039e-14,351.647,135.679)"><stop offset="0" style="stop-color:#a4ffff;stop-opacity:1"/><stop offset="1" style="stop-color:#58f0ff;stop-opacity:1"/></linearGradient><linearGradient id="_Linear100" x1="0" y1="0" x2="1" y2="0" gradientUnits="userSpaceOnUse" gradientTransform="matrix(1.60835e-14,241.764,-262.663,1.48038e-14,351.648,135.679)"><stop offset="0" style="stop-color:#a4ffff;stop-opacity:1"/><stop offset="1" style="stop-color:#58f0ff;stop-opacity:1"/></linearGradient><linearGradient id="_Linear101" x1="0" y1="0" x2="1" y2="0" gradientUnits="userSpaceOnUse" gradientTransform="matrix(1.60836e-14,241.766,-262.665,1.48039e-14,348.436,135.679)"><stop offset="0" style="stop-color:#a4ffff;stop-opacity:1"/><stop offset="1" style="stop-color:#58f0ff;stop-opacity:1"/></linearGradient><linearGradient id="_Linear102" x1="0" y1="0" x2="1" y2="0" gradientUnits="userSpaceOnUse" gradientTransform="matrix(1.60836e-14,241.766,-262.666,1.48039e-14,352.447,135.704)"><stop offset="0" style="stop-color:#a4ffff;stop-opacity:1"/><stop offset="1" style="stop-color:#58f0ff;stop-opacity:1"/></linearGradient><linearGradient id="_Linear103" x1="0" y1="0" x2="1" y2="0" gradientUnits="userSpaceOnUse" gradientTransform="matrix(1.60836e-14,241.766,-262.665,1.48039e-14,352.447,135.705)"><stop offset="0" style="stop-color:#a4ffff;stop-opacity:1"/><stop offset="1" style="stop-color:#58f0ff;stop-opacity:1"/></linearGradient><linearGradient id="_Linear104" x1="0" y1="0" x2="1" y2="0" gradientUnits="userSpaceOnUse" gradientTransform="matrix(1.60835e-14,241.764,-262.664,1.48038e-14,352.447,135.705)"><stop offset="0" style="stop-color:#a4ffff;stop-opacity:1"/><stop offset="1" style="stop-color:#58f0ff;stop-opacity:1"/></linearGradient><linearGradient id="_Linear105" x1="0" y1="0" x2="1" y2="0" gradientUnits="userSpaceOnUse" gradientTransform="matrix(1.60836e-14,241.766,-262.666,1.48039e-14,352.448,135.703)"><stop offset="0" style="stop-color:#a4ffff;stop-opacity:1"/><stop offset="1" style="stop-color:#58f0ff;stop-opacity:1"/></linearGradient><linearGradient id="_Linear106" x1="0" y1="0" x2="1" y2="0" gradientUnits="userSpaceOnUse" gradientTransform="matrix(1.60836e-14,241.766,-262.665,1.48039e-14,348.729,135.7)"><stop offset="0" style="stop-color:#a4ffff;stop-opacity:1"/><stop offset="1" style="stop-color:#58f0ff;stop-opacity:1"/></linearGradient><linearGradient id="_Linear107" x1="0" y1="0" x2="1" y2="0" gradientUnits="userSpaceOnUse" gradientTransform="matrix(1.60836e-14,241.766,-262.665,1.48039e-14,351.85,135.679)"><stop offset="0" style="stop-color:#a4ffff;stop-opacity:1"/><stop offset="1" style="stop-color:#58f0ff;stop-opacity:1"/></linearGradient><linearGradient id="_Linear108" x1="0" y1="0" x2="1" y2="0" gradientUnits="userSpaceOnUse" gradientTransform="matrix(1.60836e-14,241.766,-262.666,1.48039e-14,350.762,135.677)"><stop offset="0" style="stop-color:#a4ffff;stop-opacity:1"/><stop offset="1" style="stop-color:#58f0ff;stop-opacity:1"/></linearGradient><linearGradient id="_Linear109" x1="0" y1="0" x2="1" y2="0" gradientUnits="userSpaceOnUse" gradientTransform="matrix(1.60836e-14,241.766,-262.666,1.48039e-14,351.547,135.705)"><stop offset="0" style="stop-color:#a4ffff;stop-opacity:1"/><stop offset="1" style="stop-color:#58f0ff;stop-opacity:1"/></linearGradient><linearGradient id="_Linear110" x1="0" y1="0" x2="1" y2="0" gradientUnits="userSpaceOnUse" gradientTransform="matrix(1.60836e-14,241.766,-262.666,1.48039e-14,349.164,135.694)"><stop offset="0" style="stop-color:#a4ffff;stop-opacity:1"/><stop offset="1" style="stop-color:#58f0ff;stop-opacity:1"/></linearGradient></defs></svg>