<?xml version="1.0" encoding="UTF-8" standalone="no"?><!DOCTYPE svg PUBLIC "-//W3C//DTD SVG 1.1//EN" "http://www.w3.org/Graphics/SVG/1.1/DTD/svg11.dtd"><svg width="100%" height="100%" viewBox="0 0 3209 1542" version="1.1" xmlns="http://www.w3.org/2000/svg" xmlns:xlink="http://www.w3.org/1999/xlink" xml:space="preserve" xmlns:serif="http://www.serif.com/" style="fill-rule:evenodd;clip-rule:evenodd;stroke-linejoin:round;stroke-miterlimit:2;"><g><path d="M1835.73,1043l-764.036,-0c-34.222,-0 -61.966,-17.722 -61.966,-39.585l0,-924.339c0,-21.864 27.744,-39.589 61.966,-39.589l764.036,0c34.222,0 61.966,17.725 61.966,39.589l-0,924.339c-0,21.863 -27.744,39.585 -61.966,39.585Z" style="fill:#3ea2e5;fill-rule:nonzero;"/><path d="M1818.08,891.468l-699.772,0c-3.167,0 -5.723,-1.634 -5.723,-3.657l-0,-0.933c-0,-2.019 2.556,-3.657 5.723,-3.657l699.772,0c3.166,0 5.723,1.638 5.723,3.657l-0,0.933c-0,2.023 -2.557,3.657 -5.723,3.657Z" style="fill:#2e8cc2;fill-rule:nonzero;"/><path d="M1468.01,159.325c-191.54,-0 -347.37,99.567 -347.37,221.952c-0,122.386 155.83,221.95 347.37,221.95c191.552,-0 347.375,-99.564 347.375,-221.95c-0,-122.385 -155.823,-221.952 -347.375,-221.952Zm0,450.292c-48.242,0 -95.041,-6.033 -139.1,-17.943c-42.565,-11.504 -80.775,-27.963 -113.598,-48.934c-32.819,-20.971 -58.583,-45.393 -76.585,-72.582c-18.642,-28.153 -28.082,-58.057 -28.082,-88.881c0,-30.825 9.44,-60.729 28.082,-88.884c18.002,-27.191 43.766,-51.61 76.585,-72.58c32.823,-20.969 71.033,-37.433 113.598,-48.934c44.059,-11.908 90.858,-17.946 139.1,-17.946c48.25,-0 95.049,6.038 139.112,17.946c42.553,11.501 80.775,27.965 113.598,48.934c32.819,20.97 58.583,45.389 76.585,72.58c18.63,28.155 28.082,58.059 28.082,88.884c-0,30.824 -9.452,60.728 -28.082,88.881c-18.002,27.189 -43.766,51.611 -76.585,72.582c-32.823,20.971 -71.045,37.43 -113.598,48.934c-44.063,11.91 -90.862,17.943 -139.112,17.943Z" style="fill:#b1cdef;fill-rule:nonzero;"/><path d="M1709.7,1007.52l-481.899,-0c-5.767,-0 -10.437,2.987 -10.437,6.669l-0,1.7c-0,3.682 4.67,6.666 10.437,6.666l481.899,-0c5.767,-0 10.437,-2.984 10.437,-6.666l-0,-1.7c-0,-3.682 -4.67,-6.669 -10.437,-6.669Z" style="fill:#fff;fill-rule:nonzero;"/><path d="M1228.18,798.598l50.237,-0l-0,84.736l-86.274,-0l-0,-61.708c-0,-12.718 16.134,-23.028 36.037,-23.028Z" style="fill:#b1cdef;fill-rule:nonzero;"/><path d="M1229.01,798.598c27.167,-0 49.195,14.074 49.195,31.432l-0,578.129c-0,43.774 55.543,79.263 124.064,79.263l504.808,0c-68.517,0 -124.064,-35.489 -124.064,-79.263l0,-578.129c0,-17.358 -22.028,-31.432 -49.191,-31.432l-504.812,-0Z" style="fill:#eaf6fd;fill-rule:nonzero;"/><path d="M2241.9,1487.34l-780.03,-0c51,-0 97.036,-19.506 116.872,-49.516l4.398,-6.653c19.844,-30.02 65.888,-49.523 116.872,-49.523l303.743,0c51.003,0 97.035,19.503 116.882,49.523l4.391,6.653c19.844,30.01 65.887,49.516 116.872,49.516Z" style="fill:#b1cdef;fill-rule:nonzero;"/><path d="M2240.5,1487.34l-332.97,-0c-36.507,-0 -69.039,-14.728 -81.14,-36.729l-8.145,-14.807c-17.849,-32.446 -65.813,-54.156 -119.633,-54.156l303.746,0c51,0 97.036,19.503 116.88,49.523l4.39,6.653c19.844,30.01 65.888,49.516 116.872,49.516Z" style="fill:#eaf6fd;fill-rule:nonzero;"/><path d="M1908.18,1487.35c0,0 38.505,-3.413 45.995,-30.063l343.311,-0c0,-0 -7.847,25.968 -56.324,30.063l-332.982,0Z" style="fill:#b1cdef;fill-rule:nonzero;"/><path d="M1401.3,927.155l-0.015,-0c-2.873,-0 -5.596,-0.824 -7.416,-2.245l-44.317,-34.613c-3.352,-2.62 -2.749,-6.484 1.351,-8.626c4.101,-2.151 10.147,-1.759 13.5,0.861l36.916,28.827l68.901,-53.492c3.371,-2.615 9.417,-2.99 13.51,-0.836c4.086,2.151 4.681,6.011 1.31,8.629l-76.335,59.259c-1.824,1.415 -4.544,2.236 -7.405,2.236Z" style="fill:#56c37f;fill-rule:nonzero;"/><path d="M1710.3,883.121l-173.918,0c-4.715,0 -8.536,-2.442 -8.536,-5.454l-0,-1.393c-0,-3.012 3.821,-5.454 8.536,-5.454l173.918,-0c4.714,-0 8.536,2.442 8.536,5.454l-0,1.393c-0,3.012 -3.822,5.454 -8.536,5.454Z" style="fill:#3ea2e5;fill-rule:nonzero;"/><path d="M1659.18,912.568l-122.799,-0c-4.715,-0 -8.536,-2.443 -8.536,-5.451l-0,-1.397c-0,-3.009 3.821,-5.451 8.536,-5.451l122.799,0c4.711,0 8.532,2.442 8.532,5.451l0,1.397c0,3.008 -3.821,5.451 -8.532,5.451Z" style="fill:#b1cdef;fill-rule:nonzero;"/><path d="M1401.3,1037.19l-0.015,-0c-2.873,-0.006 -5.596,-0.83 -7.416,-2.251l-44.317,-34.613c-3.352,-2.62 -2.749,-6.481 1.351,-8.626c4.101,-2.141 10.147,-1.756 13.5,0.865l36.916,28.832l68.901,-53.495c3.371,-2.614 9.417,-2.99 13.51,-0.839c4.086,2.154 4.681,6.018 1.31,8.632l-76.335,59.259c-1.824,1.416 -4.544,2.236 -7.405,2.236Z" style="fill:#56c37f;fill-rule:nonzero;"/><path d="M1710.3,993.161l-173.918,0c-4.715,0 -8.536,-2.442 -8.536,-5.454l-0,-1.393c-0,-3.012 3.821,-5.454 8.536,-5.454l173.918,-0c4.714,-0 8.536,2.442 8.536,5.454l-0,1.393c-0,3.012 -3.822,5.454 -8.536,5.454Z" style="fill:#3ea2e5;fill-rule:nonzero;"/><path d="M1659.18,1022.61l-122.799,-0c-4.715,-0 -8.536,-2.442 -8.536,-5.454l-0,-1.393c-0,-3.012 3.821,-5.455 8.536,-5.455l122.799,0c4.711,0 8.532,2.443 8.532,5.455l0,1.393c0,3.012 -3.821,5.454 -8.532,5.454Z" style="fill:#b1cdef;fill-rule:nonzero;"/><path d="M1401.3,1147.23l-0.015,0c-2.873,0 -5.596,-0.823 -7.416,-2.245l-44.317,-34.609c-3.352,-2.621 -2.749,-6.484 1.351,-8.629c4.101,-2.148 10.147,-1.757 13.5,0.864l36.916,28.827l68.901,-53.493c3.371,-2.617 9.417,-2.99 13.51,-0.836c4.086,2.148 4.681,6.012 1.31,8.626l-76.335,59.263c-1.824,1.415 -4.544,2.232 -7.405,2.232Z" style="fill:#56c37f;fill-rule:nonzero;"/><path d="M1710.3,1103.2l-173.918,-0c-4.715,-0 -8.536,-2.442 -8.536,-5.454l-0,-1.394c-0,-3.012 3.821,-5.454 8.536,-5.454l173.918,0c4.714,0 8.536,2.442 8.536,5.454l-0,1.394c-0,3.012 -3.822,5.454 -8.536,5.454Z" style="fill:#3ea2e5;fill-rule:nonzero;"/><path d="M1659.18,1132.65l-122.799,0c-4.715,0 -8.536,-2.442 -8.536,-5.454l-0,-1.393c-0,-3.012 3.821,-5.454 8.536,-5.454l122.799,-0c4.711,-0 8.532,2.442 8.532,5.454l0,1.393c0,3.012 -3.821,5.454 -8.532,5.454Z" style="fill:#b1cdef;fill-rule:nonzero;"/><path d="M1401.3,1257.27l-0.015,0c-2.873,-0.003 -5.596,-0.829 -7.416,-2.251l-44.317,-34.609c-3.352,-2.621 -2.749,-6.484 1.351,-8.629c4.101,-2.142 10.147,-1.757 13.5,0.864l36.916,28.833l68.901,-53.492c3.371,-2.618 9.417,-2.99 13.51,-0.842c4.086,2.154 4.681,6.017 1.31,8.632l-76.335,59.259c-1.824,1.418 -4.544,2.235 -7.405,2.235Z" style="fill:#56c37f;fill-rule:nonzero;"/><path d="M1710.3,1213.24l-173.918,-0c-4.715,-0 -8.536,-2.442 -8.536,-5.457l-0,-1.391c-0,-3.012 3.821,-5.454 8.536,-5.454l173.918,0c4.714,0 8.536,2.442 8.536,5.454l-0,1.391c-0,3.015 -3.822,5.457 -8.536,5.457Z" style="fill:#3ea2e5;fill-rule:nonzero;"/><path d="M1659.18,1242.68l-122.799,0c-4.715,0 -8.536,-2.439 -8.536,-5.451l-0,-1.396c-0,-3.009 3.821,-5.451 8.536,-5.451l122.799,0c4.711,0 8.532,2.442 8.532,5.451l0,1.396c0,3.012 -3.821,5.451 -8.532,5.451Z" style="fill:#b1cdef;fill-rule:nonzero;"/><path d="M1401.3,1367.31l-0.015,-0c-2.873,-0 -5.596,-0.827 -7.416,-2.248l-44.317,-34.61c-3.352,-2.62 -2.749,-6.484 1.351,-8.629c4.101,-2.147 10.147,-1.756 13.5,0.865l36.916,28.826l68.901,-53.492c3.371,-2.618 9.417,-2.99 13.51,-0.836c4.086,2.148 4.681,6.011 1.31,8.626l-76.335,59.262c-1.824,1.415 -4.544,2.236 -7.405,2.236Z" style="fill:#56c37f;fill-rule:nonzero;"/><path d="M1710.3,1323.28l-173.918,0c-4.715,0 -8.536,-2.442 -8.536,-5.454l-0,-1.393c-0,-3.012 3.821,-5.454 8.536,-5.454l173.918,-0c4.714,-0 8.536,2.442 8.536,5.454l-0,1.393c-0,3.012 -3.822,5.454 -8.536,5.454Z" style="fill:#3ea2e5;fill-rule:nonzero;"/><path d="M1659.18,1352.73l-122.799,-0c-4.715,-0 -8.536,-2.442 -8.536,-5.454l-0,-1.394c-0,-3.012 3.821,-5.454 8.536,-5.454l122.799,0c4.711,0 8.532,2.442 8.532,5.454l0,1.394c0,3.012 -3.821,5.454 -8.532,5.454Z" style="fill:#b1cdef;fill-rule:nonzero;"/><path d="M1427.71,653.544l79.048,0l0,-44.321c0,-13.93 -17.73,-25.258 -39.527,-25.258c-21.79,0 -39.521,11.328 -39.521,25.258l0,44.321Zm84.28,6.685l-89.511,-0c-2.895,-0 -5.239,-1.497 -5.239,-3.341l-0,-47.665c-0,-17.612 22.426,-31.942 49.991,-31.942c27.572,-0 49.998,14.33 49.998,31.942l0,47.665c0,1.844 -2.344,3.341 -5.239,3.341Z" style="fill:#fff;fill-rule:nonzero;"/><path d="M1523.84,630.904l-110.368,0c-12.926,0 -23.397,6.691 -23.397,14.944l-0,36.038c-0,12.561 15.933,22.74 35.591,22.74l85.976,-0c19.662,-0 35.591,-10.179 35.591,-22.74l0,-36.038c0,-8.253 -10.47,-14.944 -23.393,-14.944Z" style="fill:#ffd15f;fill-rule:nonzero;"/><path d="M1479.59,659.192c-0,-4.151 -5.273,-7.52 -11.77,-7.52c-6.504,-0 -11.769,3.369 -11.769,7.52c-0,2.984 2.716,5.552 6.657,6.766l-0,8.157c-0,1.8 2.284,3.265 5.112,3.265c2.817,0 5.113,-1.465 5.113,-3.265l-0,-8.157c3.929,-1.214 6.657,-3.782 6.657,-6.766Z" style="fill:#fff;fill-rule:nonzero;"/><path d="M1707.02,381.277c-0,84.341 -107.004,152.712 -239.009,152.712c-131.997,-0 -239.001,-68.371 -239.001,-152.712c-0,-84.34 107.004,-152.712 239.001,-152.712c132.005,0 239.009,68.372 239.009,152.712Z" style="fill:#ffd15f;fill-rule:nonzero;"/><path d="M1448.61,460.277c-0,-5.814 -6.683,-10.711 -15.684,-11.584c-9.146,-0.89 -17.001,-2.092 -23.557,-3.61c-1.935,-0.451 -3.77,-0.883 -5.511,-1.303c-9.451,-2.273 -14.214,-9.011 -10.676,-15.05l1.47,-2.518c3.491,-5.97 13.79,-9.029 23.219,-6.947c3.479,0.77 7.167,1.509 11.036,2.223c10.702,1.978 22.021,2.962 33.943,2.962c13.459,-0 22.683,-1.162 27.651,-3.488c4.967,-2.33 7.445,-5.608 7.445,-9.841c0,-2.677 -0.993,-4.972 -2.98,-6.875c-1.987,-1.904 -4.856,-3.632 -8.603,-5.185c-3.762,-1.55 -8.506,-3.069 -14.24,-4.55c-5.749,-1.48 -12.365,-3.065 -19.87,-4.759c-7.286,-1.693 -14.404,-3.559 -21.359,-5.607c-6.954,-2.045 -13.246,-4.549 -18.876,-7.511c-5.63,-2.962 -10.155,-6.594 -13.578,-10.899c-3.423,-4.299 -5.127,-9.484 -5.127,-15.549c-0,-4.655 1.042,-9.131 3.14,-13.436c2.099,-4.301 5.351,-8.215 9.775,-11.742c4.406,-3.525 10.147,-6.523 17.213,-8.993c3.837,-1.338 8.056,-2.48 12.67,-3.424c7.498,-1.537 12.499,-6.067 12.499,-11.098l-0,-2.016c-0,-6.466 8.201,-11.708 18.326,-11.708l5.075,-0c10.114,-0 18.326,5.242 18.326,11.708c-0,5.72 6.471,10.621 15.304,11.545c5.213,0.546 9.995,1.187 14.333,1.925c0.953,0.163 1.876,0.325 2.787,0.488c9.571,1.712 15.174,8.039 12.693,14.184l-1.113,2.744c-2.564,6.35 -12.77,10.072 -22.672,8.345c-2.445,-0.427 -4.975,-0.832 -7.591,-1.218c-9.603,-1.408 -19.702,-2.115 -30.299,-2.115c-10.598,-0 -18.215,1.131 -22.851,3.385c-4.636,2.258 -6.954,5.22 -6.954,8.886c-0,2.259 0.714,4.199 2.158,5.819c1.425,1.625 3.691,3.068 6.783,4.339c3.092,1.268 6.895,2.505 11.42,3.704c4.528,1.206 9.987,2.508 16.398,3.923c9.708,2.264 18.709,4.737 26.988,7.424c8.279,2.683 15.446,5.754 21.526,9.208c6.065,3.453 10.809,7.508 14.233,12.157c3.423,4.656 5.138,10.085 5.138,16.287c0,4.23 -0.993,8.423 -2.98,12.584c-1.987,4.158 -5.299,7.999 -9.935,11.522c-4.636,3.525 -10.661,6.556 -18.047,9.095c-4.186,1.437 -8.926,2.649 -14.206,3.632c-7.788,1.453 -13.113,6.036 -13.113,11.218l-0,4.753c-0,6.465 -8.212,11.707 -18.326,11.707l-5.075,-0c-10.125,-0 -18.326,-5.242 -18.326,-11.707l-0,-3.034Z" style="fill:#fff;fill-rule:nonzero;"/><path d="M2110,157.721c0,51.263 65.039,92.819 145.267,92.819c80.231,0 145.27,-41.556 145.27,-92.819c-0,-51.262 -65.039,-92.819 -145.27,-92.819c-80.228,-0 -145.267,41.557 -145.267,92.819Z" style="fill:#56c37f;fill-rule:nonzero;"/><path d="M2167.53,221.746l-12.696,37.325c-1.604,4.706 6.445,8.325 12.841,5.772l57.623,-23.013l-57.768,-20.084Z" style="fill:#56c37f;fill-rule:nonzero;"/><path d="M2227.2,214.352l-0.023,-0c-4.07,-0.004 -7.933,-1.174 -10.504,-3.188l-62.84,-49.074c-4.766,-3.716 -3.907,-9.192 1.909,-12.232c5.82,-3.04 14.386,-2.492 19.141,1.223l52.343,40.877l97.69,-75.843c4.781,-3.706 13.351,-4.238 19.148,-1.187c5.801,3.05 6.635,8.528 1.861,12.234l-108.221,84.021c-2.59,2.007 -6.445,3.169 -10.504,3.169Z" style="fill:#fff;fill-rule:nonzero;"/><rect x="598.346" y="1453.87" width="359.363" height="33.482" style="fill:#eaa549;fill-rule:nonzero;"/><path d="M622.187,1489c-1.377,0 -2.497,-0.717 -2.497,-1.603l5.001,0c-0,0.886 -1.12,1.603 -2.504,1.603Zm2.504,-35.085l-5.001,-0c-0,-0.883 1.12,-1.594 2.497,-1.594c1.384,0 2.504,0.711 2.504,1.594Z" style="fill:#fff;"/><rect x="619.69" y="1453.87" width="5.001" height="33.482" style="fill:#df7824;fill-rule:nonzero;"/><path d="M661,1488.95c-1.377,0 -2.497,-0.717 -2.497,-1.6l5.001,0c0,0.883 -1.12,1.6 -2.504,1.6Z" style="fill:#fff;fill-rule:nonzero;"/><rect x="658.503" y="1453.87" width="5.001" height="33.482" style="fill:#df7824;fill-rule:nonzero;"/><path d="M699.81,1488.95c-1.377,0 -2.497,-0.717 -2.497,-1.6l5.001,0c-0,0.883 -1.12,1.6 -2.504,1.6Z" style="fill:#fff;fill-rule:nonzero;"/><rect x="697.313" y="1453.87" width="5.001" height="33.482" style="fill:#df7824;fill-rule:nonzero;"/><path d="M738.627,1488.95c-1.385,0 -2.505,-0.717 -2.505,-1.6l5.001,0c0,0.883 -1.12,1.6 -2.496,1.6Z" style="fill:#fff;fill-rule:nonzero;"/><rect x="736.122" y="1453.87" width="5.001" height="33.482" style="fill:#df7824;fill-rule:nonzero;"/><path d="M779.379,1488.95c-1.385,0 -2.505,-0.717 -2.505,-1.6l5.001,0c0,0.883 -1.12,1.6 -2.496,1.6Z" style="fill:#fff;fill-rule:nonzero;"/><rect x="776.874" y="1453.87" width="5.001" height="33.482" style="fill:#df7824;fill-rule:nonzero;"/><path d="M818.181,1488.95c-1.377,0 -2.497,-0.717 -2.497,-1.6l5.001,0c0,0.883 -1.12,1.6 -2.504,1.6Z" style="fill:#fff;fill-rule:nonzero;"/><rect x="815.684" y="1453.87" width="5.001" height="33.482" style="fill:#df7824;fill-rule:nonzero;"/><path d="M856.998,1488.95c-1.384,0 -2.504,-0.717 -2.504,-1.6l5.001,0c-0,0.883 -1.12,1.6 -2.497,1.6Z" style="fill:#fff;fill-rule:nonzero;"/><rect x="854.494" y="1453.87" width="5.001" height="33.482" style="fill:#df7824;fill-rule:nonzero;"/><path d="M895.808,1488.95c-1.385,0 -2.508,-0.717 -2.508,-1.6l5.004,0c0,0.883 -1.123,1.6 -2.496,1.6Z" style="fill:#fff;fill-rule:nonzero;"/><rect x="893.3" y="1453.87" width="5.005" height="33.482" style="fill:#df7824;fill-rule:nonzero;"/><path d="M934.617,1488.95c-1.384,0 -2.504,-0.717 -2.504,-1.6l5.001,0c0,0.883 -1.12,1.6 -2.497,1.6Z" style="fill:#fff;fill-rule:nonzero;"/><rect x="932.113" y="1453.87" width="5.001" height="33.482" style="fill:#df7824;fill-rule:nonzero;"/><rect x="652.68" y="1420.4" width="359.356" height="33.482" style="fill:#ffd15f;fill-rule:nonzero;"/><path d="M674.593,1455.47c-1.385,-0 -2.505,-0.711 -2.505,-1.594l5.001,0c0,0.883 -1.12,1.594 -2.496,1.594Z" style="fill:#df7824;fill-rule:nonzero;"/><path d="M677.089,1453.88l-5.001,0l0,-33.482c0,0.877 1.12,1.594 2.505,1.594c1.376,-0 2.496,-0.717 2.496,-1.594l0,33.482Z" style="fill:#ffba2f;fill-rule:nonzero;"/><path d="M715.341,1455.47c-1.384,-0 -2.504,-0.711 -2.504,-1.594l5.001,0c-0,0.883 -1.12,1.594 -2.497,1.594Z" style="fill:#df7824;fill-rule:nonzero;"/><path d="M717.838,1453.88l-5.001,0l-0,-33.482c-0,0.877 1.12,1.594 2.504,1.594c1.377,-0 2.497,-0.717 2.497,-1.594l-0,33.482Z" style="fill:#ffba2f;fill-rule:nonzero;"/><path d="M754.151,1455.47c-1.385,-0 -2.505,-0.711 -2.505,-1.594l5.001,0c0,0.883 -1.12,1.594 -2.496,1.594Z" style="fill:#df7824;fill-rule:nonzero;"/><path d="M756.647,1453.88l-5.001,0l0,-33.482c0,0.877 1.12,1.594 2.505,1.594c1.376,-0 2.496,-0.717 2.496,-1.594l0,33.482Z" style="fill:#ffba2f;fill-rule:nonzero;"/><path d="M792.964,1455.47c-1.384,-0 -2.508,-0.711 -2.508,-1.594l5.001,0c-0,0.883 -1.12,1.594 -2.493,1.594Z" style="fill:#df7824;fill-rule:nonzero;"/><path d="M795.457,1453.88l-5.001,0l-0,-33.482c-0,0.877 1.124,1.594 2.508,1.594c1.373,-0 2.493,-0.717 2.493,-1.594l-0,33.482Z" style="fill:#ffba2f;fill-rule:nonzero;"/><path d="M831.774,1455.47c-1.385,-0 -2.508,-0.711 -2.508,-1.594l5.004,0c0,0.883 -1.112,1.594 -2.496,1.594Z" style="fill:#df7824;fill-rule:nonzero;"/><path d="M834.27,1453.88l-5.004,0l-0,-33.482c-0,0.877 1.123,1.594 2.508,1.594c1.384,-0 2.496,-0.717 2.496,-1.594l0,33.482Z" style="fill:#ffba2f;fill-rule:nonzero;"/><path d="M870.579,1455.47c-1.384,-0 -2.504,-0.711 -2.504,-1.594l5.001,0c0,0.883 -1.112,1.594 -2.497,1.594Z" style="fill:#df7824;fill-rule:nonzero;"/><path d="M873.076,1453.88l-5.001,0l0,-33.482c0.008,0.877 1.12,1.594 2.504,1.594c1.377,-0 2.497,-0.717 2.497,-1.594l0,33.482Z" style="fill:#ffba2f;fill-rule:nonzero;"/><path d="M911.324,1455.47c-1.384,-0 -2.497,-0.711 -2.497,-1.594l4.994,0c-0,0.883 -1.113,1.594 -2.497,1.594Z" style="fill:#df7824;fill-rule:nonzero;"/><path d="M913.821,1453.88l-4.994,0l0,-33.482c0,0.877 1.113,1.594 2.497,1.594c1.384,-0 2.497,-0.717 2.497,-1.594l-0,33.482Z" style="fill:#ffba2f;fill-rule:nonzero;"/><path d="M950.134,1455.47c-1.384,-0 -2.497,-0.711 -2.497,-1.594l5.001,0c-0,0.883 -1.12,1.594 -2.504,1.594Z" style="fill:#df7824;fill-rule:nonzero;"/><path d="M952.638,1453.88l-5.001,0l-0,-33.482c-0,0.877 1.113,1.594 2.497,1.594c1.384,-0 2.496,-0.717 2.504,-1.594l-0,33.482Z" style="fill:#ffba2f;fill-rule:nonzero;"/><path d="M988.943,1455.52c-1.384,0 -2.496,-0.711 -2.496,-1.594l5.001,0c-0,0.883 -1.12,1.594 -2.505,1.594Zm2.505,-35.076l-5.001,0l-0,-0.006c-0,-0.88 1.112,-1.594 2.496,-1.594c1.385,0 2.505,0.714 2.505,1.594" style="fill:#fff;fill-rule:nonzero;"/><rect x="986.447" y="1420.4" width="5.001" height="33.482" style="fill:#ffba2f;fill-rule:nonzero;"/><rect x="613.87" y="1386.92" width="359.356" height="33.489" style="fill:#eaa549;fill-rule:nonzero;"/><path d="M635.779,1421.99c-1.384,-0 -2.504,-0.717 -2.504,-1.594l5.001,0c-0,0.877 -1.12,1.594 -2.497,1.594Z" style="fill:#fff;fill-rule:nonzero;"/><rect x="633.275" y="1386.92" width="5.001" height="33.489" style="fill:#df7824;fill-rule:nonzero;"/><path d="M674.593,1421.99c-1.385,-0 -2.505,-0.717 -2.505,-1.594l5.001,0c0,0.877 -1.12,1.594 -2.496,1.594Z" style="fill:#ff9717;fill-rule:nonzero;"/><rect x="672.088" y="1386.92" width="5.001" height="33.489" style="fill:#df7824;fill-rule:nonzero;"/><path d="M715.341,1421.99c-1.384,-0 -2.504,-0.717 -2.504,-1.594l5.001,0c-0,0.877 -1.12,1.594 -2.497,1.594Z" style="fill:#ff9717;fill-rule:nonzero;"/><rect x="712.837" y="1386.92" width="5.001" height="33.489" style="fill:#df7824;fill-rule:nonzero;"/><path d="M754.151,1421.99c-1.385,-0 -2.505,-0.717 -2.505,-1.594l5.001,0c0,0.877 -1.12,1.594 -2.496,1.594Z" style="fill:#ff9717;fill-rule:nonzero;"/><rect x="751.646" y="1386.92" width="5.001" height="33.489" style="fill:#df7824;fill-rule:nonzero;"/><path d="M792.964,1421.99c-1.384,-0 -2.508,-0.717 -2.508,-1.594l5.001,0c-0,0.877 -1.12,1.594 -2.493,1.594Z" style="fill:#ff9717;fill-rule:nonzero;"/><rect x="790.456" y="1386.92" width="5.001" height="33.489" style="fill:#df7824;fill-rule:nonzero;"/><path d="M831.774,1421.99c-1.385,-0 -2.508,-0.717 -2.508,-1.594l5.004,0c0,0.877 -1.112,1.594 -2.496,1.594Z" style="fill:#ff9717;fill-rule:nonzero;"/><rect x="829.266" y="1386.92" width="5.005" height="33.489" style="fill:#df7824;fill-rule:nonzero;"/><path d="M870.579,1421.99c-1.384,-0 -2.496,-0.717 -2.504,-1.594l5.001,0c0,0.877 -1.12,1.594 -2.497,1.594Z" style="fill:#ff9717;fill-rule:nonzero;"/><rect x="868.075" y="1386.92" width="5.001" height="33.489" style="fill:#df7824;fill-rule:nonzero;"/><path d="M911.324,1421.99c-1.384,-0 -2.497,-0.717 -2.497,-1.594l4.994,0c-0,0.877 -1.113,1.594 -2.497,1.594Z" style="fill:#ff9717;fill-rule:nonzero;"/><rect x="908.827" y="1386.92" width="4.994" height="33.489" style="fill:#df7824;fill-rule:nonzero;"/><path d="M952.638,1386.97l-5.001,-0c-0,-0.88 1.113,-1.597 2.497,-1.597c1.384,-0 2.504,0.717 2.504,1.597Z" style="fill:#fff;fill-rule:nonzero;"/><path d="M950.134,1421.99c-1.384,-0 -2.497,-0.717 -2.497,-1.594l5.001,0c-0.008,0.877 -1.12,1.594 -2.504,1.594Z" style="fill:#ff9717;fill-rule:nonzero;"/><rect x="947.637" y="1386.92" width="5.001" height="33.489" style="fill:#df7824;fill-rule:nonzero;"/><rect x="584.761" y="1353.44" width="359.356" height="33.482" style="fill:#db7937;fill-rule:nonzero;"/><path d="M606.674,1388.58c-1.384,0 -2.508,-0.717 -2.508,-1.6l5.005,0c-0,0.883 -1.113,1.6 -2.497,1.6Zm2.497,-35.082l-5.005,-0c-0,-0.886 1.124,-1.603 2.508,-1.603c1.384,-0 2.497,0.717 2.497,1.603Z" style="fill:#fff;fill-rule:nonzero;"/><rect x="604.166" y="1353.44" width="5.005" height="33.482" style="fill:#c93c1b;fill-rule:nonzero;"/><path d="M647.415,1388.52c-1.385,-0 -2.497,-0.717 -2.497,-1.603l4.993,-0c0,0.886 -1.112,1.603 -2.496,1.603Z" style="fill:#df7824;fill-rule:nonzero;"/><path d="M649.911,1353.5l-4.993,-0c-0,-0.886 1.112,-1.603 2.497,-1.603c1.384,-0 2.496,0.717 2.496,1.603Z" style="fill:#fff;fill-rule:nonzero;"/><rect x="644.918" y="1353.44" width="4.994" height="33.482" style="fill:#c93c1b;fill-rule:nonzero;"/><path d="M686.224,1388.52c-1.384,-0 -2.496,-0.717 -2.496,-1.603l5.001,-0c-0,0.886 -1.12,1.603 -2.505,1.603Z" style="fill:#df7824;fill-rule:nonzero;"/><rect x="683.728" y="1353.44" width="5.001" height="33.482" style="fill:#c93c1b;fill-rule:nonzero;"/><path d="M725.034,1388.52c-1.373,-0 -2.497,-0.717 -2.497,-1.603l5.005,-0c-0,0.886 -1.124,1.603 -2.508,1.603Z" style="fill:#df7824;fill-rule:nonzero;"/><rect x="722.537" y="1353.44" width="5.005" height="33.482" style="fill:#c93c1b;fill-rule:nonzero;"/><path d="M763.844,1388.52c-1.373,-0 -2.493,-0.717 -2.493,-1.603l5.001,-0c-0,0.886 -1.124,1.603 -2.508,1.603Z" style="fill:#df7824;fill-rule:nonzero;"/><rect x="761.351" y="1353.44" width="5.001" height="33.482" style="fill:#c93c1b;fill-rule:nonzero;"/><path d="M802.657,1388.52c-1.377,-0 -2.497,-0.717 -2.497,-1.603l5.001,-0c0,0.886 -1.12,1.603 -2.504,1.603Z" style="fill:#df7824;fill-rule:nonzero;"/><rect x="800.16" y="1353.44" width="5.001" height="33.482" style="fill:#c93c1b;fill-rule:nonzero;"/><path d="M843.405,1388.52c-1.376,-0 -2.496,-0.717 -2.496,-1.603l5,-0c0,0.886 -1.12,1.603 -2.504,1.603Z" style="fill:#df7824;fill-rule:nonzero;"/><rect x="840.909" y="1353.44" width="5.001" height="33.482" style="fill:#c93c1b;fill-rule:nonzero;"/><path d="M882.215,1388.52c-1.373,-0 -2.493,-0.717 -2.493,-1.603l5.001,-0c-0,0.886 -1.124,1.603 -2.508,1.603Z" style="fill:#df7824;fill-rule:nonzero;"/><rect x="879.722" y="1353.44" width="5.001" height="33.482" style="fill:#c93c1b;fill-rule:nonzero;"/><path d="M921.036,1388.52c-1.384,-0 -2.504,-0.717 -2.504,-1.603l5.001,-0c-0,0.886 -1.12,1.603 -2.497,1.603Z" style="fill:#df7824;fill-rule:nonzero;"/><rect x="918.532" y="1353.44" width="5.001" height="33.482" style="fill:#c93c1b;fill-rule:nonzero;"/><rect x="677.908" y="1319.97" width="359.352" height="33.489" style="fill:#ffd15f;fill-rule:nonzero;"/><path d="M699.81,1355.04c-1.377,0 -2.497,-0.717 -2.497,-1.596l5.001,-0c-0,0.879 -1.12,1.596 -2.504,1.596Z" style="fill:#c93c1b;fill-rule:nonzero;"/><path d="M702.314,1353.45l-5.001,0l-0,-33.488c-0,0.886 1.12,1.6 2.497,1.6c1.384,-0 2.504,-0.714 2.504,-1.6l-0,33.488Z" style="fill:#ffba2f;fill-rule:nonzero;"/><path d="M738.627,1355.04c-1.385,0 -2.505,-0.717 -2.505,-1.596l5.001,-0c0,0.879 -1.12,1.596 -2.496,1.596Z" style="fill:#c93c1b;fill-rule:nonzero;"/><path d="M741.123,1353.45l-5.001,0l0,-33.488c0,0.886 1.12,1.6 2.505,1.6c1.376,-0 2.496,-0.714 2.496,-1.6l0,33.488Z" style="fill:#ffba2f;fill-rule:nonzero;"/><path d="M779.379,1355.04c-1.385,0 -2.505,-0.717 -2.505,-1.596l5.001,-0c0,0.879 -1.12,1.596 -2.496,1.596Z" style="fill:#c93c1b;fill-rule:nonzero;"/><path d="M781.875,1353.45l-5.001,0l0,-33.488c0,0.886 1.12,1.6 2.505,1.6c1.376,-0 2.496,-0.714 2.496,-1.6l0,33.488Z" style="fill:#ffba2f;fill-rule:nonzero;"/><path d="M818.181,1355.04c-1.377,0 -2.497,-0.717 -2.497,-1.596l5.001,-0c0,0.879 -1.12,1.596 -2.504,1.596Z" style="fill:#c93c1b;fill-rule:nonzero;"/><path d="M820.685,1353.45l-5.001,0l0,-33.488c0,0.886 1.12,1.6 2.497,1.6c1.384,-0 2.504,-0.714 2.504,-1.6l0,33.488Z" style="fill:#ffba2f;fill-rule:nonzero;"/><path d="M856.998,1355.04c-1.384,0 -2.504,-0.717 -2.504,-1.596l5.001,-0c-0,0.879 -1.12,1.596 -2.497,1.596Z" style="fill:#c93c1b;fill-rule:nonzero;"/><path d="M859.495,1353.45l-5.001,0l-0,-33.488c-0,0.886 1.12,1.6 2.504,1.6c1.377,-0 2.497,-0.714 2.497,-1.6l-0,33.488Z" style="fill:#ffba2f;fill-rule:nonzero;"/><path d="M895.808,1355.04c-1.385,0 -2.508,-0.717 -2.508,-1.596l5.004,-0c0,0.879 -1.123,1.596 -2.496,1.596Z" style="fill:#c93c1b;fill-rule:nonzero;"/><path d="M898.304,1353.45l-5.004,0l-0,-33.488c-0,0.886 1.123,1.6 2.508,1.6c1.373,-0 2.496,-0.714 2.496,-1.6l0,33.488Z" style="fill:#ffba2f;fill-rule:nonzero;"/><path d="M934.617,1355.04c-1.384,0 -2.504,-0.717 -2.504,-1.596l5.001,-0c0,0.879 -1.12,1.596 -2.497,1.596Z" style="fill:#c93c1b;fill-rule:nonzero;"/><path d="M937.114,1353.45l-5.001,0l0,-33.488c0,0.886 1.12,1.6 2.504,1.6c1.377,-0 2.497,-0.714 2.497,-1.6l0,33.488Z" style="fill:#ffba2f;fill-rule:nonzero;"/><path d="M975.369,1355.04c-1.388,0 -2.508,-0.717 -2.508,-1.596l5.001,-0c0,0.879 -1.12,1.596 -2.493,1.596Z" style="fill:#fff;fill-rule:nonzero;"/><path d="M977.862,1353.45l-5.001,0l0,-33.488c0,0.886 1.12,1.6 2.508,1.6c1.373,-0 2.493,-0.714 2.493,-1.6l0,33.488Z" style="fill:#ffba2f;fill-rule:nonzero;"/><path d="M1014.18,1355.1c-1.384,-0 -2.497,-0.717 -2.508,-1.597l5.005,0c-0,0.88 -1.124,1.597 -2.497,1.597Zm2.497,-35.086l-5.005,0c0,-0.876 1.124,-1.593 2.508,-1.593c1.373,-0 2.497,0.717 2.497,1.593Z" style="fill:#fff;fill-rule:nonzero;"/><rect x="1011.67" y="1319.97" width="5.005" height="33.489" style="fill:#ffba2f;fill-rule:nonzero;"/><rect x="639.098" y="1286.49" width="359.36" height="33.482" style="fill:#eaa549;fill-rule:nonzero;"/><path d="M661,1321.57c-1.377,-0 -2.497,-0.717 -2.497,-1.6l5.001,-0c0,0.883 -1.12,1.6 -2.504,1.6Z" style="fill:#fff;fill-rule:nonzero;"/><rect x="658.503" y="1286.49" width="5.001" height="33.482" style="fill:#df7824;fill-rule:nonzero;"/><path d="M699.81,1321.57c-1.377,-0 -2.497,-0.717 -2.497,-1.6l5.001,-0c-0,0.883 -1.12,1.6 -2.504,1.6Z" style="fill:#ff9717;fill-rule:nonzero;"/><rect x="697.313" y="1286.49" width="5.001" height="33.482" style="fill:#df7824;fill-rule:nonzero;"/><path d="M738.627,1321.57c-1.385,-0 -2.505,-0.717 -2.505,-1.6l5.001,-0c0,0.883 -1.12,1.6 -2.496,1.6Z" style="fill:#ff9717;fill-rule:nonzero;"/><rect x="736.122" y="1286.49" width="5.001" height="33.482" style="fill:#df7824;fill-rule:nonzero;"/><path d="M779.379,1321.57c-1.385,-0 -2.505,-0.717 -2.505,-1.6l5.001,-0c0,0.883 -1.12,1.6 -2.496,1.6Z" style="fill:#ff9717;fill-rule:nonzero;"/><rect x="776.874" y="1286.49" width="5.001" height="33.482" style="fill:#df7824;fill-rule:nonzero;"/><path d="M818.181,1321.57c-1.377,-0 -2.497,-0.717 -2.497,-1.6l5.001,-0c0,0.883 -1.12,1.6 -2.504,1.6Z" style="fill:#ff9717;fill-rule:nonzero;"/><rect x="815.684" y="1286.49" width="5.001" height="33.482" style="fill:#df7824;fill-rule:nonzero;"/><path d="M856.998,1321.57c-1.384,-0 -2.504,-0.717 -2.504,-1.6l5.001,-0c-0,0.883 -1.12,1.6 -2.497,1.6Z" style="fill:#ff9717;fill-rule:nonzero;"/><rect x="854.494" y="1286.49" width="5.001" height="33.482" style="fill:#df7824;fill-rule:nonzero;"/><path d="M895.808,1321.57c-1.385,-0 -2.508,-0.717 -2.508,-1.6l5.004,-0c0,0.883 -1.123,1.6 -2.496,1.6Z" style="fill:#ff9717;fill-rule:nonzero;"/><rect x="893.3" y="1286.49" width="5.005" height="33.482" style="fill:#df7824;fill-rule:nonzero;"/><path d="M937.114,1286.54l-5.001,-0c0,-0.883 1.12,-1.6 2.504,-1.6c1.377,-0 2.497,0.717 2.497,1.6Z" style="fill:#fff;fill-rule:nonzero;"/><path d="M934.617,1321.57c-1.384,-0 -2.504,-0.717 -2.504,-1.6l5.001,-0c0,0.883 -1.12,1.6 -2.497,1.6Z" style="fill:#ff9717;fill-rule:nonzero;"/><rect x="932.113" y="1286.49" width="5.001" height="33.482" style="fill:#df7824;fill-rule:nonzero;"/><path d="M977.862,1286.54l-5.001,-0c0,-0.883 1.12,-1.6 2.508,-1.6c1.373,-0 2.493,0.717 2.493,1.6Z" style="fill:#fff;fill-rule:nonzero;"/><path d="M975.369,1321.57c-1.388,-0 -2.508,-0.717 -2.508,-1.6l5.001,-0c0,0.883 -1.12,1.6 -2.493,1.6Z" style="fill:#ff9717;fill-rule:nonzero;"/><rect x="972.861" y="1286.49" width="5.001" height="33.482" style="fill:#df7824;fill-rule:nonzero;"/><rect x="545.951" y="1253.01" width="359.356" height="33.482" style="fill:#ffd15f;fill-rule:nonzero;"/><path d="M567.86,1288.14c-1.384,-0 -2.504,-0.711 -2.504,-1.594l5.001,-0c0,0.883 -1.112,1.594 -2.497,1.594Zm2.497,-35.077l-5.001,0c0,-0.886 1.12,-1.599 2.504,-1.599c1.385,-0 2.497,0.713 2.497,1.599Z" style="fill:#fff;fill-rule:nonzero;"/><rect x="565.356" y="1253.01" width="5.001" height="33.482" style="fill:#ffba2f;fill-rule:nonzero;"/><path d="M606.674,1288.14c-1.384,-0 -2.508,-0.711 -2.508,-1.594l5.005,-0c-0,0.883 -1.113,1.594 -2.497,1.594Zm2.497,-35.077l-5.005,0c0.011,-0.886 1.124,-1.599 2.508,-1.599c1.384,-0 2.497,0.713 2.497,1.599Z" style="fill:#fff;fill-rule:nonzero;"/><rect x="604.166" y="1253.01" width="5.005" height="33.482" style="fill:#ffba2f;fill-rule:nonzero;"/><path d="M647.415,1288.08c-1.385,0 -2.497,-0.711 -2.497,-1.594l4.993,0c0,0.883 -1.112,1.594 -2.496,1.594Z" style="fill:#df7824;fill-rule:nonzero;"/><path d="M649.911,1252.76l-4.993,-0c-0,-0.887 1.112,-1.6 2.497,-1.6c1.384,-0 2.496,0.713 2.496,1.6Z" style="fill:#fff;fill-rule:nonzero;"/><rect x="644.918" y="1253.01" width="4.994" height="33.482" style="fill:#ffba2f;fill-rule:nonzero;"/><path d="M686.224,1288.08c-1.384,0 -2.496,-0.711 -2.496,-1.594l5.001,0c-0,0.883 -1.12,1.594 -2.505,1.594Z" style="fill:#df7824;fill-rule:nonzero;"/><path d="M688.729,1252.76l-5.001,-0c-0,-0.887 1.12,-1.6 2.496,-1.6c1.385,-0 2.497,0.713 2.505,1.6Z" style="fill:#fff;fill-rule:nonzero;"/><rect x="683.728" y="1253.01" width="5.001" height="33.482" style="fill:#ffba2f;fill-rule:nonzero;"/><path d="M725.034,1288.08c-1.373,0 -2.497,-0.711 -2.497,-1.594l5.005,0c-0,0.883 -1.124,1.594 -2.508,1.594Z" style="fill:#df7824;fill-rule:nonzero;"/><path d="M727.542,1252.76l-5.005,-0c0,-0.887 1.124,-1.6 2.497,-1.6c1.384,-0 2.508,0.713 2.508,1.6Z" style="fill:#fff;fill-rule:nonzero;"/><rect x="722.537" y="1253.01" width="5.005" height="33.482" style="fill:#ffba2f;fill-rule:nonzero;"/><path d="M763.844,1288.08c-1.373,0 -2.493,-0.711 -2.493,-1.594l5.001,0c-0,0.883 -1.124,1.594 -2.508,1.594Z" style="fill:#df7824;fill-rule:nonzero;"/><path d="M766.352,1252.76l-5.001,-0c-0,-0.887 1.12,-1.6 2.493,-1.6c1.384,-0 2.508,0.713 2.508,1.6Z" style="fill:#fff;fill-rule:nonzero;"/><rect x="761.351" y="1253.01" width="5.001" height="33.482" style="fill:#ffba2f;fill-rule:nonzero;"/><path d="M802.657,1288.08c-1.377,0 -2.497,-0.711 -2.497,-1.594l5.001,0c0,0.883 -1.12,1.594 -2.504,1.594Z" style="fill:#df7824;fill-rule:nonzero;"/><path d="M805.161,1252.76l-5.001,-0c0,-0.887 1.12,-1.6 2.497,-1.6c1.384,-0 2.504,0.713 2.504,1.6Z" style="fill:#fff;fill-rule:nonzero;"/><rect x="800.16" y="1253.01" width="5.001" height="33.482" style="fill:#ffba2f;fill-rule:nonzero;"/><path d="M843.405,1288.08c-1.376,0 -2.496,-0.711 -2.496,-1.594l5,0c0,0.883 -1.12,1.594 -2.504,1.594Z" style="fill:#df7824;fill-rule:nonzero;"/><path d="M845.909,1252.76l-5,-0c-0,-0.887 1.12,-1.6 2.496,-1.6c1.384,-0 2.504,0.713 2.504,1.6Z" style="fill:#fff;fill-rule:nonzero;"/><rect x="840.909" y="1253.01" width="5.001" height="33.482" style="fill:#ffba2f;fill-rule:nonzero;"/><path d="M882.215,1288.08c-1.373,0 -2.493,-0.711 -2.493,-1.594l5.001,0c-0,0.883 -1.124,1.594 -2.508,1.594Z" style="fill:#df7824;fill-rule:nonzero;"/><path d="M884.723,1252.76l-5.001,-0c-0,-0.887 1.12,-1.6 2.493,-1.6c1.384,-0 2.508,0.713 2.508,1.6Z" style="fill:#fff;fill-rule:nonzero;"/><rect x="879.722" y="1253.01" width="5.001" height="33.482" style="fill:#ffba2f;fill-rule:nonzero;"/><path d="M955.76,1138.13c-0,-63.402 -80.444,-114.806 -179.678,-114.806c-99.235,-0 -179.678,51.404 -179.678,114.806c-0,63.404 80.443,114.808 179.678,114.808c99.234,0 179.678,-51.404 179.678,-114.808Z" style="fill:#ffd15f;fill-rule:nonzero;"/><path d="M922.96,1138.18c-0,-51.451 -65.285,-93.159 -145.814,-93.159c-80.525,0 -145.81,41.708 -145.81,93.159c0,51.46 65.285,93.167 145.81,93.167c80.529,0 145.814,-41.707 145.814,-93.167Z" style="fill:#eaa549;fill-rule:nonzero;"/><path d="M757.808,1203.52c0,-4.818 -5.544,-8.882 -12.993,-9.605c-7.584,-0.736 -14.095,-1.735 -19.532,-2.994c-1.603,-0.369 -3.125,-0.726 -4.577,-1.073c-7.828,-1.888 -11.776,-7.474 -8.837,-12.48l1.213,-2.089c2.895,-4.944 11.431,-7.483 19.252,-5.758c2.884,0.642 5.935,1.253 9.143,1.845c8.874,1.64 18.259,2.457 28.134,2.457c11.159,0 18.802,-0.964 22.921,-2.896c4.116,-1.925 6.181,-4.643 6.181,-8.156c-0,-2.217 -0.823,-4.123 -2.471,-5.701c-1.648,-1.575 -4.026,-3.006 -7.14,-4.299c-3.111,-1.278 -7.052,-2.539 -11.807,-3.764c-4.755,-1.233 -10.248,-2.545 -16.465,-3.951c-6.036,-1.399 -11.937,-2.949 -17.705,-4.643c-5.763,-1.694 -10.98,-3.773 -15.65,-6.231c-4.662,-2.451 -8.413,-5.463 -11.252,-9.032c-2.836,-3.567 -4.253,-7.862 -4.253,-12.891c-0,-3.86 0.867,-7.57 2.608,-11.136c1.738,-3.563 4.432,-6.807 8.101,-9.731c3.65,-2.925 8.413,-5.411 14.273,-7.458c3.178,-1.105 6.676,-2.054 10.497,-2.837c6.214,-1.274 10.359,-5.028 10.359,-9.202l0,-1.672c0,-5.36 6.802,-9.699 15.193,-9.699l4.201,-0c8.391,-0 15.193,4.339 15.193,9.699c-0,4.744 5.365,8.808 12.696,9.572c4.323,0.457 8.279,0.989 11.869,1.596c0.793,0.135 1.563,0.27 2.319,0.407c7.925,1.416 12.576,6.663 10.522,11.757l-0.926,2.273c-2.121,5.263 -10.579,8.351 -18.791,6.92c-2.032,-0.354 -4.127,-0.689 -6.292,-1.012c-7.967,-1.164 -16.339,-1.75 -25.12,-1.75c-8.782,0 -15.096,0.933 -18.936,2.805c-3.848,1.87 -5.768,4.324 -5.768,7.368c0,1.872 0.588,3.478 1.786,4.818c1.187,1.346 3.055,2.542 5.619,3.598c2.567,1.052 5.726,2.075 9.477,3.071c3.747,0.996 8.279,2.082 13.589,3.253c8.049,1.872 15.505,3.929 22.367,6.152c6.861,2.227 12.804,4.772 17.842,7.631c5.034,2.864 8.967,6.224 11.803,10.081c2.835,3.858 4.253,8.36 4.253,13.498c-0,3.513 -0.822,6.985 -2.463,10.429c-1.645,3.45 -4.399,6.638 -8.235,9.556c-3.847,2.924 -8.833,5.435 -14.962,7.542c-3.475,1.187 -7.397,2.192 -11.769,3.006c-6.456,1.202 -10.88,5.006 -10.88,9.299l-0,3.938c-0,5.361 -6.802,9.706 -15.193,9.706l-4.201,0c-8.391,0 -15.193,-4.345 -15.193,-9.706l0,-2.511Z" style="fill:#fff;fill-rule:nonzero;"/><path d="M868.194,392.974c-89.392,-7.016 -173.717,-31.059 -253.836,-69.248c-80.113,38.189 -164.441,62.232 -253.831,69.248c-10.458,172.813 74.153,283.673 253.831,321.636c179.678,-37.963 264.289,-148.823 253.836,-321.636Z" style="fill:#56c37f;fill-rule:nonzero;"/><path d="M559.016,537.214l113.34,-0l0,-63.546c0,-19.963 -25.425,-36.206 -56.674,-36.206c-31.248,-0 -56.666,16.243 -56.666,36.206l-0,63.546Zm120.838,9.59l-128.343,-0c-4.134,-0 -7.498,-2.151 -7.498,-4.797l-0,-68.339c-0,-25.248 32.149,-45.793 71.669,-45.793c39.521,-0 71.67,20.545 71.67,45.793l-0,68.339c-0,2.646 -3.353,4.797 -7.498,4.797Z" style="fill:#eaf6fd;fill-rule:nonzero;"/><path d="M705.183,504.749l-178.525,0c-12.923,0 -23.394,6.688 -23.394,14.947l0,47.926c0,23.645 30.003,42.818 67.019,42.818l91.275,0c37.009,0 67.018,-19.173 67.018,-42.818l0,-47.926c0,-8.259 -10.478,-14.947 -23.393,-14.947Z" style="fill:#fff;fill-rule:nonzero;"/><path d="M632.103,545.285c-0,-5.952 -7.557,-10.779 -16.875,-10.779c-9.324,-0 -16.882,4.827 -16.882,10.779c0,4.277 3.907,7.962 9.556,9.703l-0,11.688c-0,2.583 3.278,4.681 7.326,4.681c4.045,-0 7.331,-2.098 7.331,-4.681l-0,-11.688c5.637,-1.741 9.544,-5.426 9.544,-9.703Z" style="fill:#ffd15f;fill-rule:nonzero;"/><path d="M2880.09,774.296l-0.193,-0c-2.769,-0.072 -4.92,-1.557 -4.808,-3.322c8.882,-144.193 -23.249,-273.42 -101.121,-406.667c-0.967,-1.653 0.35,-3.494 2.94,-4.111c2.589,-0.62 5.469,0.223 6.437,1.876c36.744,62.882 62.769,123.203 79.558,184.413c19.795,72.155 27.048,145.67 22.181,224.739c-0.101,1.722 -2.319,3.072 -4.994,3.072Z" style="fill:#b1cdef;fill-rule:nonzero;"/><path d="M2887.95,1280.29l55.614,31.278c-0,0 39.93,17.315 24.718,43.433c-15.207,26.121 -58.463,68.035 -58.463,68.035l-21.869,-14.274l-6.656,-32.198l-0,-26.726l-49.43,-25.514l56.086,-44.034Z" style="fill:#fecfbd;fill-rule:nonzero;"/><path d="M2617.6,1367.39l-5.7,47.731l8.587,15.129c0,0 -8.212,30.377 -51.732,32.299c-43.513,1.919 -121.11,-5.974 -121.11,-5.974l11.338,-18.616l43.152,-17.152l25.894,-7.486l-11.676,-45.931l101.247,0Z" style="fill:#fecfbd;fill-rule:nonzero;"/><path d="M2451.53,676.184c-0,0 -50.27,147.377 -41.712,241.91c8.551,94.532 34.222,213.89 34.222,213.89c-0,0 20.32,218.675 7.49,248.059c-0,0 136.894,4.787 199.998,-3.416l-70.594,-276.76l70.594,-261.271c0,-0 44.92,-1.826 32.082,-70.162c-12.83,-68.333 -45.712,-103.431 -45.712,-103.431l-186.368,11.181Z" style="fill:#2d4559;fill-rule:nonzero;"/><path d="M2928.97,1254.88c0,0 -16.007,19.315 -40.461,41.1c-0.986,0.868 -1.973,1.741 -2.973,2.621c-24.187,21.121 -55.912,43.905 -88.466,53.317l-244.207,-189.977c-0,0 -57.407,-38.269 -50.274,-93.85c7.133,-55.577 71.781,-266.055 71.781,-266.055c-0,-0 -17.117,-13.742 -17.117,-56.796c0,-43.047 -4.39,-74.638 -4.39,-74.638l149.88,-10.054l5.087,-0.341l48.588,-3.263c0,0 82.717,134.155 21.399,231.65c-61.329,97.491 -112.652,185.878 -112.652,185.878c0,-0 135.462,129.02 188.221,152.436c52.775,23.414 75.584,27.972 75.584,27.972Z" style="fill:#40637f;fill-rule:nonzero;"/><path d="M2942.91,1311.6c0,-0 59.417,8.81 64.648,29.158c5.232,20.345 -60.369,100.682 -71.773,117.235c-11.014,15.978 -42.78,19.588 -50.628,1.823c-6.404,-14.516 -4.517,-83.221 -4.517,-83.221c-0,-0 6.181,45.865 35.182,27.336c28.99,-18.526 40.878,-52.24 37.075,-65.909c-3.806,-13.667 -9.987,-26.422 -9.987,-26.422Z" style="fill:#3ea2e5;fill-rule:nonzero;"/><path d="M2620.83,1430.15c-0,-0 26.861,40.054 -0,51.491c-26.858,11.438 -183.354,4.547 -211.656,4.738c-27.327,0.178 -45.574,-16.826 -23.479,-28.721c18.046,-9.712 116.786,-36.948 116.786,-36.948c-0,-0 -62.84,22.512 -24.462,31.745c38.371,9.242 91.335,2.251 109.255,-5.598c17.917,-7.847 33.56,-16.707 33.56,-16.707l-0.004,-0Z" style="fill:#3ea2e5;fill-rule:nonzero;"/><path d="M2888.11,1296.12c-0.986,0.868 -1.969,1.741 -2.973,2.621c-20.514,-12.636 -89.884,-55.433 -156.526,-97.257c-79.29,-49.75 -126.99,-118.885 -127.455,-119.58c-0.23,-0.329 -0.271,-0.711 -0.126,-1.061c0.644,-1.481 64.834,-148.911 118.118,-228.268c15.252,-22.715 19.617,-49.209 18.538,-74.714c-0.048,-1.156 -0.108,-2.311 -0.179,-3.463c-1.187,-19.343 -5.399,-37.978 -10.247,-53.805c-7.755,-25.28 -18.106,-46.974 -24.916,-59.902l5.087,-0.341c6.869,13.097 17.053,34.6 24.718,59.573c7.397,24.161 11.033,46.804 10.769,67.309c-0.305,25.705 -6.761,48.113 -19.174,66.601c-51.495,76.708 -113.289,217.323 -117.654,227.313c4.518,6.413 51.045,71.017 126.018,118.065c66.085,41.47 134.859,83.894 156.002,96.909Z" style="fill:#50758e;fill-rule:nonzero;"/><path d="M2739.16,778.147c-0.264,-0 -0.536,-0.029 -0.8,-0.082c-30.382,-6.559 -56.06,-26.538 -74.267,-57.775c-13.648,-23.407 -18.445,-45.195 -18.486,-45.415c-0.197,-0.873 0.763,-1.681 2.129,-1.8c1.369,-0.113 2.634,0.489 2.82,1.362c0.045,0.216 4.782,21.71 18.248,44.795c12.324,21.105 34.657,47.925 71.156,55.806c1.306,0.281 2.009,1.186 1.57,2.022c-0.35,0.667 -1.325,1.087 -2.37,1.087Z" style="fill:#50758e;fill-rule:nonzero;"/><path d="M2692.96,228.876c-0,-0 73.199,57.706 33.269,92.937c-39.926,35.23 -111.699,6.074 -111.699,6.074l78.43,-99.011Z" style="fill:#2d4559;fill-rule:nonzero;"/><path d="M2695.06,352.243c-0,0 93.638,8.201 115.502,20.349c21.868,12.148 90.312,92.028 90.312,92.028l-134.517,44.641c0,-0 -22.106,74.566 -14.259,95.979c7.837,21.409 40.641,64.234 12.83,71.977c-27.803,7.749 -54.185,0 -54.185,0c0,0 -198.93,16.907 -244.564,3.444c0,0 -15.683,10.223 -31.367,-2.533c-15.695,-12.755 2.132,-38.723 17.823,-56.031c15.684,-17.314 12.83,-36.901 12.83,-36.901l-18.062,-60.443l-28.521,14.274l-101.247,-58.007c-0,-0 88.414,-94.762 113.136,-105.999c24.711,-11.237 71.77,-17.614 71.77,-17.614l192.519,-5.164Z" style="fill:#3ea2e5;fill-rule:nonzero;"/><path d="M2753.19,515.019c-0.323,-0 -0.643,-0.044 -0.952,-0.126c-0.637,-0.163 -1.135,-0.488 -1.385,-0.895l-31.367,-51.708c-0.499,-0.823 0.137,-1.75 1.429,-2.069c1.287,-0.32 2.731,0.09 3.233,0.914l30.419,50.139l12.22,-3.488c1.254,-0.363 2.742,0 3.3,0.805c0.562,0.807 0,1.75 -1.265,2.11l-14.612,4.177c-0.324,0.09 -0.67,0.141 -1.02,0.141Z" style="fill:#2e8cc2;fill-rule:nonzero;"/><path d="M2447.32,526.353c-1.138,-0 -2.165,-0.501 -2.437,-1.234l-10.731,-29.212c-2.709,-7.357 -2.709,-15.132 -0,-22.489l17.864,-48.649c0.316,-0.861 1.667,-1.39 3.007,-1.19c1.343,0.201 2.173,1.062 1.86,1.919l-17.868,48.646c-2.53,6.882 -2.53,14.152 0,21.031l10.735,29.211c0.324,0.858 -0.51,1.722 -1.86,1.923c-0.186,0.025 -0.384,0.044 -0.57,0.044Z" style="fill:#2e8cc2;fill-rule:nonzero;"/><path d="M2616.59,649.609c-0.272,-0 -0.547,-0.025 -0.815,-0.085c-46.598,-10.241 -79.212,-30.232 -98.364,-45.205c-20.737,-16.205 -30.34,-29.797 -30.739,-30.367c-0.561,-0.807 0,-1.753 1.266,-2.11c1.265,-0.363 2.734,0 3.304,0.802c0.093,0.141 9.79,13.842 30.136,29.734c18.735,14.619 50.594,34.14 96.016,44.122c1.309,0.288 2.005,1.199 1.555,2.028c-0.357,0.67 -1.325,1.081 -2.359,1.081Z" style="fill:#2e8cc2;fill-rule:nonzero;"/><path d="M2650.8,280.02l14.735,68.944l30.903,3.341c0,-0 -56.097,49.808 -119.313,45.86c-63.219,-3.948 -73.206,-40.696 -73.206,-40.696l43.733,-4.859l15.683,-47.685l87.465,-24.905Z" style="fill:#fecfbd;fill-rule:nonzero;"/><path d="M2150.76,374.232c-0,0 -24.03,-12.073 -27.174,-26.878l30.776,-4.1l12.387,17.54l2.906,12.073l-18.895,1.365Z" style="fill:#f5ac9e;fill-rule:nonzero;"/><path d="M2404.53,531.071c-0,-0 -68.403,49.012 -101.91,54.81c-33.511,5.796 -89.843,-74.385 -106.241,-110.832c-16.398,-36.444 -45.626,-100.682 -45.626,-100.682l39.215,-16.854l121.925,143.504l19.36,-11.926l73.277,41.98Z" style="fill:#fecfbd;fill-rule:nonzero;"/><path d="M2132.85,354.354l-145.133,-0c-8.558,-0 -15.498,-4.432 -15.498,-9.898l0,-50.819c0,-5.466 6.94,-9.897 15.498,-9.897l145.133,-0c8.554,-0 15.49,4.431 15.49,9.897l0,50.819c0,5.466 -6.936,9.898 -15.49,9.898Z" style="fill:#ff617c;fill-rule:nonzero;"/><rect x="1972.22" y="296.449" width="176.121" height="11.389" style="fill:#40637f;fill-rule:nonzero;"/><path d="M2190.93,357.313l-2.31,-28.333c-0.339,-4.239 -3.837,-8.117 -9.399,-10.434l-10.665,-4.441c-7.616,-3.169 -17.224,-3.659 -25.518,-1.301l-19.583,5.56c-5.53,1.569 -4.771,6.714 1.112,7.612c5.794,0.884 13.373,1.023 22.512,-1.008c-0,-0 -12.841,22.551 6.054,25.968l14.571,19.361l23.226,-12.984Z" style="fill:#fecfbd;fill-rule:nonzero;"/><path d="M2323.54,515.579c-0.886,-0 -1.749,-0.304 -2.199,-0.842l-11.167,-13.213c-0.662,-0.776 -0.212,-1.747 1.008,-2.163c1.217,-0.42 2.728,-0.132 3.39,0.645l11.167,13.212c0.655,0.777 0.204,1.747 -1.012,2.164c-0.372,0.131 -0.782,0.197 -1.187,0.197Z" style="fill:#f5ac9e;fill-rule:nonzero;"/><path d="M2708.01,783.187c-2.426,0 -4.558,-1.133 -4.93,-2.711c-19.141,-79.917 -27.974,-151.745 -26.252,-213.484c1.385,-49.506 9.53,-92.701 24.187,-128.394c25.228,-61.401 60.927,-79.385 62.441,-80.121c2.188,-1.07 5.332,-0.801 7.003,0.602c1.674,1.399 1.258,3.403 -0.923,4.474c-0.707,0.353 -35.2,18.288 -59.316,77.829c-22.426,55.377 -40.156,158.999 2.743,338.127c0.416,1.74 -1.452,3.375 -4.186,3.641c-0.257,0.022 -0.51,0.037 -0.767,0.037Z" style="fill:#eaf6fd;fill-rule:nonzero;"/><path d="M2707.75,780.056c0,0 -57.21,77.905 -21.12,95.667c36.09,17.771 211.734,9.18 230.748,-16.397c9.317,-12.543 -38.449,-88.315 -38.449,-88.315c0,0 -83.476,17.242 -171.179,9.045Z" style="fill:#ff617c;fill-rule:nonzero;"/><path d="M2790.49,839.037c-9.127,0 -18.809,-0.147 -29.031,-0.451c-22.333,-0.651 -38.385,-9.799 -46.426,-26.447c-5.935,-12.298 -5.418,-24.202 -5.399,-24.703c0.048,-0.883 1.22,-1.572 2.578,-1.547c1.384,0.029 2.464,0.767 2.423,1.644c-0.008,0.119 -0.503,11.938 5.213,23.733c7.471,15.417 21.544,23.532 41.838,24.13c67.052,1.963 109.75,-2.458 126.893,-13.141c5.782,-3.603 8.509,-7.814 8.338,-12.871c-0.022,-0.88 1.072,-1.612 2.449,-1.628l0.059,-0c1.347,-0 2.471,0.695 2.497,1.562c0.193,5.905 -3.118,11.028 -9.853,15.22c-15.453,9.643 -49.567,14.499 -101.579,14.499Z" style="fill:#e24d4d;fill-rule:nonzero;"/><path d="M2823.41,822.866c-0,3.3 -4.186,5.98 -9.351,5.98c-5.168,0 -9.354,-2.68 -9.354,-5.98c-0,-3.303 4.186,-5.98 9.354,-5.98c5.165,-0 9.351,2.677 9.351,5.98Z" style="fill:#fff;fill-rule:nonzero;"/><path d="M2882.17,470.963c0,-0 47.934,89.047 45.437,108.86c-2.497,19.816 -48.477,59.648 -120.139,85.174c-71.654,25.53 -122.825,35.784 -122.825,35.784l-31.301,-27.568c0,-0 89.835,-44.795 123.112,-67.269c33.273,-22.474 48.957,-29.766 48.957,-29.766l-50.992,-69.456l107.751,-35.759Z" style="fill:#fecfbd;fill-rule:nonzero;"/><path d="M2653.85,673.063l-88.89,4.709l-74.628,34.017c-0,0 0.476,8.808 15.207,4.553c14.735,-4.249 51.335,-18.219 51.335,-18.219c-0,-0 26.623,33.711 48.964,32.799c22.341,-0.911 62.27,-13.059 67.975,-17.915c5.7,-4.862 11.337,-12.376 11.337,-12.376c0,-0 -8.96,-25.292 -31.3,-27.568Z" style="fill:#fecfbd;fill-rule:nonzero;"/><path d="M2826.61,577.828c-0.934,0 -1.835,-0.335 -2.259,-0.917c-0.595,-0.795 -0.059,-1.747 1.187,-2.126l27.096,-8.197c1.251,-0.382 2.735,-0.04 3.331,0.758c0.595,0.798 0.059,1.747 -1.187,2.126l-27.1,8.2c-0.339,0.11 -0.703,0.156 -1.068,0.156Z" style="fill:#f5ac9e;fill-rule:nonzero;"/><path d="M2677.2,279.081c-0,-0 31.952,-39.537 26.72,-63.227c-5.221,-23.69 -46.687,-60.743 -98.029,-60.44c-51.331,0.304 -82.233,14.882 -105.05,41.609c-22.817,26.728 7.185,82.058 7.185,82.058l169.174,-0Z" style="fill:#40637f;fill-rule:nonzero;"/><path d="M2503.92,260.498c0,0 5.708,69.703 75.577,62.869c69.879,-6.833 81.995,-33.257 81.995,-33.257c-0,0 25.317,0.911 29.239,-17.312c3.922,-18.222 -13.544,-19.817 -19.609,-17.539c-6.062,2.278 -14.255,8.639 -19.963,8.647c-5.705,0.009 -40.071,-5.914 -53.549,-55.799c0,0 -75.628,22.931 -93.69,52.391Z" style="fill:#fecfbd;fill-rule:nonzero;"/><path d="M2560.81,294.204c-8.458,0 -14.039,-1.305 -14.53,-1.425c-1.292,-0.313 -1.935,-1.237 -1.444,-2.061c0.484,-0.825 1.927,-1.238 3.218,-0.927c0.975,0.235 24.306,5.59 48.805,-8.135c1.042,-0.581 2.623,-0.515 3.531,0.149c0.908,0.663 0.807,1.672 -0.231,2.254c-14.698,8.234 -29.128,10.145 -39.349,10.145Z" style="fill:#f5ac9e;fill-rule:nonzero;"/><path d="M2570.48,324.802c-12.32,0 -19.836,-1.565 -20.209,-1.645c-1.317,-0.28 -2.02,-1.185 -1.588,-2.022c0.442,-0.836 1.86,-1.289 3.159,-1.01c0.424,0.088 42.594,8.565 91.186,-16.806c1.068,-0.559 2.638,-0.457 3.512,0.227c0.875,0.682 0.715,1.689 -0.357,2.247c-26.501,13.839 -51.066,17.838 -67.007,18.757c-3.107,0.178 -6.013,0.252 -8.696,0.252Z" style="fill:#f5ac9e;fill-rule:nonzero;"/><path d="M3161.26,1492.24l-3117.95,-0c-2.113,-0 -3.826,-1.096 -3.826,-2.445c-0,-1.353 1.713,-2.449 3.826,-2.449l3117.95,0c2.113,0 3.833,1.096 3.833,2.449c-0,1.349 -1.72,2.445 -3.833,2.445Z" style="fill:#594d7a;fill-rule:nonzero;"/><path d="M2242.27,685.868c0,46.282 -58.713,83.797 -131.138,83.797c-72.436,-0 -131.149,-37.515 -131.149,-83.797c0,-46.275 58.713,-83.79 131.149,-83.79c72.425,-0 131.138,37.515 131.138,83.79Z" style="fill:#ffd15f;fill-rule:nonzero;"/><path d="M2100.3,729.285c-0,-3.19 -3.669,-5.883 -8.603,-6.359c-5.02,-0.488 -9.332,-1.146 -12.923,-1.982c-1.064,-0.244 -2.073,-0.482 -3.033,-0.717c-5.179,-1.246 -7.795,-4.94 -5.853,-8.256l0.808,-1.378c1.912,-3.278 7.568,-4.956 12.737,-3.816c1.912,0.425 3.933,0.829 6.057,1.221c5.876,1.086 12.082,1.628 18.62,1.628c7.39,-0 12.45,-0.639 15.178,-1.916c2.724,-1.281 4.082,-3.075 4.082,-5.398c-0,-1.469 -0.544,-2.73 -1.63,-3.776c-1.094,-1.043 -2.668,-1.991 -4.729,-2.843c-2.054,-0.852 -4.663,-1.681 -7.814,-2.495c-3.148,-0.814 -6.784,-1.682 -10.895,-2.612c-4,-0.933 -7.904,-1.956 -11.725,-3.074c-3.814,-1.124 -7.264,-2.499 -10.352,-4.124c-3.092,-1.628 -5.581,-3.619 -7.457,-5.98c-1.875,-2.36 -2.809,-5.203 -2.809,-8.535c-0,-2.551 0.569,-5.009 1.723,-7.367c1.146,-2.361 2.939,-4.508 5.358,-6.446c2.419,-1.932 5.57,-3.582 9.451,-4.932c2.106,-0.739 4.417,-1.362 6.947,-1.884c4.119,-0.84 6.862,-3.326 6.862,-6.087l-0,-1.108c-0,-3.548 4.498,-6.425 10.054,-6.425l2.783,-0c5.555,-0 10.054,2.877 10.054,6.425c0,3.143 3.561,5.829 8.398,6.337c2.865,0.3 5.489,0.651 7.866,1.055c0.525,0.091 1.035,0.178 1.537,0.269c5.247,0.939 8.32,4.412 6.962,7.78l-0.61,1.51c-1.41,3.484 -7.007,5.523 -12.443,4.58c-1.34,-0.241 -2.731,-0.463 -4.168,-0.673c-5.265,-0.77 -10.809,-1.162 -16.625,-1.162c-5.812,0 -9.998,0.623 -12.536,1.86c-2.549,1.237 -3.814,2.865 -3.814,4.875c0,1.24 0.391,2.304 1.184,3.194c0.781,0.889 2.02,1.681 3.717,2.382c1.7,0.695 3.788,1.372 6.277,2.029c2.478,0.664 5.477,1.378 8.99,2.154c5.325,1.243 10.27,2.599 14.813,4.077c4.532,1.468 8.473,3.156 11.803,5.05c3.338,1.894 5.935,4.117 7.81,6.675c1.879,2.549 2.821,5.526 2.821,8.93c-0,2.323 -0.544,4.621 -1.63,6.906c-1.098,2.286 -2.914,4.39 -5.451,6.322c-2.549,1.938 -5.853,3.597 -9.913,4.991c-2.292,0.785 -4.889,1.455 -7.784,1.991c-4.272,0.798 -7.204,3.316 -7.204,6.158l0,2.612c0,3.541 -4.499,6.421 -10.054,6.421l-2.783,0c-5.556,0 -10.054,-2.88 -10.054,-6.421l-0,-1.666Z" style="fill:#fff;fill-rule:nonzero;"/></g></svg>