<?xml version="1.0" encoding="UTF-8" standalone="no"?><!DOCTYPE svg PUBLIC "-//W3C//DTD SVG 1.1//EN" "http://www.w3.org/Graphics/SVG/1.1/DTD/svg11.dtd"><svg width="100%" height="100%" viewBox="0 0 3209 1542" version="1.1" xmlns="http://www.w3.org/2000/svg" xmlns:xlink="http://www.w3.org/1999/xlink" xml:space="preserve" xmlns:serif="http://www.serif.com/" style="fill-rule:evenodd;clip-rule:evenodd;stroke-linejoin:round;stroke-miterlimit:2;"><g><path d="M2559.15,1199.09c16.266,4.012 33.444,3.717 51.541,-0.881c0,0 175.611,-43.984 526.822,-131.937c10.056,-2.352 14.804,-5.121 14.657,-7.904l0,-66.586c-71.403,10.041 -117.066,19.349 -137.026,27.918l-1028.74,-258.121c-14.794,-3.274 -27.567,-4.098 -44.523,0l-398.025,99.058c-21.574,-8.088 -76.25,-15.744 -164.088,-22.966l0,66.353c-0.125,1.944 3.602,3.915 10.605,5.788c779.188,192.853 1168.78,289.278 1168.78,289.278Z" style="fill:#0a6e4d;"/><path d="M2559.15,1132.45c16.266,4.013 33.45,3.718 51.546,-0.88c0,-0 175.606,-43.981 526.817,-131.94c20.112,-4.687 18.987,-11.081 -0.071,-15.889c-0,0 -383.683,-96.265 -1151.04,-288.798c-14.794,-3.274 -27.567,-4.101 -44.523,-0c0,-0 -183.841,45.748 -551.508,137.25c-14.837,3.445 -13.43,7.387 0,10.98c779.188,192.853 1168.78,289.277 1168.78,289.277Z" style="fill:#16b37e;"/><path d="M1883.57,746.023c42.55,17.07 108.483,17.383 151.913,0.721c0,-0 295.144,74.147 885.432,222.437c-20.954,3.679 -35.829,11.822 -39.111,21.423c-3.292,9.603 5.493,19.236 23.095,25.338c0,0 -84.307,21.208 -252.936,63.616c-51.297,-18.208 -125.097,-18.87 -178.126,-1.595c-0,-0 -293.531,-72.951 -880.581,-218.85c21.444,-3.008 37.286,-10.83 41.225,-20.35c3.938,-9.518 -4.651,-19.198 -22.373,-25.185c0,-0 90.484,-22.517 271.462,-67.555Z" style="fill:#78c9b0;"/><path d="M2261.06,858.049c119.082,-3.522 215.618,18.607 215.618,49.43c0,30.823 -96.536,58.667 -215.618,62.192c-119.088,3.525 -215.618,-18.61 -215.618,-49.43c-0,-30.822 96.53,-58.666 215.618,-62.192Z" style="fill:#16b37e;"/><path d="M2366.23,921.453l-57.11,-12.567l6.764,-1.221c7.209,-1.297 11.23,-2.293 12.131,-2.981c0.94,-0.692 -0.755,-1.51 -5.101,-2.465c-3.482,-0.765 -7.063,-1.164 -10.697,-1.205c-3.678,-0.036 -7.411,0.289 -11.273,0.984c-6.384,1.152 -9.084,2.355 -8.068,3.602c0.924,1.226 6.253,4.391 15.886,9.479c8.214,4.323 13.326,7.367 15.277,9.125c1.923,1.761 1.668,3.584 -0.81,5.484c-2.488,1.9 -8.241,3.673 -17.314,5.31c-14.539,2.615 -30.842,3.602 -48.934,2.934c-18.091,-0.661 -37.943,-2.987 -59.527,-6.947l-15.326,2.76l-26.388,-5.806l15.739,-2.837c-14.19,-3.555 -23.323,-7.248 -27.408,-11.075c-4.118,-3.826 2.95,-7.381 21.139,-10.658l7.975,-1.439l57.11,12.573l-9.969,1.797c-10.974,1.976 -17.2,3.333 -18.651,4.074c-1.494,0.736 0.049,1.599 4.536,2.589c3.863,0.851 7.693,1.321 11.415,1.403c3.743,0.08 7.432,-0.212 11.045,-0.865c9.149,-1.652 14.788,-3.035 16.939,-4.137c2.152,-1.102 0.37,-3.221 -5.492,-6.359c-9.606,-5.254 -15.717,-8.892 -18.336,-10.936c-2.548,-2.036 -2.858,-4.164 -0.712,-6.371c2.076,-2.21 7.329,-4.069 15.745,-5.588c12.185,-2.195 26.582,-2.854 43.185,-1.977c16.597,0.878 35.379,3.295 56.328,7.258l13.044,-2.353l26.387,5.807l-13.049,2.352c16.021,4.175 25.001,7.836 26.957,11.004c1.913,3.156 -3.145,5.827 -15.195,8.002c-1.652,0.295 -4.439,0.721 -8.242,1.25Z" style="fill:#fff;fill-rule:nonzero;"/><path d="M2559.15,1123.09c16.266,4.013 33.444,3.718 51.541,-0.88c0,-0 175.611,-43.981 526.822,-131.94c10.056,-2.346 14.804,-5.118 14.657,-7.902l0,-66.589c-71.403,10.047 -117.066,19.352 -137.026,27.921l-1028.74,-258.117c-14.794,-3.274 -27.567,-4.102 -44.523,-0l-398.025,99.054c-21.574,-8.09 -76.25,-15.743 -164.088,-22.965l0,66.352c-0.125,1.945 3.602,3.913 10.605,5.786c779.188,192.856 1168.78,289.28 1168.78,289.28Z" style="fill:#0a6e4d;"/><path d="M2559.15,1056.45c16.266,4.013 33.45,3.717 51.546,-0.881c0,0 175.606,-43.98 526.817,-131.939c20.112,-4.69 18.987,-11.081 -0.071,-15.889c-0,0 -383.683,-96.265 -1151.04,-288.798c-14.794,-3.274 -27.567,-4.102 -44.523,-0c0,-0 -183.841,45.748 -551.508,137.249c-14.837,3.443 -13.43,7.388 0,10.978c779.188,192.855 1168.78,289.28 1168.78,289.28Z" style="fill:#16b37e;"/><path d="M1883.57,670.019c42.55,17.077 108.483,17.39 151.913,0.724c0,0 295.144,74.148 885.432,222.437c-20.954,3.679 -35.829,11.823 -39.111,21.426c-3.292,9.601 5.493,19.234 23.095,25.336c0,-0 -84.307,21.204 -252.936,63.613c-51.297,-18.205 -125.097,-18.867 -178.126,-1.595c-0,-0 -293.531,-72.948 -880.581,-218.847c21.444,-3.005 37.286,-10.827 41.225,-20.348c3.938,-9.521 -4.651,-19.201 -22.373,-25.185c0,0 90.484,-22.519 271.462,-67.561Z" style="fill:#78c9b0;"/><path d="M2261.06,782.049c119.082,-3.522 215.618,18.607 215.618,49.433c0,30.825 -96.536,58.667 -215.618,62.189c-119.088,3.522 -215.618,-18.607 -215.618,-49.43c-0,-30.823 96.53,-58.667 215.618,-62.192Z" style="fill:#16b37e;"/><path d="M2366.23,845.272l-57.11,-12.57l6.764,-1.22c7.209,-1.298 11.23,-2.293 12.131,-2.979c0.94,-0.694 -0.755,-1.507 -5.101,-2.464c-3.482,-0.766 -7.063,-1.167 -10.697,-1.209c-3.678,-0.035 -7.411,0.29 -11.273,0.987c-6.384,1.153 -9.084,2.355 -8.068,3.602c0.924,1.224 6.253,4.388 15.886,9.48c8.214,4.32 13.326,7.366 15.277,9.121c1.923,1.764 1.668,3.588 -0.81,5.488c-2.488,1.9 -8.241,3.67 -17.314,5.307c-14.539,2.618 -30.842,3.605 -48.934,2.937c-18.091,-0.665 -37.943,-2.988 -59.527,-6.95l-15.326,2.763l-26.388,-5.81l15.739,-2.836c-14.19,-3.549 -23.323,-7.246 -27.408,-11.075c-4.118,-3.824 2.95,-7.379 21.139,-10.659l7.975,-1.436l57.11,12.57l-9.969,1.8c-10.974,1.977 -17.2,3.33 -18.651,4.072c-1.494,0.736 0.049,1.598 4.536,2.591c3.863,0.851 7.693,1.318 11.415,1.407c3.743,0.077 7.432,-0.219 11.045,-0.872c9.149,-1.649 14.788,-3.035 16.939,-4.137c2.152,-1.102 0.37,-3.218 -5.492,-6.362c-9.606,-5.251 -15.717,-8.888 -18.336,-10.927c-2.548,-2.042 -2.858,-4.169 -0.712,-6.377c2.076,-2.21 7.329,-4.066 15.745,-5.582c12.185,-2.198 26.582,-2.857 43.185,-1.982c16.597,0.877 35.379,3.297 56.328,7.26l13.044,-2.355l26.387,5.809l-13.049,2.349c16.021,4.176 25.001,7.84 26.957,11.007c1.913,3.156 -3.145,5.828 -15.195,7.999c-1.652,0.299 -4.439,0.721 -8.242,1.253Z" style="fill:#fff;fill-rule:nonzero;"/><path d="M2559.15,1046.73c16.266,4.01 33.444,3.718 51.541,-0.883c0,-0 175.611,-43.978 526.822,-131.937c10.056,-2.346 14.804,-5.118 14.657,-7.901l0,-66.589c-71.403,10.043 -117.066,19.348 -137.026,27.918l-1028.74,-258.115c-14.794,-3.277 -27.567,-4.101 -44.523,-0l-398.025,99.052c-21.574,-8.088 -76.25,-15.744 -164.088,-22.96l0,66.353c-0.125,1.941 3.602,3.912 10.605,5.785c779.188,192.85 1168.78,289.277 1168.78,289.277Z" style="fill:#0a6e4d;"/><path d="M2559.15,980.093c16.266,4.013 33.45,3.717 51.546,-0.88c0,-0 175.606,-43.981 526.817,-131.94c20.112,-4.69 18.987,-11.078 -0.071,-15.886c-0,0 -383.683,-96.271 -1151.04,-288.801c-14.794,-3.277 -27.567,-4.102 -44.523,-0c0,-0 -183.841,45.748 -551.508,137.25c-14.837,3.445 -13.43,7.387 0,10.977c779.188,192.855 1168.78,289.28 1168.78,289.28Z" style="fill:#16b37e;"/><path d="M1883.57,593.658c42.55,17.074 108.483,17.387 151.913,0.724c0,0 295.144,74.145 885.432,222.437c-20.954,3.679 -35.829,11.823 -39.111,21.426c-3.292,9.598 5.493,19.231 23.095,25.336c0,-0 -84.307,21.204 -252.936,63.613c-51.297,-18.205 -125.097,-18.867 -178.126,-1.598c-0,-0 -293.531,-72.945 -880.581,-218.844c21.444,-3.011 37.286,-10.83 41.225,-20.351c3.938,-9.52 -4.651,-19.198 -22.373,-25.184c0,-0 90.484,-22.52 271.462,-67.559Z" style="fill:#78c9b0;"/><path d="M2261.06,705.508c119.082,-3.525 215.618,18.607 215.618,49.433c0,30.819 -96.536,58.666 -215.618,62.189c-119.088,3.519 -215.618,-18.607 -215.618,-49.43c-0,-30.826 96.53,-58.667 215.618,-62.192Z" style="fill:#16b37e;"/><path d="M2366.23,768.911l-57.11,-12.57l6.764,-1.217c7.209,-1.3 11.23,-2.299 12.131,-2.985c0.94,-0.691 -0.755,-1.507 -5.101,-2.461c-3.482,-0.768 -7.063,-1.167 -10.697,-1.206c-3.678,-0.035 -7.411,0.287 -11.273,0.984c-6.384,1.153 -9.084,2.355 -8.068,3.599c0.924,1.23 6.253,4.388 15.886,9.48c8.214,4.323 13.326,7.366 15.277,9.122c1.923,1.767 1.668,3.59 -0.81,5.49c-2.488,1.897 -8.241,3.67 -17.314,5.307c-14.539,2.621 -30.842,3.602 -48.934,2.937c-18.091,-0.668 -37.943,-2.987 -59.527,-6.953l-15.326,2.763l-26.388,-5.807l15.739,-2.836c-14.19,-3.552 -23.323,-7.249 -27.408,-11.075c-4.118,-3.824 2.95,-7.382 21.139,-10.659l7.975,-1.436l57.11,12.568l-9.969,1.799c-10.974,1.98 -17.2,3.333 -18.651,4.078c-1.494,0.733 0.049,1.598 4.536,2.585c3.863,0.851 7.693,1.321 11.415,1.41c3.743,0.077 7.432,-0.219 11.045,-0.872c9.149,-1.649 14.788,-3.032 16.939,-4.137c2.152,-1.102 0.37,-3.218 -5.492,-6.362c-9.606,-5.25 -15.717,-8.888 -18.336,-10.93c-2.548,-2.036 -2.858,-4.166 -0.712,-6.374c2.076,-2.21 7.329,-4.066 15.745,-5.584c12.185,-2.196 26.582,-2.855 43.185,-1.977c16.597,0.874 35.379,3.295 56.328,7.254l13.044,-2.352l26.387,5.806l-13.049,2.355c16.021,4.173 25.001,7.837 26.957,11.002c1.913,3.158 -3.145,5.827 -15.195,7.999c-1.652,0.298 -4.439,0.724 -8.242,1.255Z" style="fill:#fff;fill-rule:nonzero;"/><path d="M2559.15,970.546c16.266,4.013 33.444,3.72 51.541,-0.878c0,0 175.611,-43.981 526.822,-131.937c10.056,-2.349 14.804,-5.121 14.657,-7.907l0,-66.586c-71.403,10.044 -117.066,19.352 -137.026,27.918l-1028.74,-258.118c-14.794,-3.274 -27.567,-4.098 -44.523,0l-398.025,99.058c-21.574,-8.091 -76.25,-15.744 -164.088,-22.966l0,66.353c-0.125,1.944 3.602,3.912 10.605,5.786c779.188,192.852 1168.78,289.277 1168.78,289.277Z" style="fill:#0a6e4d;"/><path d="M2559.15,904.093c16.266,4.01 33.45,3.717 51.546,-0.881c0,0 175.606,-43.978 526.817,-131.937c20.112,-4.695 18.987,-11.084 -0.071,-15.891c-0,-0 -383.683,-96.262 -1151.04,-288.799c-14.794,-3.277 -27.567,-4.101 -44.523,0c0,0 -183.841,45.751 -551.508,137.247c-14.837,3.446 -13.43,7.39 0,10.981c779.188,192.852 1168.78,289.28 1168.78,289.28Z" style="fill:#16b37e;"/><path d="M1883.57,517.478c42.55,17.073 108.483,17.387 151.913,0.721c0,-0 295.144,74.147 885.432,222.44c-20.954,3.676 -35.829,11.819 -39.111,21.423c-3.292,9.6 5.493,19.233 23.095,25.338c0,0 -84.307,21.202 -252.936,63.611c-51.297,-18.205 -125.097,-18.867 -178.126,-1.596c-0,0 -293.531,-72.948 -880.581,-218.847c21.444,-3.005 37.286,-10.827 41.225,-20.347c3.938,-9.521 -4.651,-19.201 -22.373,-25.185c0,0 90.484,-22.519 271.462,-67.558Z" style="fill:#78c9b0;"/><path d="M2261.06,629.507c119.082,-3.522 215.618,18.608 215.618,49.43c0,30.826 -96.536,58.67 -215.618,62.192c-119.088,3.523 -215.618,-18.607 -215.618,-49.429c-0,-30.823 96.53,-58.667 215.618,-62.193Z" style="fill:#16b37e;"/><path d="M2366.23,692.911l-57.11,-12.57l6.764,-1.221c7.209,-1.297 11.23,-2.293 12.131,-2.978c0.94,-0.692 -0.755,-1.51 -5.101,-2.464c-3.482,-0.766 -7.063,-1.168 -10.697,-1.206c-3.678,-0.036 -7.411,0.287 -11.273,0.984c-6.384,1.152 -9.084,2.355 -8.068,3.602c0.924,1.226 6.253,4.388 15.886,9.479c8.214,4.323 13.326,7.367 15.277,9.125c1.923,1.761 1.668,3.584 -0.81,5.484c-2.488,1.9 -8.241,3.67 -17.314,5.307c-14.539,2.621 -30.842,3.605 -48.934,2.938c-18.091,-0.662 -37.943,-2.988 -59.527,-6.95l-15.326,2.762l-26.388,-5.809l15.739,-2.837c-14.19,-3.551 -23.323,-7.245 -27.408,-11.075c-4.118,-3.823 2.95,-7.381 21.139,-10.658l7.975,-1.436l57.11,12.57l-9.969,1.8c-10.974,1.977 -17.2,3.33 -18.651,4.075c-1.494,0.732 0.049,1.598 4.536,2.588c3.863,0.851 7.693,1.318 11.415,1.404c3.743,0.079 7.432,-0.213 11.045,-0.866c9.149,-1.652 14.788,-3.035 16.939,-4.137c2.152,-1.102 0.37,-3.221 -5.492,-6.362c-9.606,-5.254 -15.717,-8.888 -18.336,-10.93c-2.548,-2.042 -2.858,-4.17 -0.712,-6.374c2.076,-2.213 7.329,-4.069 15.745,-5.585c12.185,-2.198 26.582,-2.857 43.185,-1.983c16.597,0.881 35.379,3.298 56.328,7.261l13.044,-2.352l26.387,5.806l-13.049,2.349c16.021,4.178 25.001,7.84 26.957,11.007c1.913,3.156 -3.145,5.827 -15.195,7.999c-1.652,0.299 -4.439,0.721 -8.242,1.253Z" style="fill:#fff;fill-rule:nonzero;"/><path d="M1964.08,1349.29c16.265,4.013 33.455,3.717 51.546,-0.881c0,0 175.606,-43.978 526.827,-131.94c10.062,-2.343 14.799,-5.117 14.647,-7.904l0,-66.586c-71.393,10.044 -117.056,19.352 -137.016,27.918l-1028.75,-258.115c-14.793,-3.274 -27.56,-4.101 -44.522,0l-398.025,99.055c-21.563,-8.088 -76.245,-15.744 -164.077,-22.963l-0,66.35c-0.136,1.947 3.596,3.912 10.599,5.786c779.182,192.852 1168.77,289.28 1168.77,289.28Z" style="fill:#0a6e4d;"/><path d="M1964.08,1282.84c16.271,4.013 33.455,3.717 51.546,-0.884c0,0 175.611,-43.978 526.833,-131.937c20.096,-4.692 18.977,-11.08 -0.082,-15.888c0,-0 -383.677,-96.265 -1151.04,-288.799c-14.793,-3.274 -27.56,-4.101 -44.522,0c0,0 -183.83,45.748 -551.497,137.25c-14.843,3.44 -13.436,7.388 -0,10.978c779.182,192.852 1168.77,289.28 1168.77,289.28Z" style="fill:#16b37e;"/><path d="M1290.18,896.221c42.556,17.073 108.489,17.39 151.919,0.727c-0,-0 295.138,74.144 885.426,222.437c-20.96,3.679 -35.819,11.819 -39.111,21.423c-3.281,9.6 5.493,19.233 23.095,25.338c0,0 -84.307,21.202 -252.931,63.614c-51.297,-18.209 -125.102,-18.867 -178.131,-1.599c-0,0 -293.52,-72.948 -880.581,-218.847c21.444,-3.008 37.286,-10.827 41.23,-20.347c3.939,-9.521 -4.656,-19.198 -22.378,-25.185c0,0 90.489,-22.519 271.462,-67.561Z" style="fill:#78c9b0;"/><path d="M1667.67,1008.25c119.082,-3.526 215.623,18.607 215.623,49.429c0,30.823 -96.541,58.667 -215.623,62.192c-119.082,3.523 -215.618,-18.61 -215.618,-49.432c-0,-30.823 96.536,-58.667 215.618,-62.189Z" style="fill:#16b37e;"/><path d="M1771.17,1071.65l-57.116,-12.57l6.764,-1.22c7.215,-1.298 11.23,-2.294 12.137,-2.979c0.935,-0.691 -0.76,-1.51 -5.112,-2.464c-3.483,-0.766 -7.052,-1.171 -10.692,-1.209c-3.667,-0.033 -7.405,0.29 -11.273,0.99c-6.384,1.146 -9.084,2.349 -8.057,3.599c0.924,1.226 6.242,4.385 15.88,9.479c8.215,4.323 13.321,7.367 15.277,9.125c1.913,1.761 1.668,3.584 -0.815,5.484c-2.477,1.897 -8.247,3.673 -17.319,5.305c-14.528,2.621 -30.837,3.607 -48.929,2.94c-18.096,-0.662 -37.937,-2.988 -59.527,-6.95l-15.321,2.763l-26.381,-5.81l15.728,-2.837c-14.191,-3.551 -23.324,-7.245 -27.409,-11.078c-4.124,-3.82 2.955,-7.375 21.145,-10.652l7.969,-1.439l57.116,12.567l-9.98,1.803c-10.975,1.977 -17.195,3.327 -18.64,4.075c-1.5,0.735 0.038,1.598 4.536,2.585c3.868,0.851 7.693,1.324 11.409,1.407c3.749,0.076 7.427,-0.216 11.05,-0.869c9.149,-1.649 14.789,-3.035 16.94,-4.137c2.14,-1.102 0.369,-3.218 -5.493,-6.359c-9.61,-5.251 -15.717,-8.891 -18.335,-10.933c-2.543,-2.039 -2.858,-4.164 -0.712,-6.374c2.07,-2.21 7.329,-4.066 15.75,-5.585c12.185,-2.195 26.572,-2.854 43.169,-1.979c16.614,0.877 35.389,3.297 56.338,7.26l13.039,-2.352l26.393,5.806l-13.044,2.349c16.01,4.175 24.991,7.84 26.952,11.004c1.912,3.159 -3.151,5.827 -15.201,8.002c-1.652,0.299 -4.433,0.724 -8.236,1.253Z" style="fill:#fff;fill-rule:nonzero;"/><path d="M1964.08,1273.29c16.265,4.016 33.455,3.721 51.546,-0.88c0,-0 175.606,-43.981 526.827,-131.937c10.062,-2.349 14.799,-5.121 14.647,-7.907l0,-66.586c-71.393,10.046 -117.056,19.348 -137.016,27.918l-1028.75,-258.115c-14.793,-3.277 -27.56,-4.101 -44.522,0l-398.025,99.052c-21.563,-8.088 -76.245,-15.744 -164.077,-22.963l-0,66.353c-0.136,1.944 3.596,3.912 10.599,5.785c779.182,192.856 1168.77,289.28 1168.77,289.28Z" style="fill:#0a6e4d;"/><path d="M1964.08,1206.66c16.271,4.01 33.455,3.714 51.546,-0.886c0,-0 175.611,-43.978 526.833,-131.934c20.096,-4.693 18.977,-11.084 -0.082,-15.889c0,0 -383.677,-96.271 -1151.04,-288.801c-14.793,-3.277 -27.56,-4.102 -44.522,-0c0,-0 -183.83,45.751 -551.497,137.247c-14.843,3.445 -13.436,7.387 -0,10.983c779.182,192.85 1168.77,289.28 1168.77,289.28Z" style="fill:#16b37e;"/><path d="M1290.18,820.221c42.556,17.073 108.489,17.386 151.919,0.723c-0,0 295.138,74.145 885.426,222.437c-20.96,3.679 -35.819,11.823 -39.111,21.424c-3.281,9.603 5.493,19.233 23.095,25.338c0,-0 -84.307,21.204 -252.931,63.613c-51.297,-18.208 -125.102,-18.864 -178.131,-1.595c-0,-0 -293.52,-72.951 -880.581,-218.847c21.444,-3.008 37.286,-10.83 41.23,-20.351c3.939,-9.517 -4.656,-19.198 -22.378,-25.184c0,-0 90.489,-22.52 271.462,-67.558Z" style="fill:#78c9b0;"/><path d="M1667.67,932.25c119.082,-3.525 215.623,18.607 215.623,49.43c0,30.823 -96.541,58.667 -215.623,62.192c-119.082,3.522 -215.618,-18.607 -215.618,-49.43c-0,-30.822 96.536,-58.667 215.618,-62.192Z" style="fill:#16b37e;"/><path d="M1771.17,995.651l-57.116,-12.567l6.764,-1.221c7.215,-1.3 11.23,-2.293 12.137,-2.981c0.935,-0.692 -0.76,-1.507 -5.112,-2.465c-3.483,-0.762 -7.052,-1.164 -10.692,-1.205c-3.667,-0.036 -7.405,0.289 -11.273,0.987c-6.384,1.152 -9.084,2.352 -8.057,3.602c0.924,1.223 6.242,4.388 15.88,9.476c8.215,4.323 13.321,7.37 15.277,9.125c1.913,1.761 1.668,3.587 -0.815,5.484c-2.477,1.9 -8.247,3.673 -17.319,5.31c-14.528,2.621 -30.837,3.605 -48.929,2.937c-18.096,-0.665 -37.937,-2.987 -59.527,-6.95l-15.321,2.76l-26.381,-5.806l15.728,-2.837c-14.191,-3.555 -23.324,-7.248 -27.409,-11.078c-4.124,-3.824 2.955,-7.378 21.145,-10.658l7.969,-1.433l57.116,12.57l-9.98,1.799c-10.975,1.974 -17.195,3.331 -18.64,4.072c-1.5,0.736 0.038,1.599 4.536,2.589c3.868,0.851 7.693,1.321 11.409,1.403c3.749,0.083 7.427,-0.212 11.05,-0.865c9.149,-1.652 14.789,-3.038 16.94,-4.137c2.14,-1.103 0.369,-3.221 -5.493,-6.359c-9.61,-5.254 -15.717,-8.892 -18.335,-10.934c-2.543,-2.038 -2.858,-4.166 -0.712,-6.373c2.07,-2.211 7.329,-4.069 15.75,-5.585c12.185,-2.196 26.572,-2.854 43.169,-1.98c16.614,0.878 35.389,3.298 56.338,7.257l13.039,-2.352l26.393,5.807l-13.044,2.352c16.01,4.175 24.991,7.836 26.952,11.007c1.912,3.153 -3.151,5.827 -15.201,7.996c-1.652,0.301 -4.433,0.724 -8.236,1.253Z" style="fill:#fff;fill-rule:nonzero;"/><path d="M1964.08,1196.93c16.265,4.012 33.455,3.717 51.546,-0.881c0,0 175.606,-43.981 526.827,-131.94c10.062,-2.346 14.799,-5.118 14.647,-7.904l0,-66.586c-71.393,10.044 -117.056,19.349 -137.016,27.918l-1028.75,-258.118c-14.793,-3.274 -27.56,-4.101 -44.522,0l-398.025,99.055c-21.563,-8.088 -76.245,-15.741 -164.077,-22.963l-0,66.356c-0.136,1.941 3.596,3.912 10.599,5.782c779.182,192.856 1168.77,289.281 1168.77,289.281Z" style="fill:#0a6e4d;"/><path d="M1964.08,1130.29c16.271,4.013 33.455,3.718 51.546,-0.88c0,-0 175.611,-43.981 526.833,-131.94c20.096,-4.689 18.977,-11.078 -0.082,-15.889c0,0 -383.677,-96.265 -1151.04,-288.801c-14.793,-3.271 -27.56,-4.098 -44.522,-0c0,-0 -183.83,45.751 -551.497,137.253c-14.843,3.442 -13.436,7.387 -0,10.977c779.182,192.853 1168.77,289.28 1168.77,289.28Z" style="fill:#16b37e;"/><path d="M1290.18,743.86c42.556,17.076 108.489,17.389 151.919,0.724c-0,-0 295.138,74.144 885.426,222.437c-20.96,3.678 -35.819,11.822 -39.111,21.426c-3.281,9.6 5.493,19.23 23.095,25.335c0,0 -84.307,21.205 -252.931,63.613c-51.297,-18.205 -125.102,-18.864 -178.131,-1.595c-0,-0 -293.52,-72.948 -880.581,-218.847c21.444,-3.005 37.286,-10.827 41.23,-20.347c3.939,-9.521 -4.656,-19.199 -22.378,-25.185c0,-0 90.489,-22.523 271.462,-67.561Z" style="fill:#78c9b0;"/><path d="M1667.67,855.889c119.082,-3.525 215.623,18.604 215.623,49.43c0,30.823 -96.541,58.667 -215.623,62.189c-119.082,3.522 -215.618,-18.604 -215.618,-49.43c-0,-30.822 96.536,-58.664 215.618,-62.189Z" style="fill:#16b37e;"/><path d="M1771.17,919.296l-57.116,-12.573l6.764,-1.221c7.215,-1.297 11.23,-2.293 12.137,-2.978c0.935,-0.692 -0.76,-1.507 -5.112,-2.468c-3.483,-0.762 -7.052,-1.164 -10.692,-1.205c-3.667,-0.033 -7.405,0.289 -11.273,0.987c-6.384,1.152 -9.084,2.355 -8.057,3.605c0.924,1.22 6.242,4.385 15.88,9.473c8.215,4.323 13.321,7.37 15.277,9.125c1.913,1.764 1.668,3.59 -0.815,5.487c-2.477,1.9 -8.247,3.67 -17.319,5.307c-14.528,2.618 -30.837,3.605 -48.929,2.94c-18.096,-0.664 -37.937,-2.99 -59.527,-6.953l-15.321,2.763l-26.381,-5.809l15.728,-2.837c-14.191,-3.552 -23.324,-7.242 -27.409,-11.075c-4.124,-3.823 2.955,-7.381 21.145,-10.655l7.969,-1.439l57.116,12.57l-9.98,1.799c-10.975,1.977 -17.195,3.331 -18.64,4.072c-1.5,0.736 0.038,1.602 4.536,2.589c3.868,0.854 7.693,1.324 11.409,1.409c3.749,0.077 7.427,-0.215 11.05,-0.871c9.149,-1.649 14.789,-3.035 16.94,-4.134c2.14,-1.105 0.369,-3.221 -5.493,-6.362c-9.61,-5.251 -15.717,-8.892 -18.335,-10.93c-2.543,-2.042 -2.858,-4.167 -0.712,-6.377c2.07,-2.207 7.329,-4.066 15.75,-5.582c12.185,-2.195 26.572,-2.857 43.169,-1.983c16.614,0.878 35.389,3.298 56.338,7.261l13.039,-2.35l26.393,5.804l-13.044,2.352c16.01,4.172 24.991,7.836 26.952,11.004c1.912,3.156 -3.151,5.827 -15.201,7.999c-1.652,0.298 -4.433,0.721 -8.236,1.256Z" style="fill:#fff;fill-rule:nonzero;"/><path d="M1365.65,1498.77c16.277,4.013 33.455,3.717 51.552,-0.881c0,0 175.605,-43.98 526.822,-131.939c10.056,-2.347 14.799,-5.118 14.652,-7.902l-0,-66.586c-71.404,10.044 -117.067,19.349 -137.027,27.918l-1028.74,-258.117c-14.794,-3.274 -27.556,-4.102 -44.522,-0l-398.027,99.054c-21.568,-8.09 -76.244,-15.744 -164.077,-22.965l0,66.352c-0.135,1.947 3.595,3.913 10.603,5.789c779.185,192.852 1168.77,289.277 1168.77,289.277Z" style="fill:#0a6e4d;"/><path d="M1365.65,1432.32c16.272,4.01 33.456,3.717 51.547,-0.886c0,-0 175.611,-43.978 526.822,-131.937c20.106,-4.69 18.987,-11.078 -0.071,-15.889c-0,0 -383.683,-96.265 -1151.04,-288.798c-14.794,-3.274 -27.561,-4.102 -44.522,-0c0,-0 -183.84,45.748 -551.502,137.249c-14.845,3.443 -13.432,7.388 0,10.978c779.187,192.855 1168.77,289.283 1168.77,289.283Z" style="fill:#16b37e;"/><path d="M690.069,1045.7c42.55,17.071 108.488,17.387 151.918,0.721c0,0 295.144,74.148 885.427,222.44c-20.955,3.679 -35.824,11.823 -39.111,21.42c-3.287,9.604 5.498,19.237 23.1,25.339c0,-0 -84.312,21.204 -252.936,63.613c-51.297,-18.205 -125.097,-18.864 -178.126,-1.596c-0,0 -293.531,-72.948 -880.583,-218.847c21.443,-3.008 37.285,-10.826 41.227,-20.347c3.938,-9.521 -4.658,-19.198 -22.378,-25.185c0,0 90.488,-22.519 271.462,-67.558Z" style="fill:#78c9b0;"/><path d="M1067.56,1157.73c119.082,-3.523 215.613,18.607 215.613,49.429c-0,30.823 -96.531,58.67 -215.613,62.193c-119.088,3.525 -215.624,-18.608 -215.624,-49.433c0,-30.823 96.536,-58.667 215.624,-62.189Z" style="fill:#16b37e;"/><path d="M1171.06,1221.13l-57.121,-12.573l6.775,-1.217c7.21,-1.298 11.23,-2.293 12.126,-2.979c0.94,-0.691 -0.755,-1.51 -5.101,-2.464c-3.477,-0.769 -7.057,-1.17 -10.697,-1.206c-3.673,-0.038 -7.405,0.287 -11.274,0.984c-6.383,1.153 -9.083,2.355 -8.062,3.602c0.924,1.226 6.253,4.385 15.88,9.48c8.22,4.323 13.332,7.363 15.283,9.124c1.918,1.758 1.668,3.585 -0.81,5.485c-2.488,1.897 -8.252,3.67 -17.325,5.304c-14.527,2.621 -30.837,3.608 -48.928,2.94c-18.097,-0.662 -37.937,-2.988 -59.522,-6.95l-15.326,2.763l-26.387,-5.81l15.739,-2.836c-14.196,-3.552 -23.329,-7.246 -27.415,-11.075c-4.123,-3.824 2.956,-7.379 21.145,-10.659l7.97,-1.436l57.115,12.57l-9.974,1.8c-10.98,1.977 -17.195,3.327 -18.646,4.075c-1.494,0.736 0.049,1.595 4.537,2.588c3.868,0.851 7.693,1.321 11.409,1.404c3.748,0.08 7.426,-0.216 11.05,-0.869c9.149,-1.649 14.788,-3.032 16.94,-4.134c2.145,-1.105 0.369,-3.221 -5.493,-6.365c-9.605,-5.248 -15.723,-8.888 -18.336,-10.93c-2.548,-2.036 -2.858,-4.163 -0.712,-6.371c2.076,-2.213 7.324,-4.069 15.745,-5.587c12.186,-2.196 26.583,-2.855 43.18,-1.977c16.603,0.874 35.384,3.294 56.333,7.257l13.044,-2.352l26.387,5.803l-13.049,2.352c16.016,4.176 24.996,7.84 26.957,11.004c1.913,3.159 -3.151,5.831 -15.195,8.002c-1.652,0.299 -4.439,0.721 -8.242,1.253Z" style="fill:#fff;fill-rule:nonzero;"/><path d="M2747.22,1196.24c140.504,-4.157 258.678,17.068 293.188,49.598c3.368,-0.1 6.807,0.074 10.148,0.553l-0.027,17.676c0.049,0.57 0.093,1.147 0.093,1.723c-0,0.609 -0.044,1.217 -0.093,1.826l0,0.1l-0.011,0c-3.939,42.599 -138.216,80.696 -303.298,85.581c-164.153,4.861 -297.85,-24.937 -303.201,-66.929l-0.022,-0l0,-0.151c-0.092,-0.821 -0.163,-1.643 -0.163,-2.464c0,-0.757 0.054,-1.507 0.131,-2.255l-0.131,-18.713c3.455,0.023 6.753,0.316 9.779,0.833c33.961,-34.77 152.538,-63.203 293.607,-67.378Z" style="fill:#ed7323;"/><path d="M2747.22,1175.35c167.564,-4.956 303.402,26.183 303.402,69.553c-0,43.372 -135.838,82.548 -303.402,87.509c-167.554,4.956 -303.386,-26.183 -303.386,-69.552c0,-43.373 135.832,-82.549 303.386,-87.51Z" style="fill:#fed33f;"/><path d="M2748.19,1193.6c133.751,-3.806 242.179,20.091 242.179,53.369c0,33.275 -108.428,63.339 -242.179,67.142c-133.74,3.806 -242.163,-20.088 -242.163,-53.366c0,-33.278 108.423,-63.339 242.163,-67.145Z" style="fill:#ed7323;"/><path d="M2880.99,1263.53l-73.121,-16.092l8.66,-1.56c9.236,-1.664 14.386,-2.94 15.543,-3.818c1.196,-0.884 -0.977,-1.93 -6.541,-3.156c-4.46,-0.978 -9.04,-1.492 -13.696,-1.542c-4.699,-0.045 -9.48,0.369 -14.435,1.264c-8.165,1.472 -11.632,3.011 -10.317,4.61c1.185,1.569 7.997,5.614 20.335,12.133c10.513,5.531 17.054,9.432 19.558,11.684c2.456,2.254 2.141,4.589 -1.043,7.02c-3.178,2.429 -10.55,4.702 -22.166,6.797c-18.612,3.348 -39.485,4.615 -62.646,3.758c-23.16,-0.851 -48.574,-3.826 -76.206,-8.9l-19.618,3.543l-33.781,-7.437l20.15,-3.635c-18.167,-4.548 -29.864,-9.278 -35.09,-14.178c-5.281,-4.896 3.775,-9.449 27.061,-13.642l10.208,-1.841l73.12,16.092l-12.772,2.299c-14.055,2.535 -22.014,4.267 -23.872,5.218c-1.918,0.946 0.06,2.048 5.808,3.316c4.949,1.087 9.849,1.687 14.608,1.799c4.798,0.098 9.508,-0.277 14.153,-1.114c11.708,-2.109 18.928,-3.882 21.677,-5.295c2.749,-1.412 0.473,-4.122 -7.03,-8.144c-12.295,-6.725 -20.118,-11.382 -23.481,-13.994c-3.254,-2.612 -3.656,-5.334 -0.902,-8.159c2.652,-2.83 9.383,-5.206 20.162,-7.15c15.603,-2.811 34.025,-3.656 55.273,-2.533c21.264,1.123 45.299,4.22 72.121,9.287l16.695,-3.008l33.787,7.432l-16.712,3.011c20.509,5.343 32.005,10.035 34.515,14.089c2.45,4.039 -4.036,7.461 -19.455,10.242c-2.119,0.381 -5.683,0.928 -10.55,1.604Z" style="fill:#fff;fill-rule:nonzero;"/><path d="M2747.22,1170.85c140.504,-4.158 258.678,17.067 293.188,49.601c3.368,-0.104 6.807,0.071 10.148,0.552l-0.027,17.674c0.049,0.576 0.093,1.146 0.093,1.725c-0,0.609 -0.044,1.218 -0.093,1.823l0,0.101l-0.011,0.003c-3.939,42.595 -138.216,80.699 -303.298,85.58c-164.153,4.858 -297.85,-24.936 -303.201,-66.935l-0.022,0l0,-0.147c-0.092,-0.819 -0.163,-1.64 -0.163,-2.471c0,-0.75 0.054,-1.501 0.131,-2.251l-0.131,-18.711c3.455,0.027 6.753,0.316 9.779,0.834c33.961,-34.771 152.538,-63.203 293.607,-67.378Z" style="fill:#ed7323;"/><path d="M2747.22,1149.96c167.564,-4.955 303.402,26.184 303.402,69.553c-0,43.369 -135.838,82.549 -303.402,87.507c-167.554,4.958 -303.386,-26.181 -303.386,-69.553c0,-43.369 135.832,-82.548 303.386,-87.507Z" style="fill:#fed33f;"/><path d="M2748.19,1168.21c133.751,-3.806 242.179,20.087 242.179,53.366c0,33.281 -108.428,63.338 -242.179,67.144c-133.74,3.803 -242.163,-20.087 -242.163,-53.366c0,-33.281 108.423,-63.338 242.163,-67.144Z" style="fill:#ed7323;"/><path d="M2880.99,1238.14l-73.121,-16.093l8.66,-1.56c9.236,-1.666 14.386,-2.94 15.543,-3.815c1.196,-0.886 -0.977,-1.929 -6.541,-3.158c-4.46,-0.979 -9.04,-1.493 -13.696,-1.54c-4.699,-0.047 -9.48,0.369 -14.435,1.262c-8.165,1.471 -11.632,3.011 -10.317,4.609c1.185,1.57 7.997,5.615 20.335,12.133c10.513,5.535 17.054,9.432 19.558,11.681c2.456,2.261 2.141,4.592 -1.043,7.024c-3.178,2.432 -10.55,4.701 -22.166,6.796c-18.612,3.351 -39.485,4.613 -62.646,3.759c-23.16,-0.851 -48.574,-3.827 -76.206,-8.897l-19.618,3.534l-33.781,-7.435l20.15,-3.628c-18.167,-4.551 -29.864,-9.279 -35.09,-14.181c-5.281,-4.893 3.775,-9.447 27.061,-13.643l10.208,-1.841l73.12,16.093l-12.772,2.301c-14.055,2.533 -22.014,4.261 -23.872,5.219c-1.918,0.942 0.06,2.045 5.808,3.309c4.949,1.091 9.849,1.694 14.608,1.803c4.798,0.097 9.508,-0.278 14.153,-1.114c11.708,-2.11 18.928,-3.883 21.677,-5.292c2.749,-1.416 0.473,-4.125 -7.03,-8.144c-12.295,-6.726 -20.118,-11.385 -23.481,-13.998c-3.254,-2.609 -3.656,-5.333 -0.902,-8.161c2.652,-2.828 9.383,-5.204 20.162,-7.145c15.603,-2.813 34.025,-3.655 55.273,-2.535c21.264,1.123 45.299,4.219 72.121,9.29l16.695,-3.011l33.787,7.434l-16.712,3.009c20.509,5.345 32.005,10.034 34.515,14.089c2.45,4.039 -4.036,7.461 -19.455,10.241c-2.119,0.381 -5.683,0.925 -10.55,1.605Z" style="fill:#fff;fill-rule:nonzero;"/><path d="M2747.22,1145.99c140.504,-4.158 258.678,17.067 293.188,49.601c3.368,-0.1 6.807,0.074 10.148,0.55l-0.027,17.676c0.049,0.573 0.093,1.146 0.093,1.726c-0,0.608 -0.044,1.217 -0.093,1.823l0,0.1l-0.011,0.003c-3.939,42.598 -138.216,80.699 -303.298,85.583c-164.153,4.855 -297.85,-24.936 -303.201,-66.934l-0.022,-0l0,-0.151c-0.092,-0.819 -0.163,-1.64 -0.163,-2.47c0,-0.748 0.054,-1.502 0.131,-2.252l-0.131,-18.708c3.455,0.024 6.753,0.314 9.779,0.834c33.961,-34.771 152.538,-63.206 293.607,-67.381Z" style="fill:#ed7323;"/><path d="M2747.22,1125.1c167.564,-4.956 303.402,26.183 303.402,69.555c-0,43.367 -135.838,82.546 -303.402,87.504c-167.554,4.958 -303.386,-26.18 -303.386,-69.55c0,-43.372 135.832,-82.551 303.386,-87.509Z" style="fill:#fed33f;"/><path d="M2748.19,1143.35c133.751,-3.803 242.179,20.091 242.179,53.366c0,33.281 -108.428,63.338 -242.179,67.147c-133.74,3.803 -242.163,-20.09 -242.163,-53.368c0,-33.279 108.423,-63.339 242.163,-67.145Z" style="fill:#ed7323;"/><path d="M2880.99,1213.29l-73.121,-16.089l8.66,-1.564c9.236,-1.666 14.386,-2.94 15.543,-3.814c1.196,-0.884 -0.977,-1.93 -6.541,-3.156c-4.46,-0.981 -9.04,-1.49 -13.696,-1.543c-4.699,-0.044 -9.48,0.37 -14.435,1.262c-8.165,1.472 -11.632,3.014 -10.317,4.61c1.185,1.569 7.997,5.617 20.335,12.133c10.513,5.534 17.054,9.432 19.558,11.68c2.456,2.261 2.141,4.595 -1.043,7.027c-3.178,2.429 -10.55,4.698 -22.166,6.793c-18.612,3.354 -39.485,4.613 -62.646,3.762c-23.16,-0.854 -48.574,-3.824 -76.206,-8.9l-19.618,3.534l-33.781,-7.435l20.15,-3.628c-18.167,-4.551 -29.864,-9.279 -35.09,-14.181c-5.281,-4.893 3.775,-9.444 27.061,-13.643l10.208,-1.838l73.12,16.09l-12.772,2.302c-14.055,2.532 -22.014,4.264 -23.872,5.218c-1.918,0.94 0.06,2.045 5.808,3.313c4.949,1.09 9.849,1.69 14.608,1.799c4.798,0.101 9.508,-0.278 14.153,-1.114c11.708,-2.11 18.928,-3.883 21.677,-5.292c2.749,-1.41 0.473,-4.122 -7.03,-8.144c-12.295,-6.725 -20.118,-11.382 -23.481,-13.997c-3.254,-2.61 -3.656,-5.331 -0.902,-8.156c2.652,-2.834 9.383,-5.209 20.162,-7.151c15.603,-2.813 34.025,-3.655 55.273,-2.535c21.264,1.123 45.299,4.22 72.121,9.29l16.695,-3.011l33.787,7.435l-16.712,3.011c20.509,5.342 32.005,10.032 34.515,14.086c2.45,4.045 -4.036,7.464 -19.455,10.244c-2.119,0.382 -5.683,0.925 -10.55,1.602Z" style="fill:#fff;fill-rule:nonzero;"/><path d="M2747.22,1120.6c140.504,-4.157 258.678,17.068 293.188,49.598c3.368,-0.1 6.807,0.074 10.148,0.553l-0.027,17.673c0.049,0.574 0.093,1.15 0.093,1.726c-0,0.612 -0.044,1.217 -0.093,1.826l0,0.101l-0.011,-0c-3.939,42.601 -138.216,80.698 -303.298,85.583c-164.153,4.858 -297.85,-24.937 -303.201,-66.935l-0.022,0l0,-0.148c-0.092,-0.821 -0.163,-1.643 -0.163,-2.473c0,-0.748 0.054,-1.501 0.131,-2.249l-0.131,-18.707c3.455,0.021 6.753,0.313 9.779,0.83c33.961,-34.77 152.538,-63.202 293.607,-67.378Z" style="fill:#ed7323;"/><path d="M2747.22,1099.71c167.564,-4.961 303.402,26.181 303.402,69.553c-0,43.372 -135.838,82.548 -303.402,87.507c-167.554,4.958 -303.386,-26.181 -303.386,-69.553c0,-43.369 135.832,-82.549 303.386,-87.507Z" style="fill:#fed33f;"/><path d="M2748.19,1117.96c133.751,-3.806 242.179,20.087 242.179,53.362c0,33.281 -108.428,63.342 -242.179,67.145c-133.74,3.806 -242.163,-20.088 -242.163,-53.366c0,-33.278 108.423,-63.338 242.163,-67.141Z" style="fill:#ed7323;"/><path d="M2880.99,1187.89l-73.121,-16.092l8.66,-1.56c9.236,-1.667 14.386,-2.94 15.543,-3.815c1.196,-0.889 -0.977,-1.932 -6.541,-3.156c-4.46,-0.981 -9.04,-1.492 -13.696,-1.545c-4.699,-0.045 -9.48,0.369 -14.435,1.264c-8.165,1.472 -11.632,3.012 -10.317,4.61c1.185,1.566 7.997,5.614 20.335,12.133c10.513,5.532 17.054,9.432 19.558,11.681c2.456,2.254 2.141,4.592 -1.043,7.024c-3.178,2.429 -10.55,4.698 -22.166,6.793c-18.612,3.354 -39.485,4.616 -62.646,3.762c-23.16,-0.851 -48.574,-3.824 -76.206,-8.901l-19.618,3.537l-33.781,-7.434l20.15,-3.632c-18.167,-4.55 -29.864,-9.278 -35.09,-14.177c-5.281,-4.897 3.775,-9.447 27.061,-13.646l10.208,-1.838l73.12,16.092l-12.772,2.302c-14.055,2.53 -22.014,4.264 -23.872,5.219c-1.918,0.936 0.06,2.044 5.808,3.312c4.949,1.087 9.849,1.69 14.608,1.8c4.798,0.1 9.508,-0.275 14.153,-1.114c11.708,-2.11 18.928,-3.883 21.677,-5.296c2.749,-1.409 0.473,-4.122 -7.03,-8.143c-12.295,-6.723 -20.118,-11.38 -23.481,-13.995c-3.254,-2.609 -3.656,-5.334 -0.902,-8.158c2.652,-2.831 9.383,-5.207 20.162,-7.151c15.603,-2.81 34.025,-3.656 55.273,-2.533c21.264,1.12 45.299,4.22 72.121,9.291l16.695,-3.011l33.787,7.434l-16.712,3.011c20.509,5.34 32.005,10.029 34.515,14.086c2.45,4.043 -4.036,7.461 -19.455,10.242c-2.119,0.381 -5.683,0.925 -10.55,1.604Z" style="fill:#fff;fill-rule:nonzero;"/><path d="M2747.22,1094.85c140.504,-4.154 258.678,17.065 293.188,49.598c3.368,-0.1 6.807,0.074 10.148,0.556l-0.027,17.67c0.049,0.577 0.093,1.153 0.093,1.729c-0,0.609 -0.044,1.217 -0.093,1.823l0,0.101l-0.011,-0c-3.939,42.601 -138.216,80.698 -303.298,85.583c-164.153,4.855 -297.85,-24.94 -303.201,-66.932l-0.022,0l0,-0.154c-0.092,-0.815 -0.163,-1.64 -0.163,-2.467c0,-0.751 0.054,-1.501 0.131,-2.252l-0.131,-18.707c3.455,0.02 6.753,0.313 9.779,0.83c33.961,-34.767 152.538,-63.203 293.607,-67.378Z" style="fill:#ed7323;"/><path d="M2747.22,1073.96c167.564,-4.958 303.402,26.18 303.402,69.553c-0,43.372 -135.838,82.548 -303.402,87.504c-167.554,4.961 -303.386,-26.181 -303.386,-69.547c0,-43.372 135.832,-82.552 303.386,-87.51Z" style="fill:#fed33f;"/><path d="M2748.19,1092.21c133.751,-3.803 242.179,20.087 242.179,53.365c0,33.278 -108.428,63.339 -242.179,67.145c-133.74,3.803 -242.163,-20.091 -242.163,-53.366c0,-33.278 108.423,-63.339 242.163,-67.144Z" style="fill:#ed7323;"/><path d="M2880.99,1162.14l-73.121,-16.089l8.66,-1.563c9.236,-1.664 14.386,-2.94 15.543,-3.818c1.196,-0.883 -0.977,-1.927 -6.541,-3.153c-4.46,-0.981 -9.04,-1.492 -13.696,-1.542c-4.699,-0.045 -9.48,0.369 -14.435,1.261c-8.165,1.475 -11.632,3.014 -10.317,4.61c1.185,1.569 7.997,5.617 20.335,12.133c10.513,5.535 17.054,9.432 19.558,11.681c2.456,2.257 2.141,4.595 -1.043,7.024c-3.178,2.431 -10.55,4.701 -22.166,6.796c-18.612,3.354 -39.485,4.612 -62.646,3.759c-23.16,-0.849 -48.574,-3.821 -76.206,-8.901l-19.618,3.537l-33.781,-7.434l20.15,-3.632c-18.167,-4.547 -29.864,-9.275 -35.09,-14.177c-5.281,-4.894 3.775,-9.447 27.061,-13.646l10.208,-1.835l73.12,16.086l-12.772,2.302c-14.055,2.535 -22.014,4.27 -23.872,5.221c-1.918,0.94 0.06,2.048 5.808,3.313c4.949,1.09 9.849,1.69 14.608,1.802c4.798,0.101 9.508,-0.28 14.153,-1.117c11.708,-2.109 18.928,-3.882 21.677,-5.295c2.749,-1.409 0.473,-4.122 -7.03,-8.143c-12.295,-6.723 -20.118,-11.38 -23.481,-13.995c-3.254,-2.609 -3.656,-5.334 -0.902,-8.158c2.652,-2.828 9.383,-5.204 20.162,-7.148c15.603,-2.813 34.025,-3.656 55.273,-2.539c21.264,1.126 45.299,4.223 72.121,9.294l16.695,-3.011l33.787,7.437l-16.712,3.008c20.509,5.343 32.005,10.032 34.515,14.086c2.45,4.043 -4.036,7.461 -19.455,10.245c-2.119,0.381 -5.683,0.922 -10.55,1.601Z" style="fill:#fff;fill-rule:nonzero;"/><path d="M2747.22,1069.45c140.504,-4.155 258.678,17.067 293.188,49.598c3.368,-0.101 6.807,0.077 10.148,0.555l-0.027,17.674c0.049,0.573 0.093,1.146 0.093,1.725c-0,0.609 -0.044,1.218 -0.093,1.824l0,0.1l-0.011,0c-3.939,42.598 -138.216,80.699 -303.298,85.583c-164.153,4.855 -297.85,-24.936 -303.201,-66.932l-0.022,0l0,-0.153c-0.092,-0.816 -0.163,-1.637 -0.163,-2.465c0,-0.753 0.054,-1.501 0.131,-2.254l-0.131,-18.708c3.455,0.021 6.753,0.313 9.779,0.831c33.961,-34.768 152.538,-63.203 293.607,-67.378Z" style="fill:#ed7323;"/><path d="M2747.22,1048.56c167.564,-4.961 303.402,26.178 303.402,69.547c-0,43.372 -135.838,82.552 -303.402,87.507c-167.554,4.961 -303.386,-26.178 -303.386,-69.547c0,-43.372 135.832,-82.551 303.386,-87.507Z" style="fill:#fed33f;"/><path d="M2748.19,1066.81c133.751,-3.803 242.179,20.09 242.179,53.369c0,33.275 -108.428,63.335 -242.179,67.141c-133.74,3.803 -242.163,-20.087 -242.163,-53.366c0,-33.278 108.423,-63.338 242.163,-67.144Z" style="fill:#ed7323;"/><path d="M2880.99,1136.75l-73.121,-16.093l8.66,-1.56c9.236,-1.663 14.386,-2.937 15.543,-3.818c1.196,-0.883 -0.977,-1.926 -6.541,-3.152c-4.46,-0.978 -9.04,-1.493 -13.696,-1.546c-4.699,-0.044 -9.48,0.372 -14.435,1.265c-8.165,1.471 -11.632,3.011 -10.317,4.61c1.185,1.569 7.997,5.614 20.335,12.132c10.513,5.535 17.054,9.432 19.558,11.681c2.456,2.261 2.141,4.592 -1.043,7.024c-3.178,2.429 -10.55,4.698 -22.166,6.793c-18.612,3.354 -39.485,4.616 -62.646,3.762c-23.16,-0.851 -48.574,-3.824 -76.206,-8.9l-19.618,3.54l-33.781,-7.435l20.15,-3.634c-18.167,-4.548 -29.864,-9.279 -35.09,-14.178c-5.281,-4.896 3.775,-9.45 27.061,-13.643l10.208,-1.844l73.12,16.093l-12.772,2.302c-14.055,2.535 -22.014,4.266 -23.872,5.218c-1.918,0.943 0.06,2.048 5.808,3.312c4.949,1.094 9.849,1.694 14.608,1.803c4.798,0.097 9.508,-0.278 14.153,-1.114c11.708,-2.11 18.928,-3.883 21.677,-5.295c2.749,-1.413 0.473,-4.122 -7.03,-8.144c-12.295,-6.725 -20.118,-11.379 -23.481,-13.992c-3.254,-2.609 -3.656,-5.336 -0.902,-8.161c2.652,-2.831 9.383,-5.204 20.162,-7.151c15.603,-2.81 34.025,-3.655 55.273,-2.535c21.264,1.126 45.299,4.222 72.121,9.293l16.695,-3.011l33.787,7.434l-16.712,3.012c20.509,5.345 32.005,10.031 34.515,14.086c2.45,4.039 -4.036,7.461 -19.455,10.241c-2.119,0.382 -5.683,0.925 -10.55,1.605Z" style="fill:#fff;fill-rule:nonzero;"/><path d="M2747.22,1044.6c140.504,-4.161 258.678,17.067 293.188,49.598c3.368,-0.103 6.807,0.077 10.148,0.553l-0.027,17.676c0.049,0.57 0.093,1.143 0.093,1.726c-0,0.608 -0.044,1.214 -0.093,1.823l0,0.097l-0.011,0c-3.939,42.604 -138.216,80.699 -303.298,85.583c-164.153,4.861 -297.85,-24.933 -303.201,-66.931l-0.022,-0l0,-0.151c-0.092,-0.819 -0.163,-1.64 -0.163,-2.467c0,-0.754 0.054,-1.504 0.131,-2.252l-0.131,-18.708c3.455,0.018 6.753,0.314 9.779,0.828c33.961,-34.768 152.538,-63.2 293.607,-67.375Z" style="fill:#ed7323;"/><path d="M2747.22,1023.71c167.564,-4.962 303.402,26.18 303.402,69.546c-0,43.373 -135.838,82.552 -303.402,87.51c-167.554,4.959 -303.386,-26.18 -303.386,-69.55c0,-43.372 135.832,-82.551 303.386,-87.506Z" style="fill:#fed33f;"/><path d="M2748.19,1041.96c133.751,-3.803 242.179,20.088 242.179,53.366c0,33.278 -108.428,63.339 -242.179,67.144c-133.74,3.803 -242.163,-20.09 -242.163,-53.365c0,-33.276 108.423,-63.339 242.163,-67.145Z" style="fill:#ed7323;"/><path d="M2880.99,1111.89l-73.121,-16.089l8.66,-1.564c9.236,-1.663 14.386,-2.937 15.543,-3.817c1.196,-0.884 -0.977,-1.93 -6.541,-3.153c-4.46,-0.981 -9.04,-1.492 -13.696,-1.543c-4.699,-0.047 -9.48,0.37 -14.435,1.262c-8.165,1.475 -11.632,3.011 -10.317,4.613c1.185,1.569 7.997,5.614 20.335,12.133c10.513,5.531 17.054,9.432 19.558,11.677c2.456,2.258 2.141,4.595 -1.043,7.027c-3.178,2.426 -10.55,4.701 -22.166,6.794c-18.612,3.353 -39.485,4.612 -62.646,3.761c-23.16,-0.851 -48.574,-3.823 -76.206,-8.9l-19.618,3.537l-33.781,-7.435l20.15,-3.631c-18.167,-4.551 -29.864,-9.282 -35.09,-14.181c-5.281,-4.893 3.775,-9.447 27.061,-13.643l10.208,-1.841l73.12,16.093l-12.772,2.302c-14.055,2.532 -22.014,4.267 -23.872,5.218c-1.918,0.94 0.06,2.045 5.808,3.313c4.949,1.09 9.849,1.69 14.608,1.799c4.798,0.101 9.508,-0.278 14.153,-1.114c11.708,-2.11 18.928,-3.883 21.677,-5.292c2.749,-1.413 0.473,-4.122 -7.03,-8.147c-12.295,-6.722 -20.118,-11.379 -23.481,-13.991c-3.254,-2.609 -3.656,-5.334 -0.902,-8.162c2.652,-2.831 9.383,-5.203 20.162,-7.148c15.603,-2.813 34.025,-3.655 55.273,-2.535c21.264,1.123 45.299,4.22 72.121,9.29l16.695,-3.008l33.787,7.432l-16.712,3.011c20.509,5.342 32.005,10.032 34.515,14.086c2.45,4.042 -4.036,7.461 -19.455,10.242c-2.119,0.384 -5.683,0.925 -10.55,1.604Z" style="fill:#fff;fill-rule:nonzero;"/><path d="M2747.22,1019.21c140.504,-4.16 258.678,17.068 293.188,49.599c3.368,-0.101 6.807,0.07 10.148,0.555l-0.027,17.67c0.049,0.577 0.093,1.15 0.093,1.729c-0,0.606 -0.044,1.215 -0.093,1.82l0,0.101l-0.011,0.003c-3.939,42.598 -138.216,80.698 -303.298,85.58c-164.153,4.858 -297.85,-24.937 -303.201,-66.932l-0.022,0l0,-0.151c-0.092,-0.818 -0.163,-1.637 -0.163,-2.467c0,-0.753 0.054,-1.501 0.131,-2.254l-0.131,-18.708c3.455,0.024 6.753,0.313 9.779,0.83c33.961,-34.77 152.538,-63.202 293.607,-67.375Z" style="fill:#ed7323;"/><path d="M2747.22,998.316c167.564,-4.958 303.402,26.181 303.402,69.55c-0,43.369 -135.838,82.548 -303.402,87.507c-167.554,4.958 -303.386,-26.181 -303.386,-69.55c0,-43.372 135.832,-82.552 303.386,-87.507Z" style="fill:#fed33f;"/><path d="M2748.19,1016.57c133.751,-3.806 242.179,20.084 242.179,53.362c0,33.282 -108.428,63.339 -242.179,67.145c-133.74,3.803 -242.163,-20.088 -242.163,-53.369c0,-33.272 108.423,-63.335 242.163,-67.138Z" style="fill:#ed7323;"/><path d="M2880.99,1086.5l-73.121,-16.087l8.66,-1.566c9.236,-1.661 14.386,-2.937 15.543,-3.812c1.196,-0.889 -0.977,-1.932 -6.541,-3.156c-4.46,-0.981 -9.04,-1.495 -13.696,-1.542c-4.699,-0.05 -9.48,0.366 -14.435,1.259c-8.165,1.477 -11.632,3.014 -10.317,4.609c1.185,1.572 7.997,5.621 20.335,12.136c10.513,5.535 17.054,9.432 19.558,11.681c2.456,2.257 2.141,4.595 -1.043,7.021c-3.178,2.432 -10.55,4.704 -22.166,6.799c-18.612,3.351 -39.485,4.613 -62.646,3.759c-23.16,-0.851 -48.574,-3.827 -76.206,-8.898l-19.618,3.534l-33.781,-7.434l20.15,-3.629c-18.167,-4.553 -29.864,-9.278 -35.09,-14.183c-5.281,-4.891 3.775,-9.444 27.061,-13.643l10.208,-1.838l73.12,16.089l-12.772,2.305c-14.055,2.533 -22.014,4.264 -23.872,5.219c-1.918,0.939 0.06,2.047 5.808,3.309c4.949,1.09 9.849,1.693 14.608,1.8c4.798,0.103 9.508,-0.275 14.153,-1.111c11.708,-2.11 18.928,-3.886 21.677,-5.296c2.749,-1.412 0.473,-4.122 -7.03,-8.143c-12.295,-6.723 -20.118,-11.38 -23.481,-13.998c-3.254,-2.606 -3.656,-5.327 -0.902,-8.155c2.652,-2.828 9.383,-5.207 20.162,-7.148c15.603,-2.813 34.025,-3.658 55.273,-2.539c21.264,1.126 45.299,4.22 72.121,9.297l16.695,-3.011l33.787,7.434l-16.712,3.008c20.509,5.343 32.005,10.032 34.515,14.086c2.45,4.04 -4.036,7.461 -19.455,10.239c-2.119,0.387 -5.683,0.925 -10.55,1.605Z" style="fill:#fff;fill-rule:nonzero;"/><path d="M2370.68,1290.79c140.499,-4.157 258.674,17.068 293.183,49.602c3.369,-0.104 6.813,0.073 10.154,0.549l-0.027,17.676c0.049,0.571 0.081,1.147 0.081,1.726c0,0.609 -0.032,1.218 -0.081,1.826l-0,0.098l-0.011,0.003c-3.939,42.601 -138.217,80.695 -303.299,85.58c-164.158,4.858 -297.849,-24.937 -303.2,-66.935l-0.022,0l-0,-0.147c-0.103,-0.819 -0.168,-1.643 -0.168,-2.471c-0,-0.75 0.048,-1.501 0.135,-2.251l-0.135,-18.705c3.46,0.018 6.758,0.313 9.784,0.827c33.955,-34.767 152.538,-63.199 293.606,-67.378Z" style="fill:#ed7323;"/><path d="M2370.68,1269.9c167.56,-4.961 303.391,26.175 303.391,69.55c0,43.369 -135.831,82.548 -303.391,87.507c-167.553,4.958 -303.39,-26.181 -303.39,-69.55c-0,-43.372 135.837,-82.548 303.39,-87.507Z" style="fill:#fed33f;"/><path d="M2369.97,1288.15c133.751,-3.8 242.179,20.09 242.179,53.368c0,33.279 -108.428,63.339 -242.179,67.142c-133.735,3.809 -242.163,-20.085 -242.163,-53.363c-0,-33.278 108.428,-63.338 242.163,-67.147Z" style="fill:#ed7323;"/><path d="M2504.45,1358.09l-73.12,-16.093l8.66,-1.563c9.23,-1.664 14.38,-2.937 15.532,-3.812c1.201,-0.889 -0.967,-1.932 -6.536,-3.156c-4.46,-0.981 -9.029,-1.495 -13.696,-1.548c-4.694,-0.041 -9.48,0.375 -14.429,1.268c-8.171,1.471 -11.632,3.008 -10.323,4.606c1.185,1.569 8.003,5.618 20.341,12.133c10.512,5.538 17.053,9.435 19.552,11.684c2.462,2.258 2.141,4.592 -1.037,7.021c-3.184,2.435 -10.551,4.701 -22.177,6.796c-18.602,3.354 -39.475,4.613 -62.641,3.762c-23.165,-0.854 -48.569,-3.827 -76.2,-8.9l-19.624,3.537l-33.781,-7.435l20.15,-3.635c-18.167,-4.544 -29.859,-9.275 -35.09,-14.177c-5.276,-4.897 3.775,-9.447 27.06,-13.643l10.209,-1.841l73.12,16.092l-12.767,2.305c-14.055,2.53 -22.014,4.261 -23.872,5.216c-1.918,0.939 0.055,2.048 5.808,3.312c4.949,1.091 9.85,1.69 14.603,1.803c4.803,0.097 9.513,-0.281 14.153,-1.114c11.708,-2.113 18.928,-3.886 21.682,-5.296c2.749,-1.409 0.473,-4.122 -7.03,-8.143c-12.3,-6.723 -20.123,-11.383 -23.48,-13.995c-3.255,-2.609 -3.662,-5.333 -0.902,-8.158c2.645,-2.834 9.382,-5.207 20.161,-7.151c15.598,-2.813 34.02,-3.655 55.274,-2.532c21.253,1.119 45.298,4.216 72.115,9.287l16.7,-3.008l33.787,7.431l-16.711,3.011c20.498,5.346 31.999,10.035 34.515,14.089c2.444,4.04 -4.037,7.462 -19.455,10.239c-2.119,0.384 -5.683,0.928 -10.551,1.608Z" style="fill:#fff;fill-rule:nonzero;"/><path d="M2370.68,1265.4c140.499,-4.158 258.674,17.065 293.183,49.601c3.369,-0.1 6.813,0.074 10.154,0.553l-0.027,17.673c0.049,0.573 0.081,1.149 0.081,1.726c0,0.608 -0.032,1.217 -0.081,1.823l-0,0.103l-0.011,0c-3.939,42.598 -138.217,80.696 -303.299,85.58c-164.158,4.858 -297.849,-24.936 -303.2,-66.934l-0.022,-0l-0,-0.148c-0.103,-0.819 -0.168,-1.64 -0.168,-2.47c-0,-0.748 0.048,-1.501 0.135,-2.249l-0.135,-18.711c3.46,0.024 6.758,0.314 9.784,0.834c33.955,-34.771 152.538,-63.206 293.606,-67.381Z" style="fill:#ed7323;"/><path d="M2370.68,1244.51c167.56,-4.959 303.391,26.18 303.391,69.555c0,43.367 -135.831,82.546 -303.391,87.504c-167.553,4.961 -303.39,-26.177 -303.39,-69.55c-0,-43.369 135.837,-82.551 303.39,-87.509Z" style="fill:#fed33f;"/><path d="M2369.97,1262.76c133.751,-3.803 242.179,20.088 242.179,53.366c0,33.278 -108.428,63.336 -242.179,67.141c-133.735,3.806 -242.163,-20.087 -242.163,-53.365c-0,-33.276 108.428,-63.339 242.163,-67.142Z" style="fill:#ed7323;"/><path d="M2504.45,1332.69l-73.12,-16.089l8.66,-1.564c9.23,-1.663 14.38,-2.94 15.532,-3.814c1.201,-0.887 -0.967,-1.93 -6.536,-3.156c-4.46,-0.981 -9.029,-1.495 -13.696,-1.546c-4.694,-0.041 -9.48,0.373 -14.429,1.268c-8.171,1.469 -11.632,3.011 -10.323,4.607c1.185,1.569 8.003,5.617 20.341,12.133c10.512,5.534 17.053,9.432 19.552,11.68c2.462,2.258 2.141,4.595 -1.037,7.024c-3.184,2.432 -10.551,4.702 -22.177,6.797c-18.602,3.353 -39.475,4.612 -62.641,3.761c-23.165,-0.854 -48.569,-3.826 -76.2,-8.903l-19.624,3.537l-33.781,-7.435l20.15,-3.628c-18.167,-4.551 -29.859,-9.279 -35.09,-14.181c-5.276,-4.893 3.775,-9.447 27.06,-13.646l10.209,-1.835l73.12,16.09l-12.767,2.302c-14.055,2.532 -22.014,4.264 -23.872,5.221c-1.918,0.937 0.055,2.042 5.808,3.31c4.949,1.09 9.85,1.69 14.603,1.799c4.803,0.101 9.513,-0.278 14.153,-1.114c11.708,-2.11 18.928,-3.883 21.682,-5.295c2.749,-1.41 0.473,-4.122 -7.03,-8.141c-12.3,-6.725 -20.123,-11.382 -23.48,-13.997c-3.255,-2.609 -3.662,-5.331 -0.902,-8.159c2.645,-2.828 9.382,-5.206 20.161,-7.148c15.598,-2.813 34.02,-3.655 55.274,-2.538c21.253,1.123 45.298,4.22 72.115,9.293l16.7,-3.011l33.787,7.435l-16.711,3.011c20.498,5.342 31.999,10.032 34.515,14.086c2.444,4.042 -4.037,7.461 -19.455,10.242c-2.119,0.384 -5.683,0.927 -10.551,1.604Z" style="fill:#fff;fill-rule:nonzero;"/><path d="M2370.68,1240.55c140.499,-4.154 258.674,17.068 293.183,49.598c3.369,-0.1 6.813,0.077 10.154,0.556l-0.027,17.673c0.049,0.573 0.081,1.15 0.081,1.726c0,0.609 -0.032,1.217 -0.081,1.823l-0,0.103l-0.011,0c-3.939,42.598 -138.217,80.696 -303.299,85.581c-164.158,4.855 -297.849,-24.937 -303.2,-66.932l-0.022,-0l-0,-0.154c-0.103,-0.815 -0.168,-1.637 -0.168,-2.467c-0,-0.751 0.048,-1.501 0.135,-2.252l-0.135,-18.707c3.46,0.02 6.758,0.316 9.784,0.83c33.955,-34.767 152.538,-63.203 293.606,-67.378Z" style="fill:#ed7323;"/><path d="M2370.68,1219.66c167.56,-4.961 303.391,26.177 303.391,69.55c0,43.369 -135.831,82.548 -303.391,87.503c-167.553,4.962 -303.39,-26.177 -303.39,-69.549c-0,-43.373 135.837,-82.549 303.39,-87.504Z" style="fill:#fed33f;"/><path d="M2369.97,1237.9c133.751,-3.803 242.179,20.088 242.179,53.366c0,33.278 -108.428,63.339 -242.179,67.145c-133.735,3.803 -242.163,-20.091 -242.163,-53.366c-0,-33.278 108.428,-63.342 242.163,-67.145Z" style="fill:#ed7323;"/><path d="M2504.45,1307.84l-73.12,-16.089l8.66,-1.566c9.23,-1.661 14.38,-2.934 15.532,-3.812c1.201,-0.887 -0.967,-1.93 -6.536,-3.156c-4.46,-0.978 -9.029,-1.489 -13.696,-1.542c-4.694,-0.045 -9.48,0.369 -14.429,1.261c-8.171,1.475 -11.632,3.014 -10.323,4.616c1.185,1.563 8.003,5.611 20.341,12.13c10.512,5.531 17.053,9.429 19.552,11.681c2.462,2.254 2.141,4.592 -1.037,7.023c-3.184,2.429 -10.551,4.699 -22.177,6.794c-18.602,3.354 -39.475,4.612 -62.641,3.761c-23.165,-0.854 -48.569,-3.823 -76.2,-8.9l-19.624,3.537l-33.781,-7.434l20.15,-3.632c-18.167,-4.553 -29.859,-9.278 -35.09,-14.181c-5.276,-4.893 3.775,-9.446 27.06,-13.642l10.209,-1.841l73.12,16.092l-12.767,2.302c-14.055,2.532 -22.014,4.267 -23.872,5.218c-1.918,0.94 0.055,2.045 5.808,3.313c4.949,1.09 9.85,1.693 14.603,1.799c4.803,0.104 9.513,-0.277 14.153,-1.114c11.708,-2.106 18.928,-3.882 21.682,-5.295c2.749,-1.409 0.473,-4.122 -7.03,-8.144c-12.3,-6.722 -20.123,-11.379 -23.48,-13.994c-3.255,-2.609 -3.662,-5.331 -0.902,-8.159c2.645,-2.827 9.382,-5.203 20.161,-7.147c15.598,-2.814 34.02,-3.656 55.274,-2.539c21.253,1.126 45.298,4.223 72.115,9.296l16.7,-3.011l33.787,7.435l-16.711,3.011c20.498,5.34 31.999,10.029 34.515,14.083c2.444,4.042 -4.037,7.461 -19.455,10.245c-2.119,0.381 -5.683,0.922 -10.551,1.601Z" style="fill:#fff;fill-rule:nonzero;"/><path d="M2370.68,1215.15c140.499,-4.161 258.674,17.067 293.183,49.598c3.369,-0.104 6.813,0.077 10.154,0.552l-0.027,17.677c0.049,0.57 0.081,1.143 0.081,1.722c0,0.609 -0.032,1.221 -0.081,1.829l-0,0.098l-0.011,-0c-3.939,42.598 -138.217,80.696 -303.299,85.583c-164.158,4.858 -297.849,-24.936 -303.2,-66.935l-0.022,0l-0,-0.15c-0.103,-0.819 -0.168,-1.64 -0.168,-2.468c-0,-0.753 0.048,-1.504 0.135,-2.251l-0.135,-18.708c3.46,0.021 6.758,0.313 9.784,0.83c33.955,-34.77 152.538,-63.199 293.606,-67.377Z" style="fill:#ed7323;"/><path d="M2370.68,1194.26c167.56,-4.955 303.391,26.184 303.391,69.553c0,43.372 -135.831,82.549 -303.391,87.51c-167.553,4.958 -303.39,-26.181 -303.39,-69.553c-0,-43.372 135.837,-82.551 303.39,-87.51Z" style="fill:#fed33f;"/><path d="M2369.97,1212.51c133.751,-3.803 242.179,20.09 242.179,53.369c0,33.275 -108.428,63.335 -242.179,67.141c-133.735,3.803 -242.163,-20.087 -242.163,-53.363c-0,-33.281 108.428,-63.341 242.163,-67.147Z" style="fill:#ed7323;"/><path d="M2504.45,1282.45l-73.12,-16.093l8.66,-1.56c9.23,-1.663 14.38,-2.937 15.532,-3.818c1.201,-0.883 -0.967,-1.929 -6.536,-3.153c-4.46,-0.981 -9.029,-1.492 -13.696,-1.545c-4.694,-0.044 -9.48,0.372 -14.429,1.262c-8.171,1.477 -11.632,3.014 -10.323,4.612c1.185,1.569 8.003,5.615 20.341,12.133c10.512,5.535 17.053,9.432 19.552,11.684c2.462,2.255 2.141,4.592 -1.037,7.021c-3.184,2.429 -10.551,4.701 -22.177,6.793c-18.602,3.354 -39.475,4.616 -62.641,3.765c-23.165,-0.854 -48.569,-3.827 -76.2,-8.9l-19.624,3.534l-33.781,-7.435l20.15,-3.631c-18.167,-4.551 -29.859,-9.279 -35.09,-14.178c-5.276,-4.896 3.775,-9.45 27.06,-13.643l10.209,-1.844l73.12,16.096l-12.767,2.299c-14.055,2.532 -22.014,4.266 -23.872,5.221c-1.918,0.937 0.055,2.048 5.808,3.309c4.949,1.094 9.85,1.694 14.603,1.803c4.803,0.097 9.513,-0.278 14.153,-1.114c11.708,-2.107 18.928,-3.886 21.682,-5.295c2.749,-1.413 0.473,-4.125 -7.03,-8.147c-12.3,-6.722 -20.123,-11.376 -23.48,-13.992c-3.255,-2.606 -3.662,-5.333 -0.902,-8.158c2.645,-2.831 9.382,-5.207 20.161,-7.148c15.598,-2.813 34.02,-3.661 55.274,-2.535c21.253,1.123 45.298,4.216 72.115,9.29l16.7,-3.008l33.787,7.431l-16.711,3.011c20.498,5.343 31.999,10.032 34.515,14.087c2.444,4.039 -4.037,7.461 -19.455,10.241c-2.119,0.381 -5.683,0.925 -10.551,1.605Z" style="fill:#fff;fill-rule:nonzero;"/><path d="M2471.45,683.346c29.69,7.302 60.815,2.618 94.694,0.949c5.471,13.527 6.927,23.379 -11.127,28.051c0,-0 -34.465,8.708 -103.397,26.121c-43.05,10.085 -90.859,-6.758 -56.643,-22.103c0,0 18.885,-8.897 56.643,-26.694c3.727,-3.431 11.191,-5.81 19.83,-6.324Z" style="fill:#625faa;"/><path d="M2068.01,601.223c29.69,7.302 63.912,10.333 97.78,8.664c0.983,8.705 -3.759,15.487 -14.212,20.339c-0,-0 -34.466,8.705 -103.398,26.118c-43.044,10.088 -90.858,-6.758 -56.642,-22.1c-0,0 18.879,-8.9 56.642,-26.697c3.733,-3.434 11.186,-5.81 19.83,-6.324Z" style="fill:#625faa;"/><path d="M2187.66,273.172c74.327,-4.622 146.008,10.952 179.751,39.053c-0,0 -66.797,99.434 -200.385,298.303c-40.92,17.115 -102.615,4.149 -97.791,-15.176c0,-0 25.834,-104.262 118.425,-322.18Z" style="fill:#292664;"/><path d="M2213.22,370.261c15.717,-6.74 39.111,-9.045 60.478,-5.954c21.367,3.091 37.047,11.048 40.54,20.569c3.493,9.521 -5.808,18.977 -24.035,24.443c-0,0 -30.038,45.169 -90.12,135.501c0,-0 4.379,-58.186 13.137,-174.559Z" style="fill:#1a1349;"/><path d="M2258.92,365.669c64.129,-14.641 145.594,-10.023 204.269,11.578c-0,-0 35.634,102.287 106.902,306.858c-21.047,21.692 -90.723,18.129 -105.186,-0.62c0,-0 -78.194,-101.114 -205.985,-317.816Z" style="fill:#343486;"/><path d="M2346.33,382.586c67.296,2.745 100.942,4.119 100.942,4.119c25.746,69.718 58.527,154.968 58.527,154.968c-58.658,-56.126 -123.493,-122.254 -159.469,-159.087Z" style="fill:#292664;"/><path d="M2375.97,135.646c-30.299,-12.644 -72.811,-12.69 -127.53,-0.142c-15.576,12.907 -7.916,28.726 18.357,37.913c26.268,9.187 63.972,9.228 90.354,0.099c26.382,-9.127 34.232,-24.927 18.819,-37.87Z" style="fill:#f9b4ab;"/><path d="M2384.55,112.16c-30.19,-12.028 -72.202,-11.871 -126.02,0.472c-15.576,12.907 -7.905,28.726 18.363,37.914c26.262,9.184 63.972,9.228 90.348,0.098c8.573,-2.965 15.19,-6.636 19.689,-10.686c-2.673,-0 -3.917,-0.203 -6.221,-0.697c-2.488,-0.528 -4.352,-1.384 -5.33,-2.502l-3.075,-3.515l-1.825,-1.37c-0.847,-0.638 -1.108,-1.181 -1.429,-1.861c-0.918,-0.593 -1.88,-1.316 -2.358,-2.007c-1.01,-0.586 -1.716,-1.278 -1.988,-2.031c-1.25,-1.07 -2.374,-1.844 -2.374,-3.112l-0,-0.964c-0,-2.211 3.672,-4.055 8.557,-4.47c2.569,-1.636 7.29,-2.374 11.702,-1.846l-0,-0.434c-0,-0.861 0.934,-2.22 1.961,-2.989Z" style="fill:#e87a69;"/><path d="M2122.57,295.515c28.876,-5.911 45.707,-8.22 62.646,-7.275c49.075,20.592 2.054,50.962 -51.384,45.271c-36.916,-3.936 -40.474,-12.753 -14.038,-19.701c16.087,-4.397 2.097,-11.708 2.776,-18.295Z" style="fill:#f9b4ab;"/><path d="M2134.25,211.976c84.274,-24.99 123.184,-53.845 116.74,-86.568c-65.476,4.529 -104.973,1.314 -141.536,21.857l-95.406,53.347c-19.422,10.856 -20.204,21.646 -5.595,30.513l99.513,60.576l15.483,9.307c6.085,-0.356 11.974,-1.176 17.391,-2.42c10.349,-20.375 8.66,-41.536 -4.933,-61.56l-15.185,-9.688c-7.742,-4.547 -1.201,-7.035 13.528,-15.364Z" style="fill:#8684bf;"/><path d="M2262.03,138.505c-23.231,0.858 -49.118,7.656 -52.302,17.926c-45.179,55.166 -46.434,124.841 -3.754,209.025c32.765,7.804 69.057,12.231 106.19,12.946c-20.639,-99.541 4.026,-171.395 74.001,-215.566l-6.552,-18.141c0.728,-4.826 -1.793,-8.794 -7.563,-11.904c-1.021,0.765 -2.499,1.389 -4.27,1.799c0.625,0.159 1.038,0.243 1.038,0.243c-39.932,56.574 -153.581,41.826 -106.788,3.672Z" style="fill:#fff;"/><path d="M2244.2,142.222c-59.076,34.276 -65.031,75.362 -20.318,130.345c5.487,41.062 5.959,68.786 7.687,97.334c0.299,7.889 -35.667,7.369 -53.383,2.452c-24.719,-6.155 -36.862,-15.3 -36.449,-27.439c-5.9,-53.447 -10.54,-112.868 -13.908,-178.269c-1.07,-18.519 48.792,-29.28 119.577,-41.237c24.132,4.057 17.102,6.366 -3.206,16.814Z" style="fill:#625faa;"/><path d="M2327.17,388.322c115.898,7.854 159.35,0.661 156.405,-22.183c-5.78,-30.988 3.227,-83.731 27.023,-158.224c11.235,-30.353 -39.643,-50.082 -129.703,-76.024c-0,-0 -0.114,24.835 -27.001,43.928c-41.763,24.821 -68.329,57.177 -79.727,97.065c-1.212,34.743 7.812,74.734 11.729,104.02c0.196,7.216 18.059,9.857 41.274,11.418Z" style="fill:#625faa;"/><path d="M2213.21,273.074c3.379,1.029 8.03,0.788 10.746,-0.555c-35.205,-68.591 -11.48,-112.406 43.751,-136.87c3.672,-6.094 0.288,-8.58 -10.171,-7.459c-55.746,11.058 -88.821,27.721 -99.236,49.986c20.411,5.145 30.609,7.717 30.609,7.717c-22.813,6.685 -34.211,10.028 -34.211,10.028c4.108,24.814 23.611,50.531 58.512,77.153Z" style="fill:#8684bf;"/><path d="M2333.16,381.847c105.435,7.299 144.97,0.618 142.291,-20.61c-5.259,-28.796 2.934,-77.809 24.578,-147.033c4.162,-11.497 -1.059,-21.351 -14.25,-30.625c-14.066,3.961 -28.707,7.572 -43.859,10.807c7.991,13.951 12.234,28.533 12.234,43.54c0,55.964 -58.886,106.028 -151.527,139.459c6.732,2.338 17.733,3.585 30.533,4.462Z" style="fill:#343486;"/><path d="M2270.69,272.353c2.206,0.643 4.993,0.802 7.525,0.431c2.526,-0.369 4.493,-1.229 5.318,-2.319c14.675,-29.059 48.977,-54.207 102.893,-75.448c-0,0 -11.279,-3.404 -33.841,-10.212c-0,0 18.384,-0.963 55.138,-2.892c10.534,-20.467 -4.662,-41.807 -40.073,-56.266c-2.89,-0.234 -5.846,0.238 -7.666,1.229c-1.82,0.993 -2.205,2.336 -0.989,3.484c17.331,9.604 21.466,22.909 -2.178,32.271c-57.469,23.782 -86.181,60.355 -86.127,109.722Z" style="fill:#8684bf;"/><path d="M2478,346.968c-18.179,-11.285 -30.098,-16.879 -45.892,-19.671c-66.481,7.396 -60.961,43.765 -7.991,50.227c36.59,4.453 49.911,-2.435 35.042,-14.098c-8.845,-7.242 11.783,-10.602 18.841,-16.458Z" style="fill:#f9b4ab;"/><path d="M2421.98,319.831c7.09,14.114 31.809,25.393 64.238,29.311c0,0 51.911,-16.222 155.727,-48.671c50.998,-15.631 30.217,-41.785 -112.628,-120.512c-59.859,-29.497 -85.627,-21.751 -94.124,21.485c-1.679,9.609 4.281,17.222 24.855,27.243l70.621,33.019c9.416,5.169 15.897,8.623 5.922,12.575c-76.407,30.365 -114.611,45.55 -114.611,45.55Z" style="fill:#8684bf;"/><path d="M2386.67,122.045c18.471,-7.861 30.668,-17.789 35.02,-28.495c-54.263,-18.828 -141.004,-19.575 -190.649,1.234c-9.361,49.275 78.456,76.249 155.629,27.261Z" style="fill:#f9b4ab;"/><path d="M2345.3,94.891c-10.888,-2.09 -26.29,-1.716 -46.239,1.124c-34.732,4.918 -73.74,0.872 -97.356,-10.087c-23.622,-10.961 -26.719,-26.46 -7.737,-38.682c12.545,-8.073 31.679,-12.861 55.779,-15.537c97.715,-10.812 172.33,-1.916 198.255,18.481l-0.212,0.556c-1.934,3.788 -2.999,7.714 -3.064,11.741c-0.413,1.431 -0.69,2.88 -0.842,4.341c-0.826,2.269 -1.347,4.583 -1.521,6.931c-0.304,0.448 -0.603,0.757 -1.032,1.186c-1.239,0.355 -2.461,0.721 -3.673,1.092c-1.559,0.417 -3.091,0.856 -4.672,1.266c-3.151,0.641 -6.243,1.314 -9.285,2.047c-3.922,0.68 -7.785,1.444 -11.566,2.294c-4.086,0.861 -8.095,1.82 -12.018,2.878l-5.824,1.247c-5.851,0.728 -11.327,1.658 -16.988,2.594c-8.166,1.174 -16.125,2.698 -23.736,4.575c-2.82,0.61 -5.574,1.261 -8.269,1.953Z" style="fill:#343486;"/><path d="M2440.37,94.823c-38.22,30.939 -65.329,31.264 -45.706,21.366c29.098,-15.594 -4.574,-26.093 -21.911,-8.382c-3.004,3.158 -7.247,2.633 -8.241,-0.255c-2.7,-8.279 -12.115,-12.905 -28.262,-13.876c12.083,-1.389 23.883,-3.541 35.042,-6.487c11.648,-2.606 22.584,-6.008 32.385,-10.2l2.336,-1.001c10.301,-4.414 18.901,-9.553 25.372,-15.221c5.329,-4.44 9.322,-9.221 11.762,-14.242c20.085,11.991 21.329,28.776 -2.777,48.298Z" style="fill:#292664;"/><path d="M912.815,1193.77c45.533,-2.804 77.233,-17.148 121.706,-40.175c48.298,-14.89 95.053,15.203 18.885,38.251c-12.316,3.177 -20.504,7.479 -24.557,12.919c-12.142,7.763 -31.901,12.724 -53.643,13.469c-21.743,0.747 -43.088,-2.805 -57.963,-9.645c-4.031,-4.734 -5.542,-9.799 -4.428,-14.819Z" style="fill:#0f102a;"/><path d="M1211.96,1230.59c73.876,-14.296 110.813,-21.444 110.813,-21.444c106.598,-7.798 136.169,6.078 123.081,18.858c-12.077,12.278 -56.105,18.412 -137.744,16.397c0,0 0.641,2.462 1.913,7.382c-24.828,5.33 -52.829,7.334 -80.352,5.735c-13.196,-7.783 -19.471,-17.336 -17.711,-26.928Z" style="fill:#1a1349;"/><path d="M940.479,922.759c35.813,-9.32 63.157,-9.205 82.025,0.34c-0,-0 -8.361,13.61 -25.073,40.834c-39.714,-6.025 -63.683,-23.356 -56.952,-41.174Z" style="fill:#f9b4ab;"/><path d="M1157.16,955.6c31.434,-18.465 22.525,-44.321 -20.025,-58.106c-42.545,-13.781 -103.018,-10.407 -135.903,7.586c-62.548,193.718 -93.819,290.574 -93.819,290.574c20.645,9.917 68.274,12.883 116.626,-5.36c88.751,-156.463 133.121,-234.694 133.121,-234.694Z" style="fill:#181746;"/><path d="M1124.26,921.305c70.024,-14.562 135.94,-16.559 197.766,-5.987c-0,0 0.228,99.823 0.684,299.475c-26.881,15.12 -79.004,25.191 -110.829,15.948c-0,-0 -29.207,-103.147 -87.621,-309.436Z" style="fill:#292664;"/><path d="M1001.28,924.287c52.981,-72.871 10.736,-152.32 -110.677,-208.162c16.352,81.452 24.491,148.803 24.415,202.06c26.186,6.317 56.735,8.477 86.262,6.102Z" style="fill:#8684bf;"/><path d="M1235.04,721.113c-0.723,52.609 29.554,104.172 90.809,154.689c26.007,50.701 18.054,59.944 -36.106,62.255c-82.775,4.689 -166.707,4.128 -249.106,-1.667c-38.476,-2.875 -58.947,-21.535 -62.353,-59.982c-4.346,-28.255 -32.836,-80.501 -85.469,-156.728c-15.212,-29.848 14.131,-43.113 88.028,-39.797c80.862,15.637 142.242,21.618 184.14,17.933c28.028,2.84 51.384,10.602 70.057,23.297Z" style="fill:#625faa;"/><path d="M1377.78,942.377l394.385,-96.998c3.657,-0.902 6.987,-0.854 9.377,-0.054c46.967,11.693 67.65,16.776 62.038,15.245c-25.958,12.682 -45.381,20.318 -58.267,22.921l-0,69.792c-0,4.122 -5.917,8.948 -13.148,10.727l-318.657,78.37c4.873,4.151 -3.015,15.33 -23.654,33.541c-0,-0 -19.749,-4.79 -59.251,-14.373l0.006,-0.003c-3.592,-0.455 -5.971,-2.183 -5.971,-4.795l-0,-103.65c-0,-4.119 5.911,-8.945 13.142,-10.723Z" style="fill:#f29c5c;"/><path d="M1441.66,957.863l394.386,-96.995c7.231,-1.779 13.152,0.136 13.152,4.255l0,103.65c0,4.119 -5.921,8.947 -13.152,10.723l-394.386,96.998c-7.226,1.779 -13.147,-0.136 -13.147,-4.255l-0,-103.649c-0,-4.122 5.921,-8.945 13.147,-10.727Z" style="fill:#d1582b;"/><path d="M1507.86,940.007l32.83,-8.046c4.808,-1.179 8.742,0.091 8.742,2.827l-0,55.384c-0,2.737 -3.934,5.937 -8.742,7.113l-32.83,8.049c-4.808,1.176 -8.736,-0.095 -8.736,-2.828l-0,-55.387c-0,-2.733 3.928,-5.933 8.736,-7.112Z" style="fill:#663434;"/><path d="M1751.6,880.755l32.836,-8.046c4.808,-1.179 8.741,0.094 8.741,2.828l0,55.383c0,2.737 -3.933,5.937 -8.741,7.113l-32.836,8.049c-4.808,1.176 -8.742,-0.094 -8.742,-2.831l0,-55.384c0,-2.73 3.934,-5.93 8.742,-7.112Z" style="fill:#663434;"/><path d="M1534.48,885.447l102.664,-25.252c0.956,-0.234 1.825,-0.222 2.45,-0.012c12.218,3.043 17.602,4.364 16.146,3.968c-6.758,3.301 -11.811,5.287 -15.168,5.963l-0,18.173c-0,1.073 -1.543,2.325 -3.428,2.789l-82.949,20.404c1.266,1.079 -0.782,3.989 -6.155,8.732c-0,-0 -5.145,-1.25 -15.429,-3.741l-0,-0.003c-0.929,-0.118 -1.554,-0.567 -1.554,-1.25l-0,-26.981c-0,-1.073 1.543,-2.329 3.423,-2.79Z" style="fill:#dc6c31;"/><path d="M1551.29,889.407l102.669,-25.25c1.88,-0.464 3.423,0.036 3.423,1.108l0,26.982c0,1.072 -1.543,2.328 -3.423,2.795l-102.669,25.247c-1.885,0.464 -3.418,-0.036 -3.418,-1.108l0,-26.982c0,-1.069 1.533,-2.328 3.418,-2.792Z" style="fill:#663434;"/><path d="M1225.81,748.017c6.134,41.555 33.521,82.395 82.166,122.511c23.91,46.617 16.603,55.115 -33.2,57.24c-20.329,1.155 -40.74,1.962 -61.179,2.423l-80.096,-190.976c-11.219,-35.787 94.363,8.802 76.94,8.802l15.369,0Z" style="fill:#343486;"/><path d="M1136.54,691.389c-20.253,5.975 -45.353,8.12 -69.404,5.931c-24.051,-2.187 -44.946,-8.516 -57.789,-17.502c-9.882,-0.074 -19.77,-0.092 -29.652,-0.05c7.676,17.239 38.448,30.89 78.379,34.782c39.937,3.889 81.455,-2.725 105.761,-16.849c-8.144,-2.787 -17.391,-4.923 -27.295,-6.312Z" style="fill:#8684bf;"/><path d="M1145.98,669.626c-41.355,6.176 -86.393,6.126 -127.677,-0.144c-0,-0 -3.341,4.296 -10.029,12.895c7.954,10.626 28.039,18.305 53.975,20.634c25.942,2.328 54.562,-0.978 76.902,-8.883c-8.052,-10.962 -5.781,-19.127 6.829,-24.502Z" style="fill:#f9b4ab;"/><path d="M1143.35,600.682c-36.334,5.7 -61.478,20.011 -64.221,36.553c-2.744,16.538 17.423,32.229 51.514,40.074c50.601,-7.018 86.338,-37.285 12.707,-76.627Z" style="fill:#f9b4ab;"/><path d="M1081.49,685.982c52.362,-1.037 70.518,-16.82 39.388,-22.331c-50.221,-8.516 -19.879,-33.573 23.073,-21.34c8.639,2.352 11.062,-1.179 6.281,-4.722c-11.925,-8.785 -13.849,-19.044 -5.781,-30.784c32.499,-48.029 -58.196,-65.029 -166.272,-14.843c-35.432,16.861 -43.804,41.189 -21.247,61.72c22.557,20.533 71.648,33.263 124.558,32.3Z" style="fill:#343486;"/><path d="M1540.07,852.775c-3.765,14.831 -5.645,22.241 -5.645,22.241c16.407,6.684 26.132,11.424 29.169,14.219c1.369,5.798 6.742,7.184 16.462,5.816c60.701,-7.958 79.889,-23.708 47.455,-36.189c-24.763,-8.336 -57.783,-10.638 -87.441,-6.087Z" style="fill:#f9b4ab;"/><path d="M1544.21,844.664c9.214,6.335 11.121,14.136 5.178,21.157c-5.938,7.021 -19.07,12.481 -35.623,14.819c-0,-0 -56.768,-1.188 -170.309,-3.561c-38.095,-1.51 -73.951,-10.78 -95.085,-29.333c-0,-0 -28.588,-25.36 -85.768,-76.075c-65.45,-59.411 81.818,-75.202 129.823,-20.468c41.094,48.611 61.635,72.915 61.635,72.915c4.77,6.114 14.506,10.141 28.522,11.034c107.75,6.341 161.627,9.512 161.627,9.512Z" style="fill:#8684bf;"/><path d="M99.664,720.764l550.8,-132.321c6.313,-1.513 12.12,-1.625 16.64,-0.585l0.055,0.015c0.429,0.097 0.842,0.207 1.244,0.325l44.761,11.769c-1.961,6.016 -10.246,11.264 -24.317,11.965c-4.254,0.209 -8.443,0.041 -12.36,-0.455l-0,341.602c-0,8.061 -11.708,17.467 -26.023,20.906l-513.105,123.265c3.612,1.48 6.463,3.336 8.184,5.478c5.074,6.315 -1.108,13.279 -14.697,16.55c5.016,1.239 -10.993,-2.907 -48.024,-12.437c-5.608,-1.347 -9.175,-4.491 -9.175,-8.944l0,-356.23c0,-8.061 11.707,-17.466 26.017,-20.903Z" style="fill:#343486;"/><path d="M148.419,733.37l550.793,-132.315c14.321,-3.44 26.024,0.342 26.024,8.403l-0,356.23c-0,8.061 -11.703,17.469 -26.024,20.906l-550.793,132.318c-14.316,3.434 -26.022,-0.346 -26.022,-8.407l-0,-356.229c-0,-8.061 11.706,-17.467 26.022,-20.906Z" style="fill:#6170b5;"/><path d="M189.799,746.147l466.108,-111.971c12.116,-2.91 22.025,0.293 22.025,7.113l0,314.822c0,6.82 -9.909,14.784 -22.025,17.694l-466.108,111.968c-12.109,2.913 -22.016,-0.29 -22.016,-7.11l-0,-314.825c-0,-6.823 9.907,-14.784 22.016,-17.691Z" style="fill:#fff;"/><path d="M284.014,670.176l65.934,-15.841c1.709,-14.834 29.539,-32.989 63.622,-41.177c34.083,-8.185 61.911,-3.404 63.621,10.611l63.988,-15.371c1.709,-0.414 3.239,-0.426 4.207,-0.113l0.028,0.009c11.099,3.416 16.813,5.136 17.128,5.165c-7.278,4.125 -12.633,6.469 -16.076,7.03l-0,36.907c-0,1.247 -2.379,2.84 -5.287,3.537l-239.276,57.482c-0.096,1.986 -1.704,5.189 -4.838,9.618c-4.281,-1.146 -9.777,-2.828 -16.488,-5.044c-1.135,-0.145 -1.851,-0.588 -1.851,-1.273l0,-48.003c0,-1.247 2.375,-2.837 5.288,-3.537Z" style="fill:#d1582b;"/><path d="M300.83,675.397l65.935,-15.838c1.709,-14.837 29.537,-32.992 63.621,-41.177c34.082,-8.191 61.911,-3.404 63.621,10.608l63.986,-15.368c2.91,-0.7 5.288,-0.251 5.288,0.993l0,48.002c0,1.247 -2.378,2.84 -5.288,3.54l-257.163,61.776c-2.908,0.7 -5.294,0.251 -5.294,-0.996l0,-48.003c0,-1.247 2.386,-2.836 5.294,-3.537Z" style="fill:#fed33f;"/><path d="M429.468,631.576c18.265,-4.385 33.069,-1.599 33.069,6.229c0,7.827 -14.804,17.726 -33.069,22.114c-18.267,4.388 -33.071,1.599 -33.071,-6.226c-0,-7.827 14.804,-17.729 33.071,-22.117Z" style="fill:#fff;"/><path d="M232.243,774.461l211.425,-50.789c5.867,-1.413 10.671,0.139 10.671,3.442l0,0.003c0,3.307 -4.804,7.163 -10.671,8.572l-211.425,50.792c-5.867,1.41 -10.67,-0.144 -10.67,-3.448c-0,-3.307 4.803,-7.163 10.67,-8.572Z" style="fill:#808181;"/><path d="M232.243,797.341l386.89,-92.941c5.862,-1.41 10.67,0.142 10.67,3.445c-0,3.307 -4.808,7.166 -10.67,8.575l-386.89,92.938c-5.867,1.413 -10.67,-0.136 -10.67,-3.442l-0,-0.003c-0,-3.304 4.803,-7.16 10.67,-8.572Z" style="fill:#b4b3b4;"/><path d="M232.243,821.654l386.89,-92.941c5.862,-1.41 10.67,0.142 10.67,3.445l-0,0.003c-0,3.304 -4.808,7.163 -10.67,8.572l-386.89,92.941c-5.867,1.41 -10.67,-0.142 -10.67,-3.442l-0,-0.003c-0,-3.31 4.803,-7.166 10.67,-8.575Z" style="fill:#b4b3b4;"/><path d="M232.243,889.723l211.425,-50.789c5.867,-1.412 10.671,0.139 10.671,3.442l0,0.003c0,3.307 -4.804,7.163 -10.671,8.573l-211.425,50.789c-5.867,1.409 -10.67,-0.142 -10.67,-3.446c-0,-3.306 4.803,-7.162 10.67,-8.572Z" style="fill:#808181;"/><path d="M232.243,912.603l386.89,-92.941c5.862,-1.409 10.67,0.142 10.67,3.445c-0,3.31 -4.808,7.166 -10.67,8.576l-386.89,92.941c-5.867,1.409 -10.67,-0.142 -10.67,-3.446l-0,-0.003c-0,-3.303 4.803,-7.16 10.67,-8.572Z" style="fill:#b4b3b4;"/><path d="M232.243,936.919l386.89,-92.944c5.862,-1.409 10.67,0.139 10.67,3.446l-0,0.002c-0,3.304 -4.808,7.163 -10.67,8.573l-386.89,92.941c-5.867,1.409 -10.67,-0.142 -10.67,-3.446l-0,-0.003c-0,-3.303 4.803,-7.163 10.67,-8.569Z" style="fill:#b4b3b4;"/><path d="M232.243,1005.38l126.123,-30.299c5.867,-1.41 10.666,0.141 10.666,3.445l-0,0.003c-0,3.307 -4.799,7.163 -10.666,8.569l-126.123,30.303c-5.867,1.409 -10.67,-0.145 -10.67,-3.446l-0,-0.003c-0,-3.306 4.803,-7.162 10.67,-8.572Z" style="fill:#808181;"/><path d="M232.243,1028.17l95.05,-22.832c5.873,-1.413 10.671,0.142 10.671,3.445l0,0.003c0,3.307 -4.798,7.16 -10.671,8.57l-95.05,22.835c-5.867,1.41 -10.67,-0.142 -10.67,-3.448l-0,-0.003c-0,-3.301 4.803,-7.16 10.67,-8.57Z" style="fill:#b4b3b4;"/><path d="M232.243,845.786l386.89,-92.94c5.862,-1.41 10.67,0.141 10.67,3.445l-0,0.003c-0,3.304 -4.808,7.16 -10.67,8.572l-386.89,92.941c-5.867,1.412 -10.67,-0.142 -10.67,-3.445l-0,-0.003c-0,-3.304 4.803,-7.163 10.67,-8.573Z" style="fill:#b4b3b4;"/><path d="M232.243,961.589l386.89,-92.943c5.862,-1.407 10.67,0.144 10.67,3.445l-0,0.003c-0,3.307 -4.808,7.163 -10.67,8.572l-386.89,92.944c-5.867,1.41 -10.67,-0.142 -10.67,-3.448l-0,-0.003c-0,-3.301 4.803,-7.16 10.67,-8.57Z" style="fill:#b4b3b4;"/><path d="M1672.43,273.265l-276.639,67.778c-17.782,4.358 -33.124,14.352 -39.611,24.756l-0.044,0.062l-0.065,0.098c-0.19,0.319 -0.38,0.638 -0.559,0.96l-0.017,0.021l-0.076,0.139c-0.168,0.31 -0.331,0.62 -0.483,0.928l-0.006,0.014l-0.011,0.018l-0.239,0.482l-0.016,0.038l-0.201,0.443l-0.038,0.101c-1.016,2.313 -1.554,4.624 -1.554,6.873l0,144.776c0,7.399 5.868,12.617 15.076,14.845c-1.151,-0.28 17.874,4.32 57.089,13.806c10.376,-4.353 13.185,-11.04 7.008,-16.669c-2.086,-1.906 -5.047,-3.546 -8.611,-4.861l248.997,-61.01c5.205,-1.273 10.203,-3.035 14.821,-5.144l0.006,-0l0.097,-0.045l0.348,-0.159l0.315,-0.148l0.033,-0.015l0.347,-0.162l0.348,-0.166l0.027,-0.015l0.31,-0.15l0.342,-0.166l0.674,-0.337l0.674,-0.342l0.668,-0.349l0.288,-0.154l0.043,-0.02l0.984,-0.535l0.32,-0.18l0.082,-0.048l0.239,-0.133l0.315,-0.183l0.152,-0.083l0.168,-0.097l0.321,-0.186l0.31,-0.186l0.315,-0.19c12.213,-7.304 20.378,-17.005 20.378,-25.734l0,-137.46c3.51,0.417 7.22,0.591 10.985,0.487c13.083,-0.366 24.41,-4.019 28.86,-9.303c-0.278,-0.057 -18.054,-4.365 -53.335,-12.926c-1.015,-0.296 -2.08,-0.554 -3.189,-0.771l-0.038,-0.01l0,0.003c-7.263,-1.423 -16.363,-1.107 -26.208,1.309Z" style="fill:#d1582b;"/><path d="M1726.22,286.592l-276.64,67.781c-17.782,4.358 -33.118,14.352 -39.611,24.753l-0.038,0.062l-0.005,0.012l-0.158,0.248l-0.092,0.16l-0.076,0.118l-0.022,0.038l-0.271,0.482l-0.011,0.02l-0.082,0.139l-0.168,0.308l-0.006,0.014l-0.043,0.08l-0.044,0.083l-0.163,0.319l-0.07,0.142l-0.011,0.018c-0.163,0.319 -0.31,0.641 -0.451,0.963l-0.043,0.097c-1.011,2.32 -1.554,4.628 -1.554,6.874l-0,144.779c-0,13.427 19.319,19.679 42.919,13.894l276.64,-67.786c5.21,-1.271 10.197,-3.032 14.826,-5.142l0,0.003l0.098,-0.047l0.353,-0.16l-0,-0.006c0.467,-0.209 0.924,-0.428 1.374,-0.65l0.343,-0.165l0.337,-0.169l0.342,-0.171l0.331,-0.168l0.343,-0.172c0.44,-0.233 0.88,-0.464 1.32,-0.7l0.331,-0.177l0.321,-0.181l0.614,-0.339l0.038,-0.021l0.315,-0.183l0.32,-0.184l0.31,-0.183l0.32,-0.186l0.316,-0.189l0.271,-0.157l0.038,-0.029c12.039,-7.287 20.064,-16.896 20.064,-25.551l-0,-144.778c-0,-13.428 -19.314,-19.679 -42.925,-13.893Z" style="fill:#fed33f;"/><path d="M1660.92,330.718l-117.729,163.227l-28.718,7.03l117.729,-163.23l28.718,-7.027Zm-87.61,46l0,22.241c0,5.813 -1.276,10.49 -3.824,14.03c-2.543,3.517 -8.025,7.396 -16.424,11.607c-8.41,4.214 -19.482,8.017 -33.298,11.397c-15.918,3.901 -28.017,5.821 -36.362,5.818c-8.339,-0.003 -13.94,-1.114 -16.868,-3.265c-2.929,-2.178 -4.396,-5.936 -4.396,-11.341l0,-23.273c0,-6.385 1.532,-11.506 4.586,-15.312c3.053,-3.83 8.915,-7.748 17.64,-11.793c8.655,-4.057 19.417,-7.647 32.217,-10.777c14.196,-3.478 25.724,-5.236 34.504,-5.286c8.855,-0.062 14.772,1.025 17.77,3.295c2.994,2.24 4.455,6.468 4.455,12.659Zm-47.754,5.96c-0,-3.41 -0.38,-5.417 -1.212,-6.034c-0.766,-0.606 -2.999,-0.467 -6.568,0.405c-3.303,0.809 -5.395,1.764 -6.416,2.86c-0.962,1.075 -1.467,3.301 -1.467,6.601l-0,32.747c-0,3.737 0.44,5.868 1.277,6.429c0.885,0.518 3.113,0.355 6.807,-0.549c3.243,-0.798 5.286,-1.732 6.172,-2.796c0.95,-1.078 1.407,-3.209 1.407,-6.373l-0,-33.29Zm187.568,22.33l0,22.292c0,5.756 -1.271,10.407 -3.819,13.977c-2.548,3.545 -8.013,7.419 -16.423,11.636c-8.405,4.214 -19.483,8.014 -33.298,11.394c-15.788,3.868 -27.892,5.792 -36.297,5.777c-8.339,-0.035 -14.006,-1.129 -16.929,-3.307c-2.933,-2.145 -4.4,-5.88 -4.4,-11.228l-0,-23.332c-0,-6.33 1.532,-11.424 4.585,-15.224c3.053,-3.809 8.915,-7.751 17.64,-11.825c8.66,-4.055 19.423,-7.671 32.212,-10.804c14.326,-3.507 25.914,-5.277 34.71,-5.301c8.839,-0.041 14.696,1.094 17.635,3.348c2.923,2.287 4.384,6.483 4.384,12.597Zm-47.743,6.066c-0,-3.41 -0.392,-5.443 -1.212,-6.06c-0.831,-0.641 -2.993,-0.523 -6.628,0.366c-3.368,0.825 -5.471,1.776 -6.427,2.858c-0.956,1.078 -1.396,3.315 -1.396,6.669l-0,32.743c-0,3.685 0.44,5.786 1.271,6.35c0.886,0.518 3.118,0.355 6.748,-0.537c3.373,-0.825 5.476,-1.747 6.367,-2.813c0.831,-1.02 1.277,-3.147 1.277,-6.368l-0,-33.208Z" style="fill:#fff;fill-rule:nonzero;"/></g></svg>