<?xml version="1.0" encoding="UTF-8" standalone="no"?><!DOCTYPE svg PUBLIC "-//W3C//DTD SVG 1.1//EN" "http://www.w3.org/Graphics/SVG/1.1/DTD/svg11.dtd"><svg width="100%" height="100%" viewBox="0 0 3209 1542" version="1.1" xmlns="http://www.w3.org/2000/svg" xmlns:xlink="http://www.w3.org/1999/xlink" xml:space="preserve" xmlns:serif="http://www.serif.com/" style="fill-rule:evenodd;clip-rule:evenodd;stroke-linejoin:round;stroke-miterlimit:2;"><g><path d="M3104.12,1491.96l-911.939,2.527c-20.323,0.056 -36.849,-11.615 -36.928,-26.034l-1.956,-356.631c-0.075,-14.437 16.333,-26.18 36.632,-26.233l911.939,-2.531c20.323,-0.052 36.869,11.588 36.948,26.038l1.955,356.618c0.076,14.435 -16.332,26.19 -36.651,26.246Z" style="fill:#dbd0ba;fill-rule:nonzero;"/><path d="M3139.43,1251.81l-985.516,2.723l-0.608,-108.416l985.535,-2.738l0.589,108.431Z" style="fill:#787266;fill-rule:nonzero;"/><path d="M2272.39,615.629c55.41,3.532 104.445,-7.357 147.14,-32.679c42.675,-25.321 66.497,-57.67 71.486,-97.035c4.969,-39.368 -10.365,-74.218 -46.001,-104.529c-35.656,-30.323 -81.187,-47.243 -136.617,-50.776c-55.429,-3.534 -104.46,7.363 -147.139,32.678c-42.676,25.328 -66.498,57.671 -71.467,97.033c-4.968,39.371 10.346,74.205 46.001,104.529c35.656,30.318 81.188,47.246 136.597,50.779Zm471.228,147.919l-134.057,79.553c-4.83,2.862 -10.815,4.466 -17.913,4.81c-7.138,0.335 -13.125,-0.968 -17.956,-3.93l-110.231,-69.335c-28.124,7.462 -53.024,12.763 -74.635,15.88c-8.373,21.956 -18.15,53.741 -29.359,95.351c-1.486,5.72 -4.831,10.152 -10.053,13.247c-5.242,3.111 -11.403,4.572 -18.443,4.383c-23.979,1.122 -62.353,-0.131 -115.16,-3.778c-52.811,-3.623 -82.89,-8.588 -90.304,-14.875c-4.028,-3.434 -6.588,-8.229 -7.666,-14.379l-4.381,-97.913c-24.075,-7.084 -47.02,-15.564 -68.867,-25.421c-60.122,27.905 -102.446,45.978 -126.952,54.206c-13.634,4.687 -25.33,2.882 -35.071,-5.412l-111.973,-95.237c-4.712,-4.004 -7.118,-8.532 -7.236,-13.563c-0.095,-5.034 2.29,-9.249 7.2,-12.632l96.988,-77.943c-10.053,-17.837 -17.72,-35.131 -23.057,-51.88l-135.759,-22.142c-6.98,-0.716 -12.984,-3.21 -18.031,-7.496c-4.713,-4.014 -6.708,-8.899 -5.965,-14.674c3.539,-63.275 9.583,-106.936 18.229,-130.985c1.663,-4.392 5.123,-8.139 10.365,-11.253c4.831,-2.862 10.775,-4.463 17.917,-4.804c13.493,-0.726 35.458,-1.37 65.892,-1.95c30.431,-0.573 53.688,-1.268 69.804,-2.097c11.052,-19.661 24.095,-37.352 39.116,-53.06l-76.004,-88.185c-3.559,-4.196 -4.575,-8.697 -3.05,-13.494c1.545,-4.797 4.929,-8.74 10.171,-11.851l134.073,-79.546c4.831,-2.869 10.776,-4.475 17.917,-4.817c7.118,-0.335 12.928,0.831 17.424,3.497l110.76,69.77c23.198,-6.986 48.292,-12.397 75.223,-16.24c9.507,-25.061 19.267,-56.846 29.359,-95.358c1.486,-5.728 4.634,-10.016 9.465,-12.893c4.009,-2.379 10.171,-3.843 18.426,-4.376c23.234,-1.165 61.433,0.081 114.611,3.738c53.162,3.662 83.439,8.634 90.83,14.919c4.383,3.72 6.75,8.641 7.101,14.739l4.986,97.541c24.039,7.092 47,15.564 68.847,25.426c60.122,-27.906 102.449,-45.98 126.955,-54.206c13.631,-4.681 25.327,-2.883 35.087,5.418l111.954,95.24c4.732,4.004 7.121,8.523 7.236,13.556c0.118,5.041 -2.287,9.248 -7.177,12.639l-96.991,77.939c10.013,17.841 17.7,35.135 23.04,51.868l136.245,22.582c6.648,0.428 12.498,2.786 17.542,7.081c4.384,3.713 6.553,8.486 6.573,14.299c-4.539,65.331 -11.012,109.231 -19.442,131.711c-0.88,3.911 -4.108,7.546 -9.74,10.892c-4.851,2.863 -10.835,4.464 -17.933,4.798c-13.497,0.729 -35.479,1.387 -65.893,1.951c-30.415,0.577 -53.688,1.278 -69.807,2.097c-11.4,19.382 -24.233,36.946 -38.509,52.705l75.397,88.547c3.559,4.196 4.578,8.69 3.033,13.491c-1.524,4.792 -4.909,8.753 -10.151,11.851Z" style="fill:#b7b7a8;fill-rule:nonzero;"/><path d="M1300.26,1036.21c37.418,2.382 70.53,-4.968 99.337,-22.064c28.811,-17.096 44.907,-38.937 48.272,-65.518c3.366,-26.577 -7.003,-50.106 -31.058,-70.573c-24.079,-20.47 -54.825,-31.896 -92.239,-34.281c-37.417,-2.385 -70.53,4.971 -99.337,22.064c-28.811,17.099 -44.907,38.937 -48.253,65.511c-3.365,26.584 6.984,50.103 31.059,70.577c24.059,20.467 54.805,31.896 92.219,34.284Zm318.16,99.868l-90.517,53.716c-3.266,1.932 -7.295,3.014 -12.106,3.238c-4.812,0.235 -8.86,-0.655 -12.107,-2.643l-74.421,-46.821c-18.991,5.043 -35.794,8.613 -50.385,10.725c-5.652,14.826 -12.261,36.279 -19.829,64.373c-0.999,3.874 -3.267,6.864 -6.79,8.948c-3.539,2.097 -7.706,3.083 -12.458,2.959c-16.195,0.763 -42.09,-0.084 -77.743,-2.543c-35.656,-2.46 -55.978,-5.809 -60.967,-10.046c-2.718,-2.32 -4.459,-5.558 -5.182,-9.711l-2.951,-66.107c-16.254,-4.779 -31.746,-10.505 -46.511,-17.161c-40.585,18.842 -69.159,31.041 -85.706,36.599c-9.214,3.166 -17.095,1.944 -23.667,-3.657l-75.617,-64.299c-3.182,-2.711 -4.808,-5.766 -4.881,-9.159c-0.069,-3.402 1.545,-6.249 4.854,-8.529l65.492,-52.624c-6.786,-12.047 -11.968,-23.721 -15.57,-35.029l-91.654,-14.95c-4.722,-0.484 -8.778,-2.168 -12.182,-5.062c-3.181,-2.707 -4.522,-6.007 -4.029,-9.906c2.389,-42.721 6.48,-72.198 12.313,-88.438c1.118,-2.962 3.464,-5.496 6.997,-7.596c3.266,-1.932 7.282,-3.015 12.103,-3.244c9.106,-0.49 23.928,-0.924 44.477,-1.318c20.555,-0.385 36.26,-0.856 47.134,-1.415c7.473,-13.274 16.274,-25.218 26.402,-35.823l-51.298,-59.54c-2.426,-2.832 -3.109,-5.872 -2.074,-9.11c1.035,-3.238 3.326,-5.899 6.865,-8.002l90.517,-53.707c3.267,-1.938 7.296,-3.02 12.107,-3.253c4.811,-0.223 8.725,0.561 11.774,2.36l74.773,47.107c15.665,-4.715 32.603,-8.368 50.792,-10.964c6.415,-16.919 13.007,-38.379 19.813,-64.379c0.999,-3.871 3.132,-6.765 6.399,-8.707c2.698,-1.606 6.865,-2.596 12.438,-2.955c15.685,-0.785 41.463,0.055 77.392,2.524c35.869,2.472 56.33,5.828 61.318,10.071c2.951,2.512 4.555,5.834 4.791,9.953l3.362,65.856c16.234,4.788 31.726,10.511 46.491,17.167c40.586,-18.842 69.16,-31.044 85.706,-36.596c9.215,-3.163 17.095,-1.947 23.687,3.657l75.594,64.302c3.188,2.704 4.811,5.753 4.887,9.153c0.079,3.402 -1.544,6.243 -4.847,8.532l-65.482,52.621c6.766,12.047 11.949,23.721 15.567,35.02l91.982,15.247c4.479,0.289 8.433,1.88 11.834,4.78c2.955,2.509 4.44,5.728 4.44,9.655c-3.05,44.11 -7.43,73.749 -13.122,88.928c-0.608,2.639 -2.777,5.093 -6.592,7.354c-3.267,1.932 -7.296,3.011 -12.087,3.238c-9.136,0.493 -23.96,0.937 -44.496,1.318c-20.536,0.388 -36.261,0.862 -47.135,1.414c-7.687,13.086 -16.372,24.949 -25.995,35.591l50.911,59.77c2.406,2.835 3.089,5.878 2.054,9.116c-1.038,3.238 -3.326,5.905 -6.865,8.002Z" style="fill:#b7b7a8;fill-rule:nonzero;"/><path d="M2133.64,203.237l-815.888,-0c-40.506,-0 -73.346,23.324 -73.346,52.091l0,1177.03c0,28.776 32.84,52.091 73.346,52.091l815.888,-0c40.487,-0 73.324,-23.315 73.324,-52.091l-0,-1177.03c-0,-28.767 -32.837,-52.091 -73.324,-52.091Z" style="fill:#fff;fill-rule:nonzero;"/><rect x="1308.26" y="261.747" width="833.88" height="1164.14" style="fill:#ffce48;fill-rule:nonzero;"/><rect x="1308.26" y="1273.79" width="833.88" height="152.141" style="fill:#e6bc20;fill-rule:nonzero;"/><path d="M1840.69,240.91l-230.985,-0c-5.143,-0 -9.35,-2.993 -9.35,-6.653c0,-3.658 4.207,-6.651 9.35,-6.651l230.985,0c5.146,0 9.349,2.993 9.349,6.651c0,3.66 -4.203,6.653 -9.349,6.653Z" style="fill:#d9d9d9;fill-rule:nonzero;"/><path d="M1569.88,234.273c-0,7.347 -8.374,13.305 -18.719,13.305c-10.345,0 -18.738,-5.958 -18.738,-13.305c-0,-7.347 8.393,-13.302 18.738,-13.302c10.345,-0 18.719,5.955 18.719,13.302Z" style="fill:#d9d9d9;fill-rule:nonzero;"/><path d="M1519.45,234.333c-0,3.715 -4.246,6.729 -9.468,6.729c-5.242,0 -9.484,-3.014 -9.484,-6.729c-0,-3.715 4.242,-6.727 9.484,-6.727c5.222,0 9.468,3.012 9.468,6.727Z" style="fill:#d9d9d9;fill-rule:nonzero;"/><path d="M1448.34,1350.88l31.801,13.032l0,-26.078l-31.801,13.046Zm36.3,18.563l-45.278,-18.563l45.278,-18.576l0,37.139Z" style="fill:#fff;fill-rule:nonzero;"/><path d="M1706.75,1365.03l46.882,0l-0,-13.476l-23.431,-14.423l-23.451,14.423l0,13.476Zm51.381,3.198l-55.88,-0l0,-18.132l27.95,-17.189l27.93,17.189l-0,18.132Z" style="fill:#fff;fill-rule:nonzero;"/><path d="M1984.19,1336.7c-11.032,0 -20.01,6.377 -20.01,14.215c0,7.822 8.978,14.199 20.01,14.199c11.032,-0 19.987,-6.377 19.987,-14.199c0,-7.838 -8.955,-14.215 -19.987,-14.215Zm0,31.612c-13.516,-0 -24.486,-7.81 -24.486,-17.397c0,-9.599 10.97,-17.409 24.486,-17.409c13.494,-0 24.486,7.81 24.486,17.409c0,9.587 -10.992,17.397 -24.486,17.397Z" style="fill:#fff;fill-rule:nonzero;"/><rect x="2206.97" y="388.178" width="19.129" height="119.395" style="fill:#d9d9d9;fill-rule:nonzero;"/><rect x="1224.7" y="388.178" width="19.126" height="119.395" style="fill:#d9d9d9;fill-rule:nonzero;"/><rect x="2206.97" y="530.652" width="19.129" height="119.395" style="fill:#d9d9d9;fill-rule:nonzero;"/><path d="M3021.68,633.152l-158.053,-84.3c-3.519,-1.877 -4.223,-5.428 -1.584,-7.931l65.328,-61.811c2.639,-2.5 7.647,-3.005 11.167,-1.129l158.053,84.301c3.519,1.879 4.226,5.427 1.584,7.93l-65.325,61.811c-2.642,2.5 -7.647,3.009 -11.17,1.129Z" style="fill:#bcdda1;fill-rule:nonzero;"/><path d="M3072.03,594.944l-170.82,-91.102l19.868,-18.792l170.807,91.102l-19.855,18.792Z" style="fill:#6e688a;fill-rule:nonzero;"/><path d="M2931.34,644.734l-158.053,-84.298c-3.519,-1.879 -4.223,-5.431 -1.584,-7.934l65.328,-61.811c2.639,-2.5 7.647,-3.005 11.167,-1.126l158.053,84.298c3.519,1.876 4.242,5.428 1.584,7.931l-65.325,61.811c-2.642,2.5 -7.647,3.008 -11.17,1.129Z" style="fill:#bcdda1;fill-rule:nonzero;"/><path d="M2950.68,575.274c-5.494,5.186 -15.863,6.237 -23.158,2.342c-7.315,-3.896 -8.781,-11.262 -3.306,-16.451c5.478,-5.189 15.863,-6.237 23.158,-2.342c7.315,3.896 8.781,11.262 3.306,16.451Z" style="fill:#14b0bf;fill-rule:nonzero;"/><path d="M2969.01,584.926c-5.475,5.189 -15.863,6.237 -23.158,2.339c-7.296,-3.896 -8.781,-11.259 -3.287,-16.448c5.479,-5.189 15.843,-6.24 23.159,-2.342c7.295,3.896 8.761,11.262 3.286,16.451Z" style="fill:#ffce48;fill-rule:nonzero;"/><path d="M2873.52,548.712l-46.353,-24.722l19.869,-18.793l46.356,24.723l-19.872,18.792Z" style="fill:#fff;fill-rule:nonzero;"/><path d="M2834.42,561.128l-29.672,-15.827l5.143,-4.876l29.691,15.827l-5.162,4.876Z" style="fill:#fff;fill-rule:nonzero;"/><path d="M2870.42,580.311l-29.669,-15.827l5.163,-4.879l29.672,15.83l-5.166,4.876Z" style="fill:#fff;fill-rule:nonzero;"/><path d="M2822.87,571.983l-29.672,-15.827l5.143,-4.876l29.672,15.831l-5.143,4.872Z" style="fill:#fff;fill-rule:nonzero;"/><path d="M2858.87,591.287l-29.669,-15.827l5.143,-4.875l29.692,15.83l-5.166,4.872Z" style="fill:#fff;fill-rule:nonzero;"/><path d="M2906.45,599.612l-29.692,-15.827l5.163,-4.876l29.672,15.827l-5.143,4.876Z" style="fill:#fff;fill-rule:nonzero;"/><path d="M2942.43,618.916l-29.668,-15.83l5.143,-4.876l29.691,15.827l-5.166,4.879Z" style="fill:#fff;fill-rule:nonzero;"/><path d="M1678.84,1490.89l-1111.01,-0c-24.769,-0 -44.841,-14.271 -44.841,-31.847l-0,-434.502c-0,-17.586 20.072,-31.84 44.841,-31.84l1111.01,-0c24.759,-0 44.845,14.254 44.845,31.84l-0,434.502c-0,17.576 -20.086,31.847 -44.845,31.847Z" style="fill:#e4ded6;fill-rule:nonzero;"/><path d="M1433.74,1132.34c-0,36.472 -41.621,66.039 -92.962,66.039c-51.361,-0 -92.982,-29.567 -92.982,-66.039c0,-36.471 41.621,-66.051 92.982,-66.051c51.341,0 92.962,29.58 92.962,66.051Z" style="fill:#14b0bf;fill-rule:nonzero;"/><path d="M1561.45,1132.34c0,36.472 -41.64,66.039 -92.981,66.039c-51.342,-0 -92.962,-29.567 -92.962,-66.039c-0,-36.471 41.62,-66.051 92.962,-66.051c51.341,0 92.981,29.58 92.981,66.051Z" style="fill:#8cc63f;fill-rule:nonzero;"/><rect x="634.392" y="1066.29" width="325.846" height="132.09" style="fill:#bbb19e;fill-rule:nonzero;"/><rect x="634.392" y="1313.96" width="208.606" height="34.275" style="fill:#bbb19e;fill-rule:nonzero;"/><rect x="888.45" y="1313.96" width="208.619" height="34.275" style="fill:#bbb19e;fill-rule:nonzero;"/><rect x="634.392" y="1390.93" width="208.606" height="34.26" style="fill:#bbb19e;fill-rule:nonzero;"/><rect x="888.45" y="1390.93" width="208.619" height="34.26" style="fill:#bbb19e;fill-rule:nonzero;"/><rect x="1141.83" y="1313.96" width="208.632" height="34.275" style="fill:#bbb19e;fill-rule:nonzero;"/><rect x="1395.89" y="1313.96" width="208.612" height="34.275" style="fill:#bbb19e;fill-rule:nonzero;"/><path d="M973.739,562.362l-108.786,19.047l-1.942,-5.595l108.769,-19.047l1.959,5.595Zm7.256,20.908l-108.785,19.047l-1.943,-5.592l108.773,-19.05l1.955,5.595Zm7.236,20.908l-108.765,19.046l-1.943,-5.595l108.773,-19.047l1.935,5.596Zm7.256,20.907l-108.769,19.047l-1.938,-5.592l108.772,-19.047l1.935,5.592Zm7.256,20.905l-108.769,19.047l-1.942,-5.596l108.776,-19.046l1.935,5.595Zm-29.905,-121.727l-3.894,-11.225l-12.517,2.196l3.891,11.221l-11.374,1.992l-3.894,-11.222l-12.521,2.193l3.891,11.221l-11.377,1.995l-3.894,-11.225l-12.528,2.196l3.898,11.218l-11.38,1.995l-3.895,-11.222l-12.52,2.193l3.894,11.222l-11.384,1.994l-3.894,-11.225l-12.521,2.196l3.895,11.219l-11.381,1.994l-3.891,-11.222l-12.527,2.193l3.891,11.222l-11.453,2.006l48.555,139.928l154.954,-27.133l-48.564,-139.927l-11.46,2.007Z" style="fill:#fff;fill-rule:nonzero;"/><path d="M312.748,1318.25l-117.86,-22.312l48.212,-128.34c-0,-0 21.768,-11.436 39.929,-7.447c18.163,4.001 80.428,17.688 80.428,17.688l-50.709,140.411Z" style="fill:#00b195;fill-rule:nonzero;"/><path d="M326.853,1171.45c-2.456,5.642 -10.876,8.781 -18.801,7.044c-7.932,-1.75 -12.369,-7.723 -9.913,-13.353l5.313,-12.198c2.452,-5.626 10.87,-8.781 18.799,-7.028c7.931,1.737 12.369,7.71 9.915,13.352l-5.313,12.183Z" style="fill:#f0dcc8;fill-rule:nonzero;"/><path d="M399.516,1141.74c-8.919,20.48 -39.513,31.928 -68.327,25.591c-28.815,-6.336 -44.945,-28.066 -36.025,-48.53c8.923,-20.48 39.916,-32.79 68.328,-25.594c59.787,15.145 1.965,45.683 36.024,48.533Z" style="fill:#f0dcc8;fill-rule:nonzero;"/><path d="M427.683,1203.91c-1.357,-8.349 -10.924,-7.89 -26.31,-13.783c-14.407,-5.515 -37.946,-12.31 -37.946,-12.31c-28.36,-4.544 -50.24,20.563 -43.762,32.985c3.982,7.642 14.677,16.116 25.407,15.228l62.22,-5.92c10.736,-0.875 21.755,-7.835 20.391,-16.2Z" style="fill:#00b195;fill-rule:nonzero;"/><path d="M525.472,1165.82l-122.039,25.802l9.83,25.926l112.203,-42.017l0.006,-9.711Z" style="fill:#00b195;fill-rule:nonzero;"/><rect x="194.888" y="1295.99" width="124.856" height="36.152" style="fill:#58595b;fill-rule:nonzero;"/><path d="M158.206,1377.88l26.731,9.531l56.567,-75.557l-47.49,-16.95l-35.808,82.976Z" style="fill:#58595b;fill-rule:nonzero;"/><path d="M41.367,1453.74l13.01,10.617l130.898,-76.987l-22.23,-19.965l-121.678,86.335Z" style="fill:#58595b;fill-rule:nonzero;"/><path d="M58.197,1453.62l-19.684,-1.889l-3.26,28.901c0,-0 0.157,0.012 0.403,0.012l74.5,0.099l0.452,-3.988l-0.853,-0.056c-4.287,-29.248 -36.922,-5.918 -51.558,-23.079Z" style="fill:#a1978e;fill-rule:nonzero;"/><path d="M416.848,1346.77l7.085,-16.379l-104.286,-34.403l-26.261,33.68l123.462,17.102Z" style="fill:#58595b;fill-rule:nonzero;"/><path d="M349.768,1454.81l18.93,4.153l48.702,-112.193l-28.584,-6.265l-39.048,114.305Z" style="fill:#58595b;fill-rule:nonzero;"/><path d="M423.634,1476.72c-7.568,-28.901 -37.513,-7.934 -54.029,-24.218l-19.837,-0.766l-0,28.985l74.721,-0l-0,-4.001l-0.855,-0Z" style="fill:#a1978e;fill-rule:nonzero;"/><path d="M376.808,1152.96l-35.895,-7.89c-6.552,11.032 11.905,28.358 35.895,7.89Z" style="fill:#fff;fill-rule:nonzero;"/><path d="M412.783,1094.47c-10.368,1.21 -13.027,3.167 -30.372,-3.905c-24.465,-9.974 -61.429,-17.756 -61.835,-15.225c-21.961,1.901 -41.392,12.685 -48.361,28.677c-9.138,20.979 6.531,43.195 35.172,50.738c0.227,-2.931 0.945,-5.877 2.218,-8.793c0.786,-1.808 1.75,-3.529 2.875,-5.17c-2.448,0.335 -5.044,0.251 -7.59,-0.304c-8.318,-1.836 -12.97,-8.101 -10.398,-14.007c2.574,-5.905 11.405,-9.211 19.719,-7.391c6.425,1.418 10.648,5.487 11.053,9.991c8.47,-8.725 8.762,-16.495 8.762,-16.495c14.871,4.616 27.458,9.451 50.843,9.547c21.401,-0.375 35.617,-9.754 27.914,-27.663Z" style="fill:#ffce48;fill-rule:nonzero;"/><path d="M331.852,1266.48l14.645,-40.541l0.299,-0.027l-14.944,40.568Zm-90.674,-92.684l-0.098,-0.862l0.401,0.056l-0.303,0.806Z" style="fill:#b5b6a8;fill-rule:nonzero;"/><path d="M331.753,1266.55l-87.624,-65.995l-3.049,-26.689l0.303,-0.806l31.478,3.973l31.348,20.631l15.463,15.728c0.09,0.016 0.841,0.056 2.14,0.128c4.549,6.432 13.254,12.629 22.213,12.629c0.518,0 1.036,-0.028 1.557,-0.071l0.817,-0.068l-14.646,40.54Z" style="fill:#00947d;fill-rule:nonzero;"/><path d="M344.13,1226.1c-8.959,-0 -17.664,-6.197 -22.213,-12.63c1.572,0.068 3.951,0.18 6.933,0.307l18.051,11.892l-0.098,0.263l-0.299,0.028l-0.817,0.071c-0.521,0.041 -1.039,0.069 -1.557,0.069Z" style="fill:#00947d;fill-rule:nonzero;"/><path d="M512.8,1170.27l8.643,6.768c12.183,5.015 11.897,-16.299 3.793,-24.704c-15.232,-16.826 -7.93,14.143 -12.436,17.936Z" style="fill:#f0dcc8;fill-rule:nonzero;"/><path d="M414.498,1217.21l-0.877,-0l0.877,-0Z" style="fill:#00947d;fill-rule:nonzero;"/><path d="M318.686,1207.48l-14.924,-9.838l-9.697,-9.851l18.542,-3.39l12.82,6.656c-4.845,5.39 -7.399,11.463 -6.741,16.423Z" style="fill:#00947d;fill-rule:nonzero;"/><path d="M412.52,1217.24c-10.204,-0.415 -62.86,-2.527 -84.285,-3.458l-9.613,-6.324c-0.657,-4.959 1.897,-11.029 6.742,-16.423l30.615,15.924l56.442,10.018l0.099,0.263Z" style="fill:#00947d;fill-rule:nonzero;"/><path d="M414.107,1216.97l-1.163,-0l1.163,-0Z" style="fill:#00947d;fill-rule:nonzero;"/><path d="M321.858,1213.52c-1.299,-0.069 -2.05,-0.112 -2.14,-0.124l-15.463,-15.728l14.923,9.835c0.159,1.181 0.501,2.307 1.043,3.349c0.46,0.89 1.009,1.778 1.637,2.668Z" style="fill:#007e6a;fill-rule:nonzero;"/><path d="M328.813,1213.76c-2.983,-0.128 -5.361,-0.239 -6.934,-0.307c-0.627,-0.891 -1.177,-1.778 -1.637,-2.668c-0.542,-1.042 -0.884,-2.168 -1.042,-3.349l9.613,6.324Z" style="fill:#007e6a;fill-rule:nonzero;"/><path d="M362.833,1227.02c5.342,-7.515 1.001,-15.353 -18.483,-24.397c-27.554,-12.782 -54.359,-39.238 -54.359,-39.238c-28.434,-17.853 -52.478,2.016 -55.363,15.396c-1.779,8.238 3.374,20.48 16.277,25.12l78.901,28.317c12.905,4.624 27.689,2.304 33.027,-5.198Z" style="fill:#00b195;fill-rule:nonzero;"/><path d="M523.037,1230.15l-166.75,-20.659l-16.709,25.02l181.79,4.376l1.669,-8.737Z" style="fill:#00b195;fill-rule:nonzero;"/><path d="M509.402,1227.95l2.531,8.988c10.818,18.12 25.179,-10.821 24.561,-21.118c-0.302,-20.272 -19.566,10.198 -27.092,12.13Z" style="fill:#f0dcc8;fill-rule:nonzero;"/><path d="M2470.31,118.556l199.812,-62.017l-219.293,50.98l17.076,4.253l2.405,6.784Z" style="fill:#fff;fill-rule:nonzero;"/><path d="M2470.22,118.556l-2.405,-6.784l202.217,-55.233l-18.837,5.842l-0.174,0.058l-95.174,29.543l-2.698,0.832l-82.929,25.742Z" style="fill:#d1d3d4;fill-rule:nonzero;"/><path d="M2469.85,118.556l199.812,-62.017l-182.874,89.566l-16.938,-27.549Z" style="fill:#fff;fill-rule:nonzero;"/><path d="M2497.03,141.067l74.247,-36.359l-74.247,36.359Zm76.475,-37.451l76.652,-37.549l-76.652,37.549Zm80.172,-39.275l15.941,-7.802l-15.941,7.802Z" style="fill:#b5b6a8;fill-rule:nonzero;"/><path d="M2650.55,65.986l3.519,-1.726l-3.519,1.726Z" style="fill:#bbbdb1;fill-rule:nonzero;"/><path d="M2571.75,104.681l2.232,-1.092l-2.232,1.092Z" style="fill:#bbbdb1;fill-rule:nonzero;"/><path d="M2497.08,141.067l-27.227,-22.511l199.812,-62.017l-15.942,7.802l-3.519,1.726l-76.649,37.549l-2.232,1.092l-74.243,36.359Z" style="fill:#d1d3d4;fill-rule:nonzero;"/><path d="M2469.85,118.558l199.812,-62.019l-136.459,91.56l-63.353,-29.541Z" style="fill:#fff;fill-rule:nonzero;"/><path d="M2281.81,224.631c20.204,6.284 38.883,14.855 60.122,19.39c12.869,2.746 24.86,2.476 37.868,0.699c23.897,-3.268 53.276,-10.698 68.65,-24.917c13.417,-12.422 5.162,-31.491 -16.626,-35.941c-17.036,-3.479 -29.103,9.153 -30.608,19.586c-3.112,21.676 33.484,26.803 56.268,22.881c36.497,-6.277 40.996,-41.179 38.14,-62.751c-0.49,-3.725 -8.722,-3.758 -8.235,0c2.642,20.023 -0.194,51.62 -33.934,57.425c-20.635,3.547 -50.615,-2.97 -42.814,-21.538c1.975,-4.693 7.394,-9.716 14.729,-10.219c10.618,-0.731 19.363,7.843 21.63,14.249c2.915,8.294 -7.41,15.56 -15.859,19.993c-11.305,5.942 -24.703,9.853 -38.062,12.804c-12.031,2.665 -25.623,5.07 -38.314,3.785c-24.841,-2.516 -46.238,-13.483 -68.788,-20.499c-4.831,-1.5 -9.018,3.541 -4.167,5.053Z" style="fill:#fff;fill-rule:nonzero;"/><path d="M2105.55,729.76c-0,142.145 -162.201,257.377 -362.305,257.377c-200.104,0 -362.304,-115.232 -362.304,-257.377c0,-142.148 162.2,-257.377 362.304,-257.377c200.104,-0 362.305,115.229 362.305,257.377Z" style="fill:#f1f2f2;fill-rule:nonzero;"/><path d="M2074.87,729.72c0,129.996 -148.352,235.378 -331.341,235.378c-182.989,-0 -331.341,-105.382 -331.341,-235.378c0,-129.996 148.352,-235.381 331.341,-235.381c182.989,-0 331.341,105.385 331.341,235.381Z" style="fill:#ffce48;fill-rule:nonzero;"/><path d="M1563.73,870.01c0,-14.748 16.685,-26.587 37.438,-26.587c20.769,0 37.434,11.839 37.434,26.587c-0,14.748 -16.665,26.589 -37.434,26.589c-20.753,0 -37.438,-11.841 -37.438,-26.589Zm262.008,-0c-0,-14.748 16.665,-26.587 37.434,-26.587c20.772,0 37.437,11.839 37.437,26.587c-0,14.748 -16.665,26.589 -37.437,26.589c-20.769,0 -37.434,-11.841 -37.434,-26.589Zm-299.422,-226.005c0,-7.27 8.469,-13.294 18.699,-13.294l351.194,0c2.931,-9.968 3.227,-26.589 23.099,-26.589l74.868,-0c10.23,-0 18.718,6.023 18.718,13.293c0,7.273 -8.488,13.296 -18.718,13.296l-59.653,0l-51.752,170.956c4.088,6.026 17.838,22.021 17.838,28.46c-0,7.27 -8.488,13.296 -18.719,13.296l-299.441,0c-10.23,0 -18.719,-6.026 -18.719,-13.296c0,-7.27 8.489,-13.297 18.719,-13.297l269.027,0c-2.931,-4.153 -7.019,-8.517 -7.019,-13.293c-0,-4.776 2.638,-9.968 3.792,-14.54l-305.268,-25.343c-9.642,-0.828 -16.665,-6.647 -16.665,-13.296l0,-106.353Z" style="fill:#f1f2f2;fill-rule:nonzero;"/><path d="M1947.14,643.053c-0,5.002 -2.465,9.255 -7.391,12.756l-191.185,135.799l-35.893,25.511c-4.946,3.501 -10.913,5.254 -17.972,5.254c-7.023,-0 -13.027,-1.753 -17.937,-5.254l-35.929,-25.511l-95.581,-67.899c-4.929,-3.499 -7.394,-7.754 -7.394,-12.754c0,-5.003 2.465,-9.255 7.394,-12.753l35.909,-25.511c4.93,-3.501 10.914,-5.254 17.953,-5.254c7.043,0 13.027,1.753 17.976,5.254l77.609,55.332l173.229,-123.231c4.909,-3.505 10.913,-5.254 17.956,-5.254c7.039,-0 13.007,1.749 17.953,5.254l35.912,25.504c4.926,3.508 7.391,7.76 7.391,12.757Z" style="fill:#8cc63f;fill-rule:nonzero;"/><path d="M2870.12,1358.76c0,5.71 -6.494,10.325 -14.532,10.325l-66.872,0c-8.019,0 -14.532,-4.615 -14.532,-10.325l0,-620.661c0,-5.704 6.513,-10.325 14.532,-10.325l66.872,0c8.038,0 14.532,4.621 14.532,10.325l0,620.661Z" style="fill:#4d4c66;fill-rule:nonzero;"/><rect x="2762.63" y="835.992" width="11.032" height="64.237" style="fill:#b5b6a8;fill-rule:nonzero;"/><path d="M2773.66,835.933l-11.032,-0l0,-39.151c3.638,1.51 7.296,2.965 11.032,4.364l0,34.787Z" style="fill:#bbbdb1;fill-rule:nonzero;"/><path d="M2773.66,948.275c-3.444,-3.611 -7.118,-7.097 -11.032,-10.446l0,-37.66l11.032,0l0,48.106Z" style="fill:#bbbdb1;fill-rule:nonzero;"/><path d="M2773.66,801.177c-3.736,-1.402 -7.394,-2.854 -11.032,-4.364l0,-70.241l63.977,-0l0,1.274l-38.413,0c-8.018,0 -14.532,4.622 -14.532,10.325l0,63.006Z" style="fill:#bbbdb1;fill-rule:nonzero;"/><path d="M2762.63,1083.99l0,-120.806l0.197,0.053c2.991,-5.577 5.945,-11.244 8.742,-16.839l-3.95,-0.995c-1.624,3.238 -3.287,6.501 -4.989,9.754l0,-17.347c3.914,3.35 7.588,6.836 11.032,10.446l0,135.706l-11.032,0.028Z" style="fill:#bbbdb1;fill-rule:nonzero;"/><path d="M2762.83,963.246l-0.197,-0.053l0,-8.03c1.702,-3.253 3.365,-6.516 4.989,-9.751l3.95,0.996c-2.797,5.595 -5.751,11.261 -8.742,16.838Z" style="fill:#bbbdb1;fill-rule:nonzero;"/><path d="M2785.28,1368.96l-22.649,-0l0,-116.082l11.032,-0.028l0,105.996c0,5.003 4.989,9.171 11.617,10.114Zm-22.649,-224.513l0,-60.397l11.032,-0.028l0,60.397l-11.032,0.028Z" style="fill:#b5ad9c;fill-rule:nonzero;"/><path d="M2762.63,1252.8l0,-108.431l11.032,-0.025l0,108.428l-11.032,0.028Z" style="fill:#646055;fill-rule:nonzero;"/><path d="M2827.12,1368.88l-41.325,0c-6.631,-0.946 -11.62,-5.114 -11.62,-10.117l0,-620.661c0,-5.704 6.513,-10.325 14.532,-10.325l38.413,0l0,641.103Z" style="fill:#403e56;fill-rule:nonzero;"/><path d="M2808.91,1467.81c-0,11.404 -13.027,20.644 -29.084,20.644l-659.28,-0c-16.057,-0 -29.064,-9.24 -29.064,-20.644l-0,-847.86c-0,-11.407 13.007,-20.656 29.064,-20.656l659.28,-0c16.057,-0 29.084,9.249 29.084,20.656l-0,847.86Z" style="fill:#4d4c66;fill-rule:nonzero;"/><path d="M2721.99,985.794c-0,11.411 -13.027,20.657 -29.084,20.657l-482.667,-0c-16.057,-0 -29.083,-9.246 -29.083,-20.657l-0,-417.235c-0,-11.407 13.026,-20.656 29.083,-20.656l482.667,-0c16.057,-0 29.084,9.249 29.084,20.656l-0,417.235Z" style="fill:#30323f;fill-rule:nonzero;"/><path d="M2717.91,1441.26c-0,5.698 -6.514,10.322 -14.552,10.322l-501.56,0c-8.041,0 -14.532,-4.624 -14.532,-10.322l0,-391.42c0,-5.707 6.491,-10.329 14.532,-10.329l501.56,0c8.038,0 14.552,4.622 14.552,10.329l-0,391.42Z" style="fill:#30323f;fill-rule:nonzero;"/><path d="M2351.68,1123.14c0,5.71 -6.513,10.338 -14.531,10.338l-95.953,-0c-8.041,-0 -14.532,-4.628 -14.532,-10.338l0,-36.136c0,-5.71 6.491,-10.338 14.532,-10.338l95.953,0c8.018,0 14.531,4.628 14.531,10.338l0,36.136Z" style="fill:#cfc7be;fill-rule:nonzero;"/><path d="M2515.41,1123.14c0,5.71 -6.513,10.338 -14.551,10.338l-95.956,-0c-8.019,-0 -14.532,-4.628 -14.532,-10.338l-0,-36.136c-0,-5.71 6.513,-10.338 14.532,-10.338l95.956,0c8.038,0 14.551,4.628 14.551,10.338l0,36.136Z" style="fill:#cfc7be;fill-rule:nonzero;"/><path d="M2679.78,1123.14c0,5.71 -6.513,10.338 -14.532,10.338l-95.952,-0c-8.038,-0 -14.532,-4.628 -14.532,-10.338l0,-36.136c0,-5.71 6.494,-10.338 14.532,-10.338l95.952,0c8.019,0 14.532,4.628 14.532,10.338l0,36.136Z" style="fill:#cfc7be;fill-rule:nonzero;"/><path d="M2351.68,1192.39c0,5.694 -6.513,10.322 -14.531,10.322l-95.953,-0c-8.041,-0 -14.532,-4.628 -14.532,-10.322l0,-36.152c0,-5.698 6.491,-10.325 14.532,-10.325l95.953,-0c8.018,-0 14.531,4.627 14.531,10.325l0,36.152Z" style="fill:#cfc7be;fill-rule:nonzero;"/><path d="M2515.41,1192.39c0,5.694 -6.513,10.322 -14.551,10.322l-95.956,-0c-8.019,-0 -14.532,-4.628 -14.532,-10.322l-0,-36.152c-0,-5.698 6.513,-10.325 14.532,-10.325l95.956,-0c8.038,-0 14.551,4.627 14.551,10.325l0,36.152Z" style="fill:#cfc7be;fill-rule:nonzero;"/><path d="M2679.78,1192.39c0,5.694 -6.513,10.322 -14.532,10.322l-95.952,-0c-8.038,-0 -14.532,-4.628 -14.532,-10.322l0,-36.152c0,-5.698 6.494,-10.325 14.532,-10.325l95.952,-0c8.019,-0 14.532,4.627 14.532,10.325l0,36.152Z" style="fill:#cfc7be;fill-rule:nonzero;"/><path d="M2351.68,1261.51c0,5.698 -6.513,10.325 -14.531,10.325l-95.953,0c-8.041,0 -14.532,-4.627 -14.532,-10.325l0,-36.152c0,-5.694 6.491,-10.322 14.532,-10.322l95.953,0c8.018,0 14.531,4.628 14.531,10.322l0,36.152Z" style="fill:#cfc7be;fill-rule:nonzero;"/><path d="M2515.41,1261.51c0,5.698 -6.513,10.325 -14.551,10.325l-95.956,0c-8.019,0 -14.532,-4.627 -14.532,-10.325l-0,-36.152c-0,-5.694 6.513,-10.322 14.532,-10.322l95.956,0c8.038,0 14.551,4.628 14.551,10.322l0,36.152Z" style="fill:#cfc7be;fill-rule:nonzero;"/><path d="M2679.78,1261.51c0,5.698 -6.513,10.325 -14.532,10.325l-95.952,0c-8.038,0 -14.532,-4.627 -14.532,-10.325l0,-36.152c0,-5.694 6.494,-10.322 14.532,-10.322l95.952,0c8.019,0 14.532,4.628 14.532,10.322l0,36.152Z" style="fill:#cfc7be;fill-rule:nonzero;"/><path d="M2351.68,1330.76c0,5.71 -6.513,10.322 -14.531,10.322l-95.953,0c-8.041,0 -14.532,-4.612 -14.532,-10.322l0,-36.139c0,-5.71 6.491,-10.338 14.532,-10.338l95.953,0c8.018,0 14.531,4.628 14.531,10.338l0,36.139Z" style="fill:#cfc7be;fill-rule:nonzero;"/><path d="M2515.41,1330.76c0,5.71 -6.513,10.322 -14.551,10.322l-95.956,0c-8.019,0 -14.532,-4.612 -14.532,-10.322l-0,-36.139c-0,-5.71 6.513,-10.338 14.532,-10.338l95.956,0c8.038,0 14.551,4.628 14.551,10.338l0,36.139Z" style="fill:#cfc7be;fill-rule:nonzero;"/><path d="M2679.78,1330.76c0,5.71 -6.513,10.322 -14.532,10.322l-95.952,0c-8.038,0 -14.532,-4.612 -14.532,-10.322l0,-36.139c0,-5.71 6.494,-10.338 14.532,-10.338l95.952,0c8.019,0 14.532,4.628 14.532,10.338l0,36.139Z" style="fill:#cfc7be;fill-rule:nonzero;"/><path d="M2351.68,1399.88c0,5.71 -6.513,10.338 -14.531,10.338l-95.953,-0c-8.041,-0 -14.532,-4.628 -14.532,-10.338l0,-36.139c0,-5.71 6.491,-10.322 14.532,-10.322l95.953,-0c8.018,-0 14.531,4.612 14.531,10.322l0,36.139Z" style="fill:#ed654c;fill-rule:nonzero;"/><path d="M2515.41,1399.88c0,5.71 -6.513,10.338 -14.551,10.338l-95.956,-0c-8.019,-0 -14.532,-4.628 -14.532,-10.338l-0,-36.139c-0,-5.71 6.513,-10.322 14.532,-10.322l95.956,-0c8.038,-0 14.551,4.612 14.551,10.322l0,36.139Z" style="fill:#f1e52f;fill-rule:nonzero;"/><path d="M2679.78,1399.88c0,5.71 -6.513,10.338 -14.532,10.338l-95.952,-0c-8.038,-0 -14.532,-4.628 -14.532,-10.338l0,-36.139c0,-5.71 6.494,-10.322 14.532,-10.322l95.952,-0c8.019,-0 14.532,4.612 14.532,10.322l0,36.139Z" style="fill:#5fbb46;fill-rule:nonzero;"/><path d="M2662.45,632.572c0,5.707 -6.513,10.332 -14.532,10.332l-391.072,-0c-8.038,-0 -14.552,-4.625 -14.552,-10.332l0,-4.128c0,-5.704 6.514,-10.328 14.552,-10.328l391.072,0c8.019,0 14.532,4.624 14.532,10.328l0,4.128Z" style="fill:#151822;fill-rule:nonzero;"/><rect x="2236.86" y="683.14" width="431.776" height="261.291" style="fill:#14b0bf;fill-rule:nonzero;"/><path d="M2477.64,739.915c0,5.703 -6.513,10.328 -14.532,10.328l-183.186,-0c-8.038,-0 -14.532,-4.625 -14.532,-10.328c0,-5.704 6.494,-10.329 14.532,-10.329l183.186,0c8.019,0 14.532,4.625 14.532,10.329Z" style="fill:#54c7de;fill-rule:nonzero;"/><path d="M2627.38,778.157c-0,5.704 -6.494,10.328 -14.532,10.328l-332.925,0c-8.038,0 -14.532,-4.624 -14.532,-10.328c0,-5.701 6.494,-10.328 14.532,-10.328l332.925,-0c8.038,-0 14.532,4.627 14.532,10.328Z" style="fill:#54c7de;fill-rule:nonzero;"/><path d="M2477.64,816.402c0,5.701 -6.513,10.329 -14.532,10.329l-183.186,-0c-8.038,-0 -14.532,-4.628 -14.532,-10.329c0,-5.703 6.494,-10.331 14.532,-10.331l183.186,-0c8.019,-0 14.532,4.628 14.532,10.331Z" style="fill:#54c7de;fill-rule:nonzero;"/><path d="M2627.87,816.402c0,5.701 -6.493,10.329 -14.531,10.329l-91.595,-0c-8.038,-0 -14.532,-4.628 -14.532,-10.329c-0,-5.703 6.494,-10.331 14.532,-10.331l91.595,-0c8.038,-0 14.531,4.628 14.531,10.331Z" style="fill:#54c7de;fill-rule:nonzero;"/><path d="M2349.7,854.641c0,5.704 -6.513,10.329 -14.551,10.329l-55.236,-0c-8.038,-0 -14.532,-4.625 -14.532,-10.329c0,-5.703 6.494,-10.328 14.532,-10.328l55.236,0c8.038,0 14.551,4.625 14.551,10.328Z" style="fill:#54c7de;fill-rule:nonzero;"/><path d="M2623.56,854.641c-0,5.704 -6.514,10.329 -14.532,10.329l-212.27,-0c-8.019,-0 -14.532,-4.625 -14.532,-10.329c0,-5.703 6.513,-10.328 14.532,-10.328l212.27,0c8.018,0 14.532,4.625 14.532,10.328Z" style="fill:#54c7de;fill-rule:nonzero;"/><path d="M2647.58,394l0.036,-0.034l-39.018,-27.021l-38.61,26.748l-38.627,-26.748l-38.607,26.748l-38.63,-26.748l-38.627,26.748l-38.61,-26.748l-38.627,26.748l-38.61,-26.748l-39.018,27.021l0.45,0.31l0,238.315l386.554,0l-0,-238.591l-0.056,-0Z" style="fill:#fff;fill-rule:nonzero;"/><path d="M2476.94,463.894c-0,4.571 -5.222,8.278 -11.657,8.278l-146.827,-0c-6.434,-0 -11.636,-3.707 -11.636,-8.278c-0,-4.572 5.202,-8.278 11.636,-8.278l146.827,-0c6.435,-0 11.657,3.706 11.657,8.278Z" style="fill:#d9dadb;fill-rule:nonzero;"/><path d="M2596.97,494.534c-0,4.572 -5.222,8.278 -11.657,8.278l-266.858,0c-6.434,0 -11.636,-3.706 -11.636,-8.278c-0,-4.572 5.202,-8.278 11.636,-8.278l266.858,0c6.435,0 11.657,3.706 11.657,8.278Z" style="fill:#d9dadb;fill-rule:nonzero;"/><path d="M2476.94,525.178c-0,4.571 -5.222,8.278 -11.657,8.278l-146.827,-0c-6.434,-0 -11.636,-3.707 -11.636,-8.278c-0,-4.572 5.202,-8.279 11.636,-8.279l146.827,0c6.435,0 11.657,3.707 11.657,8.279Z" style="fill:#d9dadb;fill-rule:nonzero;"/><path d="M2597.14,525.178c0,4.571 -5.222,8.278 -11.656,8.278l-73.405,-0c-6.455,-0 -11.657,-3.707 -11.657,-8.278c0,-4.572 5.202,-8.279 11.657,-8.279l73.405,0c6.434,0 11.656,3.707 11.656,8.279Z" style="fill:#d9dadb;fill-rule:nonzero;"/><path d="M2374.4,555.821c0,4.572 -5.222,8.278 -11.656,8.278l-44.283,0c-6.434,0 -11.636,-3.706 -11.636,-8.278c-0,-4.572 5.202,-8.278 11.636,-8.278l44.283,-0c6.434,-0 11.656,3.706 11.656,8.278Z" style="fill:#d9dadb;fill-rule:nonzero;"/><path d="M2593.32,555.821c-0,4.572 -5.222,8.278 -11.657,8.278l-170.12,0c-6.438,0 -11.66,-3.706 -11.66,-8.278c0,-4.572 5.222,-8.278 11.66,-8.278l170.12,-0c6.435,-0 11.657,3.706 11.657,8.278Z" style="fill:#d9dadb;fill-rule:nonzero;"/><path d="M2912.98,1328.07c-0.177,-0.819 -4.088,-20.033 5.827,-29.456c3.503,-3.346 8.314,-5.043 14.299,-5.043c9.29,0 14.784,1.25 18.366,4.156c5.594,4.557 6.396,12.866 6.08,29.747l-2.659,-0.027c0.293,-15.936 -0.43,-24.218 -5.32,-28.222c-3.03,-2.456 -7.94,-3.514 -16.467,-3.514c-5.163,0 -9.291,1.446 -12.265,4.28c-9.113,8.657 -5.281,27.536 -5.241,27.719l-2.62,0.36Z" style="fill:#816aaf;fill-rule:nonzero;"/><path d="M3013.67,1416.31l-139.63,0l17.308,-98.605l99.262,0l23.06,98.605Z" style="fill:#6e58a5;fill-rule:nonzero;"/><path d="M3004.16,1423.44l-139.63,-7.128l17.312,-98.605l99.259,0l23.059,105.733Z" style="fill:#816aaf;fill-rule:nonzero;"/><path d="M2817.31,1168.17c-9.369,-6.169 -19.753,-13.077 -13.398,-22.815c5.36,-7.615 14.726,-13.089 19.754,-20.924c4.361,-6.432 4.029,-11.658 -1.663,-17.604c-3.01,-3.319 -6.707,-5.223 -7.706,-9.029c-1.331,-4.516 1.682,-6.42 4.341,-10.229c12.734,-15.936 -9.366,-29.009 -31.45,-26.869l-9.31,-11.423c-10.775,0 -25.836,10.226 -29.514,17.133c-3.361,5.946 -14.551,16.882 -11.538,22.828c3.014,6.656 6.846,7.838 -2.855,13.309c-5.692,3.573 -12.731,4.044 -9.721,11.172c2.346,5.002 17.407,12.601 10.384,18.547c-5.688,5.003 -23.095,2.14 -21.748,11.894c0.332,3.57 6.356,4.988 5.672,8.796c-0.664,4.278 -8.35,5 -12.379,7.14c-10.72,5.698 -11.052,15.688 0.663,20.204c5.36,1.901 10.053,2.86 10.385,7.847c0.335,4.28 -5.025,6.42 -6.687,10.229c-2.679,7.127 10.032,12.601 18.071,14.267c10.033,1.669 19.402,2.376 29.123,4.752c11.383,2.611 25.094,-1.905 35.478,-5.475c11.716,-4.029 28.108,-9.267 33.132,-18.535c5.36,-9.751 1.351,-18.311 -9.034,-25.215Z" style="fill:#fbb040;fill-rule:nonzero;"/><path d="M2849.18,1261.34l-110.327,-0l16.192,-62.773l-5.084,-69.54l87.428,-0l-7.102,67.149l18.893,65.164Z" style="fill:#f2c5dc;fill-rule:nonzero;"/><path d="M2806.85,1130.44c0,5.211 -5.964,9.435 -13.299,9.435c-7.315,-0 -13.26,-4.224 -13.26,-9.435l-0,-11.284c-0,-5.195 5.945,-9.431 13.26,-9.431c7.335,-0 13.299,4.236 13.299,9.431l0,11.284Z" style="fill:#f0dcc8;fill-rule:nonzero;"/><path d="M2857.12,1091.8c-0,18.938 -21.611,34.275 -48.269,34.275c-26.639,0 -48.252,-15.337 -48.252,-34.275c-0,-18.938 21.633,-35.082 48.252,-34.291c56.034,1.696 18.462,38.208 48.269,34.291Z" style="fill:#f0dcc8;fill-rule:nonzero;"/><path d="M2705.78,1213.7c9.444,3.166 15.002,5.266 25.504,-7.574c14.766,-18.076 32.193,-43.779 39.33,-53.685c7.161,-9.907 9.978,-16.479 -10.325,-22.577c-11.854,-3.573 -23.001,4.848 -28.459,13.046l-31.118,52.435c-5.435,8.197 -4.4,15.185 5.068,18.355Z" style="fill:#f2c5dc;fill-rule:nonzero;"/><path d="M2668.6,1290.74l62.882,-84.585l-30.569,-10.781l-42.208,91.976l9.895,3.39Z" style="fill:#f2c5dc;fill-rule:nonzero;"/><path d="M2671.73,1309.16c1.896,7.906 -29.534,6.836 -32.058,-0.974c-2.504,-7.822 1.976,-18.408 12.988,-20.201c10.992,-1.78 18.012,1.902 23.802,8.905c7.568,9.184 -6.746,3.905 -4.732,12.27Z" style="fill:#f0dcc8;fill-rule:nonzero;"/><path d="M2870.89,1215.75c9.582,-3 15.452,-4.597 8.682,-18.644c-9.524,-19.785 -25.426,-45.978 -31.252,-56.312c-5.85,-10.325 -10.973,-16.147 -30.766,-9.267c-11.598,4.028 -9.938,15.517 -4.792,23.826l35.301,51.061c5.147,8.309 13.264,12.322 22.827,9.336Z" style="fill:#f2c5dc;fill-rule:nonzero;"/><path d="M2928.39,1286.25l-48.66,-89.185l-31.509,9.311l70.077,82.96l10.092,-3.086Z" style="fill:#f2c5dc;fill-rule:nonzero;"/><path d="M2950.12,1296.87c9.641,4.168 -12.107,20.312 -22.061,16.531c-9.958,-3.765 -18.288,-13.129 -12.968,-20.2c5.321,-7.072 13.849,-8.405 25.094,-6.92c14.706,1.945 -0.296,6.169 9.935,10.589Z" style="fill:#f0dcc8;fill-rule:nonzero;"/><rect x="2738.86" y="1261.24" width="110.327" height="27.567" style="fill:#d04a9b;fill-rule:nonzero;"/><path d="M2757.42,1364.47l26.05,2.487l2.836,-78.085l-47.447,0l18.561,75.598Z" style="fill:#d04a9b;fill-rule:nonzero;"/><path d="M2734.1,1465.41l17.072,2.739l32.058,-101.216l-25.797,-4.113l-23.333,102.59Z" style="fill:#d04a9b;fill-rule:nonzero;"/><path d="M2845.9,1107.31l-20.73,-0c-0.92,6.572 12.79,13.563 20.73,-0Z" style="fill:#fff;fill-rule:nonzero;"/><path d="M2751.43,1468.15c10.211,17.006 44.243,17.27 39.606,31.887c-12.829,-2.041 -32.974,-5.266 -47.309,-7.558l0.056,-0.168c0,0 0.628,-10.545 -2.386,-11.016c-2.99,-0.487 -5.984,0.862 -6.668,2.999l-1.899,6.448c-3.852,-0.624 -6.198,-0.999 -6.198,-0.999l7.9,-24.983l16.898,3.39Z" style="fill:#e37eb3;fill-rule:nonzero;"/><path d="M2837.47,1366.7l26.093,-2.974l-14.433,-74.916l-49.133,-0.667l37.473,78.557Z" style="fill:#d04a9b;fill-rule:nonzero;"/><path d="M2869.29,1468.19l17.29,-1.957l-23.136,-102.442l-26.093,2.975l31.939,101.424Z" style="fill:#d04a9b;fill-rule:nonzero;"/><path d="M2886.75,1466.21c18.367,13.101 50.092,4.363 53.435,19.173c-12.988,1.474 -33.366,3.794 -47.898,5.447l-0.02,-0.168c0,0 -4.929,-9.946 -7.962,-9.599c-3.05,0.347 -5.123,2.376 -4.634,4.541l1.604,6.488c-3.894,0.447 -6.28,0.71 -6.28,0.71l-5.712,-25.287l17.467,-1.305Z" style="fill:#e37eb3;fill-rule:nonzero;"/><path d="M2855.48,1058.3c1.016,-0.723 1.351,-1.433 1.351,-2.376c-0.667,-6.185 -7.043,-9.99 -13.066,-4.516c-3.014,2.847 -4.266,3.083 -10.053,1.182c-24.624,-8.086 -52.791,-5.099 -55.84,-3.334c-20.812,0.483 -41.055,19.964 -41.055,34.746c-0,19.41 21.4,35.25 48.35,36.307c-0.88,-2.515 -1.37,-5.142 -1.37,-7.837c-0,-1.666 0.177,-3.307 0.529,-4.904c-1.936,0.735 -4.167,1.154 -6.513,1.154c-7.707,-0 -13.928,-4.42 -13.928,-9.894c0,-5.459 6.221,-9.891 13.928,-9.891c5.945,0 10.992,2.652 13.007,6.377c1.406,-3.198 9.799,-5.738 11.304,-18.799c1.545,-0.474 2.856,-1.141 3.813,-2.044c0.354,7.602 21.436,5.934 24.117,0c-2.014,4.029 4.342,4.516 8.351,4.029c5.36,-0.235 9.037,-2.124 10.72,-5.93c4.361,6.182 13.73,1.179 15.724,-3.573c2.015,-5.71 -4.009,-8.321 -9.369,-10.697Z" style="fill:#fbb040;fill-rule:nonzero;"/></g></svg>