<?xml version="1.0" encoding="UTF-8" standalone="no"?><!DOCTYPE svg PUBLIC "-//W3C//DTD SVG 1.1//EN" "http://www.w3.org/Graphics/SVG/1.1/DTD/svg11.dtd"><svg width="100%" height="100%" viewBox="0 0 3209 1542" version="1.1" xmlns="http://www.w3.org/2000/svg" xmlns:xlink="http://www.w3.org/1999/xlink" xml:space="preserve" xmlns:serif="http://www.serif.com/" style="fill-rule:evenodd;clip-rule:evenodd;stroke-linejoin:round;stroke-miterlimit:2;"><g><path d="M45.124,1045.16l166.601,48.749l-0,-33.207l-166.601,-48.765l0,33.223Z" style="fill:#6480c0;fill-rule:nonzero;"/><path d="M211.725,1060.75l1220.98,-357.131l-166.598,-48.71l-1220.99,357.067l166.601,48.774Z" style="fill:#fff;fill-rule:nonzero;"/><path d="M211.949,1093.76l1220.98,-357.071l0,-33.268l-1220.98,357.128l-0,33.211Z" style="fill:#b4c6d3;fill-rule:nonzero;"/><path d="M222.376,994.153l94.299,27.574l0,-30.019l-94.299,-27.617l-0,30.062Z" style="fill:#6480c0;fill-rule:nonzero;"/><path d="M316.675,991.554l1050.46,-307.05l-94.269,-27.613l-1050.49,307.088l94.299,27.575Z" style="fill:#eaf5f8;fill-rule:nonzero;"/><path d="M318.822,1021.72l1050.46,-307.121l-0,-29.99l-1050.46,307.049l0,30.062Z" style="fill:#b4c6d3;fill-rule:nonzero;"/><path d="M551.15,941.263c-0,4.916 -6.325,9.755 -19.128,13.478c-25.515,7.522 -66.883,7.522 -92.365,0c-12.745,-3.723 -19.175,-8.562 -19.175,-13.478l-0,-10.166l130.668,-0l-0,10.166Z" style="fill:#6480c0;fill-rule:nonzero;"/><path d="M439.686,918.248c25.485,-7.506 66.851,-7.506 92.369,-0c25.529,7.399 25.529,19.448 -0,27.018c-25.518,7.445 -66.884,7.445 -92.369,0c-25.606,-7.57 -25.606,-19.619 -0,-27.018Z" style="fill:#fff;fill-rule:nonzero;"/><path d="M541.62,929.654c0,4.145 -5.329,8.225 -16.275,11.438c-21.591,6.314 -56.708,6.314 -78.342,0c-10.827,-3.213 -16.095,-7.293 -16.095,-11.438l0,-486.255l110.712,0l0,486.255Z" style="fill:#fff;fill-rule:nonzero;"/><path d="M447.101,431.977c21.634,-6.33 56.751,-6.33 78.342,-0c21.605,6.268 21.605,16.537 -0,22.934c-21.591,6.301 -56.708,6.301 -78.342,0c-21.591,-6.397 -21.591,-16.666 -0,-22.934Z" style="fill:#cccecd;fill-rule:nonzero;"/><path d="M908.339,836.976c-0,4.878 -6.416,9.8 -19.175,13.508c-25.529,7.525 -66.869,7.525 -92.366,0c-12.759,-3.708 -19.207,-8.63 -19.207,-13.508l-0,-10.15l130.748,0l-0,10.15Z" style="fill:#6480c0;fill-rule:nonzero;"/><path d="M796.831,813.964c25.5,-7.489 66.836,-7.489 92.365,0c25.548,7.455 25.548,19.533 0,27.042c-25.529,7.489 -66.865,7.489 -92.365,-0c-25.652,-7.509 -25.652,-19.587 0,-27.042Z" style="fill:#fff;fill-rule:nonzero;"/><path d="M898.773,825.416c-0,4.151 -5.391,8.286 -16.185,11.358c-21.664,6.384 -56.78,6.384 -78.447,-0c-10.765,-3.072 -16.124,-7.207 -16.124,-11.358l0,-486.287l110.756,-0l-0,486.287Z" style="fill:#fff;fill-rule:nonzero;"/><path d="M804.188,327.736c21.663,-6.368 56.78,-6.368 78.447,-0c21.558,6.276 21.558,16.52 0,22.865c-21.667,6.361 -56.784,6.361 -78.447,0.031c-21.558,-6.376 -21.558,-16.62 -0,-22.896Z" style="fill:#cccecd;fill-rule:nonzero;"/><path d="M1270.61,602.751c-0,4.826 -6.343,9.787 -19.113,13.479c-25.577,7.483 -66.913,7.483 -92.442,-0c-12.759,-3.692 -19.146,-8.653 -19.146,-13.479l0,-10.205l130.701,0l-0,10.205Z" style="fill:#6480c0;fill-rule:nonzero;"/><path d="M1159.03,579.726c25.529,-7.544 66.865,-7.544 92.441,-0c25.53,7.47 25.53,19.532 0,27.041c-25.576,7.477 -66.912,7.477 -92.441,0c-25.486,-7.509 -25.486,-19.571 -0,-27.041Z" style="fill:#fff;fill-rule:nonzero;"/><path d="M1261.16,590.946c0,4.09 -5.435,8.248 -16.229,11.4c-21.681,6.375 -56.783,6.375 -78.414,-0c-10.826,-3.152 -16.171,-7.31 -16.171,-11.4l0,-358.398l110.814,0l0,358.398Z" style="fill:#b4c6d3;fill-rule:nonzero;"/><path d="M1166.57,221.144c21.635,-6.353 56.737,-6.353 78.415,0c21.591,6.238 21.591,16.536 -0,22.896c-21.678,6.315 -56.78,6.315 -78.415,-0c-21.634,-6.36 -21.634,-16.658 0,-22.896Z" style="fill:#cccecd;fill-rule:nonzero;"/><path d="M366.445,504.274l-177.955,-52.017l0,-45.484l177.955,52.029l-0,45.472Z" style="fill:#6480c0;fill-rule:nonzero;"/><path d="M365.742,504.107l1065.09,-311.353l-0,-39.729l-1065.09,311.375l-0,39.707Z" style="fill:#fff;fill-rule:nonzero;"/><path d="M1530.76,126.617l-163.855,-47.887l-638.837,-33.606l218.219,76.723l584.473,4.77Z" style="fill:#325dab;fill-rule:nonzero;"/><path d="M89.437,452.168l163.852,47.922l669.367,-388.166l-30.571,-18.959l-163.932,-47.841l-638.716,407.044Z" style="fill:#466ab2;fill-rule:nonzero;"/><path d="M253.656,500.097l1277.56,-373.475l-638.764,-33.652l-638.792,407.127Z" style="fill:#fff;fill-rule:nonzero;"/><path d="M1453.21,1390.36l-1243.87,-367.099l1219.1,-356.47l1243.87,367.128l-1219.1,356.441Z" style="fill:#eaf5f8;fill-rule:nonzero;"/><path d="M1458.52,1361.71l-1137.09,-335.578l108.717,-30.364l1137.07,335.608l-108.703,30.334Z" style="fill:#005a7c;fill-rule:nonzero;"/><path d="M1459.25,1457.3l-1249.91,-364.467l-0,-69.675l1249.91,364.461l0,69.681Z" style="fill:#6480c0;fill-rule:nonzero;"/><path d="M1457.93,1458.2l1219.1,-356.373l-0,-69.759l-1219.1,356.441l0,69.691Z" style="fill:#b4c6d3;fill-rule:nonzero;"/><path d="M1455.32,1456.98l166.602,48.748l-0,-33.207l-166.602,-48.774l-0,33.233Z" style="fill:#6480c0;fill-rule:nonzero;"/><path d="M1621.92,1472.56l1220.98,-357.134l-166.587,-48.714l-1221,357.077l166.602,48.771Z" style="fill:#fff;fill-rule:nonzero;"/><path d="M1622.15,1505.57l1220.99,-357.077l-0,-33.268l-1220.99,357.135l0,33.21Z" style="fill:#b4c6d3;fill-rule:nonzero;"/><path d="M1528.31,1398.37l94.298,27.575l-0,-30.029l-94.298,-27.604l-0,30.058Z" style="fill:#6480c0;fill-rule:nonzero;"/><path d="M1623.33,1395.69l1050.46,-307.049l-110.618,-32.491l-1050.5,307.082l110.664,32.458Z" style="fill:#eaf5f8;fill-rule:nonzero;"/><path d="M1622.15,1425.93l1050.45,-307.126l0,-29.982l-1050.45,307.05l0,30.058Z" style="fill:#b4c6d3;fill-rule:nonzero;"/><path d="M1431.73,905.36c-100.834,-0 -195.03,4.53 -280.692,12.499l-503.773,-0l-0,97.574l0.574,-0c12.392,84.041 330.711,175.462 783.891,175.462c453.216,-0 771.532,-91.421 783.91,-175.462l0.636,-0l-0,-97.574l-503.835,-0c-85.662,-7.969 -179.841,-12.499 -280.711,-12.499Z" style="fill:#fbad56;fill-rule:nonzero;"/><path d="M654.538,1014.24l0.559,1.102c12.243,83.028 327.133,171.927 776.36,171.927c449.257,0 764.147,-88.899 776.39,-171.927l0.588,-1.231l0,-92.234l-496.271,-0c-90.087,-8.309 -184.069,-12.499 -280.707,-12.499c-96.608,0 -190.605,4.19 -279.319,12.438l-497.6,0.061l-0,92.363Zm776.919,180.676c-455.269,0 -775.379,-91.607 -791.204,-177.672l-0.814,-1.613l-0,-97.574c-0,-2.111 3.382,-3.824 7.549,-3.824l503.777,0c88.26,-8.27 183.161,-12.499 280.692,-12.499c97.546,0 192.447,4.229 282.066,12.56l502.476,-0.061c4.167,0 7.535,1.713 7.535,3.824l0,97.574l-0.89,1.805c-16.261,86.004 -336.237,177.48 -791.187,177.48Z" style="fill:#fff;fill-rule:nonzero;"/><path d="M743.706,1088.07c14.717,6.484 31.069,12.849 49.158,18.996l-0,-189.166l-49.158,0l-0,170.17Z" style="fill:#f387a3;fill-rule:nonzero;"/><path d="M1663.85,914.267l-0,264.743c16.726,-1.269 33.064,-2.667 49.169,-4.203l-0,-256.894l-4.058,0c-14.678,-1.368 -29.94,-2.49 -45.111,-3.646Z" style="fill:#f387a3;fill-rule:nonzero;"/><path d="M1580.44,1184.05c16.578,-0.781 33.017,-1.635 49.111,-2.667l0,-269.614c-16.156,-1.025 -32.446,-2.011 -49.111,-2.782l0,275.063Z" style="fill:#f387a3;fill-rule:nonzero;"/><path d="M1997.5,1128.03c17.347,-4.431 33.772,-9.058 49.158,-13.797l-0,-196.331l-49.158,0l-0,210.128Z" style="fill:#f387a3;fill-rule:nonzero;"/><path d="M1497.03,1186.94c16.544,-0.328 32.973,-0.765 49.111,-1.331l-0,-277.785c-16.229,-0.572 -32.49,-1.14 -49.111,-1.474l-0,280.59Z" style="fill:#f387a3;fill-rule:nonzero;"/><path d="M2080.91,1102.73c18.194,-6.597 34.666,-13.37 49.114,-20.31l0,-164.522l-49.114,0l-0,184.832Z" style="fill:#f387a3;fill-rule:nonzero;"/><path d="M1830.68,1160.7c16.865,-2.468 33.213,-5.077 49.111,-7.805l0,-234.997l-49.111,0l0,242.802Z" style="fill:#f387a3;fill-rule:nonzero;"/><path d="M1747.26,1171.32c16.759,-1.825 33.111,-3.798 49.129,-5.88l-0,-247.541l-49.129,0l-0,253.421Z" style="fill:#f387a3;fill-rule:nonzero;"/><path d="M1914.09,1146.61c17.046,-3.277 33.424,-6.696 49.173,-10.265l-0,-218.447l-49.173,0l-0,228.712Z" style="fill:#f387a3;fill-rule:nonzero;"/><path d="M996.551,1155.01c15.88,2.631 32.323,5.092 49.111,7.454l0,-244.569l-49.111,0l0,237.115Z" style="fill:#f387a3;fill-rule:nonzero;"/><path d="M1330.2,1185.8c16.185,0.521 32.534,0.909 49.126,1.17l-0,-280.95c-16.592,0.282 -32.941,0.694 -49.126,1.198l0,278.582Z" style="fill:#f387a3;fill-rule:nonzero;"/><path d="M1413.61,905.566l0,281.714c6.162,0.016 12.2,0.1 18.39,0.1c10.354,-0 20.53,-0.1 30.754,-0.183l-0,-281.503c-10.253,-0.09 -20.323,-0.334 -30.754,-0.334c-6.234,-0 -12.199,0.167 -18.39,0.206Z" style="fill:#f387a3;fill-rule:nonzero;"/><path d="M657.684,1014.26l0.559,-0c2.808,18.851 21.348,38.1 53.34,56.563l-0,-152.923l-53.899,0l-0,96.36Z" style="fill:#f387a3;fill-rule:nonzero;"/><path d="M2164.33,1063.22c24.443,-16.11 38.633,-32.677 41.02,-48.967l0.603,-0l0,-96.36l-41.623,0l0,145.327Z" style="fill:#f387a3;fill-rule:nonzero;"/><path d="M829.724,1117.94c15.444,4.557 31.796,8.975 49.111,13.203l0,-213.248l-49.111,0l0,200.045Z" style="fill:#f387a3;fill-rule:nonzero;"/><path d="M1246.79,1181.96c16.152,0.954 32.489,1.789 49.11,2.506l0,-276.14c-16.668,0.703 -32.925,1.651 -49.11,2.606l-0,271.028Z" style="fill:#f387a3;fill-rule:nonzero;"/><path d="M913.138,1139.09c15.76,3.435 32.112,6.738 49.111,9.903l-0,-231.1l-49.111,0l-0,221.197Z" style="fill:#f387a3;fill-rule:nonzero;"/><path d="M1079.96,1167.01c16.007,2.011 32.399,3.875 49.144,5.626l-0,-254.735l-49.144,0l0,249.109Z" style="fill:#f387a3;fill-rule:nonzero;"/><path d="M1163.38,1175.98c16.065,1.436 32.537,2.728 49.173,3.92l-0,-266.623c-16.669,1.179 -33.064,2.516 -49.173,3.952l-0,258.751Z" style="fill:#f387a3;fill-rule:nonzero;"/><path d="M1431.73,729.814c-462.302,0 -784.465,95.146 -784.465,180.562c-0,85.39 322.163,180.525 784.465,180.525c462.317,0 784.546,-95.135 784.546,-180.525c-0,-85.416 -322.229,-180.562 -784.546,-180.562Z" style="fill:#ffd792;fill-rule:nonzero;"/><path d="M1431.46,733.828c-457.848,-0 -776.919,93.143 -776.919,176.731c-0,83.578 319.071,176.715 776.919,176.715c457.892,-0 776.978,-93.137 776.978,-176.715c0,-83.588 -319.086,-176.731 -776.978,-176.731Zm0,361.083c-466.742,0 -792.018,-97.156 -792.018,-184.352c-0,-87.203 325.276,-184.375 792.018,-184.375c466.786,-0 792.077,97.172 792.077,184.375c0,87.196 -325.291,184.352 -792.077,184.352Z" style="fill:#fff;fill-rule:nonzero;"/><path d="M1502.24,1086.54l0,-11.3c8.276,-0.167 16.519,-0.373 24.686,-0.61l-23.447,11.878c-0.407,0.01 -0.832,0.016 -1.239,0.032Z" style="fill:#ffdfaa;fill-rule:nonzero;"/><path d="M1502.24,1087.14l0,-0.595c0.407,-0.016 0.832,-0.025 1.239,-0.032l-1.239,0.627Z" style="fill:#fff;fill-rule:nonzero;"/><path d="M1431.73,786.57c-100.834,-0 -195.03,4.53 -280.692,12.499l-503.773,-0l-0,97.584l0.574,-0c12.392,84.031 330.711,175.452 783.891,175.452c453.216,-0 771.532,-91.421 783.91,-175.452l0.636,-0l-0,-97.584l-503.835,-0c-85.662,-7.969 -179.841,-12.499 -280.711,-12.499Z" style="fill:#fbad56;fill-rule:nonzero;"/><path d="M654.538,895.117l0.559,1.115c12.243,83.022 327.133,171.914 776.36,171.914c449.257,0 764.147,-88.892 776.39,-171.914l0.588,-1.247l0,-92.231l-496.271,0c-90.087,-8.312 -184.069,-12.502 -280.707,-12.502c-96.608,0 -190.605,4.19 -279.319,12.438l-497.6,0.064l-0,92.363Zm776.919,180.673c-455.269,0 -775.379,-91.607 -791.204,-177.663l-0.814,-1.613l-0,-97.583c-0,-2.111 3.382,-3.824 7.549,-3.824l503.777,0c88.26,-8.27 183.161,-12.499 280.692,-12.499c97.546,0 192.447,4.229 282.066,12.56l502.476,-0.061c4.167,0 7.535,1.713 7.535,3.824l0,97.583l-0.89,1.797c-16.261,86.01 -336.237,177.479 -791.187,177.479Z" style="fill:#fff;fill-rule:nonzero;"/><path d="M743.706,968.95c14.717,6.496 31.069,12.858 49.158,19.005l-0,-189.175l-49.158,-0l-0,170.17Z" style="fill:#f387a3;fill-rule:nonzero;"/><path d="M1663.85,795.149l-0,264.75c16.726,-1.276 33.064,-2.677 49.169,-4.213l-0,-256.9l-4.058,-0c-14.678,-1.353 -29.94,-2.484 -45.111,-3.637Z" style="fill:#f387a3;fill-rule:nonzero;"/><path d="M1580.44,1064.95c16.578,-0.787 33.017,-1.642 49.111,-2.673l0,-269.608c-16.156,-1.031 -32.446,-2.018 -49.111,-2.795l0,275.076Z" style="fill:#f387a3;fill-rule:nonzero;"/><path d="M1997.5,1008.92c17.347,-4.437 33.772,-9.061 49.158,-13.8l-0,-196.337l-49.158,-0l-0,210.137Z" style="fill:#f387a3;fill-rule:nonzero;"/><path d="M1497.03,1067.82c16.544,-0.328 32.973,-0.755 49.111,-1.331l-0,-277.785c-16.229,-0.572 -32.49,-1.131 -49.111,-1.474l-0,280.59Z" style="fill:#f387a3;fill-rule:nonzero;"/><path d="M2080.91,983.62c18.194,-6.599 34.666,-13.372 49.114,-20.312l0,-164.528l-49.114,-0l-0,184.84Z" style="fill:#f387a3;fill-rule:nonzero;"/><path d="M1830.68,1041.59c16.865,-2.461 33.213,-5.073 49.111,-7.804l0,-235.003l-49.111,-0l0,242.807Z" style="fill:#f387a3;fill-rule:nonzero;"/><path d="M1747.26,1052.21c16.759,-1.825 33.111,-3.797 49.129,-5.876l-0,-247.55l-49.129,-0l-0,253.426Z" style="fill:#f387a3;fill-rule:nonzero;"/><path d="M1914.09,1027.5c17.046,-3.277 33.424,-6.696 49.173,-10.266l-0,-218.452l-49.173,-0l-0,228.718Z" style="fill:#f387a3;fill-rule:nonzero;"/><path d="M996.551,1035.9c15.88,2.632 32.323,5.093 49.111,7.454l0,-244.574l-49.111,-0l0,237.12Z" style="fill:#f387a3;fill-rule:nonzero;"/><path d="M1330.2,1067.03c16.185,0.51 32.534,0.902 49.126,1.163l-0,-280.966c-16.592,0.298 -32.941,0.703 -49.126,1.214l0,278.589Z" style="fill:#f387a3;fill-rule:nonzero;"/><path d="M1413.61,786.776l0,281.714c6.162,0.016 12.2,0.1 18.39,0.1c10.354,-0 20.53,-0.1 30.754,-0.183l-0,-281.503c-10.253,-0.083 -20.323,-0.334 -30.754,-0.334c-6.234,-0 -12.199,0.167 -18.39,0.206Z" style="fill:#f387a3;fill-rule:nonzero;"/><path d="M657.684,895.155l0.559,0c2.808,18.845 21.348,38.091 53.34,56.547l-0,-152.922l-53.899,-0l-0,96.375Z" style="fill:#f387a3;fill-rule:nonzero;"/><path d="M2164.33,944.113c24.443,-16.107 38.633,-32.667 41.02,-48.958l0.603,0l0,-96.375l-41.623,-0l0,145.333Z" style="fill:#f387a3;fill-rule:nonzero;"/><path d="M829.724,998.831c15.444,4.556 31.796,8.977 49.111,13.212l0,-213.263l-49.111,-0l0,200.051Z" style="fill:#f387a3;fill-rule:nonzero;"/><path d="M1246.79,1063.17c16.152,0.947 32.489,1.789 49.11,2.515l0,-276.149c-16.668,0.703 -32.925,1.642 -49.11,2.606l-0,271.028Z" style="fill:#f387a3;fill-rule:nonzero;"/><path d="M913.138,1019.99c15.76,3.431 32.112,6.734 49.111,9.899l-0,-231.105l-49.111,-0l-0,221.206Z" style="fill:#f387a3;fill-rule:nonzero;"/><path d="M1079.96,1047.89c16.007,2.011 32.399,3.878 49.144,5.626l-0,-254.741l-49.144,-0l0,249.115Z" style="fill:#f387a3;fill-rule:nonzero;"/><path d="M1163.38,1056.87c16.065,1.436 32.537,2.727 49.173,3.92l-0,-266.63c-16.669,1.186 -33.064,2.522 -49.173,3.959l-0,258.751Z" style="fill:#f387a3;fill-rule:nonzero;"/><path d="M1431.73,611.024c-462.302,0 -784.465,95.146 -784.465,180.562c-0,85.39 322.163,180.528 784.465,180.528c462.317,0 784.546,-95.138 784.546,-180.528c-0,-85.416 -322.229,-180.562 -784.546,-180.562Z" style="fill:#ffd792;fill-rule:nonzero;"/><path d="M1431.46,614.71c-457.848,-0 -776.919,93.143 -776.919,176.737c-0,83.578 319.071,176.715 776.919,176.715c457.892,0 776.978,-93.137 776.978,-176.715c0,-83.594 -319.086,-176.737 -776.978,-176.737Zm0,361.096c-466.742,0 -792.018,-97.156 -792.018,-184.359c-0,-87.212 325.276,-184.381 792.018,-184.381c466.786,-0 792.077,97.169 792.077,184.381c0,87.203 -325.291,184.359 -792.077,184.359Z" style="fill:#fff;fill-rule:nonzero;"/><path d="M1230.3,880.664l-139.907,-40.905l441.333,-223.456c69.401,2.14 134.987,6.452 195.935,12.509l-497.361,251.852Z" style="fill:#ffdfaa;fill-rule:nonzero;"/><path d="M1729.45,628.706c-60.947,-6.057 -126.534,-10.365 -195.935,-12.509l6.975,-3.524c69.1,2.287 134.309,6.782 195.045,12.952l-6.085,3.081Z" style="fill:#fff;fill-rule:nonzero;"/><path d="M1488.54,967.838c-10.19,-10.198 -25.605,-19.32 -42.756,-24.336l-13.918,-4.071l538.453,-272.641c30.118,6.879 57.747,14.257 82.673,22.01l-550.548,278.771c-4.621,0.097 -9.253,0.19 -13.904,0.267Z" style="fill:#ffdfaa;fill-rule:nonzero;"/><path d="M1492.62,971.498c-1.057,-1.231 -2.205,-2.462 -3.412,-3.692c4.651,-0.077 9.283,-0.171 13.904,-0.27l-7.731,3.913c-0.919,0.016 -1.842,0.033 -2.761,0.049Zm561.04,-282.734c-24.926,-7.75 -52.555,-15.127 -82.673,-22.009l5.145,-2.606c30.015,6.918 57.492,14.359 82.374,22.164l-4.846,2.451Z" style="fill:#fff;fill-rule:nonzero;"/><path d="M1529.43,126.605l1056.69,310.985l-638.837,-33.606l-1055,-311.673l637.148,34.294Z" style="fill:#466ab2;fill-rule:nonzero;"/><path d="M1771.06,1300.26c-0,4.916 -6.311,9.755 -19.113,13.486c-25.515,7.521 -66.88,7.521 -92.384,-0c-12.726,-3.731 -19.171,-8.57 -19.171,-13.486l-0,-10.159l130.668,-0l-0,10.159Z" style="fill:#6480c0;fill-rule:nonzero;"/><path d="M1659.58,1276.93c25.5,-7.509 66.869,-7.509 92.384,-0c25.529,7.4 25.529,19.445 -0,27.022c-25.515,7.438 -66.884,7.438 -92.384,-0c-25.591,-7.577 -25.591,-19.622 0,-27.022Z" style="fill:#fff;fill-rule:nonzero;"/><path d="M1761.53,1288.34c-0,4.144 -5.334,8.219 -16.262,11.435c-21.591,6.317 -56.707,6.317 -78.342,-0c-10.84,-3.216 -16.108,-7.291 -16.108,-11.435l-0,-486.265l110.712,0l-0,486.265Z" style="fill:#b4c6d3;fill-rule:nonzero;"/><path d="M1667.01,790.657c21.634,-6.33 56.755,-6.33 78.342,-0c21.605,6.269 21.605,16.534 -0,22.932c-21.587,6.3 -56.708,6.3 -78.342,-0c-21.591,-6.398 -21.591,-16.663 -0,-22.932Z" style="fill:#cccecd;fill-rule:nonzero;"/><path d="M2128.23,1195.99c0,4.871 -6.416,9.793 -19.175,13.501c-25.529,7.532 -66.85,7.532 -92.35,0c-12.774,-3.708 -19.204,-8.63 -19.204,-13.501l-0,-10.16l130.729,0l0,10.16Z" style="fill:#6480c0;fill-rule:nonzero;"/><path d="M2016.75,1172.64c25.5,-7.483 66.822,-7.483 92.351,0c25.547,7.461 25.547,19.539 -0,27.048c-25.529,7.493 -66.851,7.493 -92.351,-0c-25.663,-7.509 -25.663,-19.587 0,-27.048Z" style="fill:#fff;fill-rule:nonzero;"/><path d="M2116.08,1184.09c0,4.158 -5.391,8.287 -16.199,11.368c-21.653,6.381 -56.755,6.381 -78.418,0c-10.78,-3.081 -16.138,-7.21 -16.138,-11.368l-0,-486.28l110.755,-0l0,486.28Z" style="fill:#b4c6d3;fill-rule:nonzero;"/><path d="M2021.5,686.409c21.664,-6.362 56.766,-6.362 78.415,0c21.591,6.275 21.591,16.519 -0,22.864c-21.649,6.362 -56.751,6.362 -78.415,0.032c-21.576,-6.377 -21.576,-16.621 0,-22.896Z" style="fill:#cccecd;fill-rule:nonzero;"/><path d="M2490.53,1089.46c-0,4.822 -6.344,9.777 -19.117,13.469c-25.591,7.493 -66.913,7.493 -92.442,-0c-12.77,-3.692 -19.142,-8.647 -19.142,-13.469l-0,-10.205l130.701,-0l-0,10.205Z" style="fill:#6480c0;fill-rule:nonzero;"/><path d="M2378.95,1066.43c25.529,-7.537 66.851,-7.537 92.442,0c25.529,7.477 25.529,19.539 -0,27.048c-25.591,7.467 -66.913,7.467 -92.442,-0c-25.5,-7.509 -25.5,-19.571 0,-27.048Z" style="fill:#fff;fill-rule:nonzero;"/><path d="M2481.05,1077.88c0,4.097 -5.42,8.254 -16.232,11.406c-21.663,6.375 -56.765,6.375 -78.4,0c-10.841,-3.152 -16.17,-7.309 -16.17,-11.406l-0,-486.326l110.802,0l0,486.326Z" style="fill:#b4c6d3;fill-rule:nonzero;"/><path d="M2386.48,580.147c21.634,-6.346 56.736,-6.346 78.403,-0c21.602,6.253 21.602,16.541 0,22.903c-21.667,6.316 -56.769,6.316 -78.403,-0c-21.635,-6.362 -21.635,-16.65 -0,-22.903Z" style="fill:#cccecd;fill-rule:nonzero;"/><path d="M1586.35,862.951l-177.952,-52.013l0,-45.488l177.952,52.039l-0,45.462Z" style="fill:#6480c0;fill-rule:nonzero;"/><path d="M1585.65,863.115l1065.1,-311.352l-0,-39.73l-1065.1,311.375l-0,39.707Z" style="fill:#fff;fill-rule:nonzero;"/><path d="M2750.67,485.304l-163.855,-47.894l-638.833,-33.609l218.205,76.731l584.483,4.772Z" style="fill:#325dab;fill-rule:nonzero;"/><path d="M1309.35,810.845l163.855,47.922l669.365,-388.166l-30.557,-18.957l-163.928,-47.843l-638.735,407.044Z" style="fill:#466ab2;fill-rule:nonzero;"/><path d="M1473.57,858.774l1277.57,-373.464l-638.764,-33.663l-638.805,407.127Z" style="fill:#fff;fill-rule:nonzero;"/><path d="M1747.26,730.116l763.652,-223.224l-34.423,-1.789l-694.955,203.152l-34.274,21.861Z" style="fill:#6480c0;fill-rule:nonzero;"/><path d="M1781.15,708.107l694.956,-203.149l-347.441,-18.334l-347.515,221.483Z" style="fill:#b4c6d3;fill-rule:nonzero;"/><path d="M1500.43,1317.43c0,17.832 -35.781,30.73 -66.262,21.817l-990.656,-298.381c-30.514,-8.926 -55.438,-30.801 -55.438,-48.633l-17.122,-322.18c-0,-21.528 42.061,-28.538 72.56,-19.622l1001.49,292.79c30.485,8.9 55.425,30.778 55.425,48.597l0,325.612Z" style="fill:#b4c6d3;fill-rule:nonzero;"/><path d="M1483.31,1323.08c0,17.82 -24.926,25.114 -55.436,16.201l-1001.48,-292.778c-30.498,-8.913 -55.438,-30.8 -55.438,-48.62l-0,-325.601c-0,-17.83 24.94,-25.12 55.438,-16.213l1001.48,292.79c30.51,8.897 55.436,30.777 55.436,48.613l0,325.608Z" style="fill:#466ab2;fill-rule:nonzero;"/><path d="M1428.11,1339.55l-376.804,-110.153l-0.014,-0.006l47.981,14.028l-0,-0.007l328.837,96.138Z" style="fill:#005eac;fill-rule:nonzero;"/><path d="M1428.46,948.942l-460.581,-134.656l0.015,-0l460.566,134.656Z" style="fill:#6f89c5;fill-rule:nonzero;"/><path d="M1484.13,1228.38c-77.615,-83.234 -201.34,-158.58 -340.735,-199.335c-27.84,-8.138 -55.047,-14.532 -81.39,-19.246c-46.698,-51.441 -113.186,-99.794 -190.576,-137.223c21.678,-26.437 54.88,-46.143 96.699,-58.285l460.566,134.656c30.51,8.897 55.436,30.775 55.436,48.61l0,230.823Z" style="fill:#3c64af;fill-rule:nonzero;"/><path d="M692.684,733.969l-266.44,-77.897l266.425,77.874c0,0.01 0.015,0.017 0.015,0.023Zm-321.729,-64.056c1.48,-11.159 13.513,-17.588 30.452,-17.643c-16.939,0.055 -28.972,6.484 -30.452,17.643Zm30.844,-17.643l-0.181,0l0.181,0Z" style="fill:#4c7b8b;fill-rule:nonzero;"/><path d="M385.872,880.655c-5.059,-2.783 -10.025,-5.633 -14.917,-8.547l-0,-199.823c-0,-0.81 0.061,-1.597 0.151,-2.372c1.479,-11.159 13.512,-17.588 30.451,-17.643l0.392,0c7.383,0.017 15.688,1.241 24.444,3.802l266.444,77.897c29.725,29.875 49.91,61.716 56.689,92.141c-60.239,-17.383 -117.172,-25.631 -167.688,-25.631c-94.255,0 -166.224,28.674 -195.966,80.176Z" style="fill:#0759a9;fill-rule:nonzero;"/><path d="M1051.15,1229.11l-244.188,-71.388l244.188,71.388Zm-332.343,-97.156l-292.318,-85.461l292.318,85.461Zm-292.695,-85.577c-0.03,-0.006 -0.044,-0.006 -0.062,-0.016c0.018,0.01 0.032,0.01 0.062,0.016Zm-0.407,-0.122l-0.015,-0l0.015,-0Z" style="fill:#0d68b3;fill-rule:nonzero;"/><path d="M718.711,1132.02l-292.318,-85.461c-0.12,-0.038 -0.258,-0.077 -0.378,-0.112c-0.029,-0.01 -0.044,-0.01 -0.062,-0.016c-0.12,-0.039 -0.24,-0.068 -0.345,-0.11l-0.015,0c-8.243,-2.483 -16.017,-5.921 -23.04,-9.938c-20.29,-33.152 -31.598,-66.5 -31.598,-98.094c-0,-21.489 5.209,-40.755 14.917,-57.582c32.172,17.714 67.743,32.751 105.184,43.682c41.896,12.248 81.481,18.051 116.569,18.057c85.618,0 144.393,-34.569 144.393,-94.342c0,-7.203 -0.846,-14.532 -2.492,-21.942c0.832,0.238 1.66,0.482 2.492,0.727c41.413,12.103 81.267,27.613 118.592,45.654c-18.405,22.446 -28.49,49.751 -28.49,81.364c0,18.623 3.488,37.779 10.129,57.167c-74.611,18.935 -124.118,60.72 -133.538,120.946Z" style="fill:#466ab2;fill-rule:nonzero;"/><path d="M1099.27,1243.42l-47.981,-14.028l47.981,14.018l-0,0.01Z" style="fill:#2c66b1;fill-rule:nonzero;"/><path d="M852.888,1011.22c-6.645,-19.388 -10.132,-38.544 -10.132,-57.167c-0,-31.61 10.089,-58.918 28.493,-81.361c77.387,37.426 143.878,85.779 190.573,137.22c-38.27,-6.85 -74.716,-10.166 -108.58,-10.166c-36.824,-0 -70.581,3.913 -100.354,11.474Z" style="fill:#4167b0;fill-rule:nonzero;"/><path d="M608.348,942.673c-35.088,-0.009 -74.673,-5.809 -116.569,-18.057c-37.441,-10.931 -73.012,-25.968 -105.185,-43.682c29.743,-51.502 101.712,-80.178 195.963,-80.178c50.52,-0 107.453,8.251 167.692,25.633c1.646,7.41 2.492,14.739 2.492,21.942c0,59.773 -58.778,94.342 -144.393,94.342Z" style="fill:#3564af;fill-rule:nonzero;"/><path d="M1451.69,1343.19l-0.105,-0l0.105,-0Zm0.152,-0c5.297,-0.007 10.129,-0.643 14.296,-1.858l0.015,0c-4.182,1.215 -8.999,1.851 -14.311,1.858Zm-23.523,-3.442c-0.076,-0.022 -0.149,-0.045 -0.24,-0.067c0.091,0.022 0.164,0.045 0.24,0.067Zm-0.498,-0.144c-0.258,-0.068 -0.512,-0.145 -0.77,-0.212l-328.841,-96.141l328.841,96.141c0.258,0.067 0.512,0.144 0.77,0.212Z" style="fill:#3870b8;fill-rule:nonzero;"/><path d="M1468.35,1341.33c10.1,-2.927 16.352,-9.212 16.352,-18.141l0,-94.785l0,94.785c0,8.929 -6.252,15.214 -16.337,18.141l-0.015,0Z" style="fill:#6a84c2;fill-rule:nonzero;"/><path d="M1453.19,1343.33l-0.255,-0c-7.051,-0.006 -14.931,-1.118 -23.265,-3.441c-0.077,-0.023 -0.149,-0.045 -0.244,-0.068c-0.073,-0.022 -0.163,-0.054 -0.254,-0.077c-0.258,-0.067 -0.516,-0.144 -0.77,-0.215l-328.841,-96.138c21.816,-21.688 34.078,-49.263 34.092,-82.113c-0.014,-48.643 -26.677,-101.443 -71.941,-151.319c26.347,4.717 53.551,11.107 81.39,19.249c139.395,40.755 263.12,116.101 340.739,199.335l0,94.789c0,8.929 -6.252,15.214 -16.352,18.141c-4.167,1.214 -8.999,1.851 -14.299,1.857Z" style="fill:#4f70b6;fill-rule:nonzero;"/><path d="M1052.59,1229.2l-244.188,-71.384l-88.155,-25.772l332.343,97.15l-0,0.006Z" style="fill:#4073b9;fill-rule:nonzero;"/><path d="M1052.59,1229.38l-332.343,-97.151c9.42,-60.225 58.927,-102.011 133.538,-120.946c25.845,75.54 99.282,154.507 198.805,218.097Z" style="fill:#5675b9;fill-rule:nonzero;"/><path d="M1099.27,1243.42l-47.981,-14.022l-0,-0.006l47.981,14.028Z" style="fill:#4872b8;fill-rule:nonzero;"/><path d="M1099.97,1243.33l-47.977,-14.028c-99.526,-63.59 -172.96,-142.557 -198.809,-218.096c29.773,-7.561 63.534,-11.474 100.355,-11.474c33.863,-0 70.309,3.316 108.583,10.166c45.26,49.876 71.926,102.676 71.94,151.319c-0.014,32.85 -12.276,60.425 -34.092,82.113Z" style="fill:#5373b8;fill-rule:nonzero;"/><path d="M661.84,1035.39l-51.073,-15.204l0,10.809l51.073,15.175l-0,-10.78Z" style="fill:#fff;fill-rule:nonzero;"/><path d="M575.614,1009.35l-37.834,-11.268l0,10.803l37.834,11.245l0,-10.78Z" style="fill:#fff;fill-rule:nonzero;"/><path d="M537.78,917.897l0,26.251l120.841,35.932l0,-26.216l-120.841,-35.967Z" style="fill:#002e44;fill-rule:nonzero;"/><path d="M772.199,1090.58l-234.419,-69.736l0,13.717l234.419,69.717l0,-13.698Z" style="fill:#fff;fill-rule:nonzero;"/><path d="M769.773,985.873l-0,26.234l120.855,35.948l-0,-26.222l-120.855,-35.96Z" style="fill:#002e44;fill-rule:nonzero;"/><path d="M999.156,1053.19l0,26.251l123.195,36.632l0,-26.212l-123.195,-36.671Z" style="fill:#002e44;fill-rule:nonzero;"/><path d="M1231.14,1120.83l-0,26.251l124.375,36.976l0,-26.222l-124.375,-37.005Z" style="fill:#002e44;fill-rule:nonzero;"/><path d="M644.906,913.351c0,3.226 -4.559,4.543 -10.099,2.93l-152.121,-44.478c-5.526,-1.629 -10.071,-5.594 -10.071,-8.836l0,-59.233c0,-3.232 4.545,-4.562 10.071,-2.949l152.121,44.468c5.54,1.613 10.099,5.604 10.099,8.862l0,59.236Z" style="fill:#ffd792;fill-rule:nonzero;"/><path d="M1341.32,985.185c0,19.478 -26.993,27.353 -60.297,17.637c-33.289,-9.755 -60.3,-33.416 -60.3,-52.887c-0,-19.471 27.011,-27.369 60.3,-17.653c33.289,9.755 60.297,33.422 60.297,52.903Z" style="fill:#f1617e;fill-rule:nonzero;"/><path d="M1437.74,1013.23c0,19.464 -26.978,27.368 -60.3,17.643c-33.289,-9.755 -60.268,-33.416 -60.268,-52.878c-0,-19.493 26.979,-27.391 60.268,-17.636c33.322,9.732 60.3,33.416 60.3,52.871Z" style="fill:#002e44;fill-rule:nonzero;"/><path d="M253.656,499.284l638.581,-406.973l1055,311.673l-638.608,407.066l-1054.97,-311.766Z" style="fill:#6480c0;fill-rule:nonzero;"/><path d="M2876.58,686.544l-69.888,5.919c20.458,-28.667 -8.955,-33.493 -8.955,-33.493l29.366,-23.857l49.477,51.431Z" style="fill:#f6a0a6;fill-rule:nonzero;"/><path d="M2587.1,633.596c25.605,16.843 100.22,42.245 184.825,67.272c38.455,11.393 17.453,46.474 -33.366,42.306c-50.832,-4.135 -196.268,-91.925 -196.268,-91.925c8.003,-20.49 44.809,-17.653 44.809,-17.653Z" style="fill:#f6a0a6;fill-rule:nonzero;"/><path d="M2492.03,583.611c24.458,7.017 22.329,-2.648 31.415,-3.197c9.09,-0.566 45.55,8.999 50.655,12.399c6.114,4.039 -4.712,25.267 19.069,43.951c4.269,3.364 -44.704,16.856 -44.704,16.856c0,-0 -52.707,-21.229 -62.429,-28.5c-9.74,-7.255 -37.006,-10.597 -28.338,-12.843c8.665,-2.249 30.616,1.742 42.634,4.203c12.003,2.439 9.151,-8.132 -5.057,-18.597c-14.253,-10.452 -63.396,-21.903 -56.617,-26.543c4.378,-3.027 33.867,6.68 53.372,12.271Z" style="fill:#f6a0a6;fill-rule:nonzero;"/><path d="M2982.66,1044.6c-0,0 -46.034,58.697 -9.239,100.408c59.817,67.738 39.327,213.553 44.279,230.663c4.985,17.116 -55.77,35.501 -70.654,1.275c-14.903,-34.225 -85.892,-184.77 -117.31,-220.862c-31.433,-36.06 -19.233,-103.576 -19.233,-103.576l172.157,-7.908Z" style="fill:#f6a0a6;fill-rule:nonzero;"/><path d="M2851.4,1090.54c-28.668,29.92 -58.756,118.414 -43.828,173.679c14.917,55.248 -16.876,165.974 -17.693,183.321c-0.847,17.328 -63.53,30.013 -66.746,-5.154c-3.229,-35.18 -36.191,-174.964 -55.032,-213.684c-18.855,-38.737 13.453,-156.464 13.453,-156.464c-0,0 198.518,-11.615 169.846,18.302Z" style="fill:#f6a0a6;fill-rule:nonzero;"/><path d="M2684.5,1488.65c41.035,-12.553 36.203,-49.577 36.203,-49.577c52.965,1.041 77.375,-4.11 77.375,-4.11c0,11.281 25.442,30.585 28.49,47.541c2.732,15.136 -22.055,24.104 -22.055,37.323l-21.773,-0l10.946,-30.923c-35.614,0 -80.997,31.289 -125.356,31.013c-46.561,-0.277 -59.723,-7.416 -63.273,-14.861c-3.549,-7.438 38.452,-3.836 79.443,-16.406Z" style="fill:#002e44;fill-rule:nonzero;"/><path d="M2906.1,1427.96c40.991,-12.576 36.177,-49.6 36.177,-49.6c52.947,1.041 77.372,-4.11 77.372,-4.11c0,23.199 18.343,30.585 21.395,47.541c2.732,15.136 -18.18,24.104 -18.18,37.313l-18.553,-0l7.051,-30.89c-35.6,-0 -65.826,31.266 -110.196,30.99c-46.564,-0.277 -70.992,-7.416 -74.538,-14.861c-3.546,-7.416 38.47,-3.836 79.472,-16.383Z" style="fill:#002e44;fill-rule:nonzero;"/><path d="M2948.82,845.305c-0,-0 13.347,24.67 48.627,54.818c35.284,30.157 68.257,74.797 56.239,109.16c-11.894,33.949 13.678,168.503 38.212,237.307c-0,0 -120.932,11.863 -166.704,28.179c-160.081,57.089 -333.371,3.714 -333.371,3.714c0,-146.509 120.779,-336.375 145.389,-420.374l211.608,-12.804Z" style="fill:#f1617e;fill-rule:nonzero;"/><path d="M2735.48,808.56c-2.43,-4.228 -55.018,-17.408 -34.767,-43.704c10.401,-13.511 19.505,-22.141 30.858,-43.736c7.397,-14.096 38.59,-26.858 77.735,-32.474c27.357,1.275 52.661,-1.729 75.974,-6.019c67.286,8.47 75.472,63.606 75.668,95.833c0.163,30.765 -6.22,65.556 28.759,115.169c-76.831,34.801 -202.834,51.502 -282.008,30.02c9.587,-33.423 42.306,-89.792 27.781,-115.089Z" style="fill:#002e44;fill-rule:nonzero;"/><path d="M2749.56,591.704c-4.861,-8.546 -1.98,-19.943 -1.072,-23.783c7.851,-33.261 103.642,8.364 135.772,35.405c32.142,27.038 -94.479,76.927 -121.581,53.276c-31.855,-27.822 -25.529,-45.709 -21.602,-50.747c4.043,-5.177 10.626,-10.388 8.483,-14.151Z" style="fill:#f6a0a6;fill-rule:nonzero;"/><path d="M2876.84,530.29c69.009,12.733 94.872,-0.897 124.568,42.946c24.49,36.137 71.625,6.59 96.053,48.263c24.41,41.699 -24.806,40.491 30.27,68.143c53.34,26.774 -14.779,61.992 -35.222,82.029c-20.442,20.021 -52.238,29.004 -21.638,60.904c0,-0 -147.714,-8.142 -126.635,-57.235c21.089,-49.095 -76.878,-29.852 -61.994,-64.537c11.946,-27.825 -61.535,-19.632 -56.177,-37.313c5.316,-17.704 -48.493,-24.693 -9.013,-58.575c9.845,-8.447 -9.148,-11.856 -16.138,-23.895c-3.804,-6.561 -17.874,25.193 -9.209,50.246c-24.08,-23.745 -48.359,-64.573 -45.929,-83.44c2.282,-17.791 62.066,-40.273 131.064,-27.536Z" style="fill:#005a7c;fill-rule:nonzero;"/><path d="M2834.89,600.678c2.506,7.4 -9.751,17.171 -20.955,22.193c-11.219,4.993 -21.152,1.391 -18.314,-1.558c3.607,-3.769 2.31,-15.208 11.672,-24.985c2.685,-2.783 25.09,-3.049 27.597,4.35Z" style="fill:#f6a0a6;fill-rule:nonzero;"/><path d="M2724.98,760.001c3.546,-43.585 32.73,-57.52 51.589,-60.839c54.938,-9.646 79.802,23.677 69.161,59.737c-10.147,34.409 -31.825,83.826 -86.887,120.756c-21.711,14.546 -63.773,-25.672 -59.908,-36.436c3.88,-10.792 23.011,-46.075 26.045,-83.218Z" style="fill:#f6a0a6;fill-rule:nonzero;"/><path d="M2367.46,860.563c23.127,-1.641 45.776,0.887 35.945,-2.66c-11.081,-4.007 -22.568,-9.845 -19.368,-15.718c2.398,-4.434 23.702,10.06 39.782,10.741c22.204,0.925 27.552,9.35 45.594,9.687c-0,0 2.248,29.843 -5.09,29.821c-7.368,-0.016 -31.596,1.057 -47.843,2.4c-16.261,1.362 -32.188,12.393 -44.719,10.696c-7.593,-1.041 -27.6,-16.46 -29.801,-20.624c-2.205,-4.174 15.487,-14 3.473,-10.835c-2.147,0.566 -21.093,6.735 -23.237,7.41c-21.514,6.75 -35.116,4.08 -28.428,1.468c11.339,-4.473 50.608,-20.728 73.692,-22.386Z" style="fill:#f6a0a6;fill-rule:nonzero;"/><path d="M2455.37,862.691c38.921,1.879 202.638,-20.037 245.289,-23.273c19.401,-1.491 90.073,27.883 52.178,42.757c-37.911,14.902 -303.595,10.101 -303.595,10.101c-22.452,-15.779 6.128,-29.585 6.128,-29.585Z" style="fill:#f6a0a6;fill-rule:nonzero;"/></g></svg>