<?xml version="1.0" encoding="UTF-8" standalone="no"?><!DOCTYPE svg PUBLIC "-//W3C//DTD SVG 1.1//EN" "http://www.w3.org/Graphics/SVG/1.1/DTD/svg11.dtd"><svg width="100%" height="100%" viewBox="0 0 259 200" version="1.1" xmlns="http://www.w3.org/2000/svg" xmlns:xlink="http://www.w3.org/1999/xlink" xml:space="preserve" xmlns:serif="http://www.serif.com/" style="fill-rule:evenodd;clip-rule:evenodd;stroke-linejoin:round;stroke-miterlimit:2;"><g><path d="M0,22.087l180.428,53.728l-0,122.697l-180.428,-53.725l0,-122.7Z" style="fill:#abbadf;fill-rule:nonzero;"/><path d="M16.688,58.061l0,81.876l146.123,43.408l0,-81.88l-146.123,-43.404Z" style="fill:url(#_Linear1);"/><path d="M16.688,36.502l0,16.388c0,0.971 0.999,1.863 2.615,2.345l135.786,40.328c3.451,1.024 7.743,-0.275 7.743,-2.345l0,-16.388c0,-0.967 -0.999,-1.863 -2.615,-2.345l-135.786,-40.328c-3.457,-1.024 -7.743,0.271 -7.743,2.345Z" style="fill:url(#_Linear2);"/><path d="M57.341,57.479l-3.238,-5.936l-3.176,4.001l6.414,1.935Zm-9.79,2.284l-6.469,-1.945l9.742,-10.968l6.223,1.874l9.967,16.899l-6.223,-1.874l-1.622,-2.948l-10.036,-3.023l-1.582,1.985Z" style="fill:#fff;fill-rule:nonzero;"/><path d="M92.541,59.068l-0,2.99l-7.633,-2.188l-0,10.903l-6.059,-1.823l0,-10.907l-6.955,-2.091l-0,-2.994l20.647,6.11Z" style="fill:#fff;fill-rule:nonzero;"/><path d="M125.065,68.851l-0,13.901l-5.394,-1.624l-0,-8.804l-5.395,5.788l-3.977,-1.196l-5.408,-9.039l-0.021,8.797l-5.374,-1.62l-0,-13.897l6.627,1.995l6.161,9.964l6.161,-6.256l6.62,1.991Z" style="fill:#fff;fill-rule:nonzero;"/><path d="M16.688,139.946l146.123,43.408l0,-20.171l-117.857,-34.847l-28.266,11.61Z" style="fill:url(#_Linear3);"/><path d="M162.791,101.454l-0,61.716l-117.857,-34.85l23.857,-54.782l94,27.916Z" style="fill:#8196cd;fill-rule:nonzero;"/><path d="M158.939,102.746l-84.86,-25.443l-18.874,43.436l84.819,25.435l18.915,-43.428Z" style="fill:url(#_Linear4);"/><path d="M154.643,107.615l-69.265,-20.774l-15.41,35.463l69.231,20.76l15.444,-35.449Z" style="fill:url(#_Linear5);"/><path d="M128.52,144.444l-3.046,5.682l-58.073,-17.241l3.225,-5.971l57.894,17.53Z" style="fill:url(#_Linear6);"/><path d="M127.789,145.742l-2.383,4.368l-52.87,-15.824l2.54,-4.611l52.713,16.067Z" style="fill:#31469d;fill-rule:nonzero;"/><path d="M126.323,148.529l-0.876,1.563l-58.046,-17.251l0.849,-1.492l58.073,17.18Z" style="fill:url(#_Linear7);"/><path d="M149.567,128.67l10.824,3.191l1.745,-4.018l-10.817,-3.187l-1.752,4.014Z" style="fill:url(#_Linear8);"/><path d="M144.432,139.885l10.815,3.187l1.753,-4.015l-10.815,-3.191l-1.753,4.019Z" style="fill:url(#_Linear9);"/><path d="M162.787,114.902l-6.983,-2.127l-1.745,4.019l8.728,2.655l0,-4.547Z" style="fill:url(#_Linear10);"/><path d="M61.626,152.151l41.753,12.623c0.951,0.285 2.143,0.232 2.984,-0.139l20.647,-9.14c1.363,-0.603 1.171,-1.73 -0.377,-2.198l-41.265,-12.481c-0.938,-0.281 -2.102,-0.231 -2.944,0.125l-21.126,8.994c-1.41,0.599 -1.232,1.742 0.328,2.216Z" style="fill:#abbadf;fill-rule:nonzero;"/><path d="M111.776,154.861l5.477,1.653l0.719,-0.029l4.402,-1.852l-0.083,-0.546l-5.476,-1.656l-0.719,0.029l-4.402,1.852l0.082,0.549Z" style="fill:url(#_Linear11);"/><path d="M102.789,152.264l5.476,1.656l0.726,-0.028l4.388,-1.853l-0.075,-0.542l-5.477,-1.659l-0.725,0.031l-4.396,1.849l0.083,0.546Z" style="fill:url(#_Linear12);"/><path d="M94.444,149.584l5.477,1.652l0.719,-0.029l4.402,-1.848l-0.083,-0.549l-5.483,-1.65l-0.712,0.025l-4.402,1.853l0.082,0.546Z" style="fill:url(#_Linear13);"/><path d="M104.714,157.783l5.477,1.655l0.718,-0.028l4.395,-1.849l-0.082,-0.546l-5.476,-1.655l-0.719,0.028l-4.395,1.849l0.082,0.546Z" style="fill:url(#_Linear14);"/><path d="M96.369,155.109l5.47,1.655l0.725,-0.027l4.395,-1.85l-0.075,-0.549l-5.477,-1.656l-0.725,0.029l-4.395,1.852l0.082,0.546Z" style="fill:url(#_Linear15);"/><path d="M87.382,152.516l5.476,1.659l0.719,-0.032l4.395,-1.852l-0.082,-0.546l-5.476,-1.657l-0.719,0.033l-4.395,1.845l0.082,0.55Z" style="fill:url(#_Linear16);"/><path d="M97.653,160.714l5.476,1.656l0.719,-0.028l4.395,-1.857l-0.082,-0.542l-5.47,-1.655l-0.726,0.028l-4.395,1.852l0.083,0.546Z" style="fill:url(#_Linear17);"/><path d="M89.307,158.037l5.477,1.652l0.718,-0.025l4.402,-1.851l-0.082,-0.546l-5.477,-1.657l-0.718,0.029l-4.402,1.848l0.082,0.55Z" style="fill:url(#_Linear18);"/><path d="M80.315,155.44l5.484,1.656l0.719,-0.028l4.395,-1.849l-0.082,-0.55l-5.47,-1.652l-0.726,0.025l-4.395,1.852l0.075,0.546Z" style="fill:url(#_Linear19);"/><path d="M78.395,144.899l11.816,3.575l0.726,-0.031l4.388,-1.846l-0.075,-0.549l-11.816,-3.573l-0.726,0.029l-4.395,1.849l0.082,0.546Z" style="fill:url(#_Linear20);"/><path d="M71.976,147.831l11.816,3.571l0.719,-0.027l4.395,-1.853l-0.076,-0.542l-11.823,-3.576l-0.718,0.032l-4.395,1.845l0.082,0.55Z" style="fill:url(#_Linear21);"/><path d="M64.915,150.675l11.816,3.576l0.726,-0.032l4.402,-1.849l-0.083,-0.55l-11.822,-3.571l-0.719,0.027l-4.402,1.856l0.082,0.543Z" style="fill:url(#_Linear22);"/><path d="M254.607,53.711l-48.276,136.961l-25.952,7.812l-0,-122.696l74.228,-22.077Z" style="fill:url(#_Linear23);"/><path d="M74.236,0l180.42,53.722l-74.228,22.076l-180.428,-53.728l74.236,-22.07Z" style="fill:#b7ceeb;fill-rule:nonzero;"/></g><defs><linearGradient id="_Linear1" x1="0" y1="0" x2="1" y2="0" gradientUnits="userSpaceOnUse" gradientTransform="matrix(146.122,0,0,117.428,16.6882,120.701)"><stop offset="0" style="stop-color:#b7ceeb;stop-opacity:1"/><stop offset="1" style="stop-color:#abbadf;stop-opacity:1"/></linearGradient><linearGradient id="_Linear2" x1="0" y1="0" x2="1" y2="0" gradientUnits="userSpaceOnUse" gradientTransform="matrix(146.142,0,0,117.444,16.6882,64.8634)"><stop offset="0" style="stop-color:#f1677f;stop-opacity:1"/><stop offset="1" style="stop-color:#f9a468;stop-opacity:1"/></linearGradient><linearGradient id="_Linear3" x1="0" y1="0" x2="1" y2="0" gradientUnits="userSpaceOnUse" gradientTransform="matrix(146.122,0,0,117.428,16.6882,155.844)"><stop offset="0" style="stop-color:#4b5ba9;stop-opacity:1"/><stop offset="1" style="stop-color:#6c77b9;stop-opacity:1"/></linearGradient><linearGradient id="_Linear4" x1="0" y1="0" x2="1" y2="0" gradientUnits="userSpaceOnUse" gradientTransform="matrix(103.729,0,0,83.36,55.2025,111.739)"><stop offset="0" style="stop-color:#4b5ba9;stop-opacity:1"/><stop offset="1" style="stop-color:#6c77b9;stop-opacity:1"/></linearGradient><linearGradient id="_Linear5" x1="0" y1="0" x2="1" y2="0" gradientUnits="userSpaceOnUse" gradientTransform="matrix(84.6763,0,0,68.0485,69.9679,114.954)"><stop offset="0" style="stop-color:#00aab7;stop-opacity:1"/><stop offset="1" style="stop-color:#00b3c4;stop-opacity:1"/></linearGradient><linearGradient id="_Linear6" x1="0" y1="0" x2="1" y2="0" gradientUnits="userSpaceOnUse" gradientTransform="matrix(61.1239,0,0,49.1211,67.4013,138.52)"><stop offset="0" style="stop-color:#4b5ba9;stop-opacity:1"/><stop offset="1" style="stop-color:#6c77b9;stop-opacity:1"/></linearGradient><linearGradient id="_Linear7" x1="0" y1="0" x2="1" y2="0" gradientUnits="userSpaceOnUse" gradientTransform="matrix(58.9248,0,0,47.3538,67.4001,140.721)"><stop offset="0" style="stop-color:#4b5ba9;stop-opacity:1"/><stop offset="1" style="stop-color:#6c77b9;stop-opacity:1"/></linearGradient><linearGradient id="_Linear8" x1="0" y1="0" x2="1" y2="0" gradientUnits="userSpaceOnUse" gradientTransform="matrix(12.5686,0,0,10.1005,149.567,128.257)"><stop offset="0" style="stop-color:#e9eaf6;stop-opacity:1"/><stop offset="1" style="stop-color:#c6cfea;stop-opacity:1"/></linearGradient><linearGradient id="_Linear9" x1="0" y1="0" x2="1" y2="0" gradientUnits="userSpaceOnUse" gradientTransform="matrix(12.5686,0,0,10.1005,144.432,139.468)"><stop offset="0" style="stop-color:#e9eaf6;stop-opacity:1"/><stop offset="1" style="stop-color:#c6cfea;stop-opacity:1"/></linearGradient><linearGradient id="_Linear10" x1="0" y1="0" x2="1" y2="0" gradientUnits="userSpaceOnUse" gradientTransform="matrix(8.7309,0,0,7.01642,154.061,116.111)"><stop offset="0" style="stop-color:#e9eaf6;stop-opacity:1"/><stop offset="1" style="stop-color:#c6cfea;stop-opacity:1"/></linearGradient><linearGradient id="_Linear11" x1="0" y1="0" x2="1" y2="0" gradientUnits="userSpaceOnUse" gradientTransform="matrix(11.1579,0,0,8.96681,111.453,154.473)"><stop offset="0" style="stop-color:#e9eaf6;stop-opacity:1"/><stop offset="1" style="stop-color:#c6cfea;stop-opacity:1"/></linearGradient><linearGradient id="_Linear12" x1="0" y1="0" x2="1" y2="0" gradientUnits="userSpaceOnUse" gradientTransform="matrix(11.1512,0,0,8.96145,102.473,151.878)"><stop offset="0" style="stop-color:#e9eaf6;stop-opacity:1"/><stop offset="1" style="stop-color:#c6cfea;stop-opacity:1"/></linearGradient><linearGradient id="_Linear13" x1="0" y1="0" x2="1" y2="0" gradientUnits="userSpaceOnUse" gradientTransform="matrix(11.1579,0,0,8.96681,94.1249,149.204)"><stop offset="0" style="stop-color:#e9eaf6;stop-opacity:1"/><stop offset="1" style="stop-color:#c6cfea;stop-opacity:1"/></linearGradient><linearGradient id="_Linear14" x1="0" y1="0" x2="1" y2="0" gradientUnits="userSpaceOnUse" gradientTransform="matrix(11.1511,0,0,8.96136,104.391,157.398)"><stop offset="0" style="stop-color:#e9eaf6;stop-opacity:1"/><stop offset="1" style="stop-color:#c6cfea;stop-opacity:1"/></linearGradient><linearGradient id="_Linear15" x1="0" y1="0" x2="1" y2="0" gradientUnits="userSpaceOnUse" gradientTransform="matrix(11.1578,0,0,8.96671,96.046,154.728)"><stop offset="0" style="stop-color:#e9eaf6;stop-opacity:1"/><stop offset="1" style="stop-color:#c6cfea;stop-opacity:1"/></linearGradient><linearGradient id="_Linear16" x1="0" y1="0" x2="1" y2="0" gradientUnits="userSpaceOnUse" gradientTransform="matrix(11.1512,0,0,8.96145,87.0589,152.127)"><stop offset="0" style="stop-color:#e9eaf6;stop-opacity:1"/><stop offset="1" style="stop-color:#c6cfea;stop-opacity:1"/></linearGradient><linearGradient id="_Linear17" x1="0" y1="0" x2="1" y2="0" gradientUnits="userSpaceOnUse" gradientTransform="matrix(11.1512,0,0,8.96145,97.3295,160.328)"><stop offset="0" style="stop-color:#e9eaf6;stop-opacity:1"/><stop offset="1" style="stop-color:#c6cfea;stop-opacity:1"/></linearGradient><linearGradient id="_Linear18" x1="0" y1="0" x2="1" y2="0" gradientUnits="userSpaceOnUse" gradientTransform="matrix(11.1511,0,0,8.96136,88.9836,157.653)"><stop offset="0" style="stop-color:#e9eaf6;stop-opacity:1"/><stop offset="1" style="stop-color:#c6cfea;stop-opacity:1"/></linearGradient><linearGradient id="_Linear19" x1="0" y1="0" x2="1" y2="0" gradientUnits="userSpaceOnUse" gradientTransform="matrix(11.1512,0,0,8.96145,80,155.054)"><stop offset="0" style="stop-color:#e9eaf6;stop-opacity:1"/><stop offset="1" style="stop-color:#c6cfea;stop-opacity:1"/></linearGradient><linearGradient id="_Linear20" x1="0" y1="0" x2="1" y2="0" gradientUnits="userSpaceOnUse" gradientTransform="matrix(17.4955,0,0,14.0599,78.0721,145.472)"><stop offset="0" style="stop-color:#e9eaf6;stop-opacity:1"/><stop offset="1" style="stop-color:#c6cfea;stop-opacity:1"/></linearGradient><linearGradient id="_Linear21" x1="0" y1="0" x2="1" y2="0" gradientUnits="userSpaceOnUse" gradientTransform="matrix(17.4955,0,0,14.0599,71.6527,148.406)"><stop offset="0" style="stop-color:#e9eaf6;stop-opacity:1"/><stop offset="1" style="stop-color:#c6cfea;stop-opacity:1"/></linearGradient><linearGradient id="_Linear22" x1="0" y1="0" x2="1" y2="0" gradientUnits="userSpaceOnUse" gradientTransform="matrix(17.5023,0,0,14.0654,64.5957,151.25)"><stop offset="0" style="stop-color:#e9eaf6;stop-opacity:1"/><stop offset="1" style="stop-color:#c6cfea;stop-opacity:1"/></linearGradient><linearGradient id="_Linear23" x1="0" y1="0" x2="1" y2="0" gradientUnits="userSpaceOnUse" gradientTransform="matrix(74.2347,0,0,59.6573,180.378,126.095)"><stop offset="0" style="stop-color:#b7ceeb;stop-opacity:1"/><stop offset="1" style="stop-color:#abbadf;stop-opacity:1"/></linearGradient></defs></svg>