<svg width="840" height="464" viewBox="0 0 840 464" fill="none" xmlns="http://www.w3.org/2000/svg">
<path d="M482.738 320.514H277.405C268.208 320.514 260.752 314.854 260.752 307.871V12.6445C260.752 5.66118 268.208 0.00012207 277.405 0.00012207H482.738C491.935 0.00012207 499.391 5.66118 499.391 12.6445V307.871C499.391 314.854 491.935 320.514 482.738 320.514Z" fill="#3EA2E5"/>
<path d="M477.992 272.117H289.93C289.079 272.117 288.392 271.595 288.392 270.949V270.651C288.392 270.006 289.079 269.483 289.93 269.483H477.992C478.843 269.483 479.53 270.006 479.53 270.651V270.949C479.53 271.595 478.843 272.117 477.992 272.117Z" fill="#2E8CC2"/>
<path d="M383.912 38.2762C332.436 38.2762 290.557 70.0773 290.557 109.166C290.557 148.255 332.436 180.055 383.912 180.055C435.391 180.055 477.268 148.255 477.268 109.166C477.268 70.0772 435.391 38.2762 383.912 38.2762ZM383.912 182.096C370.947 182.096 358.37 180.169 346.529 176.365C335.09 172.691 324.821 167.434 316 160.736C307.18 154.038 300.256 146.238 295.418 137.554C290.408 128.562 287.871 119.011 287.871 109.166C287.871 99.3207 290.408 89.7695 295.418 80.7773C300.256 72.0927 307.18 64.2934 316 57.5958C324.821 50.8983 335.09 45.6398 346.529 41.9665C358.37 38.1632 370.947 36.2347 383.912 36.2347C396.879 36.2347 409.456 38.1632 421.298 41.9665C432.734 45.6398 443.006 50.8983 451.827 57.5958C460.647 64.2934 467.571 72.0927 472.409 80.7773C477.416 89.7695 479.956 99.3207 479.956 109.166C479.956 119.011 477.416 128.562 472.409 137.554C467.571 146.238 460.647 154.038 451.827 160.736C443.006 167.434 432.734 172.691 421.298 176.365C409.456 180.169 396.879 182.096 383.912 182.096Z" fill="#B1CDEF"/>
<path d="M448.867 309.182H319.358C317.808 309.182 316.553 310.136 316.553 311.312V311.855C316.553 313.031 317.808 313.984 319.358 313.984H448.867C450.417 313.984 451.672 313.031 451.672 311.855V311.312C451.672 310.136 450.417 309.182 448.867 309.182Z" fill="white"/>
<path d="M319.459 242.455H332.96V269.519H309.774V249.81C309.774 245.748 314.11 242.455 319.459 242.455Z" fill="#B1CDEF"/>
<path d="M319.682 242.455C326.983 242.455 332.903 246.95 332.903 252.494V437.144C332.903 451.125 347.83 462.46 366.245 462.46H501.911C483.497 462.46 468.569 451.125 468.569 437.144V252.494C468.569 246.95 462.649 242.455 455.349 242.455H319.682Z" fill="#EAF6FD"/>
<path d="M591.894 462.434H382.263C395.969 462.434 408.341 456.204 413.672 446.619L414.854 444.494C420.187 434.906 432.561 428.677 446.263 428.677H527.893C541.6 428.677 553.971 434.906 559.305 444.494L560.485 446.619C565.818 456.204 578.192 462.434 591.894 462.434Z" fill="#B1CDEF"/>
<path d="M591.517 462.434H502.032C492.221 462.434 483.478 457.73 480.226 450.703L478.037 445.974C473.24 435.611 460.35 428.677 445.886 428.677H527.517C541.223 428.677 553.595 434.906 558.928 444.494L560.108 446.619C565.441 456.204 577.815 462.434 591.517 462.434H591.517Z" fill="#EAF6FD"/>
<path d="M502.209 462.436C502.209 462.436 512.557 461.346 514.57 452.834H606.834C606.834 452.834 604.725 461.128 591.697 462.436H502.209Z" fill="#B1CDEF"/>
<path d="M365.984 283.515H365.98C365.208 283.515 364.476 283.252 363.987 282.798L352.077 271.743C351.176 270.906 351.338 269.672 352.44 268.988C353.542 268.301 355.167 268.426 356.068 269.263L365.989 278.47L384.506 261.385C385.412 260.55 387.037 260.43 388.137 261.118C389.235 261.805 389.395 263.038 388.489 263.874L367.974 282.801C367.484 283.253 366.753 283.515 365.984 283.515Z" fill="#56C37F"/>
<path d="M449.028 269.451H402.288C401.021 269.451 399.994 268.671 399.994 267.709V267.264C399.994 266.302 401.021 265.522 402.288 265.522H449.028C450.295 265.522 451.322 266.302 451.322 267.264V267.709C451.322 268.671 450.295 269.451 449.028 269.451Z" fill="#3EA2E5"/>
<path d="M435.29 278.856H402.288C401.021 278.856 399.994 278.076 399.994 277.115V276.669C399.994 275.708 401.021 274.928 402.288 274.928H435.29C436.556 274.928 437.583 275.708 437.583 276.669V277.115C437.583 278.076 436.556 278.856 435.29 278.856Z" fill="#B1CDEF"/>
<path d="M365.984 318.661H365.98C365.208 318.659 364.476 318.396 363.987 317.942L352.077 306.887C351.176 306.05 351.338 304.817 352.44 304.132C353.542 303.448 355.167 303.571 356.068 304.408L365.989 313.617L384.506 296.531C385.412 295.696 387.037 295.576 388.137 296.263C389.235 296.951 389.395 298.185 388.489 299.02L367.974 317.947C367.484 318.399 366.753 318.661 365.984 318.661Z" fill="#56C37F"/>
<path d="M449.028 304.597H402.288C401.021 304.597 399.994 303.817 399.994 302.855V302.41C399.994 301.448 401.021 300.668 402.288 300.668H449.028C450.295 300.668 451.322 301.448 451.322 302.41V302.855C451.322 303.817 450.295 304.597 449.028 304.597Z" fill="#3EA2E5"/>
<path d="M435.29 314.002H402.288C401.021 314.002 399.994 313.222 399.994 312.26V311.815C399.994 310.853 401.021 310.073 402.288 310.073H435.29C436.556 310.073 437.583 310.853 437.583 311.815V312.26C437.583 313.222 436.556 314.002 435.29 314.002Z" fill="#B1CDEF"/>
<path d="M365.984 353.806H365.98C365.208 353.806 364.476 353.543 363.987 353.089L352.077 342.035C351.176 341.198 351.338 339.964 352.44 339.279C353.542 338.593 355.167 338.718 356.068 339.555L365.989 348.762L384.506 331.677C385.412 330.841 387.037 330.722 388.137 331.41C389.235 332.096 389.395 333.33 388.489 334.165L367.974 353.093C367.484 353.545 366.753 353.806 365.984 353.806Z" fill="#56C37F"/>
<path d="M449.028 339.743H402.288C401.021 339.743 399.994 338.963 399.994 338.001V337.556C399.994 336.594 401.021 335.814 402.288 335.814H449.028C450.295 335.814 451.322 336.594 451.322 337.556V338.001C451.322 338.963 450.295 339.743 449.028 339.743Z" fill="#3EA2E5"/>
<path d="M435.29 349.148H402.288C401.021 349.148 399.994 348.368 399.994 347.406V346.961C399.994 345.999 401.021 345.219 402.288 345.219H435.29C436.556 345.219 437.583 345.999 437.583 346.961V347.406C437.583 348.368 436.556 349.148 435.29 349.148Z" fill="#B1CDEF"/>
<path d="M365.984 388.952H365.98C365.208 388.951 364.476 388.687 363.987 388.233L352.077 377.179C351.176 376.342 351.338 375.108 352.44 374.423C353.542 373.739 355.167 373.862 356.068 374.699L365.989 383.908L384.506 366.823C385.412 365.987 387.037 365.868 388.137 366.554C389.235 367.242 389.395 368.476 388.489 369.311L367.974 388.238C367.484 388.691 366.753 388.952 365.984 388.952Z" fill="#56C37F"/>
<path d="M449.028 374.888H402.288C401.021 374.888 399.994 374.108 399.994 373.145V372.701C399.994 371.739 401.021 370.959 402.288 370.959H449.028C450.295 370.959 451.322 371.739 451.322 372.701V373.145C451.322 374.108 450.295 374.888 449.028 374.888Z" fill="#3EA2E5"/>
<path d="M435.29 384.293H402.288C401.021 384.293 399.994 383.514 399.994 382.552V382.106C399.994 381.145 401.021 380.365 402.288 380.365H435.29C436.556 380.365 437.583 381.145 437.583 382.106V382.552C437.583 383.514 436.556 384.293 435.29 384.293Z" fill="#B1CDEF"/>
<path d="M365.984 424.098H365.98C365.208 424.098 364.476 423.834 363.987 423.38L352.077 412.326C351.176 411.489 351.338 410.255 352.44 409.57C353.542 408.884 355.167 409.009 356.068 409.846L365.989 419.053L384.506 401.968C385.412 401.132 387.037 401.013 388.137 401.701C389.235 402.387 389.395 403.621 388.489 404.456L367.974 423.384C367.484 423.836 366.753 424.098 365.984 424.098Z" fill="#56C37F"/>
<path d="M449.028 410.034H402.288C401.021 410.034 399.994 409.254 399.994 408.292V407.847C399.994 406.885 401.021 406.105 402.288 406.105H449.028C450.295 406.105 451.322 406.885 451.322 407.847V408.292C451.322 409.254 450.295 410.034 449.028 410.034Z" fill="#3EA2E5"/>
<path d="M435.29 419.439H402.288C401.021 419.439 399.994 418.659 399.994 417.697V417.252C399.994 416.29 401.021 415.51 402.288 415.51H435.29C436.556 415.51 437.583 416.29 437.583 417.252V417.697C437.583 418.659 436.556 419.439 435.29 419.439Z" fill="#B1CDEF"/>
<path d="M373.082 196.126H394.326V181.97C394.326 177.521 389.561 173.903 383.703 173.903C377.847 173.903 373.082 177.521 373.082 181.97V196.126ZM395.732 198.261H371.676C370.898 198.261 370.268 197.783 370.268 197.194V181.97C370.268 176.345 376.295 171.768 383.703 171.768C391.113 171.768 397.14 176.345 397.14 181.97V197.194C397.14 197.783 396.51 198.261 395.732 198.261Z" fill="white"/>
<path d="M398.916 188.895H369.255C365.781 188.895 362.967 191.032 362.967 193.668V205.178C362.967 209.19 367.249 212.441 372.532 212.441H395.638C400.922 212.441 405.203 209.19 405.203 205.178V193.668C405.203 191.032 402.389 188.895 398.916 188.895Z" fill="#FFD15F"/>
<path d="M387.025 197.93C387.025 196.604 385.608 195.528 383.862 195.528C382.114 195.528 380.699 196.604 380.699 197.93C380.699 198.883 381.429 199.703 382.488 200.091V202.696C382.488 203.271 383.102 203.739 383.862 203.739C384.619 203.739 385.236 203.271 385.236 202.696V200.091C386.292 199.703 387.025 198.883 387.025 197.93Z" fill="white"/>
<path d="M448.146 109.166C448.146 136.104 419.389 157.941 383.913 157.941C348.439 157.941 319.682 136.104 319.682 109.166C319.682 82.2285 348.439 60.3911 383.913 60.3911C419.389 60.3911 448.146 82.2284 448.146 109.166Z" fill="#FFD15F"/>
<path d="M378.699 134.398C378.699 132.541 376.903 130.977 374.484 130.698C372.026 130.414 369.915 130.03 368.153 129.545C367.633 129.401 367.14 129.263 366.672 129.129C364.132 128.403 362.852 126.251 363.803 124.322L364.198 123.518C365.136 121.611 367.904 120.634 370.438 121.299C371.373 121.545 372.364 121.781 373.404 122.009C376.28 122.641 379.322 122.955 382.526 122.955C386.143 122.955 388.622 122.584 389.957 121.841C391.292 121.097 391.958 120.05 391.958 118.698C391.958 117.843 391.691 117.11 391.157 116.502C390.623 115.894 389.852 115.342 388.845 114.846C387.834 114.351 386.559 113.866 385.018 113.393C383.473 112.92 381.695 112.414 379.678 111.873C377.72 111.332 375.807 110.736 373.938 110.082C372.069 109.429 370.378 108.629 368.865 107.683C367.352 106.737 366.136 105.577 365.216 104.202C364.296 102.829 363.838 101.173 363.838 99.2357C363.838 97.7491 364.118 96.3193 364.682 94.9446C365.246 93.5707 366.12 92.3205 367.309 91.1941C368.493 90.0683 370.036 89.1106 371.935 88.3219C372.966 87.8945 374.1 87.5299 375.34 87.2281C377.355 86.7374 378.699 85.2904 378.699 83.6835V83.0399C378.699 80.9745 380.903 79.3003 383.624 79.3003H384.988C387.706 79.3003 389.913 80.9745 389.913 83.0399C389.913 84.8667 391.652 86.4321 394.026 86.7272C395.427 86.9014 396.712 87.1064 397.878 87.3419C398.134 87.3939 398.382 87.4457 398.627 87.4977C401.199 88.0446 402.705 90.0654 402.038 92.028L401.739 92.9045C401.05 94.9326 398.307 96.1214 395.646 95.5698C394.989 95.4334 394.309 95.304 393.606 95.1809C391.025 94.731 388.311 94.5052 385.463 94.5052C382.615 94.5052 380.568 94.8664 379.322 95.5864C378.076 96.3077 377.453 97.2537 377.453 98.4246C377.453 99.1459 377.645 99.7656 378.033 100.283C378.416 100.802 379.025 101.263 379.856 101.669C380.687 102.074 381.709 102.469 382.925 102.852C384.142 103.237 385.609 103.653 387.332 104.105C389.941 104.828 392.36 105.618 394.585 106.476C396.81 107.333 398.736 108.314 400.37 109.417C402 110.52 403.275 111.815 404.195 113.3C405.115 114.787 405.576 116.521 405.576 118.502C405.576 119.853 405.309 121.192 404.775 122.521C404.241 123.849 403.351 125.076 402.105 126.201C400.859 127.327 399.24 128.295 397.255 129.106C396.13 129.565 394.856 129.952 393.437 130.266C391.344 130.73 389.913 132.194 389.913 133.849V135.367C389.913 137.432 387.706 139.106 384.988 139.106H383.624C380.903 139.106 378.699 137.432 378.699 135.367V134.398Z" fill="white"/>
<path d="M556.446 37.7641C556.446 54.1369 573.925 67.4097 595.486 67.4097C617.048 67.4097 634.527 54.1369 634.527 37.7641C634.527 21.3912 617.048 8.11829 595.486 8.11829C573.925 8.11829 556.446 21.3912 556.446 37.7641Z" fill="#56C37F"/>
<path d="M571.908 58.2131L568.496 70.1345C568.065 71.6375 570.228 72.7932 571.947 71.978L587.433 64.6277L571.908 58.2131Z" fill="#56C37F"/>
<path d="M587.942 55.8514H587.936C586.842 55.8503 585.804 55.4766 585.113 54.8332L568.225 39.1593C566.944 37.9726 567.175 36.2237 568.738 35.2527C570.302 34.2818 572.604 34.4568 573.882 35.6434L587.949 48.6989L614.203 24.4755C615.488 23.2917 617.791 23.1219 619.349 24.0962C620.908 25.0704 621.132 26.82 619.849 28.0038L590.765 54.8395C590.069 55.4803 589.033 55.8514 587.942 55.8514Z" fill="white"/>
<path d="M246.771 451.745H150.193V462.439H246.771V451.745Z" fill="#EAA549"/>
<path fill-rule="evenodd" clip-rule="evenodd" d="M156.6 462.965C156.23 462.965 155.929 462.736 155.929 462.453H157.273C157.273 462.736 156.972 462.965 156.6 462.965ZM157.273 451.759H155.929C155.929 451.477 156.23 451.25 156.6 451.25C156.972 451.25 157.273 451.477 157.273 451.759Z" fill="white"/>
<path d="M157.273 451.745H155.929V462.439H157.273V451.745Z" fill="#DF7824"/>
<path d="M167.031 462.948C166.661 462.948 166.36 462.719 166.36 462.437H167.704C167.704 462.719 167.403 462.948 167.031 462.948Z" fill="white"/>
<path d="M167.704 451.745H166.36V462.439H167.704V451.745Z" fill="#DF7824"/>
<path d="M177.461 462.948C177.091 462.948 176.79 462.719 176.79 462.437H178.134C178.134 462.719 177.833 462.948 177.461 462.948Z" fill="white"/>
<path d="M178.134 451.745H176.79V462.439H178.134V451.745Z" fill="#DF7824"/>
<path d="M187.893 462.948C187.521 462.948 187.22 462.719 187.22 462.437H188.564C188.564 462.719 188.263 462.948 187.893 462.948Z" fill="white"/>
<path d="M188.564 451.745H187.22V462.439H188.564V451.745Z" fill="#DF7824"/>
<path d="M198.845 462.948C198.473 462.948 198.172 462.719 198.172 462.437H199.516C199.516 462.719 199.215 462.948 198.845 462.948Z" fill="white"/>
<path d="M199.516 451.745H198.172V462.439H199.516V451.745Z" fill="#DF7824"/>
<path d="M209.273 462.948C208.903 462.948 208.602 462.719 208.602 462.437H209.946C209.946 462.719 209.645 462.948 209.273 462.948Z" fill="white"/>
<path d="M209.946 451.745H208.602V462.439H209.946V451.745Z" fill="#DF7824"/>
<path d="M219.705 462.948C219.333 462.948 219.032 462.719 219.032 462.437H220.376C220.376 462.719 220.075 462.948 219.705 462.948Z" fill="white"/>
<path d="M220.376 451.745H219.032V462.439H220.376V451.745Z" fill="#DF7824"/>
<path d="M230.135 462.948C229.763 462.948 229.461 462.719 229.461 462.437H230.806C230.806 462.719 230.504 462.948 230.135 462.948Z" fill="white"/>
<path d="M230.806 451.745H229.461V462.439H230.806V451.745Z" fill="#DF7824"/>
<path d="M240.565 462.948C240.193 462.948 239.892 462.719 239.892 462.437H241.236C241.236 462.719 240.935 462.948 240.565 462.948Z" fill="white"/>
<path d="M241.236 451.745H239.892V462.439H241.236V451.745Z" fill="#DF7824"/>
<path d="M261.371 441.053H164.795V451.747H261.371V441.053Z" fill="#FFD15F"/>
<path d="M170.684 452.254C170.312 452.254 170.011 452.027 170.011 451.745H171.355C171.355 452.027 171.054 452.254 170.684 452.254Z" fill="#DF7824"/>
<path d="M171.355 451.747H170.011V441.053C170.011 441.333 170.312 441.562 170.684 441.562C171.054 441.562 171.355 441.333 171.355 441.053V451.747Z" fill="#FFBA2F"/>
<path d="M181.635 452.254C181.263 452.254 180.962 452.027 180.962 451.745H182.306C182.306 452.027 182.005 452.254 181.635 452.254Z" fill="#DF7824"/>
<path d="M182.306 451.747H180.962V441.053C180.962 441.333 181.263 441.562 181.635 441.562C182.005 441.562 182.306 441.333 182.306 441.053V451.747Z" fill="#FFBA2F"/>
<path d="M192.065 452.254C191.693 452.254 191.392 452.027 191.392 451.745H192.736C192.736 452.027 192.435 452.254 192.065 452.254Z" fill="#DF7824"/>
<path d="M192.736 451.747H191.392V441.053C191.392 441.333 191.693 441.562 192.065 441.562C192.435 441.562 192.736 441.333 192.736 441.053V451.747Z" fill="#FFBA2F"/>
<path d="M202.496 452.254C202.124 452.254 201.822 452.027 201.822 451.745H203.166C203.166 452.027 202.865 452.254 202.496 452.254Z" fill="#DF7824"/>
<path d="M203.166 451.747H201.822V441.053C201.822 441.333 202.124 441.562 202.496 441.562C202.865 441.562 203.166 441.333 203.166 441.053V451.747Z" fill="#FFBA2F"/>
<path d="M212.926 452.254C212.554 452.254 212.252 452.027 212.252 451.745H213.597C213.597 452.027 213.298 452.254 212.926 452.254Z" fill="#DF7824"/>
<path d="M213.597 451.747H212.252V441.053C212.252 441.333 212.554 441.562 212.926 441.562C213.298 441.562 213.597 441.333 213.597 441.053V451.747Z" fill="#FFBA2F"/>
<path d="M223.355 452.254C222.983 452.254 222.682 452.027 222.682 451.745H224.026C224.026 452.027 223.727 452.254 223.355 452.254Z" fill="#DF7824"/>
<path d="M224.026 451.747H222.682V441.053C222.684 441.333 222.983 441.562 223.355 441.562C223.725 441.562 224.026 441.333 224.026 441.053V451.747Z" fill="#FFBA2F"/>
<path d="M234.305 452.254C233.933 452.254 233.634 452.027 233.634 451.745H234.976C234.976 452.027 234.677 452.254 234.305 452.254Z" fill="#DF7824"/>
<path d="M234.976 451.747H233.634V441.053C233.634 441.333 233.933 441.562 234.305 441.562C234.677 441.562 234.976 441.333 234.976 441.053V451.747Z" fill="#FFBA2F"/>
<path d="M244.735 452.254C244.363 452.254 244.064 452.027 244.064 451.745H245.408C245.408 452.027 245.107 452.254 244.735 452.254Z" fill="#DF7824"/>
<path d="M245.408 451.747H244.064V441.053C244.064 441.333 244.363 441.562 244.735 441.562C245.107 441.562 245.406 441.333 245.408 441.053V451.747Z" fill="#FFBA2F"/>
<path d="M255.165 452.272C254.793 452.272 254.494 452.045 254.494 451.763H255.838C255.838 452.045 255.537 452.272 255.165 452.272ZM255.838 441.069H254.494V441.067C254.494 440.786 254.793 440.558 255.165 440.558C255.537 440.558 255.838 440.786 255.838 441.067" fill="white"/>
<path d="M255.838 441.053H254.494V451.747H255.838V441.053Z" fill="#FFBA2F"/>
<path d="M250.941 430.36H154.365V441.056H250.941V430.36Z" fill="#EAA549"/>
<path d="M160.253 441.562C159.881 441.562 159.58 441.333 159.58 441.053H160.924C160.924 441.333 160.623 441.562 160.253 441.562Z" fill="white"/>
<path d="M160.924 441.056H159.58V430.36H160.924V441.056Z" fill="#DF7824"/>
<path d="M170.684 441.562C170.312 441.562 170.011 441.333 170.011 441.053H171.355C171.355 441.333 171.054 441.562 170.684 441.562Z" fill="#FF9717"/>
<path d="M171.355 441.056H170.011V430.36H171.355V441.056Z" fill="#DF7824"/>
<path d="M181.635 441.562C181.263 441.562 180.962 441.333 180.962 441.053H182.306C182.306 441.333 182.005 441.562 181.635 441.562Z" fill="#FF9717"/>
<path d="M182.306 441.056H180.962V430.36H182.306V441.056Z" fill="#DF7824"/>
<path d="M192.065 441.562C191.693 441.562 191.392 441.333 191.392 441.053H192.736C192.736 441.333 192.435 441.562 192.065 441.562Z" fill="#FF9717"/>
<path d="M192.736 441.056H191.392V430.36H192.736V441.056Z" fill="#DF7824"/>
<path d="M202.496 441.562C202.124 441.562 201.822 441.333 201.822 441.053H203.166C203.166 441.333 202.865 441.562 202.496 441.562Z" fill="#FF9717"/>
<path d="M203.166 441.056H201.822V430.36H203.166V441.056Z" fill="#DF7824"/>
<path d="M212.926 441.562C212.554 441.562 212.252 441.333 212.252 441.053H213.597C213.597 441.333 213.298 441.562 212.926 441.562Z" fill="#FF9717"/>
<path d="M213.597 441.056H212.252V430.36H213.597V441.056Z" fill="#DF7824"/>
<path d="M223.355 441.562C222.983 441.562 222.684 441.333 222.682 441.053H224.026C224.026 441.333 223.725 441.562 223.355 441.562Z" fill="#FF9717"/>
<path d="M224.026 441.056H222.682V430.36H224.026V441.056Z" fill="#DF7824"/>
<path d="M234.305 441.562C233.933 441.562 233.634 441.333 233.634 441.053H234.976C234.976 441.333 234.677 441.562 234.305 441.562Z" fill="#FF9717"/>
<path d="M234.976 441.056H233.634V430.36H234.976V441.056Z" fill="#DF7824"/>
<path d="M245.408 430.375H244.064C244.064 430.094 244.363 429.865 244.735 429.865C245.107 429.865 245.408 430.094 245.408 430.375Z" fill="white"/>
<path d="M244.735 441.562C244.363 441.562 244.064 441.333 244.064 441.053H245.408C245.406 441.333 245.107 441.562 244.735 441.562Z" fill="#FF9717"/>
<path d="M245.408 441.056H244.064V430.36H245.408V441.056Z" fill="#DF7824"/>
<path d="M243.118 419.668H146.542V430.362H243.118V419.668Z" fill="#DB7937"/>
<path d="M152.431 430.89C152.059 430.89 151.757 430.661 151.757 430.379H153.102C153.102 430.661 152.803 430.89 152.431 430.89ZM153.102 419.685H151.757C151.757 419.402 152.059 419.173 152.431 419.173C152.803 419.173 153.102 419.402 153.102 419.685Z" fill="white"/>
<path d="M153.102 419.668H151.757V430.362H153.102V419.668Z" fill="#C93C1B"/>
<path d="M163.38 430.872C163.008 430.872 162.709 430.643 162.709 430.36H164.051C164.051 430.643 163.752 430.872 163.38 430.872Z" fill="#DF7824"/>
<path d="M164.051 419.685H162.709C162.709 419.402 163.008 419.173 163.38 419.173C163.752 419.173 164.051 419.402 164.051 419.685Z" fill="white"/>
<path d="M164.051 419.668H162.709V430.362H164.051V419.668Z" fill="#C93C1B"/>
<path d="M173.81 430.872C173.438 430.872 173.139 430.643 173.139 430.36H174.483C174.483 430.643 174.182 430.872 173.81 430.872Z" fill="#DF7824"/>
<path d="M174.483 419.668H173.139V430.362H174.483V419.668Z" fill="#C93C1B"/>
<path d="M184.24 430.872C183.871 430.872 183.569 430.643 183.569 430.36H184.914C184.914 430.643 184.612 430.872 184.24 430.872Z" fill="#DF7824"/>
<path d="M184.914 419.668H183.569V430.362H184.914V419.668Z" fill="#C93C1B"/>
<path d="M194.67 430.872C194.301 430.872 194 430.643 194 430.36H195.344C195.344 430.643 195.042 430.872 194.67 430.872Z" fill="#DF7824"/>
<path d="M195.344 419.668H194V430.362H195.344V419.668Z" fill="#C93C1B"/>
<path d="M205.101 430.872C204.731 430.872 204.43 430.643 204.43 430.36H205.774C205.774 430.643 205.473 430.872 205.101 430.872Z" fill="#DF7824"/>
<path d="M205.774 419.668H204.43V430.362H205.774V419.668Z" fill="#C93C1B"/>
<path d="M216.052 430.872C215.682 430.872 215.381 430.643 215.381 430.36H216.725C216.725 430.643 216.424 430.872 216.052 430.872Z" fill="#DF7824"/>
<path d="M216.725 419.668H215.381V430.362H216.725V419.668Z" fill="#C93C1B"/>
<path d="M226.482 430.872C226.113 430.872 225.812 430.643 225.812 430.36H227.156C227.156 430.643 226.854 430.872 226.482 430.872Z" fill="#DF7824"/>
<path d="M227.156 419.668H225.812V430.362H227.156V419.668Z" fill="#C93C1B"/>
<path d="M236.915 430.872C236.543 430.872 236.242 430.643 236.242 430.36H237.586C237.586 430.643 237.285 430.872 236.915 430.872Z" fill="#DF7824"/>
<path d="M237.586 419.668H236.242V430.362H237.586V419.668Z" fill="#C93C1B"/>
<path d="M268.15 408.976H171.575V419.672H268.15V408.976Z" fill="#FFD15F"/>
<path d="M177.461 420.178C177.091 420.178 176.79 419.949 176.79 419.668H178.134C178.134 419.949 177.833 420.178 177.461 420.178Z" fill="#C93C1B"/>
<path d="M178.134 419.672H176.79V408.976C176.79 409.259 177.091 409.487 177.461 409.487C177.833 409.487 178.134 409.259 178.134 408.976V419.672Z" fill="#FFBA2F"/>
<path d="M187.893 420.178C187.521 420.178 187.22 419.949 187.22 419.668H188.564C188.564 419.949 188.263 420.178 187.893 420.178Z" fill="#C93C1B"/>
<path d="M188.564 419.672H187.22V408.976C187.22 409.259 187.521 409.487 187.893 409.487C188.263 409.487 188.564 409.259 188.564 408.976V419.672Z" fill="#FFBA2F"/>
<path d="M198.845 420.178C198.473 420.178 198.172 419.949 198.172 419.668H199.516C199.516 419.949 199.215 420.178 198.845 420.178Z" fill="#C93C1B"/>
<path d="M199.516 419.672H198.172V408.976C198.172 409.259 198.473 409.487 198.845 409.487C199.215 409.487 199.516 409.259 199.516 408.976V419.672Z" fill="#FFBA2F"/>
<path d="M209.273 420.178C208.903 420.178 208.602 419.949 208.602 419.668H209.946C209.946 419.949 209.645 420.178 209.273 420.178Z" fill="#C93C1B"/>
<path d="M209.946 419.672H208.602V408.976C208.602 409.259 208.903 409.487 209.273 409.487C209.645 409.487 209.946 409.259 209.946 408.976V419.672Z" fill="#FFBA2F"/>
<path d="M219.705 420.178C219.333 420.178 219.032 419.949 219.032 419.668H220.376C220.376 419.949 220.075 420.178 219.705 420.178Z" fill="#C93C1B"/>
<path d="M220.376 419.672H219.032V408.976C219.032 409.259 219.333 409.487 219.705 409.487C220.075 409.487 220.376 409.259 220.376 408.976V419.672Z" fill="#FFBA2F"/>
<path d="M230.135 420.178C229.763 420.178 229.461 419.949 229.461 419.668H230.806C230.806 419.949 230.504 420.178 230.135 420.178Z" fill="#C93C1B"/>
<path d="M230.806 419.672H229.461V408.976C229.461 409.259 229.763 409.487 230.135 409.487C230.504 409.487 230.806 409.259 230.806 408.976V419.672Z" fill="#FFBA2F"/>
<path d="M240.565 420.178C240.193 420.178 239.892 419.949 239.892 419.668H241.236C241.236 419.949 240.935 420.178 240.565 420.178Z" fill="#C93C1B"/>
<path d="M241.236 419.672H239.892V408.976C239.892 409.259 240.193 409.487 240.565 409.487C240.935 409.487 241.236 409.259 241.236 408.976V419.672Z" fill="#FFBA2F"/>
<path d="M251.517 420.178C251.144 420.178 250.843 419.949 250.843 419.668H252.187C252.187 419.949 251.886 420.178 251.517 420.178Z" fill="white"/>
<path d="M252.187 419.672H250.843V408.976C250.843 409.259 251.144 409.487 251.517 409.487C251.886 409.487 252.187 409.259 252.187 408.976V419.672Z" fill="#FFBA2F"/>
<path d="M261.947 420.196C261.575 420.196 261.276 419.967 261.273 419.686H262.618C262.618 419.967 262.316 420.196 261.947 420.196ZM262.618 408.99H261.273C261.273 408.71 261.575 408.481 261.947 408.481C262.316 408.481 262.618 408.71 262.618 408.99Z" fill="white"/>
<path d="M262.618 408.976H261.273V419.672H262.618V408.976Z" fill="#FFBA2F"/>
<path d="M257.722 398.284H161.145V408.978H257.722V398.284Z" fill="#EAA549"/>
<path d="M167.031 409.487C166.661 409.487 166.36 409.258 166.36 408.976H167.704C167.704 409.258 167.403 409.487 167.031 409.487Z" fill="white"/>
<path d="M167.704 398.284H166.36V408.978H167.704V398.284Z" fill="#DF7824"/>
<path d="M177.461 409.487C177.091 409.487 176.79 409.258 176.79 408.976H178.134C178.134 409.258 177.833 409.487 177.461 409.487Z" fill="#FF9717"/>
<path d="M178.134 398.284H176.79V408.978H178.134V398.284Z" fill="#DF7824"/>
<path d="M187.893 409.487C187.521 409.487 187.22 409.258 187.22 408.976H188.564C188.564 409.258 188.263 409.487 187.893 409.487Z" fill="#FF9717"/>
<path d="M188.564 398.284H187.22V408.978H188.564V398.284Z" fill="#DF7824"/>
<path d="M198.845 409.487C198.473 409.487 198.172 409.258 198.172 408.976H199.516C199.516 409.258 199.215 409.487 198.845 409.487Z" fill="#FF9717"/>
<path d="M199.516 398.284H198.172V408.978H199.516V398.284Z" fill="#DF7824"/>
<path d="M209.273 409.487C208.903 409.487 208.602 409.258 208.602 408.976H209.946C209.946 409.258 209.645 409.487 209.273 409.487Z" fill="#FF9717"/>
<path d="M209.946 398.284H208.602V408.978H209.946V398.284Z" fill="#DF7824"/>
<path d="M219.705 409.487C219.333 409.487 219.032 409.258 219.032 408.976H220.376C220.376 409.258 220.075 409.487 219.705 409.487Z" fill="#FF9717"/>
<path d="M220.376 398.284H219.032V408.978H220.376V398.284Z" fill="#DF7824"/>
<path d="M230.135 409.487C229.763 409.487 229.461 409.258 229.461 408.976H230.806C230.806 409.258 230.504 409.487 230.135 409.487Z" fill="#FF9717"/>
<path d="M230.806 398.284H229.461V408.978H230.806V398.284Z" fill="#DF7824"/>
<path d="M241.236 398.3H239.892C239.892 398.018 240.193 397.789 240.565 397.789C240.935 397.789 241.236 398.018 241.236 398.3Z" fill="white"/>
<path d="M240.565 409.487C240.193 409.487 239.892 409.258 239.892 408.976H241.236C241.236 409.258 240.935 409.487 240.565 409.487Z" fill="#FF9717"/>
<path d="M241.236 398.284H239.892V408.978H241.236V398.284Z" fill="#DF7824"/>
<path d="M252.187 398.3H250.843C250.843 398.018 251.144 397.789 251.517 397.789C251.886 397.789 252.187 398.018 252.187 398.3Z" fill="white"/>
<path d="M251.517 409.487C251.144 409.487 250.843 409.258 250.843 408.976H252.187C252.187 409.258 251.886 409.487 251.517 409.487Z" fill="#FF9717"/>
<path d="M252.187 398.284H250.843V408.978H252.187V398.284Z" fill="#DF7824"/>
<path d="M232.688 387.592H136.112V398.286H232.688V387.592Z" fill="#FFD15F"/>
<path d="M142 398.811C141.628 398.811 141.327 398.584 141.327 398.302H142.671C142.671 398.584 142.372 398.811 142 398.811ZM142.671 387.608H141.327C141.327 387.325 141.628 387.097 142 387.097C142.372 387.097 142.671 387.325 142.671 387.608Z" fill="white"/>
<path d="M142.671 387.592H141.327V398.286H142.671V387.592Z" fill="#FFBA2F"/>
<path d="M152.431 398.811C152.059 398.811 151.757 398.584 151.757 398.302H153.102C153.102 398.584 152.803 398.811 152.431 398.811ZM153.102 387.608H151.757C151.76 387.325 152.059 387.097 152.431 387.097C152.803 387.097 153.102 387.325 153.102 387.608Z" fill="white"/>
<path d="M153.102 387.592H151.757V398.286H153.102V387.592Z" fill="#FFBA2F"/>
<path d="M163.38 398.793C163.008 398.793 162.709 398.566 162.709 398.284H164.051C164.051 398.566 163.752 398.793 163.38 398.793Z" fill="#DF7824"/>
<path d="M164.051 387.509H162.709C162.709 387.226 163.008 386.998 163.38 386.998C163.752 386.998 164.051 387.226 164.051 387.509Z" fill="white"/>
<path d="M164.051 387.592H162.709V398.286H164.051V387.592Z" fill="#FFBA2F"/>
<path d="M173.81 398.793C173.438 398.793 173.139 398.566 173.139 398.284H174.483C174.483 398.566 174.182 398.793 173.81 398.793Z" fill="#DF7824"/>
<path d="M174.483 387.509H173.139C173.139 387.226 173.44 386.998 173.81 386.998C174.182 386.998 174.481 387.226 174.483 387.509Z" fill="white"/>
<path d="M174.483 387.592H173.139V398.286H174.483V387.592Z" fill="#FFBA2F"/>
<path d="M184.24 398.793C183.871 398.793 183.569 398.566 183.569 398.284H184.914C184.914 398.566 184.612 398.793 184.24 398.793Z" fill="#DF7824"/>
<path d="M184.914 387.509H183.569C183.569 387.226 183.871 386.998 184.24 386.998C184.612 386.998 184.914 387.226 184.914 387.509Z" fill="white"/>
<path d="M184.914 387.592H183.569V398.286H184.914V387.592Z" fill="#FFBA2F"/>
<path d="M194.67 398.793C194.301 398.793 194 398.566 194 398.284H195.344C195.344 398.566 195.042 398.793 194.67 398.793Z" fill="#DF7824"/>
<path d="M195.344 387.509H194C194 387.226 194.301 386.998 194.67 386.998C195.042 386.998 195.344 387.226 195.344 387.509Z" fill="white"/>
<path d="M195.344 387.592H194V398.286H195.344V387.592Z" fill="#FFBA2F"/>
<path d="M205.101 398.793C204.731 398.793 204.43 398.566 204.43 398.284H205.774C205.774 398.566 205.473 398.793 205.101 398.793Z" fill="#DF7824"/>
<path d="M205.774 387.509H204.43C204.43 387.226 204.731 386.998 205.101 386.998C205.473 386.998 205.774 387.226 205.774 387.509Z" fill="white"/>
<path d="M205.774 387.592H204.43V398.286H205.774V387.592Z" fill="#FFBA2F"/>
<path d="M216.052 398.793C215.682 398.793 215.381 398.566 215.381 398.284H216.725C216.725 398.566 216.424 398.793 216.052 398.793Z" fill="#DF7824"/>
<path d="M216.725 387.509H215.381C215.381 387.226 215.682 386.998 216.052 386.998C216.424 386.998 216.725 387.226 216.725 387.509Z" fill="white"/>
<path d="M216.725 387.592H215.381V398.286H216.725V387.592Z" fill="#FFBA2F"/>
<path d="M226.482 398.793C226.113 398.793 225.812 398.566 225.812 398.284H227.156C227.156 398.566 226.854 398.793 226.482 398.793Z" fill="#DF7824"/>
<path d="M227.156 387.509H225.812C225.812 387.226 226.113 386.998 226.482 386.998C226.854 386.998 227.156 387.226 227.156 387.509Z" fill="white"/>
<path d="M227.156 387.592H225.812V398.286H227.156V387.592Z" fill="#FFBA2F"/>
<path d="M246.247 350.899C246.247 330.649 224.628 314.231 197.959 314.231C171.29 314.231 149.671 330.649 149.671 350.899C149.671 371.15 171.29 387.568 197.959 387.568C224.628 387.568 246.247 371.15 246.247 350.899Z" fill="#FFD15F"/>
<path d="M237.432 350.916C237.432 334.483 219.887 321.162 198.245 321.162C176.604 321.162 159.059 334.483 159.059 350.916C159.059 367.352 176.604 380.673 198.245 380.673C219.887 380.673 237.432 367.352 237.432 350.916Z" fill="#EAA549"/>
<path d="M193.048 371.784C193.048 370.245 191.558 368.947 189.556 368.716C187.518 368.481 185.768 368.162 184.307 367.76C183.876 367.642 183.467 367.528 183.077 367.417C180.973 366.814 179.912 365.03 180.702 363.431L181.028 362.764C181.806 361.185 184.1 360.374 186.202 360.925C186.977 361.13 187.797 361.325 188.659 361.514C191.044 362.038 193.566 362.299 196.22 362.299C199.219 362.299 201.273 361.991 202.38 361.374C203.486 360.759 204.041 359.891 204.041 358.769C204.041 358.061 203.82 357.452 203.377 356.948C202.934 356.445 202.295 355.988 201.458 355.575C200.622 355.167 199.563 354.764 198.285 354.373C197.007 353.979 195.531 353.56 193.86 353.111C192.238 352.664 190.652 352.169 189.102 351.628C187.553 351.087 186.151 350.423 184.896 349.638C183.643 348.855 182.635 347.893 181.872 346.753C181.11 345.614 180.729 344.242 180.729 342.636C180.729 341.403 180.962 340.218 181.43 339.079C181.897 337.941 182.621 336.905 183.607 335.971C184.588 335.037 185.868 334.243 187.443 333.589C188.297 333.236 189.237 332.933 190.264 332.683C191.934 332.276 193.048 331.077 193.048 329.744V329.21C193.048 327.498 194.876 326.112 197.131 326.112H198.26C200.515 326.112 202.343 327.498 202.343 329.21C202.343 330.725 203.785 332.023 205.755 332.267C206.917 332.413 207.98 332.583 208.945 332.777C209.158 332.82 209.365 332.863 209.568 332.907C211.698 333.359 212.948 335.035 212.396 336.662L212.147 337.388C211.577 339.069 209.304 340.055 207.097 339.598C206.551 339.485 205.988 339.378 205.406 339.275C203.265 338.903 201.015 338.716 198.655 338.716C196.295 338.716 194.598 339.014 193.566 339.612C192.532 340.209 192.016 340.993 192.016 341.965C192.016 342.563 192.174 343.076 192.496 343.504C192.815 343.934 193.317 344.316 194.006 344.653C194.696 344.989 195.545 345.316 196.553 345.634C197.56 345.952 198.778 346.299 200.205 346.673C202.368 347.271 204.372 347.928 206.216 348.638C208.06 349.349 209.657 350.162 211.011 351.075C212.364 351.99 213.421 353.063 214.183 354.295C214.945 355.527 215.326 356.965 215.326 358.606C215.326 359.728 215.105 360.837 214.664 361.937C214.222 363.039 213.482 364.057 212.451 364.989C211.417 365.923 210.077 366.725 208.43 367.398C207.496 367.777 206.442 368.098 205.267 368.358C203.532 368.742 202.343 369.957 202.343 371.328V372.586C202.343 374.298 200.515 375.686 198.26 375.686H197.131C194.876 375.686 193.048 374.298 193.048 372.586V371.784Z" fill="white"/>
<path d="M222.714 112.902C198.69 110.661 176.028 102.982 154.496 90.7847C132.966 102.982 110.303 110.661 86.2797 112.902C83.4692 168.097 106.208 203.505 154.496 215.63C202.784 203.505 225.523 168.097 222.714 112.902Z" fill="#56C37F"/>
<path d="M139.623 158.971H170.083V138.675C170.083 132.299 163.25 127.111 154.852 127.111C146.454 127.111 139.623 132.299 139.623 138.675V158.971ZM172.098 162.034H137.606C136.495 162.034 135.591 161.347 135.591 160.502V138.675C135.591 130.611 144.231 124.049 154.852 124.049C165.473 124.049 174.113 130.611 174.113 138.675V160.502C174.113 161.347 173.212 162.034 172.098 162.034Z" fill="#EAF6FD"/>
<path d="M178.905 148.602H130.927C127.454 148.602 124.64 150.738 124.64 153.376V168.683C124.64 176.235 132.703 182.359 142.651 182.359H167.181C177.127 182.359 185.192 176.235 185.192 168.683V153.376C185.192 150.738 182.376 148.602 178.905 148.602Z" fill="white"/>
<path d="M159.265 161.549C159.265 159.648 157.234 158.106 154.73 158.106C152.224 158.106 150.193 159.648 150.193 161.549C150.193 162.915 151.243 164.092 152.761 164.648V168.381C152.761 169.206 153.642 169.876 154.73 169.876C155.817 169.876 156.7 169.206 156.7 168.381V164.648C158.215 164.092 159.265 162.915 159.265 161.549Z" fill="#FFD15F"/>
<path d="M763.406 234.693H763.354C762.61 234.67 762.032 234.196 762.062 233.632C764.449 187.578 755.814 146.304 734.886 103.746C734.626 103.218 734.98 102.63 735.676 102.433C736.372 102.235 737.146 102.504 737.406 103.032C747.281 123.116 754.275 142.382 758.787 161.932C764.107 184.978 766.056 208.458 764.748 233.712C764.721 234.262 764.125 234.693 763.406 234.693V234.693Z" fill="#B1CDEF"/>
<path d="M765.519 396.304L780.465 406.294C780.465 406.294 791.196 411.824 787.108 420.166C783.021 428.509 771.396 441.896 771.396 441.896L765.519 437.337L763.73 427.053V418.517L750.446 410.368L765.519 396.304Z" fill="#FECFBD"/>
<path d="M692.863 424.123L691.331 439.368L693.639 444.2C693.639 444.2 691.432 453.902 679.736 454.516C668.042 455.129 647.188 452.608 647.188 452.608L650.235 446.662L661.832 441.184L668.791 438.793L665.653 424.123H692.863Z" fill="#FECFBD"/>
<path d="M648.231 203.357C648.231 203.357 634.721 250.428 637.021 280.621C639.319 310.814 646.218 348.936 646.218 348.936C646.218 348.936 651.679 418.779 648.231 428.164C648.231 428.164 685.021 429.693 701.98 427.073L683.008 338.678L701.98 255.23C701.98 255.23 714.052 254.647 710.602 232.821C707.154 210.996 698.317 199.786 698.317 199.786L648.231 203.357V203.357Z" fill="#2D4559"/>
<path d="M776.543 388.187C776.543 388.187 772.241 394.356 765.669 401.314C765.404 401.591 765.139 401.87 764.87 402.151C758.37 408.897 749.844 416.174 741.095 419.18L675.465 358.503C675.465 358.503 660.037 346.28 661.954 328.528C663.871 310.777 681.245 243.552 681.245 243.552C681.245 243.552 676.645 239.163 676.645 225.412C676.645 211.663 675.465 201.573 675.465 201.573L715.745 198.362L717.112 198.253L730.17 197.211C730.17 197.211 752.4 240.059 735.921 271.198C719.439 302.336 705.646 330.566 705.646 330.566C705.646 330.566 742.051 371.774 756.23 379.253C770.413 386.731 776.543 388.187 776.543 388.187V388.187Z" fill="#40637F"/>
<path d="M780.288 406.303C780.288 406.303 796.256 409.117 797.662 415.616C799.068 422.114 781.438 447.773 778.373 453.06C775.413 458.163 766.876 459.316 764.767 453.642C763.046 449.006 763.553 427.062 763.553 427.062C763.553 427.062 765.214 441.711 773.008 435.793C780.799 429.876 783.994 419.108 782.972 414.742C781.949 410.377 780.288 406.303 780.288 406.303Z" fill="#3EA2E5"/>
<path d="M693.731 444.167C693.731 444.167 700.95 456.96 693.731 460.613C686.513 464.266 644.455 462.065 636.849 462.126C629.505 462.183 624.601 456.752 630.539 452.953C635.389 449.851 661.925 441.152 661.925 441.152C661.925 441.152 645.037 448.342 655.351 451.291C665.663 454.243 679.897 452.01 684.713 449.503C689.528 446.997 693.732 444.167 693.732 444.167H693.731Z" fill="#3EA2E5"/>
<path d="M765.561 401.361C765.296 401.638 765.032 401.917 764.762 402.198C759.249 398.162 740.606 384.493 722.696 371.135C701.387 355.245 688.568 333.164 688.443 332.942C688.381 332.837 688.37 332.715 688.409 332.603C688.582 332.13 705.833 285.042 720.153 259.696C724.252 252.441 725.425 243.979 725.135 235.833C725.122 235.464 725.106 235.095 725.087 234.727C724.768 228.549 723.636 222.597 722.333 217.542C720.249 209.468 717.467 202.539 715.637 198.41L717.004 198.301C718.85 202.484 721.587 209.352 723.647 217.328C725.635 225.045 726.612 232.277 726.541 238.826C726.459 247.036 724.724 254.193 721.388 260.098C707.549 284.598 690.942 329.509 689.769 332.7C690.983 334.748 703.487 355.382 723.636 370.409C741.396 383.654 759.879 397.204 765.561 401.361V401.361Z" fill="#50758E"/>
<path d="M725.53 235.923C725.459 235.923 725.386 235.914 725.315 235.897C717.15 233.802 710.249 227.421 705.356 217.444C701.688 209.968 700.399 203.009 700.388 202.939C700.335 202.66 700.593 202.402 700.96 202.364C701.328 202.328 701.668 202.52 701.718 202.799C701.73 202.868 703.003 209.733 706.622 217.106C709.934 223.847 715.936 232.413 725.745 234.93C726.096 235.02 726.285 235.309 726.167 235.576C726.073 235.789 725.811 235.923 725.53 235.923Z" fill="#50758E"/>
<path d="M713.115 60.4902C713.115 60.4902 732.787 78.9211 722.056 90.1736C711.326 101.426 692.037 92.1137 692.037 92.1137L713.115 60.4902Z" fill="#2D4559"/>
<path d="M713.679 99.8928C713.679 99.8928 738.844 102.512 744.72 106.392C750.597 110.272 768.991 135.785 768.991 135.785L732.84 150.043C732.84 150.043 726.899 173.859 729.008 180.698C731.114 187.536 739.93 201.214 732.456 203.687C724.984 206.162 717.894 203.687 717.894 203.687C717.894 203.687 664.432 209.087 652.168 204.787C652.168 204.787 647.953 208.052 643.738 203.978C639.52 199.904 644.311 191.61 648.528 186.082C652.743 180.552 651.976 174.296 651.976 174.296L647.122 154.991L639.457 159.55L612.247 141.023C612.247 141.023 636.008 110.757 642.652 107.168C649.293 103.579 661.94 101.542 661.94 101.542L713.679 99.8928Z" fill="#3EA2E5"/>
<path d="M729.302 151.882C729.215 151.882 729.129 151.868 729.046 151.842C728.875 151.79 728.741 151.686 728.674 151.556L720.244 135.041C720.11 134.778 720.281 134.482 720.628 134.38C720.974 134.278 721.362 134.409 721.497 134.672L729.672 150.686L732.956 149.572C733.293 149.456 733.693 149.572 733.843 149.829C733.994 150.087 733.843 150.388 733.503 150.503L729.576 151.837C729.489 151.866 729.396 151.882 729.302 151.882Z" fill="#2E8CC2"/>
<path d="M647.101 155.502C646.795 155.502 646.519 155.342 646.446 155.108L643.562 145.778C642.834 143.428 642.834 140.945 643.562 138.595L648.363 123.057C648.448 122.782 648.811 122.613 649.171 122.677C649.532 122.741 649.755 123.016 649.671 123.29L644.869 138.827C644.189 141.025 644.189 143.347 644.869 145.544L647.754 154.874C647.841 155.148 647.617 155.424 647.254 155.488C647.204 155.496 647.151 155.502 647.101 155.502Z" fill="#2E8CC2"/>
<path d="M692.591 194.869C692.518 194.869 692.444 194.861 692.372 194.842C679.849 191.571 671.084 185.186 665.937 180.404C660.364 175.228 657.783 170.887 657.676 170.705C657.525 170.447 657.676 170.145 658.016 170.031C658.356 169.915 658.751 170.031 658.904 170.287C658.929 170.332 661.535 174.708 667.003 179.784C672.038 184.453 680.6 190.688 692.807 193.876C693.159 193.968 693.346 194.259 693.225 194.524C693.129 194.738 692.869 194.869 692.591 194.869Z" fill="#2E8CC2"/>
<path d="M701.785 76.8254L705.745 98.8456L714.05 99.9125C714.05 99.9125 698.974 115.821 681.985 114.56C664.995 113.299 662.311 101.562 662.311 101.562L674.064 100.01L678.279 84.7799L701.785 76.8254Z" fill="#FECFBD"/>
<path d="M567.399 106.916C567.399 106.916 560.941 103.06 560.096 98.3313L568.367 97.0217L571.696 102.624L572.477 106.48L567.399 106.916Z" fill="#F5AC9E"/>
<path d="M635.599 157.009C635.599 157.009 617.216 172.663 608.211 174.515C599.205 176.366 584.066 150.757 579.659 139.116C575.252 127.476 567.397 106.959 567.397 106.959L577.936 101.576L610.703 147.41L615.906 143.601L635.599 157.009V157.009Z" fill="#FECFBD"/>
<path d="M562.587 100.567H523.583C521.283 100.567 519.418 99.1516 519.418 97.4058V81.1745C519.418 79.4286 521.283 78.0134 523.583 78.0134H562.587C564.886 78.0134 566.75 79.4286 566.75 81.1745V97.4058C566.75 99.1516 564.886 100.567 562.587 100.567Z" fill="#FF617C"/>
<path d="M566.75 82.0725H519.418V85.7101H566.75V82.0725Z" fill="#40637F"/>
<path d="M578.195 101.512L577.574 92.4628C577.483 91.109 576.543 89.8704 575.048 89.1303L572.182 87.7119C570.135 86.6996 567.553 86.5432 565.324 87.2962L560.061 89.0721C558.575 89.5731 558.779 91.2166 560.36 91.5032C561.917 91.7855 563.954 91.8301 566.41 91.1813C566.41 91.1813 562.959 98.3839 568.037 99.4752L571.953 105.659L578.195 101.512Z" fill="#FECFBD"/>
<path d="M613.835 152.061C613.597 152.061 613.365 151.964 613.244 151.792L610.243 147.572C610.065 147.324 610.186 147.014 610.514 146.881C610.841 146.747 611.247 146.839 611.425 147.087L614.426 151.307C614.602 151.555 614.481 151.865 614.154 151.998C614.054 152.04 613.944 152.061 613.835 152.061Z" fill="#F5AC9E"/>
<path d="M717.161 237.533C716.509 237.533 715.936 237.171 715.836 236.667C710.692 211.142 708.318 188.201 708.781 168.482C709.153 152.67 711.342 138.874 715.281 127.474C722.061 107.863 731.655 102.119 732.062 101.884C732.65 101.542 733.495 101.628 733.944 102.076C734.394 102.523 734.282 103.163 733.696 103.505C733.506 103.618 724.236 109.346 717.755 128.363C711.728 146.05 706.963 179.146 718.492 236.358C718.604 236.914 718.102 237.436 717.367 237.521C717.298 237.528 717.23 237.533 717.161 237.533V237.533Z" fill="#EAF6FD"/>
<path d="M717.089 236.533C717.089 236.533 701.714 261.415 711.413 267.088C721.112 272.764 768.316 270.02 773.426 261.851C775.93 257.845 763.093 233.644 763.093 233.644C763.093 233.644 740.659 239.151 717.089 236.533H717.089Z" fill="#FF617C"/>
<path d="M739.326 255.371C736.873 255.371 734.271 255.324 731.524 255.227C725.522 255.019 721.208 252.097 719.047 246.78C717.452 242.852 717.591 239.05 717.596 238.89C717.609 238.608 717.924 238.388 718.289 238.396C718.661 238.405 718.951 238.641 718.94 238.921C718.938 238.959 718.805 242.734 720.341 246.501C722.349 251.425 726.131 254.017 731.585 254.208C749.605 254.835 761.08 253.423 765.687 250.011C767.241 248.86 767.974 247.515 767.928 245.9C767.922 245.619 768.216 245.385 768.586 245.38H768.602C768.964 245.38 769.266 245.602 769.273 245.879C769.325 247.765 768.435 249.401 766.625 250.74C762.472 253.82 753.304 255.371 739.326 255.371Z" fill="#E24D4D"/>
<path d="M748.172 250.206C748.172 251.26 747.047 252.116 745.659 252.116C744.27 252.116 743.145 251.26 743.145 250.206C743.145 249.151 744.27 248.296 745.659 248.296C747.047 248.296 748.172 249.151 748.172 250.206Z" fill="white"/>
<path d="M763.964 137.811C763.964 137.811 776.846 166.252 776.175 172.58C775.504 178.909 763.147 191.631 743.888 199.784C724.631 207.938 710.879 211.213 710.879 211.213L702.467 202.408C702.467 202.408 726.61 188.101 735.553 180.923C744.495 173.745 748.71 171.416 748.71 171.416L735.006 149.232L763.964 137.811Z" fill="#FECFBD"/>
<path d="M702.605 202.36L678.716 203.864L658.66 214.729C658.66 214.729 658.788 217.542 662.747 216.183C666.707 214.826 676.543 210.364 676.543 210.364C676.543 210.364 683.698 221.131 689.702 220.84C695.706 220.549 706.437 216.669 707.97 215.118C709.502 213.565 711.017 211.165 711.017 211.165C711.017 211.165 708.609 203.087 702.605 202.36Z" fill="#FECFBD"/>
<path d="M749.032 171.943C748.781 171.943 748.539 171.836 748.425 171.65C748.265 171.396 748.409 171.092 748.744 170.971L756.026 168.353C756.362 168.231 756.761 168.34 756.921 168.595C757.081 168.85 756.937 169.153 756.602 169.274L749.319 171.893C749.228 171.928 749.13 171.943 749.032 171.943Z" fill="#F5AC9E"/>
<path d="M708.88 76.5254C708.88 76.5254 717.467 63.8975 716.061 56.3313C714.658 48.7649 703.514 36.9304 689.716 37.0272C675.921 37.1243 667.616 41.7805 661.484 50.3169C655.352 58.8534 663.415 76.5254 663.415 76.5254H708.88Z" fill="#40637F"/>
<path d="M662.311 70.5902C662.311 70.5902 663.845 92.8527 682.622 90.6701C701.402 88.4876 704.658 80.0481 704.658 80.0481C704.658 80.0481 711.462 80.3391 712.516 74.5188C713.57 68.6987 708.876 68.1893 707.246 68.9168C705.617 69.6443 703.415 71.6761 701.881 71.6788C700.348 71.6814 691.112 69.7899 687.49 53.8569C687.49 53.8569 667.165 61.1808 662.311 70.5902Z" fill="#FECFBD"/>
<path d="M677.6 81.3557C675.327 81.3557 673.827 80.9387 673.695 80.9006C673.348 80.8004 673.175 80.5055 673.307 80.2421C673.437 79.9788 673.825 79.8468 674.172 79.9461C674.434 80.0211 680.704 81.7315 687.288 77.348C687.568 77.1623 687.993 77.1834 688.237 77.3953C688.481 77.6071 688.454 77.9296 688.175 78.1154C684.225 80.7452 680.347 81.3557 677.6 81.3557Z" fill="#F5AC9E"/>
<path d="M680.198 91.1285C676.887 91.1285 674.867 90.6286 674.767 90.6028C674.413 90.5135 674.224 90.2244 674.34 89.957C674.459 89.6902 674.84 89.5455 675.189 89.6344C675.303 89.6626 686.636 92.37 699.695 84.2669C699.982 84.0882 700.404 84.121 700.639 84.3392C700.874 84.5573 700.831 84.8788 700.543 85.0571C693.421 89.477 686.819 90.7544 682.535 91.0478C681.7 91.1048 680.919 91.1285 680.198 91.1285Z" fill="#F5AC9E"/>
<path d="M838.97 464H1.02785C0.460038 464 -0.000488281 463.65 -0.000488281 463.219C-0.000488281 462.787 0.460038 462.437 1.02785 462.437H838.97C839.538 462.437 840 462.787 840 463.219C840 463.65 839.538 464 838.97 464Z" fill="#594D7A"/>
<path d="M591.993 206.45C591.993 221.232 576.214 233.214 556.75 233.214C537.283 233.214 521.504 221.232 521.504 206.45C521.504 191.67 537.283 179.688 556.75 179.688C576.214 179.688 591.993 191.67 591.993 206.45Z" fill="#FFD15F"/>
<path d="M553.839 220.317C553.839 219.298 552.853 218.438 551.527 218.286C550.178 218.13 549.019 217.92 548.054 217.653C547.768 217.575 547.497 217.499 547.239 217.424C545.847 217.026 545.144 215.846 545.666 214.787L545.883 214.347C546.397 213.3 547.917 212.764 549.306 213.128C549.82 213.264 550.363 213.393 550.934 213.518C552.513 213.865 554.181 214.038 555.938 214.038C557.924 214.038 559.284 213.834 560.017 213.426C560.749 213.017 561.114 212.444 561.114 211.702C561.114 211.233 560.968 210.83 560.676 210.496C560.382 210.163 559.959 209.86 559.405 209.588C558.853 209.316 558.152 209.051 557.305 208.791C556.459 208.531 555.482 208.254 554.377 207.957C553.302 207.659 552.253 207.332 551.226 206.975C550.201 206.616 549.274 206.177 548.444 205.658C547.613 205.138 546.944 204.502 546.44 203.748C545.936 202.994 545.685 202.086 545.685 201.022C545.685 200.207 545.838 199.422 546.148 198.669C546.456 197.915 546.938 197.229 547.588 196.61C548.238 195.993 549.085 195.466 550.128 195.035C550.694 194.799 551.315 194.6 551.995 194.433C553.102 194.165 553.839 193.371 553.839 192.489V192.135C553.839 191.002 555.048 190.083 556.541 190.083H557.289C558.782 190.083 559.991 191.002 559.991 192.135C559.991 193.139 560.948 193.997 562.248 194.159C563.018 194.255 563.723 194.367 564.362 194.496C564.503 194.525 564.64 194.553 564.775 194.582C566.185 194.882 567.011 195.991 566.646 197.067L566.482 197.549C566.103 198.662 564.599 199.313 563.138 199.012C562.778 198.935 562.404 198.864 562.018 198.797C560.603 198.551 559.113 198.426 557.55 198.426C555.988 198.426 554.863 198.625 554.181 199.02C553.496 199.415 553.156 199.935 553.156 200.577C553.156 200.973 553.261 201.313 553.474 201.597C553.684 201.881 554.017 202.134 554.473 202.358C554.93 202.58 555.491 202.796 556.16 203.006C556.826 203.218 557.632 203.446 558.576 203.694C560.007 204.091 561.336 204.524 562.557 204.996C563.775 205.465 564.834 206.004 565.729 206.609C566.626 207.214 567.324 207.924 567.828 208.741C568.333 209.555 568.586 210.506 568.586 211.593C568.586 212.335 568.44 213.069 568.148 213.799C567.853 214.529 567.365 215.201 566.683 215.818C565.998 216.437 565.11 216.967 564.019 217.412C563.403 217.663 562.705 217.877 561.927 218.048C560.779 218.303 559.991 219.107 559.991 220.015V220.849C559.991 221.98 558.782 222.9 557.289 222.9H556.541C555.048 222.9 553.839 221.98 553.839 220.849V220.317Z" fill="white"/>
</svg>
