<svg width="567" height="499" viewBox="0 0 567 499" fill="none" xmlns="http://www.w3.org/2000/svg">
<path fill-rule="evenodd" clip-rule="evenodd" d="M457.845 396.633C460.839 397.991 464.001 397.891 467.332 396.335C467.332 396.335 499.656 381.45 564.302 351.685C566.153 350.889 567.027 349.952 567 349.01V326.476C553.857 329.874 545.452 333.024 541.778 335.924L352.422 248.571C349.699 247.463 347.348 247.184 344.227 248.571L270.964 282.094C266.993 279.357 256.929 276.766 240.761 274.322V296.777C240.738 297.435 241.424 298.102 242.713 298.736C386.135 364.001 457.845 396.633 457.845 396.633Z" fill="#0A6E4D"/>
<path fill-rule="evenodd" clip-rule="evenodd" d="M457.845 374.082C460.839 375.44 464.002 375.34 467.333 373.784C467.333 373.784 499.656 358.9 564.302 329.133C568.004 327.547 567.797 325.383 564.289 323.756C564.289 323.756 493.666 291.178 352.422 226.021C349.699 224.913 347.348 224.633 344.227 226.021C344.227 226.021 310.388 241.503 242.713 272.469C239.982 273.635 240.241 274.969 242.713 276.185C386.135 341.45 457.845 374.082 457.845 374.082Z" fill="#16B37E"/>
<path fill-rule="evenodd" clip-rule="evenodd" d="M333.493 243.306C341.325 249.083 353.461 249.189 361.455 243.55C361.455 243.55 415.781 268.643 524.433 318.827C520.576 320.072 517.838 322.828 517.234 326.077C516.628 329.327 518.245 332.587 521.485 334.652C521.485 334.652 505.967 341.829 474.928 356.181C465.486 350.019 451.902 349.795 442.141 355.641C442.141 355.641 388.112 330.953 280.056 281.578C284.003 280.56 286.919 277.913 287.644 274.691C288.369 271.47 286.788 268.194 283.526 266.168C283.526 266.168 300.181 258.548 333.493 243.306Z" fill="#78C9B0"/>
<path fill-rule="evenodd" clip-rule="evenodd" d="M402.976 281.218C424.895 280.026 442.664 287.515 442.664 297.946C442.664 308.377 424.895 317.8 402.976 318.993C381.056 320.186 363.288 312.695 363.288 302.265C363.288 291.834 381.056 282.411 402.976 281.218Z" fill="#16B37E"/>
<path d="M422.335 302.675L411.823 298.422L413.068 298.009C414.395 297.57 415.135 297.233 415.301 297C415.474 296.766 415.162 296.489 414.362 296.166C413.721 295.907 413.062 295.772 412.393 295.758C411.716 295.746 411.029 295.856 410.318 296.091C409.143 296.481 408.646 296.888 408.833 297.31C409.003 297.725 409.984 298.796 411.757 300.518C413.269 301.981 414.21 303.011 414.569 303.606C414.923 304.202 414.876 304.819 414.42 305.462C413.962 306.105 412.903 306.705 411.233 307.259C408.557 308.144 405.556 308.478 402.226 308.252C398.896 308.028 395.242 307.241 391.269 305.901L388.448 306.835L383.591 304.87L386.488 303.91C383.876 302.707 382.195 301.457 381.443 300.162C380.685 298.867 381.986 297.664 385.334 296.555L386.802 296.068L397.314 300.323L395.479 300.931C393.459 301.6 392.313 302.059 392.046 302.31C391.771 302.559 392.055 302.851 392.881 303.186C393.592 303.474 394.297 303.633 394.982 303.661C395.671 303.688 396.35 303.589 397.015 303.368C398.699 302.809 399.737 302.341 400.133 301.968C400.529 301.595 400.201 300.878 399.122 299.816C397.354 298.038 396.229 296.807 395.747 296.115C395.278 295.426 395.221 294.706 395.616 293.959C395.998 293.211 396.965 292.582 398.514 292.068C400.757 291.325 403.407 291.102 406.463 291.399C409.518 291.696 412.975 292.514 416.831 293.855L419.232 293.059L424.089 295.024L421.687 295.82C424.636 297.233 426.289 298.472 426.649 299.544C427.001 300.612 426.07 301.516 423.852 302.252C423.548 302.352 423.035 302.496 422.335 302.675Z" fill="white"/>
<path fill-rule="evenodd" clip-rule="evenodd" d="M457.845 370.913C460.839 372.271 464.001 372.171 467.332 370.615C467.332 370.615 499.656 355.731 564.302 325.964C566.153 325.17 567.027 324.232 567 323.29V300.755C553.857 304.155 545.452 307.304 541.778 310.204L352.422 222.852C349.699 221.744 347.348 221.464 344.227 222.852L270.964 256.374C266.993 253.636 256.929 251.046 240.761 248.602V271.057C240.738 271.715 241.424 272.381 242.713 273.015C386.135 338.281 457.845 370.913 457.845 370.913Z" fill="#0A6E4D"/>
<path fill-rule="evenodd" clip-rule="evenodd" d="M457.845 348.362C460.839 349.72 464.002 349.62 467.333 348.064C467.333 348.064 499.656 333.18 564.302 303.413C568.004 301.826 567.797 299.663 564.289 298.036C564.289 298.036 493.666 265.458 352.422 200.301C349.699 199.193 347.348 198.913 344.227 200.301C344.227 200.301 310.388 215.783 242.713 246.749C239.982 247.914 240.241 249.249 242.713 250.464C386.135 315.73 457.845 348.362 457.845 348.362Z" fill="#16B37E"/>
<path fill-rule="evenodd" clip-rule="evenodd" d="M333.493 217.585C341.325 223.364 353.461 223.47 361.455 217.83C361.455 217.83 415.781 242.923 524.433 293.107C520.576 294.352 517.838 297.108 517.234 300.358C516.628 303.607 518.245 306.867 521.485 308.932C521.485 308.932 505.967 316.108 474.928 330.46C465.486 324.299 451.902 324.075 442.141 329.92C442.141 329.92 388.112 305.233 280.056 255.858C284.003 254.841 286.919 252.194 287.644 248.972C288.369 245.75 286.788 242.474 283.526 240.449C283.526 240.449 300.181 232.828 333.493 217.585Z" fill="#78C9B0"/>
<path fill-rule="evenodd" clip-rule="evenodd" d="M402.976 255.498C424.895 254.306 442.664 261.795 442.664 272.227C442.664 282.659 424.895 292.081 402.976 293.273C381.056 294.465 363.288 286.976 363.288 276.545C363.288 266.114 381.056 256.691 402.976 255.498Z" fill="#16B37E"/>
<path d="M422.335 276.894L411.823 272.64L413.068 272.227C414.395 271.788 415.135 271.451 415.301 271.219C415.474 270.984 415.162 270.709 414.362 270.385C413.721 270.126 413.062 269.99 412.393 269.976C411.716 269.964 411.029 270.074 410.318 270.31C409.143 270.7 408.646 271.107 408.833 271.529C409.003 271.943 409.984 273.014 411.757 274.737C413.269 276.199 414.21 277.23 414.569 277.824C414.923 278.421 414.876 279.038 414.42 279.681C413.962 280.324 412.903 280.923 411.233 281.477C408.557 282.363 405.556 282.697 402.226 282.471C398.896 282.246 395.242 281.46 391.269 280.119L388.448 281.054L383.591 279.088L386.488 278.128C383.876 276.927 382.195 275.676 381.443 274.38C380.685 273.086 381.986 271.883 385.334 270.773L386.802 270.287L397.314 274.541L395.479 275.15C393.459 275.819 392.313 276.277 392.046 276.528C391.771 276.777 392.055 277.069 392.881 277.405C393.592 277.693 394.297 277.851 394.982 277.881C395.671 277.907 396.35 277.807 397.015 277.586C398.699 277.028 399.737 276.559 400.133 276.186C400.529 275.813 400.201 275.097 399.122 274.033C397.354 272.256 396.229 271.025 395.747 270.335C395.278 269.644 395.221 268.924 395.616 268.177C395.998 267.429 396.965 266.801 398.514 266.288C400.757 265.544 403.407 265.321 406.463 265.617C409.518 265.914 412.975 266.733 416.831 268.074L419.232 267.277L424.089 269.243L421.687 270.038C424.636 271.451 426.289 272.691 426.649 273.763C427.001 274.831 426.07 275.735 423.852 276.47C423.548 276.571 423.035 276.714 422.335 276.894Z" fill="white"/>
<path fill-rule="evenodd" clip-rule="evenodd" d="M457.845 345.071C460.839 346.428 464.001 346.329 467.332 344.772C467.332 344.772 499.656 329.889 564.302 300.122C566.153 299.328 567.027 298.39 567 297.448V274.913C553.857 278.312 545.452 281.461 541.778 284.361L352.422 197.01C349.699 195.901 347.348 195.622 344.227 197.01L270.964 230.531C266.993 227.794 256.929 225.203 240.761 222.761V245.216C240.738 245.873 241.424 246.54 242.713 247.174C386.135 312.438 457.845 345.071 457.845 345.071Z" fill="#0A6E4D"/>
<path fill-rule="evenodd" clip-rule="evenodd" d="M457.845 322.52C460.839 323.878 464.002 323.778 467.333 322.222C467.333 322.222 499.656 307.338 564.302 277.571C568.004 275.984 567.797 273.822 564.289 272.195C564.289 272.195 493.666 239.615 352.422 174.459C349.699 173.35 347.348 173.071 344.227 174.459C344.227 174.459 310.388 189.941 242.713 220.907C239.982 222.073 240.241 223.407 242.713 224.622C386.135 289.888 457.845 322.52 457.845 322.52Z" fill="#16B37E"/>
<path fill-rule="evenodd" clip-rule="evenodd" d="M333.493 191.743C341.325 197.521 353.461 197.627 361.455 191.988C361.455 191.988 415.781 217.08 524.433 267.265C520.576 268.51 517.838 271.266 517.234 274.516C516.628 277.764 518.245 281.024 521.485 283.09C521.485 283.09 505.967 290.266 474.928 304.618C465.486 298.457 451.902 298.233 442.141 304.077C442.141 304.077 388.112 279.391 280.056 230.016C284.003 228.997 286.919 226.351 287.644 223.129C288.369 219.907 286.788 216.632 283.526 214.606C283.526 214.606 300.181 206.985 333.493 191.743Z" fill="#78C9B0"/>
<path fill-rule="evenodd" clip-rule="evenodd" d="M402.976 229.595C424.895 228.402 442.664 235.892 442.664 246.324C442.664 256.754 424.895 266.178 402.976 267.37C381.056 268.561 363.288 261.073 363.288 250.642C363.288 240.21 381.056 230.788 402.976 229.595Z" fill="#16B37E"/>
<path d="M422.335 251.052L411.823 246.798L413.068 246.386C414.395 245.946 415.135 245.608 415.301 245.376C415.474 245.142 415.162 244.866 414.362 244.543C413.721 244.283 413.062 244.148 412.393 244.135C411.716 244.123 411.029 244.232 410.318 244.468C409.143 244.858 408.646 245.265 408.833 245.686C409.003 246.102 409.984 247.171 411.757 248.894C413.269 250.357 414.21 251.387 414.569 251.981C414.923 252.579 414.876 253.196 414.42 253.839C413.962 254.481 412.903 255.081 411.233 255.635C408.557 256.522 405.556 256.854 402.226 256.629C398.896 256.403 395.242 255.618 391.269 254.276L388.448 255.211L383.591 253.246L386.488 252.286C383.876 251.084 382.195 249.833 381.443 248.538C380.685 247.244 381.986 246.04 385.334 244.931L386.802 244.445L397.314 248.698L395.479 249.307C393.459 249.977 392.313 250.435 392.046 250.687C391.771 250.935 392.055 251.228 392.881 251.562C393.592 251.85 394.297 252.009 394.982 252.039C395.671 252.065 396.35 251.965 397.015 251.744C398.699 251.186 399.737 250.718 400.133 250.344C400.529 249.971 400.201 249.255 399.122 248.191C397.354 246.414 396.229 245.183 395.747 244.492C395.278 243.803 395.221 243.082 395.616 242.335C395.998 241.587 396.965 240.959 398.514 240.445C400.757 239.702 403.407 239.479 406.463 239.776C409.518 240.072 412.975 240.891 416.831 242.231L419.232 241.435L424.089 243.4L421.687 244.197C424.636 245.609 426.289 246.849 426.649 247.92C427.001 248.989 426.07 249.892 423.852 250.627C423.548 250.728 423.035 250.872 422.335 251.052Z" fill="white"/>
<path fill-rule="evenodd" clip-rule="evenodd" d="M457.845 319.289C460.839 320.647 464.001 320.548 467.332 318.992C467.332 318.992 499.656 304.108 564.302 274.342C566.153 273.547 567.027 272.609 567 271.666V249.132C553.857 252.531 545.452 255.681 541.778 258.58L352.422 171.228C349.699 170.12 347.348 169.841 344.227 171.228L270.964 204.751C266.993 202.013 256.929 199.423 240.761 196.979V219.434C240.738 220.092 241.424 220.758 242.713 221.392C386.135 286.657 457.845 319.289 457.845 319.289Z" fill="#0A6E4D"/>
<path fill-rule="evenodd" clip-rule="evenodd" d="M457.845 296.8C460.839 298.157 464.002 298.058 467.333 296.502C467.333 296.502 499.656 281.619 564.302 251.852C568.004 250.263 567.797 248.101 564.289 246.474C564.289 246.474 493.666 213.897 352.422 148.739C349.699 147.63 347.348 147.351 344.227 148.739C344.227 148.739 310.388 164.222 242.713 195.186C239.982 196.352 240.241 197.687 242.713 198.902C386.135 264.167 457.845 296.8 457.845 296.8Z" fill="#16B37E"/>
<path fill-rule="evenodd" clip-rule="evenodd" d="M333.493 165.962C341.325 171.74 353.461 171.846 361.455 166.206C361.455 166.206 415.781 191.299 524.433 241.484C520.576 242.728 517.838 245.484 517.234 248.734C516.628 251.983 518.245 255.243 521.485 257.309C521.485 257.309 505.967 264.484 474.928 278.836C465.486 272.675 451.902 272.451 442.141 278.296C442.141 278.296 388.112 253.609 280.056 204.234C284.003 203.217 286.919 200.57 287.644 197.348C288.369 194.126 286.788 190.85 283.526 188.825C283.526 188.825 300.181 181.204 333.493 165.962Z" fill="#78C9B0"/>
<path fill-rule="evenodd" clip-rule="evenodd" d="M402.976 203.875C424.895 202.683 442.664 210.172 442.664 220.603C442.664 231.035 424.895 240.458 402.976 241.65C381.056 242.842 363.288 235.353 363.288 224.922C363.288 214.491 381.056 205.068 402.976 203.875Z" fill="#16B37E"/>
<path d="M422.335 225.332L411.823 221.078L413.068 220.665C414.395 220.226 415.135 219.889 415.301 219.657C415.474 219.423 415.162 219.146 414.362 218.823C413.721 218.564 413.062 218.428 412.393 218.415C411.716 218.403 411.029 218.512 410.318 218.748C409.143 219.138 408.646 219.545 408.833 219.967C409.003 220.382 409.984 221.452 411.757 223.175C413.269 224.638 414.21 225.668 414.569 226.263C414.923 226.859 414.876 227.476 414.42 228.119C413.962 228.762 412.903 229.361 411.233 229.915C408.557 230.802 405.556 231.135 402.226 230.909C398.896 230.685 395.242 229.898 391.269 228.557L388.448 229.492L383.591 227.526L386.488 226.566C383.876 225.364 382.195 224.114 381.443 222.818C380.685 221.524 381.986 220.32 385.334 219.211L386.802 218.725L397.314 222.979L395.479 223.588C393.459 224.257 392.313 224.715 392.046 224.967C391.771 225.215 392.055 225.508 392.881 225.843C393.592 226.131 394.297 226.289 394.982 226.318C395.671 226.345 396.35 226.246 397.015 226.025C398.699 225.466 399.737 224.998 400.133 224.625C400.529 224.252 400.201 223.535 399.122 222.472C397.354 220.694 396.229 219.464 395.747 218.773C395.278 218.082 395.221 217.362 395.616 216.616C395.998 215.867 396.965 215.239 398.514 214.726C400.757 213.982 403.407 213.759 406.463 214.055C409.518 214.353 412.975 215.171 416.831 216.512L419.232 215.716L424.089 217.681L421.687 218.476C424.636 219.89 426.289 221.129 426.649 222.201C427.001 223.269 426.07 224.173 423.852 224.908C423.548 225.009 423.035 225.152 422.335 225.332Z" fill="white"/>
<path fill-rule="evenodd" clip-rule="evenodd" d="M348.312 447.464C351.306 448.822 354.47 448.722 357.8 447.166C357.8 447.166 390.123 432.283 454.771 402.515C456.623 401.722 457.495 400.783 457.467 399.84V377.306C444.326 380.705 435.921 383.855 432.247 386.754L242.889 299.403C240.166 298.295 237.816 298.015 234.694 299.403L161.431 332.925C157.462 330.188 147.397 327.597 131.23 325.154V347.608C131.205 348.267 131.892 348.932 133.181 349.566C276.602 414.831 348.312 447.464 348.312 447.464Z" fill="#0A6E4D"/>
<path fill-rule="evenodd" clip-rule="evenodd" d="M348.312 424.974C351.307 426.332 354.47 426.232 357.8 424.675C357.8 424.675 390.124 409.792 454.772 380.025C458.471 378.437 458.265 376.275 454.757 374.648C454.757 374.648 384.135 342.07 242.889 276.913C240.166 275.805 237.816 275.525 234.694 276.913C234.694 276.913 200.857 292.395 133.182 323.361C130.45 324.525 130.709 325.861 133.182 327.076C276.603 392.341 348.312 424.974 348.312 424.974Z" fill="#16B37E"/>
<path fill-rule="evenodd" clip-rule="evenodd" d="M224.27 294.136C232.103 299.914 244.239 300.021 252.233 294.382C252.233 294.382 306.558 319.474 415.21 369.659C411.352 370.904 408.617 373.659 408.011 376.909C407.407 380.158 409.022 383.418 412.262 385.484C412.262 385.484 396.744 392.659 365.706 407.012C356.264 400.85 342.679 400.627 332.918 406.471C332.918 406.471 278.891 381.784 170.833 332.409C174.78 331.391 177.696 328.745 178.422 325.523C179.147 322.301 177.565 319.026 174.303 317C174.303 317 190.959 309.379 224.27 294.136Z" fill="#78C9B0"/>
<path fill-rule="evenodd" clip-rule="evenodd" d="M293.753 332.049C315.672 330.856 333.442 338.346 333.442 348.777C333.442 359.208 315.672 368.631 293.753 369.824C271.834 371.016 254.065 363.526 254.065 353.095C254.065 342.664 271.834 333.241 293.753 332.049Z" fill="#16B37E"/>
<path d="M312.804 353.506L302.291 349.252L303.536 348.839C304.864 348.4 305.603 348.063 305.77 347.831C305.942 347.597 305.63 347.32 304.829 346.997C304.188 346.738 303.531 346.601 302.861 346.588C302.186 346.577 301.498 346.686 300.786 346.923C299.611 347.311 299.114 347.718 299.303 348.141C299.473 348.556 300.452 349.625 302.226 351.349C303.738 352.812 304.678 353.842 305.038 354.437C305.39 355.033 305.345 355.65 304.888 356.293C304.432 356.935 303.37 357.536 301.7 358.088C299.026 358.975 296.024 359.309 292.694 359.083C289.363 358.859 285.711 358.072 281.737 356.731L278.917 357.666L274.061 355.7L276.956 354.74C274.344 353.538 272.663 352.288 271.911 350.991C271.152 349.698 272.455 348.495 275.803 347.386L277.27 346.899L287.783 351.152L285.946 351.762C283.926 352.431 282.781 352.888 282.515 353.141C282.239 353.39 282.522 353.682 283.35 354.016C284.062 354.304 284.766 354.464 285.45 354.492C286.14 354.518 286.817 354.419 287.484 354.198C289.168 353.64 290.206 353.171 290.602 352.798C290.996 352.425 290.67 351.709 289.591 350.646C287.822 348.869 286.698 347.637 286.216 346.946C285.748 346.256 285.69 345.537 286.085 344.789C286.466 344.041 287.434 343.413 288.984 342.899C291.227 342.156 293.875 341.933 296.93 342.229C299.988 342.526 303.444 343.345 307.3 344.686L309.7 343.89L314.558 345.855L312.157 346.65C315.104 348.063 316.757 349.303 317.118 350.374C317.47 351.443 316.538 352.346 314.32 353.082C314.016 353.183 313.504 353.327 312.804 353.506Z" fill="white"/>
<path fill-rule="evenodd" clip-rule="evenodd" d="M348.312 421.744C351.306 423.103 354.47 423.003 357.8 421.446C357.8 421.446 390.123 406.562 454.771 376.796C456.623 376.001 457.495 375.063 457.467 374.12V351.586C444.326 354.986 435.921 358.134 432.247 361.034L242.889 273.683C240.166 272.574 237.816 272.295 234.694 273.683L161.431 307.204C157.462 304.467 147.397 301.876 131.23 299.433V321.888C131.205 322.546 131.892 323.212 133.181 323.846C276.602 389.112 348.312 421.744 348.312 421.744Z" fill="#0A6E4D"/>
<path fill-rule="evenodd" clip-rule="evenodd" d="M348.312 399.194C351.307 400.551 354.47 400.451 357.8 398.894C357.8 398.894 390.124 384.011 454.772 354.245C458.471 352.657 458.265 350.494 454.757 348.868C454.757 348.868 384.135 316.288 242.889 251.132C240.166 250.023 237.816 249.744 234.694 251.132C234.694 251.132 200.857 266.615 133.182 297.579C130.45 298.745 130.709 300.079 133.182 301.296C276.603 366.56 348.312 399.194 348.312 399.194Z" fill="#16B37E"/>
<path fill-rule="evenodd" clip-rule="evenodd" d="M224.27 268.416C232.103 274.194 244.239 274.3 252.233 268.661C252.233 268.661 306.558 293.753 415.21 343.938C411.352 345.183 408.617 347.939 408.011 351.188C407.407 354.438 409.022 357.697 412.262 359.763C412.262 359.763 396.744 366.939 365.706 381.291C356.264 375.129 342.679 374.907 332.918 380.751C332.918 380.751 278.891 356.063 170.833 306.689C174.78 305.671 177.696 303.024 178.422 299.802C179.147 296.581 177.565 293.305 174.303 291.279C174.303 291.279 190.959 283.658 224.27 268.416Z" fill="#78C9B0"/>
<path fill-rule="evenodd" clip-rule="evenodd" d="M293.753 306.329C315.672 305.136 333.442 312.626 333.442 323.057C333.442 333.488 315.672 342.911 293.753 344.104C271.834 345.296 254.065 337.807 254.065 327.376C254.065 316.945 271.834 307.522 293.753 306.329Z" fill="#16B37E"/>
<path d="M312.804 327.785L302.291 323.532L303.536 323.119C304.864 322.679 305.603 322.343 305.77 322.11C305.942 321.876 305.63 321.6 304.829 321.276C304.188 321.018 303.531 320.882 302.861 320.868C302.186 320.856 301.498 320.966 300.786 321.202C299.611 321.592 299.114 321.998 299.303 322.421C299.473 322.835 300.452 323.906 302.226 325.628C303.738 327.091 304.678 328.122 305.038 328.716C305.39 329.312 305.345 329.93 304.888 330.572C304.432 331.215 303.37 331.815 301.7 332.369C299.026 333.256 296.024 333.589 292.694 333.363C289.363 333.138 285.711 332.352 281.737 331.011L278.917 331.945L274.061 329.98L276.956 329.02C274.344 327.817 272.663 326.567 271.911 325.271C271.152 323.977 272.455 322.774 275.803 321.664L277.27 321.179L287.783 325.433L285.946 326.042C283.926 326.71 282.781 327.169 282.515 327.42C282.239 327.669 282.522 327.961 283.35 328.296C284.062 328.584 284.766 328.743 285.45 328.771C286.14 328.799 286.817 328.699 287.484 328.478C289.168 327.919 290.206 327.45 290.602 327.078C290.996 326.705 290.67 325.988 289.591 324.926C287.822 323.148 286.698 321.917 286.216 321.226C285.748 320.536 285.69 319.816 286.085 319.069C286.466 318.321 287.434 317.692 288.984 317.179C291.227 316.436 293.875 316.213 296.93 316.509C299.988 316.806 303.444 317.625 307.3 318.965L309.7 318.169L314.558 320.134L312.157 320.93C315.104 322.343 316.757 323.582 317.118 324.655C317.47 325.722 316.538 326.627 314.32 327.361C314.016 327.463 313.504 327.606 312.804 327.785Z" fill="white"/>
<path fill-rule="evenodd" clip-rule="evenodd" d="M348.312 395.902C351.306 397.26 354.47 397.16 357.8 395.604C357.8 395.604 390.123 380.72 454.771 350.953C456.623 350.159 457.495 349.221 457.467 348.278V325.744C444.326 329.143 435.921 332.292 432.247 335.192L242.889 247.84C240.166 246.732 237.816 246.452 234.694 247.84L161.431 281.362C157.462 278.625 147.397 276.035 131.23 273.591V296.047C131.205 296.704 131.892 297.371 133.181 298.004C276.602 363.27 348.312 395.902 348.312 395.902Z" fill="#0A6E4D"/>
<path fill-rule="evenodd" clip-rule="evenodd" d="M348.312 373.351C351.307 374.709 354.47 374.609 357.8 373.053C357.8 373.053 390.124 358.169 454.772 328.402C458.471 326.815 458.265 324.653 454.757 323.025C454.757 323.025 384.135 290.447 242.889 225.289C240.166 224.182 237.816 223.902 234.694 225.289C234.694 225.289 200.857 240.772 133.182 271.738C130.45 272.903 130.709 274.238 133.182 275.453C276.603 340.718 348.312 373.351 348.312 373.351Z" fill="#16B37E"/>
<path fill-rule="evenodd" clip-rule="evenodd" d="M224.27 242.574C232.103 248.353 244.239 248.459 252.233 242.819C252.233 242.819 306.558 267.911 415.21 318.096C411.352 319.341 408.617 322.097 408.011 325.347C407.407 328.596 409.022 331.855 412.262 333.921C412.262 333.921 396.744 341.097 365.706 355.449C356.264 349.288 342.679 349.065 332.918 354.909C332.918 354.909 278.891 330.222 170.833 280.847C174.78 279.83 177.696 277.183 178.422 273.961C179.147 270.739 177.565 267.464 174.303 265.438C174.303 265.438 190.959 257.816 224.27 242.574Z" fill="#78C9B0"/>
<path fill-rule="evenodd" clip-rule="evenodd" d="M293.753 280.487C315.672 279.294 333.442 286.783 333.442 297.215C333.442 307.646 315.672 317.069 293.753 318.261C271.834 319.453 254.065 311.965 254.065 301.533C254.065 291.102 271.834 281.68 293.753 280.487Z" fill="#16B37E"/>
<path d="M312.804 301.945L302.291 297.69L303.536 297.277C304.864 296.838 305.603 296.501 305.77 296.269C305.942 296.035 305.63 295.759 304.829 295.434C304.188 295.176 303.531 295.04 302.861 295.026C302.186 295.015 301.498 295.124 300.786 295.36C299.611 295.75 299.114 296.157 299.303 296.58C299.473 296.993 300.452 298.064 302.226 299.786C303.738 301.249 304.678 302.28 305.038 302.874C305.39 303.471 305.345 304.089 304.888 304.731C304.432 305.374 303.37 305.973 301.7 306.527C299.026 307.413 296.024 307.747 292.694 307.522C289.363 307.297 285.711 306.51 281.737 305.169L278.917 306.104L274.061 304.138L276.956 303.178C274.344 301.976 272.663 300.727 271.911 299.43C271.152 298.136 272.455 296.932 275.803 295.824L277.27 295.337L287.783 299.591L285.946 300.2C283.926 300.869 282.781 301.327 282.515 301.578C282.239 301.827 282.522 302.12 283.35 302.454C284.062 302.743 284.766 302.902 285.45 302.931C286.14 302.957 286.817 302.858 287.484 302.636C289.168 302.078 290.206 301.609 290.602 301.237C290.996 300.863 290.67 300.147 289.591 299.084C287.822 297.307 286.698 296.075 286.216 295.385C285.748 294.694 285.69 293.975 286.085 293.227C286.466 292.48 287.434 291.851 288.984 291.338C291.227 290.595 293.875 290.371 296.93 290.667C299.988 290.964 303.444 291.783 307.3 293.124L309.7 292.329L314.558 294.293L312.157 295.089C315.104 296.501 316.757 297.741 317.118 298.813C317.47 299.881 316.538 300.785 314.32 301.52C314.016 301.621 313.504 301.764 312.804 301.945Z" fill="white"/>
<path fill-rule="evenodd" clip-rule="evenodd" d="M238.161 498.051C241.157 499.409 244.319 499.309 247.65 497.753C247.65 497.753 279.973 482.869 344.62 453.102C346.471 452.308 347.344 451.37 347.317 450.428V427.894C334.174 431.293 325.769 434.442 322.095 437.342L132.738 349.99C130.015 348.882 127.666 348.602 124.543 349.99L51.2797 383.512C47.3099 380.774 37.2459 378.184 21.0788 375.74V398.195C21.0539 398.854 21.7405 399.519 23.0305 400.154C166.452 465.419 238.161 498.051 238.161 498.051Z" fill="#0A6E4D"/>
<path fill-rule="evenodd" clip-rule="evenodd" d="M238.162 475.562C241.157 476.919 244.32 476.82 247.65 475.262C247.65 475.262 279.974 460.379 344.62 430.612C348.321 429.025 348.115 426.863 344.607 425.235C344.607 425.235 273.984 392.657 132.739 327.5C130.016 326.392 127.666 326.112 124.544 327.5C124.544 327.5 90.7052 342.982 23.0312 373.948C20.2987 375.113 20.5587 376.448 23.0312 377.663C166.453 442.929 238.162 475.562 238.162 475.562Z" fill="#16B37E"/>
<path fill-rule="evenodd" clip-rule="evenodd" d="M113.81 344.724C121.642 350.501 133.779 350.608 141.773 344.968C141.773 344.968 196.099 370.061 304.75 420.246C300.893 421.491 298.156 424.247 297.551 427.495C296.946 430.745 298.563 434.005 301.803 436.07C301.803 436.07 286.284 443.246 255.246 457.598C245.804 451.437 232.22 451.214 222.459 457.058C222.459 457.058 168.43 432.371 60.3735 382.996C64.3205 381.978 67.2364 379.332 67.962 376.11C68.6869 372.888 67.1047 369.613 63.8431 367.587C63.8431 367.587 80.4988 359.966 113.81 344.724Z" fill="#78C9B0"/>
<path fill-rule="evenodd" clip-rule="evenodd" d="M183.294 382.636C205.213 381.444 222.981 388.933 222.981 399.364C222.981 409.795 205.213 419.219 183.294 420.411C161.374 421.604 143.605 414.114 143.605 403.682C143.605 393.251 161.374 383.828 183.294 382.636Z" fill="#16B37E"/>
<path d="M202.344 404.093L191.83 399.838L193.077 399.426C194.404 398.987 195.144 398.65 195.309 398.418C195.482 398.184 195.17 397.907 194.37 397.584C193.73 397.324 193.071 397.188 192.401 397.176C191.725 397.163 191.038 397.273 190.326 397.509C189.151 397.899 188.654 398.306 188.842 398.728C189.012 399.143 189.993 400.212 191.765 401.936C193.278 403.399 194.219 404.428 194.578 405.024C194.931 405.619 194.885 406.237 194.429 406.88C193.971 407.522 192.91 408.122 191.24 408.675C188.566 409.562 185.564 409.896 182.234 409.67C178.903 409.446 175.251 408.659 171.278 407.318L168.457 408.253L163.6 406.287L166.497 405.327C163.884 404.125 162.203 402.875 161.451 401.579C160.692 400.285 161.995 399.082 165.343 397.972L166.81 397.486L177.323 401.74L175.487 402.349C173.466 403.018 172.322 403.475 172.055 403.728C171.78 403.977 172.064 404.268 172.89 404.604C173.602 404.892 174.306 405.051 174.99 405.079C175.68 405.106 176.357 405.006 177.024 404.785C178.708 404.227 179.746 403.759 180.142 403.386C180.537 403.012 180.21 402.296 179.131 401.232C177.363 399.456 176.237 398.224 175.756 397.533C175.287 396.844 175.23 396.124 175.625 395.377C176.007 394.628 176.973 394 178.523 393.486C180.766 392.743 183.416 392.52 186.471 392.817C189.527 393.113 192.984 393.932 196.84 395.273L199.241 394.477L204.098 396.441L201.696 397.237C204.644 398.65 206.297 399.89 206.658 400.961C207.01 402.03 206.078 402.934 203.861 403.669C203.557 403.77 203.044 403.913 202.344 404.093Z" fill="white"/>
<path fill-rule="evenodd" clip-rule="evenodd" d="M492.461 395.669C518.323 394.262 540.075 401.445 546.427 412.454C547.047 412.42 547.68 412.479 548.295 412.641L548.29 418.623C548.299 418.816 548.307 419.011 548.307 419.206C548.307 419.412 548.299 419.618 548.29 419.824V419.858H548.288C547.563 434.274 522.847 447.167 492.461 448.82C462.246 450.465 437.637 440.381 436.652 426.17H436.648V426.119C436.631 425.841 436.618 425.563 436.618 425.285C436.618 425.029 436.628 424.775 436.642 424.522L436.618 418.189C437.254 418.197 437.861 418.296 438.418 418.471C444.669 406.704 466.495 397.082 492.461 395.669Z" fill="#ED7323"/>
<path fill-rule="evenodd" clip-rule="evenodd" d="M492.461 388.599C523.304 386.922 548.307 397.46 548.307 412.137C548.307 426.815 523.304 440.073 492.461 441.752C461.62 443.429 436.618 432.891 436.618 418.214C436.618 403.536 461.62 390.278 492.461 388.599Z" fill="#FED33F"/>
<path fill-rule="evenodd" clip-rule="evenodd" d="M492.64 394.775C517.259 393.487 537.217 401.574 537.217 412.836C537.217 424.097 517.259 434.271 492.64 435.558C468.023 436.846 448.066 428.76 448.066 417.498C448.066 406.236 468.023 396.063 492.64 394.775Z" fill="#ED7323"/>
<path d="M517.085 418.442L503.626 412.996L505.22 412.468C506.92 411.905 507.868 411.473 508.081 411.176C508.301 410.877 507.901 410.523 506.877 410.108C506.056 409.777 505.213 409.603 504.356 409.586C503.491 409.571 502.611 409.711 501.699 410.014C500.196 410.512 499.558 411.033 499.8 411.574C500.018 412.105 501.272 413.474 503.543 415.68C505.478 417.552 506.682 418.872 507.143 419.634C507.595 420.397 507.537 421.187 506.951 422.01C506.366 422.832 505.009 423.601 502.871 424.31C499.445 425.443 495.603 425.872 491.34 425.582C487.077 425.294 482.399 424.287 477.313 422.57L473.702 423.769L467.484 421.252L471.193 420.022C467.849 418.483 465.696 416.882 464.734 415.224C463.762 413.567 465.429 412.026 469.715 410.607L471.594 409.984L485.053 415.43L482.702 416.208C480.115 417.066 478.65 417.652 478.308 417.974C477.955 418.294 478.319 418.667 479.377 419.096C480.288 419.464 481.19 419.667 482.066 419.705C482.949 419.738 483.816 419.611 484.671 419.328C486.826 418.614 488.155 418.014 488.661 417.536C489.167 417.058 488.748 416.141 487.367 414.78C485.104 412.504 483.664 410.928 483.045 410.044C482.446 409.16 482.372 408.239 482.879 407.283C483.367 406.325 484.606 405.521 486.59 404.863C489.462 403.912 492.853 403.626 496.764 404.006C500.678 404.386 505.102 405.434 510.039 407.149L513.112 406.131L519.331 408.646L516.255 409.665C520.03 411.473 522.146 413.061 522.608 414.433C523.059 415.8 521.865 416.958 519.027 417.899C518.637 418.028 517.981 418.213 517.085 418.442Z" fill="white"/>
<path fill-rule="evenodd" clip-rule="evenodd" d="M492.461 387.075C518.323 385.668 540.075 392.851 546.427 403.861C547.047 403.826 547.68 403.885 548.295 404.048L548.29 410.029C548.299 410.224 548.307 410.417 548.307 410.613C548.307 410.819 548.299 411.025 548.29 411.23V411.264L548.288 411.265C547.563 425.68 522.847 438.575 492.461 440.227C462.246 441.871 437.637 431.788 436.652 417.575H436.648V417.525C436.631 417.248 436.618 416.97 436.618 416.689C436.618 416.435 436.628 416.181 436.642 415.927L436.618 409.595C437.254 409.604 437.861 409.702 438.418 409.877C444.669 398.11 466.495 388.488 492.461 387.075Z" fill="#ED7323"/>
<path fill-rule="evenodd" clip-rule="evenodd" d="M492.461 380.005C523.304 378.328 548.307 388.866 548.307 403.543C548.307 418.22 523.304 431.479 492.461 433.157C461.62 434.835 436.618 424.297 436.618 409.619C436.618 394.942 461.62 381.683 492.461 380.005Z" fill="#FED33F"/>
<path fill-rule="evenodd" clip-rule="evenodd" d="M492.64 386.181C517.259 384.893 537.217 392.979 537.217 404.241C537.217 415.504 517.259 425.676 492.64 426.964C468.023 428.251 448.066 420.166 448.066 408.904C448.066 397.641 468.023 387.469 492.64 386.181Z" fill="#ED7323"/>
<path d="M517.085 409.848L503.626 404.402L505.22 403.874C506.92 403.31 507.868 402.879 508.081 402.583C508.301 402.283 507.901 401.93 506.877 401.514C506.056 401.183 505.213 401.009 504.356 400.993C503.491 400.977 502.611 401.118 501.699 401.42C500.196 401.918 499.558 402.439 499.8 402.98C500.018 403.511 501.272 404.88 503.543 407.086C505.478 408.959 506.682 410.278 507.143 411.039C507.595 411.804 507.537 412.593 506.951 413.416C506.366 414.239 505.009 415.007 502.871 415.716C499.445 416.85 495.603 417.277 491.34 416.988C487.077 416.7 482.399 415.693 477.313 413.977L473.702 415.173L467.484 412.657L471.193 411.429C467.849 409.889 465.696 408.289 464.734 406.63C463.762 404.974 465.429 403.433 469.715 402.013L471.594 401.39L485.053 406.836L482.702 407.615C480.115 408.472 478.65 409.057 478.308 409.381C477.955 409.7 478.319 410.073 479.377 410.501C480.288 410.87 481.19 411.074 482.066 411.111C482.949 411.144 483.816 411.017 484.671 410.734C486.826 410.02 488.155 409.42 488.661 408.943C489.167 408.464 488.748 407.547 487.367 406.187C485.104 403.911 483.664 402.334 483.045 401.45C482.446 400.567 482.372 399.645 482.879 398.688C483.367 397.731 484.606 396.927 486.59 396.27C489.462 395.318 492.853 395.033 496.764 395.412C500.678 395.792 505.102 396.84 510.039 398.556L513.112 397.537L519.331 400.053L516.255 401.071C520.03 402.88 522.146 404.467 522.608 405.839C523.059 407.206 521.865 408.364 519.027 409.305C518.637 409.434 517.981 409.618 517.085 409.848Z" fill="white"/>
<path fill-rule="evenodd" clip-rule="evenodd" d="M492.461 378.664C518.323 377.257 540.075 384.44 546.427 395.45C547.047 395.416 547.68 395.475 548.295 395.636L548.29 401.618C548.299 401.812 548.307 402.006 548.307 402.202C548.307 402.408 548.299 402.614 548.29 402.819V402.853L548.288 402.854C547.563 417.27 522.847 430.164 492.461 431.817C462.246 433.46 437.637 423.378 436.652 409.165H436.648V409.114C436.631 408.837 436.618 408.559 436.618 408.278C436.618 408.025 436.628 407.77 436.642 407.516L436.618 401.185C437.254 401.193 437.861 401.291 438.418 401.467C444.669 389.7 466.495 380.077 492.461 378.664Z" fill="#ED7323"/>
<path fill-rule="evenodd" clip-rule="evenodd" d="M492.461 371.594C523.304 369.917 548.307 380.455 548.307 395.133C548.307 409.809 523.304 423.068 492.461 424.746C461.62 426.424 436.618 415.886 436.618 401.209C436.618 386.531 461.62 373.272 492.461 371.594Z" fill="#FED33F"/>
<path fill-rule="evenodd" clip-rule="evenodd" d="M492.64 377.77C517.259 376.483 537.217 384.569 537.217 395.83C537.217 407.093 517.259 417.265 492.64 418.554C468.023 419.841 448.066 411.755 448.066 400.493C448.066 389.231 468.023 379.058 492.64 377.77Z" fill="#ED7323"/>
<path d="M517.085 401.437L503.626 395.992L505.22 395.463C506.92 394.899 507.868 394.468 508.081 394.172C508.301 393.873 507.901 393.519 506.877 393.104C506.056 392.772 505.213 392.6 504.356 392.582C503.491 392.567 502.611 392.707 501.699 393.009C500.196 393.507 499.558 394.029 499.8 394.569C500.018 395.1 501.272 396.47 503.543 398.675C505.478 400.548 506.682 401.867 507.143 402.628C507.595 403.393 507.537 404.183 506.951 405.006C506.366 405.828 505.009 406.596 502.871 407.305C499.445 408.44 495.603 408.866 491.34 408.578C487.077 408.289 482.399 407.284 477.313 405.566L473.702 406.762L467.484 404.246L471.193 403.018C467.849 401.478 465.696 399.878 464.734 398.219C463.762 396.563 465.429 395.023 469.715 393.602L471.594 392.98L485.053 398.425L482.702 399.204C480.115 400.061 478.65 400.647 478.308 400.97C477.955 401.288 478.319 401.662 479.377 402.091C480.288 402.46 481.19 402.663 482.066 402.7C482.949 402.734 483.816 402.606 484.671 402.323C486.826 401.609 488.155 401.009 488.661 400.532C489.167 400.055 488.748 399.137 487.367 397.776C485.104 395.5 483.664 393.924 483.045 393.039C482.446 392.156 482.372 391.235 482.879 390.279C483.367 389.32 484.606 388.516 486.59 387.859C489.462 386.907 492.853 386.622 496.764 387.001C500.678 387.381 505.102 388.429 510.039 390.145L513.112 389.126L519.331 391.642L516.255 392.661C520.03 394.469 522.146 396.056 522.608 397.428C523.059 398.797 521.865 399.954 519.027 400.895C518.637 401.024 517.981 401.208 517.085 401.437Z" fill="white"/>
<path fill-rule="evenodd" clip-rule="evenodd" d="M492.461 370.071C518.323 368.664 540.075 375.847 546.427 386.856C547.047 386.822 547.68 386.881 548.295 387.043L548.29 393.024C548.299 393.218 548.307 393.413 548.307 393.608C548.307 393.815 548.299 394.02 548.29 394.226V394.26H548.288C547.563 408.677 522.847 421.57 492.461 423.223C462.246 424.867 437.637 414.784 436.652 400.571H436.648V400.521C436.631 400.243 436.618 399.965 436.618 399.684C436.618 399.431 436.628 399.176 436.642 398.923L436.618 392.592C437.254 392.599 437.861 392.698 438.418 392.873C444.669 381.106 466.495 371.484 492.461 370.071Z" fill="#ED7323"/>
<path fill-rule="evenodd" clip-rule="evenodd" d="M492.461 363.001C523.304 361.322 548.307 371.861 548.307 386.539C548.307 401.217 523.304 414.475 492.461 416.153C461.62 417.831 436.618 407.293 436.618 392.615C436.618 377.938 461.62 364.679 492.461 363.001Z" fill="#FED33F"/>
<path fill-rule="evenodd" clip-rule="evenodd" d="M492.64 369.177C517.259 367.889 537.217 375.975 537.217 387.236C537.217 398.499 517.259 408.672 492.64 409.959C468.023 411.247 448.066 403.161 448.066 391.899C448.066 380.637 468.023 370.464 492.64 369.177Z" fill="#ED7323"/>
<path d="M517.085 392.844L503.626 387.398L505.22 386.87C506.92 386.306 507.868 385.875 508.081 385.579C508.301 385.278 507.901 384.925 506.877 384.511C506.056 384.179 505.213 384.006 504.356 383.988C503.491 383.973 502.611 384.113 501.699 384.416C500.196 384.914 499.558 385.435 499.8 385.976C500.018 386.506 501.272 387.876 503.543 390.082C505.478 391.954 506.682 393.274 507.143 394.035C507.595 394.798 507.537 395.589 506.951 396.412C506.366 397.234 505.009 398.002 502.871 398.711C499.445 399.846 495.603 400.273 491.34 399.984C487.077 399.696 482.399 398.69 477.313 396.972L473.702 398.169L467.484 395.653L471.193 394.424C467.849 392.884 465.696 391.284 464.734 389.626C463.762 387.969 465.429 386.429 469.715 385.008L471.594 384.386L485.053 389.832L482.702 390.611C480.115 391.467 478.65 392.054 478.308 392.377C477.955 392.694 478.319 393.069 479.377 393.498C480.288 393.866 481.19 394.07 482.066 394.107C482.949 394.141 483.816 394.014 484.671 393.73C486.826 393.016 488.155 392.416 488.661 391.938C489.167 391.461 488.748 390.543 487.367 389.182C485.104 386.907 483.664 385.331 483.045 384.446C482.446 383.563 482.372 382.641 482.879 381.685C483.367 380.727 484.606 379.923 486.59 379.265C489.462 378.314 492.853 378.028 496.764 378.408C500.678 378.787 505.102 379.836 510.039 381.552L513.112 380.533L519.331 383.049L516.255 384.068C520.03 385.875 522.146 387.462 522.608 388.835C523.059 390.203 521.865 391.36 519.027 392.301C518.637 392.43 517.981 392.614 517.085 392.844Z" fill="white"/>
<path fill-rule="evenodd" clip-rule="evenodd" d="M492.461 361.355C518.323 359.949 540.075 367.13 546.427 378.14C547.047 378.106 547.68 378.165 548.295 378.328L548.29 384.308C548.299 384.503 548.307 384.698 548.307 384.893C548.307 385.099 548.299 385.305 548.29 385.51V385.544H548.288C547.563 399.961 522.847 412.854 492.461 414.507C462.246 416.15 437.637 406.067 436.652 391.856H436.648V391.804C436.631 391.528 436.618 391.249 436.618 390.969C436.618 390.715 436.628 390.461 436.642 390.207L436.618 383.876C437.254 383.883 437.861 383.982 438.418 384.157C444.669 372.391 466.495 362.768 492.461 361.355Z" fill="#ED7323"/>
<path fill-rule="evenodd" clip-rule="evenodd" d="M492.461 354.285C523.304 352.607 548.307 363.145 548.307 377.823C548.307 392.501 523.304 405.759 492.461 407.436C461.62 409.115 436.618 398.576 436.618 383.9C436.618 369.222 461.62 355.963 492.461 354.285Z" fill="#FED33F"/>
<path fill-rule="evenodd" clip-rule="evenodd" d="M492.64 360.461C517.259 359.174 537.217 367.259 537.217 378.521C537.217 389.783 517.259 399.956 492.64 401.244C468.023 402.531 448.066 394.445 448.066 383.184C448.066 371.922 468.023 361.749 492.64 360.461Z" fill="#ED7323"/>
<path d="M517.085 384.128L503.626 378.683L505.22 378.154C506.92 377.591 507.868 377.159 508.081 376.862C508.301 376.563 507.901 376.21 506.877 375.795C506.056 375.463 505.213 375.29 504.356 375.273C503.491 375.258 502.611 375.398 501.699 375.7C500.196 376.199 499.558 376.72 499.8 377.26C500.018 377.791 501.272 379.161 503.543 381.366C505.478 383.239 506.682 384.558 507.143 385.319C507.595 386.083 507.537 386.874 506.951 387.696C506.366 388.519 505.009 389.287 502.871 389.996C499.445 391.131 495.603 391.557 491.34 391.268C487.077 390.981 482.399 389.975 477.313 388.256L473.702 389.453L467.484 386.937L471.193 385.708C467.849 384.169 465.696 382.569 464.734 380.91C463.762 379.254 465.429 377.713 469.715 376.292L471.594 375.671L485.053 381.115L482.702 381.894C480.115 382.752 478.65 383.339 478.308 383.661C477.955 383.979 478.319 384.354 479.377 384.782C480.288 385.151 481.19 385.354 482.066 385.392C482.949 385.426 483.816 385.297 484.671 385.014C486.826 384.3 488.155 383.7 488.661 383.222C489.167 382.745 488.748 381.827 487.367 380.466C485.104 378.191 483.664 376.615 483.045 375.73C482.446 374.847 482.372 373.925 482.879 372.969C483.367 372.012 484.606 371.208 486.59 370.55C489.462 369.598 492.853 369.313 496.764 369.691C500.678 370.072 505.102 371.12 510.039 372.836L513.112 371.817L519.331 374.334L516.255 375.352C520.03 377.16 522.146 378.747 522.608 380.119C523.059 381.487 521.865 382.644 519.027 383.586C518.637 383.715 517.981 383.898 517.085 384.128Z" fill="white"/>
<path fill-rule="evenodd" clip-rule="evenodd" d="M492.461 352.761C518.323 351.355 540.075 358.537 546.427 369.546C547.047 369.512 547.68 369.572 548.295 369.734L548.29 375.715C548.299 375.909 548.307 376.103 548.307 376.299C548.307 376.505 548.299 376.711 548.29 376.916V376.95H548.288C547.563 391.366 522.847 404.26 492.461 405.913C462.246 407.556 437.637 397.474 436.652 383.262H436.648V383.21C436.631 382.934 436.618 382.656 436.618 382.376C436.618 382.121 436.628 381.868 436.642 381.613L436.618 375.282C437.254 375.289 437.861 375.388 438.418 375.563C444.669 363.797 466.495 354.174 492.461 352.761Z" fill="#ED7323"/>
<path fill-rule="evenodd" clip-rule="evenodd" d="M492.461 345.692C523.304 344.013 548.307 354.551 548.307 369.228C548.307 383.906 523.304 397.165 492.461 398.842C461.62 400.521 436.618 389.983 436.618 375.306C436.618 360.628 461.62 347.369 492.461 345.692Z" fill="#FED33F"/>
<path fill-rule="evenodd" clip-rule="evenodd" d="M492.64 351.867C517.259 350.58 537.217 358.666 537.217 369.928C537.217 381.189 517.259 391.362 492.64 392.65C468.023 393.937 448.066 385.852 448.066 374.59C448.066 363.328 468.023 353.155 492.64 351.867Z" fill="#ED7323"/>
<path d="M517.085 375.535L503.626 370.089L505.22 369.561C506.92 368.998 507.868 368.567 508.081 368.269C508.301 367.97 507.901 367.617 506.877 367.202C506.056 366.871 505.213 366.697 504.356 366.679C503.491 366.664 502.611 366.805 501.699 367.107C500.196 367.605 499.558 368.126 499.8 368.667C500.018 369.198 501.272 370.567 503.543 372.773C505.478 374.646 506.682 375.965 507.143 376.726C507.595 377.491 507.537 378.28 506.951 379.103C506.366 379.925 505.009 380.693 502.871 381.402C499.445 382.537 495.603 382.964 491.34 382.675C487.077 382.387 482.399 381.381 477.313 379.663L473.702 380.861L467.484 378.345L471.193 377.115C467.849 375.576 465.696 373.975 464.734 372.317C463.762 370.66 465.429 369.119 469.715 367.7L471.594 367.076L485.053 372.522L482.702 373.301C480.115 374.159 478.65 374.745 478.308 375.067C477.955 375.386 478.319 375.76 479.377 376.188C480.288 376.558 481.19 376.761 482.066 376.798C482.949 376.831 483.816 376.704 484.671 376.421C486.826 375.707 488.155 375.107 488.661 374.629C489.167 374.151 488.748 373.234 487.367 371.873C485.104 369.597 483.664 368.022 483.045 367.138C482.446 366.255 482.372 365.332 482.879 364.376C483.367 363.418 484.606 362.615 486.59 361.956C489.462 361.005 492.853 360.719 496.764 361.098C500.678 361.479 505.102 362.527 510.039 364.243L513.112 363.224L519.331 365.74L516.255 366.759C520.03 368.568 522.146 370.154 522.608 371.526C523.059 372.893 521.865 374.051 519.027 374.992C518.637 375.121 517.981 375.305 517.085 375.535Z" fill="white"/>
<path fill-rule="evenodd" clip-rule="evenodd" d="M492.461 344.351C518.323 342.943 540.075 350.127 546.427 361.136C547.047 361.101 547.68 361.162 548.295 361.323L548.29 367.305C548.299 367.498 548.307 367.692 548.307 367.889C548.307 368.095 548.299 368.3 548.29 368.506V368.539H548.288C547.563 382.957 522.847 395.849 492.461 397.502C462.246 399.147 437.637 389.064 436.652 374.851H436.648V374.8C436.631 374.523 436.618 374.245 436.618 373.965C436.618 373.71 436.628 373.456 436.642 373.203L436.618 366.872C437.254 366.878 437.861 366.978 438.418 367.152C444.669 355.386 466.495 345.764 492.461 344.351Z" fill="#ED7323"/>
<path fill-rule="evenodd" clip-rule="evenodd" d="M492.461 337.281C523.304 335.602 548.307 346.141 548.307 360.817C548.307 375.495 523.304 388.754 492.461 390.432C461.62 392.11 436.618 381.572 436.618 366.895C436.618 352.217 461.62 338.958 492.461 337.281Z" fill="#FED33F"/>
<path fill-rule="evenodd" clip-rule="evenodd" d="M492.64 343.456C517.259 342.169 537.217 350.254 537.217 361.516C537.217 372.778 517.259 382.951 492.64 384.239C468.023 385.526 448.066 377.44 448.066 366.179C448.066 354.918 468.023 344.744 492.64 343.456Z" fill="#ED7323"/>
<path d="M517.085 367.123L503.626 361.678L505.22 361.149C506.92 360.586 507.868 360.155 508.081 359.857C508.301 359.558 507.901 359.204 506.877 358.79C506.056 358.458 505.213 358.285 504.356 358.268C503.491 358.252 502.611 358.393 501.699 358.695C500.196 359.194 499.558 359.714 499.8 360.256C500.018 360.787 501.272 362.156 503.543 364.362C505.478 366.234 506.682 367.554 507.143 368.314C507.595 369.078 507.537 369.869 506.951 370.692C506.366 371.513 505.009 372.283 502.871 372.991C499.445 374.126 495.603 374.552 491.34 374.264C487.077 373.976 482.399 372.97 477.313 371.252L473.702 372.449L467.484 369.933L471.193 368.704C467.849 367.164 465.696 365.563 464.734 363.905C463.762 362.249 465.429 360.708 469.715 359.288L471.594 358.665L485.053 364.111L482.702 364.89C480.115 365.747 478.65 366.334 478.308 366.656C477.955 366.974 478.319 367.348 479.377 367.777C480.288 368.146 481.19 368.349 482.066 368.386C482.949 368.42 483.816 368.292 484.671 368.009C486.826 367.295 488.155 366.695 488.661 366.218C489.167 365.74 488.748 364.823 487.367 363.461C485.104 361.186 483.664 359.61 483.045 358.726C482.446 357.843 482.372 356.921 482.879 355.964C483.367 355.006 484.606 354.203 486.59 353.545C489.462 352.593 492.853 352.308 496.764 352.687C500.678 353.067 505.102 354.115 510.039 355.831L513.112 354.813L519.331 357.328L516.255 358.347C520.03 360.155 522.146 361.742 522.608 363.114C523.059 364.482 521.865 365.639 519.027 366.58C518.637 366.71 517.981 366.893 517.085 367.123Z" fill="white"/>
<path fill-rule="evenodd" clip-rule="evenodd" d="M492.461 335.757C518.323 334.349 540.075 341.533 546.427 352.542C547.047 352.508 547.68 352.566 548.295 352.73L548.29 358.71C548.299 358.905 548.307 359.099 548.307 359.295C548.307 359.5 548.299 359.706 548.29 359.911V359.945L548.288 359.946C547.563 374.362 522.847 387.256 492.461 388.908C462.246 390.552 437.637 380.469 436.652 366.257H436.648V366.206C436.631 365.929 436.618 365.652 436.618 365.371C436.618 365.116 436.628 364.863 436.642 364.608L436.618 358.277C437.254 358.285 437.861 358.383 438.418 358.558C444.669 346.791 466.495 337.169 492.461 335.757Z" fill="#ED7323"/>
<path fill-rule="evenodd" clip-rule="evenodd" d="M492.461 328.687C523.304 327.009 548.307 337.547 548.307 352.224C548.307 366.901 523.304 380.16 492.461 381.838C461.62 383.516 436.618 372.978 436.618 358.301C436.618 343.623 461.62 330.364 492.461 328.687Z" fill="#FED33F"/>
<path fill-rule="evenodd" clip-rule="evenodd" d="M492.64 334.863C517.259 333.575 537.217 341.66 537.217 352.922C537.217 364.185 517.259 374.357 492.64 375.645C468.023 376.932 448.066 368.847 448.066 357.584C448.066 346.324 468.023 336.15 492.64 334.863Z" fill="#ED7323"/>
<path d="M517.085 358.529L503.626 353.085L505.22 352.555C506.92 351.993 507.868 351.561 508.081 351.265C508.301 350.964 507.901 350.611 506.877 350.197C506.056 349.865 505.213 349.691 504.356 349.675C503.491 349.658 502.611 349.799 501.699 350.101C500.196 350.601 499.558 351.121 499.8 351.661C500.018 352.193 501.272 353.563 503.543 355.768C505.478 357.641 506.682 358.96 507.143 359.721C507.595 360.485 507.537 361.276 506.951 362.097C506.366 362.92 505.009 363.689 502.871 364.398C499.445 365.532 495.603 365.959 491.34 365.67C487.077 365.382 482.399 364.375 477.313 362.659L473.702 363.855L467.484 361.339L471.193 360.111C467.849 358.57 465.696 356.971 464.734 355.311C463.762 353.656 465.429 352.115 469.715 350.694L471.594 350.072L485.053 355.517L482.702 356.297C480.115 357.154 478.65 357.74 478.308 358.063C477.955 358.381 478.319 358.756 479.377 359.183C480.288 359.552 481.19 359.756 482.066 359.792C482.949 359.827 483.816 359.699 484.671 359.416C486.826 358.702 488.155 358.101 488.661 357.624C489.167 357.146 488.748 356.229 487.367 354.868C485.104 352.593 483.664 351.017 483.045 350.131C482.446 349.249 482.372 348.328 482.879 347.371C483.367 346.414 484.606 345.609 486.59 344.952C489.462 344 492.853 343.714 496.764 344.093C500.678 344.474 505.102 345.521 510.039 347.239L513.112 346.22L519.331 348.736L516.255 349.754C520.03 351.562 522.146 353.149 522.608 354.521C523.059 355.888 521.865 357.046 519.027 357.986C518.637 358.117 517.981 358.299 517.085 358.529Z" fill="white"/>
<path fill-rule="evenodd" clip-rule="evenodd" d="M423.154 427.667C449.015 426.26 470.767 433.443 477.119 444.453C477.739 444.418 478.373 444.478 478.988 444.639L478.983 450.621C478.992 450.814 478.998 451.009 478.998 451.205C478.998 451.411 478.992 451.617 478.983 451.823V451.856L478.981 451.857C478.256 466.274 453.54 479.166 423.154 480.819C392.938 482.463 368.33 472.38 367.345 458.167H367.341V458.117C367.322 457.84 367.31 457.561 367.31 457.281C367.31 457.027 367.319 456.773 367.335 456.519L367.31 450.189C367.947 450.195 368.554 450.295 369.111 450.469C375.361 438.703 397.188 429.081 423.154 427.667Z" fill="#ED7323"/>
<path fill-rule="evenodd" clip-rule="evenodd" d="M423.154 420.597C453.996 418.918 478.998 429.455 478.998 444.134C478.998 458.811 453.996 472.07 423.154 473.748C392.313 475.426 367.31 464.888 367.31 450.211C367.31 435.533 392.313 422.275 423.154 420.597Z" fill="#FED33F"/>
<path fill-rule="evenodd" clip-rule="evenodd" d="M423.023 426.772C447.642 425.486 467.6 433.571 467.6 444.833C467.6 456.095 447.642 466.268 423.023 467.555C398.407 468.844 378.449 460.758 378.449 449.496C378.449 438.234 398.407 428.061 423.023 426.772Z" fill="#ED7323"/>
<path d="M447.777 450.44L434.318 444.994L435.912 444.465C437.611 443.902 438.559 443.471 438.771 443.175C438.992 442.874 438.593 442.521 437.568 442.107C436.747 441.775 435.906 441.601 435.047 441.583C434.183 441.569 433.302 441.71 432.391 442.012C430.887 442.51 430.25 443.03 430.491 443.571C430.709 444.102 431.964 445.472 434.235 447.677C436.17 449.551 437.374 450.87 437.834 451.631C438.287 452.395 438.228 453.185 437.643 454.007C437.057 454.831 435.701 455.598 433.561 456.307C430.137 457.442 426.295 457.868 422.031 457.58C417.767 457.291 413.091 456.285 408.005 454.568L404.393 455.765L398.175 453.249L401.884 452.019C398.54 450.481 396.388 448.88 395.425 447.221C394.454 445.564 396.12 444.024 400.406 442.604L402.285 441.981L415.744 447.427L413.394 448.207C410.807 449.063 409.342 449.649 409 449.972C408.647 450.29 409.01 450.665 410.069 451.093C410.98 451.462 411.882 451.665 412.757 451.703C413.641 451.736 414.508 451.608 415.362 451.326C417.517 450.611 418.846 450.011 419.353 449.534C419.859 449.057 419.44 448.139 418.059 446.778C415.795 444.503 414.355 442.926 413.737 442.042C413.138 441.159 413.063 440.237 413.571 439.281C414.058 438.322 415.298 437.519 417.282 436.861C420.153 435.909 423.544 435.624 427.456 436.004C431.368 436.383 435.794 437.431 440.73 439.147L443.804 438.129L450.023 440.644L446.947 441.663C450.72 443.472 452.837 445.059 453.3 446.431C453.75 447.798 452.557 448.956 449.719 449.896C449.329 450.026 448.673 450.21 447.777 450.44Z" fill="white"/>
<path fill-rule="evenodd" clip-rule="evenodd" d="M423.154 419.073C449.015 417.666 470.767 424.848 477.119 435.859C477.739 435.825 478.373 435.884 478.988 436.046L478.983 442.027C478.992 442.221 478.998 442.416 478.998 442.611C478.998 442.817 478.992 443.023 478.983 443.228V443.263H478.981C478.256 457.679 453.54 470.572 423.154 472.225C392.938 473.869 368.33 463.786 367.345 449.573H367.341V449.523C367.322 449.246 367.31 448.968 367.31 448.687C367.31 448.434 367.319 448.179 367.335 447.926L367.31 441.594C367.947 441.602 368.554 441.7 369.111 441.876C375.361 430.109 397.188 420.486 423.154 419.073Z" fill="#ED7323"/>
<path fill-rule="evenodd" clip-rule="evenodd" d="M423.154 412.003C453.996 410.325 478.998 420.863 478.998 435.542C478.998 450.218 453.996 463.477 423.154 465.155C392.313 466.834 367.31 456.296 367.31 441.618C367.31 426.941 392.313 413.681 423.154 412.003Z" fill="#FED33F"/>
<path fill-rule="evenodd" clip-rule="evenodd" d="M423.023 418.179C447.642 416.892 467.6 424.977 467.6 436.239C467.6 447.501 447.642 457.673 423.023 458.961C398.407 460.249 378.449 452.163 378.449 440.901C378.449 429.64 398.407 419.466 423.023 418.179Z" fill="#ED7323"/>
<path d="M447.777 441.846L434.318 436.401L435.912 435.872C437.611 435.309 438.559 434.877 438.771 434.581C438.992 434.281 438.593 433.928 437.568 433.513C436.747 433.181 435.906 433.007 435.047 432.99C434.183 432.976 433.302 433.116 432.391 433.419C430.887 433.916 430.25 434.438 430.491 434.978C430.709 435.509 431.964 436.879 434.235 439.084C436.17 440.957 437.374 442.276 437.834 443.037C438.287 443.801 438.228 444.592 437.643 445.414C437.057 446.237 435.701 447.005 433.561 447.714C430.137 448.849 426.295 449.275 422.031 448.987C417.767 448.698 413.091 447.692 408.005 445.974L404.393 447.171L398.175 444.655L401.884 443.427C398.54 441.887 396.388 440.287 395.425 438.628C394.454 436.972 396.12 435.431 400.406 434.01L402.285 433.389L415.744 438.834L413.394 439.613C410.807 440.47 409.342 441.056 409 441.38C408.647 441.697 409.01 442.071 410.069 442.5C410.98 442.869 411.882 443.072 412.757 443.109C413.641 443.143 414.508 443.015 415.362 442.732C417.517 442.018 418.846 441.418 419.353 440.94C419.859 440.463 419.44 439.545 418.059 438.185C415.795 435.909 414.355 434.333 413.737 433.448C413.138 432.565 413.063 431.644 413.571 430.687C414.058 429.73 415.298 428.925 417.282 428.268C420.153 427.316 423.544 427.031 427.456 427.409C431.368 427.789 435.794 428.837 440.73 430.554L443.804 429.535L450.023 432.051L446.947 433.07C450.72 434.878 452.837 436.465 453.3 437.837C453.75 439.205 452.557 440.362 449.719 441.303C449.329 441.433 448.673 441.617 447.777 441.846Z" fill="white"/>
<path fill-rule="evenodd" clip-rule="evenodd" d="M423.154 410.662C449.015 409.256 470.767 416.438 477.119 427.447C477.739 427.413 478.373 427.473 478.988 427.635L478.983 433.616C478.992 433.81 478.998 434.005 478.998 434.2C478.998 434.406 478.992 434.612 478.983 434.817V434.852H478.981C478.256 449.268 453.54 462.161 423.154 463.814C392.938 465.457 368.33 455.375 367.345 441.163H367.341V441.111C367.322 440.835 367.31 440.557 367.31 440.276C367.31 440.022 367.319 439.768 367.335 439.514L367.31 433.183C367.947 433.19 368.554 433.29 369.111 433.464C375.361 421.698 397.188 412.075 423.154 410.662Z" fill="#ED7323"/>
<path fill-rule="evenodd" clip-rule="evenodd" d="M423.154 403.593C453.996 401.914 478.998 412.452 478.998 427.13C478.998 441.807 453.996 455.066 423.154 456.743C392.313 458.422 367.31 447.884 367.31 433.206C367.31 418.528 392.313 405.27 423.154 403.593Z" fill="#FED33F"/>
<path fill-rule="evenodd" clip-rule="evenodd" d="M423.023 409.768C447.642 408.481 467.6 416.566 467.6 427.828C467.6 439.09 447.642 449.263 423.023 450.551C398.407 451.838 378.449 443.752 378.449 432.491C378.449 421.229 398.407 411.055 423.023 409.768Z" fill="#ED7323"/>
<path d="M447.777 433.435L434.318 427.99L435.912 427.46C437.611 426.898 438.559 426.467 438.771 426.17C438.992 425.87 438.593 425.517 437.568 425.102C436.747 424.771 435.906 424.598 435.047 424.58C434.183 424.565 433.302 424.705 432.391 425.007C430.887 425.506 430.25 426.027 430.491 426.569C430.709 427.098 431.964 428.468 434.235 430.674C436.17 432.546 437.374 433.865 437.834 434.627C438.287 435.39 438.228 436.181 437.643 437.004C437.057 437.826 435.701 438.594 433.561 439.303C430.137 440.438 426.295 440.864 422.031 440.576C417.767 440.287 413.091 439.282 408.005 437.564L404.393 438.761L398.175 436.245L401.884 435.016C398.54 433.475 396.388 431.876 395.425 430.217C394.454 428.561 396.12 427.02 400.406 425.6L402.285 424.977L415.744 430.423L413.394 431.202C410.807 432.059 409.342 432.646 409 432.968C408.647 433.286 409.01 433.66 410.069 434.089C410.98 434.458 411.882 434.662 412.757 434.698C413.641 434.733 414.508 434.604 415.362 434.321C417.517 433.608 418.846 433.007 419.353 432.529C419.859 432.052 419.44 431.134 418.059 429.773C415.795 427.498 414.355 425.922 413.737 425.037C413.138 424.154 413.063 423.233 413.571 422.276C414.058 421.319 415.298 420.515 417.282 419.857C420.153 418.905 423.544 418.62 427.456 418.998C431.368 419.379 435.794 420.427 440.73 422.144L443.804 421.125L450.023 423.641L446.947 424.66C450.72 426.467 452.837 428.054 453.3 429.426C453.75 430.794 452.557 431.951 449.719 432.893C449.329 433.022 448.673 433.205 447.777 433.435Z" fill="white"/>
<path fill-rule="evenodd" clip-rule="evenodd" d="M423.154 402.069C449.015 400.661 470.767 407.845 477.119 418.854C477.739 418.819 478.373 418.88 478.988 419.041L478.983 425.023C478.992 425.216 478.998 425.41 478.998 425.606C478.998 425.812 478.992 426.019 478.983 426.225V426.258H478.981C478.256 440.674 453.54 453.567 423.154 455.221C392.938 456.865 368.33 446.782 367.345 432.569H367.341V432.518C367.322 432.241 367.31 431.963 367.31 431.683C367.31 431.428 367.319 431.174 367.335 430.921L367.31 424.59C367.947 424.597 368.554 424.696 369.111 424.871C375.361 413.104 397.188 403.483 423.154 402.069Z" fill="#ED7323"/>
<path fill-rule="evenodd" clip-rule="evenodd" d="M423.154 394.998C453.996 393.321 478.998 403.859 478.998 418.536C478.998 433.214 453.996 446.472 423.154 448.151C392.313 449.829 367.31 439.291 367.31 424.613C367.31 409.935 392.313 396.676 423.154 394.998Z" fill="#FED33F"/>
<path fill-rule="evenodd" clip-rule="evenodd" d="M423.023 401.174C447.642 399.887 467.6 407.973 467.6 419.235C467.6 430.496 447.642 440.669 423.023 441.957C398.407 443.244 378.449 435.159 378.449 423.898C378.449 412.635 398.407 402.462 423.023 401.174Z" fill="#ED7323"/>
<path d="M447.777 424.842L434.318 419.396L435.912 418.868C437.611 418.305 438.559 417.874 438.771 417.576C438.992 417.277 438.593 416.923 437.568 416.509C436.747 416.177 435.906 416.004 435.047 415.986C434.183 415.971 433.302 416.112 432.391 416.413C430.887 416.913 430.25 417.433 430.491 417.974C430.709 418.505 431.964 419.874 434.235 422.08C436.17 423.953 437.374 425.272 437.834 426.034C438.287 426.797 438.228 427.588 437.643 428.41C437.057 429.232 435.701 430.001 433.561 430.709C430.137 431.844 426.295 432.271 422.031 431.983C417.767 431.694 413.091 430.688 408.005 428.971L404.393 430.167L398.175 427.651L401.884 426.422C398.54 424.882 396.388 423.282 395.425 421.624C394.454 419.967 396.12 418.426 400.406 417.007L402.285 416.383L415.744 421.83L413.394 422.608C410.807 423.465 409.342 424.052 409 424.375C408.647 424.692 409.01 425.068 410.069 425.495C410.98 425.865 411.882 426.068 412.757 426.105C413.641 426.138 414.508 426.011 415.362 425.728C417.517 425.015 418.846 424.413 419.353 423.936C419.859 423.458 419.44 422.54 418.059 421.179C415.795 418.904 414.355 417.329 413.737 416.444C413.138 415.562 413.063 414.639 413.571 413.683C414.058 412.725 415.298 411.921 417.282 411.264C420.153 410.312 423.544 410.025 427.456 410.406C431.368 410.786 435.794 411.833 440.73 413.55L443.804 412.532L450.023 415.047L446.947 416.066C450.72 417.874 452.837 419.461 453.3 420.833C453.75 422.2 452.557 423.358 449.719 424.299C449.329 424.428 448.673 424.612 447.777 424.842Z" fill="white"/>
<path fill-rule="evenodd" clip-rule="evenodd" d="M441.702 222.095C447.167 224.566 452.896 222.981 459.132 222.416C460.139 226.994 460.407 230.328 457.084 231.909C457.084 231.909 450.74 234.856 438.052 240.749C430.128 244.162 421.328 238.462 427.626 233.269C427.626 233.269 431.102 230.258 438.052 224.235C438.738 223.074 440.112 222.269 441.702 222.095Z" fill="#625FAA"/>
<path fill-rule="evenodd" clip-rule="evenodd" d="M367.443 194.303C372.908 196.774 379.207 197.8 385.441 197.235C385.622 200.181 384.749 202.476 382.825 204.118C382.825 204.118 376.481 207.064 363.793 212.957C355.87 216.371 347.069 210.67 353.367 205.478C353.367 205.478 356.842 202.466 363.793 196.443C364.48 195.281 365.852 194.477 367.443 194.303Z" fill="#625FAA"/>
<path fill-rule="evenodd" clip-rule="evenodd" d="M389.466 83.2841C403.147 81.72 416.341 86.9904 422.552 96.5005C422.552 96.5005 410.257 130.151 385.668 197.452C378.136 203.244 366.78 198.856 367.668 192.316C367.668 192.316 372.423 157.032 389.466 83.2841Z" fill="#292664"/>
<path fill-rule="evenodd" clip-rule="evenodd" d="M394.171 116.141C397.064 113.86 401.37 113.08 405.303 114.126C409.236 115.172 412.122 117.865 412.765 121.087C413.408 124.309 411.696 127.509 408.341 129.359C408.341 129.359 402.812 144.645 391.753 175.215C391.753 175.215 392.559 155.524 394.171 116.141Z" fill="#1A1349"/>
<path fill-rule="evenodd" clip-rule="evenodd" d="M402.583 114.587C414.387 109.632 429.382 111.195 440.182 118.505C440.182 118.505 446.741 153.121 459.859 222.352C455.985 229.693 443.16 228.487 440.498 222.142C440.498 222.142 426.105 187.923 402.583 114.587Z" fill="#343486"/>
<path fill-rule="evenodd" clip-rule="evenodd" d="M418.672 120.312C431.059 121.241 437.252 121.706 437.252 121.706C441.991 145.3 448.025 174.15 448.025 174.15C437.228 155.156 425.294 132.777 418.672 120.312Z" fill="#292664"/>
<path fill-rule="evenodd" clip-rule="evenodd" d="M424.128 36.7427C418.551 32.4637 410.726 32.4483 400.654 36.6946C397.787 41.0626 399.197 46.416 404.033 49.5251C408.868 52.6342 415.808 52.6481 420.664 49.5586C425.52 46.4698 426.965 41.1229 424.128 36.7427Z" fill="#F9B4AB"/>
<path fill-rule="evenodd" clip-rule="evenodd" d="M425.706 28.7945C420.149 24.7242 412.416 24.7772 402.51 28.9544C399.643 33.3223 401.055 38.6759 405.89 41.785C410.724 44.8933 417.665 44.908 422.52 41.8184C424.098 40.815 425.316 39.5724 426.144 38.2018C425.652 38.2018 425.423 38.1333 424.999 37.9661C424.541 37.7873 424.198 37.4977 424.018 37.1193L423.452 35.9298L423.116 35.4663C422.96 35.2502 422.912 35.0665 422.853 34.8364C422.684 34.6357 422.507 34.391 422.419 34.157C422.233 33.9587 422.103 33.7245 422.053 33.47C421.823 33.1077 421.616 32.8459 421.616 32.4167V32.0903C421.616 31.3422 422.292 30.7182 423.191 30.5778C423.664 30.0239 424.533 29.7742 425.345 29.953V29.8062C425.345 29.5148 425.517 29.0547 425.706 28.7945Z" fill="#E87A69"/>
<path fill-rule="evenodd" clip-rule="evenodd" d="M377.484 90.8455C382.799 88.8451 385.897 88.0636 389.015 88.3834C398.048 95.3523 389.393 105.63 379.557 103.704C372.762 102.372 372.107 99.3881 376.973 97.0369C379.934 95.5488 377.359 93.0745 377.484 90.8455Z" fill="#F9B4AB"/>
<path fill-rule="evenodd" clip-rule="evenodd" d="M379.634 62.5743C395.146 54.1173 402.308 44.352 401.122 33.2778C389.07 34.8107 381.8 33.7225 375.07 40.6749L357.509 58.7286C353.934 62.4022 353.79 66.0539 356.479 69.0545L374.796 89.5547L377.646 92.7045C378.766 92.5839 379.85 92.3064 380.847 91.8855C382.752 84.99 382.441 77.8288 379.939 71.0524L377.144 67.7736C375.719 66.235 376.923 65.393 379.634 62.5743Z" fill="#8684BF"/>
<path fill-rule="evenodd" clip-rule="evenodd" d="M403.154 37.7101C398.878 38.0005 394.113 40.3011 393.527 43.7766C385.211 62.446 384.98 86.0252 392.836 114.515C398.867 117.156 405.547 118.654 412.382 118.896C408.583 85.2095 413.123 60.8928 426.003 45.9443L424.797 39.8052C424.931 38.1718 424.467 36.829 423.405 35.7766C423.217 36.0353 422.945 36.2465 422.619 36.3852C422.734 36.439 422.81 36.4676 422.81 36.4676C415.46 55.6134 394.541 50.6223 403.154 37.7101Z" fill="white"/>
<path fill-rule="evenodd" clip-rule="evenodd" d="M399.872 38.9683C388.998 50.5677 387.902 64.472 396.132 83.0794C397.142 96.9755 397.229 106.358 397.547 116.019C397.602 118.689 390.982 118.513 387.721 116.849C383.171 114.766 380.936 111.671 381.012 107.563C379.926 89.4756 379.072 69.3662 378.452 47.2334C378.255 40.9663 387.433 37.3244 400.462 33.2778C404.904 34.651 403.61 35.4324 399.872 38.9683Z" fill="#625FAA"/>
<path fill-rule="evenodd" clip-rule="evenodd" d="M415.144 122.253C436.477 124.911 444.475 122.477 443.933 114.746C442.869 104.259 444.527 86.4099 448.907 61.2C450.975 50.9279 441.61 44.2512 425.033 35.4719C425.033 35.4719 425.012 43.8766 420.063 50.338C412.376 58.7378 407.486 69.6879 405.388 83.1867C405.165 94.9444 406.826 108.478 407.547 118.389C407.583 120.831 410.871 121.725 415.144 122.253Z" fill="#625FAA"/>
<path fill-rule="evenodd" clip-rule="evenodd" d="M394.169 83.2509C394.791 83.5992 395.647 83.5177 396.147 83.0633C389.667 59.8505 394.034 45.0228 404.2 36.7436C404.876 34.6813 404.253 33.8401 402.328 34.2194C392.067 37.9617 385.979 43.6007 384.062 51.1357C387.819 52.8767 389.696 53.7472 389.696 53.7472C385.497 56.0095 383.399 57.141 383.399 57.141C384.155 65.5385 387.745 74.2417 394.169 83.2509Z" fill="#8684BF"/>
<path fill-rule="evenodd" clip-rule="evenodd" d="M416.247 120.062C435.654 122.532 442.931 120.271 442.438 113.087C441.47 103.342 442.978 86.755 446.962 63.3284C447.728 59.4376 446.767 56.1026 444.339 52.9641C441.75 54.3046 439.055 55.5265 436.266 56.6214C437.737 61.3426 438.518 66.2775 438.518 71.3561C438.518 90.2956 427.679 107.238 410.627 118.552C411.866 119.343 413.891 119.765 416.247 120.062Z" fill="#343486"/>
<path fill-rule="evenodd" clip-rule="evenodd" d="M404.749 83.0069C405.155 83.2247 405.668 83.2785 406.134 83.153C406.599 83.0281 406.961 82.7369 407.113 82.368C409.814 72.534 416.128 64.0234 426.052 56.835C426.052 56.835 423.976 55.6831 419.823 53.3792C419.823 53.3792 423.207 53.053 429.972 52.4002C431.911 45.4738 429.114 38.2521 422.596 33.3587C422.064 33.2796 421.52 33.4395 421.185 33.7747C420.85 34.1109 420.779 34.5654 421.003 34.9537C424.193 38.2039 424.954 42.7065 420.602 45.8751C410.024 53.9233 404.739 66.3003 404.749 83.0069Z" fill="#8684BF"/>
<path fill-rule="evenodd" clip-rule="evenodd" d="M442.908 108.258C439.562 104.439 437.368 102.546 434.461 101.601C422.224 104.104 423.24 116.412 432.99 118.599C439.725 120.106 442.177 117.775 439.44 113.828C437.812 111.377 441.609 110.24 442.908 108.258Z" fill="#F9B4AB"/>
<path fill-rule="evenodd" clip-rule="evenodd" d="M432.596 99.0746C433.901 103.851 438.451 107.668 444.42 108.994C444.42 108.994 453.975 103.504 473.084 92.5226C482.471 87.2327 478.646 78.3818 452.353 51.7392C441.335 41.7567 436.592 44.3781 435.028 59.01C434.719 62.2618 435.816 64.8381 439.603 68.2296L452.602 79.404C454.335 81.1531 455.528 82.3222 453.692 83.6594C439.628 93.9357 432.596 99.0746 432.596 99.0746Z" fill="#8684BF"/>
<path fill-rule="evenodd" clip-rule="evenodd" d="M426.096 32.1397C429.496 29.4794 431.741 26.1197 432.542 22.4966C422.554 16.1249 406.588 15.8721 397.45 22.9142C395.727 39.5899 411.891 48.7182 426.096 32.1397Z" fill="#F9B4AB"/>
<path fill-rule="evenodd" clip-rule="evenodd" d="M418.481 22.9505C416.477 22.2432 413.642 22.3697 409.97 23.3307C403.577 24.995 396.397 23.626 392.05 19.9173C387.702 16.2077 387.132 10.9626 390.626 6.82638C392.935 4.09419 396.457 2.47395 400.893 1.56838C418.879 -2.09052 432.613 0.919893 437.385 7.8226L437.346 8.01096C436.99 9.29266 436.794 10.6216 436.782 11.9841C436.706 12.4687 436.655 12.959 436.627 13.4534C436.475 14.2211 436.379 15.0043 436.347 15.7989C436.291 15.9506 436.236 16.0552 436.157 16.2003C435.929 16.3203 435.704 16.4442 435.481 16.5699C435.194 16.7109 434.912 16.8595 434.621 16.9982C434.041 17.2153 433.472 17.4428 432.912 17.6909C432.19 17.921 431.479 18.1796 430.783 18.4674C430.031 18.7588 429.293 19.0834 428.571 19.4415L427.499 19.8633C426.422 20.1098 425.414 20.4246 424.372 20.7412C422.869 21.1385 421.404 21.6541 420.003 22.2896C419.484 22.496 418.977 22.7163 418.481 22.9505Z" fill="#343486"/>
<path fill-rule="evenodd" clip-rule="evenodd" d="M435.981 22.9275C428.946 33.3979 423.956 33.5079 427.568 30.1582C432.924 24.8806 426.726 21.3277 423.535 27.3215C422.982 28.3903 422.201 28.2124 422.018 27.2351C421.521 24.4334 419.788 22.8678 416.816 22.5391C419.04 22.0691 421.212 21.3408 423.266 20.3438C425.41 19.4619 427.423 18.3106 429.227 16.892L429.657 16.5533C431.553 15.0595 433.136 13.3202 434.327 11.4022C435.308 9.89943 436.043 8.28174 436.492 6.5824C440.189 10.6403 440.418 16.3209 435.981 22.9275Z" fill="#292664"/>
<path fill-rule="evenodd" clip-rule="evenodd" d="M154.81 394.832C163.191 393.883 169.026 389.029 177.212 381.236C186.102 376.197 194.708 386.381 180.688 394.181C178.421 395.256 176.914 396.712 176.168 398.553C173.933 401.18 170.296 402.859 166.294 403.111C162.292 403.364 158.363 402.162 155.625 399.847C154.883 398.245 154.605 396.531 154.81 394.832Z" fill="#0F102A"/>
<path fill-rule="evenodd" clip-rule="evenodd" d="M209.873 407.294C223.471 402.456 230.27 400.037 230.27 400.037C249.891 397.398 255.334 402.094 252.925 406.419C250.702 410.574 242.598 412.65 227.571 411.968C227.571 411.968 227.689 412.801 227.923 414.466C223.353 416.27 218.199 416.948 213.133 416.407C210.704 413.773 209.549 410.54 209.873 407.294Z" fill="#1A1349"/>
<path fill-rule="evenodd" clip-rule="evenodd" d="M159.902 303.117C166.494 299.963 171.527 300.002 175 303.232C175 303.232 173.461 307.838 170.385 317.051C163.075 315.012 158.663 309.147 159.902 303.117Z" fill="#F9B4AB"/>
<path fill-rule="evenodd" clip-rule="evenodd" d="M199.786 314.231C205.572 307.982 203.932 299.232 196.1 294.567C188.269 289.903 177.138 291.045 171.085 297.134C159.572 362.692 153.816 395.47 153.816 395.47C157.616 398.826 166.383 399.83 175.283 393.656C191.619 340.706 199.786 314.231 199.786 314.231Z" fill="#181746"/>
<path fill-rule="evenodd" clip-rule="evenodd" d="M193.73 302.625C206.619 297.697 218.752 297.021 230.132 300.599C230.132 300.599 230.174 334.381 230.258 401.947C225.31 407.064 215.716 410.472 209.858 407.344C209.858 407.344 204.482 372.437 193.73 302.625Z" fill="#292664"/>
<path fill-rule="evenodd" clip-rule="evenodd" d="M171.094 303.634C180.846 278.973 173.07 252.086 150.722 233.188C153.732 260.753 155.23 283.546 155.216 301.569C160.036 303.707 165.659 304.438 171.094 303.634Z" fill="#8684BF"/>
<path fill-rule="evenodd" clip-rule="evenodd" d="M214.121 234.876C213.988 252.68 219.561 270.13 230.836 287.226C235.623 304.384 234.159 307.512 224.19 308.294C208.954 309.881 193.505 309.691 178.338 307.73C171.256 306.757 167.488 300.442 166.861 287.431C166.061 277.869 160.817 260.188 151.129 234.391C148.329 224.29 153.73 219.801 167.332 220.923C182.216 226.215 193.514 228.239 201.226 226.992C206.385 227.953 210.684 230.58 214.121 234.876Z" fill="#625FAA"/>
<path fill-rule="evenodd" clip-rule="evenodd" d="M240.395 309.756L312.988 276.93C313.661 276.625 314.274 276.641 314.714 276.912C323.359 280.869 327.166 282.589 326.133 282.071C321.355 286.363 317.78 288.947 315.408 289.828V313.447C315.408 314.842 314.319 316.475 312.988 317.077L254.334 343.599C255.231 345.004 253.779 348.787 249.98 354.95C249.98 354.95 246.345 353.329 239.074 350.086L239.075 350.085C238.414 349.931 237.976 349.346 237.976 348.462V313.385C237.976 311.991 239.064 310.358 240.395 309.756Z" fill="#F29C5C"/>
<path fill-rule="evenodd" clip-rule="evenodd" d="M252.153 314.997L324.746 282.172C326.077 281.57 327.167 282.218 327.167 283.612V318.689C327.167 320.083 326.077 321.717 324.746 322.318L252.153 355.144C250.823 355.746 249.733 355.098 249.733 353.704V318.627C249.733 317.232 250.823 315.6 252.153 314.997Z" fill="#D1582B"/>
<path fill-rule="evenodd" clip-rule="evenodd" d="M264.337 308.954L270.38 306.231C271.265 305.832 271.989 306.262 271.989 307.188V325.931C271.989 326.857 271.265 327.94 270.38 328.338L264.337 331.062C263.452 331.46 262.729 331.03 262.729 330.105V311.361C262.729 310.436 263.452 309.353 264.337 308.954Z" fill="#663434"/>
<path fill-rule="evenodd" clip-rule="evenodd" d="M309.202 288.902L315.246 286.179C316.131 285.78 316.855 286.211 316.855 287.136V305.879C316.855 306.805 316.131 307.888 315.246 308.286L309.202 311.01C308.317 311.408 307.593 310.978 307.593 310.052V291.309C307.593 290.385 308.317 289.302 309.202 288.902Z" fill="#663434"/>
<path fill-rule="evenodd" clip-rule="evenodd" d="M269.237 290.49L288.134 281.944C288.31 281.865 288.47 281.869 288.585 281.94C290.834 282.97 291.825 283.417 291.557 283.283C290.313 284.4 289.383 285.072 288.765 285.301V291.451C288.765 291.814 288.481 292.238 288.134 292.395L272.866 299.3C273.099 299.665 272.722 300.65 271.733 302.255C271.733 302.255 270.786 301.832 268.893 300.989V300.988C268.722 300.948 268.607 300.796 268.607 300.565V291.434C268.607 291.071 268.891 290.646 269.237 290.49Z" fill="#DC6C31"/>
<path fill-rule="evenodd" clip-rule="evenodd" d="M272.331 291.83L291.229 283.285C291.575 283.128 291.859 283.297 291.859 283.66V292.791C291.859 293.154 291.575 293.579 291.229 293.737L272.331 302.281C271.984 302.438 271.702 302.269 271.702 301.906V292.775C271.702 292.413 271.984 291.987 272.331 291.83Z" fill="#663434"/>
<path fill-rule="evenodd" clip-rule="evenodd" d="M212.422 243.981C213.551 258.044 218.592 271.865 227.546 285.441C231.947 301.217 230.602 304.093 221.435 304.812C217.693 305.203 213.936 305.476 210.174 305.632L195.431 241.002C193.366 228.891 212.8 243.981 209.593 243.981H212.422Z" fill="#343486"/>
<path fill-rule="evenodd" clip-rule="evenodd" d="M195.991 224.817C192.263 226.839 187.643 227.565 183.216 226.824C178.789 226.084 174.943 223.942 172.579 220.901C170.76 220.876 168.94 220.87 167.121 220.884C168.534 226.718 174.198 231.338 181.548 232.655C188.899 233.971 196.541 231.733 201.015 226.953C199.516 226.01 197.814 225.287 195.991 224.817Z" fill="#8684BF"/>
<path fill-rule="evenodd" clip-rule="evenodd" d="M197.727 217.452C190.115 219.542 181.825 219.525 174.226 217.403C174.226 217.403 173.611 218.857 172.38 221.767C173.844 225.363 177.541 227.962 182.315 228.75C187.09 229.538 192.358 228.419 196.47 225.744C194.988 222.034 195.406 219.271 197.727 217.452Z" fill="#F9B4AB"/>
<path fill-rule="evenodd" clip-rule="evenodd" d="M197.243 194.12C190.555 196.049 185.927 200.892 185.422 206.49C184.917 212.087 188.629 217.397 194.904 220.052C204.218 217.677 210.796 207.434 197.243 194.12Z" fill="#F9B4AB"/>
<path fill-rule="evenodd" clip-rule="evenodd" d="M185.857 222.987C195.495 222.636 198.837 217.295 193.107 215.43C183.863 212.548 189.448 204.068 197.354 208.208C198.944 209.004 199.39 207.809 198.51 206.61C196.315 203.637 195.961 200.165 197.446 196.192C203.428 179.938 186.734 174.185 166.841 191.169C160.319 196.875 158.778 205.108 162.93 212.056C167.082 219.005 176.118 223.313 185.857 222.987Z" fill="#343486"/>
<path fill-rule="evenodd" clip-rule="evenodd" d="M270.266 279.433C269.573 284.452 269.227 286.96 269.227 286.96C272.247 289.222 274.037 290.826 274.596 291.772C274.848 293.734 275.837 294.203 277.626 293.74C288.799 291.047 292.331 285.717 286.361 281.493C281.803 278.672 275.725 277.893 270.266 279.433Z" fill="#F9B4AB"/>
<path fill-rule="evenodd" clip-rule="evenodd" d="M271.029 276.688C272.725 278.832 273.076 281.472 271.982 283.848C270.889 286.224 268.472 288.072 265.425 288.863C265.425 288.863 254.976 288.461 234.077 287.658C227.065 287.147 220.465 284.01 216.575 277.731C216.575 277.731 211.313 269.149 200.788 251.986C188.741 231.88 215.848 226.536 224.684 245.059C232.248 261.51 236.029 269.735 236.029 269.735C236.907 271.804 238.699 273.167 241.279 273.469C261.112 275.615 271.029 276.688 271.029 276.688Z" fill="#8684BF"/>
<path fill-rule="evenodd" clip-rule="evenodd" d="M5.1365 234.758L106.52 189.978C107.682 189.466 108.751 189.428 109.583 189.78L109.593 189.785C109.672 189.818 109.748 189.855 109.822 189.895L118.061 193.878C117.7 195.914 116.175 197.69 113.585 197.927C112.802 197.998 112.031 197.941 111.31 197.773V313.378C111.31 316.106 109.155 319.289 106.52 320.453L12.0749 362.168C12.7396 362.669 13.2644 363.297 13.5813 364.022C14.5151 366.159 13.3773 368.516 10.8759 369.623C11.7993 370.042 8.85257 368.639 2.03646 365.414C1.00419 364.958 0.347656 363.894 0.347656 362.387V241.832C0.347656 239.104 2.5024 235.921 5.1365 234.758Z" fill="#343486"/>
<path fill-rule="evenodd" clip-rule="evenodd" d="M14.1106 239.024L115.493 194.246C118.129 193.082 120.283 194.362 120.283 197.09V317.645C120.283 320.373 118.129 323.557 115.493 324.72L14.1106 369.499C11.4755 370.661 9.3208 369.382 9.3208 366.654V246.099C9.3208 243.371 11.4755 240.188 14.1106 239.024Z" fill="#6170B5"/>
<path fill-rule="evenodd" clip-rule="evenodd" d="M21.7273 243.348L107.522 205.455C109.752 204.47 111.576 205.554 111.576 207.862V314.404C111.576 316.712 109.752 319.407 107.522 320.392L21.7273 358.284C19.4983 359.27 17.6748 358.186 17.6748 355.878V249.335C17.6748 247.026 19.4983 244.332 21.7273 243.348Z" fill="white"/>
<path fill-rule="evenodd" clip-rule="evenodd" d="M39.0691 217.638L51.2053 212.277C51.5199 207.257 56.6423 201.113 62.9159 198.342C69.1895 195.572 74.3116 197.19 74.6264 201.933L86.4044 196.731C86.719 196.591 87.0005 196.587 87.1787 196.693L87.1839 196.696C89.2268 197.852 90.2787 198.434 90.3366 198.444C88.997 199.84 88.0112 200.633 87.3775 200.823V213.313C87.3775 213.735 86.9396 214.274 86.4044 214.51L42.3617 233.963C42.3441 234.635 42.0481 235.719 41.4713 237.218C40.6833 236.83 39.6717 236.261 38.4364 235.511C38.2274 235.462 38.0957 235.312 38.0957 235.08V218.835C38.0957 218.413 38.5328 217.875 39.0691 217.638Z" fill="#D1582B"/>
<path fill-rule="evenodd" clip-rule="evenodd" d="M42.1643 219.405L54.3006 214.045C54.6152 209.024 59.7375 202.88 66.0111 200.11C72.2845 197.338 77.4068 198.958 77.7217 203.7L89.4993 198.499C90.0349 198.262 90.4727 198.414 90.4727 198.835V215.08C90.4727 215.502 90.0349 216.041 89.4993 216.278L42.1643 237.184C41.629 237.421 41.1899 237.269 41.1899 236.847V220.602C41.1899 220.18 41.629 219.642 42.1643 219.405Z" fill="#FED33F"/>
<path fill-rule="evenodd" clip-rule="evenodd" d="M65.8421 204.575C69.2041 203.091 71.9291 204.034 71.9291 206.683C71.9291 209.332 69.2041 212.682 65.8421 214.167C62.4799 215.652 59.7549 214.708 59.7549 212.06C59.7549 209.411 62.4799 206.06 65.8421 204.575Z" fill="white"/>
<path fill-rule="evenodd" clip-rule="evenodd" d="M29.5398 252.93L68.4559 235.742C69.5359 235.264 70.4201 235.789 70.4201 236.907V236.908C70.4201 238.027 69.5359 239.332 68.4559 239.809L29.5398 256.998C28.4598 257.475 27.5757 256.949 27.5757 255.831V255.831C27.5757 254.712 28.4598 253.407 29.5398 252.93Z" fill="#808181"/>
<path fill-rule="evenodd" clip-rule="evenodd" d="M29.5398 260.673L100.753 229.22C101.832 228.743 102.717 229.268 102.717 230.386V230.386C102.717 231.505 101.832 232.811 100.753 233.288L29.5398 264.74C28.4598 265.218 27.5757 264.694 27.5757 263.575V263.574C27.5757 262.456 28.4598 261.151 29.5398 260.673Z" fill="#B4B3B4"/>
<path fill-rule="evenodd" clip-rule="evenodd" d="M29.5398 268.901L100.753 237.448C101.832 236.971 102.717 237.496 102.717 238.614V238.615C102.717 239.733 101.832 241.039 100.753 241.516L29.5398 272.969C28.4598 273.446 27.5757 272.921 27.5757 271.804V271.803C27.5757 270.683 28.4598 269.378 29.5398 268.901Z" fill="#B4B3B4"/>
<path fill-rule="evenodd" clip-rule="evenodd" d="M29.5398 291.937L68.4559 274.749C69.5359 274.271 70.4201 274.796 70.4201 275.914V275.915C70.4201 277.034 69.5359 278.339 68.4559 278.816L29.5398 296.004C28.4598 296.481 27.5757 295.956 27.5757 294.838V294.838C27.5757 293.719 28.4598 292.414 29.5398 291.937Z" fill="#808181"/>
<path fill-rule="evenodd" clip-rule="evenodd" d="M29.5398 299.68L100.753 268.227C101.832 267.75 102.717 268.275 102.717 269.393C102.717 270.513 101.832 271.818 100.753 272.295L29.5398 303.748C28.4598 304.225 27.5757 303.7 27.5757 302.582V302.581C27.5757 301.463 28.4598 300.158 29.5398 299.68Z" fill="#B4B3B4"/>
<path fill-rule="evenodd" clip-rule="evenodd" d="M29.5398 307.909L100.753 276.455C101.832 275.978 102.717 276.502 102.717 277.621V277.622C102.717 278.74 101.832 280.046 100.753 280.523L29.5398 311.976C28.4598 312.453 27.5757 311.928 27.5757 310.81V310.809C27.5757 309.691 28.4598 308.385 29.5398 307.909Z" fill="#B4B3B4"/>
<path fill-rule="evenodd" clip-rule="evenodd" d="M29.5398 331.079L52.7547 320.825C53.8347 320.348 54.7179 320.873 54.7179 321.991V321.992C54.7179 323.111 53.8347 324.416 52.7547 324.892L29.5398 335.147C28.4598 335.624 27.5757 335.098 27.5757 333.981V333.98C27.5757 332.861 28.4598 331.556 29.5398 331.079Z" fill="#808181"/>
<path fill-rule="evenodd" clip-rule="evenodd" d="M29.5398 338.792L47.0352 331.065C48.1162 330.587 48.9994 331.113 48.9994 332.231V332.232C48.9994 333.351 48.1162 334.655 47.0352 335.132L29.5398 342.86C28.4598 343.337 27.5757 342.812 27.5757 341.693V341.692C27.5757 340.575 28.4598 339.269 29.5398 338.792Z" fill="#B4B3B4"/>
<path fill-rule="evenodd" clip-rule="evenodd" d="M29.5398 277.068L100.753 245.615C101.832 245.138 102.717 245.663 102.717 246.781V246.782C102.717 247.9 101.832 249.205 100.753 249.683L29.5398 281.136C28.4598 281.614 27.5757 281.088 27.5757 279.97V279.969C27.5757 278.851 28.4598 277.545 29.5398 277.068Z" fill="#B4B3B4"/>
<path fill-rule="evenodd" clip-rule="evenodd" d="M29.5398 316.258L100.753 284.804C101.832 284.328 102.717 284.853 102.717 285.97V285.971C102.717 287.09 101.832 288.395 100.753 288.872L29.5398 320.326C28.4598 320.803 27.5757 320.278 27.5757 319.159V319.158C27.5757 318.041 28.4598 316.735 29.5398 316.258Z" fill="#B4B3B4"/>
<path fill-rule="evenodd" clip-rule="evenodd" d="M294.63 83.3155L243.71 106.253C240.437 107.728 237.613 111.11 236.419 114.631L236.411 114.652L236.399 114.685C236.364 114.793 236.329 114.901 236.296 115.01L236.293 115.017L236.279 115.064C236.248 115.169 236.218 115.274 236.19 115.378L236.189 115.383L236.187 115.389L236.143 115.552L236.14 115.565L236.103 115.715L236.096 115.749C235.909 116.532 235.81 117.314 235.81 118.075V167.07C235.81 169.574 236.89 171.34 238.585 172.094C238.373 171.999 241.875 173.556 249.093 176.766C251.003 175.293 251.52 173.03 250.383 171.125C249.999 170.48 249.454 169.925 248.798 169.48L294.63 148.833C295.588 148.402 296.508 147.806 297.358 147.092H297.359L297.377 147.077L297.441 147.023L297.499 146.973L297.505 146.968L297.569 146.913L297.633 146.857L297.638 146.852L297.695 146.801L297.758 146.745L297.882 146.631L298.006 146.515L298.129 146.397L298.182 146.345L298.19 146.338L298.25 146.278L298.31 146.218L298.315 146.213L298.371 146.157L298.43 146.096L298.445 146.08L298.489 146.035L298.547 145.973L298.575 145.945L298.606 145.912L298.665 145.849L298.722 145.786L298.78 145.722C301.028 143.25 302.531 139.967 302.531 137.013V90.4939C303.177 90.635 303.86 90.6938 304.553 90.6587C306.961 90.5348 309.046 89.2987 309.865 87.5105C309.814 87.4909 306.542 86.033 300.048 83.1359C299.861 83.0357 299.665 82.9483 299.461 82.8749L299.454 82.8716V82.8726C298.117 82.3911 296.442 82.498 294.63 83.3155Z" fill="#D1582B"/>
<path fill-rule="evenodd" clip-rule="evenodd" d="M304.531 87.8257L253.611 110.764C250.338 112.239 247.515 115.621 246.32 119.141L246.313 119.162L246.312 119.166L246.283 119.25L246.266 119.304L246.252 119.344L246.248 119.357L246.198 119.52L246.196 119.527L246.181 119.574L246.15 119.678L246.149 119.683L246.141 119.71L246.133 119.738L246.118 119.792L246.103 119.846L246.09 119.894L246.088 119.9C246.058 120.008 246.031 120.117 246.005 120.226L245.997 120.259C245.811 121.044 245.711 121.825 245.711 122.585V171.581C245.711 176.125 249.267 178.241 253.611 176.283L304.531 153.343C305.49 152.913 306.408 152.317 307.26 151.603V151.604L307.278 151.588L307.343 151.534V151.532C307.429 151.461 307.513 151.387 307.596 151.312L307.659 151.256L307.721 151.199L307.784 151.141L307.845 151.084L307.908 151.026C307.989 150.947 308.07 150.869 308.151 150.789L308.212 150.729L308.271 150.668L308.384 150.553L308.391 150.546L308.449 150.484L308.508 150.422L308.565 150.36L308.624 150.297L308.682 150.233L308.732 150.18L308.739 150.17C310.955 147.704 312.432 144.452 312.432 141.523V92.5273C312.432 87.9832 308.877 85.8675 304.531 87.8257Z" fill="#FED33F"/>
<path d="M292.511 102.759L270.841 157.998L265.555 160.377L287.225 105.137L292.511 102.759ZM276.385 118.326V125.853C276.385 127.82 276.15 129.403 275.681 130.601C275.213 131.791 274.204 133.104 272.658 134.529C271.11 135.955 269.072 137.242 266.529 138.386C263.599 139.706 261.372 140.356 259.836 140.355C258.301 140.354 257.27 139.978 256.731 139.25C256.192 138.513 255.922 137.241 255.922 135.412V127.536C255.922 125.375 256.204 123.642 256.766 122.354C257.328 121.058 258.407 119.732 260.013 118.363C261.606 116.99 263.587 115.775 265.943 114.716C268.556 113.539 270.678 112.944 272.294 112.927C273.924 112.906 275.013 113.274 275.565 114.042C276.116 114.8 276.385 116.231 276.385 118.326ZM267.595 120.343C267.595 119.189 267.525 118.51 267.372 118.301C267.231 118.096 266.82 118.143 266.163 118.438C265.555 118.712 265.17 119.035 264.982 119.406C264.805 119.77 264.712 120.523 264.712 121.64V132.722C264.712 133.987 264.793 134.708 264.947 134.898C265.11 135.073 265.52 135.018 266.2 134.712C266.797 134.442 267.173 134.126 267.336 133.766C267.511 133.401 267.595 132.68 267.595 131.609V120.343ZM302.12 127.9V135.444C302.12 137.392 301.886 138.966 301.417 140.174C300.948 141.374 299.942 142.685 298.394 144.112C296.847 145.538 294.808 146.824 292.265 147.968C289.359 149.277 287.131 149.928 285.584 149.923C284.049 149.911 283.006 149.541 282.468 148.804C281.928 148.078 281.658 146.814 281.658 145.004V137.108C281.658 134.966 281.94 133.242 282.502 131.956C283.064 130.667 284.143 129.333 285.749 127.954C287.343 126.582 289.324 125.358 291.678 124.298C294.315 123.111 296.448 122.512 298.067 122.504C299.694 122.49 300.772 122.874 301.313 123.637C301.851 124.411 302.12 125.831 302.12 127.9ZM293.332 129.953C293.332 128.799 293.26 128.111 293.109 127.902C292.956 127.685 292.558 127.725 291.889 128.026C291.269 128.305 290.882 128.627 290.706 128.993C290.53 129.358 290.449 130.115 290.449 131.25V142.331C290.449 143.578 290.53 144.289 290.683 144.48C290.846 144.655 291.257 144.6 291.925 144.298C292.546 144.019 292.933 143.707 293.097 143.346C293.25 143.001 293.332 142.281 293.332 141.191V129.953Z" fill="white"/>
</svg>
