<?xml version="1.0" encoding="UTF-8" standalone="no"?><!DOCTYPE svg PUBLIC "-//W3C//DTD SVG 1.1//EN" "http://www.w3.org/Graphics/SVG/1.1/DTD/svg11.dtd"><svg width="100%" height="100%" viewBox="0 0 5663 3750" version="1.1" xmlns="http://www.w3.org/2000/svg" xmlns:xlink="http://www.w3.org/1999/xlink" xml:space="preserve" xmlns:serif="http://www.serif.com/" style="fill-rule:evenodd;clip-rule:evenodd;stroke-linejoin:round;stroke-miterlimit:2;"><path id="fondo" d="M5160.3,-143.697c-332.965,-305.369 -1895.81,-357.237 -2330.67,-357.237l-2430.64,0c-434.856,0 -787.903,353.048 -787.903,787.903l-0,1575.81c-0,287.232 364.903,343.609 326.425,608.804c-13.41,92.419 119.744,289.209 257.232,444.754c105.11,118.914 427.471,454.24 490.002,454.24l194.757,130.254l192.766,99.47l146.594,55.8l82.649,24.814l114.849,26.757l102.383,19.131l128.318,19.425l107.172,2.829l226.259,-7.793l151.546,-23.56l159.536,-35.105l134.393,-46.097l174.454,-68.119l127.071,-67.308l114.634,-74.31l134.309,-95.193l143.252,-130.653l97.68,-105.568l70.269,-92.355l59.632,-84.443c29.155,-45.007 92.534,-142.936 119.918,-193.952c10.281,-19.154 10.059,-17.221 20.364,-36.426c3.291,-6.134 7.562,-12.718 10.496,-17.987c4.041,-7.258 9.16,-14.121 13.401,-21.139c7.243,-11.985 12.937,-23.872 20.412,-35.221c101.403,-153.958 77.947,-120.441 216.699,-313.877c31.148,-43.425 283.641,-290.185 323.914,-326.241l176.463,-93.918l130.407,-54.713l109.552,-46.943l130.287,-50.613l209.691,-83.371l146.019,-65.225l162.227,-85.796l122.258,-79.981l127.695,-109.255l67.98,-70.203l75.65,-97.223l62.464,-97.918l31.761,-81.576l15.837,-62.064l12.564,-62.591l7.275,-69.932l0.842,-57.587l-2.584,-46.514l-4.605,-47.76l-6.482,-40.006l-8.189,-44.707l-14.296,-50.276l-17.422,-47.575l-25.42,-53.117l-23.276,-55.314l-51.344,-82.43l-40.777,-58.498l-47.064,-60.75l-69.831,-72.917l-189.854,-188.63Z" style="fill:#ebebeb;fill-opacity:0.47;"/></svg>