<?xml version="1.0" encoding="UTF-8" standalone="no"?><!DOCTYPE svg PUBLIC "-//W3C//DTD SVG 1.1//EN" "http://www.w3.org/Graphics/SVG/1.1/DTD/svg11.dtd"><svg width="100%" height="100%" viewBox="0 0 6288 4205" version="1.1" xmlns="http://www.w3.org/2000/svg" xmlns:xlink="http://www.w3.org/1999/xlink" xml:space="preserve" xmlns:serif="http://www.serif.com/" style="fill-rule:evenodd;clip-rule:evenodd;stroke-linejoin:round;stroke-miterlimit:2;"><path id="fondo2" d="M6637.1,542.473c-0,-347.303 -281.966,-629.269 -629.269,-629.269l-4407.59,0c-347.303,0 -1308.7,-308.978 -1308.7,38.325c-105.053,3.354 -119.713,93.508 -148.075,171.887c-19.589,54.134 -44.226,129.302 -65.447,191.002c-12.462,36.233 -21.231,58.975 -33.906,123.965l-14.213,82.019l-17.807,131.607l-10.464,146.002l3.838,187.627l11.984,107.747l43.504,208.459l60.438,200.149c186.289,471.97 563.155,802.785 870.166,943.095l143.053,105.429l198.184,174.435l285.432,294.134l256.457,299.83l174.854,218.784l274.166,288.461l183.512,159.233l81.36,58.361l95.95,53.166l75.113,36.382l94.696,35.763l62.196,16.454l102.005,12.945l161.148,2.608l103.401,-26.2l138.601,-40.522l138.624,-66.32l174.408,-120.887l160.315,-146.8l212.055,-245.025l156.26,-192.156l118.468,-157.861l119.183,-144.576l112.192,-109.024l146.379,-133.105l53.591,-37.861l51.244,-33.978l64.251,-39.802l70.956,-33.978l76.447,-33.007l85.316,-26.212l72.357,-17.474l96.096,-20.386l111.222,-17.475l98.214,-16.503l84.216,-8.737l86.703,-10.679l101.343,-19.16l103.53,-17.396l126.951,-33.993c300.871,-74.986 595.093,-303.642 595.093,-650.945l-0,-1258.54Z" style="fill:#ebebeb;fill-opacity:0.42;"/></svg>