<svg width="531" height="348" viewBox="0 0 531 348" fill="none" xmlns="http://www.w3.org/2000/svg">
<path d="M138.633 307.039V64.5336C138.633 59.4001 143.268 56.5015 147.571 56.5015H455.424C459.728 56.5015 461.895 59.4001 461.895 64.5336V307.039H138.633Z" fill="#1A1A1A"/>
<path d="M361.929 307.039L271.315 56.5015H455.487C459.791 56.5015 461.957 59.4001 461.957 64.5336V307.039H361.929Z" fill="#6D6D6D"/>
<path d="M451.367 74.6343H151.196V292.132H451.367V74.6343Z" fill="#5A6B9B"/>
<path d="M486.075 330.449H114.326C108.483 330.449 98.7402 322.189 98.7402 322.189H501.664C501.664 322.189 491.92 330.449 486.077 330.449H486.075Z" fill="#7F7F7F"/>
<path d="M501.664 322.353H98.7402V310.964C98.7402 308.399 100.759 307.21 102.911 307.21H498.441C500.595 307.21 501.662 308.399 501.662 310.964V322.353H501.664Z" fill="#B2B2B2"/>
<path d="M335.182 315.469H265.038C259.193 315.469 259.193 307.21 259.193 307.21H341.027C341.027 307.21 341.027 315.469 335.182 315.469Z" fill="#E6E6E6"/>
<path d="M451.485 292.132H356.37L277.707 74.6343H451.485V292.132Z" fill="#8984CE"/>
<path d="M501.76 322.353H367.378L361.901 307.21H498.539C500.693 307.21 501.76 308.399 501.76 310.964V322.353Z" fill="#D3D3D3"/>
<path d="M485.985 330.449H370.178L367.19 322.189H501.572C501.572 322.189 491.828 330.449 485.985 330.449Z" fill="#9C9B9B"/>
<path d="M304.556 66.3351C304.556 69.1529 302.642 71.4346 300.279 71.4346C297.914 71.4346 296 69.1529 296 66.3351C296 63.5173 297.914 61.2319 300.279 61.2319C302.642 61.2319 304.556 63.5173 304.556 66.3351Z" fill="black"/>
<path d="M522.297 162.672C527.024 162.672 531 168.699 531 174.726V243.79C531 249.813 527.024 254.854 522.297 254.854H406.529C401.8 254.854 397.826 249.813 397.826 243.79V174.726C397.826 168.699 401.8 162.672 406.529 162.672H522.297Z" fill="#1A1A1A"/>
<path d="M522.182 162.672C526.908 162.672 530.884 168.699 530.884 174.726V243.79C530.884 249.813 526.908 254.854 522.182 254.854H481.86L448.519 162.672H522.182Z" fill="#6D6D6D"/>
<path d="M521.173 203.142C524.047 203.142 526.382 205.832 526.382 209.15C526.382 212.468 524.047 215.156 521.173 215.156C518.297 215.156 515.962 212.468 515.962 209.15C515.962 205.832 518.297 203.142 521.173 203.142Z" fill="#1A1A1A"/>
<path d="M404.819 191.842C405.76 191.842 406.523 192.814 406.523 194.011V224.462C406.523 225.658 405.76 226.629 404.819 226.629C403.878 226.629 403.116 225.658 403.116 224.462V194.011C403.116 192.814 403.878 191.842 404.819 191.842Z" fill="#6D6D6D"/>
<path d="M512.452 168.716H411.271V248.752H512.452V168.716Z" fill="#5A649B"/>
<path d="M512.43 168.716V248.752H479.669L450.723 168.716H512.43Z" fill="#8485CE"/>
<path fill-rule="evenodd" clip-rule="evenodd" d="M300.114 40.9963L222.606 74.6321H377.62L300.114 40.9963Z" fill="#F0F0F0"/>
<path fill-rule="evenodd" clip-rule="evenodd" d="M396.772 74.4346L300.323 32.5869L203.872 74.4346L203.875 74.4431H222.815L300.323 40.8074L377.829 74.4431H396.77L396.772 74.4346Z" fill="#F0F0F0"/>
<path d="M396.767 113.266H203.872V120.998H396.767V113.266Z" fill="white"/>
<path d="M399.947 260.432H200.566V268.164H399.947V260.432Z" fill="white"/>
<path d="M407.796 268.053H192.852V275.787H407.796V268.053Z" fill="#F0F0F0"/>
<path d="M415.429 275.675H184.917V283.407H415.429V275.675Z" fill="#D8D8D8"/>
<path fill-rule="evenodd" clip-rule="evenodd" d="M203.872 74.4346L300.323 32.5869L396.77 74.4431H386.912L302.603 37.855L218.295 74.4431L203.872 74.4346Z" fill="#989898"/>
<path d="M393.366 82.2556H206.958V113.188H393.366V82.2556Z" fill="#F0F0F0"/>
<path d="M396.767 74.6343H203.872V82.3664H396.767V74.6343Z" fill="white"/>
<path fill-rule="evenodd" clip-rule="evenodd" d="M222.606 74.6321L300.131 40.9963L377.637 74.6321H367.779L302.411 46.2632L237.044 74.6321H222.606Z" fill="#989898"/>
<path fill-rule="evenodd" clip-rule="evenodd" d="M400.887 76.2963L403.871 66.5244L300.235 21.5493L196.599 66.5244L199.582 76.2963L300.235 32.6163L400.887 76.2963Z" fill="white"/>
<path fill-rule="evenodd" clip-rule="evenodd" d="M227.676 120.887H264.39C261.593 120.887 259.325 123.59 259.325 126.926C259.325 130.261 261.593 132.966 264.39 132.966V252.566H261.147V260.3H230.917V252.566H227.676V132.966C230.473 132.966 232.739 130.261 232.739 126.926C232.739 123.59 230.473 120.887 227.676 120.887ZM281.834 252.566V132.966C284.631 132.966 286.9 130.261 286.9 126.926C286.9 123.59 284.631 120.887 281.834 120.887H318.547C315.752 120.888 313.485 123.592 313.485 126.926C313.485 130.261 315.752 132.964 318.55 132.964V252.566H315.307V260.3H285.078V252.566H281.834ZM335.996 120.887H372.708C369.911 120.888 367.643 123.592 367.643 126.926C367.643 130.261 369.912 132.964 372.709 132.964V252.566H369.467V260.3H339.238V252.566H335.993V132.964C338.792 132.964 341.058 130.261 341.058 126.926C341.058 123.592 338.793 120.888 335.996 120.887Z" fill="#F0F0F0"/>
<path fill-rule="evenodd" clip-rule="evenodd" d="M358.362 168.651C357.827 171.302 355.826 173.273 353.438 173.273V260.3H339.238V252.566H335.993V132.964C338.792 132.964 341.058 130.261 341.058 126.926C341.058 123.592 338.793 120.89 335.997 120.887H372.704C369.911 120.89 367.643 123.592 367.643 126.926C367.643 130.261 369.912 132.964 372.709 132.964V168.651H358.362ZM318.55 168.651H304.203C303.668 171.302 301.666 173.273 299.279 173.273V260.3H285.078V252.566H281.834V132.966C284.631 132.966 286.9 130.261 286.9 126.926C286.9 123.592 284.633 120.888 281.837 120.887H318.546C315.75 120.89 313.485 123.592 313.485 126.926C313.485 130.261 315.752 132.964 318.55 132.964V168.651ZM264.39 168.651H250.043C249.509 171.302 247.508 173.273 245.119 173.273V260.3H230.917V252.566H227.676V132.966C230.473 132.966 232.739 130.261 232.739 126.926C232.739 123.592 230.474 120.888 227.677 120.887H264.387C261.592 120.888 259.325 123.592 259.325 126.926C259.325 130.261 261.593 132.966 264.39 132.966V168.651Z" fill="#898989"/>
<path fill-rule="evenodd" clip-rule="evenodd" d="M288.286 186.849H312.031V193.5H301.489V260.422H288.286V186.849Z" fill="#565149"/>
<path d="M312.052 193.419H301.51V260.341H312.052V193.419Z" fill="#7F6D5A"/>
<path fill-rule="evenodd" clip-rule="evenodd" d="M218.986 252.571H210.264V132.971C213.062 132.971 215.329 130.266 215.329 126.931H218.986V252.571Z" fill="white"/>
<path fill-rule="evenodd" clip-rule="evenodd" d="M227.804 132.971V252.57H219.08V126.931H222.738C222.738 130.266 225.006 132.971 227.804 132.971Z" fill="#D8D8D8"/>
<path fill-rule="evenodd" clip-rule="evenodd" d="M215.324 126.926C215.324 130.261 213.056 132.966 210.258 132.966C207.462 132.966 205.195 130.261 205.195 126.926C205.195 123.59 207.462 120.887 210.258 120.887H227.704C230.501 120.887 232.768 123.59 232.768 126.926C232.768 130.261 230.501 132.966 227.704 132.966C224.906 132.966 222.639 130.261 222.639 126.926H215.324Z" fill="#F0F0F0"/>
<path fill-rule="evenodd" clip-rule="evenodd" d="M232.385 124.868H205.415C206.122 122.546 207.987 120.887 210.177 120.887H227.623C229.814 120.887 231.678 122.546 232.385 124.868Z" fill="#989898"/>
<path d="M218.922 252.548H206.958V260.282H218.922V252.548Z" fill="#B2B2B2"/>
<path d="M231.046 252.548H219.08V260.282H231.046V252.548Z" fill="#6D6D6D"/>
<path fill-rule="evenodd" clip-rule="evenodd" d="M218.986 130.911H217.052C217.052 134.246 214.785 136.95 211.987 136.95C211.382 136.95 210.803 136.823 210.264 136.592V132.971C213.062 132.971 215.329 130.266 215.329 126.931H218.986V130.911Z" fill="#B2B2B2"/>
<path fill-rule="evenodd" clip-rule="evenodd" d="M227.804 136.592C226.555 136.053 225.535 134.946 224.963 133.533L223.827 130.911H219.08V126.931H222.738C222.738 126.983 222.738 127.034 222.74 127.086V127.088C222.741 127.138 222.743 127.189 222.745 127.239V127.246C222.747 127.293 222.749 127.34 222.752 127.388L222.754 127.401C222.757 127.448 222.76 127.495 222.764 127.541L222.765 127.556C222.768 127.593 222.771 127.628 222.775 127.664C222.844 128.342 223.007 128.984 223.248 129.573L223.249 129.579C223.26 129.602 223.271 129.628 223.281 129.653C223.288 129.671 223.296 129.69 223.305 129.708C223.315 129.732 223.324 129.754 223.334 129.778L223.337 129.781L223.339 129.786L223.361 129.835L223.364 129.838C223.991 131.199 225.045 132.24 226.312 132.703C226.345 132.716 226.378 132.728 226.412 132.738L226.419 132.742C226.457 132.755 226.496 132.767 226.534 132.778L226.541 132.78C226.579 132.792 226.617 132.802 226.655 132.814L226.662 132.816C226.702 132.826 226.74 132.837 226.778 132.846L226.785 132.848C226.825 132.856 226.864 132.866 226.902 132.875L226.909 132.876C226.949 132.885 226.99 132.892 227.03 132.9H227.034C227.073 132.907 227.114 132.915 227.155 132.92L227.161 132.922C227.202 132.927 227.243 132.934 227.284 132.939H227.285C227.328 132.944 227.368 132.947 227.411 132.952H227.415C227.458 132.956 227.5 132.959 227.542 132.962C227.586 132.966 227.628 132.966 227.671 132.967H227.672C227.716 132.969 227.758 132.971 227.804 132.971V136.592Z" fill="#6D6D6D"/>
<path fill-rule="evenodd" clip-rule="evenodd" d="M273.205 252.571H264.483V132.971C267.279 132.971 269.548 130.266 269.548 126.931H273.205V252.571Z" fill="white"/>
<path fill-rule="evenodd" clip-rule="evenodd" d="M281.801 132.971V252.57H273.079V126.931H276.736C276.736 130.266 279.004 132.971 281.801 132.971Z" fill="#D8D8D8"/>
<path fill-rule="evenodd" clip-rule="evenodd" d="M269.544 126.926C269.544 130.261 267.276 132.966 264.479 132.966C261.682 132.966 259.414 130.261 259.414 126.926C259.414 123.59 261.682 120.887 264.479 120.887H281.923C284.72 120.887 286.989 123.59 286.989 126.926C286.989 130.261 284.72 132.966 281.923 132.966C279.127 132.966 276.858 130.261 276.858 126.926H269.544Z" fill="#F0F0F0"/>
<path fill-rule="evenodd" clip-rule="evenodd" d="M286.605 124.868H259.634C260.34 122.546 262.206 120.887 264.397 120.887H281.842C284.032 120.887 285.898 122.546 286.605 124.868Z" fill="#989898"/>
<path d="M273.142 252.548H261.177V260.282H273.142V252.548Z" fill="#B2B2B2"/>
<path d="M285.044 252.548H273.079V260.282H285.044V252.548Z" fill="#6D6D6D"/>
<path fill-rule="evenodd" clip-rule="evenodd" d="M273.205 130.911H271.27C271.27 134.246 269.003 136.95 266.206 136.95C265.6 136.95 265.021 136.823 264.483 136.592V132.971C267.279 132.971 269.548 130.266 269.548 126.931H273.205V130.911Z" fill="#B2B2B2"/>
<path fill-rule="evenodd" clip-rule="evenodd" d="M281.801 136.592C280.554 136.053 279.534 134.946 278.96 133.533L277.826 130.911H273.079V126.931H276.736C276.736 126.983 276.737 127.034 276.739 127.086V127.088C276.739 127.138 276.74 127.189 276.743 127.239V127.246C276.746 127.293 276.748 127.34 276.75 127.388L276.751 127.401C276.754 127.448 276.758 127.495 276.761 127.541L276.763 127.556C276.767 127.593 276.77 127.628 276.774 127.664C276.842 128.342 277.005 128.984 277.246 129.573L277.248 129.579C277.258 129.602 277.268 129.628 277.278 129.653C277.286 129.671 277.293 129.69 277.303 129.708C277.313 129.732 277.323 129.754 277.333 129.778L277.334 129.781L277.337 129.786L277.361 129.838C277.99 131.199 279.044 132.24 280.311 132.703C280.343 132.716 280.377 132.728 280.41 132.738L280.418 132.742C280.456 132.755 280.493 132.767 280.533 132.778L280.539 132.78C280.578 132.792 280.614 132.802 280.653 132.814L280.661 132.816C280.699 132.826 280.739 132.837 280.777 132.846L280.782 132.848C280.822 132.856 280.861 132.866 280.901 132.875L280.908 132.876C280.948 132.885 280.987 132.892 281.027 132.9H281.031C281.072 132.907 281.113 132.915 281.153 132.92L281.159 132.922C281.199 132.927 281.242 132.934 281.283 132.939H281.284C281.326 132.944 281.367 132.947 281.41 132.952H281.412C281.456 132.956 281.497 132.959 281.539 132.962C281.584 132.966 281.626 132.966 281.67 132.967H281.671C281.715 132.969 281.757 132.971 281.801 132.971V136.592Z" fill="#777777"/>
<path d="M393.366 82.2556H206.958V89.7489H393.366V82.2556Z" fill="#989898"/>
<path d="M282.679 96.7117C282.679 97.3972 282.549 98.0221 282.292 98.5949C282.035 99.164 281.609 99.639 281.014 100.02V100.067C281.346 100.2 281.647 100.37 281.921 100.579C282.195 100.789 282.432 101.035 282.627 101.321C282.828 101.611 282.983 101.934 283.098 102.297C283.209 102.66 283.267 103.065 283.267 103.511C283.267 103.898 283.216 104.314 283.112 104.754C283.01 105.194 282.83 105.621 282.573 106.034C282.312 106.448 281.968 106.827 281.538 107.176C281.109 107.521 280.568 107.796 279.911 108.001C279.745 108.05 279.562 108.09 279.37 108.131C279.174 108.171 278.957 108.203 278.717 108.232C278.48 108.259 278.216 108.279 277.926 108.292C277.631 108.304 277.306 108.308 276.94 108.308H273.079V92.5046H277.685C278.669 92.5046 279.46 92.6211 280.063 92.8583C280.514 93.0317 280.903 93.2593 281.23 93.537C281.562 93.8183 281.836 94.13 282.049 94.4719C282.266 94.8155 282.421 95.1741 282.527 95.5581C282.627 95.9404 282.679 96.3244 282.679 96.7117ZM275.514 101.434V105.887H277.1C277.522 105.887 277.888 105.876 278.192 105.847C278.494 105.819 278.758 105.774 278.974 105.711C279.312 105.625 279.593 105.509 279.816 105.364C280.044 105.217 280.226 105.054 280.364 104.867C280.503 104.682 280.601 104.476 280.662 104.25C280.72 104.028 280.75 103.791 280.75 103.536C280.75 103.097 280.648 102.709 280.442 102.379C280.239 102.047 279.918 101.802 279.481 101.637C279.288 101.564 279.065 101.515 278.805 101.483C278.548 101.451 278.216 101.434 277.813 101.434H275.514ZM277.699 99.0141C278.359 99.0141 278.849 98.9332 279.174 98.7768C279.535 98.5949 279.792 98.3455 279.949 98.027C280.104 97.7073 280.182 97.3483 280.182 96.9457C280.182 96.5298 280.095 96.1543 279.914 95.8277C279.736 95.5007 279.434 95.2585 279.005 95.1017C278.826 95.0378 278.618 94.9922 278.381 94.9635C278.145 94.9368 277.851 94.9251 277.503 94.9251H275.514V99.0141H277.699ZM294.124 104.291H289.102L287.817 108.308H285.229L290.494 92.5046H292.712L297.977 108.308H295.409L294.124 104.291ZM291.592 96.3026C291.119 97.9498 290.7 99.3289 290.334 100.439L289.885 101.871H293.341L292.892 100.442C292.526 99.3257 292.107 97.9461 291.633 96.3026H291.592ZM307.568 99.8496C308.517 101.466 309.293 102.9 309.887 104.149H309.945C309.868 102.096 309.827 100.599 309.827 99.6608V92.5046H312.263V108.308H309.715L305.388 101.032C304.627 99.7736 303.843 98.3136 303.027 96.651H302.969C303.048 98.5864 303.087 100.088 303.087 101.148V108.308H300.652V92.5046H303.2L307.568 99.8496ZM316.217 108.308V92.5046H318.646V99.6948H318.683L323.69 92.5046H326.702L321.173 100.333L327.158 108.308H324.046L318.683 101.173H318.646V108.308H316.217Z" fill="#989898"/>
<path fill-rule="evenodd" clip-rule="evenodd" d="M327.203 252.571H318.481V132.971C321.278 132.971 323.545 130.266 323.545 126.931H327.203V252.571Z" fill="white"/>
<path fill-rule="evenodd" clip-rule="evenodd" d="M336.018 132.971V252.57H327.297V126.931H330.955C330.955 130.266 333.222 132.971 336.018 132.971Z" fill="#D8D8D8"/>
<path fill-rule="evenodd" clip-rule="evenodd" d="M323.541 126.926C323.541 130.261 321.274 132.966 318.477 132.966C315.679 132.966 313.412 130.261 313.412 126.926C313.412 123.59 315.679 120.887 318.477 120.887H335.92C338.719 120.887 340.986 123.59 340.986 126.926C340.986 130.261 338.719 132.966 335.92 132.966C333.124 132.966 330.857 130.261 330.857 126.926H323.541Z" fill="#F0F0F0"/>
<path fill-rule="evenodd" clip-rule="evenodd" d="M340.823 124.868H313.853C314.56 122.546 316.424 120.887 318.616 120.887H336.059C338.251 120.887 340.117 122.546 340.823 124.868Z" fill="#989898"/>
<path d="M327.362 252.548H315.396V260.282H327.362V252.548Z" fill="#B2B2B2"/>
<path d="M339.261 252.548H327.297V260.282H339.261V252.548Z" fill="#6D6D6D"/>
<path fill-rule="evenodd" clip-rule="evenodd" d="M327.203 130.911H325.268C325.268 134.246 323 136.95 320.205 136.95C319.599 136.95 319.018 136.823 318.481 136.592V132.971C321.278 132.971 323.545 130.266 323.545 126.931H327.203V130.911Z" fill="#B2B2B2"/>
<path fill-rule="evenodd" clip-rule="evenodd" d="M336.018 136.592C334.771 136.053 333.751 134.946 333.179 133.533L332.043 130.911H327.297V126.931H330.955C330.955 126.983 330.955 127.034 330.956 127.086V127.088C330.957 127.138 330.959 127.189 330.96 127.239V127.246C330.963 127.293 330.966 127.34 330.969 127.388L330.97 127.401C330.973 127.448 330.977 127.495 330.98 127.541L330.981 127.556C330.984 127.593 330.988 127.628 330.991 127.664C331.06 128.342 331.223 128.984 331.464 129.573L331.466 129.579C331.477 129.602 331.487 129.628 331.497 129.653C331.504 129.671 331.513 129.69 331.521 129.708C331.531 129.732 331.541 129.754 331.552 129.778L331.554 129.781L331.555 129.786L331.578 129.835L331.58 129.838C332.208 131.199 333.261 132.24 334.528 132.703C334.562 132.716 334.595 132.728 334.628 132.738L334.635 132.742C334.674 132.755 334.712 132.767 334.75 132.778L334.757 132.78C334.795 132.792 334.833 132.802 334.871 132.814L334.879 132.816C334.918 132.826 334.956 132.837 334.996 132.846L335.002 132.848C335.04 132.856 335.079 132.866 335.12 132.875L335.126 132.876C335.165 132.885 335.205 132.892 335.246 132.9H335.25C335.291 132.907 335.33 132.915 335.371 132.92L335.377 132.922C335.418 132.927 335.459 132.934 335.5 132.939H335.503C335.544 132.944 335.586 132.947 335.627 132.952H335.631C335.674 132.956 335.716 132.959 335.759 132.962C335.802 132.966 335.845 132.966 335.887 132.967H335.89C335.932 132.969 335.976 132.971 336.018 132.971V136.592Z" fill="#6D6D6D"/>
<path fill-rule="evenodd" clip-rule="evenodd" d="M381.422 252.571H372.7V132.971C375.497 132.971 377.765 130.266 377.765 126.931H381.422V252.571Z" fill="white"/>
<path fill-rule="evenodd" clip-rule="evenodd" d="M390.239 132.971V252.57H381.516V126.931H385.173C385.173 130.266 387.442 132.971 390.239 132.971Z" fill="#D8D8D8"/>
<path fill-rule="evenodd" clip-rule="evenodd" d="M377.762 126.926C377.762 130.261 375.493 132.966 372.696 132.966C369.9 132.966 367.631 130.261 367.631 126.926C367.631 123.59 369.9 120.887 372.696 120.887H390.141C392.938 120.887 395.206 123.59 395.206 126.926C395.206 130.261 392.938 132.966 390.141 132.966C387.344 132.966 385.076 130.261 385.076 126.926H377.762Z" fill="#F0F0F0"/>
<path fill-rule="evenodd" clip-rule="evenodd" d="M395.042 124.868H368.072C368.778 122.546 370.644 120.887 372.835 120.887H390.279C392.47 120.887 394.336 122.546 395.042 124.868Z" fill="#989898"/>
<path d="M381.359 252.548H369.395V260.282H381.359V252.548Z" fill="#B2B2B2"/>
<path d="M393.482 252.548H381.516V260.282H393.482V252.548Z" fill="#6D6D6D"/>
<path fill-rule="evenodd" clip-rule="evenodd" d="M381.422 130.911H379.489C379.489 134.246 377.22 136.95 374.423 136.95C373.817 136.95 373.238 136.823 372.7 136.592V132.971C375.497 132.971 377.765 130.266 377.765 126.931H381.422V130.911Z" fill="#B2B2B2"/>
<path fill-rule="evenodd" clip-rule="evenodd" d="M390.239 136.592C388.99 136.053 387.97 134.946 387.398 133.533L386.264 130.911H381.516V126.931H385.173C385.173 126.983 385.175 127.034 385.176 127.086V127.088C385.176 127.138 385.178 127.189 385.18 127.239L385.182 127.246C385.183 127.293 385.186 127.34 385.187 127.388L385.189 127.401C385.192 127.448 385.196 127.495 385.2 127.541V127.556C385.204 127.593 385.207 127.628 385.212 127.664C385.281 128.342 385.443 128.984 385.683 129.573L385.686 129.579C385.696 129.602 385.706 129.628 385.717 129.653C385.724 129.671 385.733 129.69 385.741 129.708C385.751 129.732 385.761 129.754 385.771 129.778L385.774 129.781L385.775 129.786L385.799 129.838C386.428 131.199 387.481 132.24 388.747 132.703C388.781 132.716 388.815 132.728 388.849 132.738L388.856 132.742C388.894 132.755 388.931 132.767 388.969 132.778L388.977 132.78C389.014 132.792 389.053 132.802 389.09 132.814L389.099 132.816C389.137 132.826 389.175 132.837 389.214 132.846L389.22 132.848C389.26 132.856 389.299 132.866 389.339 132.875L389.346 132.876C389.385 132.885 389.425 132.892 389.465 132.9H389.469C389.51 132.907 389.551 132.915 389.59 132.92L389.597 132.922C389.638 132.927 389.679 132.934 389.72 132.939H389.722C389.764 132.944 389.805 132.947 389.847 132.952H389.85C389.892 132.956 389.935 132.959 389.979 132.962C390.021 132.966 390.065 132.966 390.107 132.967H390.109C390.152 132.969 390.195 132.971 390.239 132.971V136.592Z" fill="#6D6D6D"/>
<path fill-rule="evenodd" clip-rule="evenodd" d="M461.781 180.016L441.466 188.833H482.097L461.781 180.016Z" fill="#F0F0F0"/>
<path fill-rule="evenodd" clip-rule="evenodd" d="M487.179 188.883L461.898 177.914L436.617 188.883L436.619 188.885H441.583L461.898 180.068L482.214 188.885H487.178L487.179 188.883Z" fill="#F0F0F0"/>
<path d="M487.177 198.938H436.617V200.965H487.177V198.938Z" fill="white"/>
<path d="M487.996 237.569H435.735V239.595H487.996V237.569Z" fill="white"/>
<path d="M490.092 239.408H433.752V241.435H490.092V239.408Z" fill="#F0F0F0"/>
<path d="M491.967 241.511H431.548V243.539H491.967V241.511Z" fill="#D8D8D8"/>
<path fill-rule="evenodd" clip-rule="evenodd" d="M436.617 188.883L461.898 177.914L487.178 188.885H484.595L462.496 179.295L440.398 188.885L436.617 188.883Z" fill="#989898"/>
<path d="M486.358 190.791H437.499V198.897H486.358V190.791Z" fill="#F0F0F0"/>
<path d="M487.177 188.688H436.617V190.716H487.177V188.688Z" fill="white"/>
<path fill-rule="evenodd" clip-rule="evenodd" d="M441.466 188.833L461.786 180.016L482.102 188.833H479.517L462.384 181.397L445.25 188.833H441.466Z" fill="#989898"/>
<path fill-rule="evenodd" clip-rule="evenodd" d="M488.181 189.373L488.962 186.811L461.798 175.023L434.634 186.811L435.415 189.373L461.798 177.923L488.181 189.373Z" fill="white"/>
<path fill-rule="evenodd" clip-rule="evenodd" d="M442.788 201.04H452.412C451.679 201.04 451.084 201.747 451.084 202.621C451.084 203.496 451.679 204.205 452.412 204.205V235.555H451.561V237.581H443.637V235.555H442.788V204.205C443.521 204.205 444.115 203.496 444.115 202.621C444.115 201.747 443.521 201.04 442.788 201.04ZM456.984 235.555V204.205C457.717 204.205 458.31 203.496 458.31 202.621C458.31 201.747 457.717 201.04 456.984 201.04H466.607C465.875 201.04 465.28 201.747 465.28 202.621C465.28 203.496 465.875 204.205 466.607 204.205V235.555H465.757V237.581H457.834V235.555H456.984ZM471.181 201.04H480.803C480.07 201.04 479.476 201.747 479.476 202.621C479.476 203.496 480.07 204.205 480.803 204.205V235.555H479.953V237.581H472.03V235.555H471.18V204.205C471.913 204.205 472.507 203.496 472.507 202.621C472.507 201.747 471.913 201.04 471.181 201.04Z" fill="#F0F0F0"/>
<path fill-rule="evenodd" clip-rule="evenodd" d="M477.043 213.559C476.902 214.255 476.378 214.77 475.752 214.77V237.581H472.03V235.555H471.18V204.205C471.913 204.205 472.507 203.496 472.507 202.621C472.507 201.749 471.914 201.04 471.181 201.04H480.802C480.069 201.04 479.476 201.749 479.476 202.621C479.476 203.496 480.07 204.205 480.803 204.205V213.559H477.043ZM466.607 213.559H462.847C462.708 214.255 462.182 214.77 461.556 214.77V237.581H457.834V235.555H456.984V204.205C457.717 204.205 458.31 203.496 458.31 202.621C458.31 201.747 457.717 201.04 456.984 201.04H466.606C465.873 201.04 465.28 201.749 465.28 202.621C465.28 203.496 465.875 204.205 466.607 204.205V213.559ZM452.412 213.559H448.65C448.51 214.255 447.986 214.77 447.359 214.77V237.581H443.637V235.555H442.788V204.205C443.521 204.205 444.115 203.496 444.115 202.621C444.115 201.747 443.521 201.04 442.788 201.04H452.41C451.679 201.04 451.084 201.747 451.084 202.621C451.084 203.496 451.679 204.205 452.412 204.205V213.559Z" fill="#989898"/>
<path fill-rule="evenodd" clip-rule="evenodd" d="M458.657 218.122H464.881V219.865H462.118V237.406H458.657V218.122Z" fill="#565149"/>
<path d="M464.946 219.961H462.184V237.503H464.946V219.961Z" fill="#7F6D5A"/>
<path fill-rule="evenodd" clip-rule="evenodd" d="M442.734 235.55H438.16V204.2C438.893 204.2 439.488 203.491 439.488 202.617H441.406C441.406 203.491 441.999 204.2 442.734 204.2V235.55Z" fill="white"/>
<path fill-rule="evenodd" clip-rule="evenodd" d="M439.493 202.621C439.493 203.496 438.899 204.205 438.165 204.205C437.432 204.205 436.837 203.496 436.837 202.621C436.837 201.747 437.432 201.04 438.165 201.04H442.739C443.472 201.04 444.065 201.747 444.065 202.621C444.065 203.496 443.472 204.205 442.739 204.205C442.004 204.205 441.411 203.496 441.411 202.621H439.493Z" fill="#F0F0F0"/>
<path fill-rule="evenodd" clip-rule="evenodd" d="M444.126 202.083H437.058C437.243 201.475 437.731 201.04 438.305 201.04H442.879C443.452 201.04 443.941 201.475 444.126 202.083Z" fill="#B2B2B2"/>
<path fill-rule="evenodd" clip-rule="evenodd" d="M437.499 235.466H443.77V237.492H437.499V235.466Z" fill="#6D6D6D"/>
<path fill-rule="evenodd" clip-rule="evenodd" d="M441.912 203.661H440.16C440.16 204.535 439.566 205.244 438.832 205.244C438.674 205.244 438.522 205.211 438.38 205.15V204.2C439.114 204.2 439.708 203.491 439.708 202.617H441.626V202.659C441.626 202.671 441.626 202.686 441.628 202.698V202.7C441.629 202.713 441.629 202.725 441.629 202.738V202.742C441.63 202.753 441.632 202.765 441.632 202.778L441.633 202.782C441.635 202.792 441.635 202.801 441.636 202.811C441.653 202.987 441.697 203.156 441.761 203.311V203.312C441.763 203.318 441.766 203.324 441.768 203.331C441.77 203.336 441.772 203.341 441.774 203.346C441.778 203.351 441.78 203.358 441.783 203.364V203.367L441.789 203.378L441.79 203.38C441.954 203.737 442.231 204.01 442.563 204.131C442.572 204.134 442.58 204.138 442.59 204.139L442.591 204.141C442.601 204.145 442.611 204.148 442.621 204.151H442.622C442.632 204.155 442.643 204.158 442.653 204.16H442.655C442.664 204.163 442.676 204.166 442.686 204.168C442.697 204.171 442.707 204.173 442.718 204.177H442.72C442.729 204.178 442.741 204.18 442.751 204.181H442.752C442.762 204.185 442.773 204.187 442.783 204.187L442.786 204.188C442.796 204.19 442.807 204.192 442.817 204.193H442.819C442.828 204.193 442.84 204.195 442.851 204.195L442.853 204.197C442.864 204.197 442.874 204.198 442.885 204.198H442.886C442.896 204.198 442.907 204.2 442.919 204.2H442.954V205.15C442.626 205.008 442.359 204.719 442.21 204.348L441.912 203.661Z" fill="#B2B2B2"/>
<path fill-rule="evenodd" clip-rule="evenodd" d="M457.059 235.55H452.486V204.2C453.219 204.2 453.813 203.491 453.813 202.617H455.731C455.731 203.491 456.324 204.2 457.059 204.2V235.55Z" fill="white"/>
<path fill-rule="evenodd" clip-rule="evenodd" d="M453.818 202.621C453.818 203.496 453.225 204.205 452.491 204.205C451.759 204.205 451.164 203.496 451.164 202.621C451.164 201.747 451.759 201.04 452.491 201.04H457.064C457.797 201.04 458.39 201.747 458.39 202.621C458.39 203.496 457.797 204.205 457.064 204.205C456.329 204.205 455.736 203.496 455.736 202.621H453.818Z" fill="#F0F0F0"/>
<path fill-rule="evenodd" clip-rule="evenodd" d="M458.233 202.083H451.164C451.349 201.475 451.837 201.04 452.412 201.04H456.985C457.558 201.04 458.047 201.475 458.233 202.083Z" fill="#B2B2B2"/>
<path fill-rule="evenodd" clip-rule="evenodd" d="M451.604 235.466H457.877V237.492H451.604V235.466Z" fill="#6D6D6D"/>
<path fill-rule="evenodd" clip-rule="evenodd" d="M457.059 205.15C456.731 205.008 456.464 204.719 456.314 204.348L456.016 203.661H454.264C454.264 204.535 453.67 205.244 452.937 205.244C452.779 205.244 452.626 205.211 452.486 205.15V204.2C453.219 204.2 453.813 203.491 453.813 202.617H455.731V202.659C455.731 202.671 455.731 202.686 455.732 202.698V202.7C455.733 202.713 455.733 202.725 455.735 202.738V202.742C455.735 202.753 455.736 202.765 455.738 202.778V202.782C455.738 202.792 455.739 202.801 455.74 202.811C455.759 202.987 455.801 203.156 455.864 203.311L455.865 203.312C455.868 203.318 455.869 203.324 455.872 203.331C455.875 203.336 455.877 203.341 455.879 203.346C455.882 203.351 455.885 203.358 455.888 203.364L455.889 203.367L455.894 203.378V203.38C456.058 203.737 456.335 204.01 456.667 204.131C456.675 204.134 456.686 204.138 456.694 204.139L456.695 204.141C456.705 204.145 456.715 204.148 456.725 204.151H456.728C456.738 204.155 456.748 204.158 456.758 204.16H456.759C456.769 204.163 456.78 204.166 456.79 204.168H456.791C456.801 204.171 456.811 204.173 456.823 204.177H456.824C456.834 204.178 456.845 204.18 456.855 204.181H456.856C456.868 204.185 456.877 204.187 456.889 204.187V204.188C456.9 204.19 456.911 204.192 456.922 204.193H456.923C456.934 204.193 456.944 204.195 456.955 204.195L456.957 204.197C456.967 204.197 456.978 204.198 456.989 204.198C457.002 204.198 457.012 204.2 457.023 204.2H457.059V205.15Z" fill="#B2B2B2"/>
<path d="M486.358 190.791H437.499V192.753H486.358V190.791Z" fill="#989898"/>
<path fill-rule="evenodd" clip-rule="evenodd" d="M471.164 204.2V235.55H466.592V204.2C467.325 204.2 467.92 203.491 467.92 202.617H469.836C469.836 203.491 470.431 204.2 471.164 204.2Z" fill="white"/>
<path fill-rule="evenodd" clip-rule="evenodd" d="M467.925 202.621C467.925 203.496 467.33 204.205 466.597 204.205C465.864 204.205 465.269 203.496 465.269 202.621C465.269 201.747 465.864 201.04 466.597 201.04H471.17C471.903 201.04 472.497 201.747 472.497 202.621C472.497 203.496 471.903 204.205 471.17 204.205C470.436 204.205 469.842 203.496 469.842 202.621H467.925Z" fill="#F0F0F0"/>
<path fill-rule="evenodd" clip-rule="evenodd" d="M472.559 202.083H465.49C465.675 201.475 466.163 201.04 466.738 201.04H471.311C471.884 201.04 472.374 201.475 472.559 202.083Z" fill="#B2B2B2"/>
<path fill-rule="evenodd" clip-rule="evenodd" d="M465.71 235.466H471.983V237.492H465.71V235.466Z" fill="#6D6D6D"/>
<path fill-rule="evenodd" clip-rule="evenodd" d="M470.122 203.661H468.37C468.37 204.535 467.777 205.244 467.042 205.244C466.884 205.244 466.733 205.211 466.592 205.15V204.2C467.325 204.2 467.92 203.491 467.92 202.617H469.836V202.659C469.838 202.671 469.838 202.686 469.838 202.698V202.7C469.839 202.713 469.839 202.725 469.841 202.738V202.742C469.841 202.753 469.842 202.765 469.843 202.778V202.782C469.845 202.792 469.845 202.801 469.846 202.811C469.865 202.987 469.907 203.156 469.971 203.311V203.312C469.973 203.318 469.976 203.324 469.979 203.331C469.98 203.336 469.983 203.341 469.985 203.346C469.988 203.351 469.99 203.358 469.993 203.364V203.367L470 203.378V203.38C470.166 203.737 470.441 204.01 470.773 204.131C470.783 204.134 470.79 204.138 470.8 204.139L470.801 204.141C470.811 204.145 470.821 204.148 470.831 204.151H470.834C470.844 204.155 470.852 204.158 470.863 204.16H470.865C470.875 204.163 470.886 204.166 470.896 204.168H470.897C470.907 204.171 470.918 204.173 470.928 204.177H470.93C470.941 204.178 470.951 204.18 470.961 204.181H470.962C470.972 204.185 470.983 204.187 470.995 204.187L470.996 204.188C471.007 204.19 471.017 204.192 471.029 204.193C471.04 204.193 471.05 204.195 471.061 204.195L471.063 204.197C471.074 204.197 471.085 204.198 471.095 204.198C471.106 204.198 471.117 204.2 471.129 204.2H471.164V205.15C470.836 205.008 470.57 204.719 470.42 204.348L470.122 203.661Z" fill="#B2B2B2"/>
<path fill-rule="evenodd" clip-rule="evenodd" d="M485.49 235.55H480.918V204.2C481.651 204.2 482.246 203.491 482.246 202.617H484.163C484.163 203.491 484.757 204.2 485.49 204.2V235.55Z" fill="white"/>
<path fill-rule="evenodd" clip-rule="evenodd" d="M482.251 202.621C482.251 203.496 481.657 204.205 480.923 204.205C480.19 204.205 479.596 203.496 479.596 202.621C479.596 201.747 480.19 201.04 480.923 201.04H485.496C486.229 201.04 486.823 201.747 486.823 202.621C486.823 203.496 486.229 204.205 485.496 204.205C484.762 204.205 484.168 203.496 484.168 202.621H482.251Z" fill="#F0F0F0"/>
<path fill-rule="evenodd" clip-rule="evenodd" d="M486.665 202.083H479.596C479.781 201.475 480.269 201.04 480.844 201.04H485.417C485.99 201.04 486.48 201.475 486.665 202.083Z" fill="#B2B2B2"/>
<path fill-rule="evenodd" clip-rule="evenodd" d="M480.037 235.466H486.31V237.492H480.037V235.466Z" fill="#6D6D6D"/>
<path fill-rule="evenodd" clip-rule="evenodd" d="M485.49 205.15C485.164 205.008 484.896 204.719 484.746 204.348L484.448 203.661H482.698C482.698 204.535 482.103 205.244 481.37 205.244C481.21 205.244 481.059 205.211 480.918 205.15V204.2C481.651 204.2 482.246 203.491 482.246 202.617H484.163C484.163 202.632 484.163 202.644 484.164 202.659V202.7C484.165 202.713 484.165 202.725 484.167 202.738V202.742C484.167 202.753 484.168 202.765 484.17 202.778V202.782C484.171 202.792 484.171 202.801 484.172 202.811C484.191 202.987 484.233 203.156 484.297 203.311V203.312C484.299 203.318 484.303 203.324 484.305 203.331C484.307 203.336 484.309 203.341 484.311 203.346C484.314 203.351 484.316 203.358 484.319 203.364V203.367L484.326 203.378V203.38C484.492 203.737 484.767 204.01 485.101 204.131C485.108 204.134 485.118 204.138 485.126 204.139L485.127 204.141C485.137 204.145 485.147 204.148 485.157 204.151H485.16C485.17 204.155 485.18 204.158 485.189 204.16H485.191C485.202 204.163 485.212 204.166 485.222 204.168H485.223C485.233 204.171 485.245 204.173 485.254 204.177H485.256C485.267 204.178 485.277 204.18 485.287 204.181H485.288C485.3 204.185 485.309 204.187 485.321 204.187L485.322 204.188C485.332 204.19 485.343 204.192 485.355 204.193C485.366 204.193 485.376 204.195 485.387 204.195L485.389 204.197C485.4 204.197 485.411 204.198 485.423 204.198C485.434 204.198 485.445 204.2 485.457 204.2H485.49V205.15Z" fill="#B2B2B2"/>
<path d="M175.726 0C182.079 0 187.484 5.83239 187.484 13.4029V154.633C187.484 162.205 182.079 168.688 175.726 168.688H11.7563C5.40441 168.688 0 162.205 0 154.633V13.4029C0 5.83239 5.40441 0 11.7563 0H175.726Z" fill="#1A1A1A"/>
<path d="M175.764 0C182.117 0 187.522 5.83239 187.522 13.4029V154.633C187.522 162.205 182.117 168.688 175.764 168.688H136.829L75.8184 0H175.764Z" fill="#6D6D6D"/>
<path d="M164.727 11.0375H12.1221V157.672H164.727V11.0375Z" fill="#5A789B"/>
<path d="M175.813 76.7368C179.185 76.7368 181.914 79.9907 181.914 84.0126C181.914 88.0313 179.185 91.2869 175.813 91.2869C172.441 91.2869 169.71 88.0313 169.71 84.0126C169.71 79.9907 172.441 76.7368 175.813 76.7368Z" fill="#1A1A1A"/>
<path d="M6.69192 79.3647C8.80629 79.3647 10.5169 81.4044 10.5169 83.9255C10.5169 86.4449 8.80629 88.4862 6.69192 88.4862C4.57857 88.4862 2.86523 86.4449 2.86523 83.9255C2.86523 81.4044 4.57857 79.3647 6.69192 79.3647Z" fill="#6D6D6D"/>
<path d="M164.852 11.0375V157.672H132.819L79.7856 11.0375H164.852Z" fill="#8984CE"/>
<path fill-rule="evenodd" clip-rule="evenodd" d="M88.4929 32.8496L52.6758 48.3936H124.31L88.4929 32.8496Z" fill="#F0F0F0"/>
<path fill-rule="evenodd" clip-rule="evenodd" d="M133.001 48.5083L88.4304 29.1704L43.8599 48.5083L43.8616 48.512H52.6133L88.4304 32.968L124.248 48.512H133L133.001 48.5083Z" fill="#F0F0F0"/>
<path d="M132.998 66.2249H43.8599V69.7989H132.998V66.2249Z" fill="white"/>
<path d="M134.673 134.289H42.5376V137.863H134.673V134.289Z" fill="white"/>
<path d="M138.119 137.969H38.791V141.543H138.119V137.969Z" fill="#F0F0F0"/>
<path d="M141.785 141.385H35.2646V144.959H141.785V141.385Z" fill="#D8D8D8"/>
<path fill-rule="evenodd" clip-rule="evenodd" d="M43.8599 48.5083L88.4304 29.1704L133 48.512H128.444L89.4844 31.6038L50.5243 48.512L43.8599 48.5083Z" fill="#989898"/>
<path d="M131.544 52.0337H45.4028V66.3275H131.544V52.0337Z" fill="#F0F0F0"/>
<path d="M132.998 48.3547H43.8599V51.9288H132.998V48.3547Z" fill="white"/>
<path fill-rule="evenodd" clip-rule="evenodd" d="M52.6758 48.3936L88.5 32.8496L124.318 48.3936H119.762L89.554 35.285L59.3474 48.3936H52.6758Z" fill="#989898"/>
<path fill-rule="evenodd" clip-rule="evenodd" d="M134.959 49.215L136.337 44.6995L88.4457 23.9146L40.5542 44.6995L41.9329 49.215L88.4457 29.0298L134.959 49.215Z" fill="white"/>
<path fill-rule="evenodd" clip-rule="evenodd" d="M55.1006 69.9041H72.0677C70.7755 69.9041 69.7259 71.1539 69.7259 72.6951C69.7259 74.236 70.7755 75.4858 72.0677 75.4858V130.755H70.5693V134.327H56.5993V130.755H55.1006V75.4858C56.3932 75.4858 57.4414 74.236 57.4414 72.6951C57.4414 71.1539 56.3932 69.9041 55.1006 69.9041ZM80.1293 130.755V75.4858C81.4216 75.4858 82.4698 74.236 82.4698 72.6951C82.4698 71.1539 81.4216 69.9041 80.1293 69.9041H97.0934C95.8011 69.9041 94.7542 71.1539 94.7542 72.6951C94.7542 74.236 95.8024 75.4858 97.0947 75.4858V130.755H95.596V134.327H81.6277V130.755H80.1293ZM105.158 69.9041H122.122C120.829 69.9041 119.783 71.1539 119.783 72.6951C119.783 74.236 120.831 75.4858 122.123 75.4858V130.755H120.625V134.327H106.655V130.755H105.156V75.4858C106.449 75.4858 107.497 74.236 107.497 72.6951C107.497 71.1539 106.45 69.9041 105.158 69.9041Z" fill="#F0F0F0"/>
<path fill-rule="evenodd" clip-rule="evenodd" d="M115.493 91.9761C115.246 93.2021 114.321 94.1115 113.217 94.1115V134.327H106.655V130.755H105.156V75.4858C106.449 75.4858 107.497 74.236 107.497 72.6951C107.497 71.1539 106.45 69.9041 105.158 69.9041H122.12C120.829 69.9041 119.783 71.1539 119.783 72.6951C119.783 74.236 120.831 75.4858 122.123 75.4858V91.9761H115.493ZM97.0947 91.9761H90.4645C90.2187 93.2021 89.2936 94.1115 88.1904 94.1115V134.327H81.6277V130.755H80.1293V75.4858C81.4216 75.4858 82.4698 74.236 82.4698 72.6951C82.4698 71.1539 81.4216 69.9041 80.1293 69.9041H97.0934C95.8011 69.9041 94.7542 71.1539 94.7542 72.6951C94.7542 74.236 95.8024 75.4858 97.0947 75.4858V91.9761ZM72.0677 91.9761H65.4375C65.1904 93.2021 64.2652 94.1115 63.1618 94.1115V134.327H56.5993V130.755H55.1006V75.4858C56.3932 75.4858 57.4414 74.236 57.4414 72.6951C57.4414 71.1539 56.3932 69.9041 55.1019 69.9041H72.0664C70.7724 69.9041 69.7259 71.1539 69.7259 72.6951C69.7259 74.236 70.7755 75.4858 72.0677 75.4858V91.9761Z" fill="#989898"/>
<path fill-rule="evenodd" clip-rule="evenodd" d="M83.0918 100.389H94.0643V103.461H89.1925V134.387H83.0918V100.389Z" fill="#565149"/>
<path d="M93.9143 103.279H89.0425V134.205H93.9143V103.279Z" fill="#7F6D5A"/>
<path fill-rule="evenodd" clip-rule="evenodd" d="M55.007 75.5856V130.855H46.9458V75.5856C48.2384 75.5856 49.2863 74.3358 49.2863 72.7949H52.6665C52.6665 74.3358 53.7147 75.5856 55.007 75.5856Z" fill="white"/>
<path fill-rule="evenodd" clip-rule="evenodd" d="M49.2024 72.6951C49.2024 74.236 48.1546 75.4858 46.862 75.4858C45.5697 75.4858 44.5215 74.236 44.5215 72.6951C44.5215 71.1539 45.5697 69.9041 46.862 69.9041H54.9231C56.2158 69.9041 57.264 71.1539 57.264 72.6951C57.264 74.236 56.2158 75.4858 54.9231 75.4858C53.6309 75.4858 52.5827 74.236 52.5827 72.6951H49.2024Z" fill="#F0F0F0"/>
<path fill-rule="evenodd" clip-rule="evenodd" d="M57.2042 71.7432H44.7417C45.0678 70.6704 45.9296 69.9041 46.9422 69.9041H55.0034C56.0163 69.9041 56.878 70.6704 57.2042 71.7432Z" fill="#B2B2B2"/>
<path fill-rule="evenodd" clip-rule="evenodd" d="M45.4028 130.61H56.4615V134.183H45.4028V130.61Z" fill="#6D6D6D"/>
<path fill-rule="evenodd" clip-rule="evenodd" d="M53.1692 74.6337H50.0816C50.0816 76.175 49.0351 77.4248 47.7425 77.4248C47.4614 77.4248 47.1946 77.3658 46.9458 77.2579V75.5856C48.2384 75.5856 49.2863 74.3358 49.2863 72.7949H52.6665V72.8673C52.6678 72.8907 52.6678 72.9125 52.6692 72.936V72.9396C52.6709 72.9615 52.6723 72.9833 52.6736 73.0051V73.012C52.675 73.0338 52.6763 73.054 52.678 73.0759L52.6794 73.0827C52.6807 73.0997 52.6821 73.1163 52.6834 73.1333C52.716 73.4465 52.7909 73.7428 52.9024 74.0157V74.0173C52.9082 74.0294 52.9123 74.0411 52.918 74.0512C52.9207 74.0613 52.9251 74.0698 52.9279 74.0783C52.9336 74.088 52.9377 74.0985 52.9421 74.1102L52.9448 74.1135L52.9546 74.1369L52.956 74.1385C53.2459 74.7671 53.733 75.2469 54.3178 75.4607C54.3334 75.4676 54.349 75.4729 54.3646 75.4777L54.3686 75.4793C54.3856 75.4862 54.4025 75.491 54.4208 75.4963L54.4235 75.4979C54.4405 75.5028 54.4591 75.508 54.4761 75.5129L54.4802 75.5149C54.4971 75.5181 54.5154 75.5234 54.5337 75.5282H54.5368C54.5551 75.5331 54.5734 75.5367 54.5917 75.5416H54.5947C54.613 75.5452 54.6313 75.55 54.6497 75.5517L54.651 75.5537C54.671 75.5569 54.6893 75.5585 54.7076 75.5618L54.7103 75.5634C54.7286 75.5654 54.7486 75.5687 54.767 75.5703H54.7683C54.788 75.5719 54.8066 75.5755 54.8263 75.5771H54.8276C54.8476 75.5787 54.8673 75.5804 54.887 75.582C54.907 75.582 54.9266 75.5836 54.9463 75.5836C54.9676 75.5836 54.9873 75.5856 55.007 75.5856V77.2579C54.4307 77.0105 53.9591 76.4983 53.695 75.8447L53.1692 74.6337Z" fill="#B2B2B2"/>
<path fill-rule="evenodd" clip-rule="evenodd" d="M80.1328 130.855H72.0713V75.5856C73.3639 75.5856 74.4104 74.3358 74.4104 72.7949H77.792C77.792 74.3358 78.8402 75.5856 80.1328 75.5856V130.855Z" fill="white"/>
<path fill-rule="evenodd" clip-rule="evenodd" d="M74.328 72.6951C74.328 74.236 73.2814 75.4858 71.9888 75.4858C70.6965 75.4858 69.647 74.236 69.647 72.6951C69.647 71.1539 70.6965 69.9041 71.9888 69.9041H80.0504C81.3426 69.9041 82.3908 71.1539 82.3908 72.6951C82.3908 74.236 81.3426 75.4858 80.0504 75.4858C78.7577 75.4858 77.7095 74.236 77.7095 72.6951H74.328Z" fill="#F0F0F0"/>
<path fill-rule="evenodd" clip-rule="evenodd" d="M82.3305 71.7432H69.8677C70.1941 70.6704 71.0572 69.9041 72.0698 69.9041H80.1314C81.1426 69.9041 82.0057 70.6704 82.3305 71.7432Z" fill="#B2B2B2"/>
<path fill-rule="evenodd" clip-rule="evenodd" d="M70.5283 130.61H81.5866V134.183H70.5283V130.61Z" fill="#6D6D6D"/>
<path fill-rule="evenodd" clip-rule="evenodd" d="M80.1328 77.2579C79.5548 77.0105 79.0833 76.4983 78.8188 75.8447L78.2951 74.6337H75.2071C75.2071 76.175 74.1592 77.4248 72.8666 77.4248C72.5869 77.4248 72.3184 77.3658 72.0713 77.2579V75.5856C73.3639 75.5856 74.4104 74.3358 74.4104 72.7949H77.792V72.8673C77.7937 72.8907 77.7937 72.9125 77.7951 72.936V72.9396C77.7951 72.9615 77.7964 72.9833 77.7978 73.0051L77.7991 73.012C77.7991 73.0338 77.8018 73.054 77.8035 73.0759V73.0827C77.8062 73.0997 77.8076 73.1163 77.8089 73.1333C77.8401 73.4465 77.9164 73.7428 78.0279 74.0157V74.0173C78.0323 74.0294 78.0364 74.0411 78.0422 74.0512C78.0449 74.0613 78.0507 74.0698 78.0534 74.0783C78.0578 74.088 78.0632 74.0985 78.0663 74.1102L78.069 74.1118V74.1135L78.0788 74.1369L78.0801 74.1385C78.3696 74.7671 78.8585 75.2469 79.4433 75.4607C79.4589 75.4676 79.4745 75.4729 79.4884 75.4777L79.4928 75.4793C79.5097 75.4862 79.528 75.491 79.545 75.4963L79.5494 75.4979C79.5663 75.5028 79.5847 75.508 79.6016 75.5129L79.6043 75.5149C79.6226 75.5181 79.6409 75.5234 79.6582 75.5282H79.6623C79.6792 75.5331 79.6975 75.5367 79.7158 75.5416H79.7189C79.7372 75.5452 79.7555 75.55 79.7738 75.5517L79.7765 75.5537C79.7952 75.5569 79.8135 75.5585 79.8318 75.5618L79.8358 75.5634C79.8545 75.5654 79.8728 75.5687 79.8925 75.5703C79.9125 75.5719 79.9321 75.5755 79.9504 75.5771H79.9531C79.9715 75.5787 79.9914 75.5804 80.0125 75.582C80.0308 75.582 80.0521 75.5836 80.0718 75.5836C80.0918 75.5836 80.1115 75.5856 80.1328 75.5856V77.2579Z" fill="#B2B2B2"/>
<path d="M131.544 52.0337H45.4028V55.4966H131.544V52.0337Z" fill="#989898"/>
<path d="M80.4756 58.7092C80.4756 59.0261 80.4163 59.3139 80.299 59.5803C80.179 59.843 79.9827 60.0617 79.7074 60.2368V60.259C79.86 60.3212 79.9997 60.3988 80.1268 60.4963C80.2526 60.5925 80.3627 60.7068 80.4532 60.8382C80.5451 60.9728 80.617 61.1228 80.6705 61.2897C80.7214 61.4579 80.7482 61.645 80.7482 61.852C80.7482 62.0306 80.7258 62.2227 80.6763 62.4264C80.6299 62.6285 80.5478 62.8257 80.4278 63.0157C80.3078 63.2077 80.1481 63.3831 79.9501 63.5448C79.7512 63.7049 79.501 63.831 79.1972 63.9252C79.1213 63.9491 79.0366 63.9676 78.9474 63.9862C78.8569 64.0044 78.7569 64.0182 78.645 64.0315C78.5365 64.0449 78.4148 64.055 78.2806 64.0602C78.1436 64.0651 77.9941 64.0687 77.826 64.0687H76.0391V56.7642H78.169C78.624 56.7642 78.9898 56.8179 79.2681 56.9291C79.4756 57.0083 79.6549 57.1126 79.8078 57.2407C79.9603 57.3721 80.0871 57.5152 80.1861 57.6752C80.2865 57.8321 80.3583 57.9986 80.4065 58.1753C80.4532 58.3523 80.4756 58.5293 80.4756 58.7092ZM77.1649 60.892V62.9502H77.8992C78.0941 62.9502 78.2623 62.9434 78.4036 62.93C78.5433 62.9183 78.665 62.8965 78.765 62.8678C78.9206 62.829 79.0518 62.7736 79.1535 62.7061C79.2596 62.6402 79.343 62.563 79.4077 62.4769C79.4715 62.3912 79.5166 62.2966 79.5447 62.1923C79.5718 62.0897 79.5857 61.9801 79.5857 61.8621C79.5857 61.66 79.5379 61.4817 79.4433 61.3285C79.3484 61.1749 79.2016 61.0605 78.9996 60.9845C78.9108 60.951 78.8074 60.9292 78.686 60.9142C78.5674 60.8988 78.4148 60.892 78.2284 60.892H77.1649ZM78.1761 59.7739C78.4813 59.7739 78.7074 59.7351 78.8569 59.6628C79.025 59.5803 79.1437 59.4639 79.2159 59.3155C79.2864 59.1692 79.323 59.0023 79.323 58.8172C79.323 58.6252 79.282 58.4517 79.1989 58.3002C79.1169 58.1502 78.9769 58.0374 78.7792 57.9651C78.6958 57.9348 78.5999 57.9145 78.4911 57.9008C78.3823 57.8891 78.2453 57.8826 78.0843 57.8826H77.1649V59.7739H78.1761ZM85.7654 62.2109H83.4463L82.8517 64.0687H81.6553L84.0877 56.7642H85.1132L87.5452 64.0687H86.359L85.7654 62.2109ZM84.5959 58.5209C84.3772 59.2804 84.1836 59.9186 84.0141 60.4308L83.8063 61.0925H85.404L85.1962 60.4324C85.0267 59.917 84.8335 59.2788 84.6145 58.5209H84.5959ZM91.9777 60.1595C92.417 60.9057 92.776 61.5674 93.05 62.145H93.0767C93.0415 61.1967 93.0218 60.5064 93.0218 60.0718V56.7642H94.1476V64.0687H92.971L90.9708 60.7052C90.619 60.1224 90.2559 59.4489 89.8803 58.6809H89.8535C89.8887 59.5751 89.907 60.2691 89.907 60.759V64.0687H88.7829V56.7642H89.9593L91.9777 60.1595ZM95.9752 64.0687V56.7642H97.0983V60.0888H97.1153L99.429 56.7642H100.82L98.2662 60.3835L101.031 64.0687H99.5927L97.1153 60.7707H97.0983V64.0687H95.9752Z" fill="#989898"/>
<path fill-rule="evenodd" clip-rule="evenodd" d="M105.038 130.855H96.9771V75.5856C98.2697 75.5856 99.3179 74.3358 99.3179 72.7949H102.699C102.699 74.3358 103.746 75.5856 105.038 75.5856V130.855Z" fill="white"/>
<path fill-rule="evenodd" clip-rule="evenodd" d="M99.4542 72.6951C99.4542 74.236 98.4061 75.4858 97.1134 75.4858C95.8211 75.4858 94.7729 74.236 94.7729 72.6951C94.7729 71.1539 95.8211 69.9041 97.1134 69.9041H105.175C106.467 69.9041 107.515 71.1539 107.515 72.6951C107.515 74.236 106.467 75.4858 105.175 75.4858C103.882 75.4858 102.835 74.236 102.835 72.6951H99.4542Z" fill="#F0F0F0"/>
<path fill-rule="evenodd" clip-rule="evenodd" d="M107.235 71.7432H94.7729C95.0991 70.6704 95.9608 69.9041 96.9734 69.9041H105.035C106.048 69.9041 106.909 70.6704 107.235 71.7432Z" fill="#B2B2B2"/>
<path fill-rule="evenodd" clip-rule="evenodd" d="M95.4346 130.61H106.493V134.183H95.4346V130.61Z" fill="#6D6D6D"/>
<path fill-rule="evenodd" clip-rule="evenodd" d="M105.038 77.2579C104.462 77.0105 103.99 76.4983 103.726 75.8447L103.202 74.6337H100.113C100.113 76.175 99.0663 77.4248 97.7737 77.4248C97.494 77.4248 97.2259 77.3658 96.9771 77.2579V75.5856C98.2697 75.5856 99.3179 74.3358 99.3179 72.7949H102.699V72.8673C102.699 72.8907 102.701 72.9125 102.701 72.936V72.9396C102.702 72.9615 102.704 72.9833 102.705 73.0051V73.012C102.706 73.0338 102.708 73.054 102.709 73.0759L102.711 73.0827C102.712 73.0997 102.713 73.1163 102.715 73.1333C102.747 73.4465 102.822 73.7428 102.934 74.0157V74.0173C102.939 74.0294 102.944 74.0411 102.949 74.0512C102.952 74.0613 102.956 74.0698 102.959 74.0783C102.965 74.088 102.969 74.0985 102.975 74.1102V74.1118L102.976 74.1135L102.986 74.1369L102.988 74.1385C103.277 74.7671 103.764 75.2469 104.349 75.4607C104.365 75.4676 104.38 75.4729 104.396 75.4777L104.4 75.4793C104.417 75.4862 104.435 75.491 104.452 75.4963L104.456 75.4979C104.473 75.5028 104.49 75.508 104.509 75.5129L104.511 75.5149C104.528 75.5181 104.547 75.5234 104.565 75.5282H104.568C104.586 75.5331 104.605 75.5367 104.623 75.5416H104.626C104.644 75.5452 104.663 75.55 104.681 75.5517L104.682 75.5537C104.702 75.5569 104.721 75.5585 104.739 75.5618L104.742 75.5634C104.762 75.5654 104.78 75.5687 104.8 75.5703C104.82 75.5719 104.838 75.5755 104.858 75.5771H104.859C104.879 75.5787 104.899 75.5804 104.918 75.582C104.938 75.582 104.958 75.5836 104.978 75.5836H104.979C104.999 75.5836 105.019 75.5856 105.038 75.5856V77.2579Z" fill="#B2B2B2"/>
<path fill-rule="evenodd" clip-rule="evenodd" d="M130.164 130.855H122.103V75.5856C123.395 75.5856 124.444 74.3358 124.444 72.7949H127.824C127.824 74.3358 128.872 75.5856 130.164 75.5856V130.855Z" fill="white"/>
<path fill-rule="evenodd" clip-rule="evenodd" d="M124.36 72.6951C124.36 74.236 123.312 75.4858 122.019 75.4858C120.727 75.4858 119.678 74.236 119.678 72.6951C119.678 71.1539 120.727 69.9041 122.019 69.9041H130.08C131.373 69.9041 132.421 71.1539 132.421 72.6951C132.421 74.236 131.373 75.4858 130.08 75.4858C128.788 75.4858 127.74 74.236 127.74 72.6951H124.36Z" fill="#F0F0F0"/>
<path fill-rule="evenodd" clip-rule="evenodd" d="M132.363 71.7432H119.899C120.225 70.6704 121.088 69.9041 122.101 69.9041H130.162C131.173 69.9041 132.036 70.6704 132.363 71.7432Z" fill="#B2B2B2"/>
<path fill-rule="evenodd" clip-rule="evenodd" d="M120.56 130.61H131.618V134.183H120.56V130.61Z" fill="#6D6D6D"/>
<path fill-rule="evenodd" clip-rule="evenodd" d="M130.164 77.2579C129.586 77.0105 129.116 76.4983 128.852 75.8447H128.851L128.327 74.6337H125.239C125.239 76.175 124.191 77.4248 122.898 77.4248C122.618 77.4248 122.352 77.3658 122.103 77.2579V75.5856C123.395 75.5856 124.444 74.3358 124.444 72.7949H127.824V72.8673C127.825 72.8907 127.825 72.9125 127.827 72.936V72.9396C127.828 72.9615 127.829 72.9833 127.831 73.0051V73.012C127.832 73.0338 127.834 73.054 127.835 73.0759L127.836 73.0827C127.838 73.0997 127.839 73.1163 127.841 73.1333C127.873 73.4465 127.948 73.7428 128.059 74.0157V74.0173C128.064 74.0294 128.069 74.0411 128.074 74.0512C128.078 74.0613 128.082 74.0698 128.085 74.0783C128.089 74.088 128.095 74.0985 128.099 74.1102L128.1 74.1118V74.1135L128.112 74.1369V74.1385C128.403 74.7671 128.89 75.2469 129.475 75.4607C129.49 75.4676 129.506 75.4729 129.522 75.4777L129.524 75.4793C129.541 75.4862 129.56 75.491 129.576 75.4963L129.581 75.4979C129.598 75.5028 129.616 75.508 129.633 75.5129L129.638 75.5149C129.654 75.5181 129.673 75.5234 129.691 75.5282H129.694C129.712 75.5331 129.73 75.5367 129.749 75.5416H129.752C129.77 75.5452 129.787 75.55 129.805 75.5517L129.808 75.5537C129.827 75.5569 129.846 75.5585 129.865 75.5618L129.868 75.5634C129.886 75.5654 129.904 75.5687 129.924 75.5703C129.944 75.5719 129.964 75.5755 129.982 75.5771H129.985C130.003 75.5787 130.023 75.5804 130.044 75.582C130.063 75.582 130.084 75.5836 130.103 75.5836C130.125 75.5836 130.143 75.5856 130.164 75.5856V77.2579Z" fill="#B2B2B2"/>
<path fill-rule="evenodd" clip-rule="evenodd" d="M6.6123 181.909C6.6123 195.849 9.81861 206.535 17.1143 215.462C18.9195 217.671 20.8715 219.608 22.934 221.273L22.9354 267.014H70.3295L70.3152 217.348C77.3058 208.882 80.8739 197.449 80.9969 185.958C81.0024 185.958 81.0023 176.873 81.001 168.615H25.6416L25.6403 133.334C25.6403 120.821 15.8444 112.054 6.66722 113.085L6.6123 181.909Z" fill="#F0D2B1"/>
<path fill-rule="evenodd" clip-rule="evenodd" d="M27.7367 157.747V131.273C27.7353 121.136 20.6854 112.762 14.2545 112.74C13.2375 112.738 12.2812 113.07 11.4604 113.651C18.8748 115.555 25.4373 123.287 25.4373 133.528L25.4386 157.747H27.7367Z" fill="#496D6D"/>
<path fill-rule="evenodd" clip-rule="evenodd" d="M56.6575 203.569C60.3923 193.802 55.8595 182.205 46.2246 177.297C40.032 174.144 33.194 174.498 27.8662 177.623V172.049H80.9271V168.716H25.5664V172.049L25.5681 178.821C30.7108 176.901 36.94 177.118 42.836 179.923C52.4677 184.502 58.0362 194.467 56.6575 203.569Z" fill="#CAB093"/>
<path d="M46.513 267.002H13.8853V347.878H46.513V267.002Z" fill="#7F7F7F"/>
<path d="M79.1345 267.002H46.5054V347.878H79.1345V267.002Z" fill="#4E4E4E"/>
<path d="M46.4308 240.459H18.2935V266.979H46.4308V240.459Z" fill="white"/>
<path d="M74.6427 240.459H46.5054V266.979H74.6427V240.459Z" fill="#F0F0F0"/>
<path fill-rule="evenodd" clip-rule="evenodd" d="M109.54 127.518L117.62 176.988C118.343 181.41 122.792 194.438 127.417 201.309C126.537 198.95 126.013 196.632 125.994 194.177L125.973 132.883C120.897 125.162 113.845 126.356 109.54 127.518Z" fill="#CAB093"/>
<path d="M160.902 268.053H128.274V347.947H160.902V268.053Z" fill="#7F7F7F"/>
<path d="M193.523 268.053H160.894V347.947H193.523V268.053Z" fill="#4E4E4E"/>
<path fill-rule="evenodd" clip-rule="evenodd" d="M184.583 218.427L184.587 268.016H137.202V219.254C136.59 218.432 136.057 217.607 135.619 216.785C130.612 207.385 126.17 201.346 126.116 194.111L126.071 60.343C125.946 43.3899 144.162 46.162 143.949 60.0972L143.818 117.13C148.435 109.288 159.905 113.837 160.83 124.059C164.635 115.249 175.725 118.472 178.081 127.542C182.707 120.109 194.019 125.199 193.973 135.709L193.774 183.85C193.725 195.62 189.013 210.298 184.583 218.427Z" fill="#F0D2B1"/>
<path fill-rule="evenodd" clip-rule="evenodd" d="M178.493 144.355C178.493 144.355 178.69 134.807 178.836 126.329C178.527 126.676 178.234 127.065 177.966 127.494C177.758 126.7 177.484 125.95 177.152 125.248C177.703 133.878 178.493 144.355 178.493 144.355ZM143.839 116.862C144.265 116.178 144.746 115.596 145.269 115.105C145.08 124.609 144.445 140.843 144.445 140.843C144.445 140.843 143.742 124.155 143.702 117.083C143.702 117.191 143.755 117.091 143.839 116.862ZM159.703 119.956C160.225 121.175 160.579 122.534 160.715 124.012C160.968 123.426 161.254 122.895 161.568 122.413C161.476 131.799 161.322 143.429 161.322 143.429C161.322 143.429 160.201 128.956 159.703 119.956Z" fill="#CAB093"/>
<path d="M160.82 241.511H132.682V268.03H160.82V241.511Z" fill="white"/>
<path d="M189.032 241.511H160.894V268.03H189.032V241.511Z" fill="#F0F0F0"/>
<path fill-rule="evenodd" clip-rule="evenodd" d="M173.236 120.624C175.937 120.93 178.643 122.569 180.481 125.198C179.588 125.771 178.78 126.581 178.112 127.654C177.302 124.536 175.459 122.108 173.236 120.624Z" fill="#484747"/>
<path fill-rule="evenodd" clip-rule="evenodd" d="M155.604 114.843C158.655 115.188 161.713 117.231 163.517 120.485C162.462 121.325 161.546 122.514 160.865 124.093C160.486 119.9 158.332 116.661 155.604 114.843Z" fill="#5A9B9B"/>
<path fill-rule="evenodd" clip-rule="evenodd" d="M139.515 50.1943C143.964 50.607 148.344 54.7619 148.24 61.6368L148.12 113.489C146.476 114.041 144.985 115.203 143.884 117.074L144.015 60.0418C144.086 55.4354 142.144 52.0521 139.515 50.1943Z" fill="#5A9B9B"/>
</svg>
