<svg width="453" height="316" viewBox="0 0 453 316" fill="none" xmlns="http://www.w3.org/2000/svg">
<path d="M430.786 81.2657L430.758 77.7279C430.758 76.7035 429.239 76.3506 427.326 76.9414C425.413 77.5323 423.865 78.8415 423.865 79.8672L423.894 83.4051C423.894 84.4294 425.441 84.7825 427.326 84.1915C429.239 83.6006 430.786 82.2914 430.786 81.2657Z" fill="#005A7C"/>
<path d="M423.865 79.8906C423.865 78.8649 425.412 77.5557 427.297 76.9648C427.776 76.8239 428.198 76.7739 428.591 76.736C428.676 76.8663 428.704 76.9739 428.704 77.1406L428.732 80.68C428.732 81.7042 427.185 83.015 425.272 83.6043C424.822 83.7452 424.4 83.8286 424.006 83.8664C423.922 83.736 423.865 83.5953 423.865 83.4285V79.8906Z" fill="#565B70"/>
<path d="M433.261 82.0973C432.98 81.073 431.348 80.7199 429.604 81.3108C427.86 81.9017 426.65 83.2109 426.903 84.2367C427.185 85.261 428.816 85.6123 430.56 85.023C432.304 84.4321 433.514 83.123 433.261 82.0973Z" fill="#DFDCDD"/>
<path d="M429.694 81.3351C427.922 81.926 426.74 83.2366 426.993 84.2609C427.106 84.6973 427.471 85.0035 427.978 85.1746V85.1791L424.855 84.4579C424.293 84.2943 424.039 84.0261 423.899 83.5639C423.646 82.5398 424.855 81.229 426.599 80.6396C427.443 80.3534 428.766 80.3776 428.766 80.3776L431.916 81.0912C431.298 80.9943 430.51 81.0564 429.694 81.3351Z" fill="#005A7C"/>
<path d="M430.955 115.993C429.042 116.584 427.522 117.893 427.495 118.919V129.534C427.495 130.028 427.86 130.361 428.423 130.511L425.328 129.719L425.047 129.643C424.344 129.487 423.865 129.17 423.865 128.617L423.893 118.002C423.893 116.978 425.441 115.667 427.354 115.076C428.282 114.791 428.929 114.693 429.548 114.818L429.717 114.853L429.858 114.884L433.402 115.781C432.783 115.638 431.911 115.699 430.955 115.993Z" fill="#005A7C"/>
<path d="M434.363 127.425L434.391 116.809C434.391 115.784 432.844 115.431 430.931 116.022C429.018 116.613 427.499 117.922 427.471 118.948V129.563C427.471 130.589 428.99 130.941 430.903 130.35C432.816 129.759 434.363 128.45 434.363 127.425Z" fill="#DFDCDD"/>
<path d="M430.776 139.375C428.891 139.968 427.344 141.277 427.316 142.301V148.383C427.316 148.877 427.682 149.211 428.244 149.36L425.15 148.568L424.869 148.492C424.165 148.336 423.715 148.02 423.715 147.467V141.386C423.743 140.36 425.262 139.051 427.175 138.46C428.103 138.174 428.751 138.077 429.37 138.203L429.567 138.238V138.242L429.679 138.266L433.224 139.163C432.605 139.022 431.733 139.082 430.776 139.375Z" fill="#005A7C"/>
<path d="M434.213 146.194L434.241 140.112C434.241 139.086 432.693 138.735 430.781 139.324C428.896 139.917 427.348 141.226 427.32 142.25V148.332C427.32 149.358 428.84 149.709 430.752 149.118C432.665 148.529 434.213 147.218 434.213 146.194Z" fill="#DFDCDD"/>
<path d="M212.77 7.54433L212.644 245.098C212.599 251.507 218.555 257.498 228.485 261.028L400.202 314.24C410.077 316.6 421.92 313.973 421.976 307.964L422.314 71.243C422.37 64.9399 416.519 59.0459 406.757 55.567L235.197 2.32382C222.909 -1.38989 213.466 1.97073 212.77 7.54511V7.54433Z" fill="#565B70"/>
<path d="M395.014 306.521L231.857 255.491C224.894 253.019 220.723 248.82 220.756 244.329L221.06 12.9582C221.547 9.05204 228.16 6.69739 236.775 9.29903L399.824 60.3527C406.66 62.7906 410.74 66.9196 410.711 71.3363L410.261 302.125C410.233 306.336 401.54 308.842 395.014 306.522V306.521Z" fill="#A4B7D3"/>
<path d="M229.909 8.99069C228.617 8.99069 227.419 9.14369 226.361 9.45127C224.125 10.1043 222.724 11.412 222.521 13.0407L222.218 244.36C222.19 248.615 226.1 252.552 232.688 254.891L395.831 305.92C398.475 306.855 401.682 306.936 404.467 306.136C407.252 305.336 408.912 303.846 408.912 302.151L409.362 71.3653C409.39 67.1879 405.565 63.3197 399.094 61.0135L236.126 9.98564C233.937 9.32498 231.819 8.99006 229.909 8.99006V8.99069ZM400.473 308.202C398.335 308.203 396.225 307.865 394.34 307.199L231.209 256.181C223.759 253.534 219.371 249.124 219.404 244.358L219.711 12.9904C219.984 10.7827 221.917 9.02657 225.025 8.12062C228.527 7.09787 232.967 7.29639 237.518 8.67053L400.585 59.7289C407.899 62.3411 412.204 66.685 412.175 71.3715L411.725 302.157C411.725 304.421 409.503 306.407 405.79 307.472C404.101 307.96 402.273 308.203 400.473 308.203V308.202Z" fill="white"/>
<path d="M300.594 24.174L300.388 24.1089C299.308 23.7709 298.43 24.1255 298.424 24.9028C298.419 25.6786 299.285 26.5832 300.363 26.9226L300.568 26.9877C301.648 27.3271 302.529 26.971 302.537 26.1953C302.54 25.418 301.674 24.5134 300.594 24.174Z" fill="#002E44"/>
<path d="M344.074 37.8017L306.7 26.0516C305.62 25.7122 304.742 26.0667 304.734 26.844C304.728 27.6198 305.595 28.5259 306.675 28.8638L344.048 40.6138C345.129 40.9532 346.012 40.5972 346.017 39.8214C346.023 39.0441 345.154 38.1396 344.074 37.8017Z" fill="#002E44"/>
<path d="M395.939 66.9888L379.398 61.9523L380.776 60.6343L397.318 65.6706L395.939 66.9888Z" fill="#93A6C3"/>
<path d="M395.939 70.9553L379.398 65.9173L380.776 64.5991L397.318 69.6371L395.939 70.9553Z" fill="#93A6C3"/>
<path d="M395.939 74.9992L379.398 69.9629L380.776 68.6447L397.318 73.6811L395.939 74.9992Z" fill="#93A6C3"/>
<path d="M400.99 100.983V207.409C400.99 210.168 395.449 211.891 391.004 210.503L233.226 161.119C231.181 160.478 229.92 159.299 229.92 158.023V51.5974C229.92 48.8367 235.476 47.1154 239.907 48.5018L397.671 97.8873C399.725 98.5268 400.99 99.7071 400.99 100.983Z" fill="#B4C6D3"/>
<path d="M291.497 48.2707L350.76 66.8195C354.206 67.8982 356.327 69.8832 356.327 72.0303V114.188C356.327 118.835 346.973 121.733 339.516 119.399L280.255 100.849C276.809 99.7701 274.688 97.7866 274.688 95.6396V53.4815C274.688 48.8345 284.039 45.9358 291.497 48.2707Z" fill="#005A7C"/>
<path d="M285.784 48.2351C284.107 48.2351 282.43 48.4715 280.903 48.9457C277.831 49.8972 275.999 51.6033 275.999 53.5124V95.6706C275.999 97.5404 277.865 99.2858 280.863 100.225L340.126 118.776C343.189 119.733 346.847 119.739 349.922 118.786C352.991 117.835 354.825 116.127 354.825 114.219V72.0612C354.825 70.1914 352.957 68.4459 349.958 67.5051L290.698 48.9563C289.159 48.476 287.471 48.2351 285.784 48.2351ZM345.041 121.015C342.869 121.015 340.692 120.704 338.714 120.085L279.454 101.534C275.589 100.327 273.186 98.0782 273.186 95.6706V53.5124C273.186 51.0563 275.546 48.8578 279.499 47.632C283.457 46.4078 288.169 46.4123 292.111 47.6471L351.37 66.1959C355.236 67.4066 357.638 69.6535 357.638 72.0612V114.219C357.638 116.677 355.278 118.874 351.325 120.098C349.356 120.709 347.198 121.015 345.041 121.015Z" fill="white"/>
<path d="M366.082 216.896L332.746 206.774L332.689 206.755L332.526 204.335L332.58 204.349L365.916 214.47L366.082 216.896Z" fill="#008CBB"/>
<path d="M292.636 189.171L255.772 177.956L255.716 177.935L255.609 175.53L292.471 186.747L292.636 189.171Z" fill="#008CBB"/>
<path d="M277.318 189.41L277.183 189.375L256.129 183.069L256.073 183.049L255.91 180.628L255.966 180.643L277.017 186.949L277.155 187L277.318 189.41Z" fill="#008CBB"/>
<path d="M281.817 195.774L256.58 188.166L256.524 188.145L256.36 185.725L256.417 185.74L281.654 193.348L281.817 195.774Z" fill="#008CBB"/>
<path d="M306.673 198.538L306.547 198.494L306.386 196.082L306.51 196.114L327.978 202.778L328.138 205.203L306.673 198.538Z" fill="#008CBB"/>
<path d="M284.63 191.714L284.616 191.708L284.453 189.285L284.47 189.29L297.014 193.184L297.174 195.61L284.63 191.714Z" fill="#008CBB"/>
<path d="M241.788 188.258L283.142 201.095L282.979 198.669L241.788 185.887V188.258Z" fill="#008CBB"/>
<path d="M301.464 206.762L294.682 204.657L294.519 202.231L301.301 204.337L301.464 206.762Z" fill="#008CBB"/>
<path d="M279.662 219.543L279.496 217.119L288.63 219.955L288.796 222.38L279.662 219.543Z" fill="#008CBB"/>
<path d="M356.273 248.35L356.112 245.924L365.767 248.923L365.93 251.348L356.273 248.35Z" fill="#008CBB"/>
<path d="M356.576 253.447L356.413 251.021L366.07 254.02L366.231 256.446L356.576 253.447Z" fill="#008CBB"/>
<path d="M322.247 217.888L251.475 196.093L251.419 196.073L251.253 193.655L251.312 193.67L322.081 215.464L322.247 217.888Z" fill="#008CBB"/>
<path d="M273.791 207.798L251.772 201.192L251.713 201.17L251.553 198.752L251.606 198.767L273.625 205.373L273.791 207.798Z" fill="#008CBB"/>
<path d="M285.554 216.409L252.223 206.289L252.164 206.268L252.004 203.849L252.057 203.863L285.394 213.983L285.554 216.409Z" fill="#008CBB"/>
<path d="M361.272 280.169L327.938 270.049L327.882 270.028L327.719 267.609L327.776 267.624L361.106 277.744L361.272 280.169Z" fill="#008CBB"/>
<path d="M289.782 227.686L252.921 216.47L252.862 216.449L252.755 214.045L289.619 225.26L289.782 227.686Z" fill="#008CBB"/>
<path d="M297.536 225.128L297.373 222.702L332.456 233.596L332.622 236.021L297.536 225.128Z" fill="#008CBB"/>
<path d="M274.311 227.842L274.173 227.807L253.125 221.501L253.065 221.479L252.905 219.061L252.958 219.075L274.013 225.383L274.15 225.432L274.311 227.842Z" fill="#008CBB"/>
<path d="M278.816 234.204L253.578 226.598L253.522 226.577L253.356 224.159L253.412 224.172L278.649 231.778L278.816 234.204Z" fill="#008CBB"/>
<path d="M303.669 236.973L303.545 236.926L303.382 234.515L303.506 234.547L324.971 241.212L325.136 243.637L303.669 236.973Z" fill="#008CBB"/>
<path d="M340.154 248.293L334.342 246.49L334.179 244.063L339.991 245.869L340.154 248.293Z" fill="#008CBB"/>
<path d="M379.531 231.016L341.553 219.22L341.39 216.796L379.39 228.59L379.531 231.016Z" fill="#008CBB"/>
<path d="M281.626 230.149L281.609 230.142L281.448 227.719L281.463 227.723L294.004 231.617L294.17 234.043L281.626 230.149Z" fill="#008CBB"/>
<path d="M287.829 252.445L250.965 241.23L250.909 241.208L250.802 238.804L287.663 250.019L287.829 252.445Z" fill="#008CBB"/>
<path d="M272.511 252.682L272.373 252.648L251.322 246.341L251.265 246.32L251.102 243.901L251.159 243.915L272.21 250.221L272.348 250.273L272.511 252.682Z" fill="#008CBB"/>
<path d="M277.012 258.964L251.775 251.357L251.719 251.336L251.553 248.918L251.612 248.932L276.85 256.538L277.012 258.964Z" fill="#008CBB"/>
<path d="M301.713 261.732L301.589 261.685L301.429 259.275L301.553 259.307L323.02 265.972L323.18 268.396L301.713 261.732Z" fill="#008CBB"/>
<path d="M279.826 254.908L279.809 254.902L279.646 252.478L279.662 252.483L292.204 256.377L292.37 258.802L279.826 254.908Z" fill="#008CBB"/>
<path d="M282.213 210.402L282.05 207.976L297.933 212.908L298.096 215.332L282.213 210.402Z" fill="#008CBB"/>
<path d="M330.087 215.683L315.416 211.129L315.25 208.704L329.921 213.259L330.087 215.683Z" fill="#008CBB"/>
<path d="M241.788 232.839L280.208 244.767L280.045 242.341L241.788 230.47V232.839Z" fill="#008CBB"/>
<path d="M298.46 250.454L291.677 248.35L291.514 245.924L298.294 248.03L298.46 250.454Z" fill="#008CBB"/>
<path d="M376.538 274.71L338.546 262.914L338.385 260.488L376.377 272.284L376.538 274.71Z" fill="#008CBB"/>
<path d="M327.23 259.377L312.559 254.823L312.396 252.397L327.067 256.953L327.23 259.377Z" fill="#008CBB"/>
<path d="M357.029 258.464L356.863 256.038L366.521 259.037L366.684 261.462L357.029 258.464Z" fill="#008CBB"/>
<path d="M272.363 217.318L252.524 211.388L252.465 211.367L252.304 208.947L252.358 208.962L272.199 214.893L272.363 217.318Z" fill="#008CBB"/>
<path d="M344.379 229.659L307.749 218.33L307.588 215.906L344.216 227.233L344.379 229.659Z" fill="#008CBB"/>
<path d="M313.376 249.788L244.698 228.861L244.659 228.845L244.492 226.424L244.538 226.435L313.213 247.362L313.376 249.788Z" fill="#008CBB"/>
<path d="M306.468 83.6813C307.669 85.8843 309.151 87.8874 310.811 89.6572L316.812 100.666L324.63 99.4301L324.621 99.418C331.21 98.0832 334.746 89.9693 329.347 80.0647C323.949 70.1599 312.834 64.3629 305.953 65.1569L305.945 65.1432L298.124 66.3782L304.124 77.3888C304.507 79.3616 305.269 81.4767 306.468 83.6813Z" fill="#FBAD56"/>
<path d="M299.924 66.8385L305.528 77.122C305.963 79.2599 306.734 81.3326 307.871 83.4145C309.005 85.4963 310.434 87.4631 312.122 89.263L317.818 99.6739L324.036 98.6904L324.179 98.6556C330.107 97.4541 333.156 89.5903 328.053 80.2235C322.95 70.8597 312.501 65.1429 306.298 65.8431L306.135 65.8567L299.924 66.8385ZM316.865 101.371C316.254 101.371 315.694 101.157 315.517 100.827L309.517 89.8176C307.846 88.0646 306.355 86.0114 305.173 83.8418C303.989 81.6705 303.184 79.5084 302.779 77.4129L296.829 66.5385C296.722 66.346 296.767 66.1385 296.944 65.9627C297.125 65.7854 297.426 65.6551 297.783 65.5975L305.601 64.3627L306.003 64.3324C313.587 63.6399 325.026 69.2869 330.748 79.7977C336.487 90.3223 332.472 98.4208 325.425 100.021L325.079 100.106L317.261 101.341L316.865 101.371Z" fill="white"/>
<path d="M329.32 96.3372C329.666 95.9327 329.982 95.4948 330.257 95.0221L315.1 97.4191L315.685 98.4933L329.32 96.3372Z" fill="#F387A3"/>
<path d="M304.428 78.4401L325.642 75.0871C325.344 74.7371 325.035 74.3977 324.722 74.0659L304.133 77.3189L304.183 77.4084C304.248 77.7462 304.341 78.0948 304.428 78.4401Z" fill="#F387A3"/>
<path d="M326.988 76.8855C326.726 76.5339 326.462 76.1855 326.189 75.8461L304.584 79.2614C304.693 79.628 304.809 79.9961 304.947 80.3703L326.988 76.8855Z" fill="#F387A3"/>
<path d="M317.504 68.4929C316.942 68.1686 316.374 67.8686 315.811 67.5929L300.077 70.0807L300.662 71.155L317.504 68.4929Z" fill="#F387A3"/>
<path d="M328.288 78.6821C328.063 78.3261 327.835 77.9715 327.598 77.626L305.335 81.1457C305.484 81.5079 305.633 81.87 305.802 82.2382L328.288 78.6821Z" fill="#F387A3"/>
<path d="M314.572 66.9531C313.827 66.6395 313.087 66.3651 312.358 66.1365L299.175 68.2213L299.761 69.2941L314.572 66.9531Z" fill="#F387A3"/>
<path d="M322.224 71.7243C321.828 71.3864 321.423 71.0606 321.015 70.7484L302.18 73.7258L302.765 74.7984L322.224 71.7243Z" fill="#F387A3"/>
<path d="M323.975 73.3667C323.629 73.0244 323.278 72.691 322.92 72.3668L303.081 75.5033L303.667 76.5775L323.975 73.3667Z" fill="#F387A3"/>
<path d="M320.042 70.0741C319.578 69.7438 319.105 69.4302 318.635 69.1302L301.129 71.8985L301.714 72.9727L320.042 70.0741Z" fill="#F387A3"/>
<path d="M331.678 90.041C331.7 89.6591 331.7 89.2699 331.692 88.8728L312.095 91.9714L312.68 93.044L331.678 90.041Z" fill="#F387A3"/>
<path d="M330.141 82.3549C329.989 81.9944 329.829 81.6323 329.651 81.2671L307.138 84.8262C307.36 85.1854 307.588 85.5369 307.821 85.8839L330.141 82.3549Z" fill="#F387A3"/>
<path d="M306.66 84.0483L329.236 80.4802L329.025 80.0757C328.901 79.8498 328.774 79.6286 328.645 79.406L306.086 82.9726C306.201 83.1985 306.302 83.4211 306.426 83.6483L306.66 84.0483Z" fill="#F387A3"/>
<path d="M324.362 99.1818L324.356 99.1696C325.836 98.8697 327.156 98.2211 328.253 97.2878L316.001 99.2257L316.64 100.403L324.362 99.1818Z" fill="#F387A3"/>
<path d="M310.413 65.593C308.832 65.2641 307.336 65.1627 306.005 65.3173L305.997 65.3036L298.274 66.5249L298.767 67.4339L310.413 65.593Z" fill="#F387A3"/>
<path d="M330.663 94.1596C330.843 93.7639 331.003 93.3504 331.135 92.9186L314.048 95.6201L314.633 96.6944L330.663 94.1596Z" fill="#F387A3"/>
<path d="M330.85 84.2325C330.735 83.8675 330.606 83.4992 330.468 83.1281L308.339 86.6251C308.593 86.9811 308.862 87.3235 309.136 87.666L330.85 84.2325Z" fill="#F387A3"/>
<path d="M331.458 92.0148C331.542 91.6269 331.616 91.2269 331.666 90.8148L313.147 93.7438L313.732 94.8164L331.458 92.0148Z" fill="#F387A3"/>
<path d="M331.591 88.0762C331.56 87.7006 331.513 87.3186 331.456 86.9309L311.044 90.1581L311.629 91.2309L331.591 88.0762Z" fill="#F387A3"/>
<path d="M331.328 86.1133C331.252 85.7436 331.159 85.3679 331.058 84.9891L309.692 88.3664C309.984 88.7164 310.288 89.0558 310.595 89.3907L331.328 86.1133Z" fill="#F387A3"/>
<path d="M292.35 85.8583C297.856 95.9615 309.316 101.798 316.161 100.715C323.003 99.6328 326.792 91.3872 321.287 81.284C315.778 71.1809 304.318 65.3458 297.476 66.4262C290.631 67.508 286.845 75.7552 292.35 85.8583Z" fill="#FFD792"/>
<path d="M299.238 67.0833C298.779 67.0833 298.346 67.1152 297.941 67.1789C292.466 68.0441 288.23 75.4987 293.772 85.6716C296.261 90.2383 300.2 94.258 304.861 96.9945C308.859 99.3414 312.972 100.464 315.836 100.013C321.313 99.1475 325.55 91.6943 320.008 81.5231C314.874 72.1018 305.019 67.0833 299.238 67.0833ZM314.519 101.626C310.938 101.626 306.783 100.363 302.788 98.0187C297.84 95.1157 293.682 90.8824 291.074 86.0974C285.245 75.4079 289.513 66.9334 297.151 65.7243C304.802 64.5227 316.882 70.4078 322.706 81.0958C328.532 91.7853 324.267 100.26 316.629 101.467C315.951 101.573 315.248 101.626 314.519 101.626Z" fill="white"/>
<path d="M322.487 92.6479L292.98 83.9674C292.265 82.3932 291.787 80.8961 291.514 79.4871L322.518 88.6069C322.715 90.0675 322.693 91.422 322.487 92.6479Z" fill="#FFDFAA"/>
<path d="M323.784 93.0676L322.453 92.6752C322.659 91.4493 322.681 90.0949 322.484 88.6342L323.93 89.0585C324.079 90.4933 324.02 91.8373 323.784 93.0676ZM292.946 83.9947L291.297 83.5099C290.658 81.9704 290.242 80.4885 290.011 79.0825L291.48 79.5144C291.753 80.9235 292.231 82.4205 292.946 83.9947Z" fill="white"/>
<path d="M320.372 82.2205L291.514 73.7309C291.696 72.9764 291.95 72.2778 292.265 71.6384L318.734 79.4248C319.187 80.1037 319.615 80.8114 320.014 81.5448C320.138 81.7705 320.256 81.9962 320.372 82.2205Z" fill="#FFDFAA"/>
<path d="M322.015 82.6855L320.325 82.1871C320.21 81.9627 320.091 81.737 319.968 81.5113C319.568 80.778 319.14 80.0702 318.687 79.3914L320.51 79.9278C320.792 80.3764 321.062 80.8309 321.318 81.2976C321.568 81.7644 321.802 82.2264 322.015 82.6855ZM291.467 73.6974L290.162 73.3142C290.362 72.5703 290.629 71.8762 290.955 71.2339L292.218 71.605C291.903 72.2444 291.65 72.9429 291.467 73.6974Z" fill="white"/>
<path d="M250.652 110.881V146.065L384.484 187.246V152.062L250.652 110.881Z" fill="#002E44"/>
<path d="M449.315 175.317C370.818 185.169 300.654 205.683 245.215 233.592C243.026 234.685 238.916 235.124 235.951 234.557C206.275 228.823 187.679 223.672 153.496 219.224C150.075 218.787 148.095 215.189 150.377 213.909C207.962 181.114 269.2 157.935 352.333 143.456C355.601 142.879 360.789 143.191 363.895 144.126C394.964 153.47 424.643 160.599 451.143 170.335C453.756 171.311 452.409 174.934 449.315 175.317Z" fill="#005A7C"/>
<path d="M449.325 172.323C370.829 182.174 300.665 202.69 245.225 230.599C243.037 231.692 238.926 232.133 235.961 231.564C206.285 225.83 187.69 220.679 153.507 216.231C150.086 215.793 149.101 214.37 151.38 213.09C208.969 180.296 269.21 154.942 352.343 140.463C355.612 139.884 360.799 140.198 363.905 141.131C394.974 150.475 423.697 160.141 450.194 169.879C452.813 170.853 452.419 171.941 449.325 172.323Z" fill="#43B978"/>
<path d="M418.617 170.824C418.87 170.91 419.124 170.998 419.377 171.086C421.881 171.945 421.458 173.002 418.505 173.484C356.569 183.407 300.517 200.013 253.671 221.602C251.404 222.646 247.37 223.044 244.633 222.482L244.126 222.37C241.394 221.794 237.301 222.214 235.07 223.306L234.941 223.373C232.736 224.45 228.732 224.906 225.947 224.377C207.251 220.874 201.028 217.656 180.624 214.621C177.577 214.174 176.882 212.827 179.153 211.627L179.223 211.58C181.479 210.367 180.874 209.036 177.763 208.574C177.465 208.53 177.164 208.485 176.866 208.441C173.782 208.002 173.093 206.647 175.417 205.442C223.91 180.483 268.989 160.495 333.968 147.35C337.057 146.723 341.896 146.888 344.765 147.693C345.094 147.785 345.421 147.879 345.744 147.972C348.6 148.776 353.362 148.948 356.476 148.382C357.329 148.228 358.181 148.073 359.034 147.922C362.168 147.357 367.021 147.605 369.814 148.449C388.376 154.104 406.042 159.866 422.865 165.68C425.397 166.555 424.975 167.608 421.993 168.051C421.149 168.178 420.305 168.307 419.461 168.437C416.507 168.902 416.142 169.975 418.617 170.824Z" fill="#76C694"/>
<path d="M247.703 192.35C241.004 187.672 241.094 181.625 248.791 176.418C261.169 167.912 289.639 164.636 310.808 168.668C319.146 170.224 325.31 172.665 328.751 175.664C334.163 180.397 332.191 185.819 324.258 190.464C311.303 197.907 287.163 201.657 266.627 198.696C258.536 197.5 251.959 195.328 247.703 192.35Z" fill="white"/>
<path d="M308.673 170.866C327.594 174.416 332.008 182.427 320.617 189.045C309.162 195.646 286.645 199.009 268.213 196.314C249.832 193.621 242.011 185.266 252.971 177.801C263.884 170.325 289.796 167.316 308.673 170.866Z" fill="#43B978"/>
<path d="M221.408 207.635C214.845 206.401 213.483 203.518 218.662 201.245C223.858 198.974 233.569 198.245 240.082 199.581C246.623 200.915 247.531 203.725 242.409 205.895C237.283 208.063 228.008 208.868 221.408 207.635Z" fill="#43B978"/>
<path d="M342.016 167.634C335.813 165.891 335.706 163.274 342.097 161.88C348.455 160.474 358.796 160.902 364.929 162.755C371.09 164.609 370.778 167.099 364.49 168.4C358.209 169.699 348.253 169.388 342.016 167.634Z" fill="#43B978"/>
<path d="M152.102 198.436L166.154 198.266V200.121L349.954 138.831C352.699 137.976 357.341 138.041 360.328 138.972L438.777 163.405L437.989 162.936L452.506 161.913L452.562 165.173C452.59 165.727 451.94 166.289 450.621 166.696L241.367 231.662C238.627 232.511 233.994 232.452 231.003 231.525L154.515 203.636C152.929 203.139 152.141 202.491 152.18 201.88H152.135L152.102 198.436Z" fill="#005A7C"/>
<path d="M154.048 197L349.945 131.952C352.691 131.105 357.332 131.158 360.323 132.088L450.126 160.06C453.107 160.987 453.301 162.443 450.544 163.286L241.311 228.254C238.571 229.111 233.937 229.043 230.95 228.111L154.459 200.229C151.5 199.294 151.286 197.849 154.048 197Z" fill="#43B978"/>
<path d="M184.097 195.788L183.247 195.527C180.513 194.668 180.459 193.306 183.143 192.462L338.088 140.144C340.803 139.299 345.248 139.322 347.991 140.188L348.497 140.357C351.228 141.232 355.674 141.257 358.394 140.413L358.551 140.36C361.241 139.528 365.646 139.546 368.375 140.407L423.5 157.572C426.256 158.422 426.313 159.792 423.612 160.622L423.527 160.657C420.827 161.505 420.855 162.866 423.64 163.722L424.428 163.971C427.185 164.81 427.241 166.189 424.54 167.031L256.227 219.293C253.56 220.118 249.191 220.105 246.44 219.268L245.498 218.977C242.758 218.135 238.4 218.133 235.722 218.962L233.53 219.643C230.844 220.477 226.427 220.458 223.676 219.609L182.15 202.595C179.399 201.738 179.343 200.374 181.984 199.548L184.241 198.838C186.876 198.001 186.82 196.639 184.097 195.788Z" fill="#76C694"/>
<path d="M337.743 171.127C343.538 176.565 342.283 182.862 334.389 187.972C321.595 196.247 295.534 199.079 275.056 194.419C266.994 192.589 260.791 189.792 257.111 186.337C251.31 180.895 252.568 174.592 260.464 169.477C273.256 161.214 299.312 158.389 319.786 163.04C327.854 164.877 334.063 167.672 337.743 171.127Z" fill="white"/>
<path d="M276.979 191.944C258.673 187.783 252.968 178.474 264.269 171.157C275.561 163.861 299.557 161.311 317.86 165.472C336.168 169.639 341.879 178.937 330.584 186.248C319.283 193.556 295.298 196.11 276.979 191.944Z" fill="#43B978"/>
<path d="M367.615 157.82C373.841 159.767 374.246 162.793 368.513 164.575C362.754 166.349 353.037 166.223 346.806 164.279C340.549 162.337 340.158 159.313 345.9 157.531C351.642 155.749 361.358 155.873 367.615 157.82Z" fill="#43B978"/>
<path d="M245.187 195.78C251.407 197.718 251.831 200.739 246.07 202.516C240.337 204.303 230.609 204.179 224.372 202.23C218.115 200.288 217.716 197.263 223.472 195.475C229.214 193.691 238.939 193.827 245.187 195.78Z" fill="#43B978"/>
<path d="M152.102 191.397L166.154 191.225V193.081L349.954 131.791C352.699 130.937 357.341 131.002 360.328 131.934L438.777 156.366L437.989 155.896L452.506 154.873L452.562 158.136C452.59 158.687 451.94 159.249 450.621 159.657L241.367 224.623C238.627 225.471 233.994 225.412 231.003 224.485L154.515 196.597C152.929 196.1 152.141 195.451 152.18 194.841H152.135L152.102 191.397Z" fill="#005A7C"/>
<path d="M154.048 189.957L349.945 124.912C352.691 124.065 357.332 124.12 360.323 125.049L450.126 153.02C453.107 153.948 453.301 155.404 450.544 156.246L241.311 221.212C238.571 222.071 233.937 222.002 230.95 221.073L154.459 193.189C151.5 192.254 151.286 190.809 154.048 189.957Z" fill="#43B978"/>
<path d="M184.097 188.748L183.247 188.488C180.513 187.629 180.459 186.268 183.143 185.421L338.088 133.105C340.803 132.26 345.248 132.282 347.991 133.149L348.497 133.317C351.228 134.193 355.674 134.217 358.394 133.373L358.551 133.322C361.241 132.487 365.646 132.507 368.375 133.367L423.5 150.533C426.256 151.384 426.313 152.752 423.612 153.583L423.527 153.618C420.827 154.466 420.855 155.827 423.64 156.684L424.428 156.933C427.185 157.771 427.241 159.15 424.54 159.994L256.227 212.253C253.56 213.079 249.191 213.067 246.44 212.229L245.498 211.938C242.758 211.096 238.4 211.094 235.722 211.925L233.53 212.603C230.844 213.44 226.427 213.418 223.676 212.57L182.15 195.555C179.399 194.698 179.343 193.335 181.984 192.509L184.241 191.798C186.876 190.962 186.82 189.6 184.097 188.748Z" fill="#76C694"/>
<path d="M337.743 164.088C343.538 169.527 342.283 175.823 334.389 180.933C321.595 189.208 295.534 192.04 275.056 187.38C266.994 185.55 260.791 182.755 257.111 179.297C251.31 173.856 252.568 167.553 260.464 162.438C273.256 154.175 299.312 151.35 319.786 156C327.854 157.838 334.063 160.633 337.743 164.088Z" fill="white"/>
<path d="M276.979 184.905C258.673 180.743 252.968 171.435 264.269 164.118C275.561 156.823 299.557 154.271 317.86 158.432C336.168 162.6 341.879 171.897 330.584 179.207C319.283 186.516 295.298 189.072 276.979 184.905Z" fill="#43B978"/>
<path d="M367.615 150.781C373.841 152.728 374.246 155.754 368.513 157.535C362.754 159.31 353.037 159.184 346.806 157.24C340.549 155.297 340.158 152.273 345.9 150.493C351.642 148.709 361.358 148.834 367.615 150.781Z" fill="#43B978"/>
<path d="M245.187 188.74C251.407 190.678 251.831 193.699 246.07 195.478C240.337 197.263 230.609 197.137 224.372 195.19C218.115 193.249 217.716 190.223 223.472 188.436C229.214 186.652 238.939 186.787 245.187 188.74Z" fill="#43B978"/>
<path d="M140.61 148.833C145.029 149.821 149.474 150.788 153.939 151.733C153.511 152.159 153.078 152.585 152.647 153.009C229.18 152.97 289.256 142.698 353.082 124.324C355.751 123.556 360.022 123.692 362.691 124.639C386.007 132.938 411.157 141.077 438.276 148.876C437.995 148.721 437.714 148.567 437.46 148.411C442.412 147.961 447.36 147.48 452.311 146.97C452.398 148.095 452.483 149.22 452.567 150.345C452.649 150.914 452.033 151.515 450.654 151.973C379.424 176.266 296.075 191.117 208.351 194.195C204.902 194.317 199.962 193.337 197.346 192.026C171.127 178.876 160.699 165.799 139.138 152.847C137.996 152.158 137.729 151.55 138.204 151.153L138.165 151.142C138.984 150.376 139.8 149.606 140.61 148.833Z" fill="#005A7C"/>
<path d="M143.465 148.33C224.052 148.791 287.923 137.744 354.075 117.718C356.683 116.936 360.869 117.033 363.499 117.965C389.8 127.327 418.494 136.491 449.749 145.182C452.871 146.043 453.209 147.552 450.424 148.503C380.038 173.002 297.443 188.149 210.307 191.59C206.878 191.736 201.971 190.766 199.372 189.463C173.288 176.413 162.989 163.438 141.544 150.594C139.431 149.314 140.281 148.305 143.465 148.33Z" fill="#43B978"/>
<path d="M172.691 153.681L172.055 153.326C170.018 152.175 170.876 151.199 173.971 151.11C238.505 149.385 286.946 140.332 341.963 125.349C344.628 124.623 348.721 124.75 351.134 125.647L351.576 125.82C353.976 126.731 358.136 126.844 360.784 126.068L360.938 126.02C363.555 125.256 367.645 125.324 370.118 126.194C386.741 131.987 404.267 137.693 422.75 143.247C425.535 144.072 425.591 145.469 422.862 146.344L422.778 146.381C420.049 147.272 420.049 148.641 422.862 149.488C423.143 149.569 423.425 149.652 423.678 149.732C426.491 150.552 426.576 151.957 423.762 152.831C365.667 170.88 300.162 182.752 231.25 187.216C227.97 187.433 223.342 186.653 220.912 185.504C220.636 185.372 220.358 185.24 220.082 185.109C217.665 183.962 213.114 183.186 209.839 183.336C208.942 183.38 208.047 183.419 207.152 183.459C203.858 183.609 199.253 182.745 196.912 181.568C181.381 173.706 172.778 164.966 166.291 158.133C164.921 156.688 165.092 155.991 168.173 155.94C169.056 155.925 169.934 155.908 170.814 155.89C173.898 155.817 174.728 154.822 172.691 153.681Z" fill="#76C694"/>
<path d="M334.76 154.545C339.208 159.945 336.46 165.809 326.689 169.883C310.916 176.564 281.819 176.107 263.027 169.485C255.614 166.909 250.7 163.748 248.677 160.397C245.503 155.109 249.813 150.092 259.564 146.593C275.427 141.021 300.529 140.461 319.175 145.963C326.509 148.157 331.942 151.109 334.76 154.545Z" fill="white"/>
<path d="M266.157 167.635C249.34 161.768 248.584 153.422 262.568 148.45C276.6 143.501 299.958 143.11 316.677 148.086C333.345 153.05 337.258 162.168 323.324 168.018C309.43 173.883 282.933 173.497 266.157 167.635Z" fill="#43B978"/>
<path d="M367.061 143.082C372.896 145.119 372.946 148.095 366.912 149.642C360.867 151.184 351.11 150.651 345.371 148.52C339.605 146.387 339.962 143.541 345.895 142.088C351.828 140.637 361.193 141.041 367.061 143.082Z" fill="#43B978"/>
<path d="M232.22 166.523C237.481 169.009 236.432 171.565 229.607 172.103C222.813 172.655 212.955 170.918 207.813 168.335C202.648 165.745 204.046 163.367 210.727 162.906C217.403 162.448 226.937 164.023 232.22 166.523Z" fill="#43B978"/>
<path d="M55.0542 135.563L68.2874 136.753C64.4139 130.98 69.9359 130.195 69.9359 130.195L64.4223 125.203L55.0542 135.563Z" fill="#F6A0A6"/>
<path d="M109.575 124.906C104.725 128.297 90.5976 133.415 74.5766 138.456C67.2959 140.75 71.2737 147.815 80.8979 146.977C90.5217 146.142 118.06 128.462 118.06 128.462C116.544 124.335 109.575 124.906 109.575 124.906Z" fill="#F6A0A6"/>
<path d="M127.885 114.844C123.252 116.258 123.66 114.311 121.935 114.2C120.216 114.087 113.315 116.012 112.345 116.699C111.189 117.511 113.234 121.787 108.736 125.549C107.928 126.226 117.203 128.944 117.203 128.944C117.203 128.944 127.179 124.67 129.022 123.205C130.864 121.744 136.029 121.072 134.386 120.619C132.746 120.166 128.588 120.969 126.315 121.464C124.042 121.956 124.582 119.828 127.274 117.719C129.969 115.616 139.273 113.308 137.993 112.372C137.163 111.762 131.581 113.719 127.885 114.844Z" fill="#F6A0A6"/>
<path d="M34.7038 207.653C34.7038 207.653 43.4191 219.476 36.451 227.876C25.1278 241.52 29.0044 270.888 28.0673 274.334C27.128 277.781 38.6312 281.484 41.4498 274.591C44.2688 267.697 57.7102 237.376 63.6602 230.107C69.6128 222.842 67.3032 209.245 67.3032 209.245L34.7038 207.653Z" fill="#F6A0A6"/>
<path d="M59.346 216.883C64.7726 222.909 70.4723 240.735 67.645 251.864C64.8205 262.993 70.8406 285.293 70.9955 288.787C71.1558 292.278 83.0244 294.832 83.635 287.75C84.2427 280.664 90.4852 252.511 94.0578 244.711C97.625 236.909 91.5065 213.196 91.5065 213.196C91.5065 213.196 53.9166 210.858 59.346 216.883Z" fill="#F6A0A6"/>
<path d="M91.4606 297.031C83.6907 294.504 84.6047 287.046 84.6047 287.046C74.5788 287.255 69.9537 286.219 69.9537 286.219C69.9537 288.49 65.1403 292.378 64.558 295.793C64.0432 298.842 68.7354 300.648 68.7354 303.31H72.8598L70.7864 297.082C77.5298 297.082 86.1241 303.384 94.5242 303.33C103.341 303.273 105.833 301.834 106.506 300.337C107.178 298.837 99.2222 299.563 91.4606 297.031Z" fill="#002E44"/>
<path d="M49.3942 284.9C41.6326 282.368 42.5412 274.911 42.5412 274.911C32.5178 275.12 27.8902 274.082 27.8902 274.082C27.8902 276.355 23.0739 280.243 22.4945 283.658C21.9768 286.706 26.6719 288.512 26.6719 291.175H30.7934L28.7257 284.95C35.466 284.95 44.0576 291.249 52.4578 291.193C61.2743 291.138 63.7697 289.7 64.4391 288.2C65.1114 286.706 57.1558 287.428 49.3942 284.9Z" fill="#002E44"/>
<path d="M41.2857 167.52C41.2857 167.52 38.7566 172.488 32.0754 178.562C25.394 184.635 19.1515 193.628 21.4274 200.548C23.6779 207.386 18.8365 234.486 14.1919 248.344C14.1919 248.344 37.0941 250.733 45.7587 254.018C76.0707 265.518 108.884 254.768 108.884 254.768C108.884 225.259 86.0124 187.019 81.3539 170.099L41.2857 167.52Z" fill="#F1617E"/>
<path d="M88.2963 151.362C86.3273 148.641 84.6028 146.905 82.4535 142.553C80.3071 138.208 67.6393 134.473 55.1149 135.601C41.364 136.838 39.0544 147.423 39.0206 154.103C38.9869 160.299 40.1936 167.306 33.5713 177.301C48.1213 184.308 71.98 187.673 86.9716 183.344C85.154 176.613 78.9623 165.259 81.7109 160.165C82.1721 159.312 92.1308 156.659 88.2963 151.362Z" fill="#002E44"/>
<path d="M78.6785 116.99C79.0105 116.139 78.7206 114.574 78.5493 113.801C77.0637 107.099 59.3829 113.299 53.2979 118.745C47.2128 124.192 72.214 133.85 77.3452 129.086C83.3794 123.481 80.5408 119.239 80.223 118.998C79.0021 118.09 78.3748 117.765 78.6785 116.99Z" fill="#F6A0A6"/>
<path d="M60.987 105.977C47.5258 107.862 43.1456 103.58 35.9917 112.082C30.0896 119.09 19.8271 112.441 13.7424 120.561C7.65741 128.685 16.9802 128.92 5.61775 133.929C-5.38735 138.781 6.20003 146.502 9.33973 150.718C12.482 154.93 18.1561 157.039 11.2554 163.141C11.2554 163.141 39.3901 162.939 37.1621 152.89C34.9312 142.842 52.7106 147.649 51.1353 140.551C49.8749 134.857 63.4345 137.21 63.0547 133.614C62.6806 130.014 75.3118 128.432 66.8301 121.957C61.8001 118.116 81.1095 115.702 80.1843 111.531C79.5683 108.753 74.448 104.093 60.987 105.977Z" fill="#005A7C"/>
<path d="M64.9356 119.364C63.9648 120.555 64.8145 122.317 66.1929 123.397C67.5798 124.474 68.7981 124.108 68.5786 123.552C68.3 122.843 69.7459 121.564 69.0231 119.723C68.8148 119.197 65.9059 118.173 64.9356 119.364Z" fill="#F6A0A6"/>
<path d="M84.6854 150.985C84.016 142.207 78.4879 139.4 74.9182 138.731C64.515 136.787 59.8058 143.5 61.8198 150.763C63.7412 157.694 67.8459 167.647 78.2716 175.085C82.3844 178.014 90.3485 169.914 89.6171 167.745C88.8827 165.573 85.2623 158.467 84.6854 150.985Z" fill="#F6A0A6"/>
<path d="M152.48 171.268C148.1 170.938 143.371 171.623 145.231 170.909C147.329 170.101 149.2 169.07 148.595 167.888C148.139 166.994 146.28 169.283 143.256 169.527C139.801 169.808 136.656 171.97 133.238 172.036C133.238 172.036 132.802 177.52 134.191 177.515C135.587 177.512 140.119 177.9 143.194 178.173C146.274 178.444 149.29 180.667 151.664 180.324C153.102 180.117 156.888 177.011 157.307 176.171C157.724 175.33 154.373 173.353 156.649 173.989C157.054 174.103 160.644 175.347 161.049 175.483C165.123 176.841 167.697 176.305 166.431 175.777C164.287 174.877 156.852 171.605 152.48 171.268Z" fill="#F6A0A6"/>
<path d="M135.634 172C128.264 172.379 96.6912 168.184 88.6173 167.532C84.9432 167.232 72.1066 172.579 79.2801 175.578C86.4623 178.578 136.422 177.435 136.422 177.435C140.67 174.256 135.634 172 135.634 172Z" fill="#F6A0A6"/>
</svg>
