<?xml version="1.0" encoding="UTF-8" standalone="no"?><!DOCTYPE svg PUBLIC "-//W3C//DTD SVG 1.1//EN" "http://www.w3.org/Graphics/SVG/1.1/DTD/svg11.dtd"><svg width="100%" height="100%" viewBox="0 0 138 192" version="1.1" xmlns="http://www.w3.org/2000/svg" xmlns:xlink="http://www.w3.org/1999/xlink" xml:space="preserve" xmlns:serif="http://www.serif.com/" style="fill-rule:evenodd;clip-rule:evenodd;stroke-linejoin:round;stroke-miterlimit:2;"><g><path d="M41.769,118.202l-15.441,14.574l5.569,15.6l15.441,-14.574l-5.569,-15.6Zm79.697,-36.983c-1.541,-4.316 -5.371,-5.359 -8.575,-2.335c-3.205,3.025 -4.547,8.95 -3.006,13.266c-1.541,-4.316 -5.371,-5.359 -8.575,-2.335c-3.205,3.024 -4.547,8.949 -3.006,13.265c1.541,4.316 5.371,5.36 8.575,2.335c3.204,-3.024 4.547,-8.949 3.006,-13.265c1.541,4.316 5.371,5.359 8.575,2.335c3.204,-3.024 4.547,-8.95 3.006,-13.266m-6.204,-46.287l16.709,46.801c2.052,5.745 0.258,13.66 -4.007,17.686l-88.788,83.801c-4.266,4.026 -9.383,2.633 -11.434,-3.113l-16.709,-46.801l104.229,-98.374Z" style="fill:#ff9101;fill-rule:nonzero;"/><path d="M7.32,122.907l104.229,-98.375l3.713,10.4l-104.229,98.374l-3.713,-10.399Z" style="fill:#f4f6fb;"/><path d="M109.693,19.332l1.856,5.2l-104.229,98.374l-1.856,-5.2c-2.052,-5.746 -0.259,-13.661 4.007,-17.687l88.788,-83.8c4.266,-4.026 9.382,-2.633 11.434,3.113" style="fill:#ffc701;fill-rule:nonzero;"/><path d="M123.323,86.419l-30.883,29.148c-21.961,20.727 -47.271,20.141 -64.188,1.488l-17.219,16.251l16.709,46.801c2.051,5.746 7.168,7.139 11.434,3.113l88.788,-83.801c4.265,-4.026 6.059,-11.941 4.007,-17.687l-4.641,-13c2.051,5.744 0.256,13.663 -4.007,17.687" style="fill:#ffa801;fill-rule:nonzero;"/><path d="M22.139,108.92l-14.819,13.987l3.713,10.4l17.219,-16.252c-2.187,-2.412 -4.232,-5.125 -6.113,-8.135" style="fill:#d9dbe1;fill-rule:nonzero;"/><path d="M15.262,94.554l-5.791,5.465c-4.266,4.026 -6.059,11.941 -4.007,17.687l1.856,5.2l14.819,-13.986c-2.638,-4.221 -4.962,-9.002 -6.877,-14.366" style="fill:#ffa801;fill-rule:nonzero;"/><path d="M112.891,78.884c3.204,-3.024 7.034,-1.981 8.575,2.335c1.541,4.316 0.198,10.241 -3.006,13.266c-3.204,3.024 -7.034,1.981 -8.575,-2.335c-1.541,-4.316 -0.198,-10.242 3.006,-13.266" style="fill:#f4f6fb;fill-rule:nonzero;"/><path d="M101.309,89.815c3.205,-3.024 7.035,-1.981 8.576,2.335c1.541,4.316 0.198,10.241 -3.006,13.265c-3.204,3.024 -7.034,1.981 -8.575,-2.335c-1.541,-4.316 -0.199,-10.241 3.005,-13.265" style="fill:#fff;fill-rule:nonzero;"/><path d="M26.328,132.776l15.441,-14.574l5.569,15.6l-15.441,14.574l-5.569,-15.6Z" style="fill:#fff;"/><path d="M77.514,80.989l34.742,-32.791l1.857,5.2l-34.743,32.791l-1.856,-5.2Z" style="fill:#f4f6fb;"/><path d="M106.319,67.706l9.651,-9.108l1.856,5.2l-9.651,9.108l-1.856,-5.2Z" style="fill:#f4f6fb;"/><path d="M68.94,15.874c5.785,16.203 0.724,38.54 -11.305,49.893c-12.028,11.353 -26.468,7.421 -32.253,-8.781c-5.785,-16.203 -0.723,-38.541 11.305,-49.894c12.028,-11.353 26.469,-7.421 32.253,8.782" style="fill:#00054d;fill-opacity:0.91;fill-rule:nonzero;"/><path d="M55.675,36.974c-1.572,-4.404 -5.511,-5.477 -8.781,-2.391l-2.281,2.153c-1.761,1.662 -3.882,1.084 -4.729,-1.287c-0.846,-2.372 -0.103,-5.653 1.658,-7.315l5.702,-5.381c0.755,-0.714 1.073,-2.118 0.71,-3.135c-0.364,-1.018 -1.271,-1.265 -2.027,-0.552l-2.965,2.798l-1.096,-3.072c-0.364,-1.018 -1.271,-1.265 -2.027,-0.552c-0.756,0.714 -1.074,2.117 -0.71,3.135l1.097,3.072c-3.27,3.086 -4.651,9.18 -3.078,13.585c1.572,4.404 5.511,5.477 8.781,2.391l2.281,-2.153c1.76,-1.662 3.882,-1.084 4.728,1.287c0.847,2.372 0.104,5.653 -1.657,7.315l-5.702,5.382c-0.755,0.713 -1.073,2.117 -0.71,3.135c0.363,1.017 1.271,1.264 2.026,0.551l3.422,-3.229l1.096,3.073c0.364,1.017 1.271,1.265 2.027,0.551c0.756,-0.713 1.074,-2.117 0.71,-3.135l-1.108,-3.103c2.944,-3.201 4.132,-8.925 2.633,-13.123" style="fill:#fff;fill-rule:nonzero;"/></g></svg>