<?xml version="1.0" encoding="UTF-8" standalone="no"?><!DOCTYPE svg PUBLIC "-//W3C//DTD SVG 1.1//EN" "http://www.w3.org/Graphics/SVG/1.1/DTD/svg11.dtd"><svg width="100%" height="100%" viewBox="0 0 288 400" version="1.1" xmlns="http://www.w3.org/2000/svg" xmlns:xlink="http://www.w3.org/1999/xlink" xml:space="preserve" xmlns:serif="http://www.serif.com/" style="fill-rule:evenodd;clip-rule:evenodd;stroke-linejoin:round;stroke-miterlimit:2;"><g><path d="M31.963,77.768c-0.628,-0.217 -2.11,-0.33 -4.192,-0.33c-2.178,0 -4.43,0.139 -5.161,0.252c-1.371,0.247 -2.486,1.023 -3.229,2.249c-0.861,1.421 -1.118,3.285 -0.707,5.105c0.703,3.151 3.098,5.894 5.971,6.843c0.541,0.178 1.778,0.273 3.501,0.273c2.3,-0 4.86,-0.169 5.678,-0.29c1.336,-0.213 2.443,-0.932 3.209,-2.089c0.862,-1.313 1.186,-3.073 0.885,-4.802c-0.573,-3.302 -2.975,-6.193 -5.955,-7.211Z" style="fill:#f2942f;fill-rule:nonzero;"/><path d="M1.646,129.889c0.241,3.298 2.387,6.436 5.327,7.805c0.949,0.438 1.992,0.642 3.304,0.642c0.869,-0 1.77,-0.087 2.643,-0.178c0.368,-0.035 0.727,-0.069 1.095,-0.1c2.403,-0.203 6.022,-0.511 9.82,-0.823c7.306,-0.607 15.573,-1.296 16.711,-1.413c2.877,-0.329 4.904,-3.246 4.596,-6.631c-0.296,-3.315 -2.462,-6.392 -5.378,-7.679c-0.854,-0.368 -1.826,-0.55 -3.051,-0.55c-0.83,-0 -1.679,0.082 -2.505,0.16c-0.399,0.035 -0.787,0.07 -1.178,0.1c-0.727,0.052 -2.24,0.147 -4.196,0.273c-6.951,0.455 -21.41,1.378 -22.782,1.677c-2.801,0.607 -4.655,3.424 -4.406,6.717Z" style="fill:#f2942f;fill-rule:nonzero;"/><path d="M45.34,212.455c-3.091,0.949 -4.45,4.429 -4.201,7.367c0.292,3.428 2.426,6.531 5.295,7.74c1.407,0.59 3.074,0.477 4.833,0.187l9.235,-1.521c2.268,-0.377 4.102,-2.241 4.694,-4.75c0.577,-2.527 0.04,-5.192 -1.493,-7.337c-1.561,-2.171 -3.94,-3.476 -6.362,-3.476l-1.036,0.078c-0.513,0.074 -1.339,0.191 -2.323,0.33c-3,0.407 -7.528,1.031 -8.642,1.382Z" style="fill:#f2942f;fill-rule:nonzero;"/><path d="M146.343,207.411c0.174,-3.545 -1.794,-7.138 -4.691,-8.533c-0.699,-0.338 -1.41,-0.499 -2.268,-0.499c-0.743,0 -1.494,0.121 -2.296,0.251l-1.201,0.178c-1.723,0.26 -5.307,0.793 -5.667,0.906c-1.173,0.377 -2.074,1.192 -2.667,2.405c-0.806,1.63 -0.948,3.883 -0.387,5.872c0.865,3.012 3.414,6.08 6.619,6.111l0.019,0.503l0,-0.503c1.063,-0 4.762,-0.676 6.979,-1.084c0.668,-0.117 1.213,-0.216 1.549,-0.281c2.612,-0.425 3.9,-2.982 4.011,-5.326Z" style="fill:#05156c;fill-rule:nonzero;"/><path d="M140.645,254.865c0.561,-2.917 -0.526,-6.648 -2.521,-8.685c-1.241,-1.266 -2.857,-1.903 -4.806,-1.903c-1.256,0 -2.635,0.265 -4.078,0.789c-2.22,0.819 -3.019,2.683 -3.307,4.1c-0.573,2.947 0.518,6.717 2.557,8.771c2.062,2.08 5.232,2.414 8.934,1.023c2.174,-0.828 2.952,-2.691 3.221,-4.095Z" style="fill:#05156c;fill-rule:nonzero;"/><path d="M74.502,322.171c0.498,0.165 1,0.243 1.553,0.243c0.984,0 1.96,-0.251 2.992,-0.516l1.3,-0.329c2.134,-0.524 7.129,-1.759 8.045,-2.375c2.893,-1.959 3.49,-5.998 2.814,-8.914c-0.826,-3.567 -3.45,-6.306 -6.374,-6.661l-0.565,-0.03c-0.937,-0 -1.913,0.251 -2.861,0.498l-0.826,0.208c-0.782,0.182 -1.585,0.338 -2.402,0.494c-1.755,0.351 -3.577,0.698 -5.173,1.361c-2.711,1.096 -4.252,3.813 -4.134,7.272c0.115,3.506 2.091,7.64 5.631,8.749Z" style="fill:#f2942f;fill-rule:nonzero;"/><path d="M46.387,276.962c0.66,0.252 1.391,0.382 2.224,0.382l0.004,-0c1.368,-0 2.798,-0.343 4.181,-0.672c0.494,-0.117 0.984,-0.225 1.458,-0.321c1.933,-0.416 3.865,-0.793 5.805,-1.187c3.774,-0.759 7.678,-1.547 11.488,-2.427c2.876,-0.52 4.595,-3.536 4.813,-6.254c0.268,-3.458 -1.371,-6.96 -4.086,-8.71c-1.028,-0.65 -2.122,-0.963 -3.45,-0.963c-1.217,0 -2.454,0.261 -3.758,0.538c-0.379,0.082 -0.767,0.16 -1.146,0.23l-17.782,3.436l-0.83,0.226c-2.691,0.953 -4.268,3.345 -4.311,6.582c-0.052,3.996 2.264,7.923 5.39,9.14Z" style="fill:#f2942f;fill-rule:nonzero;"/><path d="M106.602,174.253c1.134,0 2.319,-0.177 3.536,-0.546c1.739,-0.502 2.877,-1.746 3.272,-3.592c0.609,-2.804 -0.616,-6.704 -2.715,-8.711c-1.339,-1.274 -3.114,-1.92 -5.259,-1.92c-1.083,0 -2.241,0.16 -3.458,0.486c-1.782,0.485 -2.94,1.724 -3.347,3.601c-0.616,2.834 0.613,6.778 2.743,8.789c1.339,1.252 3.098,1.893 5.228,1.893Z" style="fill:#05156c;fill-rule:nonzero;"/><path d="M112.347,217.668c1.162,0 2.454,-0.216 3.853,-0.641c2.3,-0.693 3.161,-2.47 3.466,-3.84c0.659,-2.877 -0.396,-6.63 -2.443,-8.728c-1.335,-1.369 -3.105,-2.058 -5.259,-2.058c-1.19,-0 -2.482,0.208 -3.833,0.633c-2.272,0.719 -3.098,2.522 -3.395,3.909c-0.62,2.881 0.514,6.725 2.569,8.767c1.304,1.3 3.003,1.958 5.042,1.958Z" style="fill:#05156c;fill-rule:nonzero;"/><path d="M104.95,130.487c0.992,0 2.031,-0.13 3.118,-0.385c1.695,-0.425 2.766,-1.504 3.173,-3.216c0.699,-2.93 -0.806,-6.808 -2.648,-8.598c-1.411,-1.357 -3.292,-2.05 -5.607,-2.05c-0.941,0 -1.937,0.117 -2.956,0.355c-1.739,0.399 -2.837,1.478 -3.248,3.212c-0.723,2.955 0.794,6.873 2.663,8.663c1.399,1.343 3.252,2.019 5.505,2.019Z" style="fill:#05156c;fill-rule:nonzero;"/><path d="M81.121,90.374l0.182,0c3.335,0 27.535,-1.282 27.646,-1.291c1.146,-0.152 2.09,-0.745 2.73,-1.729c0.806,-1.231 1.087,-2.986 0.755,-4.685c-0.672,-3.441 -3.3,-6.375 -6.228,-6.968c-0.094,-0.013 -0.462,-0.022 -1.031,-0.022c-5.299,-0 -26.148,0.55 -27.895,0.893c-1.236,0.225 -2.224,0.94 -2.857,2.062c-0.806,1.444 -0.976,3.485 -0.438,5.314c1.019,3.553 4.094,6.305 7.136,6.426Z" style="fill:#05156c;fill-rule:nonzero;"/><path d="M59.85,134.713c1.399,5.984 5.58,23.8 6.267,26.708c0.115,0.494 0.016,0.655 0.47,0.607c1.036,-0.113 15.42,-1.673 21.584,-2.353c-1.43,-6.002 -5.58,-23.615 -6.287,-26.388l-0.632,-0.368c-1.15,0.056 -15.415,1.291 -21.402,1.794Z" style="fill:#f2942f;fill-rule:nonzero;"/><path d="M80.663,223.406c1.383,5.886 6.623,28.967 6.836,29.127c0.23,0.169 15.147,-2.921 21.79,-4.203c-1.403,-5.907 -5.734,-24.074 -6.493,-27.247l-0.336,-1.278c-0.751,0.117 -1.493,0.243 -2.244,0.355c-6.517,1.092 -13.033,2.167 -19.553,3.246Z" style="fill:#f2942f;fill-rule:nonzero;"/><path d="M91.384,269.127c1.375,5.876 5.682,24.182 6.445,27.458l0.383,1.617l1.802,-0.434c6.655,-1.555 13.293,-3.129 19.94,-4.697c-1.407,-5.894 -5.726,-24.031 -6.489,-27.207l-0.332,-1.27c-0.734,0.152 -1.469,0.303 -2.204,0.468c-6.513,1.352 -13.029,2.709 -19.545,4.065Z" style="fill:#05156c;fill-rule:nonzero;"/><path d="M70.005,177.989c0,0 6.706,28.59 6.837,29.157c0.008,0.039 15.138,-2.279 21.852,-3.285c-1.406,-5.92 -6.741,-28.568 -6.836,-28.563c-0.747,0.091 -15.316,1.885 -21.853,2.691Z" style="fill:#05156c;fill-rule:nonzero;"/><path d="M41.024,6.24c-6.611,0.758 -9.499,7.744 -7.966,14.232c0.304,1.326 12.234,52.16 12.771,54.435c0.309,1.34 0.119,1.34 1.423,1.296c6.951,-0.264 13.886,-0.524 20.829,-0.793c-1.478,-6.21 -2.952,-12.424 -4.43,-18.626c-0.517,-2.197 -2.359,-7.268 1.293,-7.415c0.478,-0.017 127.044,-1.122 127.657,-1.136c2.043,-0.017 3.082,2.111 3.576,3.949c2.932,10.838 24.061,89.153 25.44,94.271c-11.768,1.326 -39.946,4.498 -42.266,4.758c-3.023,0.342 -6.042,0.849 -8.856,2.488c-13.095,7.588 -12.791,27.254 -7.46,40.091c2.793,6.734 7.128,12.814 12.665,17.144c5.627,4.394 13.056,7.228 19.955,5.196c2.427,-0.711 54.837,-9.907 58.002,-10.466c2.142,-0.39 4.691,-0.81 6.449,-2.318c3.699,-3.177 1.32,-9.054 0.202,-13.101c-4.07,-14.67 -8.137,-29.344 -12.199,-44.018c-1.474,-5.295 -2.94,-10.587 -4.402,-15.883c-0.419,-1.512 -0.778,-3.103 -1.415,-4.537c-2.323,-5.253 -7.942,-7.862 -13.115,-7.844c1.573,5.725 3.145,11.436 4.718,17.153c0.383,1.404 0.771,2.812 1.158,4.212c0.122,0.433 0.202,1.435 0.494,1.781c2.786,1.643 4.046,-3.168 4.161,-5.361c0.462,3.212 0.166,8.005 -3.363,9.002c-0.363,0.112 -2.849,0.459 -2.873,0.372l-0.126,-0.442c-0.814,-2.977 -31.005,-113.183 -33.265,-121.422c-1.857,-6.769 -7.259,-12.797 -13.993,-12.992c-2.785,-0.078 -136.635,-3.9 -139.99,-3.991c-1.663,-0.048 -3.41,-0.222 -5.074,-0.035Zm106.935,27.467c-1.15,0.169 -2.391,0.017 -3.548,0.017c-2.96,-0.017 -5.92,-0.021 -8.876,-0.034c-7.524,-0.026 -15.04,-0.048 -22.563,-0.074c-2.494,-0.009 -4.991,-0.017 -7.501,-0.022c-0.482,0 -0.964,-0.013 -1.462,-0.013c-2.122,-0.004 -4.362,-2.5 -3.841,-4.884c0.47,-2.162 2.834,-1.733 4.367,-1.716c2.73,0.026 5.457,0.052 8.184,0.082c7.535,0.065 15.075,0.13 22.615,0.204c2.754,0.022 5.512,0.052 8.27,0.082c2.324,0.013 4.628,-0.13 5.726,2.791c0.522,1.383 0.23,3.32 -1.371,3.567Zm48.384,170.293c-6.445,2.253 -13.191,-1.578 -17.49,-6.683c-4.726,-5.607 -7.544,-13.547 -6.848,-21.178c0.616,-6.761 4.517,-13.166 11.072,-14.111c7.082,-1.031 13.669,4.147 17.549,10.158c3.292,5.114 5.209,11.541 4.731,17.807c-0.459,6.033 -3.454,12.061 -9.014,14.007Z" style="fill:#05156c;fill-rule:nonzero;"/><path d="M49.722,91.553c1.407,5.981 5.599,23.853 6.299,26.813c0.102,0.438 0.016,0.732 0.438,0.702c1.004,-0.065 15.455,-1.079 21.667,-1.513c-1.426,-5.993 -5.643,-23.705 -6.326,-26.574c-0.127,-0.515 -0.04,-0.563 -0.522,-0.541c-1.091,0.064 -15.455,0.797 -21.556,1.113Z" style="fill:#05156c;fill-rule:nonzero;"/><path d="M240.526,216.529c2.778,10.314 15.672,58.071 19.335,71.636c0.684,2.535 1.755,6.115 -1.403,6.981c-2.754,0.755 -5.5,1.504 -8.262,2.258c-12.12,3.32 -102.794,28.139 -113.523,31.073c-1.738,0.472 -4.422,1.213 -6.204,0.308c-2.576,-1.318 -3.315,-5.5 -3.951,-8.148c-0.822,-3.475 -1.656,-6.947 -2.49,-10.422l-0.332,-0.499c-0.632,0.156 -17.474,4.404 -21.512,5.431c2.675,11.414 11.428,48.697 13.115,55.904c1.32,5.626 3.232,12.828 6.259,15.996c3.355,3.51 7.979,5.127 12.551,3.61c0.64,-0.199 141.914,-47.12 142.76,-47.406c2.422,-0.806 4.276,-2.553 5.41,-5.049c2.43,-5.339 1.11,-10.869 -0.348,-16.186c-1.3,-4.781 -29.42,-107.381 -29.511,-107.719c-0.059,-0.247 -10.882,2.037 -11.894,2.232Zm-31.882,135.437c-6.623,3.441 -13.08,-3.095 -15.273,-9.474c-2.205,-6.357 -1.561,-15.809 4.75,-19.207c6.469,-3.475 12.918,2.713 15.23,8.945c2.406,6.475 1.877,16.347 -4.707,19.736Z" style="fill:#f2942f;fill-rule:nonzero;"/><path d="M125.463,389.972l-103.75,-37.551l88.402,-3.467c0.371,1.59 0.738,3.155 1.098,4.672c1.881,8.026 3.462,14.769 4.086,17.425c1.32,5.626 3.232,12.828 6.259,15.996c1.166,1.222 2.486,2.215 3.905,2.925Z" style="fill:#caced5;fill-rule:nonzero;"/><path d="M125.577,390.011l-0.114,-0.039c-1.419,-0.71 -2.739,-1.703 -3.905,-2.925c1.194,1.252 2.557,2.245 4.019,2.964Zm-14.364,-36.385c-0.36,-1.517 -0.727,-3.082 -1.098,-4.672c0.375,1.59 0.738,3.15 1.098,4.672Z" style="fill:#cc7f2c;fill-rule:nonzero;"/></g></svg>