<svg width="991" height="452" viewBox="0 0 991 452" fill="none" xmlns="http://www.w3.org/2000/svg">
<path d="M899.14 246.054L911.27 279.219H892.696L876.773 259.894L899.14 246.054V246.054Z" fill="#457FC2"/>
<path d="M893.291 279.219H831.12L837.564 246.054H899.734L893.291 279.219Z" fill="#8FBEE6"/>
<path d="M881.245 249.602H875.56C874.878 249.602 874.352 249.188 874.443 248.722L875.438 243.602C875.514 243.217 875.99 242.929 876.555 242.929H882.24C882.923 242.929 883.448 243.343 883.357 243.809L882.363 248.929C882.288 249.314 881.811 249.602 881.245 249.602Z" fill="#457FC2"/>
<path d="M857.833 249.4H852.148C851.466 249.4 850.94 248.987 851.031 248.521L852.026 243.402C852.1 243.016 852.578 242.727 853.143 242.727H858.828C859.509 242.727 860.035 243.142 859.945 243.607L858.95 248.727C858.875 249.112 858.397 249.4 857.833 249.4Z" fill="#457FC2"/>
<path d="M890.477 259.076H880.243C879.561 259.076 879.035 258.663 879.125 258.197L880.12 253.078C880.195 252.691 880.673 252.404 881.238 252.404H891.472C892.154 252.404 892.68 252.818 892.589 253.283L891.594 258.403C891.52 258.789 891.042 259.076 890.477 259.076Z" fill="#CCE5F7"/>
<path d="M871.745 259.279H861.512C860.83 259.279 860.304 258.865 860.395 258.399L861.39 253.279C861.464 252.894 861.943 252.606 862.507 252.606H872.74C873.423 252.606 873.948 253.02 873.859 253.486L872.864 258.605C872.788 258.991 872.311 259.279 871.745 259.279Z" fill="#CCE5F7"/>
<path d="M853.017 259.279H842.783C842.101 259.279 841.575 258.865 841.665 258.399L842.66 253.279C842.735 252.894 843.213 252.606 843.778 252.606H854.012C854.694 252.606 855.22 253.02 855.129 253.486L854.134 258.605C854.058 258.991 853.582 259.279 853.017 259.279Z" fill="#CCE5F7"/>
<path d="M886.964 271.778H876.73C876.048 271.778 875.522 271.364 875.613 270.898L876.608 265.779C876.682 265.393 877.16 265.105 877.725 265.105H887.958C888.641 265.105 889.166 265.52 889.077 265.985L888.082 271.105C888.006 271.49 887.529 271.778 886.964 271.778Z" fill="#CCE5F7"/>
<path d="M867.065 272.08H856.832C856.149 272.08 855.623 271.667 855.713 271.201L856.708 266.081C856.784 265.696 857.261 265.407 857.827 265.407H868.06C868.742 265.407 869.268 265.821 869.177 266.287L868.182 271.407C868.108 271.792 867.63 272.08 867.065 272.08Z" fill="#CCE5F7"/>
<path d="M848.335 272.08H838.102C837.42 272.08 836.894 271.667 836.985 271.201L837.978 266.081C838.054 265.696 838.532 265.407 839.097 265.407H849.33C850.012 265.407 850.538 265.821 850.447 266.287L849.454 271.407C849.378 271.792 848.9 272.08 848.335 272.08Z" fill="#CCE5F7"/>
<path d="M953.586 449.063H780.631C779.423 449.063 778.444 448.389 778.444 447.557V280.724C778.444 279.892 779.423 279.217 780.631 279.217H953.586C954.794 279.217 955.773 279.892 955.773 280.724V447.557C955.773 448.389 954.794 449.063 953.586 449.063Z" fill="#A5DBF6"/>
<path d="M921.418 449.063H756.048C754.84 449.063 753.861 448.389 753.861 447.557V280.724C753.861 279.892 754.84 279.217 756.048 279.217H921.418C922.624 279.217 923.603 279.892 923.603 280.724V447.557C923.603 448.389 922.624 449.063 921.418 449.063Z" fill="#CBECFC"/>
<path d="M901.156 356.597H770.711C769.809 356.597 769.079 356.093 769.079 355.473V295.259C769.079 294.638 769.809 294.136 770.711 294.136H901.156C902.056 294.136 902.787 294.638 902.787 295.259V355.473C902.787 356.093 902.056 356.597 901.156 356.597Z" fill="white"/>
<path d="M845.192 299.011H821.582C821.032 299.011 820.586 298.704 820.586 298.325V290.991C820.586 290.613 821.032 290.305 821.582 290.305H845.192C845.742 290.305 846.189 290.613 846.189 290.991V298.325C846.189 298.704 845.742 299.011 845.192 299.011Z" fill="#E2F4FD"/>
<path d="M901.156 437.943H770.711C769.809 437.943 769.079 437.44 769.079 436.82V376.605C769.079 375.984 769.809 375.482 770.711 375.482H901.156C902.056 375.482 902.787 375.984 902.787 376.605V436.82C902.787 437.44 902.056 437.943 901.156 437.943Z" fill="white"/>
<path d="M845.192 380.358H821.582C821.032 380.358 820.586 380.051 820.586 379.671V372.337C820.586 371.958 821.032 371.651 821.582 371.651H845.192C845.742 371.651 846.189 371.958 846.189 372.337V379.671C846.189 380.051 845.742 380.358 845.192 380.358Z" fill="#E2F4FD"/>
<path d="M765.888 54.663V310.489C765.888 315.292 760.234 319.187 753.262 319.187H237.379C231.186 319.187 226.035 316.118 224.962 312.065C224.826 311.556 224.753 311.027 224.753 310.489V54.663C224.753 49.8598 230.407 45.965 237.379 45.965H753.262C756.456 45.965 759.376 46.7834 761.595 48.1358C764.228 49.7222 765.888 52.059 765.888 54.663Z" fill="#D8E9F7"/>
<path d="M405.796 277.17H337.131C348.229 271.827 359.127 265.977 370.347 259.55H380.019C380.273 259.55 380.481 259.408 380.481 259.232V253.646C389.01 248.599 397.801 243.224 407.07 237.486V276.293C407.07 276.777 406.5 277.17 405.796 277.17L405.796 277.17Z" fill="#4B8BC9"/>
<path d="M705.186 106.067H449.914C449.69 106.067 449.508 105.942 449.508 105.787V100.576C449.508 100.421 449.69 100.296 449.914 100.296H705.186C705.41 100.296 705.593 100.421 705.593 100.576V105.787C705.593 105.942 705.41 106.067 705.186 106.067Z" fill="#457FC2"/>
<path d="M672.757 130.865H588.808C592.422 128.957 596.09 127.033 599.814 125.093H672.757C672.981 125.093 673.163 125.219 673.163 125.373V130.585C673.163 130.739 672.981 130.865 672.757 130.865H672.757Z" fill="#7AB5E2"/>
<path d="M647.479 156.77H540.813C544.216 154.87 547.683 152.946 551.215 150.999H647.479C647.703 150.999 647.885 151.125 647.885 151.279V156.49C647.885 156.644 647.703 156.77 647.479 156.77H647.479Z" fill="#9BC8EB"/>
<path d="M709.856 214.125H454.606C454.376 214.125 454.189 213.996 454.189 213.837V208.642C454.189 208.483 454.376 208.354 454.606 208.354H709.856C710.086 208.354 710.273 208.483 710.273 208.642V213.837C710.273 213.996 710.086 214.125 709.856 214.125Z" fill="#457FC2"/>
<path d="M677.546 238.822H591.5C588.843 238.234 587.338 237.847 587.338 237.847L587.206 238.822H454.606C454.376 238.822 454.189 238.692 454.189 238.534V233.339C454.189 233.18 454.376 233.051 454.606 233.051H677.546C677.777 233.051 677.963 233.18 677.963 233.339V238.534C677.963 238.692 677.777 238.822 677.546 238.822H677.546Z" fill="#62A4D9"/>
<path d="M652.416 264.828H454.606C454.376 264.828 454.189 264.699 454.189 264.54V259.345C454.189 259.186 454.376 259.057 454.606 259.057H604.869C615.479 261.062 630.331 262.878 649.309 262.878C650.47 262.878 651.642 262.87 652.833 262.856V264.54C652.833 264.699 652.646 264.828 652.416 264.828H652.416Z" fill="#7FB8E4"/>
<path d="M323.093 259.89H304.817C304.561 259.89 304.354 259.747 304.354 259.571V228.833C304.354 228.657 304.561 228.515 304.817 228.515H323.093C323.347 228.515 323.555 228.657 323.555 228.833V259.571C323.555 259.747 323.347 259.89 323.093 259.89Z" fill="white"/>
<path d="M351.186 259.854H332.91C332.655 259.854 332.448 259.711 332.448 259.536V218.955C332.448 218.778 332.655 218.636 332.91 218.636H351.186C351.441 218.636 351.647 218.778 351.647 218.955V259.536C351.647 259.711 351.441 259.854 351.186 259.854Z" fill="white"/>
<path d="M379.281 259.5H361.005C360.749 259.5 360.543 259.358 360.543 259.182V239.518C360.543 239.342 360.749 239.199 361.005 239.199H379.281C379.535 239.199 379.743 239.342 379.743 239.518V259.182C379.743 259.358 379.535 259.5 379.281 259.5Z" fill="white"/>
<path d="M267.051 302.766C267.56 278.344 267.735 258.87 267.773 244.682C271.49 243.086 274.704 241.489 277.241 240.242C277.241 240.242 271.87 227.967 269.544 193.24C273.327 195.677 277.739 197.52 282.747 199.133C283.899 199.504 285.187 199.832 286.584 200.12H280.298C279.593 200.12 279.023 200.514 279.023 200.998V276.321C279.023 276.805 279.593 277.198 280.298 277.198H336.528C315.302 287.416 293.357 295.776 267.051 302.766L267.051 302.766ZM406.467 237.514V200.998C406.467 200.514 405.897 200.12 405.193 200.12H341.291V182.22L309.33 181.361C300.014 181.109 292.44 176.111 291.696 169.709C291.321 166.486 290.855 162.573 290.292 157.979C302.925 168.364 321.884 174.978 343.045 174.978C380.984 174.978 411.852 153.713 411.852 127.577C411.852 101.44 380.984 80.176 343.045 80.176V95.0149C369.108 95.0149 390.313 109.623 390.313 127.577C390.313 145.531 369.108 160.139 343.045 160.139C316.981 160.139 295.776 145.531 295.776 127.577C295.776 109.623 316.981 95.0149 343.045 95.0149V80.176C311.027 80.176 284.048 95.3186 276.403 115.753C267.759 108.154 256.854 105.834 253.211 105.246C247.326 103.015 240.108 102.294 232.158 100.503C230.166 100.053 232.612 97.3344 230.445 96.7555L226.836 96.5977C225.25 93.9828 224.798 91.0128 224.753 88.6612V87.818C224.792 85.8096 225.097 84.426 225.097 84.426L224.753 84.4022V72.2075H309.054C312.373 72.2075 315.063 70.3533 315.063 68.0677V45.965H668.804V90.6201C661.996 93.8993 655.324 97.1519 648.786 100.373H449.954C449.73 100.373 449.548 100.498 449.548 100.653V105.864C449.548 106.019 449.73 106.143 449.954 106.143H637.15C624.211 112.604 611.814 118.935 599.974 125.104H449.954C449.73 125.104 449.548 125.229 449.548 125.384V130.595C449.548 130.749 449.73 130.875 449.954 130.875H588.967C575.766 137.841 563.289 144.584 551.523 151.071H449.955C449.731 151.071 449.548 151.197 449.548 151.351V156.562C449.548 156.716 449.731 156.842 449.955 156.842H541.121C530.986 162.5 521.423 167.939 512.423 173.137C468.334 198.601 435.123 219.778 406.469 237.514L406.467 237.514Z" fill="#E1EEFA"/>
<path d="M337.277 277.167H281.046C280.342 277.167 279.771 276.774 279.771 276.29V200.967C279.771 200.482 280.342 200.089 281.046 200.089H287.333C294.433 201.554 304.358 201.999 313.81 201.999C328.498 201.999 342.039 200.924 342.039 200.924V200.089H405.941C406.646 200.089 407.216 200.482 407.216 200.967V237.483C397.946 243.221 389.156 248.597 380.626 253.643V239.565C380.626 239.388 380.419 239.246 380.164 239.246H361.888C361.633 239.246 361.426 239.388 361.426 239.565V259.229C361.426 259.405 361.633 259.547 361.888 259.547H370.492C359.273 265.974 348.375 271.824 337.277 277.167L337.277 277.167ZM333.312 218.637C333.056 218.637 332.849 218.78 332.849 218.956V259.537C332.849 259.712 333.056 259.856 333.312 259.856H351.588C351.842 259.856 352.048 259.712 352.048 259.537V218.956C352.048 218.78 351.842 218.637 351.588 218.637H333.312ZM305.627 228.48C305.372 228.48 305.165 228.623 305.165 228.799V259.537C305.165 259.712 305.372 259.856 305.627 259.856H323.903C324.158 259.856 324.365 259.712 324.365 259.537V228.799C324.365 228.623 324.158 228.48 323.903 228.48H305.627Z" fill="#65A7DB"/>
<path d="M342.901 174.938C321.741 174.938 302.781 168.324 290.149 157.939C289.435 152.107 288.561 145.178 287.513 137.167C286.229 127.346 281.69 120.487 276.26 115.714C283.905 95.2789 310.885 80.1362 342.901 80.1362V94.9751C316.838 94.9751 295.633 109.583 295.633 127.537C295.633 145.491 316.838 160.099 342.901 160.099C368.965 160.099 390.17 145.491 390.17 127.537H411.709C411.709 153.674 380.841 174.938 342.901 174.938L342.901 174.938Z" fill="#64A6DB"/>
<path d="M411.791 127.537H390.252C390.252 109.583 369.047 94.9751 342.983 94.9751V80.1362C380.923 80.1362 411.791 101.4 411.791 127.538L411.791 127.537Z" fill="#9CCAED"/>
<path d="M637.11 106.067H449.914C449.69 106.067 449.508 105.942 449.508 105.787V100.576C449.508 100.421 449.69 100.296 449.914 100.296H648.745C644.818 102.231 640.941 104.155 637.11 106.067H637.11Z" fill="#5B9DD5"/>
<path d="M588.927 130.865H449.914C449.69 130.865 449.508 130.739 449.508 130.585V125.373C449.508 125.219 449.69 125.093 449.914 125.093H599.934C596.21 127.033 592.542 128.957 588.927 130.865H588.927Z" fill="#95C5EA"/>
<path d="M541.081 156.77H449.914C449.69 156.77 449.508 156.644 449.508 156.49V151.279C449.508 151.125 449.69 150.999 449.914 150.999H551.483C547.951 152.946 544.484 154.87 541.081 156.77H541.081Z" fill="#B1D5F1"/>
<path d="M323.093 259.89H304.817C304.561 259.89 304.354 259.747 304.354 259.571V228.833C304.354 228.657 304.561 228.515 304.817 228.515H323.093C323.347 228.515 323.555 228.657 323.555 228.833V259.571C323.555 259.747 323.347 259.89 323.093 259.89Z" fill="white"/>
<path d="M351.186 259.854H332.91C332.655 259.854 332.448 259.711 332.448 259.536V218.955C332.448 218.778 332.655 218.636 332.91 218.636H351.186C351.441 218.636 351.647 218.778 351.647 218.955V259.536C351.647 259.711 351.441 259.854 351.186 259.854Z" fill="white"/>
<path d="M369.609 259.5H361.005C360.749 259.5 360.543 259.358 360.543 259.182V239.518C360.543 239.342 360.749 239.199 361.005 239.199H379.281C379.535 239.199 379.743 239.342 379.743 239.518V253.596C376.328 255.616 372.952 257.585 369.609 259.5Z" fill="white"/>
<path d="M865.429 379.524V448.274H703.525V379.524C703.525 376.292 704.25 373.175 705.594 370.248C705.672 370.07 705.758 369.891 705.843 369.716C711.79 357.539 728.494 348.769 748.17 348.769H820.784C830.297 348.769 839.112 350.817 846.356 354.313C846.566 354.411 846.778 354.518 846.984 354.623C858.164 360.211 865.43 369.283 865.43 379.524L865.429 379.524Z" fill="#465A99"/>
<path d="M720.644 385.305C717.398 385.305 714.171 385.158 711.06 384.916C708.525 384.718 706.012 384.435 703.525 384.066V383.513C708.139 384.198 712.848 384.595 717.589 384.686C718.493 384.704 719.407 384.714 720.324 384.714C728.993 384.714 738.121 383.831 745.345 380.407C752.763 376.886 757.625 371.419 761.53 365.955C765.531 360.36 769.201 354.008 774.578 348.769H775.534C773.409 350.749 771.567 352.885 769.937 355.046C762.144 365.372 756.572 378.694 739.181 383.236C733.398 384.744 726.982 385.305 720.644 385.305V385.305Z" fill="#8492BB"/>
<path d="M733.675 448.343H732.791C737.999 441.451 743.999 434.858 752.13 429.405C756.998 426.142 762.553 423.376 768.733 421.423C775.596 419.25 782.983 417.997 790.341 416.907C801.433 415.26 812.819 414.088 824.195 414.088C828.73 414.088 833.262 414.274 837.775 414.691C846.998 415.543 856.278 417.581 864.553 420.734V421.273C852.148 416.421 838.218 414.622 824.079 414.622C810.472 414.622 796.674 416.286 783.844 418.499C776.755 419.721 769.76 421.324 763.491 423.96C757.596 426.441 752.421 429.678 747.94 433.287C742.246 437.872 737.712 443.014 733.675 448.343H733.675Z" fill="#8492BB"/>
<path d="M769.983 448.308H769.079C771.703 445.497 774.994 443.034 779.253 441.23C788.014 437.526 799.279 436.24 809.359 435.573C812.525 435.364 815.711 435.256 818.895 435.256C826.522 435.256 834.147 435.873 841.533 437.184C849.666 438.631 857.464 440.953 864.501 444.065V444.695C864.22 444.565 863.941 444.444 863.659 444.32C850.188 438.475 834.469 435.814 818.682 435.814C815.087 435.814 811.49 435.952 807.914 436.221C797.936 436.976 786.496 438.35 778.116 442.396C774.809 443.993 772.157 446.03 769.984 448.308H769.983Z" fill="#8492BB"/>
<path d="M858.901 401.296C848.565 401.297 838.15 399.902 828.405 397.713C818.097 395.395 808.108 391.677 801.717 385.462C795.352 379.274 794.622 372.206 797.961 365.12C800.538 359.646 804.733 354.394 806.49 348.769H807.293C805.595 354.266 801.59 359.409 798.981 364.738C795.442 371.961 795.992 379.11 802.642 385.415C809.484 391.899 820.31 395.518 831.21 397.739C840.213 399.569 849.65 400.745 859.073 400.745C861.224 400.745 863.372 400.685 865.516 400.555V401.099C863.32 401.233 861.112 401.296 858.901 401.296Z" fill="#8492BB"/>
<path d="M864.692 387.325C861.527 387.252 858.411 387.03 855.538 386.841C847.982 386.345 839.66 386.035 835.861 380.819C829.115 371.558 837.95 362.266 845.618 354.313C845.828 354.412 846.04 354.518 846.246 354.624C839.125 361.943 831.162 370.147 835.59 378.957C837.073 381.895 839.85 384.212 844.283 385.098C848.21 385.882 852.485 386.115 856.538 386.359C859.11 386.512 861.881 386.694 864.692 386.764V387.325V387.325Z" fill="#8492BB"/>
<path d="M702.756 397.837C702.404 397.837 702.171 397.475 702.548 397.326C702.787 397.232 703.03 397.14 703.274 397.053V397.68C703.162 397.716 703.057 397.76 702.951 397.8C702.884 397.825 702.819 397.837 702.756 397.837Z" fill="#FAFDFF"/>
<path d="M703.525 446.047V445.431C704.145 445.22 704.763 445.005 705.377 444.789C715.175 441.341 724.949 437.241 732.535 431.672C736.53 428.741 739.72 425.362 742.584 421.871C745.181 418.699 748.561 415.201 749.679 411.603C752.027 404.062 739.457 398.208 730.525 396.204C726.904 395.391 723.125 394.972 719.361 394.972C713.87 394.972 708.413 395.863 703.525 397.723V397.096C708.435 395.294 713.885 394.432 719.355 394.432C724.496 394.432 729.657 395.194 734.409 396.651C742.726 399.203 752.858 404.995 750.339 412.044C748.933 415.988 745.26 419.819 742.319 423.289C739.192 426.973 735.609 430.443 731.155 433.421C723.218 438.717 713.466 442.705 703.525 446.047Z" fill="#8492BB"/>
<path d="M703.525 428.123V427.43C705.345 426.654 707.112 425.833 708.778 424.944C713.815 422.265 716.113 417.422 715.974 413.091C715.866 409.827 712.757 408.61 709.139 408.61C707.289 408.61 705.307 408.928 703.525 409.454V408.776C705.244 408.258 707.12 407.939 708.942 407.939C710.989 407.939 712.968 408.341 714.577 409.315C716.752 410.631 716.943 412.64 716.636 414.498C716.271 416.725 715.641 419.102 714.308 421.158C712.297 424.245 707.975 426.366 703.525 428.123Z" fill="#8492BB"/>
<path d="M708.776 370.382C707.415 370.382 706.053 370.338 704.696 370.248C704.775 370.07 704.86 369.891 704.945 369.716C706.221 369.797 707.504 369.836 708.784 369.836C716.338 369.836 723.887 368.451 730.473 365.802C740.236 361.876 745.786 355.589 750.082 348.769H750.939C746.548 355.775 740.881 362.245 730.876 366.272C724.178 368.967 716.477 370.382 708.776 370.382Z" fill="#8492BB"/>
<path d="M791.077 210.078C790.183 212.071 782.301 217.651 774.778 218.652C762.008 220.349 757.166 216.163 755.593 213.498C754.311 211.323 755.308 211.091 757.755 209.479C759.385 208.406 760.515 206.988 761.288 205.455C763.698 200.581 762.489 194.503 762.489 194.503L786.46 192.831C786.46 192.831 786.33 196.35 786.871 200.591C786.952 201.167 787.034 201.766 787.137 202.375C787.975 207.365 791.077 210.078 791.077 210.078Z" fill="#FBCBBC"/>
<path d="M766.738 194.273V194.272L787.392 192.831V192.832L766.738 194.273Z" fill="#DFBCB3"/>
<path d="M760.925 206.526H760.885C764.225 201.305 762.721 194.474 762.721 194.474L766.039 194.242V194.243L762.76 194.472C762.76 194.472 763.969 200.549 761.56 205.424C761.37 205.799 761.159 206.168 760.925 206.526Z" fill="#D0B4B3"/>
<path d="M786.896 199.675C786.764 198.468 786.685 197.339 786.639 196.359C786.701 197.297 786.802 198.4 786.962 199.647C786.94 199.656 786.917 199.666 786.896 199.675Z" fill="#DFBCB3"/>
<path d="M770.48 206.554H760.885C761.119 206.197 761.33 205.828 761.52 205.453C763.929 200.578 762.72 194.5 762.72 194.5L765.999 194.272L786.652 192.831C786.65 192.874 786.59 194.159 786.74 196.371C786.787 197.351 786.866 198.479 786.997 199.687C783.81 201.07 777.657 204.58 770.48 206.554Z" fill="#E4A793"/>
<path d="M664.589 429.748L664.541 443.514L612.157 443.429C609.6 443.424 607.53 441.993 607.537 440.231C607.542 438.652 609.222 437.314 611.489 437.083L630.654 435.124L642.406 429.712L664.589 429.748H664.589Z" fill="#457FC2"/>
<path d="M771.143 312.328C622.493 308.942 633.702 294.981 639.835 430.884L666.723 430.928C666.723 430.928 687.8 379.501 686.047 357.607C699.529 356.3 715.686 355.586 730.392 355.913C764.875 356.681 780.058 339.907 777.585 321.083C776.917 315.992 775.05 312.417 771.143 312.328H771.143Z" fill="#1C2353"/>
<path d="M714.597 317.723C714.597 317.723 686.428 320.093 685.967 357.645H693.939L714.597 317.723Z" fill="#272727"/>
<path d="M587.271 252.261C587.271 252.261 562.401 251.521 550.669 244.073C545.577 240.842 552.563 234.093 566.557 238.629C576.109 241.725 577.445 240.941 574.563 238.629C569.777 234.791 576.029 235.355 589.766 241.034L587.271 252.261H587.271Z" fill="#FBCBBC"/>
<path d="M774.963 222.949C774.963 222.949 774.205 253.727 675.897 261.774C616.185 266.661 585.296 253.843 585.296 253.843L587.468 237.894C587.468 237.894 631.916 249.291 664.348 242.623C676.854 240.052 682.692 239.087 709.787 224.914C736.882 210.742 763.63 211.984 774.963 222.949L774.963 222.949Z" fill="#457FC2"/>
<path d="M826.66 293.996C828.478 307.212 828.126 317.801 828.126 317.801C828.126 317.801 800.699 335.946 757.257 335.744C741.887 335.683 726.458 324.468 718.743 320.67C719.095 320.67 723.525 319.194 721.412 247.015C721.647 210.743 733.673 216.563 755.644 211.592V208.419C755.644 207.389 756.847 206.54 758.343 206.54H789.318C790.814 206.54 792.047 207.389 792.047 208.419V210.076C793.162 210.299 799.615 211.652 816.745 215.432C842.498 221.129 823.872 273.871 826.66 293.996L826.66 293.996Z" fill="#457FC2"/>
<path d="M715.231 256.54L722.587 233.151C722.004 236.924 721.691 241.494 721.655 247.055C721.738 249.853 721.81 252.547 721.872 255.137L715.231 256.54V256.54Z" fill="#1769B3"/>
<path d="M721.302 255.073C721.239 252.484 721.167 249.79 721.085 246.992C721.121 241.431 721.434 236.861 722.017 233.088L722.029 233.051L721.305 255.074H721.302V255.073Z" fill="#1769B3"/>
<path d="M783.481 290.683L743.326 270.738C744.361 270.805 745.396 270.838 746.428 270.838C757.754 270.837 768.638 267.04 772.713 264.725C777.158 262.199 791.408 240.913 791.408 240.913L829.668 257.001L828.415 267.464C812.296 285.696 783.481 290.683 783.481 290.683V290.683Z" fill="#1769B3"/>
<path d="M685.891 276.818C685.891 276.818 661.115 275.159 649.979 267.288C645.147 263.873 652.648 257.393 666.269 262.44C675.566 265.885 676.962 265.151 674.263 262.736C669.783 258.726 675.983 259.521 689.257 265.7L685.891 276.818Z" fill="#FBCBBC"/>
<path d="M811.051 217.176C824.908 213.29 839.656 221.814 837.154 231.975C834.24 243.815 829.651 289.104 774.648 291.552C714.641 294.225 684.796 278.262 684.796 278.262L688.208 262.417C688.208 262.417 731.294 274.102 764.608 269.983C779.778 268.107 780.902 262.701 791.619 240.939C797.994 227.993 799.309 220.468 811.051 217.175L811.051 217.176Z" fill="#457FC2"/>
<path d="M717.267 434.385L717.22 448.151L664.835 448.066C662.278 448.061 660.21 446.63 660.215 444.868C660.22 443.289 661.901 441.951 664.167 441.719L683.332 439.76L695.085 434.349L717.267 434.385H717.267Z" fill="#457FC2"/>
<path d="M828.027 316.617C679.377 313.231 685.819 299.621 691.952 435.524L718.842 435.568C718.842 435.568 739.917 384.141 738.166 362.247C751.647 360.94 767.805 360.226 782.51 360.553C816.993 361.321 832.365 346.46 829.893 327.637C829.225 322.546 830.117 319.476 828.027 316.618L828.027 316.617Z" fill="#1C2353"/>
<path d="M755.417 174.119L752.362 189.359C752.362 189.359 748.695 176.251 751.261 171.536C753.828 166.821 755.417 174.119 755.417 174.119Z" fill="#373362"/>
<path d="M790.446 189.933C790.446 189.933 795.746 188.019 794.096 169.949H786.639L790.446 189.933Z" fill="#373362"/>
<path d="M771.636 202.909C764.657 202.909 758.56 200.309 755.273 196.439C753.632 194.507 752.691 192.259 752.691 189.859V171.462H790.58V189.859C790.58 197.067 782.098 202.909 771.636 202.909H771.636Z" fill="#FBCBBC"/>
<path d="M795.226 184.802C795.226 187.104 792.518 188.97 789.176 188.97C785.835 188.97 783.127 187.104 783.127 184.802C783.127 182.5 785.835 180.634 789.176 180.634C792.518 180.634 795.226 182.5 795.226 184.802Z" fill="#FBCBBC"/>
<path d="M760.109 184.802C760.109 187.104 757.4 188.97 754.06 188.97C750.718 188.97 748.009 187.104 748.009 184.802C748.009 182.5 750.718 180.634 754.06 180.634C757.4 180.634 760.109 182.5 760.109 184.802Z" fill="#FBCBBC"/>
<path d="M794.835 174.898C794.835 174.898 782.357 178.362 770.859 172.906C770.859 172.906 762.741 177.271 752.998 172.906C752.998 172.906 748.28 171.269 749.332 165.267C750.384 159.266 760.17 159.994 760.82 162.176C760.82 162.176 762.231 156.538 773.071 157.084C783.911 157.629 783.615 162.904 783.615 162.904C783.615 162.904 791.462 162.549 794.721 164.541C797.565 166.279 800.42 168.541 794.835 174.898Z" fill="#373362"/>
<path d="M954.991 33.1945V115.116C954.991 118.362 951.175 120.991 946.463 120.991H678.105C675.775 120.991 673.671 120.349 672.133 119.31C670.556 118.243 669.578 116.757 669.578 115.116V33.1945C669.578 29.9492 673.399 27.3169 678.105 27.3169H946.463C951.175 27.3169 954.991 29.9492 954.991 33.1945Z" fill="#FDD20B"/>
<path d="M720.019 101.762H698.135C697.879 101.762 697.673 101.619 697.673 101.444V64.0243C697.673 63.8482 697.879 63.7059 698.135 63.7059H720.019C720.275 63.7059 720.481 63.8482 720.481 64.0243V101.444C720.481 101.619 720.275 101.762 720.019 101.762Z" fill="white"/>
<path d="M752.797 101.706H730.911C730.657 101.706 730.449 101.563 730.449 101.387V52.0291C730.449 51.8529 730.657 51.7107 730.911 51.7107H752.797C753.051 51.7107 753.259 51.8529 753.259 52.0291V101.387C753.259 101.563 753.051 101.706 752.797 101.706Z" fill="white"/>
<path d="M786.743 101.333H764.859C764.604 101.333 764.396 101.191 764.396 101.015V77.0276C764.396 76.8514 764.604 76.7092 764.859 76.7092H786.743C786.998 76.7092 787.205 76.8514 787.205 77.0276V101.015C787.205 101.191 786.998 101.333 786.743 101.333Z" fill="white"/>
<path d="M826.544 102.467H804.659C804.404 102.467 804.197 102.325 804.197 102.149V64.7298C804.197 64.5537 804.404 64.4115 804.659 64.4115H826.544C826.798 64.4115 827.006 64.5537 827.006 64.7298V102.149C827.006 102.325 826.798 102.467 826.544 102.467Z" fill="white"/>
<path d="M859.321 102.512H837.437C837.181 102.512 836.975 102.37 836.975 102.194V52.8353C836.975 52.6601 837.181 52.517 837.437 52.517H859.321C859.577 52.517 859.783 52.6601 859.783 52.8353V102.194C859.783 102.37 859.577 102.512 859.321 102.512Z" fill="white"/>
<path d="M893.267 102.14H871.383C871.127 102.14 870.921 101.997 870.921 101.822V77.8339C870.921 77.6587 871.127 77.5155 871.383 77.5155H893.267C893.521 77.5155 893.729 77.6587 893.729 77.8339V101.822C893.729 101.997 893.521 102.14 893.267 102.14Z" fill="white"/>
<path d="M930.726 102.106H908.842C908.586 102.106 908.38 101.963 908.38 101.788V64.8306C908.38 64.6544 908.586 64.5122 908.842 64.5122H930.726C930.982 64.5122 931.188 64.6544 931.188 64.8306V101.788C931.188 101.963 930.982 102.106 930.726 102.106Z" fill="white"/>
<path d="M672.133 119.31C670.556 118.243 669.578 116.757 669.578 115.116V33.1945C669.578 29.9492 673.399 27.3169 678.105 27.3169H946.463C951.175 27.3169 954.991 29.9492 954.991 33.1945V38.8784C944.165 42.03 935.685 44.233 932.507 45.0588C898.244 53.9613 878.227 55.7404 859.935 57.0166V52.786C859.935 52.6107 859.728 52.4676 859.473 52.4676H837.589C837.333 52.4676 837.127 52.6107 837.127 52.786V58.8214C825.35 60.0609 812.243 62.1611 794.832 66.6963C778.868 70.8526 765.61 75.4072 754.224 80.0671V52.0575C754.224 51.8813 754.016 51.7391 753.762 51.7391H731.877C731.622 51.7391 731.414 51.8813 731.414 52.0575V90.6047C727.881 92.4223 724.542 94.2197 721.336 95.9849V63.996C721.336 63.8199 721.13 63.6776 720.874 63.6776H698.99C698.734 63.6776 698.528 63.8199 698.528 63.996V101.416C698.528 101.591 698.734 101.734 698.99 101.734H711.078C697.895 109.171 686.386 115.542 672.133 119.31L672.133 119.31Z" fill="#FDD826"/>
<path d="M710.223 101.762H698.135C697.879 101.762 697.673 101.619 697.673 101.444V64.0243C697.673 63.8482 697.879 63.7059 698.135 63.7059H720.019C720.275 63.7059 720.481 63.8482 720.481 64.0243V96.0133C716.913 97.9795 713.514 99.9053 710.223 101.762V101.762Z" fill="white"/>
<path d="M730.449 90.5763V52.0291C730.449 51.8529 730.657 51.7107 730.911 51.7107H752.797C753.051 51.7107 753.259 51.8529 753.259 52.0291V80.0388C744.724 83.5327 737.236 87.0871 730.449 90.5764V90.5763Z" fill="white"/>
<path d="M836.975 58.8707V52.8353C836.975 52.6601 837.181 52.517 837.437 52.517H859.321C859.577 52.517 859.783 52.6601 859.783 52.8353V57.066C852.182 57.5963 844.877 58.0395 836.975 58.8707Z" fill="white"/>
<path d="M982.52 36.1213C982.52 47.9975 968.543 57.6258 951.304 57.6258C934.063 57.6258 920.086 47.9975 920.086 36.1213C920.086 24.2442 934.063 14.6161 951.304 14.6161C968.543 14.6161 982.52 24.2442 982.52 36.1213Z" fill="#457FC2"/>
<path d="M947.779 43.0993C946.976 43.0993 946.178 42.8865 945.578 42.4718L937.387 36.8291C936.171 35.9914 936.171 34.6344 937.387 33.7976C938.601 32.9599 940.573 32.9609 941.787 33.7976L948.162 38.1897L967.459 29.1973C968.881 28.5339 970.817 28.7908 971.78 29.7716C972.743 30.7515 972.368 32.0847 970.946 32.748L949.521 42.7314C948.991 42.9791 948.383 43.0993 947.779 43.0993Z" fill="white"/>
<path d="M315.568 4.13982V68.0276C315.568 70.3132 312.878 72.1675 309.559 72.1675H46.9801C45.0276 72.1675 43.2895 71.5252 42.196 70.5297C41.4262 69.8342 40.9707 68.9681 40.9707 68.0276V4.13982C40.9707 1.85366 43.6611 0 46.9801 0H309.559C310.193 0 310.806 0.0684618 311.376 0.191026C313.81 0.72484 315.568 2.28983 315.568 4.13982Z" fill="#22BCB6"/>
<path d="M293.871 26.9843H137.189C137.063 26.9843 136.959 26.9136 136.959 26.8255V24.9565C136.959 24.8685 137.063 24.7969 137.189 24.7969H293.871C293.999 24.7969 294.102 24.8685 294.102 24.9565V26.8255C294.102 26.9136 293.999 26.9843 293.871 26.9843Z" fill="white"/>
<path d="M285.167 38.676H160.371C162.798 37.9558 165.261 37.2245 167.766 36.4896H285.166C285.293 36.4896 285.397 36.5603 285.397 36.6484V38.5173C285.397 38.6054 285.293 38.676 285.166 38.676H285.167Z" fill="#A2DADC"/>
<path d="M280.643 51.3771H137.189C137.062 51.3771 136.959 51.3064 136.959 51.2183V49.3494C136.959 49.2613 137.062 49.1907 137.189 49.1907H280.643C280.769 49.1907 280.873 49.2613 280.873 49.3494V51.2183C280.873 51.3064 280.769 51.3771 280.643 51.3771Z" fill="#78CDCD"/>
<path d="M95.9883 58.2968C101.751 56.6196 107.725 54.824 113.965 52.9202C109.138 55.9599 102.883 57.9325 95.9883 58.2968Z" fill="#E5F4F5"/>
<path d="M235.29 434.047V448.228H289.252C291.887 448.228 294.023 446.756 294.023 444.941C294.023 443.315 292.297 441.933 289.964 441.691L270.228 439.641L258.141 434.047H235.29H235.29Z" fill="#F1676F"/>
<path d="M141.642 434.047V448.228H195.604C198.238 448.228 200.375 446.756 200.375 444.941C200.375 443.315 198.65 441.933 196.315 441.691L176.579 439.641L164.493 434.047H141.642H141.642Z" fill="#F1676F"/>
<path d="M195.489 100.421C196.41 102.475 204.529 108.224 212.28 109.253C225.435 111.003 230.422 106.69 232.041 103.945C233.364 101.704 232.336 101.464 229.814 99.8054C228.135 98.6998 226.973 97.2391 226.176 95.6601C223.693 90.6376 224.938 84.3775 224.938 84.3775L200.245 82.6562C200.245 82.6562 200.379 86.2804 199.822 90.6486C199.739 91.2423 199.654 91.8588 199.547 92.4873C198.684 97.6272 195.489 100.421 195.489 100.421Z" fill="#FBCBBC"/>
<path d="M224.521 84.3545L200.172 82.6572V82.6562L224.521 84.3536V84.3545Z" fill="#DFBCB3"/>
<path d="M226.836 96.5655L226.789 96.5637C226.611 96.2729 226.444 95.9756 226.293 95.6746C225.175 93.4148 224.813 90.9036 224.753 88.8263V88.6291C224.798 90.9806 225.25 93.9506 226.836 96.5655ZM224.753 87.7859V87.4886C224.805 85.6499 225.055 84.392 225.055 84.392L224.753 84.3709V84.37L225.097 84.3938C225.097 84.3938 224.792 85.7774 224.753 87.7859Z" fill="#D5B7B3"/>
<path d="M200.241 89.6965C200.219 89.6864 200.195 89.6763 200.172 89.6662C200.336 88.3844 200.44 87.2495 200.505 86.2852C200.457 87.2926 200.376 88.4532 200.241 89.6965Z" fill="#DFBCB3"/>
<path d="M226.913 96.5464L214.601 96.0078C208.33 93.9306 203.065 90.9725 200.172 89.7183C200.306 88.4751 200.388 87.3144 200.436 86.307C200.591 84.0261 200.529 82.7012 200.527 82.6562L224.877 84.3536L225.179 84.3747C225.179 84.3747 224.929 85.6326 224.877 87.4713C224.865 87.8897 224.862 88.3384 224.877 88.809C224.937 90.8863 225.299 93.3975 226.416 95.6573C226.568 95.9583 226.735 96.2556 226.913 96.5464Z" fill="#E4A793"/>
<path d="M234.118 63.4656L237.265 79.1642C237.265 79.1642 241.043 65.6612 238.399 60.804C235.755 55.9467 234.118 63.4656 234.118 63.4656Z" fill="#1C2353"/>
<path d="M198.407 79.7551C198.407 79.7551 192.946 77.7834 194.647 59.1699H202.329L198.407 79.7551Z" fill="#1C2353"/>
<path d="M236.87 60.7827V79.7247C236.87 87.1556 228.137 93.1717 217.35 93.1717C206.563 93.1717 197.83 87.1556 197.83 79.7247V60.7827H236.87H236.87Z" fill="#FBCBBC"/>
<path d="M193.148 74.45C193.148 76.8208 195.939 78.743 199.38 78.743C202.823 78.743 205.613 76.8208 205.613 74.45C205.613 72.0782 202.823 70.157 199.38 70.157C195.939 70.157 193.148 72.0782 193.148 74.45Z" fill="#FBCBBC"/>
<path d="M229.436 74.45C229.436 76.8208 232.226 78.743 235.669 78.743C239.11 78.743 241.901 76.8208 241.901 74.45C241.901 72.0782 239.11 70.157 235.669 70.157C232.226 70.157 229.436 72.0782 229.436 74.45Z" fill="#FBCBBC"/>
<path d="M240.174 59.7833C239.025 61.6779 237.213 62.3018 237.213 62.3018C236.579 62.5725 235.974 62.823 235.369 63.0303C226.184 66.2572 218.812 62.3018 218.812 62.3018C211.741 65.6535 204.277 65.737 199.442 65.2581C198.989 65.2168 198.566 65.1544 198.173 65.1122C195.665 64.8002 194.093 64.3626 194.093 64.3626C188.353 57.8061 191.283 55.4746 194.215 53.6846C197.568 51.645 205.667 51.9982 205.667 51.9982C205.667 51.9982 205.546 50.0834 207.812 48.4181C209.353 47.2731 211.982 46.2326 216.514 46.0032C227.695 45.4417 229.144 51.2486 229.144 51.2486C229.81 49.0007 239.902 48.252 240.99 54.4342C241.414 56.8482 240.93 58.5759 240.174 59.7833Z" fill="#1C2353"/>
<path d="M240.174 59.7493C239.025 61.644 237.213 62.2679 237.213 62.2679V79.1739C237.213 86.5396 228.967 92.9585 218.279 93.1732C207.224 93.3962 198.173 87.2975 198.173 79.7326V65.0782C195.665 64.7662 194.093 64.3286 194.093 64.3286C188.353 57.7721 191.283 55.4407 194.215 53.6507C197.568 51.611 205.667 51.9643 205.667 51.9643C205.667 51.9643 205.546 50.0494 207.812 48.3842L201.648 60.7907L199.442 65.2241C199.442 65.2241 199.109 76.5039 202.101 79.7326C207.964 86.0579 215.192 85.9863 226.563 84.3367C231.747 83.5843 235.369 80.3281 235.369 76.6791V59.1667L240.174 59.7493Z" fill="#1C2353"/>
<path d="M267.583 216.822C267.583 216.822 269.094 295.228 262.296 435.213H234.597C234.597 435.213 212.45 371.204 214.332 348.654C216.216 326.103 214.219 216.822 214.219 216.822H267.583L267.583 216.822Z" fill="#1C2353"/>
<path d="M235.312 216.822C235.312 216.822 219.702 303.554 211.139 327.491C202.578 351.429 171.354 435.212 171.354 435.212H141.642C141.642 435.212 146.708 365.19 158.795 327.723C165.594 290.253 166.217 252.326 175.977 216.822H235.312H235.312Z" fill="#1C2353"/>
<path d="M215.39 336.341V312.321C215.39 312.266 215.39 312.214 215.391 312.159C218.887 298.482 222.795 280.192 226.202 263.291H234.878L215.39 336.341V336.341Z" fill="#1A243B"/>
<path d="M215.39 312.16L226.202 263.291C222.795 280.192 218.887 298.482 215.391 312.159C215.39 312.162 215.391 312.158 215.39 312.161" fill="#1A243B"/>
<path d="M335.96 197.582C335.96 197.582 360.946 201.555 375.565 196.381C381.908 194.136 377.665 186.113 361.962 187.969C351.245 189.236 350.23 188.203 354.014 186.454C360.296 183.549 353.863 182.926 337.96 185.964L335.96 197.582H335.96Z" fill="#FBCBBC"/>
<path d="M251.819 105.034C251.819 105.034 283.736 108.289 287.512 137.17C289.386 151.49 290.7 162.356 291.552 169.673C292.296 176.074 299.87 181.073 309.186 181.324L341.147 182.184V200.918C341.147 200.918 298.716 204.288 282.603 199.096C266.488 193.904 256.541 186.346 253.897 164.23C251.253 142.113 246.342 118.174 251.819 105.034L251.819 105.034Z" fill="#F1676F"/>
<path d="M277.94 240.209C277.94 240.209 267.238 215.753 269.505 138.215C269.275 102.543 253.552 105.134 232.857 100.47C230.865 100.021 233.312 97.3021 231.145 96.7231L200.009 95.3606C198.519 95.2955 197.294 96.157 197.435 97.1801C197.559 98.0792 197.507 99.1032 196.893 99.8252C196.171 100.674 182.559 103.2 171.301 105.691C144.774 111.558 170.56 166.407 167.69 187.143C165.804 200.77 159.775 235.724 159.775 235.724C159.775 235.724 194.834 251.694 239.598 251.487C255.457 251.414 270.009 244.112 277.94 240.21L277.94 240.209Z" fill="#F1676F"/>
<path d="M152.177 240.607C152.177 240.607 154.492 258.2 166.187 266.154C171.262 269.606 181.003 264.326 173.545 254.627C168.456 248.007 169.562 247.021 173.156 248.953C179.123 252.158 177.975 247.754 168.824 238.292L152.177 240.607V240.607Z" fill="#FBCBBC"/>
<path d="M173.205 105.437C173.205 105.437 127.595 109.712 127.595 179.965C127.595 222.637 150.383 242.846 150.383 242.846L173.801 239.377C173.801 239.377 151.475 209.441 157.434 185.776C159.731 176.651 160.456 172.419 178.209 151.603C195.96 130.788 190.864 112.091 173.205 105.437L173.205 105.437Z" fill="#F1676F"/>
<path d="M166.696 178.48C166.696 178.48 166.303 175.177 165.788 171.896C166.175 174.202 166.489 176.406 166.699 178.475L166.696 178.48ZM165.059 167.858C165.058 167.849 165.056 167.842 165.054 167.834L165.055 167.833C165.056 167.841 165.058 167.85 165.059 167.858Z" fill="#B0B3B6"/>
<path d="M166.697 178.462C166.488 176.393 166.174 174.19 165.786 171.884C165.56 170.439 165.309 168.998 165.058 167.845C165.056 167.838 165.055 167.828 165.054 167.82L176.445 153.328C176.921 152.765 177.411 152.188 177.914 151.598C179.446 149.801 180.808 148.02 182.006 146.261L166.697 178.462V178.462Z" fill="#B65258"/>
<path d="M176.76 153.349L182.331 146.261L182.32 146.283C181.123 148.041 179.76 149.822 178.229 151.619C177.725 152.209 177.235 152.786 176.76 153.349Z" fill="#B65258"/>
<path d="M276.175 196.343L270.291 193.211C270.291 193.211 270.288 193.184 270.284 193.13C269.446 180.591 269.007 165.125 269.358 146.262V146.261L276.175 196.343V196.343Z" fill="#B65258"/>
<path d="M269.687 193.13C269.533 191.274 266.823 158.28 268.762 146.261C268.41 165.125 268.85 180.591 269.687 193.13Z" fill="#B65258"/>
<path d="M990.583 452H0.416754C0.186606 452 0 451.872 0 451.713V448.647C0 448.489 0.186606 448.36 0.416754 448.36H990.583C990.813 448.36 991 448.489 991 448.647V451.713C991 451.872 990.813 452 990.583 452Z" fill="#D0CFD3"/>
<path d="M42.196 70.5297C41.4262 69.8342 40.9707 68.9681 40.9707 68.0277V4.13982C40.9707 1.85366 43.6611 0 46.9801 0H309.559C310.193 0 310.806 0.0684619 311.376 0.191026C271.884 8.61879 237.686 17.1112 209.193 24.7856L136.965 24.7846C136.839 24.7846 136.735 24.8563 136.735 24.9443V26.8133C136.735 26.9014 136.839 26.972 136.965 26.972H201.136C191.852 29.5172 183.231 31.9587 175.281 34.2589C172.742 34.9947 170.245 35.7232 167.785 36.448C167.784 36.448 167.782 36.449 167.781 36.449H137.496C137.368 36.449 137.265 36.5196 137.265 36.6077V38.4766C137.265 38.5648 137.368 38.6354 137.496 38.6354H160.386C160.385 38.6363 160.384 38.6363 160.382 38.6372C142.998 43.8156 127.66 48.6188 113.662 52.8815C119.708 49.084 123.508 43.6092 123.508 37.5408C123.507 26.0857 109.978 16.7665 93.3493 16.7665L93.3506 16.7652C76.7195 16.7652 63.193 26.0875 63.193 37.5408C63.193 48.9977 76.7195 58.3196 93.3506 58.3196C94.1364 58.3196 94.9102 58.2976 95.6854 58.2581C76.312 63.8833 59.2613 68.1534 42.1958 70.5298L42.196 70.5297ZM93.3505 51.8135C81.9284 51.8135 72.6319 45.4129 72.6319 37.5407C72.6319 29.6713 81.9284 23.2706 93.3505 23.2706V23.2703C104.773 23.271 114.066 29.6722 114.066 37.5407H114.065C114.065 45.4129 104.773 51.8135 93.3505 51.8135Z" fill="#3BBFBC"/>
<path d="M201.36 26.9843H137.189C137.063 26.9843 136.959 26.9136 136.959 26.8255V24.9565C136.959 24.8685 137.063 24.7969 137.189 24.7969H209.417V24.7978C206.679 25.5337 203.997 26.2622 201.364 26.9833C201.363 26.9833 201.362 26.9833 201.36 26.9843H201.36Z" fill="white"/>
<path d="M160.08 38.676H137.189C137.062 38.676 136.959 38.6054 136.959 38.5173V36.6484C136.959 36.5603 137.062 36.4896 137.189 36.4896H167.475C164.97 37.2245 162.507 37.9558 160.08 38.676Z" fill="#AEDEE0"/>
<path d="M93.3705 58.2872C76.7394 58.2872 63.2129 48.9653 63.2129 37.5084C63.2129 26.0551 76.7394 16.7328 93.3705 16.7328V16.7341H93.3692V23.2379H93.3705V23.2383C81.9483 23.2383 72.6519 29.6389 72.6519 37.5084C72.6519 45.3806 81.9483 51.7811 93.3705 51.7811C104.793 51.7811 114.085 45.3806 114.085 37.5084H114.086V37.5102H123.528V37.5084C123.528 43.5768 119.728 49.0516 113.682 52.8491C107.442 54.7529 101.468 56.5485 95.7053 58.2257C94.9301 58.2652 94.1563 58.2872 93.3705 58.2872Z" fill="#E9F6F7"/>
<path d="M123.806 37.5071H114.364C114.364 29.6385 105.071 23.2374 93.6484 23.2366V16.7328C110.276 16.7328 123.805 26.052 123.806 37.5071Z" fill="#8FD4D5"/>
<path d="M123.807 37.5089H114.366V37.507H123.807V37.5089ZM93.6498 23.2366H93.6484V16.7328L93.6498 23.2366Z" fill="#E9F6F7"/>
<path d="M94.9477 131.488C94.9477 143.538 80.7686 153.306 63.2771 153.306C45.7856 153.306 31.6064 143.538 31.6064 131.488C31.6064 119.439 45.7856 109.671 63.2771 109.671C80.7686 109.671 94.9477 119.439 94.9477 131.488Z" fill="#457FC2"/>
<path d="M59.4622 138.564C58.6485 138.564 57.84 138.347 57.2287 137.927L48.9191 132.202C47.6858 131.352 47.6858 129.976 48.9191 129.126C50.1525 128.277 52.1516 128.277 53.3836 129.126L59.8511 133.582L79.4283 124.459C80.8721 123.786 82.8353 124.047 83.8115 125.041C84.7891 126.037 84.4096 127.388 82.9658 128.062L61.2296 138.19C60.6929 138.442 60.0762 138.564 59.4622 138.564Z" fill="white"/>
<path d="M94.9477 196.404C94.9477 208.453 80.7673 218.221 63.2771 218.221C45.7856 218.221 31.6064 208.453 31.6064 196.404C31.6064 184.355 45.7856 174.586 63.2771 174.586C80.7673 174.586 94.9477 184.355 94.9477 196.404Z" fill="#FDD20B"/>
<path d="M59.4625 203.479C58.6474 203.479 57.839 203.263 57.229 202.842L48.9181 197.117C47.6861 196.268 47.6861 194.89 48.9181 194.042C50.1514 193.192 52.1506 193.193 53.3826 194.042L59.8515 198.497L79.4287 189.374C80.8711 188.702 82.8343 188.962 83.8119 189.957C84.7881 190.951 84.4099 192.304 82.9648 192.976L61.23 203.106C60.6919 203.356 60.0752 203.479 59.4625 203.479Z" fill="white"/>
<path d="M883.62 154.163C883.62 164.819 871.082 173.457 855.614 173.457C840.147 173.457 827.608 164.819 827.608 154.163C827.608 143.508 840.147 134.871 855.614 134.871C871.082 134.871 883.62 143.508 883.62 154.163Z" fill="#457FC2"/>
<path d="M852.968 160.476C852.247 160.476 851.532 160.285 850.992 159.913L843.643 154.85C842.554 154.099 842.554 152.881 843.644 152.131C844.734 151.379 846.501 151.38 847.592 152.131L853.311 156.07L870.623 148.003C871.9 147.408 873.636 147.638 874.5 148.518C875.363 149.398 875.029 150.594 873.751 151.188L854.53 160.146C854.054 160.368 853.51 160.476 852.968 160.476Z" fill="white"/>
<path d="M902.35 209C902.35 219.655 889.812 228.293 874.344 228.293C858.876 228.293 846.338 219.655 846.338 209C846.338 198.345 858.876 189.706 874.344 189.706C889.812 189.706 902.35 198.345 902.35 209Z" fill="#FDD20B"/>
<path d="M871.697 215.21C870.978 215.21 870.262 215.019 869.722 214.647L862.374 209.584C861.283 208.833 861.283 207.616 862.374 206.864C863.465 206.113 865.232 206.114 866.321 206.864L872.042 210.805L889.354 202.738C890.63 202.143 892.366 202.373 893.229 203.252C894.094 204.132 893.758 205.328 892.481 205.923L873.261 214.88C872.785 215.102 872.239 215.21 871.697 215.21Z" fill="white"/>
</svg>
