<svg width="344" height="351" viewBox="0 0 344 351" fill="none" xmlns="http://www.w3.org/2000/svg">
<path fill-rule="evenodd" clip-rule="evenodd" d="M191.71 243.294L189.691 242.5L194.359 240.664L193.577 240.357L188.917 242.193L186.019 241.053L195.345 237.382L201.037 239.623L191.71 243.294Z" fill="url(#paint0_linear_335_44618)"/>
<path fill-rule="evenodd" clip-rule="evenodd" d="M184.697 240.463L182.368 239.545L187.035 237.709L186.253 237.402L181.586 239.238L179.006 238.222L188.333 234.551L194.024 236.792L184.697 240.463Z" fill="url(#paint1_linear_335_44618)"/>
<path fill-rule="evenodd" clip-rule="evenodd" d="M177.316 237.631L174.675 236.59L179.335 234.754L178.553 234.448L173.894 236.283L171.625 235.39L180.951 231.719L186.643 233.96L177.316 237.631Z" fill="url(#paint2_linear_335_44618)"/>
<path fill-rule="evenodd" clip-rule="evenodd" d="M170.304 234.8L167.352 233.635L172.011 231.8L171.23 231.492L166.57 233.329L164.612 232.56L173.939 228.888L179.63 231.129L170.304 234.8Z" fill="url(#paint3_linear_335_44618)"/>
<path d="M281.92 275.005L232.804 255.661C225.709 252.866 226.096 248.176 233.662 245.186L237.487 243.673L312.321 273.14L308.497 274.653C300.923 277.644 289.024 277.802 281.92 275.005Z" fill="#3C83C4"/>
<path d="M51.6719 77.1796V93.3011L81.7014 88.2528V173.836L51.6719 191.916V271.243L144.318 234.77V40.7065L51.6719 77.1797V77.1796Z" fill="#272D70"/>
<path fill-rule="evenodd" clip-rule="evenodd" d="M51.6719 271.22L150.533 310.141V230.814L51.6719 191.894V271.22Z" fill="url(#paint4_linear_335_44618)"/>
<path fill-rule="evenodd" clip-rule="evenodd" d="M51.6719 271.247L150.533 310.168V237.735L51.6719 198.814V271.247Z" fill="url(#paint5_linear_335_44618)"/>
<path d="M112.345 230.697L78.9839 217.563V221.514L86.535 224.484V227.994L104.802 235.185V231.676L112.345 234.647V230.697Z" fill="#324BA0"/>
<path d="M110.459 230.005L81.5674 218.633V222.053L88.1014 224.625V227.664L103.924 233.891V230.853L110.459 233.425V230.005Z" fill="#0A1424"/>
<path d="M74.159 241.496L72.7626 237.206C72.3679 236.005 71.9657 234.539 71.6317 233.362L71.571 233.337C71.2372 234.251 70.9033 235.454 70.5389 236.33L69.2108 239.548L74.159 241.496ZM68.4823 242.242L66.8887 246.136L61.6372 244.071L68.4823 229.14L75.1228 231.755L82.0667 252.112L76.6178 249.968L74.8874 244.765L68.4823 242.242Z" fill="#40AEE3"/>
<path d="M90.5306 241.208L84.52 238.842V235.494L101.724 242.268V245.615L95.6153 243.209V257.486L90.5306 255.486V241.208Z" fill="#40AEE3"/>
<path d="M127.201 263.212C127.102 261.054 127.003 258.452 127.003 255.889L126.905 255.85C126.206 257.824 125.281 259.969 124.415 261.694L121.691 267.5L117.737 265.944L115.347 258.177C114.618 255.824 113.852 253.013 113.32 250.502L113.252 250.477C113.123 252.804 113.024 255.484 112.857 257.615L112.455 264.153L107.773 262.309L109.199 245.246L115.946 247.901L118.139 254.646C118.838 256.961 119.536 259.433 120.029 261.694L120.128 261.734C120.757 259.942 121.524 257.916 122.252 256.243L124.643 251.326L131.253 253.928L132.483 272.037L127.534 270.089L127.201 263.212Z" fill="#40AEE3"/>
<path fill-rule="evenodd" clip-rule="evenodd" d="M51.6719 191.917L81.7014 173.837L180.57 212.758L150.533 230.838L51.6719 191.917Z" fill="url(#paint6_linear_335_44618)"/>
<path fill-rule="evenodd" clip-rule="evenodd" d="M81.5674 88.2081L180.436 127.129V212.712L81.5674 173.791V88.2081Z" fill="url(#paint7_linear_335_44618)"/>
<path d="M87.104 171.606V94.9402L174.65 129.402V206.067L87.104 171.606Z" fill="#232262"/>
<path fill-rule="evenodd" clip-rule="evenodd" d="M91.1641 169.931V96.7646L174.589 129.349V202.515L91.1641 169.931Z" fill="url(#paint8_linear_335_44618)"/>
<path d="M156.161 149.129L153.983 148.272V144.938L156.358 145.872C156.358 145.872 159.348 147.151 159.348 148.716C159.348 150.283 156.161 149.129 156.161 149.129ZM153.983 140.401L155.956 141.176C155.956 141.176 158.438 142.245 158.438 143.669C158.438 145.093 155.789 144.144 155.789 144.144L153.983 143.434V140.401ZM160.35 146.288C160.35 146.288 161.967 146.533 161.891 144.358C161.853 142.11 158.438 140.472 157.459 140.045V137.305L155.433 136.509V139.243L153.983 138.674V135.94L151.964 135.143V137.877L148.14 136.37V137.921C148.14 137.921 148.739 138.155 149.627 138.506C150.522 138.857 150.591 139.507 150.591 139.507C150.591 139.507 150.606 146.128 150.591 146.465C150.576 146.802 150.189 146.662 150.189 146.662L148.496 145.996L148.003 147.76L151.964 149.32V151.905L153.983 152.701V150.117L155.433 150.686V153.271L157.459 154.067V151.481C157.565 151.521 157.785 151.604 158.248 151.779C161.587 152.946 163.143 152.187 163.143 149.998C163.143 147.809 160.35 146.288 160.35 146.288Z" fill="#F8962B"/>
<path fill-rule="evenodd" clip-rule="evenodd" d="M150.217 116.062V132.183L180.255 127.135V212.718L150.217 230.798V310.125L242.863 273.652V79.5887L150.217 116.062Z" fill="url(#paint9_linear_335_44618)"/>
<path fill-rule="evenodd" clip-rule="evenodd" d="M51.6719 77.135L150.533 116.056V132.177L51.6719 93.2566V77.135Z" fill="url(#paint10_linear_335_44618)"/>
<path fill-rule="evenodd" clip-rule="evenodd" d="M144.318 40.7065L243.179 79.6274L150.533 116.101L51.6719 77.1797L144.318 40.7065Z" fill="url(#paint11_linear_335_44618)"/>
<path d="M130.605 214.652L88.9497 198.253L101.608 190.635L143.256 207.034L130.605 214.652Z" fill="#221E1F"/>
<path d="M130.605 214.337L88.9497 197.939L101.608 190.321L143.256 206.72L130.605 214.337Z" fill="#D5E7F7"/>
<path d="M111.793 197.671L109.228 196.66C108.841 196.509 108.765 196.245 109.061 196.071L110.009 195.499C110.298 195.324 110.844 195.305 111.223 195.455L113.796 196.466C114.175 196.617 114.251 196.88 113.963 197.055L113.007 197.626C112.719 197.801 112.172 197.821 111.793 197.671Z" fill="#272D70"/>
<path d="M109.204 199.243L106.639 198.233C106.259 198.082 106.183 197.818 106.472 197.643L107.42 197.072C107.709 196.897 108.255 196.878 108.642 197.028L111.207 198.039C111.594 198.19 111.663 198.453 111.374 198.628L110.426 199.199C110.137 199.374 109.591 199.394 109.204 199.243Z" fill="#272D70"/>
<path d="M106.256 200.879L103.691 199.869C103.304 199.718 103.228 199.454 103.524 199.279L104.472 198.708C104.761 198.533 105.307 198.513 105.687 198.664L108.26 199.675C108.639 199.826 108.715 200.089 108.426 200.264L107.478 200.835C107.182 201.01 106.635 201.03 106.256 200.879Z" fill="#272D70"/>
<path d="M103.675 202.452L101.103 201.441C100.723 201.291 100.647 201.027 100.935 200.852L101.884 200.281C102.172 200.106 102.719 200.086 103.106 200.237L105.671 201.248C106.05 201.398 106.126 201.662 105.838 201.837L104.889 202.408C104.601 202.583 104.054 202.603 103.675 202.452Z" fill="#272D70"/>
<path d="M117.329 199.873L114.757 198.862C114.377 198.711 114.301 198.448 114.597 198.273L115.546 197.701C115.834 197.527 116.381 197.507 116.76 197.657L119.325 198.669C119.712 198.819 119.788 199.082 119.492 199.257L118.543 199.829C118.255 200.004 117.709 200.023 117.329 199.873Z" fill="#272D70"/>
<path d="M114.74 201.508L112.175 200.497C111.796 200.347 111.72 200.083 112.008 199.908L112.957 199.337C113.245 199.162 113.792 199.143 114.179 199.293L116.744 200.304C117.123 200.454 117.199 200.718 116.911 200.893L115.962 201.464C115.674 201.639 115.127 201.659 114.74 201.508Z" fill="#272D70"/>
<path d="M112.162 203.081L109.597 202.07C109.21 201.92 109.134 201.656 109.43 201.481L110.378 200.91C110.667 200.735 111.213 200.715 111.593 200.866L114.165 201.877C114.545 202.027 114.621 202.291 114.325 202.466L113.376 203.037C113.088 203.212 112.541 203.232 112.162 203.081Z" fill="#272D70"/>
<path d="M109.572 204.717L107.007 203.707C106.627 203.556 106.551 203.292 106.84 203.117L107.788 202.546C108.077 202.371 108.623 202.351 109.01 202.502L111.575 203.513C111.955 203.664 112.031 203.927 111.742 204.102L110.794 204.673C110.505 204.848 109.959 204.868 109.572 204.717Z" fill="#272D70"/>
<path d="M123.236 202.138L120.664 201.126C120.284 200.976 120.209 200.712 120.497 200.538L121.446 199.966C121.742 199.791 122.288 199.772 122.667 199.922L125.233 200.933C125.62 201.084 125.696 201.348 125.399 201.522L124.451 202.094C124.162 202.268 123.616 202.288 123.236 202.138Z" fill="#272D70"/>
<path d="M120.279 203.71L117.713 202.699C117.326 202.549 117.258 202.285 117.547 202.11L118.495 201.539C118.784 201.364 119.33 201.344 119.717 201.495L122.282 202.506C122.661 202.657 122.737 202.921 122.449 203.095L121.5 203.666C121.212 203.841 120.666 203.861 120.279 203.71Z" fill="#272D70"/>
<path d="M117.7 205.346L115.127 204.335C114.748 204.185 114.672 203.921 114.96 203.746L115.917 203.175C116.205 203 116.751 202.98 117.131 203.131L119.696 204.142C120.083 204.292 120.159 204.556 119.863 204.731L118.914 205.302C118.626 205.477 118.08 205.497 117.7 205.346Z" fill="#272D70"/>
<path d="M115.109 206.919L112.544 205.908C112.164 205.757 112.088 205.494 112.377 205.319L113.325 204.748C113.614 204.573 114.16 204.553 114.547 204.704L117.112 205.714C117.492 205.865 117.568 206.129 117.279 206.304L116.331 206.875C116.042 207.05 115.496 207.07 115.109 206.919Z" fill="#272D70"/>
<path d="M125.637 205.837L123.8 205.114C123.216 204.883 123.102 204.48 123.542 204.213L126.608 202.371C127.048 202.104 127.883 202.074 128.467 202.303L130.304 203.027C130.888 203.257 131.002 203.66 130.562 203.927L127.496 205.77C127.056 206.036 126.221 206.066 125.637 205.837Z" fill="#272D70"/>
<path d="M123.605 207.548L121.032 206.537C120.653 206.387 120.577 206.123 120.865 205.948L121.814 205.377C122.11 205.202 122.656 205.182 123.036 205.333L125.601 206.344C125.988 206.495 126.064 206.758 125.768 206.933L124.819 207.504C124.531 207.679 123.984 207.699 123.605 207.548Z" fill="#272D70"/>
<path d="M120.645 209.184L118.08 208.173C117.701 208.022 117.625 207.758 117.913 207.584L118.862 207.013C119.15 206.838 119.696 206.818 120.076 206.969L122.648 207.98C123.028 208.131 123.104 208.394 122.815 208.569L121.867 209.14C121.571 209.315 121.032 209.335 120.645 209.184Z" fill="#272D70"/>
<path d="M148.565 158.85C148.565 159.854 147.533 160.261 146.25 159.759C144.975 159.256 143.943 158.035 143.943 157.03C143.943 156.026 144.975 155.619 146.25 156.121C147.533 156.623 148.565 157.845 148.565 158.85Z" fill="#272D70"/>
<path d="M148.565 164.512C148.565 165.517 147.533 165.924 146.25 165.421C144.975 164.919 143.943 163.698 143.943 162.693C143.943 161.689 144.975 161.281 146.25 161.783C147.533 162.286 148.565 163.507 148.565 164.512Z" fill="#272D70"/>
<path d="M148.565 170.174C148.565 171.179 147.533 171.586 146.25 171.084C144.975 170.581 143.943 169.359 143.943 168.355C143.943 167.351 144.975 166.943 146.25 167.446C147.533 167.948 148.565 169.17 148.565 170.174Z" fill="#272D70"/>
<path d="M148.565 175.899C148.565 176.904 147.533 177.311 146.25 176.809C144.975 176.307 143.943 175.085 143.943 174.08C143.943 173.076 144.975 172.669 146.25 173.171C147.533 173.673 148.565 174.895 148.565 175.899Z" fill="#272D70"/>
<path d="M97.631 138.779C97.631 139.784 96.5989 140.191 95.3164 139.689C94.0415 139.187 93.0093 137.965 93.0093 136.96C93.0093 135.955 94.0415 135.548 95.3164 136.051C96.5989 136.553 97.631 137.774 97.631 138.779Z" fill="#272D70"/>
<path d="M97.631 144.442C97.631 145.446 96.5989 145.853 95.3164 145.351C94.0415 144.849 93.0093 143.627 93.0093 142.623C93.0093 141.618 94.0415 141.211 95.3164 141.713C96.5989 142.216 97.631 143.438 97.631 144.442Z" fill="#272D70"/>
<path d="M97.631 150.167C97.631 151.171 96.5989 151.579 95.3164 151.077C94.0415 150.574 93.0093 149.353 93.0093 148.348C93.0093 147.343 94.0415 146.936 95.3164 147.438C96.5989 147.941 97.631 149.162 97.631 150.167Z" fill="#272D70"/>
<path d="M97.631 155.829C97.631 156.834 96.5989 157.241 95.3164 156.739C94.0415 156.237 93.0093 155.015 93.0093 154.01C93.0093 153.006 94.0415 152.599 95.3164 153.101C96.5989 153.603 97.631 154.825 97.631 155.829Z" fill="#272D70"/>
<path d="M171.139 171.352L155.384 165.147V161.002L171.139 167.206V171.352Z" fill="#7B86C2"/>
<path d="M169.833 167.766V169.664L168.877 169.284C168.528 169.478 168.012 169.48 167.427 169.25C166.843 169.021 166.327 168.609 165.978 168.145L156.492 164.409V162.512L165.978 166.247C166.327 166.054 166.843 166.052 167.427 166.282C168.012 166.511 168.528 166.923 168.877 167.387L169.833 167.766Z" fill="#272D70"/>
<path d="M171.139 177.781L155.384 171.577V170.125L171.139 176.329V177.781Z" fill="#7B86C2"/>
<path d="M169.83 176.728L156.861 171.621V171.131L169.83 176.239V176.728Z" fill="#272D70"/>
<path d="M142.579 175.529L99.2837 158.485V136.276L142.579 153.32V175.529Z" fill="#272D70"/>
<path d="M140.853 171.683L100.76 155.901V138.226L140.853 154.008V171.683Z" fill="white"/>
<path d="M130.444 176.681C130.444 177.759 129.336 178.196 127.963 177.657C126.597 177.118 125.489 175.807 125.489 174.729C125.489 173.651 126.597 173.214 127.963 173.753C129.336 174.292 130.444 175.603 130.444 176.681Z" fill="#D5E7F7"/>
<path d="M137.75 155.771L120.69 149.056V147.853L137.75 154.567V155.771Z" fill="#D5E7F7"/>
<path d="M137.75 157.91L120.69 151.195V149.992L137.75 156.706V157.91Z" fill="#D5E7F7"/>
<path d="M108.73 157.29L106.613 156.456C106.029 156.226 105.558 155.612 105.558 155.082V152.446C105.558 151.916 106.029 151.673 106.613 151.903L108.73 152.736C109.315 152.965 109.785 153.581 109.785 154.11V156.746C109.785 157.276 109.315 157.519 108.73 157.29Z" fill="#D5E7F7"/>
<path d="M113.897 159.366L111.78 158.532C111.196 158.303 110.725 157.688 110.725 157.158V154.522C110.725 153.993 111.196 153.749 111.78 153.979L113.897 154.813C114.474 155.041 114.952 155.657 114.952 156.187V158.823C114.952 159.352 114.474 159.595 113.897 159.366Z" fill="#D5E7F7"/>
<path d="M119.065 161.442L116.947 160.608C116.363 160.379 115.893 159.764 115.893 159.234V156.598C115.893 156.069 116.363 155.826 116.947 156.055L119.065 156.888C119.649 157.118 120.12 157.733 120.12 158.262V160.898C120.12 161.428 119.649 161.671 119.065 161.442Z" fill="#D5E7F7"/>
<path d="M124.601 163.519L122.483 162.685C121.899 162.456 121.429 161.84 121.429 161.311V158.675C121.429 158.145 121.899 157.902 122.483 158.131L124.601 158.965C125.185 159.195 125.656 159.81 125.656 160.339V162.975C125.656 163.504 125.185 163.748 124.601 163.519Z" fill="#D5E7F7"/>
<path d="M129.768 165.532L127.651 164.698C127.067 164.469 126.596 163.854 126.596 163.324V160.689C126.596 160.159 127.067 159.915 127.651 160.145L129.768 160.978C130.353 161.208 130.823 161.823 130.823 162.352V164.988C130.823 165.518 130.353 165.761 129.768 165.532Z" fill="#D5E7F7"/>
<path d="M134.935 167.609L132.818 166.774C132.234 166.545 131.763 165.93 131.763 165.4V162.765C131.763 162.235 132.234 161.991 132.818 162.221L134.935 163.054C135.52 163.284 135.99 163.899 135.99 164.429V167.065C135.99 167.594 135.52 167.837 134.935 167.609Z" fill="#D5E7F7"/>
<path d="M129.548 176.41L126.596 175.247V175.032L129.548 176.194V176.41Z" fill="#272D70"/>
<path d="M157.318 171.823C157.318 171.823 149.289 176.192 150.768 181.283C157.166 185.685 167.449 186.372 167.449 186.372C167.449 186.372 162.691 177.65 169.498 176.618C166.963 175.621 157.318 171.823 157.318 171.823Z" fill="white"/>
<path d="M17.5585 202.589C17.5585 202.589 2.09235 222.655 4.27023 224.717C6.44833 226.781 18.6969 234.934 42.2075 233.531L41.6382 230.643C41.6382 230.643 16.4732 223.302 17.9229 221.652C19.4936 218.929 21.262 213.876 21.262 213.876L25.6105 208.668L17.5585 202.589Z" fill="#F5A2BA"/>
<path d="M60.6556 199.331C60.6556 199.331 71.8189 206.359 76.3116 212.066C83.5591 210.277 107.35 205.191 108.041 204.083C108.724 202.975 111.919 200.864 111.919 200.864C111.919 200.864 113.171 200.779 113.171 201.503C113.171 202.227 116.108 201.205 116.29 200.779C116.48 200.353 119.918 199.629 118.855 202.994C117.793 206.359 110.856 206.516 108.921 207.794C106.986 209.072 77.6245 220.505 73.0028 219.012C68.3811 217.518 53.8862 204.698 53.8862 202.653C53.8862 200.609 56.3072 198.095 60.6556 199.331Z" fill="#F5A2BA"/>
<path fill-rule="evenodd" clip-rule="evenodd" d="M19.601 198.311C19.601 198.311 8.36181 210.158 7.77755 214.078C7.19306 217.998 16.2317 218.995 19.935 218.914C22.1357 218.037 26.3174 208.318 25.7329 205.358C25.1412 202.398 19.601 198.311 19.601 198.311Z" fill="url(#paint12_linear_335_44618)"/>
<path d="M20.9686 342.197C21.849 343.159 20.9155 345.148 21.8793 345.45C22.5851 345.709 22.5851 345.709 23.1997 345.545C23.8144 345.381 23.8525 342.393 24.2547 342.79C26.7513 344.91 29.2557 340.944 28.7626 339.378C28.2767 337.812 26.516 339.708 26.6223 338.591C26.964 336.35 23.3287 336.578 21.5757 337.262C19.8758 338.238 20.0882 341.236 20.9686 342.197Z" fill="#272D70"/>
<path d="M40.5859 339.683C40.5859 339.683 39.9409 340.839 39.8651 342.659C39.7892 344.437 40.7301 349.281 41.7395 349.734C42.7488 350.187 42.8626 349.898 42.8626 349.898L44.1681 345.775C44.1681 345.775 44.4943 350.639 58.974 349.111C61.4557 348.645 58.6478 347.201 58.6478 347.201C58.6478 347.201 47.9548 342.385 47.5224 341.856C47.0896 341.328 46.5434 340.536 46.5434 340.536L40.5859 339.683Z" fill="#272D70"/>
<path fill-rule="evenodd" clip-rule="evenodd" d="M20.9741 250.597C20.9741 250.597 15.4265 253.916 22.1503 274.014C27.7358 290.731 19.9117 337.627 19.9117 337.627C19.9117 337.627 24.3892 340.688 27.7283 338.513C29.8912 332.096 42.208 283.049 41.7981 272.907C41.3884 262.766 43.9687 249.674 40.2122 249.306C36.4632 248.937 21.8619 246.537 20.9741 250.597Z" fill="url(#paint13_linear_335_44618)"/>
<path fill-rule="evenodd" clip-rule="evenodd" d="M58.6888 249.858C58.6888 249.858 63.8113 262.765 59.6979 285.813C57.4289 298.562 46.9258 340.668 46.9258 340.668C46.9258 340.668 41.2948 341.291 40.149 340.046C40.6194 335.671 44.8844 297.055 36.8629 271.523C33.3036 260.091 32.9774 251.26 34.3055 249.95C38.3502 245.939 56.3665 244.372 58.6888 249.858Z" fill="url(#paint14_linear_335_44618)"/>
<path fill-rule="evenodd" clip-rule="evenodd" d="M25.3071 252.27C25.3071 252.27 12.1401 253.771 16.3217 247.796C30.4296 227.62 15.5704 202.576 19.9114 198.88C24.2522 195.185 34.4668 191.003 47.664 193.434C60.8614 195.865 67.1601 200.102 61.4456 216.92C55.7767 233.598 65.8701 251.833 62.1136 252.999C58.357 254.166 45.4861 251.686 40.796 250.714C36.106 249.742 25.3071 252.27 25.3071 252.27Z" fill="url(#paint15_linear_335_44618)"/>
<path fill-rule="evenodd" clip-rule="evenodd" d="M65.4797 216.369C65.4797 216.369 50.4232 208.312 50.9469 205.073C51.4782 201.833 49.7782 192.473 57.9059 195.913C66.3147 199.473 72.9474 207.939 72.9474 207.939C72.9474 207.939 68.8871 218.083 65.4797 216.369Z" fill="url(#paint16_linear_335_44618)"/>
<path d="M54.1671 172.243C57.9463 175.842 56.4439 188.574 53.6056 188.889C50.441 189.243 39.9908 188.283 34.4586 180.643C26.2624 169.334 45.6295 163.843 54.1671 172.243Z" fill="#F5A2BA"/>
<path d="M39.1081 179.674C39.1081 179.674 35.2376 192.154 35.063 193.714C38.759 195.274 46.6817 195.083 47.6457 194.254C47.9035 191.674 48.875 181.534 48.875 181.534C48.875 181.534 45.9685 178.235 39.1081 179.674Z" fill="#F5A2BA"/>
<path d="M57.8693 176.729C57.8693 176.729 55.3117 174.978 53.0198 176.177C50.7356 177.377 50.614 179.238 51.0695 180.318C51.5248 181.398 51.5096 182.237 50.8571 181.818C50.2043 181.398 48.5956 177.717 46.0683 178.538C43.5413 179.358 47.442 182.184 48.0036 182.598C48.5652 183.011 43.473 192.856 45.9849 202.486C48.6715 212.745 3.91943 210.617 0.223442 204.497C-2.34144 200.252 18.1108 198.243 13.7849 193.584C9.45934 188.926 22.9753 187.414 24.159 186.017C28.0295 181.458 23.6885 171.698 30.3745 168.578C37.0679 165.458 57.0572 161.436 57.8693 176.729Z" fill="#192C49"/>
<path d="M152.432 118.012V134.133L182.462 129.085V214.668L152.432 232.749V312.076L245.078 275.602V81.5392L152.432 118.012Z" fill="#272D70"/>
<path fill-rule="evenodd" clip-rule="evenodd" d="M152.432 312.053L251.293 350.973V271.646L152.432 232.726V312.053Z" fill="url(#paint17_linear_335_44618)"/>
<path fill-rule="evenodd" clip-rule="evenodd" d="M152.432 312.079L251.293 351V278.568L152.432 239.647V312.079Z" fill="url(#paint18_linear_335_44618)"/>
<path d="M216.796 270.208L183.435 257.075V261.024L190.986 263.995V267.505L209.253 274.696V271.187L216.796 274.158V270.208Z" fill="#324BA0"/>
<path d="M214.533 269.515L185.649 258.144V261.564L192.183 264.136V267.174L208.007 273.402V270.363L214.533 272.936V269.515Z" fill="#0A1424"/>
<path d="M177.872 280.692L176.475 276.403C176.081 275.201 175.679 273.735 175.345 272.559L175.284 272.533C174.95 273.448 174.616 274.651 174.252 275.527L172.924 278.744L177.872 280.692ZM172.195 281.438L170.594 285.334L165.35 283.268L172.195 268.337L178.835 270.951L185.779 291.309L180.331 289.165L178.6 283.961L172.195 281.438Z" fill="#40AEE3"/>
<path d="M194.244 280.405L188.233 278.039V274.691L205.437 281.464V284.812L199.328 282.405V296.683L194.244 294.683V280.405Z" fill="#40AEE3"/>
<path d="M230.913 302.409C230.814 300.251 230.716 297.649 230.716 295.086L230.617 295.047C229.919 297.02 228.993 299.166 228.128 300.891L225.404 306.697L221.45 305.141L219.059 297.374C218.323 295.021 217.564 292.211 217.033 289.699L216.964 289.673C216.836 292.001 216.737 294.681 216.57 296.812L216.168 303.349L211.485 301.506L212.912 284.443L219.659 287.099L221.852 293.844C222.542 296.158 223.241 298.63 223.742 300.891L223.84 300.931C224.47 299.139 225.237 297.114 225.965 295.44L228.356 290.523L234.966 293.125L236.195 311.234L231.247 309.286L230.913 302.409Z" fill="#40AEE3"/>
<path fill-rule="evenodd" clip-rule="evenodd" d="M152.432 232.75L182.462 214.669L281.33 253.59L251.293 271.67L152.432 232.75Z" fill="url(#paint19_linear_335_44618)"/>
<path fill-rule="evenodd" clip-rule="evenodd" d="M182.328 129.041L281.196 167.961V253.544L182.328 214.623V129.041Z" fill="url(#paint20_linear_335_44618)"/>
<path d="M188.233 212.437V135.773L275.772 170.234V246.9L188.233 212.437Z" fill="#232262"/>
<path fill-rule="evenodd" clip-rule="evenodd" d="M192.293 210.826V137.66L275.718 170.244V243.41L192.293 210.826Z" fill="url(#paint21_linear_335_44618)"/>
<path fill-rule="evenodd" clip-rule="evenodd" d="M251.347 156.894V173.016L281.384 167.968V253.551L251.347 271.631V350.958L344 314.484V120.421L251.347 156.894V156.894Z" fill="url(#paint22_linear_335_44618)"/>
<path fill-rule="evenodd" clip-rule="evenodd" d="M152.432 117.967L251.293 156.888V173.009L152.432 134.088V117.967Z" fill="url(#paint23_linear_335_44618)"/>
<path fill-rule="evenodd" clip-rule="evenodd" d="M245.078 81.5392L343.947 120.46L251.293 156.933L152.432 118.012L245.078 81.5392Z" fill="url(#paint24_linear_335_44618)"/>
<path d="M231.365 255.485L189.709 239.085L202.368 231.468L244.024 247.867L231.365 255.485Z" fill="#221E1F"/>
<path d="M231.365 255.17L189.709 238.771L202.368 231.153L244.024 247.552L231.365 255.17Z" fill="#D5E7F7"/>
<path d="M212.549 238.503L209.984 237.492C209.597 237.341 209.529 237.078 209.817 236.903L210.766 236.332C211.054 236.157 211.6 236.137 211.98 236.288L214.553 237.298C214.932 237.449 215.008 237.713 214.72 237.888L213.771 238.459C213.475 238.633 212.936 238.654 212.549 238.503Z" fill="#272D70"/>
<path d="M209.972 240.076L207.399 239.065C207.019 238.914 206.943 238.65 207.232 238.476L208.18 237.905C208.476 237.73 209.023 237.71 209.402 237.861L211.967 238.871C212.354 239.022 212.43 239.286 212.134 239.461L211.186 240.032C210.897 240.206 210.351 240.226 209.972 240.076Z" fill="#272D70"/>
<path d="M207.383 241.712L204.818 240.701C204.43 240.55 204.362 240.286 204.651 240.112L205.599 239.541C205.888 239.366 206.434 239.346 206.814 239.496L209.386 240.507C209.766 240.658 209.842 240.922 209.553 241.097L208.605 241.668C208.309 241.842 207.77 241.862 207.383 241.712Z" fill="#272D70"/>
<path d="M204.804 243.284L202.231 242.273C201.852 242.123 201.776 241.859 202.064 241.684L203.013 241.113C203.309 240.938 203.855 240.919 204.235 241.069L206.8 242.08C207.187 242.23 207.263 242.494 206.967 242.669L206.018 243.24C205.73 243.415 205.183 243.435 204.804 243.284Z" fill="#272D70"/>
<path d="M218.458 240.705L215.893 239.694C215.506 239.543 215.43 239.279 215.726 239.105L216.675 238.534C216.963 238.359 217.509 238.339 217.889 238.49L220.462 239.5C220.841 239.651 220.917 239.915 220.629 240.09L219.68 240.661C219.384 240.836 218.838 240.855 218.458 240.705Z" fill="#272D70"/>
<path d="M215.507 242.34L212.934 241.33C212.555 241.179 212.479 240.915 212.767 240.741L213.716 240.17C214.012 239.995 214.551 239.975 214.938 240.126L217.503 241.136C217.89 241.287 217.958 241.551 217.67 241.726L216.721 242.297C216.433 242.471 215.887 242.491 215.507 242.34Z" fill="#272D70"/>
<path d="M212.922 243.913L210.357 242.903C209.97 242.752 209.894 242.489 210.19 242.314L211.139 241.742C211.427 241.568 211.973 241.548 212.353 241.699L214.926 242.709C215.305 242.86 215.381 243.124 215.092 243.298L214.144 243.869C213.848 244.044 213.309 244.064 212.922 243.913Z" fill="#272D70"/>
<path d="M210.34 245.549L207.768 244.538C207.388 244.388 207.312 244.124 207.6 243.95L208.549 243.378C208.845 243.203 209.384 243.184 209.771 243.334L212.336 244.345C212.723 244.496 212.791 244.76 212.503 244.934L211.554 245.505C211.266 245.68 210.72 245.7 210.34 245.549Z" fill="#272D70"/>
<path d="M223.995 242.97L221.43 241.959C221.043 241.808 220.967 241.544 221.263 241.37L222.211 240.798C222.5 240.624 223.046 240.604 223.426 240.755L225.998 241.765C226.378 241.916 226.454 242.18 226.165 242.355L225.209 242.926C224.921 243.101 224.374 243.12 223.995 242.97Z" fill="#272D70"/>
<path d="M221.405 244.542L218.84 243.532C218.461 243.381 218.385 243.117 218.673 242.942L219.622 242.371C219.91 242.197 220.457 242.177 220.844 242.328L223.409 243.338C223.788 243.489 223.864 243.753 223.576 243.928L222.627 244.499C222.339 244.674 221.792 244.693 221.405 244.542Z" fill="#272D70"/>
<path d="M218.827 246.178L216.262 245.168C215.875 245.017 215.799 244.753 216.095 244.579L217.044 244.007C217.332 243.833 217.879 243.813 218.258 243.963L220.831 244.974C221.21 245.125 221.286 245.389 220.998 245.564L220.049 246.135C219.753 246.31 219.207 246.329 218.827 246.178Z" fill="#272D70"/>
<path d="M215.877 247.814L213.304 246.803C212.925 246.653 212.849 246.389 213.137 246.215L214.086 245.643C214.382 245.468 214.92 245.449 215.307 245.599L217.873 246.61C218.252 246.76 218.328 247.024 218.039 247.199L217.091 247.771C216.802 247.945 216.256 247.965 215.877 247.814Z" fill="#272D70"/>
<path d="M226.764 246.669L224.927 245.946C224.343 245.716 224.229 245.313 224.677 245.046L227.735 243.203C228.175 242.936 229.01 242.906 229.595 243.136L231.431 243.859C232.015 244.09 232.129 244.492 231.689 244.759L228.623 246.602C228.183 246.869 227.348 246.899 226.764 246.669Z" fill="#272D70"/>
<path d="M224.363 248.443L221.798 247.432C221.411 247.282 221.336 247.018 221.631 246.843L222.58 246.272C222.868 246.097 223.415 246.078 223.794 246.228L226.359 247.239C226.746 247.389 226.822 247.653 226.526 247.828L225.578 248.4C225.289 248.574 224.743 248.594 224.363 248.443Z" fill="#272D70"/>
<path d="M221.774 250.016L219.209 249.006C218.829 248.855 218.754 248.591 219.042 248.416L219.991 247.845C220.279 247.671 220.825 247.651 221.212 247.801L223.777 248.812C224.157 248.963 224.233 249.227 223.944 249.401L222.996 249.973C222.707 250.148 222.161 250.167 221.774 250.016Z" fill="#272D70"/>
<path d="M249.325 199.682C249.325 200.686 248.293 201.094 247.018 200.592C245.735 200.089 244.703 198.867 244.703 197.863C244.703 196.858 245.735 196.451 247.018 196.953C248.293 197.456 249.325 198.677 249.325 199.682Z" fill="#272D70"/>
<path d="M249.325 205.344C249.325 206.349 248.293 206.756 247.018 206.254C245.735 205.752 244.703 204.53 244.703 203.525C244.703 202.521 245.735 202.113 247.018 202.616C248.293 203.118 249.325 204.34 249.325 205.344Z" fill="#272D70"/>
<path d="M249.325 211.07C249.325 212.074 248.293 212.481 247.018 211.98C245.735 211.477 244.703 210.255 244.703 209.251C244.703 208.246 245.735 207.839 247.018 208.341C248.293 208.844 249.325 210.065 249.325 211.07Z" fill="#272D70"/>
<path d="M249.325 216.732C249.325 217.737 248.293 218.144 247.018 217.641C245.735 217.139 244.703 215.918 244.703 214.913C244.703 213.908 245.735 213.501 247.018 214.004C248.293 214.506 249.325 215.728 249.325 216.732Z" fill="#272D70"/>
<path d="M198.391 179.612C198.391 180.616 197.358 181.023 196.084 180.521C194.801 180.019 193.769 178.797 193.769 177.792C193.769 176.788 194.801 176.381 196.084 176.883C197.358 177.385 198.391 178.607 198.391 179.612Z" fill="#272D70"/>
<path d="M198.391 185.274C198.391 186.279 197.358 186.686 196.084 186.184C194.801 185.681 193.769 184.46 193.769 183.455C193.769 182.451 194.801 182.043 196.084 182.545C197.358 183.048 198.391 184.269 198.391 185.274Z" fill="#272D70"/>
<path d="M198.391 191C198.391 192.004 197.358 192.411 196.084 191.909C194.801 191.406 193.769 190.185 193.769 189.18C193.769 188.176 194.801 187.769 196.084 188.271C197.358 188.773 198.391 189.995 198.391 191Z" fill="#272D70"/>
<path d="M198.391 196.662C198.391 197.667 197.358 198.074 196.084 197.572C194.801 197.069 193.769 195.848 193.769 194.843C193.769 193.838 194.801 193.431 196.084 193.933C197.358 194.436 198.391 195.657 198.391 196.662Z" fill="#272D70"/>
<path d="M272.269 212.183L256.514 205.98V201.834L272.269 208.038V212.183Z" fill="#7B86C2"/>
<path d="M270.97 208.598V210.496L270.006 210.116C269.665 210.31 269.141 210.312 268.557 210.083C267.972 209.853 267.456 209.441 267.107 208.976L257.621 205.241V203.344L267.107 207.079C267.456 206.887 267.972 206.884 268.557 207.114C269.141 207.344 269.665 207.756 270.006 208.219L270.97 208.598Z" fill="#272D70"/>
<path d="M272.269 218.613L256.514 212.409V210.957L272.269 217.161V218.613Z" fill="#7B86C2"/>
<path d="M270.967 217.56L257.99 212.453V211.964L270.967 217.071V217.56Z" fill="#272D70"/>
<path d="M243.338 216.424L200.043 199.38V177.171L243.338 194.216V216.424Z" fill="#272D70"/>
<path d="M241.613 212.578L201.521 196.797V179.122L241.613 194.903V212.578Z" fill="white"/>
<path d="M231.574 217.576C231.574 218.654 230.466 219.091 229.1 218.552C227.726 218.013 226.618 216.702 226.618 215.624C226.618 214.546 227.726 214.109 229.1 214.649C230.466 215.187 231.574 216.498 231.574 217.576Z" fill="#D5E7F7"/>
<path d="M238.872 196.602L221.82 189.888V188.685L238.872 195.399V196.602Z" fill="#D5E7F7"/>
<path d="M238.872 198.742L221.82 192.028V190.824L238.872 197.538V198.742Z" fill="#D5E7F7"/>
<path d="M209.49 198.122L207.373 197.288C206.796 197.059 206.318 196.444 206.318 195.915V193.279C206.318 192.749 206.796 192.506 207.373 192.735L209.49 193.569C210.074 193.798 210.545 194.413 210.545 194.943V197.579C210.545 198.109 210.074 198.352 209.49 198.122Z" fill="#D5E7F7"/>
<path d="M215.027 200.199L212.909 199.365C212.325 199.135 211.854 198.52 211.854 197.99V195.355C211.854 194.825 212.325 194.582 212.909 194.811L215.027 195.645C215.611 195.874 216.082 196.489 216.082 197.019V199.655C216.082 200.184 215.611 200.428 215.027 200.199Z" fill="#D5E7F7"/>
<path d="M220.194 202.275L218.077 201.441C217.5 201.212 217.022 200.596 217.022 200.067V197.431C217.022 196.902 217.5 196.658 218.077 196.887L220.194 197.721C220.778 197.951 221.249 198.566 221.249 199.095V201.731C221.249 202.261 220.778 202.504 220.194 202.275Z" fill="#D5E7F7"/>
<path d="M225.361 204.351L223.244 203.517C222.659 203.288 222.189 202.673 222.189 202.143V199.507C222.189 198.978 222.659 198.734 223.244 198.964L225.361 199.797C225.945 200.026 226.416 200.642 226.416 201.171V203.807C226.416 204.337 225.945 204.58 225.361 204.351Z" fill="#D5E7F7"/>
<path d="M230.529 206.428L228.411 205.593C227.835 205.364 227.356 204.749 227.356 204.22V201.584C227.356 201.054 227.835 200.811 228.411 201.04L230.529 201.873C231.113 202.103 231.584 202.718 231.584 203.248V205.884C231.584 206.413 231.113 206.657 230.529 206.428Z" fill="#D5E7F7"/>
<path d="M236.065 208.441L233.948 207.607C233.363 207.378 232.893 206.762 232.893 206.233V203.597C232.893 203.067 233.363 202.824 233.948 203.053L236.065 203.887C236.649 204.116 237.12 204.731 237.12 205.261V207.897C237.12 208.427 236.649 208.67 236.065 208.441Z" fill="#D5E7F7"/>
<path d="M230.309 217.242L227.356 216.079V215.865L230.309 217.027V217.242Z" fill="#272D70"/>
<path d="M258.447 212.656C258.447 212.656 250.418 217.025 251.898 222.114C258.303 226.517 268.579 227.204 268.579 227.204C268.579 227.204 263.82 218.482 270.627 217.45C268.093 216.453 258.447 212.656 258.447 212.656Z" fill="white"/>
<path d="M290.351 71.7479V96.2641C284.348 111.524 271.584 111.171 261.71 111.041C260.041 111.019 258.09 110.252 256.413 108.954C246.54 101.312 233.768 91.6106 227.773 71.6304V47.1136C227.363 45.7616 229.662 44.4367 232.205 44.7918L256.102 49.5478C258.045 49.9343 260.079 50.7338 262.022 51.8769L285.927 65.9404C288.462 67.5858 290.753 70.716 290.351 71.7479Z" fill="#41BBEC"/>
<path d="M285.22 73.1558V93.641C280.204 106.391 269.541 106.096 261.292 105.987C259.888 105.969 258.264 105.328 256.86 104.243C248.611 97.8589 237.941 89.7523 232.932 73.0579V52.5732C232.591 51.4436 234.511 50.3367 236.636 50.6332L256.602 54.6068C258.226 54.9298 259.926 55.5982 261.55 56.553L281.517 68.3035C283.642 69.6784 285.554 72.2941 285.22 73.1558Z" fill="white"/>
<path d="M267.453 90.8235L250.583 84.1829C248.557 83.3855 246.917 81.2464 246.917 79.4048V71.084C246.917 69.2418 248.557 68.3957 250.583 69.1931L267.453 75.8337C269.48 76.6311 271.126 78.7708 271.126 80.6124V88.9332C271.126 90.7743 269.48 91.6215 267.453 90.8235Z" fill="#41BBEC"/>
<path d="M267.729 76.6204V73.6967C267.729 71.8405 266.765 69.767 265.217 67.9434C263.677 66.119 261.521 64.5143 259.169 63.5871C256.808 62.6577 254.653 62.5682 253.113 63.1777C251.564 63.7842 250.608 65.1 250.608 66.9567V69.8803L254.448 71.3939V68.4703C254.456 67.441 254.98 66.7285 255.83 66.3886C256.695 66.0533 257.856 66.0998 259.169 66.6141C260.474 67.1301 261.643 68.0016 262.5 69.0141C263.358 70.028 263.881 71.1523 263.881 72.1831V75.1067L267.729 76.6204Z" fill="#41BBEC"/>
<path d="M262.272 79.0066C262.272 77.5949 260.815 75.878 259.024 75.1723C257.225 74.4665 255.776 75.0388 255.776 76.4503C255.776 77.4205 256.459 78.5342 257.476 79.3658V83.4516C257.476 83.8899 257.924 84.4234 258.477 84.6423L259.563 85.0686C260.124 85.288 260.572 85.1101 260.572 84.6718V80.5853C261.581 80.5502 262.272 79.9769 262.272 79.0066Z" fill="#DEE5F4"/>
<path d="M177.404 27.0139V51.5311C171.409 66.7905 158.644 66.4371 148.771 66.3073C147.094 66.2855 145.143 65.5176 143.474 64.2203C133.6 56.579 120.828 46.8772 114.833 26.8969V2.38023C114.423 1.02802 116.715 -0.296676 119.257 0.0584199L143.162 4.81427C145.105 5.2009 147.139 6.00029 149.082 7.14349L172.979 21.207C175.522 22.8524 177.813 25.9831 177.404 27.0139Z" fill="#41BBEC"/>
<path d="M172.272 28.4224V48.9075C167.264 61.6572 156.594 61.3623 148.352 61.2542C146.948 61.2355 145.316 60.5944 143.92 59.5098C135.671 53.1253 125.001 45.0193 119.992 28.3245V7.83979C119.65 6.7102 121.563 5.60332 123.688 5.89983L143.662 9.87391C145.286 10.1968 146.986 10.8648 148.602 11.8196L168.576 23.5701C170.694 24.945 172.614 27.5607 172.272 28.4224Z" fill="white"/>
<path d="M130.287 27.8558L142.581 42.3747L168.725 32.0823L164.452 27.0336L142.581 35.643L134.559 26.1731L130.287 27.8558Z" fill="#41BBEC"/>
<defs>
<linearGradient id="paint0_linear_335_44618" x1="1379.84" y1="554.808" x2="-211.02" y2="1134.92" gradientUnits="userSpaceOnUse">
<stop stop-color="#87D3E1"/>
<stop offset="1" stop-color="#6FCCDD"/>
</linearGradient>
<linearGradient id="paint1_linear_335_44618" x1="1380.03" y1="554.808" x2="-210.837" y2="1134.92" gradientUnits="userSpaceOnUse">
<stop stop-color="#87D3E1"/>
<stop offset="1" stop-color="#6FCCDD"/>
</linearGradient>
<linearGradient id="paint2_linear_335_44618" x1="1379.84" y1="554.81" x2="-211.026" y2="1134.92" gradientUnits="userSpaceOnUse">
<stop stop-color="#87D3E1"/>
<stop offset="1" stop-color="#6FCCDD"/>
</linearGradient>
<linearGradient id="paint3_linear_335_44618" x1="1380.02" y1="554.813" x2="-210.845" y2="1134.92" gradientUnits="userSpaceOnUse">
<stop stop-color="#87D3E1"/>
<stop offset="1" stop-color="#6FCCDD"/>
</linearGradient>
<linearGradient id="paint4_linear_335_44618" x1="174.568" y1="289.49" x2="45.7008" y2="144.335" gradientUnits="userSpaceOnUse">
<stop stop-color="#5857A5"/>
<stop offset="1" stop-color="#3EAAE0"/>
</linearGradient>
<linearGradient id="paint5_linear_335_44618" x1="-50.4304" y1="176.926" x2="132.981" y2="378.85" gradientUnits="userSpaceOnUse">
<stop stop-color="#5857A5"/>
<stop offset="1" stop-color="#3EAAE0"/>
</linearGradient>
<linearGradient id="paint6_linear_335_44618" x1="51.6719" y1="202.338" x2="180.572" y2="202.338" gradientUnits="userSpaceOnUse">
<stop stop-color="#5857A5"/>
<stop offset="1" stop-color="#3EAAE0"/>
</linearGradient>
<linearGradient id="paint7_linear_335_44618" x1="81.5674" y1="150.461" x2="180.433" y2="150.461" gradientUnits="userSpaceOnUse">
<stop stop-color="#5857A5"/>
<stop offset="0.5" stop-color="#3EAAE0"/>
<stop offset="1" stop-color="#3EAAE0"/>
</linearGradient>
<linearGradient id="paint8_linear_335_44618" x1="238.974" y1="141.941" x2="24.4736" y2="175.418" gradientUnits="userSpaceOnUse">
<stop stop-color="#5857A5"/>
<stop offset="1" stop-color="#3EAAE0"/>
</linearGradient>
<linearGradient id="paint9_linear_335_44618" x1="150.217" y1="194.858" x2="242.866" y2="194.858" gradientUnits="userSpaceOnUse">
<stop stop-color="#5857A5"/>
<stop offset="1" stop-color="#3EAAE0"/>
</linearGradient>
<linearGradient id="paint10_linear_335_44618" x1="51.6719" y1="104.656" x2="150.538" y2="104.656" gradientUnits="userSpaceOnUse">
<stop stop-color="#5857A5"/>
<stop offset="1" stop-color="#3EAAE0"/>
</linearGradient>
<linearGradient id="paint11_linear_335_44618" x1="51.6732" y1="78.4036" x2="243.187" y2="78.4036" gradientUnits="userSpaceOnUse">
<stop stop-color="#5857A5"/>
<stop offset="1" stop-color="#3EAAE0"/>
</linearGradient>
<linearGradient id="paint12_linear_335_44618" x1="7.75442" y1="208.615" x2="25.7882" y2="208.615" gradientUnits="userSpaceOnUse">
<stop stop-color="#F6E2EE"/>
<stop offset="1" stop-color="#CD95C3"/>
</linearGradient>
<linearGradient id="paint13_linear_335_44618" x1="2.54875" y1="255.527" x2="18.5629" y2="302.498" gradientUnits="userSpaceOnUse">
<stop stop-color="#953D97"/>
<stop offset="0.5" stop-color="#612C8D"/>
<stop offset="1" stop-color="#442A7A"/>
</linearGradient>
<linearGradient id="paint14_linear_335_44618" x1="82.9727" y1="251.02" x2="49.9095" y2="325.371" gradientUnits="userSpaceOnUse">
<stop stop-color="#953D97"/>
<stop offset="0.5" stop-color="#612C8D"/>
<stop offset="1" stop-color="#442A7A"/>
</linearGradient>
<linearGradient id="paint15_linear_335_44618" x1="15.5026" y1="223.009" x2="63.5591" y2="223.009" gradientUnits="userSpaceOnUse">
<stop stop-color="#F6E2EE"/>
<stop offset="1" stop-color="#CD95C3"/>
</linearGradient>
<linearGradient id="paint16_linear_335_44618" x1="58.202" y1="192.111" x2="61.3587" y2="218.551" gradientUnits="userSpaceOnUse">
<stop stop-color="#F6E2EE"/>
<stop offset="1" stop-color="#CD95C3"/>
</linearGradient>
<linearGradient id="paint17_linear_335_44618" x1="275.328" y1="330.321" x2="146.461" y2="185.166" gradientUnits="userSpaceOnUse">
<stop stop-color="#5857A5"/>
<stop offset="1" stop-color="#3EAAE0"/>
</linearGradient>
<linearGradient id="paint18_linear_335_44618" x1="50.3309" y1="217.759" x2="233.742" y2="419.682" gradientUnits="userSpaceOnUse">
<stop stop-color="#5857A5"/>
<stop offset="1" stop-color="#3EAAE0"/>
</linearGradient>
<linearGradient id="paint19_linear_335_44618" x1="152.432" y1="243.169" x2="281.333" y2="243.169" gradientUnits="userSpaceOnUse">
<stop stop-color="#5857A5"/>
<stop offset="1" stop-color="#3EAAE0"/>
</linearGradient>
<linearGradient id="paint20_linear_335_44618" x1="182.328" y1="191.292" x2="281.194" y2="191.292" gradientUnits="userSpaceOnUse">
<stop stop-color="#5857A5"/>
<stop offset="0.5" stop-color="#3EAAE0"/>
<stop offset="1" stop-color="#3EAAE0"/>
</linearGradient>
<linearGradient id="paint21_linear_335_44618" x1="340.103" y1="182.838" x2="125.603" y2="216.315" gradientUnits="userSpaceOnUse">
<stop stop-color="#5857A5"/>
<stop offset="1" stop-color="#3EAAE0"/>
</linearGradient>
<linearGradient id="paint22_linear_335_44618" x1="251.347" y1="235.69" x2="343.995" y2="235.69" gradientUnits="userSpaceOnUse">
<stop stop-color="#5857A5"/>
<stop offset="1" stop-color="#3EAAE0"/>
</linearGradient>
<linearGradient id="paint23_linear_335_44618" x1="152.432" y1="145.488" x2="251.298" y2="145.488" gradientUnits="userSpaceOnUse">
<stop stop-color="#5857A5"/>
<stop offset="1" stop-color="#3EAAE0"/>
</linearGradient>
<linearGradient id="paint24_linear_335_44618" x1="152.431" y1="119.236" x2="343.945" y2="119.236" gradientUnits="userSpaceOnUse">
<stop stop-color="#5857A5"/>
<stop offset="1" stop-color="#3EAAE0"/>
</linearGradient>
</defs>
</svg>
