<svg width="455" height="294" viewBox="0 0 455 294" fill="none" xmlns="http://www.w3.org/2000/svg">
<path d="M441.187 260.284C440.423 255.544 391.204 212.448 411.009 133.302C411.009 133.302 215.154 196.037 215.154 231.103C215.154 247.491 203.888 255.64 203.888 260.284C203.888 275.096 254.253 291.594 326.514 291.594C396.378 291.594 443.15 272.405 441.187 260.284Z" fill="#F58E91"/>
<path d="M411.005 133.302C411.005 133.302 215.15 196.037 215.15 231.103C215.15 236.001 214.131 240.139 212.729 243.689C219.381 244.663 226.365 245.205 232.941 245.796C240.741 246.498 248.489 247.19 256.289 247.789C277.699 245.451 298.473 241.681 318.94 236.478C353.987 227.573 381.362 214.483 409.986 200.852C405.5 182.471 404.327 159.937 411.005 133.302Z" fill="#F58E91"/>
<path d="M135.932 115.431C135.932 115.431 137.13 158.086 142.737 174.696C146.382 185.53 159.535 195.051 159.535 207.058C159.535 209.955 162.746 222.149 162.746 223.263C162.746 233.969 192.874 243.992 221.37 243.992C227.691 243.992 245.915 207.386 245.915 207.386L187.98 170.788L135.932 115.431Z" fill="#F58E91"/>
<path d="M454.033 91.6089V91.6647C453.803 92.8998 453.548 94.1336 453.217 95.3537C448.451 113.796 434.559 129.331 434.559 129.331C441.467 132.098 450.668 136.098 443.786 149.32C436.879 162.543 409.912 177.056 404.738 178.899C399.563 180.745 390.285 189.766 372.698 184.689C372.698 184.689 357.864 203.201 353.046 205.685C336.275 214.268 241.942 240.953 241.942 240.953C231.211 244.06 224.482 244.301 220.608 243.889C220.608 243.889 192.188 238.767 189.613 230.682C187.855 225.233 194.634 218.395 189.639 216.764C179.01 213.288 168.127 208.096 162.468 202.946C161.729 202.293 163.207 201.599 164.354 202.038C194.864 213.77 223.131 209.514 210.846 207.501C194.66 204.833 169.044 198.378 160.862 187.681L160.658 187.356C151.585 174.204 188.033 138.141 189.715 137.886C189.919 137.858 202.383 133.035 221.805 125.827C270.489 107.781 362.936 74.8678 414.602 65.8457C417.89 66.8245 420.999 67.832 423.879 68.8666C437.516 73.7185 446.947 79.2098 451.331 84.742C453.115 87.0555 454.033 89.3526 454.033 91.6089Z" fill="#F6A0A6"/>
<path d="M423.878 68.8533C402.493 71.8607 371.218 80.7983 327.989 102.378C315.933 108.392 308.669 120.466 300.665 131.275C293.732 140.624 286.264 149.037 274.718 151.734C262.968 154.471 228.66 151.734 201.795 144.086C196.289 142.526 186.833 145.235 183.392 148.839C180.69 151.648 160.835 177.923 162.109 178.531C163.434 179.171 179.39 181.709 179.39 191.03C179.39 191.03 170.342 187.697 160.656 187.342C157.98 187.243 155.227 187.37 152.653 187.867C135.525 191.087 129.611 182.546 131.472 180.617C133.256 178.786 155.661 149.378 156.935 146.384C158.235 143.392 157.394 137.858 147.886 131.631C138.43 125.402 134.53 111.57 134.53 111.57C137.207 102.32 140.546 94.1911 144.497 86.9985C144.624 86.7436 144.751 86.5023 144.93 86.2474C146 84.5024 147.632 82.7561 149.696 81.026L149.747 80.9838C168.15 65.7328 224.25 51.9297 298.677 51.9297C346.672 51.9297 387.047 57.6745 414.6 65.8323C417.888 66.8112 420.997 67.8186 423.878 68.8533Z" fill="#F9BBBC"/>
<path d="M220.582 243.861L218.874 243.604C219.359 243.703 219.945 243.79 220.582 243.861Z" fill="#F9AF97"/>
<path d="M453.724 91.575C453.724 107.957 405.092 125.958 331.863 130.251C321.209 130.88 310.07 131.22 298.448 131.22C206.918 131.22 143.145 110.33 143.145 91.575C143.145 90.0482 143.578 88.5212 144.394 86.9767C145.465 84.9823 147.223 82.9892 149.594 81.0125L149.645 80.9592C168.047 65.7246 224.097 51.9297 298.448 51.9297C378.89 51.9297 437.87 68.0791 450.997 84.7137C452.781 87.0122 453.724 89.3121 453.724 91.575Z" fill="#005A7C"/>
<path d="M298.449 52.6338C220.759 52.6338 167.412 67.5194 150.716 81.3512L150.513 81.4998C148.321 83.3565 146.638 85.3033 145.644 87.1846C144.829 88.6638 144.421 90.1484 144.421 91.5975C144.421 110.028 207.684 130.561 298.449 130.561C309.689 130.561 320.879 130.237 331.737 129.596C407.285 125.165 452.451 106.798 452.451 91.5975C452.451 89.4517 451.559 87.231 449.826 84.9979C437.464 69.3093 380.191 52.6338 298.449 52.6338ZM298.449 131.924C206.18 131.924 141.872 110.672 141.872 91.5975C141.872 90.0202 142.331 88.4089 143.172 86.8111C144.242 84.8016 146.027 82.7349 148.525 80.6683L148.729 80.5087C165.627 66.4806 219.816 51.2705 298.449 51.2705C381.287 51.2705 439.478 68.3755 452.171 84.4703C454.032 86.8752 455 89.2719 455 91.5975C455 107.398 408.993 126.437 332.017 130.951C321.057 131.597 309.766 131.924 298.449 131.924Z" fill="white"/>
<path d="M427.881 38.8193L427.448 83.2797C427.371 91.8657 414.831 100.431 390.107 106.915L390.387 59.2534C390.387 59.2534 427.83 47.4065 427.881 38.8193Z" fill="#325DAB"/>
<path d="M359.393 34.4781C353.786 27.6986 331.815 22.5032 317.21 21.2926C300.667 19.9251 280.583 19.3362 258.586 24.8357L258.229 73.4254C260.854 72.7616 263.683 72.1753 266.64 71.6655C282.112 69.0058 299.673 68.5423 315.935 69.8129C329.954 70.9047 347.388 73.6682 354.729 79.5588C355.341 80.0442 356.08 80.5336 356.487 81.0298C356.666 81.2629 356.946 81.4947 357.201 81.7306C357.201 81.7306 359.801 34.9607 359.393 34.4781Z" fill="#325DAB"/>
<path d="M390.131 87.3793L340.097 74.3152L340.351 47.3154L390.36 60.3811L390.131 87.3793Z" fill="#6480C0"/>
<path d="M257.975 78.7227L207.94 65.6571L208.552 12.8916L258.586 25.9546L257.975 78.7227Z" fill="#6480C0"/>
<path d="M391.688 13.3619C439.148 28.3798 441.365 47.5405 390.439 60.388L340.354 47.306C363.243 41.5298 363.497 32.0688 340.914 26.1686C318.331 20.2696 281.475 20.1714 258.561 25.9422L208.501 12.8643C259.427 0.0155182 341.042 -2.65938 391.688 13.3619Z" fill="#466AB2"/>
<path d="M345.985 47.27L390.437 58.8837C412.638 53.1594 424.694 46.114 425.382 38.4836C426.07 30.4104 413.657 21.909 390.386 14.5461C341.346 -0.969429 263.911 1.53771 214.489 12.9236L258.61 24.4435C282.136 18.809 319.247 19.0025 342.034 24.9532C353.836 28.0356 360.284 32.2249 360.233 36.751C360.182 40.7057 355.161 44.3798 345.985 47.27ZM390.437 61.7616C390.055 61.7616 389.672 61.7151 389.316 61.6225L339.231 48.5406C338.338 48.3115 337.778 47.8316 337.803 47.3069C337.803 46.7834 338.364 46.3075 339.256 46.0839C349.298 43.5497 355.085 40.14 355.136 36.7318C355.187 33.3128 349.732 29.9987 339.791 27.403C317.846 21.6746 281.907 21.5777 259.655 27.1849C258.941 27.3608 258.126 27.3594 257.437 27.1767L207.378 14.0989C206.485 13.8698 205.951 13.3899 205.951 12.865C205.951 12.3417 206.511 11.8658 207.403 11.6422C257.667 -1.0417 340.836 -4.30128 392.96 12.1985C417.939 20.1014 431.27 29.4821 430.454 38.6119C429.69 47.4378 416.232 55.3978 391.508 61.6306C391.176 61.718 390.794 61.7616 390.437 61.7616Z" fill="#78A1D5"/>
<path d="M223.028 20.582L222.34 69.4185L257.974 78.7242L258.661 29.8877L223.028 20.582Z" fill="#005A7C"/>
<path d="M292.51 51.6367C286.673 51.6367 281.219 51.9149 276.248 52.4028H247.038V58.3794H247.064C247.778 63.5258 266.232 69.1276 292.51 69.1276C318.789 69.1276 337.243 63.5258 337.982 58.3794H338.007V52.4028H308.797C303.827 51.9149 298.373 51.6367 292.51 51.6367Z" fill="#FBAD56"/>
<path d="M247.675 58.2506L247.701 58.3296C248.389 63.2633 266.97 68.76 292.51 68.76C318.075 68.76 336.656 63.2633 337.345 58.3296L337.37 58.2437V52.7183H308.797C303.547 52.2085 298.117 51.9522 292.51 51.9522C286.928 51.9522 281.499 52.2085 276.35 52.7129L247.675 52.7183V58.2506ZM292.51 69.4417C266.053 69.4417 247.421 63.7949 246.452 58.4809L246.401 58.3541V52.3774C246.401 52.1893 246.681 52.0367 247.038 52.0367H276.248C281.346 51.5309 286.851 51.2705 292.51 51.2705C298.194 51.2705 303.699 51.5309 308.899 52.0422L338.007 52.0367C338.364 52.0367 338.644 52.1893 338.644 52.3774V58.3541L338.593 58.4932C337.599 63.8032 318.967 69.4417 292.51 69.4417Z" fill="white"/>
<path d="M252.698 62.7927C253.564 63.1908 254.508 63.5807 255.553 63.957V52.3691H252.698V62.7927Z" fill="#F387A3"/>
<path d="M305.969 52.1494V68.3656C306.937 68.2866 307.906 68.2007 308.824 68.108V52.3717H308.594C307.753 52.2885 306.861 52.219 305.969 52.1494Z" fill="#F387A3"/>
<path d="M301.127 68.7066C302.095 68.6574 303.064 68.6057 303.981 68.5416V52.0283C303.038 51.9656 302.095 51.9043 301.127 51.8564V68.7066Z" fill="#F387A3"/>
<path d="M325.339 65.2398C326.359 64.9686 327.302 64.6862 328.194 64.3946V52.3691H325.339V65.2398Z" fill="#F387A3"/>
<path d="M296.283 68.8234C297.251 68.803 298.194 68.7771 299.137 68.7417V51.7267C298.194 51.6913 297.251 51.6585 296.283 51.6367V68.8234Z" fill="#F387A3"/>
<path d="M330.181 63.6911C331.252 63.2863 332.195 62.8717 333.036 62.4464V52.3691H330.181V63.6911Z" fill="#F387A3"/>
<path d="M315.655 67.2424C316.649 67.091 317.592 66.9317 318.51 66.7625V52.3691H315.655V67.2424Z" fill="#F387A3"/>
<path d="M310.811 67.8926C311.805 67.7794 312.748 67.6596 313.666 67.5314V52.3691H310.811V67.8926Z" fill="#F387A3"/>
<path d="M320.497 66.3781C321.491 66.1777 322.434 65.969 323.352 65.7497V52.3691H320.497V66.3781Z" fill="#F387A3"/>
<path d="M267.226 66.8934C268.169 67.0543 269.113 67.2056 270.081 67.35V52.3691H267.226V66.8934Z" fill="#F387A3"/>
<path d="M286.596 68.7745C287.54 68.8058 288.483 68.8303 289.451 68.8466V51.6367C288.483 51.6544 287.54 51.6803 286.596 51.7117V68.7745Z" fill="#F387A3"/>
<path d="M291.441 51.6504V68.9054C291.797 68.9054 292.154 68.9107 292.511 68.9107C293.123 68.9107 293.709 68.9054 294.295 68.8999V51.6571C293.709 51.653 293.123 51.6367 292.511 51.6367C292.154 51.6367 291.797 51.6477 291.441 51.6504Z" fill="#F387A3"/>
<path d="M247.599 58.2721H247.624C247.777 59.4268 248.848 60.606 250.708 61.7361V52.3691H247.599V58.2721Z" fill="#F387A3"/>
<path d="M335.026 61.2713C336.453 60.2843 337.269 59.2699 337.421 58.2721H337.447V52.3691H335.026V61.2713Z" fill="#F387A3"/>
<path d="M257.566 64.6222C258.458 64.9016 259.401 65.1729 260.395 65.432V52.3691H257.566V64.6222Z" fill="#F387A3"/>
<path d="M281.752 68.5433C282.695 68.6005 283.638 68.6524 284.607 68.696V51.7832C283.638 51.8255 282.695 51.884 281.752 51.9414V68.5433Z" fill="#F387A3"/>
<path d="M262.382 65.9187C263.299 66.1286 264.268 66.3304 265.237 66.524V52.3691H262.382V65.9187Z" fill="#F387A3"/>
<path d="M272.068 67.6283C273.011 67.7509 273.954 67.8655 274.923 67.9718V52.3691H272.068V67.6283Z" fill="#F387A3"/>
<path d="M276.91 68.1683C277.853 68.2569 278.796 68.3359 279.765 68.4082V52.0762C278.796 52.1499 277.853 52.2317 276.91 52.3203V68.1683Z" fill="#F387A3"/>
<path d="M292.51 40.8701C265.722 40.8701 247.038 46.6981 247.038 51.929C247.038 57.16 265.722 62.9865 292.51 62.9865C319.324 62.9865 338.007 57.16 338.007 51.929C338.007 46.6981 319.324 40.8701 292.51 40.8701Z" fill="#FFD792"/>
<path d="M292.512 41.1856C266.08 41.1856 247.677 46.8336 247.677 51.9036C247.677 56.9723 266.08 62.6204 292.512 62.6204C318.944 62.6204 337.372 56.9723 337.372 51.9036C337.372 46.8336 318.944 41.1856 292.512 41.1856ZM292.512 63.3019C265.341 63.3019 246.403 57.2941 246.403 51.9036C246.403 46.5118 265.341 40.5039 292.512 40.5039C319.708 40.5039 338.646 46.5118 338.646 51.9036C338.646 57.2941 319.708 63.3019 292.512 63.3019Z" fill="white"/>
<path fill-rule="evenodd" clip-rule="evenodd" d="M273.139 61.5529C269.545 61.1194 266.257 60.5727 263.351 59.9442L298.194 41.3096C302.221 41.4364 306.019 41.6968 309.562 42.0635L273.139 61.5529Z" fill="#FFDFAA"/>
<path d="M272.63 61.8515C269.061 61.4071 265.799 60.8522 262.893 60.2128L263.352 59.9674C266.258 60.596 269.546 61.1427 273.14 61.5762L272.63 61.8515ZM309.563 42.0868C306.02 41.7201 302.222 41.4597 298.195 41.3328L298.781 41.0166C302.783 41.1569 306.555 41.4324 310.098 41.81L309.563 42.0868Z" fill="white"/>
<path d="M292.511 62.6727C291.492 62.6727 290.473 62.6646 289.479 62.6481L323.608 44.3857C325.366 44.8056 326.972 45.2554 328.425 45.7286L296.819 62.6222C295.417 62.655 293.99 62.6727 292.511 62.6727Z" fill="#FFDFAA"/>
<path d="M292.513 63.0283C291.29 63.0283 290.067 63.0134 288.869 62.9887L289.48 62.6629C290.475 62.6794 291.494 62.6876 292.513 62.6876C293.992 62.6876 295.419 62.6698 296.821 62.6371L296.184 62.9873C294.986 63.0119 293.762 63.0283 292.513 63.0283ZM328.427 45.7434C326.974 45.2703 325.368 44.8204 323.61 44.4006L324.068 44.166C325.802 44.5887 327.382 45.0453 328.835 45.5225L328.427 45.7434Z" fill="white"/>
<path d="M208.579 16.7734L258.639 29.8526C240.312 34.4728 235.954 41.2646 247.475 47.1784L183.727 55.3145C158.085 42.152 167.823 27.0498 208.579 16.7734Z" fill="#565B70"/>
<path d="M181.535 54.1523C182.223 54.5612 182.962 54.9416 183.727 55.3315L183.345 97.9501C182.58 97.5589 181.841 97.1663 181.153 96.7723C175.265 93.1773 168.918 89.108 169.173 82.7892L169.581 40.6504C169.581 40.6504 168.918 46.4471 181.535 54.1523Z" fill="#005A7C"/>
<path d="M246.911 100.274L183.317 97.955L183.725 55.0119L247.472 46.876L246.911 100.274Z" fill="#002E44"/>
<path d="M193.667 70.7613C220.431 80.9232 260.346 86.9992 294.73 87.2529L295.469 87.2678L295.061 116.364C295.061 116.364 292.156 116.345 290.703 116.316C255.452 115.692 215.639 111.606 189.156 100.597C187.066 99.7282 185.129 98.838 183.345 97.9095L183.574 66.4316C186.557 67.9625 189.921 69.409 193.667 70.7613Z" fill="#F387A3"/>
<path d="M295.798 66.5686L295.492 87.2671L294.753 87.2522C260.471 87.1581 220.301 80.8243 193.665 70.7606C189.918 69.4083 186.554 67.9618 183.572 66.4309L247.319 58.3018C256.954 63.2396 275.79 66.2278 295.798 66.5686Z" fill="#F1617E"/>
<path d="M390.185 86.7197L390.109 106.902C364.135 113.441 333.498 116.117 303.88 116.382C300.924 116.411 298.604 116.404 295.061 116.37L295.342 96.1918C298.884 96.2123 388.91 87.0388 390.185 86.7197Z" fill="#FFD792"/>
<path d="M340.1 73.6826L390.185 86.7592C388.91 87.0781 387.636 87.3876 386.362 87.682C361.28 93.5291 329.981 96.7655 301.586 96.2448C299.522 96.2652 297.431 96.2597 295.367 96.2407V96.2271L295.622 77.9102C305.588 78.0819 315.783 77.6062 325.316 76.3887C331.051 75.6594 335.511 74.8333 340.1 73.6826Z" fill="#FBAD56"/>
<path d="M103.03 108.916C104.431 108.642 110.6 112.195 113.531 110.395C116.615 108.504 120.693 105.318 121.661 105.639C123.012 106.078 118.756 110.268 115.901 112.046C113.021 113.824 110.956 114.949 111.415 115.171C112.562 115.728 118.68 113.629 118.731 114.079C118.96 115.645 112.103 118.197 106.929 117.964C101.322 117.712 86.3853 133.481 79.7584 136.022C71.7294 139.104 63.8279 131.401 66.9885 130.06C76.2663 126.145 92.8595 118.197 94.6436 115.847C95.8164 114.313 97.3712 110.027 103.03 108.916Z" fill="#F6A0A6"/>
<path d="M36.452 133.082C51.1848 132.056 64.4132 128.907 68.6188 128.284C72.8499 127.665 83.861 135.193 78.4574 137.809C64.7444 144.44 47.9477 146.146 35.7128 146.863C21.2356 147.712 10.8105 147.103 10.4283 141.584C10.097 136.686 19.1708 134.288 36.452 133.082Z" fill="white"/>
<path d="M47.5412 274.181C48.8667 275.713 46.4454 278.174 44.0493 279.278C41.4237 280.494 25.672 287.786 15.4509 285.691C14.2021 285.437 12.9785 285.129 12.0863 284.604C10.557 283.696 12.7235 278.746 14.4313 277.857C16.6489 276.689 46.4706 272.922 47.5412 274.181Z" fill="#FFD792"/>
<path d="M29.2909 273.537C36.5301 272.036 46.0371 272.199 47.1329 273.454C48.433 274.989 44.4569 277.595 42.0608 278.711C35.2556 281.906 21.5171 285.318 16.5722 284.428C15.2977 284.206 12.9784 283.723 12.0861 283.198C10.5568 282.292 11.9588 279.12 13.7939 278.175C15.502 277.286 25.4678 274.329 29.2909 273.537Z" fill="#F1617C"/>
<path d="M25.9258 280.299C26.7158 280.299 27.3786 280.747 27.3786 281.299C27.3786 281.852 26.7158 282.3 25.9258 282.3C25.1355 282.3 24.4985 281.852 24.4985 281.299C24.4985 280.747 25.1355 280.299 25.9258 280.299Z" fill="#FFD792"/>
<path d="M16.0103 277.076L18.8652 279.098L18.1259 279.824C16.7241 280.918 16.9534 284.501 16.9534 284.501C13.64 284.368 12.4929 283.343 12.4929 283.343C11.6519 279.807 14.3025 278.448 14.3025 278.448L16.0103 277.076Z" fill="#FFD792"/>
<path d="M32.4001 275.097C32.9863 275.795 31.8903 277.747 25.5436 279.186C23.3006 279.7 20.548 280.073 18.1264 279.857C18.4321 279.326 17.9991 278.696 17.1326 278.404C16.2401 278.11 15.1698 278.227 14.303 278.48C14.8131 277.591 15.0678 276.664 15.3736 275.747C17.1576 275.909 30.5393 272.905 32.4001 275.097Z" fill="#F6A0A6"/>
<path d="M36.1474 228.93C35.7139 238.425 31.2535 274.631 31.2535 274.631C31.2535 274.631 24.6011 277.934 11.9842 275.329C11.9842 275.329 8.56859 247.996 7.44731 241.289C6.32551 234.579 8.36486 228.78 9.40989 227.523C12.2647 224.121 36.5555 219.437 36.1474 228.93Z" fill="#002E44"/>
<path d="M13.6408 178.329C16.6484 177.106 25.9517 176.389 35.3062 180.739C52.1288 188.571 35.9435 225.521 35.9435 231.757C35.9435 238.195 11.7038 237.577 8.89966 228.95C7.01361 223.156 2.45121 203.059 1.86494 199.421C1.22766 195.45 1.15142 183.38 13.6408 178.329Z" fill="#002E44"/>
<path d="M75.1961 281.432C76.5216 282.963 74.0748 285.423 71.7042 286.53C69.0792 287.744 53.3269 295.037 43.1061 292.941C41.857 292.688 40.6338 292.379 39.7415 291.854C38.2119 290.947 40.3788 285.996 42.0863 285.107C44.3039 283.939 74.1258 280.174 75.1961 281.432Z" fill="#FFD792"/>
<path d="M56.9443 280.788C64.183 279.287 73.6901 279.451 74.7864 280.705C76.0862 282.24 72.1098 284.846 69.7139 285.962C62.9085 289.161 49.1701 292.573 44.2254 291.68C42.9509 291.458 40.6315 290.974 39.7393 290.451C38.2097 289.543 39.6117 286.372 41.4468 285.427C43.1549 284.541 53.1209 281.58 56.9443 280.788Z" fill="#F1617C"/>
<path d="M53.5805 287.55C54.371 287.55 55.0335 287.998 55.0335 288.55C55.0335 289.104 54.371 289.551 53.5805 289.551C52.7907 289.551 52.1279 289.104 52.1279 288.55C52.1279 287.998 52.7907 287.55 53.5805 287.55Z" fill="#FFD792"/>
<path d="M43.6654 284.4L46.5202 286.422L45.7812 287.149C44.3792 288.242 44.6084 291.825 44.6084 291.825C41.295 291.694 40.148 290.673 40.148 290.673C39.307 287.131 41.9578 285.773 41.9578 285.773L43.6654 284.4Z" fill="#FFD792"/>
<path d="M60.0552 282.347C60.6667 283.05 59.5199 284.999 53.1985 286.437C50.9554 286.951 48.2028 287.323 45.7815 287.108C46.0873 286.576 45.654 285.948 44.7875 285.656C43.8955 285.363 42.8246 285.479 41.9581 285.732C42.4424 284.842 42.7226 283.915 43.0284 282.998C44.813 283.161 58.1944 280.155 60.0552 282.347Z" fill="#F6A0A6"/>
<path d="M63.062 236.789C62.6545 246.286 58.2701 281.882 58.2701 281.882C58.2701 281.882 51.6941 286.948 39.0775 284.341C39.0775 284.341 35.5089 255.857 34.3874 249.148C33.2403 242.438 33.9796 235.584 35.0246 234.33C37.854 230.926 63.4955 227.298 63.062 236.789Z" fill="#005A7C"/>
<path d="M36.1471 186.586C39.1547 185.362 50.6756 181.865 60.2339 186.075C73.1568 191.76 62.8847 233.375 62.8847 239.612C62.8847 246.046 38.6195 245.432 35.8414 236.805C33.9551 231.006 26.7926 205.931 26.2066 202.296C25.5693 198.325 23.632 191.634 36.1471 186.586Z" fill="#005A7C"/>
<path d="M26.9459 205.516C26.5633 204.009 26.3086 202.877 26.2066 202.296C25.5693 198.325 23.632 191.634 36.1472 186.586C39.1547 185.362 50.6756 181.865 60.2339 186.075C63.7768 187.625 54.9322 199.571 26.9459 205.516Z" fill="#002E44"/>
<path d="M5.68709 158.627C2.93452 148.77 3.80105 135.279 23.6312 135.279C33.419 135.279 65.6365 139.619 65.6365 150.751C65.6365 160.518 62.5014 182.264 67.5993 193.952C67.5993 193.952 15.1182 200.059 0.564209 191.055C0.564209 191.055 8.44019 168.484 5.68709 158.627Z" fill="#565B70"/>
<path d="M37.2673 117.446C39.1791 116.786 55.6704 116.873 55.8997 118.168C56.1037 119.469 53.7843 121.298 54.6509 122.514C55.2626 123.356 56.0019 125.173 54.7274 126.306C50.4452 130.102 47.5139 133.317 42.9005 132.59C41.7279 135.193 46.2393 138.188 45.6278 138.143C42.1612 137.888 32.4499 136.072 29.3406 135.193C30.9974 129.384 28.2955 124.985 34.0557 119.492C34.8715 118.71 35.8403 117.933 37.2673 117.446Z" fill="#F6A0A6"/>
<path d="M32.0696 111.127C32.0696 106.65 47.2608 107.614 47.0568 111.001C53.735 108.961 63.0128 113.757 56.9211 119.999C56.9211 119.999 55.6976 118.011 53.0722 118.671C53.0722 121.917 48.9686 120.089 47.5155 123.807C46.649 126.089 45.298 128.484 41.5004 129.842C38.2375 131.009 29.9027 129.815 29.9027 129.815C29.9027 126.672 19.0957 121.593 22.5113 118.253C19.1212 113.847 25.9521 110.644 32.0696 111.127Z" fill="#002E44"/>
<path d="M30.3342 132.645C34.0046 132.757 37.2924 133.097 45.1687 135.244C47.131 135.778 49.4251 137.55 49.3741 139.376L25.1853 135.251L27.4028 133.437C28.0401 132.915 29.1617 132.61 30.3342 132.645Z" fill="white"/>
<path d="M84.5224 190.024C85.593 190.467 88.3966 192.366 90.3084 192.001C94.412 191.221 99.7389 191.052 99.2549 192.009C99.0257 192.483 94.1063 193.293 92.0924 194.058C90.3084 194.734 93.1885 195.134 94.1318 195.924C96.7571 198.067 99.3822 202.264 99.9939 203.801C100.376 204.799 95.7886 202.491 94.0295 199.718C91.8632 196.306 93.163 201.211 91.7357 201.75C89.3654 202.645 81.9479 201.24 79.1953 200.673C77.6912 200.366 76.7482 198.44 77.8955 196.516C77.9975 196.362 79.5778 195.105 75.0662 192.871C65.6606 188.199 44.913 177.032 44.913 177.032L57.9631 171.827C57.9631 171.827 76.3917 186.647 84.5224 190.024Z" fill="#F6A0A6"/>
<path d="M54.2194 142.58C62.7327 143.702 64.4915 148.806 62.0447 157.647C59.9544 165.176 60.6171 170.312 60.5916 172.556C60.5406 174.8 45.9612 180.475 42.8516 177.127C35.0266 168.623 36.4794 159.883 38.4677 153.669C40.8125 146.3 44.5846 141.315 54.2194 142.58Z" fill="white"/>
</svg>
