<?xml version="1.0" encoding="UTF-8" standalone="no"?><!DOCTYPE svg PUBLIC "-//W3C//DTD SVG 1.1//EN" "http://www.w3.org/Graphics/SVG/1.1/DTD/svg11.dtd"><svg width="100%" height="100%" viewBox="0 0 625 209" version="1.1" xmlns="http://www.w3.org/2000/svg" xmlns:xlink="http://www.w3.org/1999/xlink" xml:space="preserve" xmlns:serif="http://www.serif.com/" style="fill-rule:evenodd;clip-rule:evenodd;stroke-linejoin:round;stroke-miterlimit:2;"><g id="Logo-1" serif:id="Logo 1"><g transform="matrix(0.55136,0,0,1,-9.19925,0)"><text x="315.468px" y="100.454px" style="font-family:'TwCenMT-Bold', 'Tw Cen MT', sans-serif;font-weight:700;font-size:129.151px;fill:#565f6c;">Ser<tspan x="481.826px 550.375px " y="100.454px 100.454px ">vi</tspan>cios</text></g><g transform="matrix(0.55136,0,0,1,-6.2794,7.10543e-15)"><text x="310.96px" y="192.646px" style="font-family:'TwCenMT-Bold', 'Tw Cen MT', sans-serif;font-weight:700;font-size:124.916px;fill:#fd7c16;">T<tspan x="368.295px 408.612px 474.547px " y="192.646px 192.646px 192.646px ">ran</tspan>saccionales</text></g><g><path d="M117.121,130.095l-91.755,43.673c-2.807,1.336 -5.7,-1.578 -6.461,-6.508l-14.989,-97.113c-0.761,-4.93 0.898,-10.011 3.705,-11.347l91.755,-43.673c2.807,-1.337 5.7,1.577 6.461,6.507l14.989,97.113c0.761,4.931 -0.898,10.011 -3.705,11.348" style="fill:#ff8955;fill-opacity:0.75;fill-rule:nonzero;"/><path d="M132.309,147.476l-88.517,42.704c-2.709,1.306 -5.516,-1.428 -6.272,-6.108l-14.872,-92.17c-0.755,-4.68 0.828,-9.533 3.537,-10.839l88.517,-42.704c2.708,-1.307 5.516,1.427 6.271,6.107l14.873,92.171c0.755,4.679 -0.829,9.532 -3.537,10.839" style="fill:#fcbe39;fill-opacity:0.75;fill-rule:nonzero;"/><path d="M145.015,163.076l-78.699,38.19c-2.408,1.169 -4.909,-1.252 -5.585,-5.405l-13.316,-81.818c-0.676,-4.154 0.728,-8.469 3.136,-9.638l78.699,-38.19c2.408,-1.169 4.908,1.251 5.585,5.405l13.316,81.818c0.676,4.154 -0.728,8.469 -3.136,9.638" style="fill:#fbed28;fill-opacity:0.72;fill-rule:nonzero;"/></g></g></svg>