<?xml version="1.0" encoding="UTF-8" standalone="no"?><!DOCTYPE svg PUBLIC "-//W3C//DTD SVG 1.1//EN" "http://www.w3.org/Graphics/SVG/1.1/DTD/svg11.dtd"><svg width="100%" height="100%" viewBox="0 0 1250 271" version="1.1" xmlns="http://www.w3.org/2000/svg" xmlns:xlink="http://www.w3.org/1999/xlink" xml:space="preserve" xmlns:serif="http://www.serif.com/" style="fill-rule:evenodd;clip-rule:evenodd;stroke-linejoin:round;stroke-miterlimit:2;"><path d="M80.501,166.164l-30.013,19.596l10.826,20.976l30.013,-19.596l-10.826,-20.976Zm154.909,-49.726c-2.995,-5.804 -10.44,-7.206 -16.668,-3.14c-6.229,4.067 -8.837,12.034 -5.842,17.837c-2.995,-5.803 -10.441,-7.206 -16.668,-3.139c-6.229,4.066 -8.838,12.033 -5.843,17.836c2.995,5.803 10.44,7.206 16.668,3.14c6.228,-4.067 8.838,-12.034 5.843,-17.837c2.995,5.803 10.439,7.206 16.668,3.139c6.228,-4.066 8.837,-12.033 5.842,-17.836m-12.059,-62.238l32.478,62.928c3.987,7.726 0.502,18.368 -7.789,23.782l-172.579,112.678c-8.29,5.413 -18.236,3.54 -22.223,-4.186l-32.478,-62.928l202.591,-132.274Z" style="fill:#ff9101;fill-rule:nonzero;"/><path d="M13.543,172.49l202.591,-132.273l7.217,13.983l-202.591,132.274l-7.217,-13.984Z" style="fill:#f4f6fb;"/><path d="M212.526,33.224l3.609,6.993l-202.592,132.273l-3.609,-6.992c-3.987,-7.726 -0.501,-18.368 7.79,-23.782l172.578,-112.677c8.291,-5.414 18.236,-3.541 22.224,4.185" style="fill:#ffc701;fill-rule:nonzero;"/><path d="M239.018,123.43l-60.027,39.192c-42.685,27.87 -91.88,27.081 -124.763,2l-33.468,21.852l32.477,62.928c3.988,7.726 13.933,9.599 22.225,4.185l172.578,-112.678c8.29,-5.413 11.777,-16.055 7.789,-23.781l-9.021,-17.48c3.986,7.723 0.498,18.371 -7.79,23.782" style="fill:#ffa801;fill-rule:nonzero;"/><path d="M42.347,153.684l-28.804,18.807l7.217,13.983l33.468,-21.852c-4.251,-3.242 -8.226,-6.891 -11.881,-10.938" style="fill:#d9dbe1;fill-rule:nonzero;"/><path d="M28.979,134.368l-11.255,7.348c-8.291,5.414 -11.777,16.056 -7.79,23.782l3.609,6.992l28.803,-18.806c-5.127,-5.675 -9.644,-12.103 -13.367,-19.316" style="fill:#ffa801;fill-rule:nonzero;"/><path d="M218.742,113.298c6.227,-4.066 13.673,-2.664 16.668,3.14c2.995,5.803 0.385,13.77 -5.843,17.836c-6.227,4.066 -13.673,2.664 -16.668,-3.139c-2.995,-5.803 -0.385,-13.771 5.843,-17.837" style="fill:#f4f6fb;fill-rule:nonzero;"/><path d="M196.231,127.996c6.228,-4.067 13.673,-2.664 16.668,3.139c2.995,5.803 0.386,13.77 -5.842,17.836c-6.228,4.067 -13.673,2.664 -16.668,-3.139c-2.995,-5.803 -0.386,-13.77 5.842,-17.836" style="fill:#fff;fill-rule:nonzero;"/><path d="M50.488,185.76l30.013,-19.596l10.826,20.976l-30.013,19.596l-10.826,-20.976Z" style="fill:#fff;"/><path d="M149.979,116.128l67.53,-44.091l3.609,6.992l-67.53,44.091l-3.609,-6.992Z" style="fill:#f4f6fb;"/><path d="M205.968,98.268l18.758,-12.247l3.609,6.992l-18.758,12.247l-3.609,-6.992Z" style="fill:#f4f6fb;"/><path d="M133.315,28.574c11.244,21.787 1.406,51.822 -21.974,67.087c-23.379,15.265 -51.447,9.979 -62.691,-11.808c-11.244,-21.785 -1.406,-51.822 21.973,-67.087c23.38,-15.265 51.448,-9.977 62.692,11.808" style="fill:#00054d;fill-opacity:0.91;fill-rule:nonzero;"/><path d="M107.532,56.946c-3.057,-5.922 -10.714,-7.365 -17.07,-3.215l-4.433,2.894c-3.422,2.235 -7.545,1.459 -9.19,-1.73c-1.647,-3.189 -0.201,-7.601 3.221,-9.835l11.083,-7.236c1.469,-0.96 2.087,-2.847 1.38,-4.216c-0.706,-1.369 -2.469,-1.701 -3.939,-0.741l-5.763,3.762l-2.132,-4.131c-0.706,-1.369 -2.469,-1.701 -3.939,-0.742c-1.469,0.96 -2.087,2.847 -1.38,4.216l2.132,4.131c-6.356,4.149 -9.04,12.342 -5.983,18.265c3.056,5.922 10.713,7.364 17.069,3.215l4.433,-2.895c3.422,-2.234 7.545,-1.458 9.191,1.731c1.646,3.189 0.2,7.601 -3.222,9.836l-11.082,7.236c-1.469,0.958 -2.087,2.846 -1.381,4.215c0.706,1.368 2.471,1.701 3.939,0.742l6.65,-4.342l2.132,4.131c0.706,1.369 2.469,1.701 3.939,0.742c1.469,-0.959 2.087,-2.847 1.38,-4.215l-2.153,-4.173c5.722,-4.304 8.03,-12.001 5.118,-17.645" style="fill:#fff;fill-rule:nonzero;"/><g><path d="M679.859,219.411l0,5.511l-9.9,0l0,42.939l-4.148,-0l0,-42.939l-9.942,0l-0,-5.511l23.99,0Z" style="fill:#000e57;fill-rule:nonzero;"/><path d="M688.775,247.642l0,20.219l-4.126,-0l-0,-48.45l8.659,0c1.939,0 3.614,0.31 5.025,0.93c1.411,0.62 2.576,1.516 3.496,2.688c0.919,1.172 1.6,2.586 2.042,4.243c0.442,1.657 0.663,3.511 0.663,5.562c-0,1.713 -0.171,3.313 -0.514,4.801c-0.342,1.487 -0.837,2.823 -1.486,4.006c-0.648,1.183 -1.439,2.192 -2.373,3.026c-0.934,0.834 -1.992,1.465 -3.175,1.893c0.513,0.474 0.969,1.161 1.368,2.063l8.938,19.238l-3.678,-0c-0.755,-0 -1.311,-0.462 -1.668,-1.387l-7.954,-17.31c-0.242,-0.541 -0.506,-0.93 -0.791,-1.167c-0.285,-0.236 -0.712,-0.355 -1.283,-0.355l-3.143,0Zm0,-4.767l4.341,0c1.211,0 2.277,-0.231 3.196,-0.693c0.92,-0.462 1.689,-1.116 2.31,-1.961c0.62,-0.845 1.086,-1.854 1.4,-3.026c0.314,-1.172 0.47,-2.468 0.47,-3.888c0,-2.885 -0.602,-5.06 -1.806,-6.525c-1.205,-1.465 -2.997,-2.198 -5.378,-2.198l-4.533,0l0,18.291Z" style="fill:#000e57;fill-rule:nonzero;"/><path d="M736.97,267.861l-3.208,-0c-0.37,-0 -0.67,-0.147 -0.898,-0.44c-0.228,-0.293 -0.399,-0.665 -0.513,-1.116l-2.865,-11.698l-13.748,0l-2.866,11.698c-0.099,0.406 -0.27,0.767 -0.513,1.082c-0.242,0.316 -0.541,0.474 -0.898,0.474l-3.207,-0l12.252,-48.45l4.212,0l12.252,48.45Zm-20.078,-17.987l11.439,-0l-4.81,-19.711c-0.314,-1.217 -0.621,-2.739 -0.92,-4.565c-0.157,0.925 -0.31,1.775 -0.46,2.553c-0.149,0.778 -0.295,1.459 -0.438,2.046l-4.811,19.677Z" style="fill:#000e57;fill-rule:nonzero;"/><path d="M742.978,219.411c0.37,0 0.645,0.073 0.823,0.22c0.178,0.146 0.381,0.445 0.609,0.896l17.747,36.515c-0.043,-0.587 -0.071,-1.156 -0.085,-1.708c-0.015,-0.552 -0.022,-1.087 -0.022,-1.606l0,-34.317l3.635,0l0,48.45l-2.095,-0c-0.328,-0 -0.602,-0.091 -0.823,-0.271c-0.221,-0.18 -0.439,-0.484 -0.653,-0.913l-17.725,-36.48c0.029,0.563 0.05,1.115 0.064,1.656c0.014,0.541 0.022,1.037 0.022,1.488l-0,34.52l-3.635,-0l-0,-48.45l2.138,0Z" style="fill:#000e57;fill-rule:nonzero;"/><path d="M788.863,226.985c-0.128,0.338 -0.264,0.591 -0.406,0.76c-0.143,0.169 -0.328,0.254 -0.556,0.254c-0.243,-0 -0.524,-0.192 -0.845,-0.575c-0.32,-0.383 -0.727,-0.806 -1.219,-1.268c-0.491,-0.462 -1.083,-0.884 -1.774,-1.268c-0.692,-0.383 -1.529,-0.574 -2.513,-0.574c-0.926,-0 -1.746,0.197 -2.458,0.591c-0.713,0.395 -1.308,0.93 -1.786,1.606c-0.477,0.676 -0.837,1.471 -1.08,2.384c-0.242,0.913 -0.363,1.899 -0.363,2.958c-0,1.353 0.21,2.474 0.631,3.364c0.42,0.891 0.976,1.651 1.667,2.282c0.692,0.632 1.476,1.178 2.352,1.64c0.877,0.462 1.775,0.941 2.695,1.437c0.919,0.496 1.817,1.054 2.694,1.674c0.876,0.62 1.66,1.403 2.352,2.349c0.691,0.947 1.247,2.108 1.667,3.483c0.421,1.375 0.631,3.065 0.631,5.071c0,2.119 -0.228,4.108 -0.684,5.968c-0.456,1.859 -1.123,3.477 -1.999,4.852c-0.877,1.374 -1.953,2.456 -3.229,3.245c-1.276,0.789 -2.726,1.184 -4.351,1.184c-1.981,-0 -3.788,-0.57 -5.42,-1.708c-1.632,-1.138 -3.026,-2.676 -4.18,-4.615l1.197,-3.11c0.114,-0.248 0.253,-0.457 0.417,-0.626c0.164,-0.169 0.346,-0.253 0.545,-0.253c0.299,-0 0.642,0.253 1.026,0.76c0.385,0.507 0.866,1.065 1.444,1.674c0.577,0.608 1.275,1.166 2.095,1.674c0.82,0.507 1.821,0.76 3.004,0.76c0.984,0 1.86,-0.214 2.63,-0.642c0.77,-0.428 1.422,-1.031 1.957,-1.809c0.534,-0.778 0.944,-1.707 1.229,-2.789c0.285,-1.082 0.428,-2.288 0.428,-3.618c-0,-1.465 -0.211,-2.665 -0.631,-3.601c-0.421,-0.935 -0.973,-1.718 -1.657,-2.349c-0.684,-0.632 -1.465,-1.167 -2.341,-1.606c-0.877,-0.44 -1.775,-0.891 -2.695,-1.353c-0.919,-0.462 -1.817,-0.997 -2.694,-1.606c-0.876,-0.608 -1.657,-1.397 -2.341,-2.366c-0.684,-0.97 -1.237,-2.181 -1.657,-3.635c-0.421,-1.454 -0.631,-3.251 -0.631,-5.393c0,-1.713 0.21,-3.369 0.631,-4.97c0.42,-1.6 1.03,-3.02 1.828,-4.26c0.798,-1.239 1.785,-2.231 2.961,-2.975c1.176,-0.744 2.527,-1.116 4.052,-1.116c1.711,0 3.272,0.428 4.683,1.285c1.411,0.857 2.644,2.096 3.699,3.719l-1.005,3.111Z" style="fill:#000e57;fill-rule:nonzero;"/><path d="M821.042,267.861l-3.207,-0c-0.37,-0 -0.67,-0.147 -0.898,-0.44c-0.228,-0.293 -0.399,-0.665 -0.513,-1.116l-2.865,-11.698l-13.749,0l-2.865,11.698c-0.1,0.406 -0.271,0.767 -0.513,1.082c-0.242,0.316 -0.542,0.474 -0.898,0.474l-3.207,-0l12.252,-48.45l4.212,0l12.251,48.45Zm-20.077,-17.987l11.439,-0l-4.811,-19.711c-0.313,-1.217 -0.62,-2.739 -0.919,-4.565c-0.157,0.925 -0.31,1.775 -0.46,2.553c-0.149,0.778 -0.296,1.459 -0.438,2.046l-4.811,19.677Z" style="fill:#000e57;fill-rule:nonzero;"/><path d="M845.61,257.853c0.228,-0 0.435,0.146 0.62,0.439l1.625,2.807c-1.254,2.299 -2.776,4.091 -4.565,5.375c-1.789,1.285 -3.945,1.928 -6.468,1.928c-2.209,-0 -4.212,-0.603 -6.008,-1.809c-1.796,-1.206 -3.329,-2.897 -4.597,-5.072c-1.269,-2.175 -2.252,-4.784 -2.951,-7.827c-0.698,-3.043 -1.048,-6.39 -1.048,-10.041c0,-3.652 0.375,-6.999 1.123,-10.042c0.748,-3.043 1.8,-5.657 3.154,-7.844c1.354,-2.186 2.975,-3.882 4.864,-5.088c1.889,-1.206 3.974,-1.809 6.254,-1.809c2.252,0 4.195,0.552 5.827,1.657c1.632,1.104 3.082,2.603 4.351,4.497l-1.347,3.009c-0.1,0.225 -0.214,0.411 -0.342,0.558c-0.129,0.146 -0.314,0.219 -0.556,0.219c-0.185,0 -0.381,-0.107 -0.588,-0.321c-0.207,-0.214 -0.453,-0.479 -0.738,-0.794c-0.285,-0.316 -0.62,-0.654 -1.005,-1.015c-0.385,-0.36 -0.841,-0.698 -1.368,-1.014c-0.528,-0.316 -1.141,-0.58 -1.839,-0.795c-0.698,-0.214 -1.504,-0.321 -2.416,-0.321c-1.639,0 -3.14,0.445 -4.501,1.336c-1.361,0.89 -2.534,2.158 -3.517,3.803c-0.984,1.646 -1.75,3.652 -2.299,6.019c-0.549,2.366 -0.823,5.015 -0.823,7.945c0,3.02 0.274,5.714 0.823,8.08c0.549,2.367 1.297,4.367 2.245,6.002c0.948,1.634 2.071,2.879 3.368,3.736c1.297,0.856 2.694,1.284 4.191,1.284c0.912,0 1.732,-0.084 2.459,-0.253c0.727,-0.169 1.4,-0.434 2.02,-0.795c0.62,-0.36 1.198,-0.817 1.732,-1.369c0.535,-0.552 1.073,-1.212 1.614,-1.978c0.243,-0.338 0.478,-0.507 0.706,-0.507Z" style="fill:#000e57;fill-rule:nonzero;"/><path d="M874.903,257.853c0.228,-0 0.435,0.146 0.62,0.439l1.625,2.807c-1.254,2.299 -2.776,4.091 -4.565,5.375c-1.789,1.285 -3.945,1.928 -6.468,1.928c-2.209,-0 -4.212,-0.603 -6.008,-1.809c-1.796,-1.206 -3.329,-2.897 -4.597,-5.072c-1.269,-2.175 -2.252,-4.784 -2.951,-7.827c-0.698,-3.043 -1.048,-6.39 -1.048,-10.041c0,-3.652 0.375,-6.999 1.123,-10.042c0.748,-3.043 1.8,-5.657 3.154,-7.844c1.354,-2.186 2.975,-3.882 4.864,-5.088c1.889,-1.206 3.973,-1.809 6.254,-1.809c2.252,0 4.195,0.552 5.827,1.657c1.632,1.104 3.082,2.603 4.351,4.497l-1.347,3.009c-0.1,0.225 -0.214,0.411 -0.342,0.558c-0.129,0.146 -0.314,0.219 -0.556,0.219c-0.186,0 -0.382,-0.107 -0.588,-0.321c-0.207,-0.214 -0.453,-0.479 -0.738,-0.794c-0.285,-0.316 -0.62,-0.654 -1.005,-1.015c-0.385,-0.36 -0.841,-0.698 -1.368,-1.014c-0.528,-0.316 -1.141,-0.58 -1.839,-0.795c-0.699,-0.214 -1.504,-0.321 -2.416,-0.321c-1.639,0 -3.14,0.445 -4.501,1.336c-1.361,0.89 -2.534,2.158 -3.517,3.803c-0.984,1.646 -1.75,3.652 -2.299,6.019c-0.549,2.366 -0.823,5.015 -0.823,7.945c-0,3.02 0.274,5.714 0.823,8.08c0.549,2.367 1.297,4.367 2.245,6.002c0.948,1.634 2.071,2.879 3.368,3.736c1.297,0.856 2.694,1.284 4.191,1.284c0.912,0 1.732,-0.084 2.459,-0.253c0.726,-0.169 1.4,-0.434 2.02,-0.795c0.62,-0.36 1.197,-0.817 1.732,-1.369c0.535,-0.552 1.073,-1.212 1.614,-1.978c0.243,-0.338 0.478,-0.507 0.706,-0.507Z" style="fill:#000e57;fill-rule:nonzero;"/><rect x="883.37" y="219.411" width="4.148" height="48.449" style="fill:#000e57;fill-rule:nonzero;"/><path d="M924.188,243.653c-0,3.629 -0.364,6.959 -1.091,9.991c-0.727,3.031 -1.753,5.64 -3.079,7.827c-1.325,2.186 -2.918,3.882 -4.779,5.088c-1.86,1.206 -3.916,1.809 -6.168,1.809c-2.252,-0 -4.305,-0.603 -6.158,-1.809c-1.853,-1.206 -3.443,-2.902 -4.768,-5.088c-1.326,-2.187 -2.352,-4.796 -3.079,-7.827c-0.727,-3.032 -1.091,-6.362 -1.091,-9.991c0,-3.629 0.364,-6.959 1.091,-9.991c0.727,-3.032 1.753,-5.646 3.079,-7.844c1.325,-2.198 2.915,-3.905 4.768,-5.122c1.853,-1.217 3.906,-1.826 6.158,-1.826c2.252,0 4.308,0.609 6.168,1.826c1.861,1.217 3.454,2.924 4.779,5.122c1.326,2.198 2.352,4.812 3.079,7.844c0.727,3.032 1.091,6.362 1.091,9.991Zm-4.255,-0c-0,-2.975 -0.257,-5.646 -0.77,-8.013c-0.513,-2.367 -1.24,-4.367 -2.181,-6.001c-0.941,-1.634 -2.081,-2.891 -3.421,-3.77c-1.34,-0.879 -2.837,-1.319 -4.49,-1.319c-1.639,0 -3.129,0.44 -4.469,1.319c-1.34,0.879 -2.484,2.136 -3.432,3.77c-0.948,1.634 -1.678,3.634 -2.191,6.001c-0.513,2.367 -0.77,5.038 -0.77,8.013c-0,2.975 0.257,5.64 0.77,7.996c0.513,2.355 1.243,4.35 2.191,5.984c0.948,1.634 2.092,2.885 3.432,3.753c1.34,0.868 2.83,1.302 4.469,1.302c1.653,-0 3.15,-0.434 4.49,-1.302c1.34,-0.868 2.48,-2.119 3.421,-3.753c0.941,-1.634 1.668,-3.629 2.181,-5.984c0.513,-2.356 0.77,-5.021 0.77,-7.996Z" style="fill:#000e57;fill-rule:nonzero;"/><path d="M931.992,219.411c0.371,0 0.645,0.073 0.823,0.22c0.178,0.146 0.382,0.445 0.61,0.896l17.746,36.515c-0.042,-0.587 -0.071,-1.156 -0.085,-1.708c-0.014,-0.552 -0.021,-1.087 -0.021,-1.606l-0,-34.317l3.634,0l0,48.45l-2.095,-0c-0.328,-0 -0.602,-0.091 -0.823,-0.271c-0.221,-0.18 -0.439,-0.484 -0.652,-0.913l-17.726,-36.48c0.029,0.563 0.05,1.115 0.064,1.656c0.015,0.541 0.022,1.037 0.022,1.488l-0,34.52l-3.635,-0l-0,-48.45l2.138,0Z" style="fill:#000e57;fill-rule:nonzero;"/><path d="M987.392,267.861l-3.207,-0c-0.371,-0 -0.67,-0.147 -0.898,-0.44c-0.228,-0.293 -0.399,-0.665 -0.513,-1.116l-2.866,-11.698l-13.748,0l-2.865,11.698c-0.1,0.406 -0.271,0.767 -0.513,1.082c-0.243,0.316 -0.542,0.474 -0.898,0.474l-3.208,-0l12.252,-48.45l4.212,0l12.252,48.45Zm-20.077,-17.987l11.439,-0l-4.811,-19.711c-0.314,-1.217 -0.62,-2.739 -0.92,-4.565c-0.156,0.925 -0.31,1.775 -0.459,2.553c-0.15,0.778 -0.296,1.459 -0.439,2.046l-4.81,19.677Z" style="fill:#000e57;fill-rule:nonzero;"/><path d="M995.41,262.35l13.257,-0l-0,5.511l-17.405,-0l0,-48.45l4.148,0l0,42.939Z" style="fill:#000e57;fill-rule:nonzero;"/><path d="M1032.12,219.411l0,5.342l-14.71,0l-0,16.094l11.909,-0l0,5.139l-11.909,-0l-0,16.533l14.71,-0l0,5.342l-18.88,-0l0,-48.45l18.88,0Z" style="fill:#000e57;fill-rule:nonzero;"/><path d="M1053.78,226.985c-0.128,0.338 -0.264,0.591 -0.406,0.76c-0.143,0.169 -0.328,0.254 -0.556,0.254c-0.242,-0 -0.524,-0.192 -0.845,-0.575c-0.32,-0.383 -0.727,-0.806 -1.218,-1.268c-0.492,-0.462 -1.084,-0.884 -1.775,-1.268c-0.691,-0.383 -1.529,-0.574 -2.512,-0.574c-0.927,-0 -1.747,0.197 -2.459,0.591c-0.713,0.395 -1.308,0.93 -1.786,1.606c-0.477,0.676 -0.837,1.471 -1.079,2.384c-0.243,0.913 -0.364,1.899 -0.364,2.958c0,1.353 0.21,2.474 0.631,3.364c0.42,0.891 0.976,1.651 1.668,2.282c0.691,0.632 1.475,1.178 2.352,1.64c0.876,0.462 1.774,0.941 2.694,1.437c0.919,0.496 1.817,1.054 2.694,1.674c0.876,0.62 1.66,1.403 2.352,2.349c0.691,0.947 1.247,2.108 1.668,3.483c0.42,1.375 0.63,3.065 0.63,5.071c0,2.119 -0.228,4.108 -0.684,5.968c-0.456,1.859 -1.122,3.477 -1.999,4.852c-0.877,1.374 -1.953,2.456 -3.229,3.245c-1.276,0.789 -2.726,1.184 -4.351,1.184c-1.981,-0 -3.788,-0.57 -5.42,-1.708c-1.632,-1.138 -3.026,-2.676 -4.18,-4.615l1.197,-3.11c0.114,-0.248 0.253,-0.457 0.417,-0.626c0.164,-0.169 0.346,-0.253 0.545,-0.253c0.3,-0 0.642,0.253 1.027,0.76c0.384,0.507 0.866,1.065 1.443,1.674c0.577,0.608 1.276,1.166 2.095,1.674c0.82,0.507 1.821,0.76 3.004,0.76c0.984,0 1.861,-0.214 2.63,-0.642c0.77,-0.428 1.422,-1.031 1.957,-1.809c0.534,-0.778 0.944,-1.707 1.229,-2.789c0.285,-1.082 0.428,-2.288 0.428,-3.618c-0,-1.465 -0.21,-2.665 -0.631,-3.601c-0.42,-0.935 -0.973,-1.718 -1.657,-2.349c-0.684,-0.632 -1.465,-1.167 -2.341,-1.606c-0.877,-0.44 -1.775,-0.891 -2.694,-1.353c-0.92,-0.462 -1.818,-0.997 -2.694,-1.606c-0.877,-0.608 -1.658,-1.397 -2.342,-2.366c-0.684,-0.97 -1.236,-2.181 -1.657,-3.635c-0.42,-1.454 -0.631,-3.251 -0.631,-5.393c0,-1.713 0.211,-3.369 0.631,-4.97c0.421,-1.6 1.03,-3.02 1.828,-4.26c0.799,-1.239 1.786,-2.231 2.962,-2.975c1.176,-0.744 2.526,-1.116 4.051,-1.116c1.711,0 3.272,0.428 4.683,1.285c1.411,0.857 2.644,2.096 3.699,3.719l-1.005,3.111Z" style="fill:#000e57;fill-rule:nonzero;"/><path d="M299.274,63.799c-3.852,0 -6.889,1.58 -9.112,4.74c-2.222,3.159 -3.333,7.344 -3.333,12.553c-0,5.209 1.358,9.351 4.074,12.425c2.716,3.074 8.988,6.703 18.816,10.888c9.828,4.184 17.458,10.461 22.89,18.83c5.433,8.368 8.149,20.58 8.149,36.634c-0,16.055 -3.482,29.077 -10.445,39.069c-6.964,9.991 -16.125,14.987 -27.483,14.987c-16.396,-0 -31.163,-10.504 -44.299,-31.511l13.778,-29.206c11.161,16.909 21.483,25.363 30.965,25.363c4.247,-0 7.581,-1.58 10.001,-4.74c2.42,-3.159 3.63,-7.429 3.63,-12.809c-0,-5.38 -1.284,-9.65 -3.852,-12.809c-2.569,-3.16 -7.655,-6.362 -15.261,-9.607c-12.05,-4.953 -20.865,-11.401 -26.446,-19.342c-5.58,-7.942 -8.371,-20.41 -8.371,-37.404c0,-16.993 3.531,-30.102 10.594,-39.324c7.062,-9.223 15.877,-13.834 26.446,-13.834c6.914,-0 13.828,2.049 20.742,6.148c6.914,4.099 12.939,9.906 18.075,17.421l-11.705,29.205c-8.988,-11.785 -18.272,-17.677 -27.853,-17.677Z" style="fill:#000e57;fill-rule:nonzero;"/><path d="M435.134,32.801l0,35.61l-51.559,-0l0,36.89l46.374,0l-0,34.073l-46.374,0l0,37.147l53.189,0l-0,35.354l-76.301,0l-0,-179.074l74.671,-0Z" style="fill:#000e57;fill-rule:nonzero;"/><path d="M541.363,92.236c-0,28.693 -6.568,47.224 -19.705,55.592l26.224,64.047l-28.446,0l-22.965,-57.129l-16.001,-0l0,57.129l-23.112,0l-0,-179.074l39.261,-0c16.1,-0 27.582,4.696 34.447,14.09c6.865,9.393 10.297,24.508 10.297,45.345Zm-44.003,27.924c7.902,0 13.285,-2.22 16.149,-6.661c2.865,-4.44 4.297,-11.485 4.297,-21.135c-0,-9.65 -1.482,-16.268 -4.445,-19.854c-2.963,-3.587 -8.149,-5.38 -15.556,-5.38l-17.335,-0l0,53.03l16.89,0Z" style="fill:#000e57;fill-rule:nonzero;"/><path d="M601.367,146.804l26.372,-114.003l25.038,-0l-41.632,179.074l-19.557,0l-41.632,-179.074l25.039,-0l26.372,114.003Z" style="fill:#000e57;fill-rule:nonzero;"/><rect x="665.074" y="32.801" width="23.113" height="179.075" style="fill:#000e57;fill-rule:nonzero;"/><path d="M761.228,176.521c11.359,0 20.643,-7.771 27.854,-23.313l14.816,26.388c-11.754,22.886 -25.607,34.329 -41.559,34.329c-15.951,-0 -29.088,-8.711 -39.409,-26.131c-10.322,-17.421 -15.483,-39.41 -15.483,-65.969c0,-26.558 5.26,-48.718 15.779,-66.48c10.519,-17.762 23.384,-26.643 38.595,-26.643c16.989,-0 31.212,11.186 42.669,33.56l-14.371,28.181c-7.309,-15.713 -16.396,-23.57 -27.261,-23.57c-8.692,0 -16.124,4.911 -22.298,14.731c-6.173,9.821 -9.26,23.057 -9.26,39.709c0,16.652 2.914,30.017 8.742,40.093c5.827,10.077 12.889,15.115 21.186,15.115Z" style="fill:#000e57;fill-rule:nonzero;"/><rect x="822.121" y="32.801" width="23.113" height="179.075" style="fill:#000e57;fill-rule:nonzero;"/><path d="M949.981,121.313c-0,-15.969 -2.964,-29.589 -8.89,-40.862c-5.926,-11.272 -13.211,-16.908 -21.853,-16.908c-8.643,-0 -15.927,5.636 -21.853,16.908c-5.927,11.273 -8.89,24.893 -8.89,40.862c0,15.969 2.963,29.547 8.89,40.734c5.926,11.187 13.21,16.78 21.853,16.78c8.642,0 15.927,-5.593 21.853,-16.78c5.926,-11.187 8.89,-24.765 8.89,-40.734Zm7.852,65.84c-10.47,17.677 -23.36,26.515 -38.669,26.515c-15.31,0 -28.199,-8.838 -38.669,-26.515c-10.47,-17.677 -15.705,-39.666 -15.705,-65.968c0,-26.302 5.235,-48.291 15.705,-65.968c10.47,-17.677 23.359,-26.515 38.669,-26.515c15.309,-0 28.199,8.838 38.669,26.515c10.47,17.677 15.705,39.666 15.705,65.968c-0,26.302 -5.235,48.291 -15.705,65.968Z" style="fill:#000e57;fill-rule:nonzero;"/><path d="M1025.54,63.799c-3.852,0 -6.89,1.58 -9.112,4.74c-2.222,3.159 -3.333,7.344 -3.333,12.553c-0,5.209 1.358,9.351 4.074,12.425c2.716,3.074 8.988,6.703 18.816,10.888c9.828,4.184 17.458,10.461 22.89,18.83c5.433,8.368 8.149,20.58 8.149,36.634c-0,16.055 -3.482,29.077 -10.445,39.069c-6.964,9.991 -16.125,14.987 -27.483,14.987c-16.397,-0 -31.163,-10.504 -44.299,-31.511l13.778,-29.206c11.161,16.909 21.483,25.363 30.965,25.363c4.247,-0 7.581,-1.58 10.001,-4.74c2.42,-3.159 3.629,-7.429 3.629,-12.809c0,-5.38 -1.284,-9.65 -3.852,-12.809c-2.568,-3.16 -7.654,-6.362 -15.26,-9.607c-12.05,-4.953 -20.865,-11.401 -26.446,-19.342c-5.58,-7.942 -8.371,-20.41 -8.371,-37.404c0,-16.993 3.531,-30.102 10.593,-39.324c7.063,-9.223 15.878,-13.834 26.447,-13.834c6.914,-0 13.828,2.049 20.742,6.148c6.914,4.099 12.939,9.906 18.075,17.421l-11.705,29.205c-8.988,-11.785 -18.272,-17.677 -27.853,-17.677Z" style="fill:#000e57;fill-rule:nonzero;"/></g></svg>