<?xml version="1.0" encoding="UTF-8" standalone="no"?><!DOCTYPE svg PUBLIC "-//W3C//DTD SVG 1.1//EN" "http://www.w3.org/Graphics/SVG/1.1/DTD/svg11.dtd"><svg width="100%" height="100%" viewBox="0 0 157 59" version="1.1" xmlns="http://www.w3.org/2000/svg" xmlns:xlink="http://www.w3.org/1999/xlink" xml:space="preserve" xmlns:serif="http://www.serif.com/" style="fill-rule:evenodd;clip-rule:evenodd;stroke-linejoin:round;stroke-miterlimit:2;"><path d="M11.166,36.585l-3.946,4.321l1.423,4.626l3.946,-4.321l-1.423,-4.626Zm20.364,-10.964c-0.394,-1.28 -1.372,-1.589 -2.191,-0.693c-0.819,0.897 -1.162,2.654 -0.768,3.933c-0.394,-1.279 -1.373,-1.588 -2.191,-0.692c-0.819,0.897 -1.162,2.654 -0.768,3.933c0.393,1.28 1.372,1.589 2.191,0.692c0.818,-0.896 1.162,-2.653 0.768,-3.933c0.394,1.28 1.372,1.589 2.191,0.693c0.819,-0.897 1.162,-2.654 0.768,-3.933m-1.585,-13.724l4.269,13.876c0.524,1.703 0.066,4.05 -1.024,5.244l-22.687,24.846c-1.09,1.193 -2.397,0.78 -2.922,-0.923l-4.269,-13.876l26.633,-29.167Z" style="fill:#ff9101;fill-rule:nonzero;"/><path d="M2.363,37.98l26.633,-29.166l0.949,3.083l-26.633,29.167l-0.949,-3.084Z" style="fill:#f4f6fb;"/><path d="M28.522,7.272l0.474,1.542l-26.633,29.166l-0.474,-1.541c-0.525,-1.704 -0.066,-4.051 1.024,-5.244l22.687,-24.846c1.09,-1.194 2.397,-0.781 2.922,0.923" style="fill:#ffc701;fill-rule:nonzero;"/><path d="M32.004,27.162l-7.891,8.642c-5.611,6.146 -12.079,5.972 -16.401,0.441l-4.4,4.819l4.269,13.875c0.525,1.704 1.832,2.117 2.922,0.923l22.687,-24.845c1.09,-1.194 1.549,-3.541 1.024,-5.244l-1.186,-3.855c0.524,1.703 0.066,4.051 -1.024,5.244" style="fill:#ffa801;fill-rule:nonzero;"/><path d="M6.15,33.834l-3.787,4.146l0.949,3.084l4.4,-4.819c-0.559,-0.715 -1.082,-1.519 -1.562,-2.411" style="fill:#d9dbe1;fill-rule:nonzero;"/><path d="M4.392,29.574l-1.479,1.621c-1.09,1.193 -1.549,3.54 -1.024,5.244l0.474,1.541l3.787,-4.146c-0.674,-1.252 -1.268,-2.669 -1.758,-4.26" style="fill:#ffa801;fill-rule:nonzero;"/><path d="M29.339,24.928c0.818,-0.896 1.797,-0.587 2.191,0.693c0.394,1.279 0.051,3.036 -0.768,3.933c-0.819,0.896 -1.798,0.587 -2.191,-0.693c-0.394,-1.279 -0.051,-3.036 0.768,-3.933" style="fill:#f4f6fb;fill-rule:nonzero;"/><path d="M26.38,28.169c0.818,-0.896 1.797,-0.587 2.191,0.692c0.393,1.28 0.05,3.037 -0.768,3.933c-0.819,0.897 -1.798,0.588 -2.192,-0.692c-0.393,-1.28 -0.05,-3.036 0.769,-3.933" style="fill:#fff;fill-rule:nonzero;"/><path d="M7.22,40.906l3.946,-4.321l1.423,4.626l-3.946,4.321l-1.423,-4.626Z" style="fill:#fff;"/><path d="M20.299,25.552l8.878,-9.722l0.474,1.542l-8.877,9.722l-0.475,-1.542Z" style="fill:#f4f6fb;"/><path d="M27.66,21.614l2.466,-2.7l0.474,1.541l-2.466,2.701l-0.474,-1.542Z" style="fill:#f4f6fb;"/><path d="M18.108,6.247c1.479,4.803 0.185,11.426 -2.888,14.792c-3.074,3.366 -6.764,2.201 -8.242,-2.603c-1.478,-4.804 -0.185,-11.427 2.889,-14.793c3.073,-3.366 6.763,-2.2 8.241,2.604" style="fill:#00054d;fill-opacity:0.91;fill-rule:nonzero;"/><path d="M14.719,12.503c-0.402,-1.306 -1.408,-1.624 -2.244,-0.709l-0.583,0.638c-0.45,0.493 -0.992,0.321 -1.208,-0.382c-0.216,-0.703 -0.026,-1.676 0.423,-2.168l1.457,-1.596c0.194,-0.211 0.275,-0.628 0.182,-0.929c-0.093,-0.302 -0.325,-0.376 -0.518,-0.164l-0.757,0.83l-0.281,-0.911c-0.093,-0.302 -0.324,-0.375 -0.518,-0.164c-0.193,0.212 -0.274,0.628 -0.181,0.93l0.28,0.911c-0.835,0.915 -1.188,2.721 -0.786,4.027c0.401,1.306 1.408,1.624 2.244,0.709l0.582,-0.638c0.45,-0.493 0.992,-0.322 1.209,0.381c0.216,0.704 0.026,1.676 -0.424,2.169l-1.457,1.596c-0.193,0.211 -0.274,0.627 -0.181,0.929c0.093,0.302 0.324,0.375 0.517,0.164l0.875,-0.958l0.28,0.911c0.093,0.302 0.325,0.375 0.518,0.164c0.193,-0.212 0.274,-0.628 0.181,-0.93l-0.283,-0.92c0.752,-0.949 1.056,-2.646 0.673,-3.89" style="fill:#fff;fill-rule:nonzero;"/><path d="M106.595,52.659l0,0.563l-1.239,-0l0,4.388l-0.519,0l-0,-4.388l-1.244,-0l-0,-0.563l3.002,-0Z" style="fill:#000e57;fill-rule:nonzero;"/><path d="M107.711,55.544l-0,2.066l-0.517,0l0,-4.951l1.084,-0c0.243,-0 0.452,0.031 0.629,0.095c0.177,0.063 0.322,0.154 0.437,0.274c0.116,0.12 0.201,0.265 0.256,0.434c0.055,0.169 0.083,0.359 0.083,0.568c-0,0.175 -0.021,0.339 -0.064,0.491c-0.043,0.152 -0.105,0.288 -0.186,0.409c-0.081,0.121 -0.18,0.224 -0.297,0.31c-0.117,0.085 -0.25,0.149 -0.398,0.193c0.065,0.049 0.122,0.119 0.172,0.211l1.118,1.966l-0.46,0c-0.095,0 -0.164,-0.047 -0.209,-0.142l-0.995,-1.769c-0.031,-0.055 -0.064,-0.095 -0.099,-0.119c-0.036,-0.024 -0.089,-0.036 -0.161,-0.036l-0.393,-0Zm-0,-0.487l0.543,-0c0.152,-0 0.285,-0.024 0.4,-0.071c0.115,-0.048 0.211,-0.114 0.289,-0.201c0.078,-0.086 0.136,-0.189 0.175,-0.309c0.04,-0.12 0.059,-0.252 0.059,-0.397c0,-0.295 -0.075,-0.517 -0.226,-0.667c-0.151,-0.15 -0.375,-0.225 -0.673,-0.225l-0.567,0l-0,1.87Z" style="fill:#000e57;fill-rule:nonzero;"/><path d="M113.742,57.61l-0.401,0c-0.047,0 -0.084,-0.015 -0.113,-0.045c-0.028,-0.03 -0.05,-0.068 -0.064,-0.114l-0.358,-1.195l-1.721,-0l-0.358,1.195c-0.013,0.042 -0.034,0.078 -0.065,0.111c-0.03,0.032 -0.067,0.048 -0.112,0.048l-0.401,0l1.533,-4.951l0.527,-0l1.533,4.951Zm-2.512,-1.838l1.431,-0l-0.602,-2.015c-0.039,-0.124 -0.078,-0.28 -0.115,-0.466c-0.02,0.094 -0.039,0.181 -0.058,0.261c-0.018,0.079 -0.037,0.149 -0.054,0.209l-0.602,2.011Z" style="fill:#000e57;fill-rule:nonzero;"/><path d="M114.494,52.659c0.046,-0 0.081,0.007 0.103,0.022c0.022,0.015 0.048,0.045 0.076,0.092l2.221,3.731c-0.005,-0.06 -0.009,-0.118 -0.01,-0.174c-0.002,-0.057 -0.003,-0.111 -0.003,-0.164l-0,-3.507l0.455,-0l-0,4.951l-0.262,0c-0.041,0 -0.076,-0.009 -0.103,-0.028c-0.028,-0.018 -0.055,-0.049 -0.082,-0.093l-2.218,-3.728c0.003,0.057 0.006,0.114 0.008,0.169c0.002,0.055 0.002,0.106 0.002,0.152l0,3.528l-0.454,0l-0,-4.951l0.267,-0Z" style="fill:#000e57;fill-rule:nonzero;"/><path d="M120.236,53.433c-0.016,0.034 -0.033,0.06 -0.05,0.077c-0.018,0.018 -0.041,0.026 -0.07,0.026c-0.03,0 -0.065,-0.019 -0.106,-0.059c-0.04,-0.039 -0.091,-0.082 -0.152,-0.129c-0.062,-0.047 -0.136,-0.091 -0.222,-0.13c-0.087,-0.039 -0.192,-0.058 -0.315,-0.058c-0.116,-0 -0.218,0.02 -0.307,0.06c-0.09,0.04 -0.164,0.095 -0.224,0.164c-0.06,0.069 -0.105,0.15 -0.135,0.244c-0.03,0.093 -0.045,0.194 -0.045,0.302c-0,0.138 0.026,0.253 0.078,0.344c0.053,0.091 0.123,0.169 0.209,0.233c0.087,0.065 0.185,0.12 0.295,0.168c0.109,0.047 0.222,0.096 0.337,0.147c0.115,0.05 0.227,0.107 0.337,0.171c0.11,0.063 0.208,0.143 0.294,0.24c0.087,0.097 0.156,0.215 0.209,0.356c0.053,0.14 0.079,0.313 0.079,0.518c-0,0.216 -0.029,0.42 -0.086,0.61c-0.057,0.19 -0.14,0.355 -0.25,0.496c-0.11,0.14 -0.244,0.251 -0.404,0.331c-0.16,0.081 -0.341,0.121 -0.545,0.121c-0.248,0 -0.474,-0.058 -0.678,-0.174c-0.204,-0.116 -0.378,-0.274 -0.523,-0.472l0.15,-0.318c0.014,-0.025 0.032,-0.046 0.052,-0.064c0.021,-0.017 0.043,-0.026 0.068,-0.026c0.038,0 0.081,0.026 0.129,0.078c0.048,0.052 0.108,0.109 0.18,0.171c0.073,0.062 0.16,0.119 0.263,0.171c0.102,0.052 0.227,0.078 0.376,0.078c0.123,0 0.232,-0.022 0.329,-0.066c0.096,-0.043 0.178,-0.105 0.244,-0.184c0.067,-0.08 0.119,-0.175 0.154,-0.286c0.036,-0.11 0.054,-0.233 0.054,-0.369c-0,-0.15 -0.026,-0.273 -0.079,-0.368c-0.053,-0.096 -0.122,-0.176 -0.207,-0.24c-0.086,-0.065 -0.184,-0.12 -0.293,-0.165c-0.11,-0.044 -0.223,-0.091 -0.338,-0.138c-0.115,-0.047 -0.227,-0.102 -0.337,-0.164c-0.109,-0.062 -0.207,-0.143 -0.293,-0.242c-0.085,-0.099 -0.155,-0.223 -0.207,-0.371c-0.053,-0.149 -0.079,-0.333 -0.079,-0.551c-0,-0.175 0.026,-0.345 0.079,-0.508c0.052,-0.164 0.129,-0.309 0.229,-0.436c0.1,-0.126 0.223,-0.228 0.37,-0.304c0.147,-0.076 0.316,-0.114 0.507,-0.114c0.214,0 0.41,0.044 0.586,0.132c0.177,0.087 0.331,0.214 0.463,0.38l-0.126,0.318Z" style="fill:#000e57;fill-rule:nonzero;"/><path d="M124.264,57.61l-0.402,0c-0.046,0 -0.084,-0.015 -0.112,-0.045c-0.029,-0.03 -0.05,-0.068 -0.064,-0.114l-0.359,-1.195l-1.72,-0l-0.359,1.195c-0.013,0.042 -0.034,0.078 -0.064,0.111c-0.031,0.032 -0.068,0.048 -0.113,0.048l-0.401,0l1.533,-4.951l0.527,-0l1.534,4.951Zm-2.513,-1.838l1.432,-0l-0.602,-2.015c-0.04,-0.124 -0.078,-0.28 -0.116,-0.466c-0.019,0.094 -0.038,0.181 -0.057,0.261c-0.019,0.079 -0.037,0.149 -0.055,0.209l-0.602,2.011Z" style="fill:#000e57;fill-rule:nonzero;"/><path d="M127.338,56.587c0.029,0 0.055,0.015 0.078,0.045l0.203,0.287c-0.157,0.235 -0.347,0.418 -0.571,0.549c-0.224,0.132 -0.494,0.197 -0.81,0.197c-0.276,0 -0.527,-0.061 -0.752,-0.185c-0.224,-0.123 -0.416,-0.296 -0.575,-0.518c-0.159,-0.222 -0.282,-0.489 -0.369,-0.8c-0.088,-0.311 -0.131,-0.653 -0.131,-1.026c-0,-0.373 0.047,-0.715 0.14,-1.026c0.094,-0.311 0.225,-0.578 0.395,-0.802c0.169,-0.223 0.372,-0.397 0.609,-0.52c0.236,-0.123 0.497,-0.185 0.782,-0.185c0.282,0 0.525,0.057 0.73,0.17c0.204,0.112 0.385,0.266 0.544,0.459l-0.168,0.308c-0.013,0.023 -0.027,0.042 -0.043,0.057c-0.016,0.015 -0.04,0.022 -0.07,0.022c-0.023,0 -0.048,-0.011 -0.073,-0.033c-0.026,-0.022 -0.057,-0.049 -0.093,-0.081c-0.035,-0.032 -0.077,-0.067 -0.126,-0.104c-0.048,-0.036 -0.105,-0.071 -0.171,-0.103c-0.066,-0.032 -0.142,-0.06 -0.23,-0.081c-0.087,-0.022 -0.188,-0.033 -0.302,-0.033c-0.205,-0 -0.393,0.045 -0.564,0.136c-0.17,0.091 -0.317,0.221 -0.44,0.389c-0.123,0.168 -0.219,0.373 -0.287,0.615c-0.069,0.242 -0.103,0.513 -0.103,0.812c-0,0.309 0.034,0.584 0.103,0.826c0.068,0.242 0.162,0.446 0.281,0.613c0.118,0.167 0.259,0.294 0.421,0.382c0.162,0.088 0.337,0.131 0.525,0.131c0.114,0 0.216,-0.008 0.307,-0.026c0.091,-0.017 0.175,-0.044 0.253,-0.081c0.078,-0.037 0.15,-0.083 0.217,-0.14c0.067,-0.056 0.134,-0.124 0.202,-0.202c0.03,-0.034 0.06,-0.052 0.088,-0.052Z" style="fill:#000e57;fill-rule:nonzero;"/><path d="M131.004,56.587c0.029,0 0.054,0.015 0.078,0.045l0.203,0.287c-0.157,0.235 -0.347,0.418 -0.571,0.549c-0.224,0.132 -0.494,0.197 -0.81,0.197c-0.276,0 -0.527,-0.061 -0.752,-0.185c-0.224,-0.123 -0.416,-0.296 -0.575,-0.518c-0.159,-0.222 -0.282,-0.489 -0.369,-0.8c-0.088,-0.311 -0.131,-0.653 -0.131,-1.026c-0,-0.373 0.047,-0.715 0.14,-1.026c0.094,-0.311 0.225,-0.578 0.395,-0.802c0.169,-0.223 0.372,-0.397 0.609,-0.52c0.236,-0.123 0.497,-0.185 0.782,-0.185c0.282,0 0.525,0.057 0.729,0.17c0.205,0.112 0.386,0.266 0.545,0.459l-0.169,0.308c-0.012,0.023 -0.026,0.042 -0.042,0.057c-0.016,0.015 -0.04,0.022 -0.07,0.022c-0.023,0 -0.048,-0.011 -0.074,-0.033c-0.025,-0.022 -0.056,-0.049 -0.092,-0.081c-0.036,-0.032 -0.077,-0.067 -0.126,-0.104c-0.048,-0.036 -0.105,-0.071 -0.171,-0.103c-0.066,-0.032 -0.143,-0.06 -0.23,-0.081c-0.087,-0.022 -0.188,-0.033 -0.302,-0.033c-0.206,-0 -0.393,0.045 -0.564,0.136c-0.17,0.091 -0.317,0.221 -0.44,0.389c-0.123,0.168 -0.219,0.373 -0.287,0.615c-0.069,0.242 -0.103,0.513 -0.103,0.812c-0,0.309 0.034,0.584 0.103,0.826c0.068,0.242 0.162,0.446 0.281,0.613c0.118,0.167 0.259,0.294 0.421,0.382c0.162,0.088 0.337,0.131 0.524,0.131c0.115,0 0.217,-0.008 0.308,-0.026c0.091,-0.017 0.175,-0.044 0.253,-0.081c0.078,-0.037 0.15,-0.083 0.217,-0.14c0.067,-0.056 0.134,-0.124 0.202,-0.202c0.03,-0.034 0.06,-0.052 0.088,-0.052Z" style="fill:#000e57;fill-rule:nonzero;"/><rect x="132.064" y="52.659" width="0.519" height="4.952" style="fill:#000e57;fill-rule:nonzero;"/><path d="M137.172,55.136c-0,0.371 -0.046,0.711 -0.137,1.021c-0.091,0.31 -0.219,0.577 -0.385,0.8c-0.166,0.223 -0.365,0.397 -0.598,0.52c-0.233,0.123 -0.49,0.185 -0.772,0.185c-0.282,-0 -0.539,-0.062 -0.771,-0.185c-0.231,-0.123 -0.43,-0.297 -0.596,-0.52c-0.166,-0.223 -0.295,-0.49 -0.386,-0.8c-0.091,-0.31 -0.136,-0.65 -0.136,-1.021c-0,-0.371 0.045,-0.711 0.136,-1.021c0.091,-0.31 0.22,-0.577 0.386,-0.802c0.166,-0.224 0.365,-0.399 0.596,-0.523c0.232,-0.125 0.489,-0.187 0.771,-0.187c0.282,0 0.539,0.062 0.772,0.187c0.233,0.124 0.432,0.299 0.598,0.523c0.166,0.225 0.294,0.492 0.385,0.802c0.091,0.31 0.137,0.65 0.137,1.021Zm-0.533,0c0,-0.304 -0.032,-0.577 -0.096,-0.819c-0.064,-0.242 -0.155,-0.446 -0.273,-0.613c-0.118,-0.167 -0.26,-0.296 -0.428,-0.386c-0.168,-0.089 -0.355,-0.134 -0.562,-0.134c-0.205,-0 -0.391,0.045 -0.559,0.134c-0.168,0.09 -0.311,0.219 -0.43,0.386c-0.118,0.167 -0.21,0.371 -0.274,0.613c-0.064,0.242 -0.096,0.515 -0.096,0.819c-0,0.304 0.032,0.576 0.096,0.817c0.064,0.241 0.156,0.445 0.274,0.612c0.119,0.167 0.262,0.295 0.43,0.383c0.168,0.089 0.354,0.133 0.559,0.133c0.207,0 0.394,-0.044 0.562,-0.133c0.168,-0.088 0.31,-0.216 0.428,-0.383c0.118,-0.167 0.209,-0.371 0.273,-0.612c0.064,-0.241 0.096,-0.513 0.096,-0.817Z" style="fill:#000e57;fill-rule:nonzero;"/><path d="M138.149,52.659c0.046,-0 0.08,0.007 0.103,0.022c0.022,0.015 0.047,0.045 0.076,0.092l2.221,3.731c-0.006,-0.06 -0.009,-0.118 -0.011,-0.174c-0.002,-0.057 -0.003,-0.111 -0.003,-0.164l0,-3.507l0.455,-0l0,4.951l-0.262,0c-0.041,0 -0.075,-0.009 -0.103,-0.028c-0.028,-0.018 -0.055,-0.049 -0.082,-0.093l-2.218,-3.728c0.004,0.057 0.006,0.114 0.008,0.169c0.002,0.055 0.003,0.106 0.003,0.152l-0,3.528l-0.455,0l0,-4.951l0.268,-0Z" style="fill:#000e57;fill-rule:nonzero;"/><path d="M145.082,57.61l-0.402,0c-0.046,0 -0.084,-0.015 -0.112,-0.045c-0.029,-0.03 -0.05,-0.068 -0.064,-0.114l-0.359,-1.195l-1.72,-0l-0.359,1.195c-0.012,0.042 -0.034,0.078 -0.064,0.111c-0.031,0.032 -0.068,0.048 -0.113,0.048l-0.401,0l1.533,-4.951l0.527,-0l1.534,4.951Zm-2.513,-1.838l1.432,-0l-0.602,-2.015c-0.04,-0.124 -0.078,-0.28 -0.115,-0.466c-0.02,0.094 -0.039,0.181 -0.058,0.261c-0.019,0.079 -0.037,0.149 -0.055,0.209l-0.602,2.011Z" style="fill:#000e57;fill-rule:nonzero;"/><path d="M146.085,57.047l1.659,-0l0,0.563l-2.178,0l0,-4.951l0.519,-0l0,4.388Z" style="fill:#000e57;fill-rule:nonzero;"/><path d="M150.68,52.659l-0,0.545l-1.841,0l-0,1.645l1.49,0l0,0.525l-1.49,0l-0,1.69l1.841,0l-0,0.546l-2.363,0l-0,-4.951l2.363,-0Z" style="fill:#000e57;fill-rule:nonzero;"/><path d="M153.39,53.433c-0.016,0.034 -0.033,0.06 -0.051,0.077c-0.017,0.018 -0.041,0.026 -0.069,0.026c-0.031,0 -0.066,-0.019 -0.106,-0.059c-0.04,-0.039 -0.091,-0.082 -0.152,-0.129c-0.062,-0.047 -0.136,-0.091 -0.223,-0.13c-0.086,-0.039 -0.191,-0.058 -0.314,-0.058c-0.116,-0 -0.218,0.02 -0.308,0.06c-0.089,0.04 -0.163,0.095 -0.223,0.164c-0.06,0.069 -0.105,0.15 -0.135,0.244c-0.031,0.093 -0.046,0.194 -0.046,0.302c0,0.138 0.027,0.253 0.079,0.344c0.053,0.091 0.122,0.169 0.209,0.233c0.086,0.065 0.185,0.12 0.294,0.168c0.11,0.047 0.222,0.096 0.337,0.147c0.116,0.05 0.228,0.107 0.338,0.171c0.109,0.063 0.207,0.143 0.294,0.24c0.086,0.097 0.156,0.215 0.209,0.356c0.052,0.14 0.079,0.313 0.079,0.518c-0,0.216 -0.029,0.42 -0.086,0.61c-0.057,0.19 -0.141,0.355 -0.25,0.496c-0.11,0.14 -0.245,0.251 -0.404,0.331c-0.16,0.081 -0.341,0.121 -0.545,0.121c-0.248,0 -0.474,-0.058 -0.678,-0.174c-0.204,-0.116 -0.379,-0.274 -0.523,-0.472l0.15,-0.318c0.014,-0.025 0.031,-0.046 0.052,-0.064c0.02,-0.017 0.043,-0.026 0.068,-0.026c0.037,0 0.08,0.026 0.128,0.078c0.049,0.052 0.109,0.109 0.181,0.171c0.072,0.062 0.16,0.119 0.262,0.171c0.103,0.052 0.228,0.078 0.376,0.078c0.123,0 0.233,-0.022 0.329,-0.066c0.097,-0.043 0.178,-0.105 0.245,-0.184c0.067,-0.08 0.118,-0.175 0.154,-0.286c0.036,-0.11 0.054,-0.233 0.054,-0.369c-0,-0.15 -0.027,-0.273 -0.079,-0.368c-0.053,-0.096 -0.122,-0.176 -0.208,-0.24c-0.085,-0.065 -0.183,-0.12 -0.293,-0.165c-0.109,-0.044 -0.222,-0.091 -0.337,-0.138c-0.115,-0.047 -0.227,-0.102 -0.337,-0.164c-0.11,-0.062 -0.207,-0.143 -0.293,-0.242c-0.086,-0.099 -0.155,-0.223 -0.207,-0.371c-0.053,-0.149 -0.079,-0.333 -0.079,-0.551c-0,-0.175 0.026,-0.345 0.079,-0.508c0.052,-0.164 0.128,-0.309 0.228,-0.436c0.1,-0.126 0.224,-0.228 0.371,-0.304c0.147,-0.076 0.316,-0.114 0.507,-0.114c0.214,0 0.409,0.044 0.586,0.132c0.177,0.087 0.331,0.214 0.463,0.38l-0.126,0.318Z" style="fill:#000e57;fill-rule:nonzero;"/><path d="M41.726,17.499c-0.57,-0 -1.02,0.345 -1.348,1.036c-0.329,0.69 -0.493,1.605 -0.493,2.744c-0,1.138 0.2,2.043 0.602,2.715c0.402,0.672 1.33,1.465 2.784,2.38c1.454,0.915 2.583,2.287 3.386,4.116c0.804,1.829 1.206,4.498 1.206,8.007c-0,3.509 -0.515,6.355 -1.546,8.539c-1.03,2.184 -2.385,3.276 -4.065,3.276c-2.426,-0 -4.61,-2.296 -6.554,-6.888l2.039,-6.383c1.651,3.696 3.178,5.544 4.58,5.544c0.629,-0 1.122,-0.346 1.48,-1.036c0.358,-0.691 0.537,-1.624 0.537,-2.8c-0,-1.176 -0.19,-2.109 -0.57,-2.8c-0.38,-0.69 -1.132,-1.39 -2.258,-2.1c-1.782,-1.082 -3.086,-2.491 -3.912,-4.227c-0.826,-1.736 -1.238,-4.461 -1.238,-8.175c-0,-3.715 0.522,-6.58 1.567,-8.596c1.045,-2.016 2.349,-3.023 3.912,-3.023c1.023,-0 2.046,0.448 3.069,1.343c1.023,0.896 1.914,2.166 2.674,3.808l-1.732,6.384c-1.329,-2.576 -2.703,-3.864 -4.12,-3.864Z" style="fill:#000e57;fill-rule:nonzero;"/><path d="M61.825,10.724l-0,7.783l-7.628,-0l0,8.063l6.86,0l0,7.447l-6.86,0l0,8.12l7.869,-0l-0,7.727l-11.288,-0l-0,-39.14l11.047,-0Z" style="fill:#000e57;fill-rule:nonzero;"/><path d="M77.54,23.714c-0,6.272 -0.972,10.322 -2.915,12.151l3.879,13.999l-4.208,-0l-3.397,-12.487l-2.367,0l-0,12.487l-3.42,-0l0,-39.14l5.809,-0c2.381,-0 4.08,1.026 5.096,3.079c1.015,2.053 1.523,5.357 1.523,9.911Zm-6.51,6.104c1.169,-0 1.965,-0.486 2.389,-1.456c0.424,-0.971 0.636,-2.511 0.636,-4.62c-0,-2.109 -0.219,-3.555 -0.658,-4.339c-0.438,-0.784 -1.205,-1.176 -2.301,-1.176l-2.564,-0l-0,11.591l2.498,-0Z" style="fill:#000e57;fill-rule:nonzero;"/><path d="M86.417,35.641l3.901,-24.917l3.704,-0l-6.159,39.14l-2.893,-0l-6.159,-39.14l3.704,-0l3.902,24.917Z" style="fill:#000e57;fill-rule:nonzero;"/><rect x="95.841" y="10.724" width="3.419" height="39.14" style="fill:#000e57;fill-rule:nonzero;"/><path d="M110.066,42.137c1.681,-0 3.054,-1.699 4.121,-5.096l2.192,5.768c-1.739,5.002 -3.788,7.503 -6.148,7.503c-2.36,-0 -4.304,-1.904 -5.83,-5.712c-1.527,-3.807 -2.291,-8.614 -2.291,-14.418c0,-5.805 0.778,-10.649 2.334,-14.531c1.557,-3.882 3.46,-5.823 5.71,-5.823c2.513,-0 4.617,2.445 6.312,7.335l-2.126,6.159c-1.081,-3.434 -2.425,-5.151 -4.033,-5.151c-1.285,-0 -2.385,1.073 -3.298,3.22c-0.913,2.146 -1.37,5.039 -1.37,8.679c-0,3.639 0.431,6.56 1.293,8.763c0.862,2.202 1.907,3.304 3.134,3.304Z" style="fill:#000e57;fill-rule:nonzero;"/><rect x="119.075" y="10.724" width="3.419" height="39.14" style="fill:#000e57;fill-rule:nonzero;"/><path d="M137.99,30.07c0,-3.491 -0.438,-6.468 -1.315,-8.931c-0.877,-2.464 -1.954,-3.696 -3.233,-3.696c-1.279,-0 -2.356,1.232 -3.233,3.696c-0.877,2.463 -1.315,5.44 -1.315,8.931c0,3.49 0.438,6.458 1.315,8.903c0.877,2.445 1.954,3.668 3.233,3.668c1.279,-0 2.356,-1.223 3.233,-3.668c0.877,-2.445 1.315,-5.413 1.315,-8.903Zm1.162,14.39c-1.549,3.864 -3.456,5.796 -5.721,5.796c-2.265,-0 -4.172,-1.932 -5.721,-5.796c-1.548,-3.863 -2.323,-8.669 -2.323,-14.418c0,-5.749 0.775,-10.555 2.323,-14.419c1.549,-3.864 3.456,-5.795 5.721,-5.795c2.265,-0 4.172,1.931 5.721,5.795c1.549,3.864 2.323,8.67 2.323,14.419c0,5.749 -0.774,10.555 -2.323,14.418Z" style="fill:#000e57;fill-rule:nonzero;"/><path d="M149.168,17.499c-0.57,-0 -1.019,0.345 -1.348,1.036c-0.328,0.69 -0.493,1.605 -0.493,2.744c0,1.138 0.201,2.043 0.603,2.715c0.402,0.672 1.33,1.465 2.784,2.38c1.453,0.915 2.582,2.287 3.386,4.116c0.804,1.829 1.205,4.498 1.205,8.007c0,3.509 -0.515,6.355 -1.545,8.539c-1.03,2.184 -2.385,3.276 -4.066,3.276c-2.425,-0 -4.61,-2.296 -6.553,-6.888l2.038,-6.383c1.651,3.696 3.178,5.544 4.581,5.544c0.628,-0 1.122,-0.346 1.48,-1.036c0.358,-0.691 0.537,-1.624 0.537,-2.8c-0,-1.176 -0.19,-2.109 -0.57,-2.8c-0.38,-0.69 -1.133,-1.39 -2.258,-2.1c-1.783,-1.082 -3.087,-2.491 -3.912,-4.227c-0.826,-1.736 -1.239,-4.461 -1.239,-8.175c0,-3.715 0.523,-6.58 1.567,-8.596c1.045,-2.016 2.349,-3.023 3.913,-3.023c1.023,-0 2.046,0.448 3.068,1.343c1.023,0.896 1.915,2.166 2.674,3.808l-1.731,6.384c-1.33,-2.576 -2.703,-3.864 -4.121,-3.864Z" style="fill:#000e57;fill-rule:nonzero;"/></svg>