<?xml version="1.0" encoding="UTF-8" standalone="no"?><!DOCTYPE svg PUBLIC "-//W3C//DTD SVG 1.1//EN" "http://www.w3.org/Graphics/SVG/1.1/DTD/svg11.dtd"><svg width="100%" height="70" viewBox="0 0 417 84" version="1.1" xmlns="http://www.w3.org/2000/svg" xmlns:xlink="http://www.w3.org/1999/xlink" xml:space="preserve" xmlns:serif="http://www.serif.com/" style="fill-rule:evenodd;clip-rule:evenodd;stroke-linejoin:round;stroke-miterlimit:2;"><g><g><path d="M8.624,25.311c-0.111,-0.026 -0.374,-0.04 -0.743,-0.04c-0.386,-0 -0.785,0.017 -0.914,0.031c-0.243,0.03 -0.441,0.126 -0.573,0.277c-0.152,0.176 -0.198,0.406 -0.125,0.63c0.125,0.389 0.549,0.727 1.058,0.844c0.096,0.022 0.315,0.034 0.62,0.034c0.408,-0 0.862,-0.021 1.007,-0.036c0.236,-0.026 0.432,-0.115 0.568,-0.258c0.153,-0.162 0.21,-0.379 0.157,-0.592c-0.101,-0.407 -0.527,-0.764 -1.055,-0.89Z" style="fill:#f2942f;fill-rule:nonzero;"/><path d="M3.252,31.741c0.043,0.407 0.423,0.794 0.944,0.963c0.168,0.054 0.353,0.079 0.585,0.079c0.154,-0 0.314,-0.011 0.469,-0.022c0.065,-0.004 0.128,-0.008 0.194,-0.012c0.425,-0.025 1.067,-0.063 1.74,-0.102c1.294,-0.075 2.759,-0.16 2.961,-0.174c0.509,-0.041 0.869,-0.401 0.814,-0.818c-0.052,-0.409 -0.436,-0.789 -0.953,-0.947c-0.151,-0.046 -0.323,-0.068 -0.54,-0.068c-0.148,-0 -0.298,0.01 -0.444,0.02c-0.071,0.004 -0.14,0.008 -0.209,0.012c-0.129,0.006 -0.397,0.018 -0.744,0.034c-1.231,0.056 -3.793,0.17 -4.036,0.206c-0.497,0.075 -0.825,0.423 -0.781,0.829Z" style="fill:#f2942f;fill-rule:nonzero;"/><path d="M10.994,41.926c-0.548,0.117 -0.788,0.547 -0.744,0.909c0.052,0.423 0.43,0.806 0.938,0.955c0.249,0.073 0.545,0.059 0.856,0.023l1.637,-0.188c0.402,-0.046 0.726,-0.276 0.831,-0.586c0.103,-0.311 0.007,-0.64 -0.264,-0.905c-0.277,-0.268 -0.698,-0.429 -1.127,-0.429l-0.184,0.01c-0.091,0.009 -0.237,0.024 -0.412,0.041c-0.531,0.05 -1.334,0.127 -1.531,0.17Z" style="fill:#f2942f;fill-rule:nonzero;"/><path d="M28.891,41.304c0.031,-0.437 -0.318,-0.881 -0.831,-1.053c-0.124,-0.041 -0.25,-0.061 -0.402,-0.061c-0.132,-0 -0.265,0.015 -0.407,0.031l-0.213,0.022c-0.305,0.032 -0.94,0.098 -1.004,0.111c-0.208,0.047 -0.367,0.147 -0.473,0.297c-0.142,0.201 -0.168,0.479 -0.068,0.725c0.153,0.371 0.605,0.75 1.173,0.753l0.003,0.062l0,-0.062c0.189,0 0.844,-0.083 1.237,-0.133c0.118,-0.015 0.215,-0.027 0.274,-0.035c0.463,-0.052 0.691,-0.368 0.711,-0.657Z" style="fill:#05156c;fill-rule:nonzero;"/><path d="M27.881,47.158c0.1,-0.36 -0.093,-0.82 -0.447,-1.072c-0.219,-0.156 -0.506,-0.234 -0.851,-0.234c-0.223,-0 -0.467,0.032 -0.723,0.097c-0.393,0.101 -0.534,0.331 -0.586,0.506c-0.101,0.363 0.092,0.828 0.453,1.082c0.366,0.256 0.927,0.298 1.584,0.126c0.385,-0.102 0.523,-0.332 0.57,-0.505Z" style="fill:#05156c;fill-rule:nonzero;"/><path d="M16.161,55.461c0.089,0.02 0.178,0.03 0.276,0.03c0.174,-0 0.347,-0.031 0.53,-0.064l0.23,-0.041c0.378,-0.064 1.263,-0.217 1.426,-0.293c0.512,-0.241 0.618,-0.74 0.498,-1.099c-0.146,-0.44 -0.611,-0.778 -1.129,-0.822l-0.1,-0.004c-0.166,0 -0.339,0.031 -0.507,0.062l-0.147,0.025c-0.138,0.023 -0.28,0.042 -0.425,0.061c-0.311,0.044 -0.634,0.086 -0.917,0.168c-0.48,0.135 -0.753,0.471 -0.732,0.897c0.02,0.433 0.37,0.943 0.997,1.08Z" style="fill:#f2942f;fill-rule:nonzero;"/><path d="M11.18,49.884c0.116,0.031 0.246,0.047 0.394,0.047l0,-0c0.243,-0 0.496,-0.043 0.741,-0.083c0.088,-0.015 0.175,-0.028 0.259,-0.04c0.342,-0.051 0.684,-0.098 1.028,-0.146c0.669,-0.094 1.361,-0.191 2.036,-0.3c0.509,-0.064 0.814,-0.436 0.853,-0.771c0.047,-0.427 -0.243,-0.859 -0.724,-1.075c-0.183,-0.08 -0.376,-0.118 -0.612,-0.118c-0.215,-0 -0.435,0.032 -0.666,0.066c-0.067,0.01 -0.135,0.02 -0.203,0.028l-3.151,0.424l-0.147,0.028c-0.476,0.118 -0.756,0.413 -0.763,0.812c-0.01,0.493 0.401,0.977 0.955,1.128Z" style="fill:#f2942f;fill-rule:nonzero;"/><path d="M21.849,37.214c0.201,-0 0.411,-0.022 0.627,-0.068c0.308,-0.062 0.509,-0.215 0.579,-0.443c0.108,-0.346 -0.109,-0.827 -0.481,-1.074c-0.237,-0.158 -0.551,-0.237 -0.931,-0.237c-0.192,-0 -0.397,0.02 -0.613,0.06c-0.316,0.06 -0.521,0.212 -0.593,0.444c-0.109,0.35 0.108,0.836 0.486,1.084c0.237,0.155 0.549,0.234 0.926,0.234Z" style="fill:#05156c;fill-rule:nonzero;"/><path d="M22.867,42.569c0.206,0 0.435,-0.026 0.683,-0.079c0.407,-0.085 0.56,-0.305 0.614,-0.473c0.117,-0.355 -0.07,-0.818 -0.433,-1.077c-0.236,-0.169 -0.55,-0.254 -0.932,-0.254c-0.211,-0 -0.439,0.026 -0.679,0.078c-0.403,0.089 -0.549,0.311 -0.601,0.482c-0.11,0.356 0.091,0.83 0.455,1.082c0.231,0.16 0.532,0.241 0.893,0.241Z" style="fill:#05156c;fill-rule:nonzero;"/><path d="M21.556,31.815c0.176,-0 0.36,-0.016 0.553,-0.048c0.3,-0.052 0.49,-0.185 0.562,-0.396c0.124,-0.362 -0.143,-0.84 -0.469,-1.061c-0.25,-0.167 -0.583,-0.253 -0.994,-0.253c-0.166,0 -0.343,0.015 -0.523,0.044c-0.308,0.049 -0.503,0.182 -0.576,0.396c-0.128,0.365 0.141,0.848 0.472,1.069c0.248,0.165 0.576,0.249 0.975,0.249Z" style="fill:#05156c;fill-rule:nonzero;"/><path d="M17.334,26.867l0.032,-0c0.591,-0 4.879,-0.159 4.899,-0.16c0.203,-0.018 0.37,-0.092 0.484,-0.213c0.143,-0.152 0.192,-0.368 0.134,-0.578c-0.119,-0.424 -0.585,-0.786 -1.104,-0.86c-0.017,-0.001 -0.082,-0.002 -0.183,-0.002c-0.939,-0 -4.633,0.068 -4.942,0.11c-0.219,0.028 -0.395,0.116 -0.507,0.254c-0.142,0.178 -0.173,0.43 -0.077,0.656c0.18,0.438 0.725,0.778 1.264,0.793Z" style="fill:#05156c;fill-rule:nonzero;"/><path d="M13.565,32.336c0.248,0.738 0.989,2.936 1.111,3.295c0.02,0.061 0.002,0.08 0.083,0.075c0.183,-0.014 2.732,-0.207 3.824,-0.291c-0.253,-0.74 -0.988,-2.913 -1.114,-3.255l-0.112,-0.045c-0.203,0.007 -2.731,0.159 -3.792,0.221Z" style="fill:#f2942f;fill-rule:nonzero;"/><path d="M17.253,43.277c0.245,0.726 1.174,3.573 1.211,3.593c0.041,0.021 2.684,-0.36 3.861,-0.518c-0.248,-0.729 -1.016,-2.97 -1.15,-3.361l-0.06,-0.158c-0.133,0.014 -0.264,0.03 -0.397,0.044c-1.155,0.134 -2.31,0.267 -3.465,0.4Z" style="fill:#f2942f;fill-rule:nonzero;"/><path d="M19.153,48.917c0.243,0.725 1.007,2.983 1.142,3.387l0.068,0.2l0.319,-0.054c1.179,-0.192 2.355,-0.386 3.533,-0.579c-0.249,-0.727 -1.015,-2.965 -1.15,-3.356l-0.059,-0.157c-0.13,0.019 -0.26,0.037 -0.39,0.058c-1.154,0.166 -2.309,0.334 -3.463,0.501Z" style="fill:#05156c;fill-rule:nonzero;"/><path d="M15.365,37.675c-0,-0 1.188,3.526 1.211,3.596c0.001,0.005 2.682,-0.281 3.872,-0.405c-0.249,-0.73 -1.195,-3.524 -1.211,-3.523c-0.133,0.011 -2.714,0.232 -3.872,0.332Z" style="fill:#05156c;fill-rule:nonzero;"/><path d="M10.229,16.488c-1.171,0.093 -1.683,0.955 -1.411,1.756c0.054,0.163 2.168,6.434 2.263,6.715c0.054,0.165 0.021,0.165 0.252,0.159c1.232,-0.032 2.46,-0.064 3.691,-0.097c-0.262,-0.766 -0.523,-1.533 -0.785,-2.298c-0.092,-0.271 -0.418,-0.897 0.229,-0.915c0.084,-0.002 22.511,-0.138 22.619,-0.14c0.362,-0.002 0.546,0.261 0.634,0.487c0.52,1.337 4.263,10.998 4.508,11.629c-2.085,0.164 -7.078,0.555 -7.489,0.587c-0.536,0.042 -1.071,0.105 -1.57,0.307c-2.32,0.936 -2.266,3.362 -1.322,4.946c0.496,0.83 1.264,1.58 2.245,2.115c0.997,0.542 2.313,0.891 3.536,0.641c0.429,-0.088 9.716,-1.223 10.277,-1.292c0.379,-0.048 0.831,-0.099 1.143,-0.286c0.655,-0.391 0.234,-1.116 0.035,-1.616c-0.721,-1.809 -1.441,-3.619 -2.161,-5.43c-0.261,-0.653 -0.521,-1.306 -0.78,-1.959c-0.074,-0.186 -0.138,-0.383 -0.251,-0.56c-0.412,-0.647 -1.407,-0.969 -2.324,-0.967c0.279,0.706 0.558,1.411 0.836,2.116c0.068,0.173 0.137,0.347 0.205,0.519c0.022,0.054 0.036,0.177 0.088,0.22c0.494,0.203 0.717,-0.391 0.737,-0.661c0.082,0.396 0.03,0.987 -0.596,1.11c-0.064,0.014 -0.504,0.057 -0.509,0.046l-0.022,-0.054c-0.144,-0.368 -5.494,-13.962 -5.894,-14.979c-0.329,-0.835 -1.286,-1.578 -2.48,-1.602c-0.493,-0.01 -24.21,-0.482 -24.805,-0.493c-0.294,-0.006 -0.604,-0.027 -0.899,-0.004Zm18.948,3.388c-0.204,0.021 -0.423,0.002 -0.629,0.002c-0.524,-0.002 -1.048,-0.002 -1.572,-0.004c-1.333,-0.003 -2.665,-0.006 -3.998,-0.009c-0.442,-0.001 -0.885,-0.002 -1.329,-0.003c-0.086,0 -0.171,-0.001 -0.259,-0.001c-0.376,-0.001 -0.773,-0.309 -0.681,-0.603c0.083,-0.267 0.502,-0.214 0.774,-0.211c0.484,0.003 0.967,0.006 1.45,0.01c1.335,0.008 2.671,0.016 4.007,0.025c0.488,0.002 0.977,0.006 1.466,0.01c0.411,0.002 0.82,-0.016 1.014,0.344c0.093,0.171 0.041,0.41 -0.243,0.44Zm8.573,21.007c-1.142,0.278 -2.337,-0.194 -3.099,-0.824c-0.837,-0.692 -1.336,-1.671 -1.213,-2.613c0.109,-0.834 0.8,-1.624 1.962,-1.74c1.255,-0.128 2.422,0.511 3.109,1.253c0.584,0.631 0.923,1.423 0.839,2.196c-0.082,0.745 -0.612,1.488 -1.598,1.728Z" style="fill:#05156c;fill-rule:nonzero;"/><path d="M11.771,27.012c0.249,0.738 0.992,2.942 1.116,3.308c0.018,0.054 0.002,0.09 0.077,0.086c0.178,-0.008 2.739,-0.133 3.84,-0.186c-0.253,-0.74 -1,-2.925 -1.122,-3.279c-0.022,-0.063 -0.007,-0.069 -0.092,-0.066c-0.193,0.008 -2.738,0.098 -3.819,0.137Z" style="fill:#05156c;fill-rule:nonzero;"/><path d="M45.579,42.429c0.492,1.272 2.777,7.163 3.426,8.837c0.121,0.312 0.311,0.754 -0.248,0.861c-0.488,0.093 -0.975,0.185 -1.464,0.278c-2.148,0.41 -18.214,3.471 -20.115,3.833c-0.309,0.059 -0.784,0.15 -1.1,0.038c-0.456,-0.162 -0.587,-0.678 -0.7,-1.005c-0.146,-0.428 -0.293,-0.857 -0.441,-1.285l-0.059,-0.062c-0.112,0.019 -3.096,0.543 -3.812,0.67c0.474,1.408 2.025,6.007 2.324,6.896c0.234,0.694 0.573,1.583 1.109,1.973c0.595,0.434 1.414,0.633 2.224,0.446c0.114,-0.025 25.146,-5.813 25.296,-5.848c0.429,-0.1 0.757,-0.315 0.958,-0.623c0.431,-0.659 0.197,-1.341 -0.061,-1.997c-0.231,-0.589 -5.213,-13.246 -5.229,-13.288c-0.011,-0.03 -1.929,0.252 -2.108,0.276Zm-5.649,16.707c-1.173,0.424 -2.318,-0.382 -2.706,-1.169c-0.391,-0.784 -0.277,-1.95 0.841,-2.369c1.147,-0.429 2.289,0.335 2.699,1.103c0.426,0.799 0.333,2.017 -0.834,2.435Z" style="fill:#f2942f;fill-rule:nonzero;"/><path d="M25.191,63.824l-18.383,-4.632l15.664,-0.428c0.065,0.197 0.13,0.39 0.194,0.577c0.333,0.99 0.614,1.822 0.724,2.149c0.234,0.694 0.573,1.583 1.109,1.973c0.207,0.151 0.441,0.274 0.692,0.361Z" style="fill:#caced5;fill-rule:nonzero;"/><path d="M25.211,63.829l-0.02,-0.005c-0.251,-0.087 -0.485,-0.21 -0.692,-0.361c0.212,0.155 0.453,0.277 0.712,0.366Zm-2.545,-4.488c-0.064,-0.187 -0.129,-0.38 -0.194,-0.577c0.066,0.197 0.13,0.389 0.194,0.577Z" style="fill:#cc7f2c;fill-rule:nonzero;"/></g><g transform="matrix(1,0,0,0.828505,3.55271e-15,-44.1188)"><text x="63.618px" y="100.924px" style="font-family:'HarabaraMaisBold-HarabaraMaisBold', 'Harabara Mais Demo', sans-serif;font-size:30.011px;fill:#f2942f;">Servicios T<tspan x="216.253px " y="100.924px ">r</tspan>ansacciona<tspan x="372.999px " y="100.924px ">l</tspan>es</text></g><g transform="matrix(0.887526,0,0,1,-2.52176,0)"><text x="92.485px" y="56.28px" style="font-family:'HarabaraMaisBold-HarabaraMaisBold', 'Harabara Mais Demo', sans-serif;font-size:16.79px;fill:#05156c;">De<tspan x="111.424px 120.39px " y="56.28px 56.28px ">ve</tspan>lopers Financia<tspan x="242.185px " y="56.28px ">l</tspan> T<tspan x="262.703px " y="56.28px ">e</tspan>ch&apos;s mak<tspan x="339.215px " y="56.28px ">e</tspan>s l<tspan x="368.497px 371.99px 380.956px " y="56.28px 56.28px 56.28px ">ive</tspan>s easier</text></g></g></svg>