<?xml version="1.0" encoding="UTF-8" standalone="no"?><!DOCTYPE svg PUBLIC "-//W3C//DTD SVG 1.1//EN" "http://www.w3.org/Graphics/SVG/1.1/DTD/svg11.dtd"><svg width="100%" height="100%" viewBox="0 0 10959 10705" version="1.1" xmlns="http://www.w3.org/2000/svg" xmlns:xlink="http://www.w3.org/1999/xlink" xml:space="preserve" xmlns:serif="http://www.serif.com/" style="fill-rule:evenodd;clip-rule:evenodd;stroke-linejoin:round;stroke-miterlimit:2;"><g><g><g><path d="M4313.31,4262.67c-1.546,-602.109 -105.292,-992.702 -105.292,-992.702l-1943.88,0c-0,0 159.688,513.828 181.861,1188.46l1188.36,-711.52l678.948,515.758Z" style="fill:url(#_Linear1);fill-rule:nonzero;"/><path d="M2299.39,5687.77c-93.616,306.725 -238.901,607.038 -457.053,876.189l1943.88,-0c194.555,-394.144 321.166,-781.359 401.803,-1144.38l-635.049,-482.39l-1253.58,750.576Z" style="fill:#444445;fill-rule:nonzero;"/><path d="M5165.53,6162.11l-724.799,-550.574c-91.826,343.195 -230.765,669.776 -434.433,952.439l1943.88,0c181.861,-368.497 302.248,-770.913 379.386,-1175.5l-1164.03,773.637Z" style="fill:#6e6f71;fill-rule:nonzero;"/><path d="M6450.27,4123.36c12.978,-958.782 -133.324,-1707.98 -133.324,-1707.98l-1943.88,0c-0,0 252.286,968.158 221.366,2060.86l618.287,469.636l1237.55,-822.518Z" style="fill:url(#_Linear2);fill-rule:nonzero;"/><path d="M8480.88,1887.1l-1943.88,0c-0,0 237.761,894.252 259.975,2005.81l1815.36,-1206.49c-60.417,-485.975 -131.453,-799.319 -131.453,-799.319" style="fill:#f08800;fill-rule:nonzero;"/><path d="M6718.55,5129.93c-79.579,499.247 -226.37,994.322 -474.954,1434.04l1943.88,-0c421.372,-833.031 522.555,-1864.72 506.566,-2747.01l-1975.49,1312.97Z" style="fill:#444445;fill-rule:nonzero;"/><path d="M8727.09,2003.05l-0,466.12l615.194,-0l-4140.12,2750.39l-1586.14,-1204.84l-2507.2,1501.19l349.279,418.721l2113.17,-1265.23l1604.81,1219.04l4562.03,-3030.64l-20.627,558.158l549.814,14.581l52.849,-1427.49l-1593.05,0Z" style="fill:url(#_Linear3);fill-rule:nonzero;"/><path d="M5902.03,3725.99c-0,174.7 -158.467,278.665 -376.619,300.348l-0,215.134l-204.523,0l0,-218.03c-155.05,-18.787 -303.305,-75.078 -412.381,-153.052l107.367,-186.282c122.706,92.417 296.511,151.604 422.593,151.604c110.785,-0 177.264,-34.644 177.264,-96.726c-0,-190.592 -635.659,-79.422 -635.659,-437.509c-0,-154.5 132.917,-261.326 340.816,-290.213l0,-209.378l204.523,0l-0,203.622c138.002,11.547 270.96,51.982 369.784,106.826l-103.95,189.143c-126.082,-63.53 -276.046,-103.93 -371.533,-103.93c-90.321,-0 -151.633,27.404 -151.633,82.282c0,186.248 635.66,82.318 633.951,446.161" style="fill:#fff;fill-rule:nonzero;"/><path d="M7988.03,5791.44l155.741,144.882c-123.559,108.998 -304.729,179.285 -479.104,179.285c-284.387,0 -512.913,-144.882 -590.784,-352.847l-176.084,-0l0,-106.171l150.656,-0c-1.668,-17.202 -3.377,-35.851 -3.377,-54.499c0,-21.51 1.709,-41.573 3.377,-61.669l-150.656,-0l0,-106.137l179.461,-0c82.916,-202.243 313.192,-339.955 599.287,-339.955c172.666,-0 350.418,64.564 467.224,166.392l-155.741,160.671c-81.248,-78.905 -198.054,-130.543 -309.815,-130.543c-130.313,0 -243.742,55.947 -306.397,143.435l391.062,-0l0,106.137l-438.46,-0c-5.085,18.648 -6.794,38.745 -6.794,58.807c-0,20.097 1.709,38.746 5.085,57.361l440.169,-0l0,106.171l-392.771,-0c62.655,88.935 176.084,146.296 308.106,146.296c106.676,-0 223.482,-45.916 309.815,-117.616" style="fill:#fff;fill-rule:nonzero;"/><g><text x="2646.93px" y="7690.4px" style="font-family:'Arial-BoldMT', 'Arial', sans-serif;font-weight:700;font-size:1041.67px;fill:url(#_Linear4);">S<tspan x="3376.69px 3990.99px 4431.35px 5045.65px 5370.03px 5984.33px 6308.72px 6979.99px " y="7690.4px 7690.4px 7690.4px 7690.4px 7690.4px 7690.4px 7690.4px 7690.4px ">ervicios</tspan></text><text x="3443.81px" y="8126.91px" style="font-family:'Arial-BoldMT', 'Arial', sans-serif;font-weight:700;font-size:416.667px;fill-opacity:0.62;">T<tspan x="3689.32px 3865.47px 4111.19px 4379.69px 4625.41px 4871.13px 5116.85px 5362.57px 5492.33px 5760.84px 6029.34px 6275.06px 6404.82px 6650.54px " y="8126.91px 8126.91px 8126.91px 8126.91px 8126.91px 8126.91px 8126.91px 8126.91px 8126.91px 8126.91px 8126.91px 8126.91px 8126.91px 8126.91px ">ransaccionales</tspan></text></g></g></g></g><defs><linearGradient id="_Linear1" x1="0" y1="0" x2="1" y2="0" gradientUnits="userSpaceOnUse" gradientTransform="matrix(2049.17,0,0,1188.46,2264.14,3864.2)"><stop offset="0" style="stop-color:#fff;stop-opacity:1"/><stop offset="0.67" style="stop-color:#f9d3a0;stop-opacity:1"/><stop offset="1" style="stop-color:#f8c685;stop-opacity:1"/><stop offset="1" style="stop-color:#f08800;stop-opacity:1"/></linearGradient><linearGradient id="_Linear2" x1="0" y1="0" x2="1" y2="0" gradientUnits="userSpaceOnUse" gradientTransform="matrix(2078.02,0,0,2530.5,4373.07,3680.63)"><stop offset="0" style="stop-color:#fff;stop-opacity:1"/><stop offset="0.53" style="stop-color:#fbdeb8;stop-opacity:1"/><stop offset="1" style="stop-color:#f08800;stop-opacity:1"/></linearGradient><linearGradient id="_Linear3" x1="0" y1="0" x2="1" y2="0" gradientUnits="userSpaceOnUse" gradientTransform="matrix(9211.32,0,0,3931.58,1108.82,3968.84)"><stop offset="0" style="stop-color:#fff;stop-opacity:1"/><stop offset="0.79" style="stop-color:#f29b29;stop-opacity:1"/><stop offset="1" style="stop-color:#f08800;stop-opacity:1"/></linearGradient><linearGradient id="_Linear4" x1="0" y1="0" x2="1" y2="0" gradientUnits="userSpaceOnUse" gradientTransform="matrix(491.238,0,0,116.374,-80.226,6983.2)"><stop offset="0" style="stop-color:#fff;stop-opacity:1"/><stop offset="0" style="stop-color:#f9cb90;stop-opacity:1"/><stop offset="1" style="stop-color:#f08800;stop-opacity:1"/></linearGradient></defs></svg>