<svg width="980" height="464" viewBox="0 0 980 464" fill="none" xmlns="http://www.w3.org/2000/svg">
<path d="M551.731 56.5076C612.234 22.8555 661.43 49.8635 661.627 116.839" stroke="#F13E57" stroke-width="0.00170974" stroke-miterlimit="10" stroke-linecap="round" stroke-linejoin="round" stroke-dasharray="0.01 0.01"/>
<path d="M530.412 227.46C529.413 226.904 527.782 226.903 526.785 227.461C525.791 228.017 525.797 228.929 526.796 229.485C527.798 230.041 529.43 230.04 530.422 229.485C531.419 228.926 531.414 228.017 530.412 227.46ZM502.829 212.118C501.829 211.562 500.198 211.561 499.2 212.119C498.208 212.675 498.213 213.587 499.212 214.142L521.036 226.281C522.038 226.838 523.669 226.837 524.662 226.281C525.659 225.723 525.654 224.813 524.653 224.256L502.829 212.118ZM323.275 400.595L565.955 264.733C576.683 258.727 576.624 248.954 565.828 242.95L553.521 236.105L548.799 238.748C544.289 241.273 536.884 241.273 532.344 238.748L476.834 207.873C472.296 205.35 472.272 201.217 476.782 198.692L481.504 196.049L469.197 189.204C458.399 183.198 440.887 183.198 430.159 189.204L187.479 325.066C176.752 331.072 176.809 340.844 187.607 346.85L284.238 400.596C295.033 406.601 312.548 406.602 323.275 400.596V400.595ZM583.422 253.841C583.455 259.383 579.641 264.579 572.683 268.475L330.003 404.337C323.046 408.232 313.746 410.377 303.814 410.378C293.88 410.378 284.555 408.233 277.553 404.339L180.921 350.593C173.919 346.698 170.045 341.502 170.012 335.958C169.98 330.415 173.793 325.219 180.75 321.324L423.43 185.462C430.389 181.566 439.689 179.422 449.621 179.422C459.555 179.422 468.879 181.567 475.882 185.462L572.514 239.208C579.516 243.102 583.39 248.299 583.423 253.842" fill="#575756"/>
<path d="M524.49 224.257C525.492 224.814 525.498 225.725 524.503 226.282C523.509 226.838 521.877 226.838 520.875 226.281L499.052 214.143C498.052 213.587 498.046 212.676 499.04 212.12C500.036 211.563 501.667 211.563 502.668 212.119L524.49 224.257Z" fill="#B2B2B2"/>
<path d="M530.194 227.462C531.194 228.018 531.2 228.929 530.204 229.486C529.211 230.042 527.579 230.042 526.579 229.486C525.578 228.929 525.572 228.018 526.566 227.462C527.561 226.905 529.194 226.906 530.194 227.462Z" fill="#B2B2B2"/>
<path d="M565.679 242.95C576.476 248.955 576.534 258.727 565.806 264.733L323.126 400.596C312.398 406.602 294.887 406.601 284.09 400.596L187.459 346.85C176.661 340.844 176.604 331.073 187.332 325.068L430.011 189.205C440.74 183.199 458.25 183.199 469.048 189.205L481.354 196.05L476.633 198.693C472.123 201.218 472.147 205.35 476.687 207.874L532.196 238.748C536.736 241.274 544.141 241.273 548.651 238.749L553.372 236.106L565.678 242.951L565.679 242.95Z" fill="#EEFFF8"/>
<path d="M583.045 253.985C583.045 253.937 583.045 253.889 583.045 253.841L583.045 253.985ZM583.045 253.985L582.786 256.381L581.976 258.891L580.573 261.383L578.007 264.354L574.138 267.371L572.305 268.474L329.625 404.337L324.534 406.716L316.142 409.141L313.384 409.632C313.382 409.633 313.381 409.633 313.38 409.633L305.51 410.344L296.204 409.989L287.774 408.467L279.843 405.686L277.175 404.338L180.544 350.592C173.541 346.698 169.667 341.501 169.635 335.958L169.608 345.095C169.64 350.639 173.514 355.835 180.516 359.73L277.148 413.476L282.632 415.995L289.921 418.12L299.34 419.392L307.859 419.368L317.378 418.008L323.696 416.16L328.758 413.928L332.451 411.877L572.278 277.612L576.91 274.449L579.716 271.627L581.186 269.521C581.188 269.517 581.19 269.513 581.192 269.509L582.166 267.505L582.759 265.519C582.761 265.51 582.764 265.5 582.765 265.491L583.012 263.409L583.044 253.985H583.045Z" fill="url(#paint0_linear_428_8339)"/>
<path d="M455.584 261.242C449.547 264.622 439.731 264.622 433.657 261.244C427.581 257.864 427.549 252.387 433.586 249.007C439.619 245.629 449.44 245.627 455.516 249.007C461.589 252.385 461.618 257.864 455.584 261.242Z" fill="#81C6EF"/>
<path d="M433.784 261.244C445.86 267.96 449.884 277.473 445.837 286.036C430.506 288.323 413.443 286.108 401.368 279.392C389.29 272.674 385.264 263.16 389.313 254.597C404.645 252.311 421.705 254.525 433.784 261.244Z" fill="#81C6EF"/>
<path d="M466.298 243.095C484.315 253.116 484.41 269.367 466.507 279.39C466.423 279.437 466.34 279.483 466.256 279.529C466.118 279.605 466.056 279.639 465.993 279.673C465.844 279.754 465.766 279.796 465.687 279.838C465.579 279.895 465.494 279.94 465.408 279.985C465.275 280.054 465.213 280.087 465.151 280.119C464.995 280.199 464.926 280.235 464.857 280.269C464.72 280.339 464.635 280.381 464.55 280.424C464.132 280.63 464.064 280.663 463.997 280.695C463.844 280.768 463.758 280.809 463.673 280.85C462.955 281.183 462.869 281.222 462.783 281.261C462.051 281.584 461.961 281.623 461.871 281.661C461.749 281.713 461.676 281.744 461.601 281.775C461.135 281.969 461.047 282.005 460.96 282.04C460.21 282.338 460.131 282.369 460.051 282.399C459.892 282.46 459.82 282.488 459.748 282.515C458.952 282.81 458.876 282.837 458.801 282.864C458.021 283.138 457.932 283.168 457.842 283.199C457.049 283.462 456.957 283.492 456.864 283.522C456.069 283.77 455.977 283.798 455.886 283.826C455.072 284.066 454.983 284.092 454.895 284.117C453.892 284.394 453.815 284.414 453.736 284.435C452.92 284.646 452.804 284.676 452.686 284.705C451.907 284.894 451.753 284.93 451.598 284.965C449.544 285.431 447.751 285.765 445.934 286.037C449.981 277.473 445.957 267.96 433.881 261.244C439.954 264.621 449.771 264.621 455.808 261.242C461.842 257.864 461.813 252.384 455.739 249.006C449.663 245.627 439.843 245.629 433.809 249.006C427.773 252.386 427.805 257.864 433.881 261.244C421.802 254.525 404.742 252.311 389.41 254.597C389.89 253.58 390.485 252.576 391.195 251.592C391.337 251.394 391.475 251.21 391.617 251.025C391.819 250.766 391.893 250.674 391.967 250.583C392.336 250.139 392.436 250.022 392.538 249.907C392.794 249.618 392.852 249.555 392.91 249.491C393.383 248.99 393.425 248.946 393.467 248.904C394.027 248.348 394.07 248.306 394.113 248.265C396.584 246.151 396.647 246.103 396.71 246.055C397.273 245.635 397.337 245.588 397.402 245.541C397.983 245.13 398.052 245.082 398.122 245.034C398.719 244.633 398.792 244.585 398.866 244.537C398.978 244.464 399.034 244.428 399.091 244.391C399.483 244.143 399.559 244.095 399.636 244.048C399.742 243.983 399.805 243.943 399.87 243.904C400.272 243.661 400.351 243.614 400.431 243.567C400.528 243.51 400.6 243.469 400.672 243.427C401.087 243.189 401.169 243.142 401.252 243.096C419.155 233.073 448.277 233.073 466.298 243.095Z" fill="white"/>
<path d="M605.567 239.405C607.293 240.365 607.302 241.936 605.588 242.896L598.543 246.84L605.633 250.783C607.36 251.743 607.369 253.315 605.654 254.275C603.939 255.235 601.123 255.235 599.397 254.275L592.306 250.331L585.262 254.275C583.547 255.235 580.731 255.235 579.005 254.275C577.279 253.315 577.27 251.743 578.985 250.783L586.029 246.84L578.938 242.896C577.212 241.936 577.203 240.365 578.918 239.405C580.633 238.444 583.449 238.444 585.175 239.405L592.266 243.348L599.31 239.405C601.025 238.444 603.841 238.444 605.567 239.405Z" fill="white"/>
<path d="M623.419 247.259C623.416 247.335 623.411 247.41 623.407 247.486C623.403 247.551 623.399 247.615 623.394 247.68C623.388 247.756 623.38 247.832 623.372 247.907C623.365 247.972 623.359 248.036 623.351 248.1C623.341 248.177 623.33 248.253 623.319 248.329C623.309 248.393 623.3 248.457 623.29 248.521C623.277 248.598 623.262 248.675 623.247 248.752C623.234 248.814 623.223 248.877 623.21 248.939C623.194 249.015 623.175 249.091 623.158 249.167C623.143 249.23 623.129 249.293 623.113 249.356C623.093 249.432 623.071 249.508 623.05 249.584C623.032 249.646 623.016 249.708 622.997 249.77C622.974 249.849 622.948 249.927 622.922 250.005C622.903 250.064 622.884 250.124 622.864 250.183C622.836 250.265 622.805 250.346 622.775 250.427C622.754 250.483 622.734 250.539 622.713 250.595C622.667 250.71 622.619 250.826 622.569 250.941C622.559 250.964 622.551 250.988 622.54 251.011C622.48 251.149 622.416 251.287 622.349 251.424C622.329 251.467 622.306 251.51 622.285 251.552C622.237 251.647 622.19 251.742 622.14 251.836C622.111 251.889 622.081 251.942 622.051 251.995C622.005 252.079 621.96 252.162 621.911 252.245C621.883 252.294 621.852 252.343 621.823 252.392C621.766 252.486 621.71 252.58 621.651 252.673C621.615 252.728 621.579 252.783 621.543 252.838C621.486 252.925 621.429 253.011 621.369 253.097C621.33 253.154 621.29 253.211 621.25 253.267C621.19 253.352 621.128 253.437 621.064 253.522C621.023 253.577 620.982 253.633 620.94 253.688C620.872 253.776 620.803 253.863 620.734 253.95C620.694 254 620.655 254.05 620.614 254.099C620.488 254.252 620.359 254.404 620.225 254.554C620.203 254.579 620.179 254.604 620.157 254.63C620.043 254.756 619.926 254.882 619.806 255.008C619.762 255.054 619.717 255.1 619.673 255.146C619.562 255.259 619.449 255.371 619.334 255.483C619.294 255.522 619.255 255.561 619.215 255.599C619.061 255.746 618.904 255.891 618.742 256.036C618.683 256.088 618.622 256.14 618.561 256.193C618.483 256.261 618.406 256.329 618.326 256.396C618.261 256.451 618.194 256.505 618.129 256.559C618.049 256.624 617.97 256.69 617.889 256.755C617.82 256.81 617.751 256.864 617.681 256.918C617.599 256.982 617.517 257.046 617.433 257.11C617.361 257.164 617.288 257.217 617.216 257.271C617.131 257.334 617.046 257.396 616.96 257.458C616.884 257.513 616.807 257.566 616.73 257.62C616.643 257.681 616.557 257.742 616.468 257.802C616.39 257.856 616.31 257.909 616.23 257.962C616.14 258.022 616.05 258.081 615.959 258.141C615.877 258.194 615.794 258.245 615.711 258.298C615.618 258.357 615.526 258.415 615.431 258.474C615.346 258.525 615.26 258.577 615.174 258.628C615.079 258.686 614.983 258.743 614.886 258.8C614.733 258.889 614.579 258.978 614.422 259.066C614.087 259.254 613.744 259.435 613.397 259.612C613.305 259.659 613.213 259.705 613.122 259.751C612.81 259.906 612.494 260.058 612.174 260.206C612.132 260.225 612.091 260.246 612.048 260.265C611.691 260.428 611.326 260.584 610.959 260.737C610.864 260.776 610.769 260.814 610.675 260.853C610.362 260.98 610.045 261.103 609.725 261.223C609.656 261.249 609.587 261.276 609.517 261.302C609.139 261.44 608.757 261.574 608.372 261.702C608.279 261.733 608.184 261.763 608.09 261.793C607.83 261.878 607.567 261.959 607.303 262.039C607.053 262.115 606.802 262.189 606.549 262.26C606.335 262.321 606.122 262.38 605.907 262.438C605.651 262.506 605.393 262.572 605.135 262.636C604.918 262.69 604.702 262.743 604.483 262.794C604.221 262.855 603.958 262.913 603.694 262.97C603.475 263.016 603.257 263.064 603.037 263.108C602.768 263.162 602.498 263.212 602.227 263.262C601.986 263.306 601.746 263.351 601.504 263.392C601.395 263.41 601.285 263.428 601.176 263.446C600.805 263.506 600.433 263.562 600.059 263.614C599.996 263.623 599.933 263.633 599.87 263.641C599.444 263.699 599.016 263.75 598.586 263.798C598.479 263.81 598.371 263.821 598.264 263.832C597.998 263.86 597.731 263.883 597.464 263.907C597.133 263.937 596.801 263.963 596.468 263.987C596.259 264.002 596.05 264.017 595.84 264.029C595.493 264.05 595.145 264.066 594.797 264.08C594.601 264.087 594.406 264.097 594.21 264.103C593.908 264.112 593.607 264.116 593.305 264.12C593.093 264.123 592.882 264.128 592.671 264.128C592.348 264.129 592.025 264.124 591.702 264.119C591.511 264.116 591.321 264.116 591.13 264.111C590.834 264.104 590.539 264.09 590.243 264.078C590.037 264.069 589.83 264.064 589.623 264.053C589.305 264.036 588.987 264.013 588.67 263.991C588.487 263.978 588.304 263.969 588.122 263.954C587.736 263.923 587.352 263.885 586.968 263.847C586.856 263.835 586.743 263.826 586.63 263.814C586.135 263.761 585.641 263.701 585.15 263.634C585.07 263.623 584.991 263.609 584.912 263.598C584.49 263.539 584.07 263.476 583.652 263.407C583.477 263.378 583.304 263.344 583.13 263.313C582.81 263.256 582.49 263.2 582.172 263.137C582.006 263.104 581.842 263.067 581.675 263.033C581.326 262.96 580.979 262.886 580.633 262.806C580.441 262.762 580.25 262.714 580.059 262.667C579.744 262.59 579.43 262.511 579.119 262.427C578.852 262.356 578.586 262.283 578.322 262.208C578.223 262.179 578.123 262.151 578.023 262.122C577.625 262.005 577.23 261.882 576.84 261.754C576.765 261.73 576.691 261.704 576.617 261.679C576.293 261.571 575.971 261.459 575.653 261.344C575.545 261.305 575.437 261.265 575.329 261.225C575.076 261.131 574.826 261.032 574.577 260.933C574.405 260.865 574.233 260.798 574.063 260.728C573.82 260.627 573.581 260.522 573.342 260.417C573.186 260.349 573.027 260.281 572.872 260.21C572.612 260.091 572.356 259.967 572.101 259.842C571.973 259.78 571.844 259.72 571.717 259.656C571.339 259.466 570.966 259.269 570.601 259.066C568.501 257.898 566.763 256.605 565.386 255.229C565.135 254.979 564.897 254.726 564.671 254.471C564.217 253.96 563.813 253.44 563.455 252.912C563.098 252.384 562.788 251.848 562.527 251.306C562.461 251.171 562.399 251.035 562.34 250.899C562.161 250.491 562.01 250.08 561.885 249.667C561.844 249.529 561.806 249.392 561.77 249.253C561.557 248.425 561.452 247.59 561.455 246.754L561.445 249.767C561.433 254.221 564.483 258.681 570.592 262.079C570.958 262.282 571.33 262.478 571.709 262.669C571.835 262.733 571.966 262.793 572.093 262.855C572.348 262.98 572.603 263.104 572.863 263.223C573.019 263.294 573.178 263.362 573.335 263.431C573.574 263.536 573.812 263.64 574.054 263.741C574.224 263.811 574.397 263.878 574.569 263.946C574.734 264.012 574.896 264.08 575.062 264.143C575.147 264.176 575.234 264.206 575.32 264.238C575.428 264.278 575.536 264.317 575.644 264.357C575.963 264.472 576.283 264.583 576.607 264.692C576.682 264.716 576.756 264.743 576.831 264.767C577.222 264.895 577.616 265.017 578.014 265.135C578.113 265.164 578.214 265.192 578.314 265.221C578.484 265.27 578.653 265.32 578.825 265.367C578.919 265.393 579.016 265.415 579.11 265.44C579.421 265.523 579.735 265.603 580.051 265.68C580.242 265.727 580.432 265.775 580.624 265.819C580.97 265.899 581.318 265.973 581.667 266.046C581.798 266.073 581.926 266.105 582.057 266.131C582.092 266.138 582.128 266.143 582.163 266.15C582.481 266.213 582.802 266.269 583.122 266.326C583.296 266.357 583.468 266.391 583.643 266.42C584.06 266.489 584.481 266.551 584.903 266.611C584.978 266.622 585.053 266.635 585.129 266.645C585.133 266.646 585.137 266.646 585.141 266.647C585.632 266.714 586.125 266.774 586.621 266.827C586.739 266.84 586.858 266.849 586.976 266.861C587.354 266.899 587.733 266.937 588.113 266.967C588.123 266.968 588.132 266.969 588.142 266.97C588.313 266.983 588.485 266.991 588.657 267.004C588.976 267.026 589.295 267.049 589.615 267.066C589.821 267.077 590.027 267.082 590.233 267.091C590.529 267.103 590.825 267.117 591.121 267.124C591.146 267.125 591.17 267.126 591.194 267.127C591.362 267.131 591.529 267.129 591.696 267.132C592.018 267.137 592.34 267.142 592.662 267.141C592.874 267.141 593.085 267.136 593.297 267.133C593.598 267.129 593.899 267.125 594.2 267.116C594.256 267.114 594.313 267.115 594.368 267.113C594.509 267.108 594.649 267.098 594.789 267.092C595.137 267.078 595.484 267.063 595.832 267.042C596.041 267.029 596.25 267.015 596.458 267C596.792 266.976 597.124 266.95 597.456 266.92C597.572 266.91 597.689 266.904 597.805 266.892C597.955 266.878 598.104 266.86 598.254 266.845C598.362 266.834 598.47 266.823 598.579 266.811C599.008 266.763 599.436 266.712 599.862 266.654C599.925 266.645 599.987 266.636 600.05 266.627C600.424 266.575 600.796 266.519 601.166 266.458C601.276 266.441 601.386 266.423 601.496 266.405C601.583 266.39 601.671 266.377 601.758 266.362C601.912 266.335 602.063 266.303 602.216 266.275C602.488 266.225 602.76 266.175 603.029 266.121C603.248 266.077 603.466 266.03 603.684 265.983C603.949 265.926 604.213 265.868 604.475 265.807C604.693 265.756 604.909 265.703 605.126 265.649C605.384 265.584 605.642 265.519 605.898 265.45C606.113 265.393 606.326 265.334 606.539 265.273C606.792 265.201 607.044 265.127 607.294 265.052C607.404 265.019 607.515 264.989 607.624 264.955C607.778 264.907 607.929 264.856 608.082 264.806C608.175 264.776 608.269 264.746 608.363 264.715C608.749 264.586 609.131 264.453 609.508 264.315C609.578 264.289 609.647 264.262 609.718 264.235C610.037 264.116 610.352 263.993 610.665 263.866C610.761 263.827 610.856 263.789 610.951 263.75C611.318 263.597 611.682 263.441 612.04 263.278C612.082 263.258 612.123 263.238 612.165 263.219C612.486 263.071 612.801 262.919 613.113 262.763C613.205 262.717 613.297 262.671 613.388 262.625C613.735 262.447 614.078 262.267 614.414 262.079C614.541 262.007 614.667 261.936 614.792 261.864C614.82 261.847 614.848 261.83 614.876 261.813C614.974 261.756 615.07 261.698 615.166 261.641C615.252 261.59 615.338 261.538 615.422 261.486C615.516 261.428 615.61 261.369 615.703 261.31C615.785 261.259 615.868 261.207 615.949 261.154C616.042 261.094 616.132 261.034 616.223 260.974C616.302 260.921 616.381 260.868 616.459 260.815C616.548 260.755 616.635 260.693 616.722 260.632C616.799 260.579 616.875 260.525 616.951 260.471C617.037 260.409 617.121 260.347 617.206 260.284C617.279 260.23 617.353 260.177 617.424 260.122C617.507 260.059 617.589 259.995 617.67 259.932C617.741 259.877 617.811 259.823 617.88 259.768C617.961 259.703 618.04 259.638 618.119 259.572C618.185 259.518 618.252 259.464 618.317 259.409C618.396 259.342 618.474 259.275 618.551 259.207C618.605 259.16 618.662 259.112 618.716 259.065C618.722 259.06 618.727 259.054 618.733 259.048C618.895 258.904 619.052 258.758 619.206 258.612C619.247 258.573 619.286 258.534 619.326 258.495C619.44 258.384 619.553 258.271 619.663 258.159C619.708 258.113 619.753 258.067 619.797 258.021C619.917 257.895 620.034 257.769 620.148 257.642C620.171 257.617 620.194 257.592 620.217 257.567C620.35 257.416 620.479 257.265 620.605 257.112C620.615 257.099 620.627 257.087 620.637 257.074C620.667 257.037 620.695 256.999 620.725 256.962C620.795 256.875 620.864 256.789 620.931 256.701C620.973 256.646 621.015 256.59 621.056 256.534C621.119 256.45 621.181 256.365 621.241 256.28C621.281 256.224 621.321 256.167 621.36 256.11C621.419 256.024 621.477 255.938 621.534 255.851C621.57 255.796 621.607 255.741 621.642 255.685C621.701 255.592 621.758 255.499 621.814 255.405C621.837 255.367 621.862 255.329 621.884 255.291C621.891 255.28 621.896 255.269 621.902 255.258C621.951 255.175 621.997 255.091 622.043 255.008C622.072 254.955 622.103 254.902 622.13 254.849C622.181 254.755 622.229 254.66 622.276 254.565C622.297 254.522 622.32 254.48 622.341 254.437C622.408 254.3 622.471 254.162 622.532 254.024C622.541 254.001 622.55 253.979 622.559 253.957C622.61 253.84 622.658 253.724 622.704 253.608C622.706 253.603 622.708 253.598 622.709 253.594C622.73 253.542 622.747 253.491 622.766 253.44C622.796 253.359 622.827 253.278 622.855 253.196C622.876 253.137 622.894 253.078 622.913 253.019C622.939 252.94 622.965 252.862 622.989 252.783C623.007 252.721 623.023 252.66 623.041 252.598C623.062 252.521 623.084 252.445 623.104 252.368C623.12 252.306 623.134 252.243 623.149 252.18C623.167 252.104 623.185 252.028 623.201 251.952C623.204 251.939 623.208 251.926 623.21 251.913C623.22 251.863 623.228 251.814 623.238 251.764C623.253 251.688 623.268 251.61 623.28 251.533C623.292 251.47 623.3 251.406 623.31 251.342C623.321 251.266 623.333 251.19 623.342 251.113C623.35 251.049 623.356 250.985 623.363 250.92C623.371 250.844 623.379 250.769 623.385 250.693C623.39 250.628 623.394 250.563 623.398 250.498C623.402 250.423 623.407 250.348 623.41 250.272C623.411 250.248 623.413 250.224 623.413 250.2C623.416 250.112 623.418 250.025 623.418 249.938L623.426 246.925C623.426 247.036 623.423 247.148 623.419 247.259Z" fill="#31B28A"/>
<path d="M599.542 254.275C601.268 255.235 604.084 255.235 605.799 254.275C607.514 253.315 607.505 251.743 605.779 250.783L598.688 246.839L605.733 242.896C607.447 241.936 607.439 240.364 605.713 239.404C603.987 238.444 601.171 238.444 599.456 239.404L592.411 243.348L585.32 239.404C583.594 238.444 580.778 238.444 579.063 239.404C577.349 240.364 577.358 241.936 579.084 242.896L586.175 246.839L579.13 250.784C577.415 251.743 577.424 253.315 579.15 254.275C580.877 255.235 583.692 255.235 585.407 254.275L592.452 250.331L599.542 254.275ZM614.271 234.613C626.411 241.365 626.475 252.314 614.414 259.066C602.353 265.818 582.732 265.818 570.592 259.066C558.452 252.314 558.388 241.365 570.449 234.613C582.51 227.861 602.131 227.861 614.271 234.613Z" fill="#77FFD0"/>
<path d="M623.876 204.633C629.462 207.74 629.489 212.822 623.942 215.927C618.395 219.032 609.289 219.034 603.703 215.927C598.12 212.822 598.091 207.739 603.637 204.633C609.183 201.528 618.293 201.528 623.876 204.633Z" fill="#DADADA"/>
<path d="M663.951 226.925C669.534 230.03 669.563 235.113 664.017 238.218C658.47 241.323 649.361 241.323 643.778 238.218C638.195 235.113 638.165 230.03 643.712 226.925C649.258 223.819 658.368 223.819 663.951 226.925Z" fill="#DADADA"/>
<path d="M701.596 205.689C707.179 208.794 707.209 213.877 701.663 216.982C696.112 220.09 687.006 220.087 681.424 216.982C675.841 213.877 675.808 208.796 681.358 205.689C686.904 202.584 696.014 202.584 701.596 205.689Z" fill="#DADADA"/>
<path d="M661.522 183.398C667.109 186.505 667.135 191.586 661.588 194.691C656.038 197.798 646.936 197.798 641.35 194.691C635.767 191.586 635.733 186.505 641.283 183.398C646.83 180.292 655.939 180.292 661.522 183.398Z" fill="#DADADA"/>
<path d="M699.575 162.162C705.162 165.269 705.188 170.351 699.638 173.458C694.091 176.563 684.985 176.565 679.399 173.458C673.816 170.353 673.787 165.269 679.333 162.164C684.883 159.057 693.993 159.057 699.575 162.162Z" fill="#DADADA"/>
<path d="M739.65 184.453C745.233 187.558 745.262 192.642 739.712 195.749C734.166 198.854 725.056 198.854 719.473 195.749C713.89 192.644 713.861 187.56 719.407 184.455C724.957 181.348 734.067 181.348 739.65 184.453Z" fill="#DADADA"/>
<path d="M576.111 178.259C581.697 181.366 581.727 186.45 576.18 189.555C570.633 192.66 561.524 192.66 555.938 189.553C550.355 186.448 550.325 181.365 555.871 178.259C561.418 175.154 570.527 175.154 576.111 178.259Z" fill="#DADADA"/>
<path d="M614.162 157.024C619.749 160.131 619.779 165.214 614.232 168.319C608.682 171.426 599.576 171.424 593.99 168.317C588.407 165.212 588.374 160.131 593.923 157.024C599.47 153.918 608.58 153.918 614.162 157.024Z" fill="#DADADA"/>
<path d="M625.9 195.403C631.486 198.511 631.512 203.592 625.965 206.697C620.419 209.802 611.313 209.804 605.727 206.697C600.144 203.592 600.114 198.509 605.66 195.403C611.207 192.298 620.316 192.298 625.9 195.403" fill="#EDEDED"/>
<path d="M665.974 217.695C671.557 220.8 671.587 225.883 666.04 228.988C660.494 232.093 651.384 232.093 645.801 228.988C640.218 225.883 640.189 220.8 645.735 217.695C651.282 214.589 660.391 214.589 665.974 217.695Z" fill="#EDEDED"/>
<path d="M703.62 196.459C709.203 199.564 709.233 204.648 703.687 207.753C698.136 210.86 689.03 210.858 683.448 207.753C677.865 204.648 677.832 199.566 683.381 196.459C688.928 193.354 698.038 193.354 703.62 196.459Z" fill="#EDEDED"/>
<path d="M663.547 174.168C669.133 177.275 669.159 182.356 663.613 185.461C658.063 188.568 648.96 188.568 643.374 185.461C637.791 182.356 637.758 177.275 643.308 174.168C648.854 171.063 657.964 171.063 663.547 174.168Z" fill="#EDEDED"/>
<path d="M701.599 152.932C707.185 156.039 707.212 161.121 701.661 164.228C696.115 167.333 687.009 167.335 681.422 164.228C675.839 161.123 675.81 156.039 681.356 152.934C686.907 149.827 696.016 149.827 701.599 152.932Z" fill="#EDEDED"/>
<path d="M741.674 175.223C747.257 178.328 747.287 183.412 741.737 186.519C736.19 189.624 727.081 189.624 721.497 186.519C715.915 183.414 715.885 178.331 721.432 175.225C726.982 172.118 736.091 172.118 741.674 175.223Z" fill="#EDEDED"/>
<path d="M578.54 169.029C584.126 172.136 584.156 177.22 578.609 180.325C573.063 183.43 563.953 183.43 558.367 180.323C552.784 177.218 552.754 172.135 558.301 169.029C563.847 165.924 572.957 165.924 578.54 169.029Z" fill="#EDEDED"/>
<path d="M616.186 147.794C621.772 150.901 621.802 155.984 616.255 159.09C610.705 162.197 601.599 162.195 596.013 159.088C590.43 155.983 590.397 150.901 595.947 147.794C601.493 144.689 610.603 144.689 616.186 147.794Z" fill="#EDEDED"/>
<path d="M663.836 142.078C665.354 142.922 665.47 144.259 664.198 145.18C664.092 145.257 663.98 145.33 663.853 145.402L651.555 152.287C649.923 153.2 647.244 153.2 645.601 152.287L628.26 142.641C626.617 141.728 626.608 140.233 628.24 139.319L640.538 132.434C642.17 131.521 644.852 131.519 646.495 132.433L663.836 142.078Z" fill="#DADADA"/>
<path d="M663.836 133.821C665.354 134.665 665.47 136.003 664.198 136.923C664.092 137 663.98 137.074 663.853 137.145L651.555 144.03C649.923 144.943 647.244 144.943 645.601 144.03L628.26 134.384C626.617 133.471 626.608 131.976 628.24 131.063L640.538 124.178C642.17 123.264 644.852 123.262 646.495 124.176L663.836 133.821Z" fill="#9545E7"/>
<path d="M519.972 69.3077L519.947 60.8319C519.943 59.3032 518.808 58.6807 517.427 59.4486L426.78 109.866C425.399 110.634 424.272 112.514 424.277 114.043L424.302 122.519C424.306 124.048 425.44 124.67 426.821 123.902L517.468 73.4849C518.849 72.7166 519.976 70.8364 519.972 69.3077H519.972ZM520.028 88.5412L520.003 80.0657C519.998 78.5368 518.864 77.9142 517.483 78.6822L426.836 129.1C425.456 129.868 424.329 131.748 424.333 133.276L424.358 141.753C424.363 143.283 425.497 143.906 426.878 143.138L517.525 92.7204C518.906 91.9525 520.033 90.0723 520.028 88.5412ZM532.585 40.8319C538.776 37.3885 543.86 40.18 543.88 47.0333L543.965 75.7146C543.985 82.5702 538.933 90.9972 532.742 94.4405L411.72 161.753C405.529 165.196 400.444 162.407 400.424 155.551L400.339 126.87C400.32 120.017 405.371 111.587 411.562 108.144L532.585 40.8319Z" fill="#F1E7FC"/>
<path d="M475.832 105.235L475.699 108.094L477.835 105.943L478.255 107.14L475.998 109.091L477.487 110.345L476.367 111.852L475.075 110.285L473.812 113.196L472.687 112.976L474.204 110.003L471.987 110.541L472.399 108.897L474.597 108.652L474.448 106.005L475.832 105.235Z" fill="#7907E1"/>
<path d="M458.058 121.276L456.569 120.021L458.826 118.07L458.405 116.873L456.269 119.024L456.401 116.166L455.018 116.936L455.167 119.583L452.97 119.828L452.557 121.471L454.775 120.933L453.257 123.907L454.382 124.126L455.646 121.216L456.938 122.783L458.058 121.276ZM484.262 106.702L482.773 105.447L485.029 103.496L484.609 102.299L482.473 104.45L482.607 101.591L481.222 102.361L481.371 105.008L479.173 105.253L478.761 106.897L480.98 106.358L479.461 109.332L480.586 109.552L481.849 106.641L483.141 108.208L484.262 106.702ZM490.812 103.058L489.324 101.803L491.58 99.8524L491.16 98.6551L489.024 100.806L489.157 97.9472L487.773 98.7175L487.922 101.365L485.724 101.61L485.312 103.253L487.531 102.714L486.011 105.689L487.137 105.908L488.4 102.998L489.692 104.565L490.812 103.058ZM497.363 99.4145L495.874 98.1599L498.131 96.2087L497.711 95.0114L495.575 97.1626L495.708 94.3039L494.325 95.0732L494.473 97.7213L492.275 97.966L491.863 99.6097L494.083 99.0708L492.563 102.045L493.688 102.265L494.951 99.3541L496.243 100.921L497.363 99.4145ZM471.159 113.989L469.671 112.734L471.928 110.783L471.507 109.586L469.372 111.737L469.505 108.878L468.12 109.649L468.269 112.296L466.071 112.54L465.659 114.184L467.877 113.646L466.359 116.619L467.484 116.839L468.748 113.929L470.039 115.495L471.159 113.989ZM477.711 110.345L476.222 109.09L478.479 107.139L478.058 105.942L475.922 108.093L476.056 105.235L474.671 106.005L474.82 108.652L472.622 108.897L472.21 110.54L474.428 110.003L472.91 112.976L474.035 113.196L475.298 110.285L476.59 111.852L477.711 110.345ZM464.608 117.632L463.12 116.378L465.377 114.427L464.956 113.23L462.82 115.38L462.954 112.522L461.569 113.292L461.718 115.939L459.52 116.184L459.108 117.827L461.326 117.29L459.808 120.263L460.933 120.483L462.197 117.572L463.488 119.139L464.608 117.632ZM451.507 124.92L450.018 123.665L452.275 121.714L451.854 120.517L449.717 122.669L449.85 119.81L448.467 120.579L448.617 123.227L446.418 123.471L446.006 125.115L448.224 124.577L446.706 127.55L447.832 127.77L449.095 124.86L450.387 126.426L451.507 124.92ZM517.372 78.682C518.753 77.9141 519.887 78.5366 519.892 80.0653L519.917 88.5414C519.921 90.0721 518.794 91.9524 517.414 92.7206L426.766 143.138C425.386 143.906 424.251 143.283 424.247 141.753L424.222 133.277C424.217 131.748 425.344 129.867 426.725 129.1L517.372 78.682H517.372Z" fill="white"/>
<path d="M495.667 94.3039L495.534 97.1626L497.669 95.0117L498.09 96.209L495.833 98.1599L497.322 99.4145L496.202 100.921L494.91 99.3541L493.647 102.265L492.521 102.045L494.041 99.0708L491.821 99.6097L492.234 97.966L494.431 97.7213L494.284 95.0732L495.667 94.3039Z" fill="#7907E1"/>
<path d="M482.714 101.591L482.58 104.45L484.716 102.299L485.137 103.496L482.88 105.447L484.369 106.702L483.248 108.208L481.956 106.641L480.693 109.552L479.568 109.332L481.087 106.358L478.868 106.897L479.28 105.253L481.478 105.008L481.329 102.361L482.714 101.591Z" fill="#7907E1"/>
<path d="M469.355 108.879L469.222 111.737L471.358 109.587L471.778 110.783L469.521 112.734L471.01 113.989L469.89 115.496L468.598 113.929L467.335 116.84L466.209 116.62L467.727 113.647L465.51 114.184L465.922 112.541L468.12 112.296L467.97 109.649L469.355 108.879Z" fill="#7907E1"/>
<path d="M462.879 112.522L462.746 115.38L464.881 113.23L465.302 114.427L463.045 116.378L464.534 117.632L463.414 119.139L462.122 117.572L460.859 120.483L459.733 120.263L461.251 117.29L459.034 117.828L459.446 116.184L461.644 115.939L461.494 113.292L462.879 112.522Z" fill="#7907E1"/>
<path d="M449.924 119.81L449.791 122.669L451.929 120.517L452.349 121.714L450.093 123.665L451.581 124.92L450.461 126.427L449.169 124.86L447.906 127.771L446.781 127.55L448.299 124.577L446.081 125.115L446.493 123.472L448.691 123.227L448.542 120.579L449.924 119.81Z" fill="#7907E1"/>
<path d="M509.199 67.7869C510.787 66.9037 512.089 67.6184 512.095 69.3767C512.1 71.1351 510.806 73.2938 509.218 74.1774L434.808 115.564C433.219 116.447 431.917 115.732 431.912 113.974C431.907 112.216 433.201 110.057 434.789 109.173L509.199 67.7869Z" fill="#BD8CF1"/>
<path d="M509.283 74.1775C510.872 73.2943 512.166 71.1353 512.16 69.3772C512.155 67.6189 510.853 66.9038 509.265 67.7871L434.855 109.174C433.267 110.057 431.973 112.216 431.978 113.974C431.983 115.732 433.285 116.447 434.874 115.564L509.283 74.1775ZM517.372 59.4489C518.753 58.6806 519.887 59.3031 519.892 60.8321L519.917 69.3079C519.921 70.8366 518.794 72.7168 517.413 73.485L426.767 123.902C425.386 124.671 424.251 124.048 424.247 122.519L424.222 114.043C424.217 112.515 425.344 110.634 426.725 109.866L517.372 59.4489H517.372Z" fill="white"/>
<path d="M456.401 116.167L456.269 119.025L458.405 116.874L458.826 118.071L456.569 120.022L458.057 121.277L456.937 122.783L455.645 121.216L454.382 124.127L453.257 123.907L454.774 120.934L452.557 121.472L452.969 119.828L455.167 119.584L455.018 116.936L456.401 116.167Z" fill="#7907E1"/>
<path d="M489.191 97.9476L489.057 100.806L491.193 98.6554L491.613 99.8527L489.357 101.804L490.845 103.058L489.725 104.565L488.434 102.998L487.17 105.909L486.045 105.689L487.564 102.714L485.345 103.253L485.757 101.61L487.955 101.365L487.806 98.7179L489.191 97.9476Z" fill="#7907E1"/>
<path d="M547.278 59.1198L557.004 46.142L559.69 52.171L570.503 53.6502L547.278 59.1198Z" fill="#F13E57"/>
<path d="M624.188 271.624C637.576 279.12 659.556 279.12 673.032 271.624C686.507 264.129 686.579 251.865 673.191 244.369" stroke="#F13E57" stroke-width="0.00170974" stroke-miterlimit="10" stroke-linecap="round" stroke-linejoin="round" stroke-dasharray="0.01 0.01"/>
<g opacity="0.2">
<path opacity="0.2" d="M529.604 376.96C530.677 377.557 530.76 378.503 529.859 379.154C529.785 379.209 529.706 379.261 529.615 379.311L520.916 384.182C519.761 384.828 517.866 384.828 516.704 384.182L504.437 377.358C503.275 376.712 503.268 375.655 504.423 375.009L513.123 370.138C514.277 369.492 516.174 369.49 517.336 370.137L529.604 376.96Z" fill="#C6C6C6"/>
<path opacity="0.2" d="M615.755 410.818C615.656 412.259 614.625 413.682 612.659 414.782C610.696 415.881 608.149 416.462 605.568 416.521C605.666 415.081 606.696 413.657 608.659 412.558C610.625 411.457 613.173 410.878 615.755 410.818Z" fill="#B2B2B2"/>
<path opacity="0.2" d="M612.84 406.357C614.354 407.2 615.324 408.233 615.747 409.318C615.784 409.417 615.818 409.517 615.846 409.615C615.964 410.014 616.009 410.415 615.982 410.818C613.401 410.878 610.853 411.457 608.887 412.557C606.924 413.656 605.894 415.08 605.796 416.521C605.615 416.526 605.434 416.526 605.254 416.525C602.553 416.512 599.859 415.931 597.792 414.782C593.608 412.455 593.586 408.683 597.741 406.357C598.106 406.153 598.491 405.966 598.893 405.798C601.703 404.619 605.328 404.32 608.561 404.9C610.125 405.18 611.596 405.666 612.84 406.357Z" fill="#878787"/>
<path opacity="0.2" d="M623.767 412.557C624.943 413.211 625.79 413.98 626.31 414.798C627.344 416.435 627.062 418.273 625.457 419.796C625.013 420.219 624.465 420.617 623.814 420.982C621.738 422.144 619.008 422.726 616.277 422.727C613.545 422.726 610.809 422.144 608.719 420.982C606.513 419.755 605.464 418.127 605.577 416.521C608.158 416.462 610.704 415.881 612.668 414.782C614.633 413.682 615.665 412.259 615.763 410.818C615.944 410.813 616.124 410.812 616.302 410.813C616.842 410.816 617.382 410.841 617.917 410.889C618.273 410.921 618.629 410.962 618.978 411.016C619.33 411.067 619.677 411.129 620.017 411.203C620.41 411.285 620.795 411.384 621.17 411.494C621.409 411.563 621.642 411.638 621.874 411.719C621.943 411.742 622.011 411.767 622.079 411.792C622.34 411.887 622.599 411.991 622.846 412.101C622.878 412.116 622.91 412.129 622.942 412.144C623.226 412.272 623.501 412.409 623.767 412.557Z" fill="#EDEDED"/>
<path opacity="0.2" d="M520.975 384.182L529.675 379.312C529.766 379.261 529.844 379.209 529.919 379.155C530.82 378.503 530.737 377.557 529.664 376.96L517.396 370.137C516.234 369.491 514.337 369.492 513.183 370.139L504.483 375.009C503.328 375.656 503.335 376.713 504.496 377.359L516.764 384.182C517.926 384.829 519.821 384.829 520.975 384.182ZM616.369 422.727C619.1 422.726 621.83 422.145 623.906 420.982C624.556 420.618 625.105 420.219 625.549 419.796C627.154 418.273 627.436 416.435 626.402 414.799C625.882 413.98 625.035 413.211 623.859 412.557C623.593 412.41 623.318 412.272 623.034 412.144C623.002 412.129 622.97 412.116 622.938 412.101C622.691 411.991 622.432 411.887 622.171 411.792C622.102 411.767 622.034 411.742 621.966 411.719C621.735 411.638 621.501 411.564 621.262 411.494C620.888 411.384 620.502 411.285 620.109 411.203C619.769 411.13 619.422 411.068 619.07 411.016C618.72 410.963 618.365 410.921 618.009 410.889C617.473 410.841 616.933 410.816 616.395 410.813C616.215 410.812 616.036 410.813 615.855 410.819C615.882 410.415 615.837 410.014 615.719 409.616C615.691 409.517 615.657 409.417 615.619 409.319C615.196 408.234 614.227 407.2 612.712 406.358C611.469 405.666 609.997 405.18 608.434 404.901C605.2 404.32 601.576 404.619 598.766 405.799C598.363 405.966 597.979 406.153 597.613 406.358C593.459 408.684 593.481 412.455 597.665 414.782C599.731 415.932 602.425 416.512 605.127 416.525C605.306 416.526 605.487 416.526 605.669 416.521C605.555 418.127 606.605 419.755 608.811 420.982C610.901 422.145 613.638 422.726 616.369 422.727ZM639.744 412.422C643.619 414.577 643.639 418.103 639.79 420.259L606.459 438.919L484.94 371.33L518.271 352.67C522.12 350.515 528.439 350.515 532.312 352.669L639.744 412.422H639.744Z" fill="#DADADA"/>
<path opacity="0.2" d="M606.488 438.918L593.101 446.413L471.582 378.824L484.97 371.329L606.488 438.918Z" fill="#B2B2B2"/>
<path opacity="0.2" d="M593.055 446.413L583.802 451.593L577.354 455.203C573.504 457.358 567.187 457.357 563.313 455.202L455.881 395.448C452.008 393.294 451.985 389.77 455.835 387.614L467.677 380.985L471.536 378.824L593.054 446.413L593.055 446.413Z" fill="#DADADA"/>
<path opacity="0.2" d="M642.582 416.536C642.579 416.584 642.576 416.633 642.571 416.682C642.567 416.723 642.561 416.765 642.555 416.807C642.548 416.855 642.54 416.904 642.531 416.952C642.523 416.994 642.514 417.036 642.504 417.078C642.493 417.125 642.482 417.172 642.468 417.219C642.456 417.261 642.444 417.303 642.43 417.345C642.415 417.392 642.399 417.438 642.382 417.485C642.367 417.526 642.351 417.567 642.334 417.608C642.314 417.657 642.293 417.706 642.27 417.754C642.251 417.794 642.232 417.835 642.212 417.875C642.187 417.923 642.161 417.971 642.134 418.02C642.113 418.058 642.091 418.097 642.068 418.135C642.033 418.193 641.996 418.25 641.957 418.307C641.935 418.341 641.914 418.374 641.89 418.408C641.844 418.472 641.794 418.537 641.744 418.601C641.724 418.625 641.707 418.65 641.688 418.673C641.607 418.771 641.521 418.867 641.43 418.963C641.406 418.988 641.379 419.014 641.354 419.039C641.283 419.111 641.209 419.182 641.132 419.252C641.097 419.284 641.062 419.316 641.026 419.347C640.98 419.387 640.933 419.427 640.884 419.466C640.839 419.503 640.794 419.54 640.747 419.576C640.698 419.615 640.646 419.654 640.594 419.692C640.546 419.728 640.497 419.764 640.447 419.799C640.392 419.837 640.337 419.874 640.281 419.911C640.229 419.946 640.177 419.98 640.122 420.014C640.065 420.051 640.005 420.087 639.945 420.123C639.869 420.168 639.795 420.213 639.716 420.258L606.384 438.918L606.378 441.155L639.709 422.495C639.749 422.473 639.789 422.45 639.829 422.427C639.867 422.405 639.902 422.382 639.939 422.36C639.998 422.324 640.058 422.289 640.116 422.252C640.169 422.218 640.222 422.183 640.275 422.148C640.331 422.111 640.386 422.074 640.44 422.036C640.49 422.001 640.539 421.965 640.588 421.929C640.64 421.891 640.691 421.853 640.741 421.814C640.788 421.777 640.833 421.74 640.878 421.704C640.926 421.664 640.973 421.625 641.019 421.585C641.037 421.569 641.057 421.554 641.075 421.538C641.093 421.522 641.108 421.505 641.126 421.489C641.203 421.419 641.276 421.348 641.347 421.277C641.373 421.251 641.399 421.226 641.424 421.2C641.514 421.105 641.6 421.008 641.681 420.911C641.683 420.908 641.687 420.905 641.689 420.902C641.706 420.881 641.721 420.859 641.737 420.838C641.788 420.774 641.837 420.71 641.883 420.645C641.907 420.612 641.928 420.578 641.951 420.545C641.989 420.488 642.027 420.431 642.061 420.373C642.07 420.358 642.08 420.344 642.089 420.33C642.103 420.306 642.114 420.281 642.128 420.257C642.155 420.209 642.181 420.161 642.205 420.112C642.226 420.072 642.245 420.032 642.264 419.992C642.286 419.943 642.308 419.895 642.327 419.846C642.336 419.825 642.346 419.805 642.354 419.784C642.362 419.763 642.368 419.742 642.376 419.722C642.393 419.676 642.409 419.629 642.424 419.583C642.437 419.541 642.45 419.498 642.462 419.456C642.475 419.409 642.486 419.363 642.497 419.316C642.503 419.291 642.511 419.267 642.516 419.242C642.519 419.224 642.521 419.207 642.524 419.19C642.534 419.141 642.541 419.093 642.548 419.044C642.554 419.002 642.56 418.961 642.564 418.919C642.569 418.87 642.573 418.822 642.575 418.773C642.577 418.745 642.581 418.717 642.581 418.689C642.582 418.661 642.583 418.633 642.583 418.605L642.589 416.367C642.589 416.423 642.585 416.479 642.582 416.536Z" fill="#575756"/>
<path opacity="0.2" d="M593.062 446.413L583.809 451.594L577.361 455.203C577.146 455.323 576.922 455.434 576.694 455.54C576.634 455.568 576.574 455.595 576.513 455.622C576.302 455.716 576.088 455.805 575.867 455.887C575.843 455.896 575.82 455.907 575.796 455.915C575.565 456 575.326 456.076 575.086 456.149C574.92 456.199 574.749 456.244 574.578 456.288C574.448 456.323 574.318 456.359 574.185 456.39C574.006 456.431 573.824 456.466 573.642 456.502C573.506 456.528 573.371 456.558 573.233 456.581C573.175 456.591 573.116 456.599 573.057 456.608C572.831 456.644 572.603 456.675 572.373 456.701C572.307 456.709 572.24 456.717 572.174 456.724C572.045 456.737 571.914 456.745 571.784 456.755C571.557 456.773 571.33 456.789 571.101 456.799C570.959 456.805 570.816 456.808 570.673 456.81C570.489 456.814 570.306 456.815 570.122 456.813C569.97 456.811 569.82 456.807 569.669 456.801C569.499 456.794 569.329 456.786 569.16 456.774C569.007 456.764 568.855 456.752 568.703 456.738C568.535 456.722 568.368 456.704 568.202 456.684C568.053 456.666 567.906 456.646 567.759 456.624C567.581 456.597 567.405 456.567 567.229 456.535C567.091 456.51 566.954 456.484 566.818 456.455C566.608 456.411 566.402 456.361 566.198 456.309C566.068 456.275 565.937 456.245 565.809 456.209C565.74 456.189 565.672 456.168 565.603 456.147C565.4 456.085 565.199 456.02 565.002 455.95C564.943 455.929 564.883 455.909 564.825 455.888C564.646 455.821 564.473 455.747 564.3 455.673C564.215 455.637 564.127 455.604 564.044 455.566C563.795 455.452 563.552 455.331 563.32 455.202L455.888 395.448C453.938 394.364 452.964 392.933 452.968 391.504L452.962 393.741C452.958 395.17 453.932 396.602 455.881 397.686L563.313 457.439C563.546 457.569 563.788 457.689 564.037 457.803C564.121 457.841 564.209 457.874 564.294 457.911C564.439 457.973 564.583 458.038 564.733 458.095C564.761 458.105 564.791 458.115 564.819 458.125C564.877 458.147 564.936 458.166 564.995 458.187C565.192 458.257 565.393 458.323 565.597 458.385C565.665 458.405 565.733 458.426 565.802 458.446C565.847 458.459 565.89 458.473 565.935 458.486C566.019 458.509 566.107 458.525 566.191 458.546C566.396 458.599 566.601 458.649 566.811 458.693C566.865 458.704 566.917 458.719 566.971 458.73C567.054 458.747 567.139 458.757 567.223 458.772C567.398 458.805 567.574 458.835 567.752 458.861C567.821 458.872 567.889 458.886 567.959 458.896C568.037 458.907 568.117 458.912 568.195 458.921C568.361 458.942 568.528 458.96 568.696 458.975C568.774 458.983 568.851 458.994 568.929 459C569.004 459.006 569.079 459.007 569.153 459.012C569.323 459.023 569.492 459.032 569.662 459.038C569.746 459.041 569.83 459.049 569.914 459.051C569.981 459.053 570.048 459.049 570.115 459.05C570.299 459.053 570.483 459.051 570.666 459.048C570.757 459.046 570.847 459.049 570.938 459.046C570.99 459.045 571.042 459.039 571.095 459.037C571.323 459.027 571.55 459.011 571.778 458.993C571.867 458.985 571.957 458.984 572.046 458.975C572.087 458.971 572.127 458.966 572.167 458.961C572.234 458.955 572.3 458.946 572.367 458.939C572.596 458.912 572.824 458.881 573.051 458.846C573.109 458.837 573.168 458.828 573.226 458.819C573.256 458.814 573.286 458.81 573.316 458.805C573.424 458.786 573.529 458.76 573.636 458.739C573.818 458.704 574 458.669 574.179 458.627C574.312 458.597 574.441 458.56 574.572 458.526C574.743 458.481 574.913 458.437 575.08 458.386C575.118 458.375 575.158 458.366 575.196 458.354C575.397 458.292 575.595 458.224 575.789 458.153C575.813 458.144 575.836 458.134 575.86 458.125C576.081 458.042 576.296 457.953 576.507 457.86C576.567 457.833 576.627 457.806 576.687 457.778C576.916 457.671 577.14 457.56 577.354 457.441L583.802 453.831L593.055 448.65L606.443 441.156L606.449 438.918L593.062 446.413Z" fill="#575756"/>
</g>
<path d="M632.825 319.551C633.898 320.148 633.981 321.094 633.081 321.745C633.006 321.8 632.927 321.852 632.837 321.902L624.137 326.773C622.983 327.419 621.088 327.419 619.926 326.773L607.658 319.95C606.496 319.303 606.49 318.246 607.645 317.6L616.344 312.729C617.498 312.083 619.396 312.082 620.558 312.728L632.825 319.551Z" fill="#F13E57"/>
<path d="M624.198 326.772L632.898 321.902C632.988 321.851 633.067 321.799 633.141 321.745C634.042 321.093 633.96 320.147 632.886 319.55L620.618 312.727C619.457 312.081 617.56 312.082 616.405 312.728L607.705 317.599C606.551 318.246 606.557 319.303 607.719 319.949L619.987 326.772C621.149 327.419 623.043 327.419 624.198 326.772ZM742.967 355.012C746.842 357.167 746.862 360.693 743.013 362.848L709.682 381.508L588.162 313.92L621.493 295.26C625.343 293.105 631.662 293.105 635.535 295.259L742.967 355.012H742.967Z" fill="#FAA2AB"/>
<path d="M709.711 381.509L696.324 389.003L574.804 321.415L588.192 313.92L709.711 381.509Z" fill="#F45A6D"/>
<path d="M696.276 389.003L687.023 394.184L680.575 397.794C676.725 399.949 670.409 399.947 666.534 397.792L559.102 338.039C555.229 335.885 555.207 332.36 559.056 330.205L570.898 323.575L574.757 321.415L696.276 389.003H696.276Z" fill="#FAA2AB"/>
<path d="M745.803 359.126C745.801 359.175 745.797 359.224 745.792 359.272C745.788 359.314 745.782 359.356 745.776 359.397C745.769 359.446 745.762 359.494 745.752 359.543C745.745 359.585 745.735 359.627 745.725 359.669C745.715 359.716 745.703 359.762 745.69 359.809C745.678 359.852 745.665 359.894 745.651 359.936C745.637 359.982 745.621 360.029 745.604 360.075C745.589 360.116 745.572 360.158 745.555 360.199C745.535 360.248 745.514 360.296 745.492 360.345C745.473 360.385 745.454 360.425 745.433 360.466C745.409 360.514 745.383 360.562 745.356 360.61C745.334 360.649 745.312 360.687 745.289 360.726C745.255 360.784 745.217 360.841 745.179 360.898C745.157 360.931 745.135 360.965 745.112 360.998C745.066 361.063 745.016 361.127 744.965 361.191C744.946 361.215 744.929 361.24 744.909 361.264C744.829 361.361 744.743 361.458 744.652 361.553C744.627 361.579 744.601 361.604 744.575 361.63C744.505 361.701 744.431 361.772 744.354 361.842C744.319 361.874 744.284 361.906 744.247 361.938C744.202 361.977 744.154 362.017 744.106 362.057C744.061 362.094 744.016 362.13 743.969 362.167C743.919 362.206 743.868 362.244 743.816 362.283C743.767 362.318 743.718 362.354 743.668 362.389C743.614 362.427 743.559 362.464 743.503 362.501C743.45 362.536 743.398 362.571 743.344 362.605C743.286 362.642 743.226 362.677 743.167 362.713C743.091 362.759 743.016 362.804 742.937 362.848L709.606 381.509L709.6 383.746L742.931 365.086C742.971 365.063 743.011 365.041 743.05 365.018C743.088 364.996 743.123 364.973 743.16 364.95C743.22 364.915 743.28 364.879 743.337 364.843C743.391 364.808 743.444 364.773 743.496 364.739C743.552 364.702 743.608 364.664 743.661 364.627C743.712 364.591 743.76 364.556 743.809 364.52C743.861 364.482 743.913 364.443 743.963 364.404C744.009 364.368 744.054 364.331 744.099 364.294C744.148 364.255 744.195 364.215 744.241 364.175C744.259 364.16 744.278 364.144 744.296 364.129C744.314 364.113 744.33 364.096 744.347 364.079C744.424 364.01 744.498 363.939 744.569 363.868C744.594 363.842 744.621 363.816 744.645 363.79C744.736 363.695 744.822 363.599 744.902 363.502C744.905 363.498 744.908 363.495 744.911 363.492C744.928 363.471 744.942 363.45 744.959 363.429C745.01 363.364 745.059 363.3 745.105 363.236C745.129 363.202 745.15 363.169 745.172 363.135C745.211 363.078 745.248 363.021 745.283 362.963C745.291 362.949 745.302 362.935 745.31 362.92C745.324 362.896 745.336 362.872 745.35 362.847C745.376 362.799 745.402 362.752 745.427 362.703C745.447 362.663 745.467 362.622 745.485 362.582C745.508 362.533 745.529 362.485 745.549 362.436C745.558 362.416 745.568 362.395 745.576 362.374C745.584 362.354 745.589 362.333 745.597 362.313C745.614 362.266 745.63 362.22 745.645 362.173C745.659 362.131 745.672 362.089 745.683 362.047C745.696 362 745.708 361.953 745.719 361.906C745.724 361.882 745.732 361.857 745.737 361.832C745.741 361.815 745.742 361.798 745.746 361.78C745.755 361.732 745.763 361.683 745.769 361.635C745.776 361.593 745.782 361.552 745.786 361.509C745.791 361.461 745.794 361.412 745.797 361.364C745.798 361.336 745.802 361.308 745.803 361.28C745.804 361.251 745.804 361.224 745.805 361.195L745.811 358.958C745.811 359.014 745.807 359.07 745.803 359.126Z" fill="#F13E57"/>
<path d="M696.282 389.004L687.029 394.184L680.582 397.794C680.367 397.914 680.143 398.025 679.914 398.131C679.855 398.159 679.794 398.186 679.734 398.213C679.523 398.307 679.308 398.396 679.088 398.478C679.063 398.487 679.04 398.497 679.017 398.506C678.785 398.591 678.547 398.667 678.307 398.74C678.14 398.79 677.97 398.834 677.799 398.879C677.668 398.914 677.539 398.95 677.406 398.981C677.227 399.022 677.045 399.057 676.863 399.093C676.726 399.119 676.592 399.149 676.454 399.172C676.395 399.182 676.336 399.19 676.278 399.199C676.052 399.234 675.823 399.266 675.594 399.292C675.527 399.3 675.461 399.308 675.395 399.315C675.266 399.328 675.135 399.335 675.004 399.346C674.778 399.364 674.55 399.38 674.322 399.39C674.179 399.396 674.037 399.399 673.894 399.401C673.71 399.404 673.526 399.406 673.343 399.403C673.191 399.401 673.04 399.397 672.89 399.392C672.719 399.385 672.55 399.376 672.38 399.365C672.228 399.355 672.075 399.343 671.923 399.328C671.756 399.313 671.589 399.295 671.422 399.275C671.274 399.257 671.127 399.237 670.98 399.214C670.802 399.188 670.625 399.158 670.45 399.126C670.312 399.101 670.175 399.074 670.038 399.046C669.829 399.002 669.623 398.952 669.419 398.9C669.289 398.866 669.158 398.836 669.03 398.799C668.961 398.78 668.892 398.759 668.824 398.738C668.62 398.676 668.42 398.611 668.223 398.541C668.164 398.519 668.104 398.5 668.046 398.479C667.866 398.412 667.694 398.338 667.521 398.264C667.436 398.228 667.348 398.195 667.265 398.156C667.016 398.043 666.773 397.922 666.541 397.793L559.108 338.039C557.16 336.955 556.186 335.524 556.19 334.095L556.183 336.332C556.179 337.761 557.153 339.193 559.102 340.277L666.534 400.03C666.767 400.159 667.009 400.28 667.258 400.394C667.341 400.432 667.429 400.465 667.514 400.501C667.66 400.564 667.803 400.629 667.954 400.686C667.982 400.696 668.011 400.705 668.039 400.716C668.097 400.738 668.157 400.757 668.216 400.778C668.413 400.848 668.613 400.914 668.817 400.975C668.886 400.996 668.954 401.017 669.023 401.037C669.068 401.049 669.111 401.064 669.156 401.077C669.239 401.099 669.327 401.115 669.412 401.137C669.616 401.189 669.822 401.239 670.032 401.283C670.086 401.295 670.137 401.31 670.192 401.321C670.275 401.338 670.36 401.348 670.443 401.363C670.619 401.396 670.795 401.426 670.973 401.452C671.042 401.462 671.11 401.477 671.179 401.487C671.257 401.497 671.337 401.502 671.416 401.512C671.582 401.532 671.749 401.551 671.917 401.566C671.995 401.573 672.072 401.585 672.15 401.591C672.225 401.597 672.3 401.598 672.374 401.603C672.543 401.614 672.713 401.623 672.883 401.629C672.967 401.632 673.05 401.64 673.134 401.642C673.202 401.643 673.269 401.64 673.336 401.641C673.52 401.643 673.703 401.642 673.887 401.639C673.977 401.637 674.068 401.64 674.158 401.637C674.211 401.635 674.263 401.629 674.315 401.627C674.544 401.617 674.771 401.602 674.998 401.583C675.087 401.576 675.178 401.575 675.266 401.566C675.307 401.562 675.348 401.556 675.388 401.552C675.455 401.545 675.521 401.537 675.587 401.529C675.817 401.503 676.045 401.472 676.271 401.437C676.33 401.427 676.389 401.419 676.447 401.41C676.477 401.404 676.507 401.401 676.537 401.396C676.645 401.377 676.749 401.351 676.856 401.33C677.038 401.295 677.221 401.26 677.399 401.218C677.532 401.187 677.662 401.151 677.793 401.117C677.963 401.072 678.133 401.027 678.3 400.977C678.339 400.966 678.379 400.957 678.416 400.945C678.618 400.882 678.816 400.815 679.01 400.743C679.034 400.735 679.057 400.725 679.081 400.715C679.302 400.633 679.517 400.544 679.727 400.451C679.788 400.424 679.848 400.397 679.907 400.369C680.136 400.262 680.361 400.151 680.575 400.031L687.022 396.421L696.276 391.241L709.664 383.746L709.67 381.509L696.282 389.004Z" fill="#F13E57"/>
<path d="M328.963 156.882L328.95 161.206L212.516 226.391L212.529 222.066L328.963 156.882H328.963Z" fill="#D1E0E5"/>
<path d="M212.335 222.067L212.322 226.391L95.126 161.208L95.1387 156.883L212.335 222.067Z" fill="#98A7AC"/>
<path d="M328.756 156.882L212.322 222.067L95.126 156.883L211.56 91.698L328.756 156.882Z" fill="#C0CFD6"/>
<path d="M317.32 152.558L317.307 156.883L212.516 215.549L212.528 211.225L317.32 152.558H317.32Z" fill="#E7F2F6"/>
<path d="M212.355 211.225L212.342 215.549L106.865 156.883L106.878 152.559L212.355 211.225H212.355Z" fill="#B5C6CD"/>
<path d="M317.134 152.558L212.343 211.225L106.865 152.559L211.657 93.8918L317.134 152.558Z" fill="#E3ECF1"/>
<path d="M305.92 66.0692L305.665 152.559L212.516 204.707L212.77 118.219L305.92 66.0697L305.92 66.0692Z" fill="#8E9C9C"/>
<path d="M228.516 109.331L228.296 195.873L212.516 204.707L212.736 118.166L228.516 109.332V109.331Z" fill="#FCFDFF"/>
<path d="M305.521 66.3689L305.206 152.681L289.426 161.516L289.741 75.203L305.521 66.3689Z" fill="#FCFDFF"/>
<path d="M279.958 80.7608L279.704 167.075L263.924 175.909L264.178 89.595L279.958 80.7608Z" fill="#FCFDFF"/>
<path d="M254.052 95.0339L253.798 181.501L238.018 190.335L238.273 103.868L254.052 95.0339Z" fill="#FCFDFF"/>
<path d="M212.617 118.218L212.362 204.708L118.604 152.559L118.859 66.0699L212.617 118.218H212.617Z" fill="#B5C6CD"/>
<path d="M259.295 57.706L224.056 107.495L294.709 68.1985L259.295 57.706ZM259.279 52.1483L306.274 66.0695L212.516 118.217L259.279 52.1483H259.279Z" fill="white"/>
<path d="M263.959 79.1242C264.764 77.7833 265.162 76.4157 265.158 75.0069C265.156 74.1778 265.027 73.5362 264.772 73.0856C264.52 72.6324 264.167 72.3068 263.719 72.1113C263.275 71.9143 262.743 71.8127 262.131 71.8024C261.514 71.798 260.863 71.8215 260.169 71.8795C259.479 71.9399 258.975 71.8771 258.661 71.6931C258.351 71.5072 258.191 71.1123 258.189 70.5054C258.188 69.9062 258.324 69.3587 258.593 68.8656C258.863 68.3727 259.242 67.9901 259.734 67.7163C260.282 67.4112 260.709 67.4044 261.005 67.7034C261.306 67.9962 261.455 68.5717 261.458 69.428L265.227 67.3318C265.222 65.7673 264.828 64.6959 264.048 64.1122C263.268 63.5286 262.201 63.5024 260.84 64.0372L260.832 61.3866L259.06 62.3724L259.067 64.9723C257.654 65.9061 256.528 67.0594 255.683 68.4338C254.838 69.8041 254.42 71.1829 254.424 72.5724C254.426 73.4051 254.548 74.0471 254.785 74.5C255.026 74.9508 255.368 75.2751 255.816 75.47C256.264 75.6655 256.796 75.7594 257.412 75.7556C258.032 75.7502 258.705 75.7075 259.434 75.6335C260.162 75.5557 260.673 75.6222 260.962 75.8317C261.255 76.0393 261.401 76.469 261.403 77.1191C261.405 77.7027 261.262 78.2424 260.971 78.7393C260.684 79.2342 260.287 79.6188 259.78 79.9C259.088 80.2857 258.556 80.3355 258.179 80.0584C257.801 79.7772 257.613 79.1686 257.61 78.2304L253.855 80.3188C253.86 82.0198 254.297 83.1533 255.164 83.7113C256.032 84.2693 257.279 84.1922 258.897 83.4833L258.904 85.9741L260.679 84.9867L260.672 82.5075C262.061 81.5871 263.156 80.4594 263.959 79.1242ZM259.493 57.7068L294.907 68.1993L224.254 107.496L259.493 57.7068Z" fill="#CFDADE"/>
<path d="M260.781 61.3862L260.789 64.0367C262.15 63.5019 263.218 63.5282 263.998 64.1118C264.777 64.6955 265.172 65.7664 265.176 67.3313L261.407 69.4276C261.405 68.5712 261.256 67.9954 260.955 67.7026C260.658 67.4039 260.232 67.4108 259.684 67.7159C259.191 67.9896 258.812 68.3719 258.543 68.8651C258.273 69.3579 258.137 69.9053 258.139 70.5047C258.141 71.1118 258.3 71.5064 258.611 71.6924C258.925 71.8763 259.429 71.9395 260.119 71.8791C260.812 71.8207 261.464 71.7975 262.08 71.8019C262.693 71.8118 263.225 71.9136 263.669 72.1108C264.117 72.3063 264.47 72.6319 264.721 73.0849C264.976 73.5357 265.105 74.1774 265.108 75.0064C265.112 76.4153 264.714 77.7829 263.908 79.1238C263.106 80.4586 262.01 81.5866 260.622 82.5071L260.629 84.9859L258.853 85.9737L258.846 83.4828C257.228 84.1917 255.982 84.2689 255.114 83.7109C254.246 83.1528 253.81 82.0194 253.805 80.3183L257.559 78.2299C257.562 79.1681 257.751 79.7767 258.129 80.0579C258.506 80.3351 259.037 80.2849 259.73 79.8995C260.237 79.618 260.633 79.2333 260.921 78.7388C261.212 78.2416 261.354 77.7023 261.353 77.1183C261.35 76.4685 261.205 76.0388 260.912 75.8313C260.623 75.6217 260.112 75.5552 259.383 75.633C258.654 75.7067 257.982 75.7497 257.362 75.7552C256.746 75.7586 256.213 75.6647 255.766 75.4695C255.318 75.2743 254.975 74.9504 254.735 74.4992C254.497 74.0466 254.376 73.4047 254.373 72.5719C254.369 71.1825 254.788 69.8036 255.633 68.433C256.477 67.0589 257.604 65.9057 259.017 64.9716L259.009 62.3719L260.781 61.3862Z" fill="white"/>
<path d="M259.518 52.1483L166.369 0L213.365 13.9212L306.513 66.0695L259.517 52.1483H259.518Z" fill="#00DCC8"/>
<path d="M212.562 118.218L119.414 66.0694L166.177 0L259.326 52.1482L212.562 118.218H212.562Z" fill="#48EADE"/>
<path d="M238.195 190.334L228.33 184.848L228.303 195.873L238.195 190.334Z" fill="#E3ECF1"/>
<path d="M263.697 175.909L253.832 170.422L253.805 181.447L263.697 175.909Z" fill="#E3ECF1"/>
<path d="M289.603 161.537L279.739 156.05L279.711 167.076L289.603 161.537Z" fill="#E3ECF1"/>
<path d="M612.181 364.636C613.254 365.233 613.337 366.179 612.436 366.83C612.362 366.884 612.283 366.936 612.192 366.987L603.493 371.857C602.338 372.504 600.443 372.504 599.281 371.857L587.014 365.034C585.852 364.388 585.845 363.331 587 362.684L595.7 357.814C596.854 357.168 598.751 357.166 599.913 357.813L612.181 364.636Z" fill="#9545E7"/>
<path d="M603.553 371.857L612.253 366.986C612.343 366.936 612.422 366.884 612.496 366.83C613.397 366.178 613.314 365.232 612.241 364.635L599.973 357.812C598.811 357.166 596.915 357.167 595.76 357.813L587.06 362.684C585.906 363.33 585.912 364.388 587.074 365.034L599.341 371.857C600.504 372.503 602.398 372.503 603.553 371.857H603.553ZM722.322 400.097C726.197 402.252 726.217 405.778 722.368 407.933L689.036 426.593L567.518 359.005L600.848 340.344C604.698 338.19 611.017 338.19 614.89 340.343L722.322 400.097H722.322Z" fill="#CAA3F3"/>
<path d="M689.067 426.593L675.679 434.088L554.16 366.5L567.548 359.005L689.067 426.593Z" fill="#862BE3"/>
<path d="M675.632 434.088L666.379 439.269L659.931 442.878C656.081 445.033 649.764 445.032 645.89 442.877L538.458 383.124C534.585 380.97 534.563 377.445 538.412 375.29L550.254 368.66L554.113 366.5L675.632 434.088Z" fill="#CAA3F3"/>
<path d="M725.158 404.211C725.156 404.26 725.152 404.308 725.148 404.357C725.143 404.399 725.137 404.44 725.132 404.482C725.124 404.531 725.117 404.579 725.107 404.627C725.1 404.669 725.09 404.711 725.08 404.754C725.069 404.8 725.058 404.847 725.045 404.894C725.033 404.936 725.02 404.979 725.006 405.021C724.992 405.067 724.976 405.114 724.959 405.16C724.944 405.202 724.927 405.243 724.911 405.284C724.891 405.333 724.869 405.381 724.847 405.429C724.828 405.47 724.809 405.51 724.789 405.55C724.764 405.599 724.738 405.647 724.711 405.695C724.689 405.734 724.667 405.773 724.644 405.811C724.61 405.868 724.572 405.925 724.534 405.982C724.512 406.016 724.49 406.05 724.466 406.083C724.42 406.148 724.371 406.212 724.321 406.276C724.301 406.301 724.284 406.325 724.264 406.349C724.184 406.447 724.098 406.543 724.007 406.638C723.982 406.664 723.956 406.689 723.931 406.715C723.86 406.786 723.786 406.857 723.709 406.927C723.674 406.959 723.639 406.991 723.602 407.023C723.557 407.063 723.509 407.102 723.461 407.141C723.416 407.178 723.371 407.215 723.324 407.252C723.274 407.291 723.223 407.329 723.171 407.367C723.122 407.403 723.073 407.439 723.023 407.474C722.969 407.512 722.914 407.549 722.858 407.586C722.805 407.621 722.753 407.656 722.699 407.69C722.641 407.726 722.581 407.762 722.522 407.798C722.446 407.844 722.371 407.889 722.292 407.933L688.961 426.593L688.955 428.831L722.286 410.171C722.326 410.148 722.366 410.125 722.405 410.103C722.443 410.081 722.478 410.057 722.516 410.035C722.575 409.999 722.635 409.964 722.692 409.928C722.746 409.893 722.799 409.858 722.851 409.823C722.907 409.787 722.963 409.75 723.016 409.712C723.067 409.676 723.115 409.641 723.164 409.605C723.216 409.566 723.268 409.528 723.318 409.489C723.365 409.453 723.409 409.416 723.454 409.379C723.503 409.339 723.55 409.3 723.596 409.26C723.614 409.245 723.634 409.23 723.651 409.213C723.669 409.197 723.685 409.181 723.703 409.165C723.779 409.094 723.853 409.024 723.924 408.952C723.949 408.926 723.975 408.901 724 408.875C724.091 408.78 724.177 408.684 724.257 408.587C724.26 408.583 724.263 408.58 724.266 408.577C724.283 408.556 724.297 408.535 724.314 408.513C724.364 408.45 724.414 408.385 724.46 408.321C724.484 408.287 724.505 408.253 724.528 408.22C724.566 408.163 724.603 408.106 724.638 408.048C724.646 408.034 724.657 408.02 724.665 408.005C724.679 407.981 724.691 407.956 724.705 407.932C724.732 407.884 724.757 407.836 724.782 407.788C724.802 407.748 724.821 407.707 724.84 407.667C724.863 407.618 724.884 407.57 724.904 407.521C724.913 407.501 724.923 407.48 724.931 407.459C724.939 407.439 724.944 407.418 724.952 407.397C724.969 407.351 724.985 407.305 725 407.258C725.014 407.216 725.027 407.174 725.038 407.132C725.051 407.085 725.063 407.038 725.074 406.991C725.079 406.966 725.088 406.942 725.093 406.917C725.096 406.9 725.098 406.882 725.101 406.865C725.11 406.817 725.118 406.768 725.125 406.72C725.131 406.678 725.136 406.636 725.141 406.594C725.146 406.546 725.149 406.497 725.152 406.449C725.153 406.421 725.157 406.393 725.158 406.365C725.159 406.336 725.16 406.308 725.16 406.28L725.166 404.042C725.166 404.099 725.162 404.155 725.158 404.211Z" fill="#6109B3"/>
<path d="M675.639 434.089L666.386 439.269L659.938 442.878C659.724 442.999 659.499 443.109 659.271 443.216C659.211 443.244 659.151 443.271 659.09 443.298C658.879 443.391 658.665 443.48 658.444 443.563C658.42 443.572 658.397 443.582 658.373 443.591C658.142 443.675 657.904 443.751 657.663 443.824C657.497 443.875 657.326 443.919 657.155 443.964C657.025 443.998 656.895 444.035 656.762 444.065C656.584 444.107 656.401 444.142 656.219 444.177C656.083 444.204 655.948 444.234 655.81 444.257C655.752 444.267 655.693 444.275 655.634 444.284C655.408 444.319 655.18 444.35 654.95 444.377C654.884 444.384 654.817 444.393 654.751 444.4C654.622 444.413 654.491 444.42 654.361 444.431C654.134 444.449 653.907 444.465 653.678 444.475C653.536 444.48 653.393 444.483 653.25 444.486C653.066 444.489 652.883 444.491 652.699 444.488C652.548 444.486 652.397 444.482 652.246 444.476C652.076 444.47 651.906 444.461 651.737 444.45C651.584 444.44 651.432 444.427 651.28 444.413C651.112 444.398 650.945 444.38 650.779 444.359C650.63 444.341 650.483 444.321 650.336 444.299C650.158 444.273 649.982 444.242 649.807 444.21C649.668 444.185 649.531 444.159 649.395 444.131C649.186 444.087 648.979 444.036 648.775 443.984C648.645 443.951 648.514 443.921 648.386 443.884C648.317 443.864 648.249 443.843 648.18 443.823C647.977 443.761 647.776 443.695 647.579 443.625C647.52 443.604 647.461 443.585 647.402 443.563C647.223 443.496 647.05 443.423 646.877 443.349C646.792 443.312 646.704 443.279 646.621 443.241C646.372 443.127 646.13 443.007 645.897 442.877L538.465 383.124C536.515 382.04 535.542 380.609 535.545 379.179L535.539 381.417C535.535 382.846 536.509 384.277 538.458 385.361L645.89 445.115C646.123 445.244 646.366 445.365 646.615 445.479C646.698 445.517 646.786 445.55 646.871 445.586C647.017 445.648 647.16 445.713 647.31 445.771C647.338 445.781 647.368 445.79 647.396 445.801C647.454 445.822 647.513 445.842 647.572 445.863C647.769 445.933 647.97 445.998 648.174 446.06C648.243 446.081 648.31 446.102 648.38 446.122C648.424 446.134 648.467 446.149 648.512 446.161C648.596 446.184 648.684 446.2 648.768 446.222C648.973 446.274 649.178 446.324 649.388 446.368C649.442 446.379 649.494 446.395 649.548 446.406C649.631 446.422 649.717 446.433 649.8 446.448C649.976 446.48 650.152 446.51 650.33 446.537C650.399 446.547 650.466 446.562 650.536 446.571C650.614 446.582 650.694 446.587 650.772 446.597C650.939 446.617 651.105 446.635 651.274 446.651C651.351 446.658 651.428 446.669 651.507 446.676C651.581 446.682 651.656 446.682 651.73 446.688C651.9 446.699 652.069 446.707 652.239 446.714C652.323 446.717 652.407 446.724 652.491 446.726C652.558 446.728 652.625 446.725 652.692 446.726C652.876 446.728 653.06 446.726 653.244 446.723C653.334 446.722 653.425 446.725 653.515 446.722C653.567 446.72 653.619 446.714 653.672 446.712C653.901 446.702 654.127 446.686 654.355 446.668C654.444 446.661 654.534 446.66 654.623 446.651C654.664 446.647 654.704 446.641 654.745 446.637C654.811 446.63 654.877 446.622 654.944 446.614C655.173 446.588 655.401 446.557 655.628 446.521C655.687 446.512 655.745 446.504 655.804 446.494C655.833 446.489 655.864 446.486 655.893 446.48C656.001 446.462 656.106 446.436 656.213 446.415C656.395 446.379 656.577 446.345 656.756 446.303C656.889 446.272 657.018 446.236 657.149 446.201C657.32 446.157 657.49 446.112 657.657 446.062C657.695 446.05 657.735 446.042 657.773 446.03C657.974 445.967 658.172 445.899 658.366 445.828C658.39 445.819 658.414 445.809 658.437 445.8C658.658 445.718 658.873 445.629 659.084 445.535C659.144 445.508 659.204 445.481 659.264 445.453C659.493 445.347 659.717 445.236 659.932 445.116L666.379 441.506L675.632 436.326L689.02 428.831L689.026 426.594L675.639 434.089H675.639Z" fill="#6109B3"/>
<path d="M359.943 164.638C359.943 164.638 370.933 163.201 373.841 168.202C376.748 173.203 374.25 181.612 369.48 181.404C364.71 181.197 354.598 176.604 354.598 176.604L359.943 164.638Z" fill="#9BD1F1"/>
<path d="M348.93 130.379C348.93 130.379 359.608 126.145 360.364 144.186C348.93 130.977 348.93 130.379 348.93 130.379Z" fill="#9BD1F1"/>
<path d="M304.086 296.283C304.086 296.283 297.926 312.82 296.819 318.754C296.196 321.221 299.034 335.957 291.005 333.623C282.975 331.29 281.799 320.021 283.806 315.687C285.814 311.352 287.059 308.952 287.198 307.285C287.336 305.618 288.72 300.55 292.32 300.417C293.842 299.817 295.395 293.971 295.395 293.971L304.086 296.283Z" fill="#F9B390"/>
<path d="M292.32 300.416C288.72 300.551 287.337 305.617 287.197 307.285C287.059 308.952 285.813 311.352 283.807 315.686C281.798 320.02 282.976 331.289 291.004 333.622C296.444 335.204 296.895 328.951 296.814 323.985C287.362 325.282 288.513 314.986 289.447 311.685C290.381 308.385 289.966 304.384 292.32 300.416Z" fill="#250644"/>
<path d="M345.731 303.084C345.731 303.084 346.717 309.886 345.108 313.186C344.225 314.036 341.734 320.437 346.509 323.338C349.053 324.638 353.103 324.288 357.255 325.988C361.408 327.689 372.05 333.49 377.864 325.988C379.162 324.088 378.591 320.738 368.261 318.487C361.097 313.586 355.574 310.284 355.387 301.184L345.731 303.084Z" fill="#F9B390"/>
<path d="M346.509 323.337C349.053 324.638 353.102 324.288 357.255 325.988C361.408 327.688 372.05 333.489 377.864 325.988C379.162 324.087 378.591 320.737 368.261 318.487C369.506 324.238 361.875 322.037 356.425 320.537C344.796 317.486 345.108 313.185 345.108 313.185C344.225 314.036 341.734 320.437 346.509 323.337Z" fill="#250644"/>
<path d="M337.191 222.769C337.191 222.769 344.77 246.774 343.628 250.674C342.486 254.575 336.568 262.276 340.098 280.38C342.382 289.282 345.912 299.284 345.6 303.084C346.847 304.185 354.011 303.884 355.256 301.184C354.945 289.882 354.529 266.177 357.229 257.576C359.929 248.974 361.983 245.273 363.551 231.771C365.119 218.268 364.704 195.164 363.562 188.762L340.929 195.364L337.191 222.769Z" fill="#008EDE"/>
<path d="M358.455 194.09C358.455 194.09 356.516 207.466 343.642 217.868C338.035 237.671 337.425 246.873 327.452 256.075C323.292 259.476 312.287 281.28 304.189 296.283C298.167 299.183 295.498 293.971 295.498 293.971C295.498 293.971 299.517 258.976 311.768 250.374C314.571 248.474 316.336 246.373 316.232 239.272C316.128 232.17 309.235 204.647 321.611 189.253L358.455 194.09Z" fill="#67BBEC"/>
<path d="M349.171 130.379C349.171 130.379 368.732 145.095 361.36 161.627C360.114 165.558 358.245 177.86 363.748 188.762C364.89 191.363 355.635 202.967 327.624 196.664C321.336 194.514 320.973 192.763 322.322 185.962C323.672 179.16 319.381 143.587 319.381 143.587L349.171 130.379Z" fill="#CDE8F8"/>
<path d="M348.408 131.62C348.408 131.62 363.248 171.624 333.27 145.337C324.056 127.25 338.394 121.488 348.408 131.62Z" fill="#F9B390"/>
<path d="M339.502 115.585C339.502 115.585 346.201 124.55 345.398 130.652C345.465 137.986 342.134 144.883 324.364 129.301C315.151 111.214 329.488 105.452 339.502 115.585Z" fill="#FF9760"/>
<path d="M352.954 116.148C352.954 116.148 350.37 137.433 342.162 134.443C333.955 131.451 329.905 126.15 329.905 126.15L352.227 106.847C352.227 106.847 353.404 114.603 352.954 116.148Z" fill="#F9B390"/>
<path d="M370.129 169.634C367.155 169.859 365.424 176.06 367.985 179.794L383.662 182.502L386.465 176.068L370.129 169.634Z" fill="#F9B390"/>
<path d="M314.481 157.056C314.481 157.056 314.481 183.595 317.942 186.529C321.402 189.463 334.917 199.198 339.787 190.663C342.167 185.062 342.582 179.461 330.954 177.594C330.262 175.727 331.785 144.654 319.187 143.587C313.512 143.72 313.788 150.788 314.481 157.056Z" fill="#9BD1F1"/>
<path d="M351.706 110.114C351.706 110.114 348.107 116.248 338.693 120.649C334.125 123.583 332.741 131.184 333.571 141.853C334.402 152.522 322.497 145.854 319.313 143.587C314.053 144.387 314.606 150.255 314.606 157.056C303.394 157.99 297.718 149.455 300.071 141.853C302.425 134.252 307.685 133.185 311.007 132.118C314.33 131.051 308.516 125.85 313.361 122.25C318.206 118.649 314.191 110.514 321.528 106.513C322.774 102.779 332.326 91.9769 346.169 97.7114C353.367 97.9783 359.008 106.047 353.09 116.148C353.09 116.148 353.203 111.556 351.706 110.114Z" fill="#3D0871"/>
<path d="M363.704 196.725L374.656 181.411C375.336 180.461 377.543 179.259 379.555 178.736L386.109 177.032C387.549 176.657 388.524 176.725 388.713 177.142L389.328 178.5C389.139 178.083 388.165 178.015 386.725 178.389L380.171 180.093C378.159 180.617 375.952 181.818 375.272 182.769L364.32 198.082C364.125 198.353 364.077 198.575 364.152 198.742L363.536 197.385C363.461 197.218 363.51 196.996 363.704 196.725Z" fill="#3EE5B1"/>
<path d="M380.365 180.093C378.353 180.616 376.146 181.818 375.466 182.768L364.514 198.082C363.834 199.032 364.934 199.378 366.946 198.855L373.5 197.151C375.512 196.628 377.723 195.42 378.403 194.47L389.355 179.157C390.035 178.206 388.931 177.866 386.919 178.389L380.365 180.093Z" fill="#AFFFE1"/>
<path d="M339.557 183.52L359.197 189.532C359.197 189.532 360.613 186.102 364.216 186.197C367.82 186.293 369.087 185.326 370.702 185.125C372.318 184.923 370.329 187.771 367.596 188.818C364.864 189.864 365.982 191.362 368.91 191.234C371.839 191.107 375.802 191.007 379.083 192.071C385.717 194.223 384.356 196.919 379.157 197.498C370.861 198.422 365.924 202.6 356.693 196.621L332.893 192.388C332.893 192.388 331.04 189.785 334.08 186.061C337.119 182.337 339.557 183.52 339.557 183.52Z" fill="#F9B390"/>
<path d="M389.308 177.565C389.308 177.565 387.474 174.773 386.85 172.772C386.585 171.921 385.793 172.481 385.605 173.456C385.351 174.773 385.846 176.936 386.92 178.257C385.362 181.258 381.002 181.917 383.078 184.838C385.155 187.759 383.182 188.659 385.051 188.759C386.92 188.859 397.198 185.775 389.308 177.565Z" fill="#F9B390"/>
<defs>
<linearGradient id="paint0_linear_428_8339" x1="169.609" y1="336.678" x2="583.045" y2="336.678" gradientUnits="userSpaceOnUse">
<stop stop-color="#878787"/>
<stop offset="1" stop-color="#DADADA"/>
</linearGradient>
</defs>
</svg>
