<svg width="292" height="307" viewBox="0 0 292 307" fill="none" xmlns="http://www.w3.org/2000/svg">
<path d="M91.29 26.0154C101.172 22.8052 111.716 21.0523 122.671 21.0444V0C109.131 0 97.6695 1.81912 84.8034 6.00197C84.4618 6.11123 84.1302 6.24284 83.7888 6.35801C84.1204 6.24481 84.4521 6.11798 84.7838 6.01266L91.29 26.0154Z" fill="#EAF4FE"/>
<path d="M12.012 175.781C30.3897 214.63 66.6475 240.234 109.655 244.502C66.5402 240.02 30.0678 213.182 12.012 175.781Z" fill="#F0CA67"/>
<path d="M217.242 44.5314C218.812 46.453 220.334 48.4343 221.817 50.4808L204.785 62.8476C216.988 79.607 224.197 100.214 224.197 122.522H245.238V122.537C245.238 124.631 245.169 126.696 245.072 128.761C245.169 126.692 245.247 124.613 245.247 122.518C245.247 92.8898 234.742 65.7204 217.242 44.5314Z" fill="#FEC12F"/>
<path d="M122.586 224.119C66.5069 224.119 21.0505 178.655 21.0505 122.581C21.0505 77.4603 50.4899 39.2369 91.2055 26.0086L84.6993 6.00586C84.3676 6.11118 84.0359 6.23801 83.7043 6.35121C82.2021 6.85264 80.6998 7.37347 79.227 7.93143C78.7977 8.08849 78.3783 8.25625 77.9588 8.424C31.8684 26.2378 1.98997 68.0031 0.0878838 117.569C0.0487931 118.725 0.0391057 119.894 0.0294033 121.055C0.0195603 121.571 0 122.076 0 122.587V122.882C0.00984298 124.524 0.0683449 126.164 0.136683 127.791C0.146386 128.28 0.156094 128.763 0.185483 129.249C0.253681 130.527 0.37067 131.793 0.468256 133.068C0.556139 133.955 0.614636 134.844 0.712082 135.725C0.78042 136.426 0.887698 137.135 0.975441 137.831C1.15107 139.296 1.34624 140.76 1.58023 142.206L1.61933 142.449C3.32638 152.881 6.34057 162.859 10.5057 172.222C11.013 173.386 11.5105 174.544 12.0665 175.69L12.1055 175.78C30.1613 213.181 66.6338 240.019 109.749 244.501C109.993 244.521 110.237 244.548 110.49 244.574C111.934 244.713 113.397 244.81 114.851 244.902C115.592 244.952 116.333 244.996 117.085 245.028C118.06 245.073 119.045 245.083 120.03 245.104C120.889 245.124 121.728 245.174 122.586 245.174C149.509 245.174 174.393 236.461 194.634 221.744L182.255 204.716C165.497 216.904 144.895 224.119 122.586 224.119Z" fill="#0561FC"/>
<path d="M122.461 21.0444C156.231 21.0444 186.129 37.5434 204.585 62.9044L221.617 50.5375C220.134 48.491 218.612 46.5098 217.042 44.5882C194.791 17.2344 164.347 1.88057 129.055 0.178441C126.88 0.0652467 124.675 0 122.471 0H122.461V21.0444Z" fill="#9AC7F7"/>
<path d="M245.134 122.607H224.093V122.616C224.093 143.723 217.645 163.317 206.623 179.558C200.009 189.298 191.747 197.83 182.227 204.751L194.605 221.78L194.625 221.755C196.546 220.359 198.429 218.922 200.263 217.417C226.21 196.426 241.417 168.076 244.5 135.234C244.519 135.012 244.539 134.784 244.558 134.566C244.705 132.879 244.851 131.198 244.939 129.492C244.949 129.398 244.939 129.305 244.949 129.211C244.958 129.092 244.958 128.966 244.968 128.846C245.066 126.781 245.134 124.716 245.134 122.622V122.607Z" fill="#7EB3FF"/>
<path d="M122.561 37.793C75.8263 37.793 37.793 75.8282 37.793 122.559C37.793 169.306 75.8263 207.325 122.561 207.325C169.305 207.325 207.328 169.306 207.328 122.559C207.328 75.8282 169.305 37.793 122.561 37.793Z" fill="#7EB3FF"/>
<path d="M126.429 37.9395C154.912 51.6174 174.636 80.7514 174.636 114.4C174.636 161.144 136.603 199.163 89.8685 199.163C88.6199 199.163 87.3812 199.128 86.1326 199.074C97.2138 204.388 109.622 207.374 122.703 207.374C169.447 207.374 207.47 169.355 207.47 122.608C207.47 77.1304 171.436 39.8953 126.429 37.9395Z" fill="#74B8DC"/>
<path d="M203.724 145.608C202.612 145.635 201.158 146.154 201.139 146.539C201.119 146.917 199.578 147.616 199.061 147.818C198.564 148.026 197.569 149.592 197.364 150.115C197.14 150.638 195.881 150.482 195.413 150.683C194.955 150.9 193.998 151.664 193.998 152.128C193.998 152.59 193.735 152.537 193.423 152.005L192.808 152.655L192.077 153.459C191.667 154.757 190.292 156.392 189.804 156.544C189.346 156.675 189.258 158.965 189.258 159.881C189.258 160.813 189.619 161.943 190.058 162.409L190.145 163.146L190.311 164.597C190.058 165.72 190.906 166.728 191.16 166.932C191.404 167.121 193.511 166.554 194.301 166.362C194.633 166.282 195.062 166.095 195.442 165.896C199.198 159.627 202.134 152.824 204.182 145.655C204.017 145.614 203.87 145.599 203.724 145.608Z" fill="#EAF4FE"/>
<path d="M63.6824 147.73C63.5654 147.968 65.0773 149.519 65.6722 150.045C66.2479 150.578 67.4964 153.125 67.75 153.955C68.0135 154.796 67.8671 156.158 67.7793 156.481C67.7013 156.801 68.0623 157.513 68.1109 157.8C68.1695 158.095 67.6037 160.594 67.8183 161.592C68.0329 162.595 66.6381 165.726 66.6771 167.273C66.716 168.832 67.4087 170.863 67.7013 170.711C67.9745 170.554 68.0818 172.118 67.6037 172.303C67.1355 172.498 66.5698 173.737 66.8428 173.797C67.1062 173.858 66.8331 175.082 66.9013 175.565C66.96 176.06 67.3793 179.288 67.477 180.084C67.5648 180.899 68.706 182.853 68.9499 183.516C69.1938 184.183 69.4376 185.443 69.5352 185.635C69.6229 185.833 69.7498 186.024 69.7595 186.036C69.7693 186.044 70.6959 186.382 70.969 186.588C71.2519 186.794 73.0566 186.659 73.6515 186.537C74.2466 186.418 73.7005 185.871 73.4272 185.584C73.1639 185.285 72.92 183.856 72.6176 183.703C72.3054 183.569 72.1786 181.741 72.442 181.338C72.7249 180.935 73.7979 180.296 73.9247 179.948C74.0417 179.612 74.0711 178.02 73.7784 177.8C73.4857 177.584 73.8661 175.66 73.6515 174.696C73.4272 173.746 75.3098 172.871 75.4269 172.113C75.5245 171.348 77.5631 170.538 78.0314 170.153C78.4898 169.773 78.8898 167.598 78.6752 167.124C78.4508 166.662 79.4264 166.285 79.8653 166.285C80.2946 166.285 80.7822 165.974 80.948 165.974C81.1139 165.968 81.631 165.01 81.9137 164.791C82.1966 164.558 82.7623 162.264 83.2697 161.887C83.7866 161.505 84.1963 160.121 84.1963 159.718C84.1963 159.311 84.9669 158.095 85.2302 157.735C85.4742 157.369 87.3763 156.5 87.7276 156.349C88.0591 156.215 88.5762 153.164 88.7127 152.064C88.8492 150.963 89.4151 149.491 89.454 149.139C89.4832 148.775 90.1076 148.468 90.2052 148.358C90.3222 148.233 90.7904 146.839 91.083 146.516C91.3659 146.198 92.4194 144.857 92.4487 144.553C92.4682 144.266 92.6243 143.505 92.7999 142.864V142.115L92.8096 140.932C92.4682 140.005 91.4537 138.858 91.1903 139.11C90.9366 139.359 89.7565 138.294 89.1517 138.065C88.5469 137.848 87.0544 137.653 86.6739 137.653C86.2936 137.653 84.9767 136.584 84.4012 136.403C83.8159 136.216 82.3136 135.923 82.0307 135.754C81.7673 135.577 81.3967 133.35 80.1968 132.619C78.9873 131.889 76.8706 130.192 76.6268 129.569C76.4024 128.947 74.0807 127.632 73.3686 127.24C72.6565 126.845 71.5738 126.756 71.447 126.899C71.3007 127.034 70.4033 125.693 69.9545 125.305C69.4864 124.93 68.1012 124.618 68.0329 124.951C67.9647 125.3 67.0574 125.121 66.8331 124.83C66.6186 124.534 65.8967 124.94 65.5649 125.056C65.2334 125.161 64.0726 126.92 63.5556 127.349C63.0093 127.765 62.385 126.954 62.0339 126.8C61.6924 126.655 60.3659 127.07 59.9951 127.325C59.644 127.579 58.7954 125.457 59.0001 124.483C59.1856 123.502 58.1124 121.569 57.2931 121.512C56.464 121.469 56.2103 119.431 56.3664 118.674C56.542 117.921 54.8838 117.451 54.4642 117.4C54.0546 117.343 53.0206 118.41 52.8548 118.916C52.6694 119.422 48.914 118.223 49.3626 115.971C49.7919 113.725 51.5769 111.405 52.0256 111.119C52.4646 110.852 54.8739 110.708 55.4008 111.015C55.947 111.33 56.4249 111.009 56.5128 110.875C56.6005 110.732 58.5613 110.895 59.1563 111.143C59.7416 111.377 60.5902 113.651 61.1852 113.928C61.7997 114.205 62.024 112.462 62.1313 112.03C62.2192 111.607 61.829 110.52 61.6827 110.221C61.5364 109.92 62.6582 107.167 63.5751 106.702C64.4921 106.226 65.4675 104.696 65.3895 104.42C65.3016 104.153 66.1211 103.94 66.3357 103.825C66.5599 103.718 66.3064 101.491 66.6672 101.004C67.0379 100.518 68.7548 99.4978 69.3011 99.2686C69.8472 99.0462 70.257 97.6355 70.0716 97.3917C69.8668 97.143 71.4861 95.7676 72.3054 95.5003C73.1443 95.2468 73.8661 95.9802 73.6614 96.0924C73.8271 96.0095 74.9782 95.4086 75.4757 95.0866C76.0512 94.7043 75.4854 93.6704 75.1051 93.3572C74.7441 93.0616 74.9684 91.8424 75.4075 91.7379C75.8561 91.6267 76.2366 90.5811 76.1293 90.3548C76.0123 90.1284 77.9632 90.5401 78.7142 89.9822C79.4361 89.433 78.9289 91.3097 78.3825 92.0783C77.8363 92.8237 78.7825 93.5406 79.1336 93.3983C79.4848 93.2558 79.8556 93.8041 79.9239 94.0127C79.9921 94.2245 80.753 93.801 81.2407 94.0049C81.7284 94.2245 82.021 93.3337 82.0698 92.9241C82.1089 92.5144 80.8895 91.66 80.7042 91.1664C80.4993 90.6708 80.4309 87.8 80.4018 87.2098C80.3823 86.6198 79.5823 85.6628 79.3191 85.8403C79.0654 85.9994 78.5581 84.3098 78.1485 83.9372C77.7387 83.5724 77.6412 82.7608 77.6607 82.4877C77.6802 82.2106 76.2658 80.7455 75.9341 80.0578C75.6025 79.3838 75.1246 79.5223 75.0952 79.8276C75.0561 80.1427 74.0807 80.1915 73.6809 80.1427C73.2712 80.1105 72.9395 78.5536 72.9395 77.9694C72.9395 77.385 71.1154 77.2817 70.8228 76.8065C70.5302 76.3404 69.3497 76.5609 69.1547 76.239C68.9694 75.9093 67.9159 75.6078 67.7208 75.7267C67.4964 75.8439 67.6037 80.0578 67.4087 81.1972C67.1941 82.3326 66.2479 83.3363 65.887 83.3061C65.5358 83.2857 65.7406 84.1206 65.9942 84.0476C66.2381 83.9694 65.3016 85.2892 65.1846 86.1516C65.0578 87.0128 64.1799 86.1086 64.0434 85.3293C63.897 84.5449 63.0385 83.4847 62.8923 83.7538C62.7167 84.0241 62.1313 83.4367 61.8681 83.5997C61.6144 83.7704 59.9951 82.6545 59.3415 82.2965C58.6978 81.9628 58.3174 79.9477 57.9468 79.7642C57.5663 79.5935 57.8881 79.3467 57.8783 79.0434C57.8589 78.7449 59.1465 77.5762 59.5367 77.1167C59.9172 76.6593 61.3119 74.8187 61.8681 74.4332C62.424 74.0402 62.8629 73.0023 62.7655 72.8014C62.6679 72.6199 65.1358 71.8357 65.8186 71.6065C66.4917 71.3743 67.0673 69.5053 67.155 68.9688C67.2525 68.4352 66.7356 67.4129 66.4234 67.2764C66.1211 67.1565 67.3599 67.1037 67.7793 67.3163C68.1891 67.5143 69.4669 66.9291 69.974 67.2013C70.4814 67.4636 71.4959 68.0723 72.2274 68.5435L72.0713 69.9131L71.7688 72.2376C69.818 73.0452 69.262 74.4498 69.9349 74.4109C70.6179 74.3826 73.7491 75.7688 74.6271 76.3979C75.4953 77.0242 75.7782 75.4819 76.0317 74.9688C76.2951 74.4559 76.217 72.9662 76.0123 72.6667C75.7877 72.3711 77.0168 72.4774 77.3584 72.8072C77.7194 73.1409 78.1094 72.4689 78.3825 72.3448C78.6557 72.2269 78.7825 70.9509 78.9289 70.6943C79.0654 70.4339 78.3338 70.1715 78.3241 69.8554C78.2947 69.5316 76.8998 68.9258 76.4414 68.7094C75.9829 68.4879 75.8756 67.5232 76.1 67.3584C76.3243 67.1915 75.944 65.9536 75.7195 65.5528C75.505 65.144 74.0417 64.8095 73.5541 64.8095C73.0663 64.8095 72.5591 63.676 72.2762 63.517C72.0031 63.3628 70.1301 63.1512 69.662 63.2897C69.1938 63.4213 68.3452 61.9543 67.5648 62.401C66.7745 62.8497 65.965 61.8791 65.6137 61.6832C65.2529 61.49 63.419 63.4663 63.4386 64.8425C63.4581 66.2326 64.1507 67.57 64.4433 67.6109C64.7261 67.649 64.3749 68.8985 64.0531 69.2634C63.7409 69.6098 62.9606 68.8809 63.263 68.565C63.5459 68.2528 62.4631 66.8062 62.0826 66.216C61.8193 65.7859 60.8634 65.4083 60.2097 65.1499C59.839 65.5567 59.4683 65.9849 59.1074 66.4033C59.2441 66.9038 59.4197 67.5592 59.2441 68.0548C58.9806 68.8985 58.2686 69.0254 58.2198 68.6674C58.2101 68.4986 57.8589 68.3718 57.4297 68.325C47.1679 80.6335 40.3396 95.8992 38.3789 112.633C38.7887 113.097 39.2569 113.651 39.3739 114.042C39.608 114.791 40.9055 115.275 41.1396 115.431C41.3737 115.572 41.4712 114.002 41.2955 113.598C41.1297 113.191 41.6077 112.939 41.598 113.239C41.5883 113.547 42.8173 114.937 43.2173 115.431C43.6171 115.932 44.0367 119.159 44.4269 119.853C44.8169 120.555 48.5432 121.993 49.7431 122.243C50.9526 122.493 52.4646 123.836 52.6988 124.228C52.9329 124.618 54.5327 124.81 54.8642 124.964C55.2153 125.124 56.0347 126.206 56.3664 126.433C56.7078 126.658 56.9712 127.3 56.9712 127.472C56.9712 127.643 59.0878 128.436 59.5952 129.01C60.1122 129.56 60.9511 129.409 61.1169 129.177C61.273 128.939 61.6924 130.298 61.9167 130.758C62.1313 131.233 62.1802 132.384 62.0143 132.569C61.8388 132.745 61.5364 134.869 61.1852 135.291C60.8243 135.715 60.0828 138.797 60.239 139.404C60.3951 140.022 61.3901 141.273 61.8193 141.467C62.2486 141.642 62.0631 142.306 61.7315 142.349C61.3901 142.395 61.5461 145.335 62.346 145.77C63.1263 146.207 63.7994 147.513 63.6824 147.73Z" fill="#EAF4FE"/>
<path d="M67.9843 60.4614C68.9989 60.2898 70.6864 60.0087 70.7937 59.722C70.8815 59.4917 70.8912 58.7943 70.7059 58.5495C70.862 58.5593 71.057 58.57 71.1936 58.57C71.5741 58.57 72.2276 56.4551 72.6275 55.9665C73.0275 55.47 75.3588 54.7374 75.905 54.4154C76.4611 54.0781 77.6707 52.9104 78.1389 52.7767C78.5973 52.6344 79.29 51.5456 79.1728 51.33C79.0753 51.1146 80.7434 50.1029 81.3774 49.8357C82.0211 49.5625 82.3431 48.8184 82.109 48.7793C81.9529 48.7734 78.412 50.6209 75.1734 52.4617C71.4668 54.9696 67.994 57.7847 64.7458 60.8271C65.7505 60.7589 67.3114 60.5746 67.9843 60.4614Z" fill="#EAF4FE"/>
<path d="M129.313 165.898C130.395 165.249 132.239 162.527 132.844 161.961C133.448 161.388 133.887 159.324 134.024 158.865C134.141 158.424 135.058 157.689 135.409 157.594C135.751 157.488 136.843 152.929 137.809 151.923C138.774 150.93 139.906 146.098 139.789 144.355C139.672 142.629 140.403 139.305 140.638 138.51C140.862 137.723 142.081 136.307 142.462 136.014C142.832 135.717 145.164 132.268 145.905 131.03C146.646 129.792 147.359 127.078 147.222 126.451C147.085 125.808 145.456 125.37 145.164 125.679C144.852 125.991 143.33 126.248 142.842 126.248C142.345 126.248 141.233 123.637 140.54 123.101C139.848 122.56 139.223 119.565 138.823 119.001C138.423 118.431 137.302 116.999 136.95 116.669C136.609 116.34 136.541 114.749 136.463 114.315C136.385 113.884 137.145 114.598 137.272 115.227C137.399 115.864 139.184 118.417 139.75 119.278C140.306 120.138 141.769 122.878 142.14 123.727C142.53 124.587 145.769 124.151 146.832 123.654C147.885 123.157 149.212 122.307 149.261 122.022C149.309 121.721 150.987 120.951 151.455 120.569C151.924 120.195 152.343 118.235 152.646 117.927C152.958 117.598 152.402 115.736 152.05 115.178C151.699 114.625 150.012 114.178 149.67 114.393C149.319 114.625 148.597 113.151 148.324 112.605C148.08 112.06 146.793 111.396 146.646 111.027C146.5 110.654 146.988 110.074 147.202 109.943C147.398 109.813 149.778 111.488 150.47 112.321C151.153 113.151 151.943 114.682 152.08 114.951C152.197 115.211 154.08 115.354 154.499 115.041C154.918 114.727 155.406 114.814 155.562 115.211L156.157 115.109L158.216 114.792C159.201 115.851 159.483 116.763 159.464 116.98C159.435 117.178 160.059 118.042 160.449 118.128C160.859 118.228 161.152 119.574 161.269 119.909C161.395 120.241 162.566 122.27 162.81 123.12C163.063 123.972 164.058 125.626 164.293 126.069C164.536 126.525 164.741 127.807 164.741 128.159C164.741 128.507 165.483 129.207 165.961 129.17C166.419 129.141 167.375 126.175 167.599 125.079C167.814 123.98 168.585 123.068 168.789 123.068C169.004 123.068 169.18 122.457 169.18 122.217C169.18 121.989 170.37 122.014 170.487 121.704C170.584 121.405 170.935 119.454 171.365 119.156C171.794 118.859 173.306 117.87 173.842 117.686C174.369 117.497 175.725 118.668 176.037 119.219C176.33 119.761 176.613 121.151 176.486 121.378C176.378 121.611 177.208 122.805 177.929 122.787C178.651 122.765 178.876 123.708 178.895 124.045C178.924 124.388 179.88 125.347 180.075 125.783C180.261 126.215 180.202 127.394 180.075 127.66C179.949 127.932 180.037 129.476 180.183 129.921C180.309 130.347 182.524 132.6 183.372 133.286C184.202 133.962 184.592 131.894 184.172 131.242C183.743 130.595 182.29 129.094 181.958 128.646C181.607 128.195 181.548 126.396 181.675 125.889C181.802 125.385 182.943 126.175 183.421 126.533C183.899 126.899 184.514 127.715 184.543 127.978C184.563 128.258 187.538 126.583 187.635 124.77C187.742 122.962 188.737 120.919 188.825 120.44C188.933 119.958 188.542 119.306 188.289 119.292C188.035 119.262 188.728 117.908 189.567 117.927C190.396 117.952 192.415 115.708 192.893 114.824C193.361 113.935 194.317 113.209 194.434 113.091C194.551 112.988 195.215 110.889 195.332 110.017C195.449 109.15 194.844 107.781 194.766 107.336C194.688 106.891 193.976 105.853 193.79 105.522C193.605 105.196 193.429 103.982 193.547 103.752C193.654 103.527 194.395 103.284 194.493 103.088C194.571 102.885 195.429 101.969 195.361 101.549C195.302 101.152 195.898 102.074 196.297 102.414C196.688 102.755 197.117 104.915 197.605 105.148C198.092 105.384 200.063 102.855 199.829 101.229C199.594 99.5934 200.404 97.5089 200.882 97.3197C201.243 97.181 202.17 95.8564 202.794 94.918C198.453 82.3502 191.235 71.1148 181.929 62.006C181.822 62.0187 181.705 62.0187 181.607 61.9963L180.875 61.845C179.666 61.5846 178.954 60.2776 179.168 59.9809C179.227 59.8884 179.217 59.6717 179.159 59.4152C178.476 58.8046 177.783 58.1999 177.081 57.6115C176.505 57.5951 175.901 57.6115 175.549 57.5951C174.808 57.5667 173.237 57.0478 172.955 56.7669C172.662 56.4859 171.716 57.0215 171.657 57.5424C171.599 58.072 169.94 58.3119 169.784 58.708C169.609 59.1177 168.76 59.1421 168.604 58.911C168.428 58.6905 166.897 59.4561 166.126 59.5713C165.366 59.6795 163.941 60.298 163.59 60.4511C163.249 60.5994 162.439 61.3915 162.303 61.7252C162.185 62.0568 161.2 62.6108 160.878 62.7288C160.566 62.8556 160.635 64.2837 161.034 64.4876C161.444 64.6846 160.283 64.3198 159.766 64.0564C159.24 63.799 158.684 64.6622 158.518 64.9637C158.352 65.2563 157.884 64.7802 157.913 64.353C157.923 63.9258 156.645 63.5862 156.469 63.9258C156.294 64.2653 155.406 63.8136 155.045 63.6243C154.675 63.4292 153.075 65.0923 152.48 65.6845C151.894 66.2825 149.056 66.7399 148.529 66.5145C148.002 66.2991 147.485 67.7768 147.944 67.8705C148.383 67.9621 146.793 67.7934 145.905 67.8841C145.027 67.9621 142.472 68.9855 141.867 69.438C141.252 69.8974 140.764 69.3406 140.764 68.9962C140.764 68.644 139.789 68.3241 139.496 68.2225C139.213 68.1271 138.648 70.1336 138.14 70.5188C137.633 70.909 137.028 68.9542 135.829 68.6313C134.639 68.3035 132.775 67.1535 132.239 67.0218C131.712 66.8794 130.649 65.7674 130.347 65.4503C130.054 65.1226 128.522 64.8515 128.035 64.8515C127.547 64.8515 125.967 65.7615 125.547 66.1195C125.118 66.4746 124.484 66.4054 124.269 66.537C124.055 66.6609 122.279 68.4021 121.587 68.9571C120.894 69.5024 119.685 71.866 119.295 72.4238C118.885 72.979 118.319 73.0872 118.085 73.1009C117.861 73.1224 117.666 73.7408 117.666 73.973C117.666 74.209 115.617 75.2772 115.402 76.2038C115.188 77.1403 115.607 79.2609 115.607 80.0178C115.607 80.7778 116.359 82.282 116.924 82.3043C117.5 82.3249 117.207 83.5881 117.061 83.9343C116.905 84.2923 117.422 84.6796 117.402 84.978C117.383 85.2757 115.949 85.7019 115.52 85.8716C115.08 86.0286 114.368 87.0256 114.271 87.3982C114.193 87.7181 112.827 87.9522 112.369 88.3853C112.486 88.0704 112.642 87.6342 112.749 87.3982C113.013 86.894 112.661 86.0286 112.447 85.855C112.232 85.6765 112.135 83.2076 111.783 82.6771C111.442 82.1512 110.574 81.2597 110.359 81.0782C110.154 80.9132 110.506 80.2626 110.633 79.9848C110.75 79.7165 109.491 79.5506 109.14 79.7643C108.789 79.9613 108.603 82.395 108.457 83.0642C108.311 83.7286 109.091 84.7567 109.296 84.8015C109.511 84.8582 109.442 86.0599 109.003 86.096C108.555 86.1409 108.145 87.8997 108.369 88.2946C108.603 88.6976 108.057 89.4789 107.794 89.667C107.521 89.8418 109.511 89.7393 110.418 89.715C111.315 89.6887 112.008 90.0934 111.92 90.1704C111.832 90.2465 110.193 90.4865 109.901 90.8708C109.618 91.26 108.496 92.0112 108.291 92.3019C108.067 92.6014 108.662 93.2607 109.121 93.2324C109.589 93.1992 110.135 94.8605 110.496 95.158C110.857 95.4633 110.73 96.3247 110.574 96.5627C110.408 96.787 108.194 96.395 107.355 96.6094C106.516 96.8182 105.453 98.5897 105.385 99.2569C105.307 99.9348 105.521 101.854 105.638 102.39C105.736 102.917 107.492 103.241 107.843 103.507C108.204 103.763 109.891 103.516 110.242 103.679C110.574 103.841 111.715 101.969 111.94 101.109C112.154 100.234 113.959 98.6423 114.33 98.0523C114.71 97.4698 116.632 97.5352 117.1 97.2221C117.578 96.9206 117.324 98.697 117.539 99.6606C117.773 100.642 119.616 100.507 119.343 99.6003C119.08 98.697 119.529 98.2912 119.597 98.6258C119.685 98.9418 121.46 99.6764 121.801 100.193C122.133 100.703 122.036 101.795 121.645 101.777C121.236 101.769 121.226 102.978 121.655 103.113C122.065 103.235 122.621 101.744 123.07 101.529C123.518 101.309 123.889 100.367 123.665 100.307C123.47 100.228 124.045 99.3974 124.299 99.6704C124.562 99.9514 123.353 97.8541 122.601 97.1011C121.85 96.3363 122.377 96.6758 123.792 97.8512L124.757 99.216C124.952 99.4588 125.206 100.21 125.372 100.483L125.596 100.883C125.791 101.362 125.967 102.677 125.967 103.023C125.967 103.377 126.728 104.073 127.196 104.043C127.644 104.012 128.005 104.265 127.908 104.286C127.81 104.301 128.22 105.201 128.679 105.224C129.137 105.246 129.342 104.052 128.874 104.024C128.405 104.002 128.483 102.282 128.425 101.533C128.376 100.782 128.756 100.167 128.913 100.167C129.078 100.167 128.903 101.708 128.903 102.064C128.913 102.414 129.108 103.113 129.322 103.613L129.81 103.973L130.873 104.8C132.415 104.346 134.463 104.696 134.395 105.007C134.317 105.328 135.526 105.401 135.595 104.889C135.672 104.391 135.721 104.904 135.721 105.26C135.721 105.599 134.726 106.98 134.561 107.603C134.385 108.242 130.844 107.818 129.313 107.699C127.791 107.579 125.547 108.094 125.372 108.556C125.206 109.008 122.826 107.504 121.733 107.045C120.641 106.585 119.782 104.92 119.558 104.71C119.333 104.484 119.753 103.954 119.646 103.625C119.538 103.289 117.051 103.225 116.329 103.493C115.607 103.76 111.871 104.155 110.984 104.539C110.106 104.936 108.769 104.517 108.35 104.443C107.94 104.374 106.955 105.595 106.457 105.813C105.94 106.033 105.316 107.757 105.043 109.659L104.35 110.981L103.921 111.831C102.692 112.756 101.327 115.893 100.927 116.518C100.527 117.145 100.195 121.648 100.195 123.17C100.195 124.688 101.522 127.9 101.892 128.781C102.273 129.663 104.555 131.619 105.316 132.098C106.087 132.553 108.574 132.619 109.384 132.611C110.193 132.611 111.12 131.837 111.442 130.896L112.632 131.017L113.188 131.078C113.208 131.74 114.973 132.278 115.402 132.508C115.832 132.744 116.993 132.57 117.344 132.465C117.695 132.36 118.075 135.477 117.822 136.376C117.568 137.275 118.426 140.43 118.68 141.381C118.943 142.332 120.026 144.93 120.133 145.865C120.241 146.798 119.499 149.892 119.373 150.981C119.256 152.073 120.729 155.106 121.128 156.157C121.509 157.198 121.821 159.446 121.821 159.963C121.821 160.492 123.431 163.625 123.801 164.926C124.172 166.215 128.22 166.533 129.313 165.898Z" fill="#EAF4FE"/>
<path d="M199.095 127.432C199.212 127.662 200.217 126.849 200.831 126.758C201.446 126.666 201.826 125.021 201.348 124.905C200.871 124.772 200.275 123.513 199.924 123.36C199.583 123.214 198.9 123.903 198.929 124.403C198.959 124.904 197.827 125.102 197.603 125.514C197.408 125.932 197.408 126.23 197.642 126.19C197.866 126.14 198.998 127.203 199.095 127.432Z" fill="#EAF4FE"/>
<path d="M197.882 136.343C198.185 136.233 197.853 134.609 197.219 134.478C196.575 134.344 194.819 136.608 195.161 137.918C195.492 139.213 195.863 139.135 196.039 138.856C196.214 138.586 197.278 139.038 197.58 139.144C197.882 139.249 197.882 138.928 197.58 138.448C197.278 137.972 197.58 136.455 197.882 136.343Z" fill="#EAF4FE"/>
<path d="M194.245 134.707C194.323 134.131 194.43 132.315 194.528 131.969C194.625 131.6 193.542 130.563 193.006 130.378C192.479 130.191 190.762 133.907 189.533 134.555C188.314 135.218 187.865 137.477 188.187 137.998C188.519 138.519 191.074 138.792 191.513 139.195C191.972 139.581 192.46 139.126 192.733 139.061C193.006 138.992 192.918 138.823 192.821 138.762C192.713 138.687 193.718 137.636 193.864 136.96C193.991 136.305 194.167 135.286 194.245 134.707Z" fill="#EAF4FE"/>
<path d="M187.324 140.891C186.368 140.521 185.236 141.095 185.158 141.465C185.061 141.834 188.845 142.438 190.113 142.781C191.372 143.116 192.152 143.231 191.859 143.014C191.567 142.807 188.289 141.254 187.324 140.891Z" fill="#EAF4FE"/>
<path d="M195.215 116.283C195.517 115.86 194.785 113.873 194.425 114.324C194.064 114.771 194.317 115.929 194.434 116.334C194.561 116.733 194.912 116.708 195.215 116.283Z" fill="#EAF4FE"/>
<path d="M197.424 120.495C197.638 119.986 197.131 119.413 196.312 119.247C195.502 119.077 195.619 121.546 195.98 121.859C196.341 122.172 197.199 121.012 197.424 120.495Z" fill="#EAF4FE"/>
<path d="M201.565 135.795C202.541 136.477 204.726 136.164 204.794 134.836C203.828 134.21 201.477 134.309 201.565 135.795Z" fill="#EAF4FE"/>
<path d="M201.02 105.586C200.61 105.867 200.396 106.597 200.523 106.898L200.357 106.884C200.035 106.884 199.996 108.179 200.337 108.401C200.679 108.618 201.498 107.391 201.947 107.096C202.366 106.811 203.244 106.624 203.371 106.717C203.498 106.816 204.259 106.581 205.068 106.213C205.205 106.148 205.371 105.93 205.537 105.639C205.351 104.69 205.127 103.762 204.902 102.832C204.483 103.132 204.034 103.449 203.81 103.646C203.381 104.035 201.557 105.224 201.02 105.586Z" fill="#EAF4FE"/>
<path d="M178.834 131.637L178.844 131.639C178.678 131.521 178.658 131.502 178.834 131.637Z" fill="#EAF4FE"/>
<path d="M184.817 137.258C184.456 136.454 183.276 135.098 182.203 134.238L181.783 133.568L181.344 132.822C180.935 132.01 179.725 131.38 179.618 131.144C179.52 130.901 179.13 131.85 178.711 131.571C178.935 131.73 179.384 132.052 180.028 132.495C181.169 133.316 183.354 138.833 183.852 139.226C184.349 139.612 185.159 138.06 184.817 137.258Z" fill="#EAF4FE"/>
<path d="M167.317 128.41C167.015 129.031 168.937 130.36 169.093 130.059C169.259 129.75 168.849 128.218 168.498 127.885C168.166 127.551 167.62 127.793 167.317 128.41Z" fill="#EAF4FE"/>
<path d="M141.7 157.886C141.768 158.546 143.105 159.066 143.495 158.956C143.885 158.847 144.958 156.865 145.104 156.293C145.261 155.717 145.368 154.492 145.368 154.202C145.368 153.913 145.553 153.254 145.709 153.172C145.846 153.097 146.099 152.42 146.256 151.674C146.392 150.926 145.436 147.453 145.417 146.834C145.397 146.217 144.704 147.146 144.529 147.766C144.344 148.384 142.617 149.643 142.227 150.173C141.846 150.695 141.417 152.476 141.564 152.788C141.72 153.087 141.417 154.3 141.242 154.644C141.076 154.97 141.632 157.231 141.7 157.886Z" fill="#EAF4FE"/>
<path d="M79.1042 181.92H80.2748C80.4795 180.663 79.0358 180.874 79.1042 181.92Z" fill="#EAF4FE"/>
<path d="M110.252 50.8345C109.745 50.891 108.486 50.6403 108.272 50.4042C108.047 50.176 106.155 49.977 105.599 50.2013C105.062 50.4326 105.443 48.8659 106.194 48.6944C106.955 48.5343 106.311 47.4574 105.511 47.4506C104.692 47.4447 102.702 47.156 102.234 47.2517C101.746 47.358 100.839 46.9296 100.497 46.8771C100.165 46.8302 97.7561 47.5998 96.6344 47.5402C95.4931 47.4974 92.7032 47.6037 92.1083 47.7764C91.4938 47.9335 91.0547 49.1137 91.1424 49.5351C91.2303 49.9526 88.4405 49.9488 87.5821 49.9644C86.6944 49.977 82.0122 50.9641 80.7928 51.6412C79.5735 52.3015 78.6273 54.0194 79.0274 54.0582C79.4273 54.0827 78.3444 55.064 77.691 55.2855C77.0374 55.5157 75.4766 55.6192 75.0962 55.9898C74.7353 56.3437 75.4961 56.6063 75.6327 56.8521C75.7888 57.0969 76.2278 56.6345 76.6472 56.8774C77.0471 57.1047 78.4128 57.215 78.7737 57.3515C79.1444 57.4997 77.6128 57.7886 76.9007 57.8382C76.1887 57.8909 76.3546 59.2868 76.9203 59.4868C77.5154 59.678 79.0078 59.8876 79.1639 59.6428C79.3103 59.399 80.9392 59.9101 81.6805 59.991C82.4121 60.0769 82.9682 61.9088 83.1828 62.3077C83.4169 62.7047 83.4656 64.1037 83.4169 64.5016C83.3583 64.9132 84.7044 65.6517 84.9484 65.3873C85.1922 65.1376 85.1141 66.0281 84.5777 65.9736C84.0413 65.9364 84.3924 67.4904 85.0556 67.7118C85.7189 67.9294 85.2702 68.8902 84.8899 69.18C84.4997 69.4647 84.7142 70.3817 84.3142 70.7065C83.934 71.0362 85.7092 74.1275 85.6897 75.7213C85.6897 77.3075 86.6847 78.6038 87.0652 78.6038C87.4455 78.6038 88.7527 78.9257 88.9088 79.2671C89.0941 79.5988 89.7183 79.0272 89.9719 78.7648C90.2158 78.5101 90.7523 77.7406 91.1522 77.0771C91.5521 76.3973 92.4497 73.2095 92.5765 72.8642C92.6935 72.5257 94.1957 72.7374 94.5274 72.5617C94.8688 72.3912 95.8443 71.6137 96.1175 71.3863C96.4099 71.1542 98.5365 70.252 99.1315 69.8306C99.6972 69.4121 100.673 67.6045 101.131 67.2173C101.58 66.83 100.897 66.9452 100.322 66.5714C99.7656 66.1998 100.01 65.7394 100.175 65.5727C100.341 65.3873 102.058 65.8536 102.663 66.0858C103.248 66.3199 104.38 65.4994 103.95 65.1825C103.511 64.8683 103.736 64.8723 103.95 65.0088C104.165 65.1415 104.38 63.9632 104.155 63.7427C103.931 63.5173 105.901 62.0776 105.55 60.7198C105.209 59.3648 106.087 57.968 106.613 57.9601C107.14 57.9396 106.984 56.4208 106.35 56.2833C105.726 56.1408 106.321 56.0033 106.555 55.7858C106.789 55.5702 107.091 54.2105 106.955 53.9501C106.808 53.6936 107.92 53.3951 108.116 53.0926C108.311 52.7795 109.588 52.1709 110.027 52.0771C110.476 51.966 110.72 50.7749 110.252 50.8345Z" fill="#EAF4FE"/>
<path d="M121.195 51.8925C120.59 51.6906 119.371 52.3627 119.527 52.7373C119.683 53.1196 118.522 52.2505 117.722 52.6631C116.922 53.0835 116.698 54.4999 117.069 54.6872C117.439 54.8725 117.693 55.9904 117.712 56.2099C117.722 56.4255 119.273 56.2724 119.683 55.9408C120.073 55.611 120.024 57.085 119.634 57.479C119.234 57.877 119.78 58.6701 120.2 58.7306C120.639 58.8037 121.224 59.8103 121.673 59.8103C122.122 59.7919 122.882 58.0818 123.048 57.441C123.224 56.803 124.706 57.3025 125.389 57.5131C126.062 57.7111 126.316 55.1525 125.575 54.7643C124.843 54.3819 123.926 54.5702 123.624 54.2824C123.312 53.9898 122.794 53.7098 122.443 53.6659C122.122 53.6122 121.8 52.0934 121.195 51.8925Z" fill="#EAF4FE"/>
<path d="M127.359 53.1298C128.558 53.2966 129.904 52.3134 130.197 52.0383C130.49 51.7662 126.881 51.0288 125.505 50.9839C124.13 50.9361 123.027 51.1262 123.047 51.3955C123.057 51.6648 126.159 52.9572 127.359 53.1298Z" fill="#EAF4FE"/>
<path d="M105.318 85.5406C104.996 85.4029 104.83 86.5891 104.898 87.037C104.967 87.4905 106.069 87.4543 106.537 87.3626C107.015 87.2915 107.376 86.911 107.356 86.516C107.337 86.1337 106.674 84.3749 106.401 84.3749C106.127 84.3749 105.63 85.6673 105.318 85.5406Z" fill="#EAF4FE"/>
<path d="M108.871 71.7028C108.627 71.2668 106.744 71.3156 106.286 71.2852C105.837 71.2668 104.423 70.7948 104.159 70.4971C103.896 70.2084 103.701 71.6491 103.272 71.8433C102.842 72.0237 103.477 72.3096 103.652 72.1466C103.828 71.9994 103.652 72.8948 103.447 73.207C103.262 73.5201 104.696 73.7337 104.862 74.2058C105.018 74.6779 105.622 74.9755 106.179 74.8818C106.754 74.7949 107.886 74.2058 108.285 74.1658C108.685 74.1249 109.115 72.1359 108.871 71.7028Z" fill="#EAF4FE"/>
<path d="M148.234 60.9716C148.868 60.321 151.531 59.4489 151.824 58.7848C152.127 58.1155 151.639 57.5684 151.375 57.5684C151.102 57.5684 150.771 57.9001 150.712 58.0102C150.654 58.1155 147.61 58.8384 146.674 59.2881C145.727 59.7358 144.654 60.4265 144.255 60.8313C143.864 61.2283 143.211 64.2395 142.996 64.5789C142.772 64.9243 144.001 66.1542 144.557 66.4919C145.103 66.8265 145.864 66.6509 146.069 66.5903C146.283 66.5221 145.796 64.4199 145.503 63.6806C145.21 62.948 147.591 61.6175 148.234 60.9716Z" fill="#EAF4FE"/>
<path d="M145.022 53.0998C146.026 54.0997 146.573 52.6628 147.675 52.8054C147.665 50.7852 144.934 51.4787 145.022 53.0998Z" fill="#EAF4FE"/>
<path d="M164.648 53.5559C164.619 53.9266 167.429 54.226 168.248 54.0835C169.058 53.9402 168.072 52.6625 166.873 52.7374C165.682 52.8156 164.687 53.1813 164.648 53.5559Z" fill="#EAF4FE"/>
<path d="M63.1107 74.2452C62.8182 74.5155 63.0718 75.8898 63.6376 75.927C64.1934 75.9649 65.091 73.8609 65.7738 74.2736C66.4566 74.7046 66.9249 74.8705 66.8176 74.6422C66.7004 74.4179 64.7496 73.5673 64.4959 73.4083C64.2619 73.2619 63.4035 73.9741 63.1107 74.2452Z" fill="#EAF4FE"/>
<path d="M70.3125 120.828C70.3125 121.052 71.5318 121.024 71.7268 120.647C71.9317 120.279 71.8341 119.971 71.4927 119.971C71.1708 119.971 70.3125 120.592 70.3125 120.828Z" fill="#EAF4FE"/>
<path d="M64.7767 118.829C65.3619 118.719 65.0791 119.661 65.2155 119.997C65.3619 120.337 66.7568 120.611 67.0397 120.839C67.3226 121.06 68.0347 120.412 68.6102 120.477C69.1564 120.549 68.415 118.548 67.4787 118.597C66.5422 118.67 65.7912 117.755 65.5668 117.64C65.3423 117.538 64.2498 116.874 63.9475 116.626C63.645 116.381 61.2553 116.162 60.4261 116.162C59.6261 116.162 58.719 116.984 58.602 117.257C58.4752 117.538 59.8896 117.72 60.2992 117.511C60.6993 117.294 62.5917 117.75 62.9819 118.202C63.3721 118.653 64.1816 118.936 64.7767 118.829Z" fill="#EAF4FE"/>
<path d="M62.4023 120.702C62.4023 120.927 63.6412 120.783 63.9339 120.804C64.2264 120.804 64.2264 120.601 63.9045 120.344C63.5924 120.1 62.4023 120.466 62.4023 120.702Z" fill="#EAF4FE"/>
<path d="M63.2709 114.424C62.949 114.298 62.6953 114.799 62.6953 115.043C62.6953 115.283 62.8709 115.473 63.0855 115.473C63.3001 115.473 63.5927 114.55 63.2709 114.424Z" fill="#EAF4FE"/>
<path d="M65.785 114.694C65.6777 114.454 65.1508 114.258 64.9947 114.258C64.8289 114.258 64.7216 114.664 64.7509 115.16C64.7801 115.662 65.8923 114.921 65.785 114.694Z" fill="#EAF4FE"/>
<path d="M67.6937 117.532C68.1911 117.287 68.2497 116.688 67.9569 116.724C67.6546 116.754 67.118 115.868 66.7962 115.738C66.4743 115.612 66.2109 116.273 66.2109 116.559C66.2109 116.849 66.3963 117.051 66.6206 116.992C66.8353 116.933 67.1864 117.761 67.6937 117.532Z" fill="#EAF4FE"/>
<path d="M205.494 136.89C205.25 137.024 204.002 137.171 203.836 136.931C203.67 136.678 203.426 137.435 203.153 137.549C202.9 137.676 203.046 138.328 203.436 138.123C203.709 137.984 204.899 138.638 205.845 139.241C206.031 138.288 206.206 137.341 206.362 136.377C206.021 136.555 205.66 136.808 205.494 136.89Z" fill="#EAF4FE"/>
<path d="M70.6253 58.7577C70.5473 58.671 70.1962 58.9245 70.3523 59.0855C70.4303 59.1918 70.7717 58.9372 70.6253 58.7577Z" fill="#D1ECFB"/>
<path d="M80.02 86.7394C79.9518 86.6428 79.5812 86.9061 79.7177 87.0672C79.8054 87.1686 80.1664 86.9061 80.02 86.7394Z" fill="#D1ECFB"/>
<path d="M91.083 146.516C91.3659 146.198 92.4194 144.857 92.4486 144.553C92.4682 144.266 92.6243 143.505 92.7999 142.864V142.115L92.8096 140.932C92.4682 140.005 91.4536 138.858 91.1903 139.11C90.9366 139.359 89.7564 138.294 89.1517 138.065C88.5469 137.848 87.0544 137.653 86.6739 137.653C86.2935 137.653 84.9767 136.584 84.4012 136.403C83.8159 136.216 82.3136 135.923 82.0307 135.754C81.7673 135.577 81.3967 133.35 80.1968 132.619C78.9872 131.889 76.8706 130.192 76.6268 129.569C76.4023 128.947 74.0807 127.632 73.3686 127.24C72.6565 126.845 71.5738 126.756 71.447 126.899C71.3007 127.034 70.4033 125.693 69.9545 125.305C69.4864 124.93 68.1012 124.618 68.0328 124.951C67.9646 125.3 67.0574 125.121 66.8331 124.83C66.6185 124.534 65.8966 124.94 65.5649 125.056C65.2334 125.161 64.0726 126.92 63.5556 127.349C63.0093 127.765 62.3849 126.954 62.0338 126.8C61.6924 126.655 60.3659 127.07 59.9951 127.325C59.644 127.579 58.7954 125.457 59.0001 124.483C59.1856 123.502 58.1124 121.569 57.293 121.512C56.464 121.469 56.2103 119.431 56.3664 118.674C56.542 117.921 54.8837 117.451 54.4642 117.4C54.0545 117.343 53.0206 118.41 52.8548 118.916C52.6694 119.422 48.914 118.223 49.3625 115.971C49.7918 113.725 51.5769 111.405 52.0256 111.119C52.4646 110.852 54.8739 110.708 55.4008 111.015C55.9469 111.33 56.4249 111.009 56.5128 110.875C56.6005 110.732 58.5612 110.895 59.1563 111.143C59.7415 111.377 60.5901 113.651 61.1852 113.928C61.7997 114.205 62.024 112.462 62.1313 112.03C62.2192 111.607 61.829 110.52 61.6827 110.221C61.5363 109.92 62.6581 107.167 63.5751 106.702C64.492 106.226 65.4675 104.696 65.3894 104.42C65.3016 104.153 66.1211 103.94 66.3356 103.825C66.5599 103.718 66.3064 101.491 66.6672 101.004C67.0379 100.518 68.7548 99.4978 69.301 99.2686C69.8472 99.0462 70.2569 97.6355 70.0716 97.3917C69.8667 97.143 71.486 95.7676 72.3054 95.5003C73.1443 95.2468 73.8661 95.9802 73.6614 96.0924C73.8271 96.0095 74.9782 95.4086 75.4757 95.0866C76.0512 94.7043 75.4854 93.6704 75.105 93.3572C74.7441 93.0616 74.9684 91.8424 75.4075 91.7379C75.856 91.6267 76.2365 90.5811 76.1293 90.3548C76.0123 90.1284 77.9631 90.5401 78.7142 89.9822C79.4361 89.433 78.9289 91.3097 78.3825 92.0783C77.8363 92.8237 78.7825 93.5406 79.1336 93.3983C79.4847 93.2558 79.8555 93.8041 79.9239 94.0127C79.9921 94.2245 80.7529 93.801 81.2407 94.0049C81.7284 94.2245 82.021 93.3337 82.0698 92.9241C82.1089 92.5144 80.8895 91.66 80.7041 91.1664C80.4993 90.6708 80.4309 87.8 80.4018 87.2098C80.3823 86.6198 79.5823 85.6628 79.3191 85.8403C79.0654 85.9994 78.5581 84.3098 78.1485 83.9372C77.7387 83.5724 77.6411 82.7608 77.6607 82.4877C77.6802 82.2106 76.2658 80.7455 75.9341 80.0578C75.6025 79.3838 75.1246 79.5223 75.0952 79.8276C75.0561 80.1427 74.0806 80.1915 73.6809 80.1427C73.2711 80.1105 72.9394 78.5537 72.9394 77.9694C72.9394 77.385 71.1154 77.2817 70.8228 76.8065C70.5302 76.3404 69.3497 76.5609 69.1547 76.239C68.9693 75.9093 67.9159 75.6078 67.7208 75.7267C67.4964 75.8439 67.6037 80.0578 67.4087 81.1972C67.1941 82.3327 66.2479 83.3364 65.8869 83.3061C65.5358 83.2857 65.7406 84.1206 65.9942 84.0476C66.2381 83.9694 65.3016 85.2892 65.1846 86.1516C65.0577 87.0128 64.1799 86.1086 64.0433 85.3293C63.897 84.5449 63.0385 83.4847 62.8923 83.7538C62.7167 84.0241 62.1313 83.4368 61.8681 83.5997C61.6144 83.7704 59.9951 82.6545 59.3415 82.2965C58.6978 81.9628 58.3174 79.9477 57.9467 79.7642C57.5662 79.5935 57.8881 79.3467 57.8783 79.0434C57.8589 78.7449 59.1465 77.5762 59.5367 77.1167C59.9172 76.6593 61.3119 74.8187 61.8681 74.4332C62.424 74.0402 62.8629 73.0024 62.7654 72.8014C62.6679 72.6199 65.1358 71.8357 65.8186 71.6065C66.4917 71.3743 67.0673 69.5053 67.155 68.9688C67.2524 68.4352 66.7355 67.4129 66.4234 67.2764C66.1211 67.1565 67.3599 67.1037 67.7793 67.3163C68.1891 67.5143 69.4668 66.9291 69.974 67.2013C70.4814 67.4636 71.4959 68.0723 72.2274 68.5435L72.0713 69.9131L71.7688 72.2376C69.8179 73.0452 69.2619 74.4498 69.9349 74.4109C70.6179 74.3826 73.7491 75.7688 74.6271 76.3979C75.4952 77.0242 75.7781 75.4819 76.0317 74.9688C76.295 74.4559 76.217 72.9662 76.0123 72.6667C75.7877 72.3711 77.0168 72.4774 77.3584 72.8072C77.7193 73.1409 78.1094 72.4689 78.3825 72.3448C78.6557 72.2269 78.7825 70.9509 78.9289 70.6943C79.0654 70.4339 78.3338 70.1715 78.3241 69.8554C78.2947 69.5316 76.8998 68.9258 76.4414 68.7094C75.9829 68.4879 75.8756 67.5232 76.1 67.3584C76.3243 67.1915 75.9439 65.9536 75.7195 65.5528C75.5049 65.144 74.0417 64.8095 73.5541 64.8095C73.0663 64.8095 72.5591 63.676 72.2761 63.517C72.0031 63.3628 70.1301 63.1512 69.662 63.2897C69.1938 63.4213 68.3451 61.9543 67.5647 62.401C66.7745 62.8497 65.965 61.8791 65.6137 61.6832C65.2529 61.49 63.419 63.4663 63.4386 64.8425C63.4581 66.2326 64.1506 67.57 64.4433 67.6109C64.726 67.649 64.3749 68.8985 64.053 69.2634C63.7409 69.6098 62.9606 68.8809 63.2629 68.565C63.5458 68.2528 62.4631 66.8062 62.0826 66.216C61.8193 65.7859 60.8634 65.4083 60.2096 65.1499C59.839 65.5567 59.4683 65.9849 59.1074 66.4033C59.244 66.9038 59.4197 67.5592 59.2441 68.0548C58.9805 68.8985 58.2686 69.0254 58.2198 68.6674C58.2101 68.4986 57.8589 68.3718 57.4297 68.325C47.1678 80.6335 40.3396 95.8992 38.3789 112.633C38.7887 113.097 39.2569 113.651 39.3739 114.042C39.608 114.791 40.9054 115.275 41.1396 115.431C41.3737 115.572 41.4711 114.002 41.2955 113.598C41.1297 113.191 41.6077 112.939 41.598 113.239C41.5883 113.547 42.8172 114.937 43.2173 115.431C43.6171 115.932 44.0366 119.159 44.4269 119.853C44.8169 120.555 48.5432 121.993 49.743 122.243C50.9526 122.493 52.4646 123.836 52.6987 124.228C52.9329 124.618 54.5326 124.81 54.8642 124.964C55.2153 125.124 56.0347 126.206 56.3664 126.433C56.7078 126.658 56.9712 127.3 56.9712 127.472C56.9712 127.643 59.0878 128.436 59.5952 129.01C60.1122 129.56 60.9511 129.409 61.1169 129.177C61.273 128.939 61.6924 130.298 61.9167 130.758C62.1313 131.233 62.1802 132.384 62.0143 132.569C61.8388 132.745 61.5363 134.869 61.1852 135.291C60.8243 135.715 60.0828 138.797 60.239 139.404C60.3951 140.022 61.3901 141.273 61.8193 141.467C62.2485 141.642 62.0631 142.306 61.7315 142.349C61.3901 142.395 61.546 145.335 62.346 145.77C63.1263 146.207 63.7994 147.513 63.6824 147.73C63.5654 147.968 65.0773 149.519 65.6722 150.045C66.2479 150.578 67.4964 153.125 67.7499 153.955C68.0134 154.796 67.8671 156.158 67.7793 156.481C67.7013 156.801 68.0622 157.513 68.1109 157.8C68.1695 158.095 67.6037 160.594 67.8183 161.592C68.0328 162.595 66.6381 165.726 66.677 167.273C66.716 168.832 67.4087 170.863 67.7013 170.711C67.9745 170.554 68.0818 172.118 67.6037 172.303C67.1354 172.498 66.5697 173.737 66.8428 173.797C67.1062 173.858 66.8331 175.082 66.9013 175.565C66.96 176.06 67.3793 179.288 67.477 180.084C67.5647 180.899 68.706 182.853 68.9499 183.516C69.1937 184.183 69.4376 185.443 69.5352 185.635C69.6229 185.833 69.7497 186.024 69.7594 186.036C69.7693 186.044 70.6959 186.382 70.969 186.588C71.2519 186.794 73.0566 186.659 73.6515 186.537C74.2466 186.418 73.7004 185.871 73.4272 185.584C73.1639 185.285 72.92 183.856 72.6176 183.703C72.3054 183.569 72.1786 181.741 72.4419 181.338C72.7249 180.935 73.7979 180.296 73.9247 179.948C74.0417 179.612 74.0711 178.02 73.7783 177.8C73.4857 177.584 73.8661 175.66 73.6515 174.696C73.4272 173.746 75.3098 172.871 75.4269 172.113C75.5245 171.348 77.5631 170.538 78.0314 170.153C78.4898 169.773 78.8898 167.598 78.6752 167.124C78.4508 166.662 79.4264 166.285 79.8652 166.285C80.2945 166.285 80.7822 165.974 80.948 165.974C81.1139 165.968 81.6309 165.01 81.9137 164.791C82.1966 164.558 82.7623 162.264 83.2696 161.887C83.7865 161.505 84.1963 160.121 84.1963 159.718C84.1963 159.311 84.9668 158.095 85.2302 157.735C85.4742 157.369 87.3763 156.5 87.7275 156.349C88.0591 156.215 88.5761 153.164 88.7127 152.064C88.8492 150.963 89.415 149.491 89.454 149.139C89.4832 148.775 90.1076 148.468 90.2051 148.358C90.3221 148.233 90.7904 146.839 91.083 146.516Z" fill="#C5E1F9"/>
<path d="M72.6275 55.9665C73.0275 55.47 75.3588 54.7374 75.905 54.4154C76.4611 54.0781 77.6707 52.9104 78.1389 52.7767C78.5973 52.6344 79.29 51.5456 79.1729 51.33C79.0753 51.1146 80.7434 50.1029 81.3774 49.8357C82.0211 49.5625 82.3431 48.8184 82.109 48.7793C81.9529 48.7734 78.412 50.6209 75.1734 52.4617C71.4668 54.9696 67.994 57.7847 64.7458 60.8271C65.7505 60.7589 67.3114 60.5746 67.9843 60.4614C68.9989 60.2898 70.6864 60.0087 70.7937 59.722C70.8815 59.4917 70.8913 58.7943 70.7059 58.5495C70.862 58.5593 71.057 58.57 71.1936 58.57C71.5741 58.57 72.2276 56.4551 72.6275 55.9665Z" fill="#C5E1F9"/>
<path d="M158.586 64.8075L158.518 64.9295C158.352 65.2221 157.884 64.746 157.913 64.3188C157.923 63.8916 156.645 63.5521 156.469 63.8916C156.294 64.2311 155.406 63.7794 155.045 63.5902C154.675 63.395 153.075 65.0582 152.48 65.6503C151.894 66.2483 149.056 66.7057 148.529 66.4803C148.002 66.2649 147.485 67.7426 147.944 67.8363C148.383 67.928 146.793 67.7592 145.905 67.8499C145.027 67.928 142.472 68.9514 141.867 69.4038C141.252 69.8632 140.764 69.3064 140.764 68.962C140.764 68.6098 139.789 68.2899 139.496 68.1884C139.213 68.0929 138.648 70.0995 138.14 70.4846C137.633 70.8748 137.028 68.92 135.829 68.5971C134.639 68.2694 132.775 67.1193 132.239 66.9877C131.712 66.8452 130.649 65.7333 130.347 65.4162C130.054 65.0884 128.522 64.8173 128.035 64.8173C127.547 64.8173 125.967 65.7274 125.547 66.0854C125.118 66.4404 124.484 66.3712 124.269 66.5028C124.055 66.6267 122.279 68.3679 121.587 68.923C120.894 69.4683 119.685 71.8318 119.295 72.3896C118.885 72.9448 118.319 73.0531 118.085 73.0667C117.861 73.0882 117.666 73.7066 117.666 73.9388C117.666 74.1749 115.617 75.243 115.402 76.1696C115.188 77.1061 115.607 79.2267 115.607 79.9836C115.607 80.7437 116.358 82.2478 116.924 82.2702C117.5 82.2907 117.207 83.554 117.061 83.9002C116.905 84.2582 117.422 84.6454 117.402 84.9438C117.383 85.2415 115.949 85.6677 115.52 85.8374C115.08 85.9945 114.368 86.9914 114.271 87.3641C114.193 87.6839 112.827 87.9181 112.369 88.3512C112.486 88.0362 112.642 87.6 112.749 87.3641C113.013 86.8598 112.661 85.9945 112.447 85.8208C112.232 85.6424 112.135 83.1735 111.783 82.6429C111.442 82.117 110.574 81.2255 110.359 81.044C110.154 80.8791 110.506 80.2285 110.633 79.9506C110.75 79.6823 109.491 79.5164 109.14 79.7301C108.789 79.9271 108.603 82.3609 108.457 83.0301C108.311 83.6945 109.091 84.7225 109.296 84.7673C109.511 84.824 109.442 86.0257 109.003 86.0618C108.555 86.1067 108.145 87.8655 108.369 88.2605C108.603 88.6635 108.057 89.4447 107.794 89.6329C107.521 89.8076 109.511 89.7051 110.418 89.6808C111.315 89.6545 112.008 90.0592 111.92 90.1363C111.832 90.2123 110.193 90.4524 109.901 90.8367C109.618 91.2259 108.496 91.977 108.291 92.2677C108.067 92.5672 108.662 93.2265 109.121 93.1983C109.589 93.1651 110.135 94.8263 110.496 95.1238C110.857 95.4291 110.73 96.2905 110.574 96.5286C110.408 96.7529 108.194 96.3608 107.355 96.5753C106.516 96.7841 105.453 98.5555 105.385 99.2227C105.307 99.9006 105.521 101.82 105.638 102.356C105.736 102.883 107.492 103.206 107.843 103.473C108.204 103.729 109.891 103.482 110.242 103.644C110.574 103.807 111.715 101.934 111.94 101.075C112.154 100.2 113.959 98.6081 114.33 98.0181C114.71 97.4357 116.632 97.5011 117.1 97.1879C117.578 96.8864 117.324 98.6628 117.539 99.6264C117.773 100.608 119.616 100.473 119.343 99.5661C119.08 98.6628 119.529 98.257 119.597 98.5917C119.685 98.9076 121.46 99.6422 121.801 100.159C122.133 100.668 122.036 101.761 121.645 101.743C121.236 101.735 121.226 102.944 121.655 103.079C122.065 103.201 122.621 101.71 123.07 101.494C123.518 101.275 123.889 100.333 123.665 100.273C123.47 100.194 124.045 99.3632 124.299 99.6363C124.562 99.9172 123.352 97.82 122.601 97.067C121.85 96.3022 122.377 96.6416 123.791 97.817L124.757 99.1818C124.952 99.4247 125.206 100.176 125.372 100.449L125.596 100.849C125.791 101.328 125.967 102.643 125.967 102.989C125.967 103.343 126.728 104.039 127.196 104.008C127.644 103.978 128.005 104.231 127.908 104.252C127.81 104.267 128.22 105.167 128.679 105.19C129.137 105.212 129.342 104.018 128.874 103.99C128.405 103.967 128.483 102.248 128.425 101.498C128.376 100.747 128.756 100.133 128.913 100.133C129.078 100.133 128.903 101.674 128.903 102.03C128.913 102.38 129.108 103.079 129.322 103.579L129.81 103.939L130.873 104.766C132.415 104.312 134.463 104.662 134.395 104.973C134.317 105.294 135.526 105.367 135.594 104.855C135.672 104.357 135.721 104.87 135.721 105.226C135.721 105.565 134.726 106.945 134.561 107.569C134.385 108.208 130.844 107.784 129.313 107.664C127.791 107.544 125.547 108.06 125.372 108.522C125.206 108.974 122.826 107.47 121.733 107.011C120.641 106.551 119.782 104.886 119.558 104.675C119.333 104.45 119.753 103.92 119.646 103.591C119.538 103.255 117.051 103.191 116.329 103.459C115.607 103.725 111.871 104.12 110.984 104.505C110.106 104.902 108.769 104.483 108.35 104.409C107.94 104.34 106.955 105.561 106.457 105.779C105.94 105.999 105.316 107.723 105.043 109.625L104.35 110.947L103.921 111.796C102.692 112.722 101.327 115.859 100.927 116.483C100.527 117.111 100.195 121.613 100.195 123.136C100.195 124.654 101.522 127.866 101.892 128.747C102.273 129.629 104.555 131.585 105.316 132.064C106.087 132.519 108.574 132.584 109.384 132.577C110.193 132.577 111.12 131.803 111.442 130.862L112.632 130.983L113.188 131.044C113.208 131.706 114.973 132.244 115.402 132.474C115.832 132.71 116.993 132.536 117.344 132.431C117.695 132.326 118.075 135.443 117.822 136.342C117.568 137.241 118.426 140.396 118.68 141.347C118.943 142.298 120.026 144.896 120.133 145.831C120.241 146.764 119.499 149.858 119.373 150.946C119.256 152.039 120.729 155.072 121.128 156.122C121.509 157.164 121.821 159.411 121.821 159.928C121.821 160.458 123.431 163.59 123.801 164.892C124.172 166.181 128.22 166.499 129.313 165.864C130.395 165.214 132.239 162.493 132.844 161.927C133.448 161.354 133.887 159.29 134.024 158.831C134.141 158.39 135.058 157.655 135.409 157.56C135.751 157.454 136.843 152.894 137.809 151.889C138.774 150.896 139.906 146.063 139.789 144.321C139.672 142.595 140.404 139.271 140.638 138.476C140.862 137.689 142.081 136.273 142.462 135.98C142.832 135.682 145.164 132.234 145.905 130.996C146.646 129.757 147.359 127.044 147.222 126.417C147.085 125.774 145.456 125.336 145.164 125.645C144.852 125.957 143.33 126.214 142.842 126.214C142.345 126.214 141.233 123.602 140.54 123.067C139.847 122.526 139.223 119.531 138.823 118.967C138.423 118.397 137.302 116.964 136.95 116.635C136.609 116.306 136.541 114.715 136.463 114.281C136.385 113.85 137.145 114.564 137.272 115.193C137.399 115.83 139.184 118.383 139.75 119.244C140.306 120.103 141.769 122.844 142.14 123.693C142.53 124.553 145.769 124.116 146.832 123.62C147.885 123.123 149.212 122.273 149.261 121.988C149.309 121.687 150.987 120.917 151.455 120.535C151.924 120.161 152.343 118.201 152.646 117.893C152.958 117.564 152.402 115.702 152.05 115.144C151.699 114.591 150.012 114.143 149.67 114.359C149.319 114.591 148.597 113.117 148.324 112.571C148.08 112.026 146.793 111.362 146.646 110.993C146.5 110.62 146.988 110.04 147.202 109.909C147.398 109.779 149.778 111.454 150.47 112.287C151.153 113.117 151.943 114.648 152.08 114.917C152.197 115.177 154.079 115.32 154.499 115.007C154.918 114.693 155.406 114.78 155.562 115.177L156.157 115.075L158.216 114.758C159.201 115.817 159.483 116.729 159.464 116.946C159.435 117.144 160.059 118.008 160.449 118.094C160.859 118.193 161.152 119.54 161.269 119.875C161.395 120.207 162.566 122.236 162.81 123.086C163.063 123.938 164.058 125.592 164.293 126.035C164.536 126.491 164.741 127.772 164.741 128.125C164.741 128.473 165.483 129.173 165.961 129.136C166.419 129.107 167.375 126.14 167.599 125.045C167.814 123.946 168.585 123.034 168.789 123.034C169.004 123.034 169.18 122.423 169.18 122.183C169.18 121.955 170.37 121.98 170.487 121.67C170.584 121.37 170.935 119.42 171.365 119.122C171.794 118.825 173.306 117.836 173.842 117.652C174.008 117.59 174.262 117.676 174.535 117.828C174.574 116.661 174.623 115.494 174.623 114.318C174.623 95.8446 168.663 78.7488 158.586 64.8075Z" fill="#C5E1F9"/>
<path d="M169.093 130.059C169.259 129.75 168.849 128.218 168.498 127.885C168.166 127.551 167.62 127.793 167.317 128.41C167.015 129.031 168.937 130.36 169.093 130.059Z" fill="#C5E1F9"/>
<path d="M141.7 157.886C141.768 158.546 143.105 159.066 143.495 158.956C143.885 158.847 144.958 156.865 145.104 156.293C145.261 155.717 145.368 154.492 145.368 154.202C145.368 153.913 145.553 153.254 145.709 153.172C145.846 153.097 146.099 152.42 146.256 151.674C146.392 150.926 145.436 147.453 145.417 146.834C145.397 146.217 144.704 147.146 144.529 147.766C144.344 148.384 142.617 149.643 142.227 150.173C141.846 150.695 141.417 152.476 141.564 152.788C141.72 153.087 141.417 154.3 141.242 154.644C141.076 154.97 141.632 157.231 141.7 157.886Z" fill="#C5E1F9"/>
<path d="M79.1042 181.92H80.2748C80.4795 180.663 79.0358 180.874 79.1042 181.92Z" fill="#C5E1F9"/>
<path d="M87.5821 49.9644C86.6944 49.977 82.0122 50.9641 80.7928 51.6412C79.5735 52.3015 78.6273 54.0194 79.0274 54.0582C79.4273 54.0827 78.3444 55.064 77.691 55.2855C77.0374 55.5157 75.4766 55.6192 75.0962 55.9898C74.7353 56.3437 75.4961 56.6063 75.6327 56.8521C75.7888 57.0969 76.2278 56.6345 76.6472 56.8774C77.0471 57.1047 78.4128 57.215 78.7737 57.3515C79.1444 57.4997 77.6128 57.7886 76.9007 57.8382C76.1887 57.8909 76.3546 59.2868 76.9203 59.4868C77.5154 59.678 79.0078 59.8876 79.1639 59.6428C79.3103 59.399 80.9392 59.9101 81.6805 59.991C82.4121 60.0769 82.9682 61.9088 83.1828 62.3077C83.4169 62.7047 83.4656 64.1037 83.4169 64.5016C83.3583 64.9132 84.7044 65.6517 84.9484 65.3873C85.1922 65.1376 85.1141 66.0281 84.5777 65.9736C84.0413 65.9364 84.3924 67.4904 85.0556 67.7118C85.7189 67.9294 85.2702 68.8902 84.8899 69.18C84.4997 69.4647 84.7142 70.3817 84.3142 70.7065C83.934 71.0362 85.7092 74.1275 85.6897 75.7213C85.6897 77.3075 86.6847 78.6038 87.0652 78.6038C87.4455 78.6038 88.7527 78.9257 88.9088 79.2671C89.0941 79.5988 89.7183 79.0272 89.9719 78.7648C90.2158 78.5101 90.7523 77.7406 91.1522 77.0771C91.5521 76.3973 92.4497 73.2095 92.5765 72.8642C92.6935 72.5257 94.1957 72.7374 94.5274 72.5617C94.8688 72.3912 95.8443 71.6137 96.1175 71.3863C96.4099 71.1542 98.5365 70.252 99.1315 69.8306C99.6972 69.4121 100.673 67.6045 101.131 67.2173C101.58 66.83 100.897 66.9452 100.322 66.5714C99.7656 66.1998 100.01 65.7394 100.175 65.5727C100.341 65.3873 102.058 65.8536 102.663 66.0858C103.248 66.3199 104.38 65.4994 103.95 65.1825C103.511 64.8683 103.736 64.8723 103.95 65.0088C104.165 65.1415 104.38 63.9632 104.155 63.7427C103.931 63.5173 105.901 62.0776 105.55 60.7198C105.209 59.3648 106.087 57.968 106.613 57.9601C107.14 57.9396 106.984 56.4208 106.35 56.2833C105.726 56.1408 106.321 56.0033 106.555 55.7858C106.789 55.5702 107.091 54.2105 106.955 53.9501C106.808 53.6936 107.92 53.3951 108.116 53.0926C108.311 52.7795 109.588 52.1709 110.027 52.0771C110.476 51.966 110.72 50.7749 110.252 50.8345C109.745 50.891 108.486 50.6403 108.272 50.4042C108.047 50.176 106.155 49.977 105.599 50.2013C105.062 50.4326 105.443 48.8659 106.194 48.6944C106.955 48.5343 106.311 47.4574 105.511 47.4506C104.692 47.4447 102.702 47.156 102.234 47.2517C101.746 47.358 100.839 46.9296 100.497 46.8771C100.165 46.8302 97.7561 47.5998 96.6344 47.5402C95.4931 47.4974 92.7032 47.6037 92.1083 47.7764C91.4938 47.9335 91.0547 49.1137 91.1424 49.5351C91.2303 49.9526 88.4405 49.9488 87.5821 49.9644Z" fill="#C5E1F9"/>
<path d="M120.2 58.7306C120.639 58.8037 121.224 59.8103 121.673 59.8103C122.122 59.7919 122.882 58.0818 123.048 57.441C123.224 56.803 124.706 57.3025 125.389 57.5131C126.062 57.7111 126.316 55.1525 125.575 54.7643C124.843 54.3819 123.926 54.5702 123.624 54.2824C123.312 53.9898 122.794 53.7098 122.443 53.6659C122.122 53.6122 121.8 52.0934 121.195 51.8925C120.59 51.6906 119.371 52.3627 119.527 52.7373C119.683 53.1196 118.522 52.2505 117.722 52.6631C116.922 53.0835 116.698 54.4999 117.069 54.6872C117.439 54.8725 117.693 55.9904 117.712 56.2099C117.722 56.4255 119.273 56.2724 119.683 55.9408C120.073 55.611 120.024 57.085 119.634 57.479C119.234 57.877 119.78 58.6701 120.2 58.7306Z" fill="#C5E1F9"/>
<path d="M130.197 52.0383C130.49 51.7662 126.881 51.0288 125.505 50.9839C124.13 50.9361 123.027 51.1262 123.047 51.3955C123.057 51.6648 126.159 52.9572 127.359 53.1298C128.558 53.2966 129.904 52.3134 130.197 52.0383Z" fill="#C5E1F9"/>
<path d="M105.318 85.5406C104.996 85.4029 104.83 86.5891 104.898 87.037C104.967 87.4905 106.069 87.4543 106.537 87.3626C107.015 87.2915 107.376 86.911 107.356 86.516C107.337 86.1337 106.674 84.3749 106.401 84.3749C106.127 84.3749 105.63 85.6673 105.318 85.5406Z" fill="#C5E1F9"/>
<path d="M108.871 71.7028C108.627 71.2668 106.744 71.3156 106.286 71.2852C105.837 71.2668 104.423 70.7948 104.159 70.4971C103.896 70.2084 103.701 71.6491 103.272 71.8433C102.842 72.0237 103.477 72.3096 103.652 72.1466C103.828 71.9994 103.652 72.8948 103.447 73.207C103.262 73.5201 104.696 73.7337 104.862 74.2058C105.018 74.6779 105.622 74.9755 106.179 74.8818C106.754 74.7949 107.886 74.2058 108.285 74.1658C108.685 74.1249 109.115 72.1359 108.871 71.7028Z" fill="#C5E1F9"/>
<path d="M144.255 60.8313C143.864 61.2283 143.211 64.2395 142.996 64.5789C142.772 64.9243 144.001 66.1542 144.557 66.4919C145.103 66.8265 145.864 66.6509 146.069 66.5903C146.283 66.5221 145.796 64.4199 145.503 63.6806C145.21 62.948 147.591 61.6175 148.234 60.9716C148.868 60.321 151.531 59.4489 151.824 58.7848C152.127 58.1155 151.639 57.5684 151.375 57.5684C151.102 57.5684 150.771 57.9001 150.712 58.0102C150.654 58.1155 147.61 58.8384 146.674 59.2881C145.727 59.7358 144.654 60.4265 144.255 60.8313Z" fill="#C5E1F9"/>
<path d="M145.022 53.0734C146.027 54.0733 146.573 52.6364 147.676 52.7789L147.646 52.5895C147.285 52.2483 146.915 51.8903 146.554 51.5625C145.803 51.5704 144.964 52.1643 145.022 53.0734Z" fill="#C5E1F9"/>
<path d="M63.1107 74.2452C62.8182 74.5155 63.0718 75.8898 63.6376 75.927C64.1934 75.9649 65.091 73.8609 65.7738 74.2736C66.4566 74.7046 66.9249 74.8705 66.8176 74.6422C66.7004 74.4179 64.7496 73.5673 64.4959 73.4083C64.2619 73.2619 63.4035 73.9741 63.1107 74.2452Z" fill="#C5E1F9"/>
<path d="M70.3125 120.828C70.3125 121.052 71.5318 121.024 71.7268 120.647C71.9317 120.279 71.8341 119.971 71.4927 119.971C71.1708 119.971 70.3125 120.592 70.3125 120.828Z" fill="#C5E1F9"/>
<path d="M64.7767 118.829C65.3619 118.719 65.0791 119.661 65.2155 119.997C65.3619 120.337 66.7568 120.611 67.0397 120.839C67.3226 121.06 68.0347 120.412 68.6102 120.477C69.1564 120.549 68.415 118.548 67.4787 118.597C66.5422 118.67 65.7912 117.755 65.5668 117.64C65.3423 117.538 64.2498 116.874 63.9475 116.626C63.645 116.381 61.2553 116.162 60.4261 116.162C59.6261 116.162 58.719 116.984 58.602 117.257C58.4752 117.538 59.8896 117.72 60.2992 117.511C60.6993 117.294 62.5917 117.75 62.9819 118.202C63.3721 118.653 64.1816 118.936 64.7767 118.829Z" fill="#C5E1F9"/>
<path d="M62.4023 120.702C62.4023 120.927 63.6412 120.783 63.9339 120.804C64.2264 120.804 64.2264 120.601 63.9045 120.344C63.5924 120.1 62.4023 120.466 62.4023 120.702Z" fill="#C5E1F9"/>
<path d="M63.2709 114.424C62.949 114.298 62.6953 114.799 62.6953 115.043C62.6953 115.283 62.8709 115.473 63.0855 115.473C63.3001 115.473 63.5927 114.55 63.2709 114.424Z" fill="#C5E1F9"/>
<path d="M65.785 114.694C65.6777 114.454 65.1508 114.258 64.9947 114.258C64.8289 114.258 64.7216 114.664 64.7509 115.16C64.7801 115.662 65.8923 114.921 65.785 114.694Z" fill="#C5E1F9"/>
<path d="M67.6937 117.532C68.1911 117.287 68.2497 116.688 67.9569 116.724C67.6546 116.754 67.118 115.868 66.7962 115.738C66.4743 115.612 66.2109 116.273 66.2109 116.559C66.2109 116.849 66.3963 117.051 66.6206 116.992C66.8353 116.933 67.1864 117.761 67.6937 117.532Z" fill="#C5E1F9"/>
<path d="M291.558 303.924C291.558 304.966 290.719 305.814 289.675 305.814H65.1735C64.12 305.814 63.281 304.966 63.281 303.924V153.938C63.281 152.899 64.12 152.051 65.1735 152.051H289.675C290.719 152.051 291.558 152.899 291.558 153.938V303.924Z" fill="#003E99"/>
<path d="M153.987 164.684H200.487V140.504H153.987V164.684ZM149.88 171.003C148.661 171.003 147.656 170.012 147.656 168.789V136.397C147.656 135.178 148.661 134.18 149.88 134.18H204.584C205.813 134.18 206.808 135.178 206.808 136.397V168.789C206.808 170.012 205.813 171.003 204.584 171.003H149.88Z" fill="#0450CF"/>
<path d="M291.558 210.521C291.558 214.642 288.261 218.851 284.164 219.854C213.989 236.636 140.84 236.636 70.6654 219.854C66.5781 218.851 63.2715 214.642 63.281 210.521V159.7C63.2715 155.588 66.6172 152.226 70.7825 152.197H284.067C288.203 152.226 291.559 155.588 291.559 159.7V210.521H291.558Z" fill="#003E99"/>
<path d="M177.406 227.421C141.88 227.421 106.363 223.229 71.8121 214.97C69.9978 214.527 68.2615 212.358 68.2615 210.499V159.676C68.2615 158.301 69.4027 157.18 70.7782 157.178H284.053C285.419 157.18 286.55 158.306 286.55 159.68V210.497C286.55 212.358 284.804 214.527 282.97 214.975C248.449 223.229 212.932 227.421 177.406 227.421H177.406Z" fill="#0450CF"/>
<path d="M177.311 225.229C142.634 225.229 107.917 220.935 73.4248 212.468C71.6105 212.016 69.7766 209.782 69.6498 207.887C68.5963 190.52 67.5624 173.15 66.5089 155.783C66.4211 154.385 67.5039 153.232 68.9182 153.223H285.744C287.129 153.232 288.202 154.385 288.114 155.783C287.06 173.158 286.017 190.52 284.973 207.887C284.866 209.78 283.003 212.016 281.179 212.471C246.715 220.935 211.999 225.229 177.311 225.229H177.311Z" fill="#0561FC"/>
<path d="M112.793 151.758V306.395H134.409V151.758H112.793Z" fill="#0450CF"/>
<path d="M115.43 151.758V218.25C115.43 221.562 115.527 224.253 115.635 224.253H117.693C117.81 224.253 117.898 221.562 117.898 218.25V151.758H115.43Z" fill="#003E99"/>
<path d="M129.492 151.758V218.25C129.492 221.562 129.59 224.253 129.697 224.253H131.745C131.862 224.253 131.96 221.562 131.96 218.25V151.758H129.492Z" fill="#003E99"/>
<path d="M131.96 305.995V239.501C131.96 236.191 131.862 233.496 131.755 233.496H129.697C129.59 233.496 129.492 236.191 129.492 239.501V305.995H131.96Z" fill="#003E99"/>
<path d="M117.898 305.995V239.501C117.898 236.191 117.81 233.496 117.703 233.496H115.644C115.537 233.496 115.43 236.191 115.43 239.501V305.995H117.898Z" fill="#003E99"/>
<path d="M133.318 242.947C133.318 243.855 132.606 244.875 131.709 245.162C126.451 246.78 120.832 246.78 115.574 245.162C114.677 244.875 113.965 243.855 113.965 242.947V223.589C113.965 222.682 114.677 221.662 115.574 221.379C120.832 219.762 126.451 219.762 131.709 221.379C132.606 221.662 133.318 222.682 133.318 223.589V242.947Z" fill="#9AC7F7"/>
<path d="M131.709 221.896C126.451 220.371 120.832 220.371 115.574 221.896C114.677 222.161 113.965 223.127 113.965 223.98V232.409L114.14 232.437H133.318V223.98C133.318 223.127 132.606 222.161 131.709 221.896Z" fill="#EAF4FE"/>
<path d="M113.965 234.375V242.948C113.965 243.855 114.677 244.876 115.574 245.163C120.832 246.781 126.451 246.781 131.709 245.163C132.606 244.876 133.318 243.855 133.318 242.948V234.375H113.965Z" fill="#9AC7F7"/>
<path d="M123.741 244.672C121.175 244.672 118.629 244.282 116.162 243.529C115.976 243.465 115.723 243.089 115.723 242.906V235.986H131.769V242.897C131.769 243.104 131.496 243.469 131.301 243.534C128.862 244.282 126.316 244.672 123.741 244.672Z" fill="#9AC7F7"/>
<path d="M123.555 244.725C120.98 244.725 118.424 244.338 115.947 243.577C115.732 243.507 115.43 243.105 115.43 242.857V223.495C115.43 223.249 115.732 222.839 115.966 222.766C118.424 222.013 120.98 221.631 123.555 221.631C126.14 221.631 128.696 222.013 131.164 222.771C131.379 222.839 131.681 223.254 131.681 223.506V242.853C131.681 243.097 131.388 243.507 131.154 243.582C128.696 244.338 126.14 244.725 123.555 244.725Z" fill="#003E99"/>
<path d="M122.754 234.668V244.247C122.754 244.497 122.793 244.9 122.813 244.967C123.115 245.729 123.427 246.121 123.739 246.121C124.051 246.121 124.364 245.729 124.666 244.972C124.695 244.9 124.724 244.488 124.724 244.247V234.668H122.754Z" fill="#EAF4FE"/>
<path d="M220.02 151.758V306.395H241.626V151.758H220.02Z" fill="#0450CF"/>
<path d="M222.656 151.758V218.25C222.656 221.562 222.754 224.253 222.861 224.253H224.919C225.036 224.253 225.134 221.562 225.134 218.25V151.758H222.656Z" fill="#003E99"/>
<path d="M236.719 151.758V218.25C236.719 221.562 236.816 224.253 236.923 224.253H238.972C239.089 224.253 239.187 221.562 239.187 218.25V151.758H236.719Z" fill="#003E99"/>
<path d="M239.187 305.995V239.501C239.187 236.191 239.089 233.496 238.982 233.496H236.933C236.816 233.496 236.719 236.191 236.719 239.501V305.995H239.187Z" fill="#003E99"/>
<path d="M225.134 305.995V239.501C225.134 236.191 225.036 233.496 224.919 233.496H222.871C222.754 233.496 222.656 236.191 222.656 239.501V305.995H225.134Z" fill="#003E99"/>
<path d="M240.554 242.947C240.545 243.855 239.832 244.875 238.935 245.162C233.677 246.78 228.059 246.78 222.801 245.162C221.903 244.875 221.191 243.855 221.191 242.947V223.589C221.191 222.682 221.913 221.662 222.801 221.379C228.059 219.762 233.677 219.762 238.935 221.379C239.832 221.662 240.545 222.682 240.554 223.589V242.947Z" fill="#9AC7F7"/>
<path d="M238.935 221.896C233.677 220.371 228.059 220.371 222.801 221.896C221.913 222.161 221.191 223.127 221.191 223.98V232.409L221.367 232.437H240.554V223.98C240.545 223.127 239.832 222.161 238.935 221.896Z" fill="#EAF4FE"/>
<path d="M221.191 234.375V242.948C221.191 243.855 221.903 244.876 222.801 245.163C228.059 246.781 233.677 246.781 238.935 245.163C239.832 244.876 240.545 243.855 240.554 242.948V234.375H221.191Z" fill="#9AC7F7"/>
<path d="M230.968 244.672C228.402 244.672 225.856 244.282 223.388 243.529C223.203 243.465 222.949 243.089 222.949 242.906V235.986H238.986V242.897C238.986 243.104 238.722 243.469 238.527 243.534C236.089 244.282 233.533 244.672 230.968 244.672Z" fill="#9AC7F7"/>
<path d="M230.782 244.725C228.207 244.725 225.641 244.338 223.183 243.577C222.959 243.507 222.656 243.105 222.656 242.857V223.495C222.656 223.249 222.959 222.839 223.193 222.766C225.641 222.013 228.207 221.631 230.782 221.631C233.367 221.631 235.923 222.013 238.391 222.771C238.605 222.839 238.908 223.254 238.908 223.506V242.853C238.908 243.097 238.605 243.507 238.381 243.582C235.923 244.338 233.367 244.725 230.782 244.725Z" fill="#003E99"/>
<path d="M229.98 234.668V244.247C229.98 244.497 230.019 244.9 230.048 244.967C230.351 245.729 230.663 246.121 230.975 246.121C231.297 246.121 231.6 245.729 231.902 244.972C231.931 244.9 231.96 244.488 231.96 244.247V234.668H229.98Z" fill="#EAF4FE"/>
</svg>
