<svg width="854" height="459" viewBox="0 0 854 459" fill="none" xmlns="http://www.w3.org/2000/svg">
<path d="M0 311.242L45.8576 326.414V316.079L0 300.902V311.242Z" fill="#6480C0"/>
<path d="M45.8576 316.094L381.939 204.944L336.082 189.784L0 300.914L45.8576 316.094Z" fill="white"/>
<path d="M45.9192 326.365L382.001 215.234V204.88L45.9192 316.029V326.365Z" fill="#B4C6D3"/>
<path d="M48.7893 295.366L74.7457 303.948V294.605L48.7893 286.01V295.366Z" fill="#6480C0"/>
<path d="M74.7457 294.557L363.889 198.994L337.941 190.4L48.7893 285.975L74.7457 294.557Z" fill="#EAF5F8"/>
<path d="M75.3367 303.945L364.48 208.36V199.026L75.3367 294.589V303.945Z" fill="#B4C6D3"/>
<path d="M139.286 278.905C139.286 280.435 137.545 281.941 134.021 283.1C126.998 285.441 115.611 285.441 108.597 283.1C105.089 281.941 103.319 280.435 103.319 278.905V275.741H139.286V278.905Z" fill="#6480C0"/>
<path d="M108.605 271.742C115.62 269.406 127.006 269.406 134.03 271.742C141.057 274.045 141.057 277.795 134.03 280.151C127.006 282.468 115.62 282.468 108.605 280.151C101.557 277.795 101.557 274.045 108.605 271.742Z" fill="white"/>
<path d="M136.663 275.292C136.663 276.582 135.196 277.852 132.183 278.852C126.24 280.817 116.574 280.817 110.619 278.852C107.639 277.852 106.189 276.582 106.189 275.292V123.955H136.663V275.292Z" fill="white"/>
<path d="M110.646 120.4C116.601 118.43 126.267 118.43 132.21 120.4C138.157 122.351 138.157 125.547 132.21 127.538C126.267 129.499 116.601 129.499 110.646 127.538C104.703 125.547 104.703 122.351 110.646 120.4Z" fill="#CCCECD"/>
<path d="M237.604 246.448C237.604 247.966 235.838 249.498 232.326 250.652C225.299 252.994 213.92 252.994 206.902 250.652C203.39 249.498 201.615 247.966 201.615 246.448V243.289H237.604V246.448Z" fill="#6480C0"/>
<path d="M206.911 239.286C213.93 236.955 225.308 236.955 232.335 239.286C239.367 241.606 239.367 245.365 232.335 247.702C225.308 250.033 213.93 250.033 206.911 247.702C199.85 245.365 199.85 241.606 206.911 239.286Z" fill="white"/>
<path d="M234.971 242.85C234.971 244.142 233.487 245.429 230.516 246.385C224.553 248.372 214.887 248.372 208.923 246.385C205.96 245.429 204.485 244.142 204.485 242.85V91.5029H234.971V242.85Z" fill="white"/>
<path d="M208.936 87.9571C214.899 85.9752 224.565 85.9752 230.529 87.9571C236.463 89.9104 236.463 93.0987 230.529 95.0735C224.565 97.0531 214.899 97.0531 208.936 95.0831C203.002 93.0987 203.002 89.9104 208.936 87.9571Z" fill="#CCCECD"/>
<path d="M337.322 173.55C337.322 175.052 335.576 176.596 332.061 177.745C325.021 180.074 313.643 180.074 306.616 177.745C303.104 176.596 301.346 175.052 301.346 173.55V170.374H337.322V173.55Z" fill="#6480C0"/>
<path d="M306.608 166.384C313.635 164.036 325.013 164.036 332.053 166.384C339.08 168.709 339.08 172.463 332.053 174.8C325.013 177.127 313.635 177.127 306.608 174.8C299.593 172.463 299.593 168.709 306.608 166.384Z" fill="white"/>
<path d="M334.719 169.876C334.719 171.149 333.223 172.443 330.252 173.424C324.284 175.408 314.622 175.408 308.668 173.424C305.688 172.443 304.217 171.149 304.217 169.876V58.3319H334.719V169.876Z" fill="#B4C6D3"/>
<path d="M308.683 54.7826C314.638 52.8055 324.3 52.8055 330.267 54.7826C336.21 56.7241 336.21 59.929 330.267 61.9084C324.3 63.8738 314.638 63.8738 308.683 61.9084C302.728 59.929 302.728 56.7241 308.683 54.7826Z" fill="#CCCECD"/>
<path d="M88.445 142.901L39.4622 126.712V112.556L88.445 128.749V142.901Z" fill="#6480C0"/>
<path d="M88.2515 142.849L381.422 45.9469V33.5819L88.2515 130.491V142.849Z" fill="white"/>
<path d="M408.928 25.3629L363.826 10.4591L187.983 0L248.049 23.8784L408.928 25.3629Z" fill="#325DAB"/>
<path d="M12.1973 126.684L57.2985 141.599L241.545 20.79L233.13 14.8894L188.007 0L12.1973 126.684Z" fill="#466AB2"/>
<path d="M57.3994 141.601L409.053 25.3646L233.23 14.8911L57.3994 141.601Z" fill="white"/>
<path d="M387.584 418.677L45.2019 304.425L380.764 193.481L723.146 307.742L387.584 418.677Z" fill="#EAF5F8"/>
<path d="M389.043 409.762L76.0542 305.32L105.979 295.87L418.964 400.321L389.043 409.762Z" fill="#005A7C"/>
<path d="M389.246 439.511L45.2019 326.078V304.393L389.246 417.824V439.511Z" fill="#6480C0"/>
<path d="M388.881 439.791L724.443 328.877V307.166L388.881 418.101V439.791Z" fill="#B4C6D3"/>
<path d="M388.163 439.41L434.021 454.582V444.247L388.163 429.067V439.41Z" fill="#6480C0"/>
<path d="M434.021 444.261L770.103 333.11L724.249 317.949L388.163 429.082L434.021 444.261Z" fill="white"/>
<path d="M434.083 454.533L770.165 343.4V333.046L434.083 444.197V454.533Z" fill="#B4C6D3"/>
<path d="M408.253 421.169L434.209 429.751V420.405L408.253 411.814V421.169Z" fill="#6480C0"/>
<path d="M434.409 420.338L723.552 324.775L693.104 314.663L403.948 410.236L434.409 420.338Z" fill="#EAF5F8"/>
<path d="M434.083 429.748L723.226 334.161V324.83L434.083 420.393V429.748Z" fill="#B4C6D3"/>
<path d="M381.669 267.731C353.914 267.731 327.986 269.141 304.407 271.621H165.741V301.989H165.899C169.31 328.145 256.929 356.598 381.669 356.598C506.419 356.598 594.037 328.145 597.444 301.989H597.619V271.621H458.936C435.357 269.141 409.434 267.731 381.669 267.731Z" fill="#FBAD56"/>
<path d="M167.744 301.616L167.898 301.959C171.268 327.8 257.943 355.468 381.595 355.468C505.255 355.468 591.93 327.8 595.3 301.959L595.462 301.576V272.87H458.861C434.064 270.284 408.195 268.98 381.595 268.98C355.003 268.98 329.13 270.284 304.711 272.851L167.744 272.87V301.616ZM381.595 357.848C256.28 357.848 168.168 329.337 163.812 302.551L163.588 302.049V271.681C163.588 271.024 164.519 270.491 165.666 270.491H304.333C328.627 267.917 354.749 266.601 381.595 266.601C408.445 266.601 434.567 267.917 459.235 270.51L597.544 270.491C598.691 270.491 599.618 271.024 599.618 271.681V302.049L599.373 302.611C594.897 329.378 506.822 357.848 381.595 357.848Z" fill="white"/>
<path d="M192.288 324.595C196.339 326.613 200.84 328.594 205.819 330.507V271.633H192.288V324.595Z" fill="#F387A3"/>
<path d="M445.563 270.503V352.899C450.167 352.504 454.664 352.069 459.097 351.591V271.638H457.98C453.94 271.212 449.739 270.863 445.563 270.503Z" fill="#F387A3"/>
<path d="M422.603 354.468C427.166 354.225 431.691 353.959 436.121 353.638V269.726C431.674 269.407 427.19 269.1 422.603 268.86V354.468Z" fill="#F387A3"/>
<path d="M537.402 337.031C542.177 335.652 546.698 334.212 550.933 332.737V271.633H537.402V337.031Z" fill="#F387A3"/>
<path d="M399.643 355.367C404.197 355.265 408.719 355.129 413.161 354.953V268.498C408.694 268.32 404.218 268.143 399.643 268.039V355.367Z" fill="#F387A3"/>
<path d="M560.361 329.158C565.369 327.105 569.903 324.997 573.88 322.837V271.633H560.361V329.158Z" fill="#F387A3"/>
<path d="M491.482 347.2C496.124 346.432 500.624 345.62 505 344.771V271.633H491.482V347.2Z" fill="#F387A3"/>
<path d="M468.522 350.505C473.135 349.937 477.636 349.323 482.045 348.675V271.633H468.522V350.505Z" fill="#F387A3"/>
<path d="M514.442 342.815C519.134 341.795 523.642 340.731 527.977 339.62V271.633H514.442V342.815Z" fill="#F387A3"/>
<path d="M261.885 345.43C266.256 346.249 270.782 347.015 275.403 347.75V271.633H261.885V345.43Z" fill="#F387A3"/>
<path d="M353.724 355.012C358.179 355.174 362.679 355.295 367.246 355.376V267.936C362.679 268.024 358.179 268.152 353.724 268.309V355.012Z" fill="#F387A3"/>
<path d="M376.683 267.795V355.473C378.379 355.478 380.041 355.504 381.745 355.504C384.595 355.504 387.396 355.473 390.21 355.447V267.835C387.388 267.807 384.616 267.731 381.745 267.731C380.029 267.731 378.387 267.783 376.683 267.795Z" fill="#F387A3"/>
<path d="M168.61 301.623H168.764C169.537 307.49 174.64 313.481 183.446 319.227V271.633H168.61V301.623Z" fill="#F387A3"/>
<path d="M583.321 316.863C590.049 311.849 593.955 306.693 594.612 301.623H594.778V271.633H583.321V316.863Z" fill="#F387A3"/>
<path d="M215.965 333.893C220.216 335.311 224.717 336.686 229.483 338.002V271.633H215.965V333.893Z" fill="#F387A3"/>
<path d="M330.764 353.818C335.21 354.115 339.707 354.375 344.282 354.598V268.655C339.694 268.874 335.219 269.169 330.764 269.466V353.818Z" fill="#F387A3"/>
<path d="M238.925 340.476C243.263 341.545 247.764 342.573 252.443 343.558V271.633H238.925V340.476Z" fill="#F387A3"/>
<path d="M284.844 349.163C289.25 349.789 293.762 350.369 298.371 350.914V271.633H284.844V349.163Z" fill="#F387A3"/>
<path d="M307.804 351.956C312.226 352.403 316.76 352.805 321.339 353.176V270.195C316.751 270.562 312.238 270.978 307.804 271.425V351.956Z" fill="#F387A3"/>
<path d="M381.669 213.096C254.418 213.096 165.741 242.708 165.741 269.292C165.741 295.868 254.418 325.477 381.669 325.477C508.924 325.477 597.619 295.868 597.619 269.292C597.619 242.708 508.924 213.096 381.669 213.096Z" fill="#FFD792"/>
<path d="M381.595 214.345C255.57 214.345 167.744 243.334 167.744 269.349C167.744 295.361 255.57 324.348 381.595 324.348C507.632 324.348 595.462 295.361 595.462 269.349C595.462 243.334 507.632 214.345 381.595 214.345ZM381.595 326.725C253.122 326.725 163.588 296.487 163.588 269.349C163.588 242.209 253.122 211.966 381.595 211.966C510.08 211.966 599.618 242.209 599.618 269.349C599.618 296.487 510.08 326.725 381.595 326.725Z" fill="white"/>
<path d="M401.078 324.121V320.604C403.356 320.552 405.625 320.488 407.873 320.414L401.419 324.111C401.307 324.114 401.19 324.116 401.078 324.121Z" fill="#FFDFAA"/>
<path d="M401.078 324.306V324.121C401.19 324.116 401.307 324.113 401.419 324.111L401.078 324.306Z" fill="white"/>
<path d="M381.669 230.76C353.914 230.76 327.986 232.17 304.407 234.65H165.741V265.021H165.899C169.31 291.174 256.929 319.627 381.669 319.627C506.419 319.627 594.037 291.174 597.444 265.021H597.619V234.65H458.936C435.357 232.17 409.434 230.76 381.669 230.76Z" fill="#FBAD56"/>
<path d="M167.744 264.543L167.898 264.89C171.268 290.729 257.943 318.395 381.595 318.395C505.255 318.395 591.93 290.729 595.3 264.89L595.462 264.502V235.797H458.861C434.064 233.21 408.195 231.906 381.595 231.906C355.003 231.906 329.13 233.21 304.711 235.777L167.744 235.797V264.543ZM381.595 320.774C256.28 320.774 168.168 292.263 163.812 265.48L163.588 264.978V234.607C163.588 233.95 164.519 233.417 165.666 233.417H304.333C328.627 230.843 354.749 229.527 381.595 229.527C408.445 229.527 434.567 230.843 459.235 233.436L597.544 233.417C598.691 233.417 599.618 233.95 599.618 234.607V264.978L599.373 265.537C594.897 292.306 506.822 320.774 381.595 320.774Z" fill="white"/>
<path d="M192.288 287.522C196.339 289.544 200.84 291.524 205.819 293.437V234.56H192.288V287.522Z" fill="#F387A3"/>
<path d="M445.563 233.43V315.828C450.167 315.431 454.664 314.995 459.097 314.517V234.562H457.98C453.94 234.141 449.739 233.789 445.563 233.43Z" fill="#F387A3"/>
<path d="M422.603 317.399C427.166 317.154 431.691 316.888 436.121 316.567V232.657C431.674 232.336 427.19 232.029 422.603 231.787V317.399Z" fill="#F387A3"/>
<path d="M537.402 299.961C542.177 298.58 546.698 297.141 550.933 295.666V234.56H537.402V299.961Z" fill="#F387A3"/>
<path d="M399.643 318.293C404.197 318.191 408.719 318.058 413.161 317.879V231.424C408.694 231.246 404.218 231.072 399.643 230.965V318.293Z" fill="#F387A3"/>
<path d="M560.361 292.088C565.369 290.034 569.903 287.926 573.88 285.766V234.56H560.361V292.088Z" fill="#F387A3"/>
<path d="M491.482 310.129C496.124 309.363 500.624 308.55 505 307.7V234.56H491.482V310.129Z" fill="#F387A3"/>
<path d="M468.522 313.434C473.135 312.866 477.636 312.252 482.045 311.605V234.56H468.522V313.434Z" fill="#F387A3"/>
<path d="M514.442 305.744C519.134 304.724 523.642 303.66 527.977 302.549V234.56H514.442V305.744Z" fill="#F387A3"/>
<path d="M261.885 308.359C266.256 309.178 270.782 309.944 275.403 310.679V234.56H261.885V308.359Z" fill="#F387A3"/>
<path d="M353.724 318.048C358.179 318.207 362.679 318.329 367.246 318.41V230.965C362.679 231.058 358.179 231.184 353.724 231.343V318.048Z" fill="#F387A3"/>
<path d="M376.683 230.824V318.502C378.379 318.507 380.041 318.533 381.745 318.533C384.595 318.533 387.396 318.502 390.21 318.476V230.864C387.388 230.838 384.616 230.76 381.745 230.76C380.029 230.76 378.387 230.812 376.683 230.824Z" fill="#F387A3"/>
<path d="M168.61 264.555H168.764C169.537 270.42 174.64 276.41 183.446 282.154V234.56H168.61V264.555Z" fill="#F387A3"/>
<path d="M583.321 279.792C590.049 274.779 593.955 269.625 594.612 264.555H594.778V234.56H583.321V279.792Z" fill="#F387A3"/>
<path d="M215.965 296.822C220.216 298.24 224.717 299.616 229.483 300.934V234.56H215.965V296.822Z" fill="#F387A3"/>
<path d="M330.764 316.847C335.21 317.142 339.707 317.404 344.282 317.63V231.684C339.694 231.903 335.219 232.195 330.764 232.495V316.847Z" fill="#F387A3"/>
<path d="M238.925 303.406C243.263 304.474 247.764 305.502 252.443 306.487V234.56H238.925V303.406Z" fill="#F387A3"/>
<path d="M284.844 312.092C289.25 312.718 293.762 313.299 298.371 313.843V234.56H284.844V312.092Z" fill="#F387A3"/>
<path d="M307.804 314.885C312.226 315.332 316.76 315.734 321.339 316.105V233.122C316.751 233.491 312.238 233.907 307.804 234.354V314.885Z" fill="#F387A3"/>
<path d="M381.669 176.125C254.418 176.125 165.741 205.737 165.741 232.321C165.741 258.897 254.418 288.507 381.669 288.507C508.924 288.507 597.619 258.897 597.619 232.321C597.619 205.737 508.924 176.125 381.669 176.125Z" fill="#FFD792"/>
<path d="M381.595 177.272C255.57 177.272 167.744 206.261 167.744 232.278C167.744 258.29 255.57 287.277 381.595 287.277C507.632 287.277 595.462 258.29 595.462 232.278C595.462 206.261 507.632 177.272 381.595 177.272ZM381.595 289.656C253.122 289.656 163.588 259.418 163.588 232.278C163.588 205.135 253.122 174.893 381.595 174.893C510.08 174.893 599.618 205.135 599.618 232.278C599.618 259.418 510.08 289.656 381.595 289.656Z" fill="white"/>
<path d="M326.224 260.045L287.714 247.314L409.193 177.768C428.296 178.434 446.349 179.776 463.125 181.661L326.224 260.045Z" fill="#FFDFAA"/>
<path d="M463.62 181.628C446.844 179.743 428.791 178.402 409.688 177.735L411.608 176.638C430.628 177.35 448.577 178.749 465.295 180.669L463.62 181.628Z" fill="white"/>
<path d="M397.306 287.176C394.501 284.002 390.258 281.163 385.537 279.602L381.706 278.335L529.918 193.481C538.208 195.622 545.813 197.918 552.674 200.331L401.133 287.093C399.861 287.123 398.586 287.152 397.306 287.176Z" fill="#FFDFAA"/>
<path d="M398.43 288.315C398.139 287.932 397.823 287.549 397.491 287.166C398.771 287.142 400.046 287.113 401.318 287.082L399.19 288.3C398.937 288.305 398.683 288.31 398.43 288.315ZM552.859 200.32C545.998 197.908 538.393 195.612 530.103 193.47L531.519 192.659C539.781 194.812 547.344 197.128 554.193 199.557L552.859 200.32Z" fill="white"/>
<path d="M408.563 25.3591L699.422 122.147L523.579 111.688L233.185 14.6858L408.563 25.3591Z" fill="#466AB2"/>
<path d="M475.072 390.637C475.072 392.167 473.335 393.673 469.811 394.834C462.788 397.175 451.402 397.175 444.382 394.834C440.879 393.673 439.105 392.167 439.105 390.637V387.475H475.072V390.637Z" fill="#6480C0"/>
<path d="M444.388 383.374C451.407 381.037 462.794 381.037 469.817 383.374C476.844 385.677 476.844 389.426 469.817 391.784C462.794 394.099 451.407 394.099 444.388 391.784C437.344 389.426 437.344 385.677 444.388 383.374Z" fill="white"/>
<path d="M472.449 386.926C472.449 388.216 470.981 389.484 467.973 390.485C462.03 392.451 452.364 392.451 446.409 390.485C443.425 389.484 441.975 388.216 441.975 386.926V235.586H472.449V386.926Z" fill="#B4C6D3"/>
<path d="M446.432 232.032C452.387 230.062 462.054 230.062 467.996 232.032C473.943 233.983 473.943 237.178 467.996 239.169C462.054 241.13 452.387 241.13 446.432 239.169C440.489 237.178 440.489 233.983 446.432 232.032Z" fill="#CCCECD"/>
<path d="M573.386 358.184C573.386 359.7 571.62 361.232 568.108 362.386C561.081 364.73 549.707 364.73 542.688 362.386C539.172 361.232 537.402 359.7 537.402 358.184V355.022H573.386V358.184Z" fill="#6480C0"/>
<path d="M542.7 350.916C549.719 348.587 561.093 348.587 568.12 350.916C575.152 353.238 575.152 356.997 568.12 359.334C561.093 361.666 549.719 361.666 542.7 359.334C535.636 356.997 535.636 353.238 542.7 350.916Z" fill="white"/>
<path d="M570.04 354.479C570.04 355.773 568.556 357.058 565.581 358.017C559.621 360.003 549.959 360.003 543.996 358.017C541.029 357.058 539.554 355.773 539.554 354.479V203.134H570.04V354.479Z" fill="#B4C6D3"/>
<path d="M544.008 199.587C549.971 197.607 559.633 197.607 565.592 199.587C571.535 201.54 571.535 204.728 565.592 206.703C559.633 208.683 549.971 208.683 544.008 206.713C538.069 204.728 538.069 201.54 544.008 199.587Z" fill="#CCCECD"/>
<path d="M673.109 325.028C673.109 326.529 671.363 328.071 667.847 329.22C660.803 331.552 649.429 331.552 642.402 329.22C638.887 328.071 637.133 326.529 637.133 325.028V321.852H673.109V325.028Z" fill="#6480C0"/>
<path d="M642.397 317.86C649.424 315.514 660.798 315.514 667.842 317.86C674.869 320.187 674.869 323.941 667.842 326.278C660.798 328.602 649.424 328.602 642.397 326.278C635.378 323.941 635.378 320.187 642.397 317.86Z" fill="white"/>
<path d="M670.502 321.425C670.502 322.7 669.01 323.994 666.034 324.975C660.071 326.959 650.409 326.959 644.454 324.975C641.47 323.994 640.003 322.7 640.003 321.425V170.066H670.502V321.425Z" fill="#B4C6D3"/>
<path d="M644.469 166.515C650.424 164.54 660.086 164.54 666.05 166.515C671.996 168.461 671.996 171.663 666.05 173.643C660.086 175.609 650.424 175.609 644.469 173.643C638.514 171.663 638.514 168.461 644.469 166.515Z" fill="#CCCECD"/>
<path d="M424.231 254.532L375.249 238.344V224.187L424.231 240.383V254.532Z" fill="#6480C0"/>
<path d="M424.038 254.583L717.212 157.681V145.316L424.038 242.225V254.583Z" fill="white"/>
<path d="M744.714 136.997L699.612 122.091L523.77 111.631L583.832 135.512L744.714 136.997Z" fill="#325DAB"/>
<path d="M347.983 238.315L393.085 253.23L577.331 132.421L568.92 126.521L523.798 111.631L347.983 238.315Z" fill="#466AB2"/>
<path d="M393.186 253.232L744.843 136.999L569.02 126.522L393.186 253.232Z" fill="white"/>
<path d="M468.522 213.19L678.721 143.716L669.246 143.159L477.956 206.386L468.522 213.19Z" fill="#6480C0"/>
<path d="M477.85 206.34L669.14 143.114L573.505 137.408L477.85 206.34Z" fill="#B4C6D3"/>
<path d="M400.581 395.981C400.581 401.531 390.732 405.545 382.342 402.771L109.659 309.906C101.26 307.128 94.3993 300.32 94.3993 294.77L89.6865 194.498C89.6865 187.798 101.264 185.616 109.659 188.391L385.325 279.516C393.716 282.286 400.581 289.095 400.581 294.641V395.981Z" fill="#B4C6D3"/>
<path d="M395.868 397.739C395.868 403.285 389.007 405.555 380.609 402.781L104.946 311.66C96.5514 308.886 89.6865 302.074 89.6865 296.528V195.191C89.6865 189.642 96.5514 187.373 104.946 190.145L380.609 281.27C389.007 284.039 395.868 290.849 395.868 296.4V397.739Z" fill="#466AB2"/>
<path d="M380.673 402.864L276.956 368.581L276.952 368.579L290.159 372.945V372.943L380.673 402.864Z" fill="#005EAC"/>
<path d="M380.769 281.295L253.992 239.386H253.996L380.769 281.295Z" fill="#6F89C5"/>
<path d="M396.094 368.263C374.73 342.358 340.674 318.908 302.305 306.224C294.642 303.691 287.153 301.701 279.902 300.234C267.048 284.224 248.747 269.175 227.445 257.526C233.412 249.298 242.551 243.165 254.062 239.386L380.835 281.295C389.233 284.064 396.094 290.873 396.094 296.424V368.263Z" fill="#3C64AF"/>
<path d="M178.244 214.389L104.905 190.145L178.24 214.382C178.24 214.385 178.244 214.387 178.244 214.389ZM89.6865 194.453C90.0938 190.98 93.4059 188.979 98.0685 188.962C93.4059 188.979 90.0938 190.98 89.6865 194.453ZM98.1765 188.962H98.1267H98.1765Z" fill="#4C7B8B"/>
<path d="M93.7924 260.042C92.4001 259.176 91.033 258.289 89.6865 257.382V195.191C89.6865 194.939 89.7033 194.694 89.728 194.453C90.1352 190.98 93.4473 188.979 98.1099 188.962H98.2179C100.25 188.967 102.536 189.348 104.946 190.145L178.286 214.389C186.468 223.687 192.024 233.597 193.89 243.066C177.309 237.656 161.638 235.089 147.733 235.089C121.789 235.089 101.979 244.013 93.7924 260.042Z" fill="#0759A9"/>
<path d="M276.915 368.492L209.701 346.274L276.915 368.492ZM185.436 338.254L104.974 311.656L185.436 338.254ZM104.87 311.62C104.862 311.618 104.858 311.618 104.853 311.615C104.858 311.618 104.862 311.618 104.87 311.62ZM104.758 311.582H104.754H104.758Z" fill="#0D68B3"/>
<path d="M185.408 338.275L104.946 311.677C104.913 311.665 104.875 311.653 104.842 311.642C104.834 311.639 104.83 311.639 104.825 311.637C104.792 311.625 104.759 311.616 104.73 311.603H104.726C102.457 310.83 100.317 309.76 98.3841 308.51C92.799 298.192 89.6865 287.813 89.6865 277.98C89.6865 271.292 91.1203 265.296 93.7925 260.059C102.648 265.572 112.439 270.252 122.745 273.654C134.277 277.466 145.173 279.272 154.831 279.274C178.398 279.274 194.576 268.515 194.576 249.912C194.576 247.67 194.343 245.389 193.89 243.083C194.119 243.157 194.347 243.233 194.576 243.309C205.975 247.076 216.945 251.903 227.219 257.518C222.153 264.504 219.377 273.002 219.377 282.841C219.377 288.637 220.337 294.599 222.165 300.633C201.628 306.526 188.001 319.531 185.408 338.275Z" fill="#466AB2"/>
<path d="M290.159 372.945L276.952 368.579L290.159 372.942V372.945Z" fill="#2C66B1"/>
<path d="M222.341 300.678C220.512 294.644 219.552 288.682 219.552 282.886C219.552 273.048 222.329 264.549 227.395 257.564C248.696 269.212 266.998 284.261 279.851 300.271C269.317 298.139 259.285 297.107 249.964 297.107C239.828 297.107 230.536 298.325 222.341 300.678Z" fill="#4167B0"/>
<path d="M155.03 279.344C145.372 279.341 134.476 277.536 122.944 273.724C112.638 270.322 102.847 265.642 93.9912 260.129C102.178 244.1 121.988 235.175 147.931 235.175C161.837 235.175 177.508 237.743 194.089 243.153C194.542 245.459 194.775 247.74 194.775 249.982C194.775 268.585 178.596 279.344 155.03 279.344Z" fill="#3564AF"/>
<path d="M387.163 403.996H387.134H387.163ZM387.205 403.996C388.663 403.994 389.993 403.796 391.14 403.418H391.144C389.993 403.796 388.667 403.994 387.205 403.996ZM380.73 402.925C380.709 402.918 380.689 402.911 380.664 402.904C380.689 402.911 380.709 402.918 380.73 402.925ZM380.593 402.88C380.522 402.859 380.452 402.835 380.381 402.814L289.866 372.892L380.381 402.814C380.452 402.835 380.522 402.859 380.593 402.88Z" fill="#3870B8"/>
<path d="M391.751 403.417C394.531 402.506 396.252 400.55 396.252 397.771V368.271V397.771C396.252 400.55 394.531 402.506 391.755 403.417H391.751Z" fill="#6A84C2"/>
<path d="M387.578 404.04H387.508C385.567 404.038 383.398 403.692 381.104 402.969C381.083 402.962 381.063 402.955 381.037 402.948C381.017 402.941 380.992 402.931 380.967 402.924C380.896 402.903 380.825 402.879 380.755 402.857L290.24 372.936C296.245 366.186 299.62 357.604 299.624 347.38C299.62 332.241 292.281 315.808 279.822 300.285C287.074 301.753 294.562 303.742 302.225 306.276C340.594 318.96 374.65 342.41 396.015 368.315V397.816C396.015 400.595 394.294 402.551 391.514 403.462C390.367 403.84 389.037 404.038 387.578 404.04Z" fill="#4F70B6"/>
<path d="M277.309 368.521L210.095 346.304L185.83 338.283L277.309 368.519V368.521Z" fill="#4073B9"/>
<path d="M277.309 368.574L185.83 338.338C188.423 319.594 202.05 306.589 222.587 300.696C229.701 324.206 249.915 348.783 277.309 368.574Z" fill="#5675B9"/>
<path d="M290.159 372.945L276.952 368.581V368.579L290.159 372.945Z" fill="#4872B8"/>
<path d="M290.351 372.917L277.145 368.551C249.75 348.76 229.537 324.183 222.422 300.673C230.617 298.32 239.91 297.102 250.045 297.102C259.366 297.102 269.398 298.134 279.933 300.266C292.391 315.789 299.731 332.222 299.735 347.361C299.731 357.585 296.356 366.167 290.351 372.917Z" fill="#5373B8"/>
<path d="M169.754 308.201L155.696 303.469V306.833L169.754 311.556V308.201Z" fill="white"/>
<path d="M146.02 300.095L135.606 296.588V299.95L146.02 303.45V300.095Z" fill="white"/>
<path d="M135.606 271.633V279.803L168.868 290.986V282.827L135.606 271.633Z" fill="#002E44"/>
<path d="M200.131 325.378L135.606 303.674V307.943L200.131 329.641V325.378Z" fill="white"/>
<path d="M199.463 292.789V300.954L232.729 312.142V303.981L199.463 292.789Z" fill="#002E44"/>
<path d="M262.602 313.739V321.909L296.512 333.31V325.152L262.602 313.739Z" fill="#002E44"/>
<path d="M326.458 334.792V342.962L360.693 354.47V346.309L326.458 334.792Z" fill="#002E44"/>
<path d="M165.093 270.218C165.093 271.222 163.838 271.632 162.313 271.13L120.441 257.287C118.92 256.78 117.669 255.546 117.669 254.537V236.102C117.669 235.096 118.92 234.682 120.441 235.184L162.313 249.024C163.838 249.526 165.093 250.768 165.093 251.782V270.218Z" fill="#FFD792"/>
<path d="M356.784 292.575C356.784 298.637 349.354 301.088 340.187 298.064C331.024 295.028 323.589 287.664 323.589 281.604C323.589 275.544 331.024 273.086 340.187 276.11C349.35 279.146 356.784 286.512 356.784 292.575Z" fill="#F1617E"/>
<path d="M383.323 301.302C383.323 307.36 375.897 309.82 366.725 306.793C357.562 303.757 350.136 296.393 350.136 290.336C350.136 284.269 357.562 281.811 366.725 284.847C375.897 287.876 383.323 295.247 383.323 301.302Z" fill="#002E44"/>
<path d="M57.3994 141.348L233.172 14.6858L523.566 111.688L347.786 238.379L57.3994 141.348Z" fill="#6480C0"/>
<path d="M779.373 199.629L760.136 201.471C765.767 192.549 757.671 191.047 757.671 191.047L765.754 183.622L779.373 199.629Z" fill="#F6A0A6"/>
<path d="M699.691 183.15C706.739 188.392 727.277 196.298 750.565 204.087C761.15 207.633 755.369 218.551 741.381 217.254C727.389 215.967 687.357 188.644 687.357 188.644C689.56 182.267 699.691 183.15 699.691 183.15Z" fill="#F6A0A6"/>
<path d="M673.524 167.593C680.256 169.777 679.67 166.769 682.171 166.598C684.673 166.422 694.709 169.399 696.114 170.457C697.797 171.714 694.817 178.321 701.363 184.136C702.538 185.183 689.058 189.382 689.058 189.382C689.058 189.382 674.55 182.775 671.874 180.512C669.193 178.254 661.688 177.214 664.074 176.515C666.459 175.815 672.501 177.057 675.809 177.823C679.113 178.582 678.328 175.292 674.417 172.035C670.494 168.782 656.967 165.218 658.833 163.774C660.038 162.832 668.155 165.853 673.524 167.593Z" fill="#F6A0A6"/>
<path d="M808.57 311.068C808.57 311.068 795.899 329.336 806.027 342.318C822.492 363.4 816.852 408.782 818.215 414.107C819.587 419.434 802.864 425.156 798.767 414.504C794.665 403.852 775.125 356.998 766.477 345.765C757.825 334.542 761.183 313.529 761.183 313.529L808.57 311.068Z" fill="#F6A0A6"/>
<path d="M772.442 325.363C764.551 334.675 756.269 362.217 760.378 379.417C764.484 396.612 755.733 431.073 755.508 436.472C755.275 441.865 738.021 445.813 737.136 434.868C736.247 423.919 727.174 380.414 721.988 368.363C716.798 356.307 725.691 319.667 725.691 319.667C725.691 319.667 780.334 316.052 772.442 325.363Z" fill="#F6A0A6"/>
<path d="M726.502 449.268C737.797 445.361 736.467 433.838 736.467 433.838C751.046 434.162 757.765 432.559 757.765 432.559C757.765 436.07 764.768 442.078 765.607 447.355C766.359 452.066 759.536 454.857 759.536 458.971H753.543L756.556 449.347C746.753 449.347 734.261 459.085 722.051 458.999C709.235 458.913 705.612 456.691 704.635 454.374C703.658 452.059 715.219 453.18 726.502 449.268Z" fill="#002E44"/>
<path d="M787.497 430.379C798.78 426.465 797.455 414.942 797.455 414.942C812.029 415.266 818.752 413.663 818.752 413.663C818.752 420.883 823.801 423.182 824.641 428.459C825.393 433.17 819.637 435.961 819.637 440.072H814.53L816.471 430.458C806.672 430.458 798.352 440.189 786.139 440.103C773.322 440.017 766.598 437.795 765.622 435.478C764.646 433.17 776.211 434.284 787.497 430.379Z" fill="#002E44"/>
<path d="M799.255 249.04C799.255 249.04 802.929 256.718 812.64 266.101C822.352 275.487 831.428 289.38 828.12 300.075C824.846 310.641 831.885 352.518 838.638 373.932C838.638 373.932 805.351 377.624 792.752 382.702C748.689 400.47 700.99 383.858 700.99 383.858C700.99 338.26 734.235 279.168 741.009 253.025L799.255 249.04Z" fill="#F1617E"/>
<path d="M740.534 237.604C739.865 236.288 725.39 232.186 730.964 224.002C733.827 219.797 736.333 217.111 739.458 210.39C741.494 206.003 750.08 202.031 760.855 200.283C768.385 200.68 775.35 199.745 781.767 198.41C800.288 201.046 802.541 218.206 802.595 228.236C802.64 237.811 800.883 248.639 810.511 264.08C789.363 274.911 754.68 280.109 732.887 273.423C735.526 263.021 744.532 245.477 740.534 237.604Z" fill="#002E44"/>
<path d="M744.41 170.112C743.072 167.452 743.865 163.905 744.115 162.71C746.276 152.358 772.643 165.313 781.487 173.729C790.334 182.144 755.481 197.671 748.021 190.31C739.253 181.651 740.994 176.084 742.075 174.516C743.188 172.905 745 171.283 744.41 170.112Z" fill="#F6A0A6"/>
<path d="M779.444 150.998C798.439 154.961 805.558 150.719 813.732 164.364C820.473 175.611 833.447 166.415 840.171 179.385C846.89 192.363 833.343 191.987 848.503 200.593C863.185 208.926 844.435 219.887 838.808 226.123C833.181 232.354 824.429 235.15 832.852 245.078C832.852 245.078 792.193 242.544 797.995 227.265C803.8 211.985 776.834 217.974 780.931 207.179C784.219 198.519 763.993 201.069 765.468 195.566C766.931 190.056 752.12 187.881 762.987 177.336C765.697 174.707 760.469 173.646 758.545 169.899C757.498 167.857 753.625 177.74 756.01 185.537C749.382 178.147 742.699 165.44 743.368 159.568C743.996 154.031 760.452 147.034 779.444 150.998Z" fill="#005A7C"/>
<path d="M767.898 172.905C768.588 175.208 765.214 178.249 762.13 179.812C759.042 181.366 756.308 180.245 757.089 179.327C758.082 178.154 757.725 174.594 760.302 171.551C761.041 170.685 767.208 170.602 767.898 172.905Z" fill="#F6A0A6"/>
<path d="M737.644 222.491C738.62 208.926 746.653 204.589 751.844 203.556C766.966 200.554 773.81 210.925 770.881 222.148C768.088 232.857 762.121 248.237 746.965 259.731C740.989 264.258 729.411 251.741 730.475 248.391C731.543 245.032 736.809 234.051 737.644 222.491Z" fill="#F6A0A6"/>
<path d="M639.234 253.789C645.6 253.278 651.834 254.065 649.128 252.961C646.078 251.714 642.916 249.897 643.797 248.069C644.457 246.689 650.321 251.2 654.747 251.412C660.859 251.7 662.331 254.322 667.297 254.427C667.297 254.427 667.916 263.715 665.896 263.708C663.868 263.703 657.199 264.037 652.727 264.455C648.251 264.879 643.867 268.312 640.418 267.784C638.328 267.46 632.821 262.661 632.215 261.365C631.608 260.066 636.478 257.008 633.171 257.993C632.58 258.169 627.365 260.089 626.775 260.299C620.853 262.4 617.109 261.569 618.95 260.756C622.071 259.364 632.88 254.305 639.234 253.789Z" fill="#F6A0A6"/>
<path d="M663.431 254.451C674.144 255.036 719.208 248.215 730.948 247.208C736.288 246.744 755.741 255.886 745.31 260.515C734.875 265.153 661.744 263.659 661.744 263.659C655.564 258.748 663.431 254.451 663.431 254.451Z" fill="#F6A0A6"/>
</svg>
