<svg width="945" height="470" viewBox="0 0 945 470" fill="none" xmlns="http://www.w3.org/2000/svg">
<path d="M933.847 467.395L656.347 468.21C650.163 468.228 645.134 464.465 645.11 459.816L644.515 344.832C644.492 340.177 649.485 336.391 655.662 336.374L933.162 335.558C939.346 335.541 944.381 339.294 944.405 343.953L945 458.933C945.023 463.587 940.03 467.377 933.847 467.395V467.395Z" fill="#DBD0BA"/>
<path d="M944.589 389.966L644.7 390.844L644.515 355.889L944.41 355.006L944.589 389.966H944.589Z" fill="#787266"/>
<path d="M680.754 184.85C697.615 185.989 712.536 182.478 725.528 174.314C738.514 166.15 745.763 155.72 747.281 143.028C748.793 130.335 744.127 119.099 733.283 109.326C722.433 99.5493 708.578 94.0941 691.711 92.9549C674.844 91.8157 659.924 95.329 646.937 103.491C633.951 111.657 626.702 122.085 625.19 134.776C623.678 147.47 628.338 158.701 639.188 168.478C650.038 178.253 663.893 183.711 680.754 184.85ZM824.147 232.542L783.354 258.191C781.884 259.114 780.063 259.631 777.903 259.742C775.731 259.85 773.909 259.43 772.439 258.475L738.896 236.12C730.338 238.526 722.761 240.235 716.185 241.24C713.637 248.319 710.662 258.567 707.251 271.983C706.799 273.827 705.781 275.256 704.192 276.254C702.597 277.257 700.722 277.728 698.58 277.667C691.283 278.029 679.606 277.625 663.537 276.449C647.467 275.281 638.314 273.68 636.058 271.653C634.832 270.546 634.053 269 633.725 267.017L632.392 235.448C625.066 233.164 618.084 230.43 611.436 227.252C593.141 236.249 580.262 242.076 572.805 244.729C568.656 246.24 565.097 245.658 562.133 242.984L528.06 212.278C526.626 210.987 525.894 209.527 525.858 207.905C525.829 206.282 526.555 204.923 528.049 203.832L557.562 178.702C554.503 172.951 552.17 167.375 550.546 161.975L509.235 154.836C507.111 154.605 505.284 153.801 503.748 152.419C502.314 151.125 501.707 149.55 501.933 147.688C503.01 127.287 504.849 113.21 507.48 105.456C507.986 104.04 509.039 102.832 510.634 101.828C512.104 100.905 513.913 100.389 516.086 100.279C520.192 100.045 526.876 99.8374 536.137 99.6502C545.397 99.4656 552.474 99.2416 557.378 98.9741C560.741 92.635 564.71 86.9311 569.281 81.8667L546.153 53.4343C545.07 52.0815 544.761 50.6301 545.225 49.0837C545.695 47.5369 546.725 46.2656 548.32 45.2626L589.118 19.6156C590.588 18.6906 592.397 18.1727 594.57 18.0625C596.736 17.9546 598.504 18.3304 599.872 19.1901L633.576 41.6851C640.635 39.4328 648.271 37.6879 656.466 36.4489C659.359 28.3689 662.329 18.1207 665.4 5.70402C665.852 3.85707 666.81 2.47458 668.28 1.54686C669.5 0.779974 671.375 0.307785 673.887 0.136196C680.957 -0.239558 692.581 0.162212 708.763 1.3413C724.94 2.5221 734.153 4.12499 736.402 6.15148C737.736 7.35067 738.456 8.93744 738.563 10.9035L740.08 42.3526C747.395 44.639 754.382 47.3707 761.03 50.5503C779.325 41.553 792.205 35.7254 799.662 33.0734C803.81 31.5642 807.369 32.1439 810.339 34.8201L844.406 65.5272C845.846 66.8182 846.573 68.2751 846.608 69.898C846.644 71.5232 845.912 72.8797 844.424 73.9728L814.91 99.1018C817.957 104.854 820.296 110.43 821.921 115.825L863.38 123.106C865.403 123.244 867.183 124.004 868.718 125.389C870.052 126.586 870.712 128.125 870.718 129.999C869.337 151.063 867.367 165.217 864.802 172.465C864.534 173.726 863.552 174.898 861.838 175.977C860.362 176.9 858.541 177.416 856.381 177.524C852.274 177.759 845.585 177.971 836.33 178.153C827.075 178.339 819.993 178.565 815.088 178.829C811.619 185.078 807.714 190.741 803.37 195.822L826.313 224.371C827.396 225.724 827.706 227.173 827.236 228.721C826.772 230.266 825.742 231.543 824.147 232.542Z" fill="#B7B7A8"/>
<path d="M384.938 320.453C396.324 321.221 406.4 318.851 415.166 313.339C423.933 307.827 428.831 300.785 429.855 292.215C430.879 283.646 427.724 276.06 420.404 269.461C413.077 262.861 403.721 259.177 392.336 258.408C380.95 257.639 370.874 260.011 362.108 265.522C353.341 271.035 348.443 278.076 347.425 286.644C346.401 295.215 349.55 302.798 356.876 309.399C364.197 315.998 373.553 319.683 384.938 320.453ZM481.753 352.652L454.209 369.971C453.215 370.594 451.989 370.943 450.525 371.015C449.061 371.091 447.829 370.804 446.841 370.163L424.195 355.067C418.416 356.693 413.303 357.844 408.863 358.525C407.143 363.305 405.132 370.222 402.829 379.28C402.525 380.529 401.835 381.493 400.763 382.165C399.686 382.841 398.418 383.159 396.972 383.119C392.044 383.365 384.164 383.092 373.315 382.299C362.465 381.506 356.281 380.426 354.763 379.06C353.936 378.312 353.406 377.268 353.186 375.929L352.288 354.615C347.342 353.074 342.628 351.228 338.135 349.082C325.785 355.157 317.09 359.09 312.055 360.882C309.251 361.903 306.853 361.509 304.853 359.703L281.843 338.972C280.875 338.098 280.38 337.113 280.358 336.019C280.337 334.922 280.828 334.004 281.835 333.269L301.764 316.302C299.699 312.418 298.122 308.654 297.026 305.008L269.136 300.188C267.699 300.032 266.465 299.489 265.429 298.556C264.461 297.683 264.053 296.619 264.203 295.362C264.93 281.588 266.175 272.084 267.95 266.848C268.29 265.893 269.004 265.076 270.079 264.399C271.073 263.776 272.295 263.427 273.762 263.353C276.533 263.195 281.043 263.055 287.296 262.928C293.551 262.804 298.33 262.652 301.639 262.472C303.913 258.192 306.591 254.341 309.673 250.922L294.063 231.725C293.325 230.812 293.117 229.832 293.432 228.788C293.747 227.744 294.444 226.886 295.521 226.208L323.065 208.892C324.059 208.267 325.285 207.918 326.749 207.843C328.213 207.771 329.404 208.024 330.332 208.604L353.085 223.792C357.852 222.272 363.006 221.094 368.541 220.257C370.493 214.802 372.499 207.883 374.57 199.5C374.874 198.252 375.523 197.319 376.517 196.693C377.338 196.175 378.606 195.856 380.302 195.74C385.075 195.487 392.919 195.758 403.852 196.554C414.767 197.351 420.993 198.433 422.511 199.801C423.409 200.611 423.897 201.682 423.969 203.01L424.992 224.243C429.932 225.787 434.646 227.632 439.139 229.778C451.489 223.703 460.184 219.769 465.219 217.979C468.023 216.959 470.421 217.351 472.427 219.158L495.43 239.89C496.4 240.762 496.894 241.745 496.917 242.841C496.941 243.938 496.447 244.854 495.442 245.592L475.516 262.558C477.575 266.442 479.152 270.206 480.253 273.849L508.243 278.765C509.606 278.858 510.809 279.371 511.844 280.306C512.743 281.115 513.195 282.153 513.195 283.419C512.267 297.641 510.934 307.197 509.202 312.091C509.017 312.942 508.357 313.733 507.196 314.462C506.202 315.085 504.976 315.433 503.518 315.506C500.738 315.665 496.227 315.808 489.978 315.931C483.729 316.056 478.944 316.209 475.635 316.387C473.296 320.606 470.653 324.431 467.725 327.862L483.217 347.133C483.949 348.047 484.157 349.028 483.842 350.072C483.526 351.116 482.83 351.976 481.753 352.652Z" fill="#B7B7A8"/>
<path d="M638.531 51.8876H390.259C377.933 51.8876 367.94 59.4077 367.94 68.6828V448.179C367.94 457.457 377.933 464.974 390.259 464.974H638.531C650.851 464.974 660.843 457.457 660.843 448.179V68.6828C660.843 59.4077 650.851 51.8876 638.531 51.8876Z" fill="white"/>
<path d="M641.118 70.7523H387.371V446.092H641.118V70.7523Z" fill="#FFCE48"/>
<path d="M641.118 397.053H387.371V446.106H641.118V397.053Z" fill="#E6BC20"/>
<path d="M549.388 64.034H479.1C477.535 64.034 476.255 63.0691 476.255 61.8891C476.255 60.7096 477.535 59.7447 479.1 59.7447H549.388C550.954 59.7447 552.233 60.7096 552.233 61.8891C552.233 63.0691 550.954 64.034 549.388 64.034Z" fill="#D9D9D9"/>
<path d="M466.982 61.8943C466.982 64.2631 464.434 66.184 461.286 66.184C458.138 66.184 455.584 64.2631 455.584 61.8943C455.584 59.5253 458.138 57.6054 461.286 57.6054C464.434 57.6054 466.982 59.5253 466.982 61.8943Z" fill="#D9D9D9"/>
<path d="M451.636 61.9137C451.636 63.1115 450.344 64.0832 448.755 64.0832C447.16 64.0832 445.869 63.1115 445.869 61.9137C445.869 60.7158 447.16 59.7447 448.755 59.7447C450.344 59.7447 451.636 60.7158 451.636 61.9137Z" fill="#D9D9D9"/>
<path d="M429.997 421.907L439.674 426.109V417.701L429.997 421.907ZM441.043 427.892L427.265 421.907L441.043 415.918V427.892Z" fill="white"/>
<path d="M508.63 426.469H522.896V422.124L515.766 417.474L508.63 422.124V426.469ZM524.265 427.5H507.261V421.654L515.766 416.112L524.265 421.654V427.5Z" fill="white"/>
<path d="M593.055 417.337C589.698 417.337 586.966 419.393 586.966 421.92C586.966 424.442 589.698 426.498 593.055 426.498C596.412 426.498 599.137 424.442 599.137 421.92C599.137 419.393 596.412 417.337 593.055 417.337ZM593.055 427.529C588.942 427.529 585.604 425.011 585.604 421.92C585.604 418.825 588.942 416.307 593.055 416.307C597.161 416.307 600.506 418.825 600.506 421.92C600.506 425.011 597.161 427.529 593.055 427.529Z" fill="white"/>
<path d="M666.666 111.516H660.845V150.011H666.666V111.516Z" fill="#D9D9D9"/>
<path d="M367.766 111.516H361.946V150.011H367.766V111.516Z" fill="#D9D9D9"/>
<path d="M666.666 157.452H660.845V195.947H666.666V157.452Z" fill="#D9D9D9"/>
<path d="M908.761 190.5L860.666 163.32C859.595 162.715 859.381 161.57 860.184 160.763L880.063 140.834C880.866 140.028 882.39 139.865 883.461 140.47L931.556 167.65C932.627 168.256 932.842 169.4 932.038 170.207L912.16 190.136C911.356 190.942 909.833 191.106 908.761 190.5Z" fill="#BCDDA1"/>
<path d="M924.081 178.181L872.101 148.808L878.147 142.749L930.123 172.122L924.081 178.181Z" fill="#6E688A"/>
<path d="M881.269 194.234L833.174 167.055C832.103 166.449 831.889 165.304 832.692 164.497L852.571 144.568C853.374 143.762 854.898 143.599 855.969 144.205L904.064 171.384C905.135 171.989 905.355 173.134 904.546 173.941L884.668 193.87C883.864 194.676 882.341 194.84 881.269 194.234Z" fill="#BCDDA1"/>
<path d="M887.155 171.839C885.483 173.511 882.328 173.85 880.108 172.594C877.882 171.338 877.436 168.963 879.102 167.29C880.769 165.617 883.929 165.279 886.149 166.535C888.375 167.791 888.821 170.166 887.155 171.839Z" fill="#14B0BF"/>
<path d="M892.733 174.951C891.067 176.624 887.906 176.962 885.686 175.705C883.466 174.449 883.014 172.075 884.686 170.402C886.353 168.729 889.507 168.39 891.733 169.647C893.953 170.903 894.399 173.278 892.733 174.951Z" fill="#FFCE48"/>
<path d="M863.675 163.275L849.57 155.304L855.616 149.245L869.722 157.216L863.675 163.275Z" fill="white"/>
<path d="M851.777 167.278L842.748 162.175L844.313 160.603L853.348 165.706L851.777 167.278Z" fill="white"/>
<path d="M862.732 173.463L853.704 168.36L855.275 166.787L864.304 171.891L862.732 173.463Z" fill="white"/>
<path d="M848.263 170.778L839.234 165.675L840.799 164.103L849.828 169.207L848.263 170.778Z" fill="white"/>
<path d="M859.218 177.002L850.19 171.899L851.755 170.327L860.79 175.431L859.218 177.002Z" fill="white"/>
<path d="M873.694 179.686L864.659 174.583L866.23 173.011L875.259 178.114L873.694 179.686Z" fill="white"/>
<path d="M884.643 185.91L875.615 180.806L877.18 179.234L886.215 184.337L884.643 185.91Z" fill="white"/>
<path d="M500.138 467.05H162.061C154.524 467.05 148.416 462.449 148.416 456.782V316.691C148.416 311.021 154.524 306.425 162.061 306.425H500.138C507.672 306.425 513.784 311.021 513.784 316.691V456.782C513.784 462.449 507.672 467.05 500.138 467.05Z" fill="#E4DED6"/>
<path d="M425.556 351.448C425.556 363.207 412.891 372.74 397.268 372.74C381.639 372.74 368.974 363.207 368.974 351.448C368.974 339.689 381.639 330.152 397.268 330.152C412.891 330.152 425.556 339.689 425.556 351.448Z" fill="#14B0BF"/>
<path d="M464.417 351.448C464.417 363.207 451.746 372.74 436.123 372.74C420.5 372.74 407.835 363.207 407.835 351.448C407.835 339.689 420.5 330.152 436.123 330.152C451.746 330.152 464.417 339.689 464.417 351.448Z" fill="#8CC63F"/>
<path d="M281.47 330.152H182.316V372.74H281.47V330.152Z" fill="#BBB19E"/>
<path d="M245.794 410.006H182.316V421.057H245.794V410.006Z" fill="#BBB19E"/>
<path d="M323.107 410.006H259.625V421.057H323.107V410.006Z" fill="#BBB19E"/>
<path d="M245.794 434.822H182.316V445.868H245.794V434.822Z" fill="#BBB19E"/>
<path d="M323.107 434.822H259.625V445.868H323.107V434.822Z" fill="#BBB19E"/>
<path d="M400.213 410.006H336.727V421.057H400.213V410.006Z" fill="#BBB19E"/>
<path d="M477.516 410.006H414.036V421.057H477.516V410.006Z" fill="#BBB19E"/>
<path d="M285.578 167.676L252.475 173.817L251.884 172.013L284.982 165.872L285.578 167.676ZM287.786 174.417L254.683 180.558L254.092 178.755L287.191 172.613L287.786 174.417ZM289.988 181.158L256.891 187.299L256.3 185.495L289.399 179.354L289.988 181.158ZM292.196 187.899L259.098 194.04L258.508 192.237L291.607 186.096L292.196 187.899ZM294.404 194.639L261.306 200.78L260.715 198.976L293.815 192.835L294.404 194.639ZM285.304 155.392L284.119 151.773L280.31 152.481L281.494 156.099L278.033 156.741L276.848 153.123L273.038 153.83L274.222 157.448L270.76 158.091L269.575 154.472L265.763 155.18L266.949 158.797L263.486 159.44L262.301 155.822L258.491 156.529L259.676 160.147L256.212 160.79L255.027 157.171L251.217 157.879L252.402 161.496L248.939 162.139L247.755 158.521L243.943 159.228L245.127 162.846L241.642 163.493L256.417 208.608L303.569 199.86L288.791 154.745L285.304 155.392Z" fill="white"/>
<path d="M84.4406 411.387L48.5763 404.193L63.247 362.814C63.247 362.814 69.8711 359.127 75.3972 360.413C80.9244 361.703 99.8713 366.116 99.8713 366.116L84.4406 411.387Z" fill="#00B195"/>
<path d="M88.7329 364.057C87.9855 365.876 85.4232 366.888 83.0116 366.328C80.5982 365.764 79.2479 363.838 79.9953 362.023L81.6119 358.09C82.3582 356.276 84.9197 355.259 87.3325 355.824C89.7459 356.384 91.0963 358.31 90.3494 360.129L88.7329 364.057Z" fill="#F0DCC8"/>
<path d="M110.844 354.479C108.13 361.082 98.8203 364.773 90.0523 362.73C81.2839 360.687 76.3755 353.681 79.09 347.083C81.8053 340.48 91.2362 336.511 99.882 338.831C118.075 343.714 100.48 353.56 110.844 354.479Z" fill="#F0DCC8"/>
<path d="M119.415 374.524C119.002 371.832 116.091 371.98 111.409 370.08C107.025 368.302 99.8623 366.111 99.8623 366.111C91.2324 364.646 84.5744 372.741 86.5456 376.746C87.7573 379.21 91.0116 381.942 94.2768 381.656L113.21 379.747C116.477 379.465 119.83 377.221 119.415 374.524Z" fill="#00B195"/>
<path d="M149.172 362.241L112.036 370.56L115.027 378.919L149.17 365.372L149.172 362.241Z" fill="#00B195"/>
<path d="M86.5695 404.21H48.5763V415.866H86.5695V404.21Z" fill="#58595B"/>
<path d="M37.4141 430.613L45.5482 433.686L62.7614 409.325L48.3102 403.86L37.4141 430.613Z" fill="#58595B"/>
<path d="M1.86047 455.073L5.81936 458.496L45.6512 433.674L38.8865 427.237L1.86047 455.073Z" fill="#58595B"/>
<path d="M6.98179 455.034L0.991989 454.425L0 463.743C0 463.743 0.0475524 463.747 0.122543 463.747L22.7927 463.779L22.9303 462.493L22.6707 462.475C21.3662 453.045 11.4354 460.567 6.98179 455.034Z" fill="#A1978E"/>
<path d="M116.118 420.583L118.274 415.302L86.5402 404.21L78.549 415.069L116.118 420.583Z" fill="#58595B"/>
<path d="M95.7057 455.417L101.466 456.756L116.286 420.583L107.588 418.563L95.7057 455.417Z" fill="#58595B"/>
<path d="M118.183 462.48C115.88 453.162 106.768 459.922 101.742 454.672L95.7057 454.425V463.77H118.443V462.48H118.183Z" fill="#A1978E"/>
<path d="M103.934 358.095L93.0113 355.551C91.0176 359.108 96.634 364.694 103.934 358.095Z" fill="white"/>
<path d="M114.881 339.237C111.726 339.627 110.917 340.258 105.639 337.978C98.1944 334.762 86.9464 332.253 86.8226 333.069C80.1402 333.682 74.2272 337.159 72.1066 342.315C69.3261 349.079 74.094 356.242 82.8094 358.674C82.8785 357.729 83.0969 356.779 83.4843 355.839C83.7236 355.256 84.0169 354.701 84.3592 354.172C83.6141 354.28 82.8244 354.253 82.0495 354.074C79.5183 353.482 78.1028 351.462 78.8856 349.558C79.6688 347.654 82.3559 346.588 84.886 347.175C86.841 347.632 88.126 348.944 88.2493 350.396C90.8268 347.583 90.9155 345.078 90.9155 345.078C95.4406 346.566 99.271 348.125 106.387 348.156C112.899 348.035 117.225 345.011 114.881 339.237Z" fill="#FFCE48"/>
<path d="M90.2539 394.697L94.7104 381.626L94.8015 381.617L90.2539 394.697ZM62.6623 364.814L62.6324 364.536L62.7544 364.554L62.6623 364.814Z" fill="#B5B6A8"/>
<path d="M90.224 394.718L63.5602 373.44L62.6324 364.835L62.7246 364.575L72.3032 365.856L81.8424 372.508L86.5478 377.579C86.575 377.584 86.8036 377.597 87.1988 377.62C88.5832 379.694 91.2321 381.692 93.9581 381.692C94.1158 381.692 94.2735 381.683 94.4319 381.669L94.6806 381.647L90.224 394.718Z" fill="#00947D"/>
<path d="M93.99 381.677C91.264 381.677 88.6151 379.679 87.2307 377.605C87.7092 377.627 88.433 377.663 89.3406 377.704L94.8333 381.538L94.8036 381.623L94.7125 381.632L94.4638 381.655C94.3054 381.668 94.1477 381.677 93.99 381.677Z" fill="#00947D"/>
<path d="M145.316 363.676L147.946 365.858C151.653 367.475 151.566 360.603 149.1 357.893C144.465 352.468 146.687 362.453 145.316 363.676Z" fill="#F0DCC8"/>
<path d="M115.403 378.811C115.403 378.811 115.31 378.811 115.136 378.811L115.203 378.811L115.403 378.811Z" fill="#00947D"/>
<path d="M86.2475 375.672L81.7064 372.5L78.7556 369.324L84.3977 368.231L88.2989 370.377C86.8247 372.115 86.0475 374.073 86.2475 375.672Z" fill="#00947D"/>
<path d="M114.801 378.819C111.696 378.685 95.6729 378.004 89.1535 377.704L86.2283 375.665C86.0283 374.066 86.8055 372.109 88.2797 370.37L97.5958 375.504L114.771 378.734L114.801 378.819Z" fill="#00947D"/>
<path d="M115.217 378.733C115.145 378.733 115.058 378.733 114.959 378.733L114.93 378.733L115.284 378.733L115.217 378.733Z" fill="#00947D"/>
<path d="M87.2128 377.621C86.8175 377.599 86.589 377.585 86.5617 377.581L81.8563 372.51L86.3974 375.681C86.4456 376.062 86.5497 376.425 86.7147 376.761C86.8546 377.048 87.0218 377.334 87.2128 377.621Z" fill="#007E6A"/>
<path d="M89.3291 377.699C88.4215 377.658 87.6978 377.622 87.2193 377.6C87.0283 377.313 86.861 377.027 86.7212 376.74C86.5562 376.404 86.4521 376.041 86.4039 375.66L89.3291 377.699Z" fill="#007E6A"/>
<path d="M99.6814 381.973C101.307 379.55 99.9861 377.023 94.0571 374.107C85.6725 369.986 77.5157 361.456 77.5157 361.456C68.8634 355.7 61.5471 362.106 60.6692 366.42C60.1276 369.076 61.6958 373.023 65.6221 374.519L89.6314 383.649C93.5584 385.14 98.0572 384.392 99.6814 381.973Z" fill="#00B195"/>
<path d="M148.431 382.983L97.6896 376.322L92.6051 384.389L147.923 385.8L148.431 382.983Z" fill="#00B195"/>
<path d="M144.282 382.272L145.052 385.17C148.344 391.012 152.714 381.681 152.526 378.361C152.434 371.825 146.572 381.649 144.282 382.272Z" fill="#F0DCC8"/>
<path d="M740.981 24.5851L801.783 4.58975L735.053 21.0265L740.249 22.3978L740.981 24.5851Z" fill="white"/>
<path d="M740.953 24.5851L740.221 22.3978L801.755 4.58975L796.023 6.47305L795.97 6.49185L767.009 16.017L766.188 16.2852L740.953 24.5851Z" fill="#D1D3D4"/>
<path d="M740.841 24.5851L801.643 4.58975L745.995 33.4674L740.841 24.5851Z" fill="white"/>
<path d="M749.109 31.8431L771.702 20.1203L749.109 31.8431ZM772.38 19.7682L795.705 7.66147L772.38 19.7682ZM796.776 7.1051L801.627 4.58975L796.776 7.1051Z" fill="#B5B6A8"/>
<path d="M795.826 7.63548L796.897 7.07913L795.826 7.63548Z" fill="#BBBDB1"/>
<path d="M771.847 20.1114L772.526 19.7593L771.847 20.1114Z" fill="#BBBDB1"/>
<path d="M749.126 31.8431L740.841 24.5851L801.643 4.58975L796.792 7.1051L795.721 7.66147L772.397 19.7682L771.718 20.1203L749.126 31.8431Z" fill="#D1D3D4"/>
<path d="M740.841 24.5856L801.643 4.58975L760.119 34.1102L740.841 24.5856Z" fill="white"/>
<path d="M683.619 58.7854C689.767 60.8116 695.451 63.5751 701.914 65.0372C705.83 65.9225 709.479 65.8356 713.437 65.2626C720.709 64.209 729.649 61.8133 734.327 57.2288C738.41 53.2239 735.898 47.0757 729.268 45.6408C724.084 44.519 720.412 48.592 719.954 51.9557C719.007 58.9444 730.143 60.5975 737.076 59.3329C748.182 57.309 749.551 46.056 748.682 39.101C748.533 37.8999 746.028 37.8892 746.176 39.101C746.98 45.5566 746.117 55.7442 735.85 57.6158C729.571 58.7595 720.448 56.6581 722.822 50.6714C723.423 49.1583 725.072 47.5388 727.304 47.3767C730.535 47.141 733.196 49.9055 733.886 51.971C734.773 54.6449 731.631 56.9877 729.06 58.4168C725.62 60.3327 721.543 61.5937 717.478 62.5452C713.817 63.4045 709.681 64.1798 705.819 63.7655C698.26 62.9543 691.749 59.4185 684.887 57.1562C683.417 56.6728 682.143 58.2981 683.619 58.7854Z" fill="white"/>
<path d="M629.984 221.648C629.984 267.478 580.627 304.631 519.736 304.631C458.845 304.631 409.488 267.478 409.488 221.648C409.488 175.817 458.845 138.665 519.736 138.665C580.627 138.665 629.984 175.817 629.984 221.648Z" fill="#F1F2F2"/>
<path d="M620.649 221.635C620.649 263.548 575.506 297.525 519.823 297.525C464.14 297.525 418.997 263.548 418.997 221.635C418.997 179.722 464.14 145.744 519.823 145.744C575.506 145.744 620.649 179.722 620.649 221.635Z" fill="#FFCE48"/>
<path d="M465.109 266.867C465.109 262.112 470.186 258.295 476.501 258.295C482.821 258.295 487.892 262.112 487.892 266.867C487.892 271.622 482.821 275.44 476.501 275.44C470.186 275.44 465.109 271.622 465.109 266.867ZM544.837 266.867C544.837 262.112 549.908 258.295 556.228 258.295C562.549 258.295 567.62 262.112 567.62 266.867C567.62 271.622 562.549 275.44 556.228 275.44C549.908 275.44 544.837 271.622 544.837 266.867ZM453.724 193.999C453.724 191.655 456.301 189.713 459.414 189.713H566.281C567.173 186.499 567.263 181.14 573.31 181.14H596.092C599.205 181.14 601.788 183.082 601.788 185.426C601.788 187.771 599.205 189.713 596.092 189.713H577.94L562.192 244.832C563.436 246.775 567.62 251.932 567.62 254.008C567.62 256.352 565.037 258.295 561.924 258.295H470.805C467.692 258.295 465.109 256.352 465.109 254.008C465.109 251.664 467.692 249.721 470.805 249.721H552.669C551.777 248.382 550.533 246.975 550.533 245.435C550.533 243.895 551.336 242.221 551.687 240.747L458.795 232.576C455.861 232.309 453.724 230.433 453.724 228.289V193.999Z" fill="#F1F2F2"/>
<path d="M581.781 193.692C581.781 195.305 581.031 196.676 579.532 197.805L521.355 241.589L510.433 249.814C508.928 250.943 507.112 251.508 504.964 251.508C502.827 251.508 501 250.943 499.506 249.814L488.573 241.589L459.488 219.697C457.988 218.569 457.238 217.197 457.238 215.585C457.238 213.972 457.988 212.601 459.488 211.473L470.415 203.248C471.915 202.119 473.736 201.554 475.878 201.554C478.021 201.554 479.842 202.119 481.348 203.248L504.964 221.088L557.677 181.356C559.171 180.226 560.998 179.662 563.141 179.662C565.283 179.662 567.099 180.226 568.604 181.356L579.532 189.579C581.031 190.71 581.781 192.081 581.781 193.692Z" fill="#8CC63F"/>
<path d="M862.639 424.45C862.639 426.291 860.663 427.779 858.217 427.779H837.868C835.428 427.779 833.446 426.291 833.446 424.45V224.338C833.446 222.499 835.428 221.009 837.868 221.009H858.217C860.663 221.009 862.639 222.499 862.639 224.338V424.45Z" fill="#4D4C66"/>
<path d="M833.289 255.899H829.932V276.61H833.289V255.899Z" fill="#B5B6A8"/>
<path d="M833.289 255.88H829.932V243.257C831.039 243.744 832.152 244.213 833.289 244.664V255.88Z" fill="#BBBDB1"/>
<path d="M833.289 292.101C832.241 290.937 831.123 289.813 829.932 288.733V276.591H833.289V292.101Z" fill="#BBBDB1"/>
<path d="M833.289 244.674C832.152 244.222 831.039 243.754 829.932 243.267V220.62H849.4V221.031H837.711C835.271 221.031 833.289 222.521 833.289 224.36V244.674Z" fill="#BBBDB1"/>
<path d="M829.932 335.858V296.908L829.992 296.925C830.902 295.127 831.801 293.3 832.652 291.496L831.45 291.175C830.956 292.219 830.45 293.271 829.932 294.32V288.727C831.123 289.807 832.241 290.931 833.289 292.095V335.849L829.932 335.858Z" fill="#BBBDB1"/>
<path d="M829.992 296.928L829.932 296.911V294.322C830.45 293.273 830.956 292.221 831.45 291.178L832.652 291.499C831.801 293.303 830.902 295.13 829.992 296.928Z" fill="#BBBDB1"/>
<path d="M836.824 427.738H829.932V390.311L833.289 390.302V424.477C833.289 426.09 834.807 427.434 836.824 427.738ZM829.932 355.351V335.878L833.289 335.869V355.342L829.932 355.351Z" fill="#B5AD9C"/>
<path d="M829.932 390.286V355.326L833.289 355.318V390.277L829.932 390.286Z" fill="#646055"/>
<path d="M849.557 427.712H836.982C834.964 427.407 833.446 426.063 833.446 424.45V224.338C833.446 222.499 835.428 221.009 837.868 221.009H849.557V427.711V427.712Z" fill="#403E56"/>
<path d="M844.016 459.609C844.016 463.286 840.052 466.265 835.166 466.265H634.549C629.663 466.265 625.705 463.286 625.705 459.609V186.244C625.705 182.566 629.663 179.584 634.549 179.584H835.166C840.052 179.584 844.016 182.566 844.016 186.244V459.609Z" fill="#4D4C66"/>
<path d="M817.564 304.198C817.564 307.877 813.6 310.858 808.714 310.858H661.84C656.954 310.858 652.99 307.877 652.99 304.198V169.674C652.99 165.996 656.954 163.014 661.84 163.014H808.714C813.6 163.014 817.564 165.996 817.564 169.674V304.198Z" fill="#30323F"/>
<path d="M816.324 451.048C816.324 452.885 814.342 454.376 811.896 454.376H659.273C656.826 454.376 654.851 452.885 654.851 451.048V324.847C654.851 323.007 656.826 321.517 659.273 321.517H811.896C814.342 321.517 816.324 323.007 816.324 324.847V451.048Z" fill="#30323F"/>
<path d="M704.882 348.481C704.882 350.322 702.9 351.814 700.46 351.814H671.262C668.815 351.814 666.84 350.322 666.84 348.481V336.83C666.84 334.989 668.815 333.497 671.262 333.497H700.46C702.9 333.497 704.882 334.989 704.882 336.83V348.481Z" fill="#CFC7BE"/>
<path d="M754.705 348.481C754.705 350.322 752.723 351.814 750.277 351.814H721.078C718.638 351.814 716.656 350.322 716.656 348.481V336.83C716.656 334.989 718.638 333.497 721.078 333.497H750.277C752.723 333.497 754.705 334.989 754.705 336.83V348.481Z" fill="#CFC7BE"/>
<path d="M804.722 348.481C804.722 350.322 802.74 351.814 800.3 351.814H771.102C768.656 351.814 766.68 350.322 766.68 348.481V336.83C766.68 334.989 768.656 333.497 771.102 333.497H800.3C802.74 333.497 804.722 334.989 804.722 336.83V348.481Z" fill="#CFC7BE"/>
<path d="M704.882 370.808C704.882 372.644 702.9 374.136 700.46 374.136H671.262C668.815 374.136 666.84 372.644 666.84 370.808V359.152C666.84 357.315 668.815 355.823 671.262 355.823H700.46C702.9 355.823 704.882 357.315 704.882 359.152V370.808Z" fill="#CFC7BE"/>
<path d="M754.705 370.808C754.705 372.644 752.723 374.136 750.277 374.136H721.078C718.638 374.136 716.656 372.644 716.656 370.808V359.152C716.656 357.315 718.638 355.823 721.078 355.823H750.277C752.723 355.823 754.705 357.315 754.705 359.152V370.808Z" fill="#CFC7BE"/>
<path d="M804.722 370.808C804.722 372.644 802.74 374.136 800.3 374.136H771.102C768.656 374.136 766.68 372.644 766.68 370.808V359.152C766.68 357.315 768.656 355.823 771.102 355.823H800.3C802.74 355.823 804.722 357.315 804.722 359.152V370.808Z" fill="#CFC7BE"/>
<path d="M704.882 393.095C704.882 394.932 702.9 396.424 700.46 396.424H671.262C668.815 396.424 666.84 394.932 666.84 393.095V381.439C666.84 379.603 668.815 378.111 671.262 378.111H700.46C702.9 378.111 704.882 379.603 704.882 381.439V393.095Z" fill="#CFC7BE"/>
<path d="M754.705 393.095C754.705 394.932 752.723 396.424 750.277 396.424H721.078C718.638 396.424 716.656 394.932 716.656 393.095V381.439C716.656 379.603 718.638 378.111 721.078 378.111H750.277C752.723 378.111 754.705 379.603 754.705 381.439V393.095Z" fill="#CFC7BE"/>
<path d="M804.722 393.095C804.722 394.932 802.74 396.424 800.3 396.424H771.102C768.656 396.424 766.68 394.932 766.68 393.095V381.439C766.68 379.603 768.656 378.111 771.102 378.111H800.3C802.74 378.111 804.722 379.603 804.722 381.439V393.095Z" fill="#CFC7BE"/>
<path d="M704.882 415.422C704.882 417.263 702.9 418.75 700.46 418.75H671.262C668.815 418.75 666.84 417.263 666.84 415.422V403.77C666.84 401.929 668.815 400.437 671.262 400.437H700.46C702.9 400.437 704.882 401.929 704.882 403.77V415.422Z" fill="#CFC7BE"/>
<path d="M754.705 415.422C754.705 417.263 752.723 418.75 750.277 418.75H721.078C718.638 418.75 716.656 417.263 716.656 415.422V403.77C716.656 401.929 718.638 400.437 721.078 400.437H750.277C752.723 400.437 754.705 401.929 754.705 403.77V415.422Z" fill="#CFC7BE"/>
<path d="M804.722 415.422C804.722 417.263 802.74 418.75 800.3 418.75H771.102C768.656 418.75 766.68 417.263 766.68 415.422V403.77C766.68 401.929 768.656 400.437 771.102 400.437H800.3C802.74 400.437 804.722 401.929 804.722 403.77V415.422Z" fill="#CFC7BE"/>
<path d="M704.882 437.705C704.882 439.546 702.9 441.038 700.46 441.038H671.262C668.815 441.038 666.84 439.546 666.84 437.705V426.053C666.84 424.212 668.815 422.725 671.262 422.725H700.46C702.9 422.725 704.882 424.212 704.882 426.053V437.705Z" fill="#ED654C"/>
<path d="M754.705 437.705C754.705 439.546 752.723 441.038 750.277 441.038H721.078C718.638 441.038 716.656 439.546 716.656 437.705V426.053C716.656 424.212 718.638 422.725 721.078 422.725H750.277C752.723 422.725 754.705 424.212 754.705 426.053V437.705Z" fill="#F1E52F"/>
<path d="M804.722 437.705C804.722 439.546 802.74 441.038 800.3 441.038H771.102C768.656 441.038 766.68 439.546 766.68 437.705V426.053C766.68 424.212 768.656 422.725 771.102 422.725H800.3C802.74 422.725 804.722 424.212 804.722 426.053V437.705Z" fill="#5FBB46"/>
<path d="M799.446 190.313C799.446 192.153 797.464 193.644 795.024 193.644H676.022C673.576 193.644 671.594 192.153 671.594 190.313V188.982C671.594 187.143 673.576 185.652 676.022 185.652H795.024C797.464 185.652 799.446 187.143 799.446 188.982V190.313Z" fill="#151822"/>
<path d="M801.328 206.617H669.94V290.862H801.328V206.617Z" fill="#14B0BF"/>
<path d="M743.209 224.922C743.209 226.761 741.227 228.252 738.787 228.252H683.044C680.598 228.252 678.622 226.761 678.622 224.922C678.622 223.083 680.598 221.592 683.044 221.592H738.787C741.227 221.592 743.209 223.083 743.209 224.922Z" fill="#54C7DE"/>
<path d="M788.774 237.252C788.774 239.091 786.798 240.582 784.352 240.582H683.044C680.598 240.582 678.622 239.091 678.622 237.252C678.622 235.414 680.598 233.922 683.044 233.922H784.352C786.798 233.922 788.774 235.414 788.774 237.252Z" fill="#54C7DE"/>
<path d="M743.209 249.583C743.209 251.421 741.227 252.913 738.787 252.913H683.044C680.598 252.913 678.622 251.421 678.622 249.583C678.622 247.744 680.598 246.252 683.044 246.252H738.787C741.227 246.252 743.209 247.744 743.209 249.583Z" fill="#54C7DE"/>
<path d="M788.926 249.583C788.926 251.421 786.95 252.913 784.504 252.913H756.632C754.186 252.913 752.21 251.421 752.21 249.583C752.21 247.744 754.186 246.252 756.632 246.252H784.504C786.95 246.252 788.926 247.744 788.926 249.583Z" fill="#54C7DE"/>
<path d="M704.28 261.912C704.28 263.751 702.298 265.242 699.852 265.242H683.044C680.598 265.242 678.622 263.751 678.622 261.912C678.622 260.073 680.598 258.582 683.044 258.582H699.852C702.298 258.582 704.28 260.073 704.28 261.912Z" fill="#54C7DE"/>
<path d="M787.613 261.912C787.613 263.751 785.631 265.242 783.191 265.242H718.598C716.158 265.242 714.176 263.751 714.176 261.912C714.176 260.073 716.158 258.582 718.598 258.582H783.191C785.631 258.582 787.613 260.073 787.613 261.912Z" fill="#54C7DE"/>
<path d="M794.922 113.393L794.933 113.382L783.06 104.67L771.311 113.294L759.557 104.67L747.809 113.294L736.054 104.67L724.3 113.294L712.551 104.67L700.797 113.294L689.048 104.67L677.175 113.382L677.312 113.482V190.319H794.939V113.393H794.922Z" fill="white"/>
<path d="M742.998 135.928C742.998 137.402 741.409 138.597 739.451 138.597H694.772C692.814 138.597 691.231 137.402 691.231 135.928C691.231 134.454 692.814 133.259 694.772 133.259H739.451C741.409 133.259 742.998 134.454 742.998 135.928Z" fill="#D9DADB"/>
<path d="M779.523 145.807C779.523 147.281 777.934 148.476 775.976 148.476H694.772C692.814 148.476 691.231 147.281 691.231 145.807C691.231 144.333 692.814 143.138 694.772 143.138H775.976C777.934 143.138 779.523 144.333 779.523 145.807Z" fill="#D9DADB"/>
<path d="M742.998 155.687C742.998 157.161 741.409 158.356 739.451 158.356H694.772C692.814 158.356 691.231 157.161 691.231 155.687C691.231 154.213 692.814 153.018 694.772 153.018H739.451C741.409 153.018 742.998 154.213 742.998 155.687Z" fill="#D9DADB"/>
<path d="M779.574 155.687C779.574 157.161 777.985 158.356 776.027 158.356H753.69C751.726 158.356 750.143 157.161 750.143 155.687C750.143 154.213 751.726 153.018 753.69 153.018H776.027C777.985 153.018 779.574 154.213 779.574 155.687Z" fill="#D9DADB"/>
<path d="M711.794 165.567C711.794 167.041 710.205 168.236 708.247 168.236H694.772C692.814 168.236 691.231 167.041 691.231 165.567C691.231 164.093 692.814 162.898 694.772 162.898H708.247C710.205 162.898 711.794 164.093 711.794 165.567Z" fill="#D9DADB"/>
<path d="M778.412 165.567C778.412 167.041 776.823 168.236 774.865 168.236H723.098C721.139 168.236 719.55 167.041 719.55 165.567C719.55 164.093 721.139 162.898 723.098 162.898H774.865C776.823 162.898 778.412 164.093 778.412 165.567Z" fill="#D9DADB"/>
<path d="M875.684 414.555C875.63 414.291 874.44 408.096 877.457 405.058C878.523 403.979 879.987 403.432 881.808 403.432C884.635 403.432 886.307 403.835 887.397 404.772C889.099 406.241 889.343 408.92 889.247 414.363L888.438 414.354C888.527 409.216 888.307 406.546 886.819 405.255C885.897 404.463 884.403 404.122 881.808 404.122C880.237 404.122 878.981 404.588 878.076 405.502C875.303 408.293 876.469 414.38 876.481 414.439L875.684 414.555Z" fill="#816AAF"/>
<path d="M906.321 443.004H863.832L869.099 411.212H899.304L906.321 443.004Z" fill="#6E58A5"/>
<path d="M903.427 445.302L860.938 443.004L866.206 411.212H896.41L903.427 445.302Z" fill="#816AAF"/>
<path d="M846.571 363C843.72 361.011 840.56 358.784 842.494 355.644C844.125 353.189 846.975 351.424 848.505 348.898C849.832 346.824 849.731 345.139 847.999 343.222C847.083 342.152 845.958 341.538 845.654 340.311C845.249 338.855 846.166 338.241 846.975 337.013C850.85 331.875 844.125 327.66 837.405 328.35L834.572 324.667C831.293 324.667 826.71 327.964 825.591 330.191C824.568 332.108 821.163 335.634 822.08 337.551C822.997 339.697 824.163 340.078 821.211 341.842C819.479 342.994 817.337 343.146 818.253 345.444C818.967 347.057 823.55 349.507 821.413 351.424C819.682 353.037 814.385 352.114 814.795 355.259C814.896 356.41 816.729 356.867 816.521 358.095C816.319 359.474 813.98 359.707 812.754 360.397C809.492 362.234 809.391 365.455 812.956 366.911C814.587 367.524 816.015 367.833 816.116 369.441C816.218 370.821 814.587 371.511 814.081 372.739C813.266 375.037 817.134 376.802 819.58 377.339C822.633 377.877 825.484 378.105 828.442 378.871C831.906 379.713 836.078 378.257 839.238 377.106C842.803 375.807 847.791 374.118 849.32 371.13C850.951 367.986 849.731 365.226 846.571 363Z" fill="#FBB040"/>
<path d="M856.27 393.038H822.698L827.625 372.799L826.078 350.378H852.682L850.521 372.028L856.27 393.038Z" fill="#F2C5DC"/>
<path d="M843.389 350.833C843.389 352.513 841.574 353.875 839.342 353.875C837.116 353.875 835.307 352.513 835.307 350.833V347.195C835.307 345.52 837.116 344.154 839.342 344.154C841.574 344.154 843.389 345.52 843.389 347.195V350.833Z" fill="#F0DCC8"/>
<path d="M858.683 338.377C858.683 344.483 852.107 349.428 843.995 349.428C835.889 349.428 829.312 344.483 829.312 338.377C829.312 332.271 835.895 327.066 843.995 327.321C861.046 327.868 849.613 339.64 858.683 338.377Z" fill="#F0DCC8"/>
<path d="M812.632 377.68C815.506 378.701 817.197 379.378 820.393 375.238C824.886 369.41 830.189 361.123 832.361 357.929C834.54 354.735 835.397 352.616 829.219 350.65C825.612 349.498 822.22 352.213 820.559 354.856L811.09 371.762C809.436 374.405 809.751 376.658 812.632 377.68Z" fill="#F2C5DC"/>
<path d="M801.317 402.519L820.452 375.247L811.15 371.771L798.306 401.426L801.317 402.519Z" fill="#F2C5DC"/>
<path d="M802.272 408.458C802.849 411.007 793.285 410.662 792.517 408.144C791.755 405.622 793.118 402.209 796.469 401.631C799.814 401.057 801.95 402.244 803.712 404.502C806.015 407.463 801.659 405.761 802.272 408.458Z" fill="#F0DCC8"/>
<path d="M862.875 378.339C865.791 377.372 867.577 376.857 865.517 372.328C862.619 365.949 857.78 357.504 856.007 354.172C854.227 350.843 852.668 348.966 846.645 351.184C843.116 352.483 843.621 356.187 845.187 358.866L855.929 375.329C857.495 378.008 859.965 379.302 862.875 378.339Z" fill="#F2C5DC"/>
<path d="M880.373 401.07L865.566 372.315L855.978 375.317L877.302 402.065L880.373 401.07Z" fill="#F2C5DC"/>
<path d="M886.985 404.493C889.919 405.837 883.301 411.042 880.272 409.823C877.242 408.609 874.707 405.59 876.326 403.31C877.945 401.03 880.54 400.6 883.962 401.079C888.437 401.706 883.872 403.068 886.985 404.493Z" fill="#F0DCC8"/>
<path d="M856.27 393.008H822.698V401.896H856.27V393.008Z" fill="#D04A9B"/>
<path d="M828.346 426.289L836.273 427.091L837.136 401.915H822.698L828.346 426.289Z" fill="#D04A9B"/>
<path d="M821.251 458.836L826.446 459.719L836.201 427.085L828.351 425.759L821.251 458.836Z" fill="#D04A9B"/>
<path d="M855.271 343.376H848.963C848.683 345.495 852.855 347.749 855.271 343.376Z" fill="white"/>
<path d="M826.523 459.719C829.63 465.202 839.986 465.287 838.575 470C834.671 469.342 828.541 468.302 824.179 467.563L824.196 467.509C824.196 467.509 824.387 464.109 823.47 463.957C822.56 463.8 821.649 464.235 821.441 464.924L820.863 467.003C819.691 466.802 818.977 466.681 818.977 466.681L821.381 458.626L826.523 459.719Z" fill="#E37EB3"/>
<path d="M852.704 427.01L860.644 426.051L856.252 401.897L841.301 401.682L852.704 427.01Z" fill="#D04A9B"/>
<path d="M862.389 459.73L867.65 459.099L860.61 426.07L852.67 427.029L862.389 459.73Z" fill="#D04A9B"/>
<path d="M867.7 459.093C873.289 463.317 882.943 460.5 883.96 465.275C880.008 465.75 873.807 466.498 869.385 467.031L869.379 466.977C869.379 466.977 867.879 463.77 866.956 463.882C866.028 463.994 865.397 464.648 865.546 465.346L866.034 467.438C864.849 467.582 864.123 467.667 864.123 467.667L862.385 459.514L867.7 459.093Z" fill="#E37EB3"/>
<path d="M858.186 327.576C858.495 327.343 858.597 327.114 858.597 326.81C858.394 324.816 856.454 323.589 854.621 325.354C853.704 326.272 853.323 326.348 851.562 325.735C844.069 323.128 835.498 324.091 834.57 324.66C828.237 324.816 822.077 331.097 822.077 335.863C822.077 342.121 828.589 347.228 836.79 347.569C836.522 346.758 836.373 345.911 836.373 345.042C836.373 344.505 836.427 343.976 836.534 343.461C835.945 343.698 835.266 343.833 834.552 343.833C832.207 343.833 830.314 342.408 830.314 340.643C830.314 338.883 832.207 337.454 834.552 337.454C836.361 337.454 837.897 338.309 838.51 339.51C838.938 338.479 841.492 337.66 841.95 333.449C842.42 333.296 842.819 333.081 843.11 332.79C843.218 335.241 849.633 334.703 850.449 332.79C849.836 334.089 851.77 334.246 852.99 334.089C854.621 334.013 855.74 333.404 856.252 332.177C857.579 334.17 860.43 332.557 861.037 331.025C861.65 329.184 859.817 328.342 858.186 327.576Z" fill="#FBB040"/>
</svg>
