<svg width="752" height="463" viewBox="0 0 752 463" fill="none" xmlns="http://www.w3.org/2000/svg">
<path d="M691.451 369.48C616.209 343.674 614.372 429.869 566.659 413.504C518.95 397.142 518.95 320.652 469.4 303.662C419.854 286.672 429.028 410.387 366.634 388.987C304.24 367.59 309.743 254.607 269.371 240.762C228.998 226.916 232.668 277.996 183.122 261.006C133.576 244.013 120.55 173.688 26.9565 141.591L691.451 369.48L691.451 369.48Z" fill="#466AB2"/>
<path d="M460.37 299.84C463.81 299.84 467.385 300.473 471.07 301.737C497.331 310.742 510.088 335.185 522.424 358.821C533.993 380.986 545.957 403.908 568.333 411.582C585.461 417.446 595.387 408.121 610.17 392.404C622.784 378.994 637.702 363.139 663.211 362.405L70.3803 159.093C99.5888 176.869 118.338 198.52 134.319 216.974C150.709 235.901 164.864 252.246 184.793 259.083C207.968 267.024 217.314 258.871 228.153 249.433C237.925 240.924 249.009 231.276 271.041 238.839C290.488 245.505 299.322 271.244 309.548 301.047C321.556 336.04 335.17 375.7 368.304 387.064C375.104 389.395 380.969 389.873 386.236 388.531C402.837 384.287 412.592 362.298 421.2 342.899C429.924 323.232 438.166 304.654 453.83 300.651C455.941 300.11 458.128 299.84 460.371 299.84H460.37ZM578.197 417.871C574.077 417.871 569.622 417.13 564.75 415.459C539.87 406.926 528.015 384.216 515.464 360.17C503.558 337.353 491.244 313.764 467.487 305.616C463.412 304.218 459.862 303.933 456.656 304.757C444.283 307.917 436.132 326.292 428.247 344.061C418.767 365.44 408.954 387.552 389.061 392.635C381.684 394.522 373.493 393.95 364.725 390.941C328.698 378.589 314.726 337.878 302.396 301.959C292.942 274.411 284.012 248.393 267.462 242.716C251.934 237.39 245.024 242.507 234.138 251.986C223.445 261.295 210.148 272.888 181.213 262.962C159.408 255.484 144.788 238.601 127.858 219.051C104.62 192.217 78.2861 161.804 25.0475 143.545C23.2912 142.944 22.6666 141.586 23.6564 140.516C24.6462 139.445 26.8628 139.06 28.6268 139.668L693.049 367.529L693.122 367.558C694.875 368.159 695.496 369.516 694.51 370.587C693.524 371.655 691.296 372.04 689.543 371.435L689.47 371.412C650.81 358.172 633.362 376.698 616.507 394.619C605.719 406.087 594.632 417.87 578.198 417.872L578.197 417.871Z" fill="#78A1D5"/>
<path d="M72.9527 157.379C148.191 183.182 150.024 -13.1809 197.733 3.18179C245.45 19.5445 245.45 179.359 294.996 196.351C344.546 213.342 348.22 60.2709 410.61 81.6679C473 103.067 454.649 271.604 495.025 285.451C535.394 299.297 552.573 230.056 602.116 247.049C651.665 264.041 654.682 356.882 748.282 388.978L72.9519 157.379L72.9527 157.379Z" fill="#466AB2"/>
<path d="M92.3508 161.466L711.213 373.698C679.514 352.833 661.802 323.889 646.851 299.467C632.499 276.014 620.1 255.756 600.398 248.999C578.855 241.619 564.802 251.895 545.819 268.422C530.838 281.469 515.34 294.963 493.307 287.4C473.663 280.665 467.39 244.068 460.129 201.692C451.547 151.643 441.826 94.9161 408.889 83.6188C403.253 81.6914 398.199 81.3421 393.411 82.5683C373.859 87.5694 360.664 117.404 349.025 143.726C336.948 171.021 326.526 194.592 308.803 199.128C303.818 200.401 298.592 200.125 293.278 198.302C266.747 189.204 254.633 145.226 241.804 98.6639C230.165 56.4087 218.128 12.7154 196.015 5.13273C193.046 4.11796 191.081 4.44946 189.851 4.78558C175.94 8.6069 165.087 39.5253 154.584 69.424C140.217 110.324 125.368 152.615 96.2912 160.607C94.9912 160.963 93.68 161.25 92.3508 161.466ZM748.355 391.215C747.73 391.215 747.113 391.124 746.565 390.928L71.2319 159.329C69.4755 158.725 68.8509 157.37 69.8407 156.3C70.8265 155.227 73.0468 154.842 74.8147 155.452C81.5486 157.757 87.5928 158.118 93.2863 156.549C118.996 149.482 134.108 106.455 147.438 68.4926C159.314 34.6766 169.572 5.47216 186.846 0.724959C190.918 -0.396779 195.33 -0.214158 199.599 1.25473C224.75 9.88126 236.535 52.6462 249.01 97.9262C260.988 141.406 273.376 186.367 296.861 194.424C300.203 195.566 303.099 195.757 305.977 195.021C320.402 191.331 331.369 166.54 341.97 142.567C354.643 113.926 367.743 84.3076 390.589 78.4634C397.495 76.6983 404.854 77.1257 412.472 79.7408C448.699 92.162 458.202 147.609 467.394 201.228C473.854 238.93 480.534 277.913 496.887 283.522C512.054 288.723 523.236 280.324 539.838 265.869C556.341 251.495 575.046 235.191 603.977 245.121C626.01 252.675 638.843 273.638 653.695 297.911C674.037 331.172 697.117 368.87 750.144 387.051C751.897 387.654 752.517 389.009 751.532 390.082C750.838 390.808 749.632 391.215 748.354 391.215L748.355 391.215Z" fill="#78A1D5"/>
<path d="M691.345 369.484C616.104 343.678 614.267 262.604 566.554 246.241C518.845 229.876 518.845 282.156 469.295 265.163C419.748 248.171 426.581 144.21 366.528 109.762C311.829 78.3856 309.638 174.639 269.265 160.791C228.893 146.948 232.563 104.374 183.016 87.3815C133.47 70.3867 109.608 169.978 16.0232 137.883L691.346 369.484L691.345 369.484Z" fill="#FFD792"/>
<path d="M1.88501 132.371C77.1266 158.173 38.1781 216.453 85.8911 232.818C133.604 249.18 133.604 190.547 183.15 207.539C232.697 224.532 223.523 327.878 285.92 349.279C348.314 370.674 342.803 269.122 383.176 282.97C423.549 296.813 419.882 337.795 469.428 354.788C518.978 371.782 542.829 318.506 636.422 350.599L1.88536 132.371H1.88501Z" fill="#FBAD56"/>
<path d="M375.864 280.549C378.482 280.549 381.207 281.032 384.015 281.993C403.695 288.741 413.023 301.536 422.894 315.081C433.638 329.821 444.751 345.065 470.263 353.814C490.262 360.668 506.163 355.498 524.572 349.505C544.928 342.879 569.221 334.974 605.865 341.381L24.5497 141.459C48.0174 155.966 53.1408 175.226 57.7718 192.639C62.3658 209.921 66.3391 224.848 86.7244 231.841C108.907 239.451 120.096 229.807 131.936 219.591C143.94 209.233 157.565 197.502 183.984 206.565C208.032 214.811 218.426 242.208 229.425 271.217C241.736 303.668 254.46 337.228 286.754 348.303C295.31 351.234 302.72 351.884 309.411 350.29C326.407 346.235 336.099 327.936 344.656 311.79C352.588 296.818 359.435 283.892 371.184 281.089C372.696 280.729 374.259 280.549 375.862 280.549H375.864ZM489.466 359.36C482.855 359.36 475.961 358.32 468.47 355.752C441.906 346.643 430.545 331.057 419.559 315.987C409.937 302.787 400.85 290.319 382.222 283.932C378.65 282.705 375.469 282.458 372.515 283.164C362.381 285.579 355.46 298.643 348.131 312.471C338.899 329.904 329.352 347.925 310.742 352.363C303.08 354.192 294.403 353.477 284.963 350.241C251.266 338.686 238.356 304.641 225.87 271.717C215.057 243.203 204.842 216.269 182.196 208.504C158.611 200.418 147.104 210.36 134.921 220.876C122.669 231.445 109.993 242.375 84.937 233.78C63.0179 226.264 58.7196 210.101 54.169 192.995C48.4976 171.679 42.0738 147.522 1.14974 133.409L0.927168 133.333H0.930437H0.927168C0.0506374 133.031 -0.259861 132.354 0.236671 131.82C0.729945 131.279 1.85436 131.095 2.72003 131.395L2.95382 131.475L637.212 349.609L637.256 349.625H637.259C638.136 349.928 638.446 350.604 637.953 351.141C637.453 351.677 636.328 351.862 635.466 351.563C582.173 333.291 552.486 342.946 526.287 351.468C513.6 355.596 502.045 359.36 489.464 359.36H489.466Z" fill="white"/>
<path d="M1.88501 132.371C77.1266 158.173 50.3135 157.648 91.4167 179.686C130.533 200.658 141.912 182.804 222.449 214.354C270.272 233.091 251.738 271.468 294.254 277.072C336.763 282.68 357.21 262.892 397.583 276.736C437.952 290.583 431.386 305.457 480.936 322.45C530.478 339.444 542.829 318.506 636.422 350.599L1.88536 132.371H1.88501Z" fill="#43B978"/>
<path d="M691.345 369.487C616.104 343.681 613.912 312.133 566.203 295.77C518.486 279.408 513.597 291.413 464.05 274.42C414.504 257.428 428.374 226.022 368.321 191.574C313.622 160.197 298.733 218.52 258.364 204.672C217.988 190.826 193.322 154.415 143.057 150.863C92.7909 147.313 109.608 169.981 16.0232 137.886L691.346 369.487L691.345 369.487Z" fill="#F1617E"/>
<path d="M65.2482 153.435L656.689 356.268C636.296 345.845 623.522 335.127 611.817 325.307C598.101 313.801 586.257 303.866 565.456 296.73C542.12 288.732 529.473 287.626 516.081 286.457C502.576 285.28 488.611 284.06 463.303 275.38C437.651 266.584 428.627 253.983 418.175 239.392C408.041 225.242 396.559 209.208 367.216 192.378C337.606 175.39 320.978 185.339 303.387 195.881C290.108 203.838 276.373 212.064 257.617 205.634C241.281 200.032 227.309 190.682 213.793 181.637C193.524 168.077 172.566 154.051 142.992 151.961C126.288 150.775 117.392 152.52 108.777 154.202C97.9343 156.323 88.0485 158.251 65.2489 153.435H65.2482ZM690.578 370.447L15.2693 138.848L17.0625 136.909C78.1414 157.857 91.1681 155.306 107.66 152.084C116.221 150.41 125.931 148.518 143.41 149.749C174.342 151.937 195.768 166.274 216.489 180.142C230.421 189.463 243.583 198.269 259.403 203.695C275.768 209.3 287.381 202.349 300.824 194.295C318.036 183.983 337.53 172.299 369.719 190.756C399.606 207.9 411.249 224.158 421.518 238.5C431.711 252.726 440.512 265.011 465.09 273.442C489.802 281.917 503.421 283.105 516.597 284.256C529.729 285.4 543.311 286.586 567.243 294.792C588.742 302.165 601.381 312.77 614.769 323.999C631.663 338.171 650.814 354.236 692.293 368.475L692.366 368.509L690.577 370.447H690.578Z" fill="white"/>
<path d="M231.18 161.941C233.167 161.496 242.011 167.293 246.211 164.358C250.627 161.271 256.466 156.069 257.869 156.59C259.796 157.307 253.705 164.148 249.597 167.053C245.481 169.953 242.549 171.791 243.195 172.154C244.831 173.064 253.581 169.637 253.672 170.371C253.983 172.926 244.192 177.092 236.757 176.712C228.726 176.302 207.333 202.044 197.845 206.195C186.323 211.227 174.998 198.65 179.545 196.46C192.834 190.068 216.608 177.092 219.176 173.258C220.852 170.754 223.069 163.757 231.18 161.941Z" fill="#F6A0A6"/>
<path d="M135.891 201.352C156.977 199.678 175.935 194.535 181.982 193.518C188.03 192.508 203.796 204.8 196.061 209.07C176.428 219.894 152.336 222.68 134.839 223.851C114.093 225.235 99.1449 224.243 98.6009 215.233C98.1261 207.237 111.13 203.322 135.891 201.352Z" fill="white"/>
<path d="M151.645 431.763C153.547 434.263 150.056 438.28 146.638 440.085C142.88 442.068 120.307 453.975 105.659 450.554C103.888 450.14 102.113 449.635 100.846 448.78C98.6474 447.298 101.748 439.217 104.198 437.764C107.39 435.858 150.1 429.709 151.645 431.763Z" fill="#FFD792"/>
<path d="M125.493 430.607C135.861 428.155 149.494 428.422 151.049 430.469C152.941 432.977 147.208 437.231 143.811 439.051C134.046 444.27 114.369 449.839 107.259 448.388C105.466 448.025 102.113 447.237 100.846 446.378C98.6475 444.898 100.667 439.721 103.285 438.179C105.754 436.728 120.03 431.9 125.493 430.607Z" fill="#F1617C"/>
<path d="M120.829 441.688C121.973 441.688 122.9 442.42 122.9 443.324C122.9 444.225 121.973 444.958 120.829 444.958C119.69 444.958 118.759 444.225 118.759 443.324C118.759 442.42 119.69 441.688 120.829 441.688Z" fill="#FFD792"/>
<path d="M106.493 436.49L110.598 439.793L109.546 440.979C107.505 442.764 107.841 448.611 107.841 448.611C103.104 448.397 101.468 446.723 101.468 446.723C100.248 440.948 104.076 438.731 104.076 438.731L106.493 436.49Z" fill="#FFD792"/>
<path d="M129.977 433.208C130.821 434.347 129.221 437.534 120.153 439.884C116.921 440.721 112.995 441.329 109.526 440.979C109.972 440.109 109.347 439.083 108.084 438.607C106.798 438.124 105.264 438.315 104.056 438.732C104.749 437.281 105.133 435.765 105.571 434.267C108.12 434.534 127.3 429.627 129.977 433.208Z" fill="#F6A0A6"/>
<path d="M135.28 357.88C134.677 373.382 128.272 432.487 128.272 432.487C128.272 432.487 118.751 437.88 100.667 433.627C100.667 433.627 95.7984 389.008 94.1807 378.053C92.5593 367.104 94.1481 357.716 95.6453 355.664C99.7134 350.111 135.897 342.384 135.28 357.88Z" fill="#002E44"/>
<path d="M103.147 275.23C107.475 273.233 120.801 272.065 134.196 279.167C158.302 291.953 135.098 352.274 135.098 362.454C135.098 372.965 100.368 371.957 96.3435 357.873C93.6444 348.412 87.1149 315.605 86.2749 309.667C85.3619 303.183 85.2413 283.478 103.147 275.23Z" fill="#002E44"/>
<path d="M191.421 443.596C193.316 446.097 189.828 450.112 186.414 451.922C182.652 453.9 160.083 465.807 145.431 462.386C143.667 461.972 141.893 461.47 140.622 460.61C138.423 459.133 141.524 451.049 143.974 449.598C147.173 447.691 189.872 441.544 191.421 443.596Z" fill="#FFD792"/>
<path d="M165.264 442.468C175.636 440.017 189.268 440.282 190.824 442.33C192.709 444.838 186.99 449.091 183.578 450.914C173.817 456.135 154.144 461.706 147.03 460.248C145.233 459.885 141.891 459.095 140.62 458.243C138.422 456.761 140.441 451.584 143.067 450.039C145.521 448.595 159.804 443.761 165.264 442.468Z" fill="#F1617C"/>
<path d="M160.419 453.521C161.555 453.521 162.486 454.255 162.486 455.157C162.486 456.058 161.555 456.79 160.419 456.79C159.276 456.79 158.345 456.058 158.345 455.157C158.345 454.255 159.276 453.521 160.419 453.521Z" fill="#FFD792"/>
<path d="M146.091 448.351L150.184 451.654L149.136 452.838C147.102 454.625 147.431 460.474 147.431 460.474C142.694 460.258 141.054 458.591 141.054 458.591C139.835 452.809 143.662 450.592 143.662 450.592L146.091 448.351Z" fill="#FFD792"/>
<path d="M169.56 445.069C170.418 446.213 168.808 449.396 159.744 451.746C156.511 452.585 152.585 453.19 149.116 452.839C149.562 451.97 148.937 450.945 147.67 450.47C146.395 449.992 144.851 450.181 143.642 450.593C144.339 449.142 144.723 447.626 145.157 446.128C147.707 446.396 166.89 441.488 169.56 445.069Z" fill="#F6A0A6"/>
<path d="M173.874 370.645C173.268 386.146 167.005 444.259 167.005 444.259C167.005 444.259 157.586 452.529 139.509 448.276C139.509 448.276 134.389 401.774 132.771 390.822C131.153 379.868 132.194 368.675 133.691 366.63C137.76 361.072 174.487 355.148 173.874 370.645Z" fill="#005A7C"/>
<path d="M135.394 288.658C139.721 286.661 156.213 280.948 169.923 287.823C188.435 297.104 173.703 365.045 173.703 375.227C173.703 385.73 138.954 384.726 134.945 370.642C132.246 361.175 122.006 320.241 121.169 314.308C120.26 307.825 117.485 296.899 135.394 288.658Z" fill="#005A7C"/>
<path d="M122.226 319.565C121.682 317.103 121.306 315.254 121.171 314.308C120.258 307.825 117.486 296.899 135.395 288.658C139.723 286.661 156.215 280.948 169.925 287.823C174.972 290.356 162.329 309.859 122.226 319.565Z" fill="#002E44"/>
<path d="M91.7916 243.037C87.8657 226.945 89.1147 204.919 117.516 204.919C131.554 204.919 177.701 212.005 177.701 230.179C177.701 246.121 173.22 281.624 180.498 300.704C180.498 300.704 105.326 310.677 84.4512 295.973C84.4512 295.973 95.7284 259.128 91.7916 243.037Z" fill="#565B70"/>
<path d="M136.88 175.882C139.627 174.803 163.27 174.947 163.577 177.062C163.883 179.183 160.549 182.172 161.806 184.155C162.678 185.53 163.741 188.497 161.915 190.347C155.783 196.545 151.594 201.791 144.97 200.607C143.293 204.853 149.736 209.743 148.866 209.669C143.889 209.255 130.011 206.291 125.545 204.853C127.926 195.37 124.055 188.19 132.29 179.223C133.474 177.945 134.85 176.675 136.88 175.882Z" fill="#F6A0A6"/>
<path d="M129.627 165.563C129.627 158.254 151.37 159.828 151.082 165.356C160.668 162.027 173.958 169.852 165.211 180.048C165.211 180.048 163.47 176.803 159.701 177.88C159.701 183.179 153.81 180.195 151.761 186.262C150.516 189.99 148.577 193.898 143.124 196.114C138.442 198.022 126.512 196.07 126.512 196.07C126.512 190.94 111.005 182.647 115.899 177.194C111.049 170.003 120.847 164.773 129.627 165.563Z" fill="#002E44"/>
<path d="M127.049 200.615C132.341 200.797 137.019 201.351 148.311 204.857C151.119 205.731 154.432 208.625 154.341 211.6L119.702 204.87L122.875 201.908C123.795 201.058 125.384 200.559 127.049 200.615Z" fill="white"/>
<path d="M204.725 294.278C206.255 295.004 210.254 298.104 213 297.505C218.88 296.234 226.52 295.958 225.837 297.521C225.498 298.295 218.445 299.615 215.557 300.866C212.997 301.97 217.116 302.62 218.497 303.913C222.232 307.411 226.02 314.26 226.867 316.77C227.426 318.401 220.871 314.631 218.336 310.107C215.225 304.534 217.098 312.541 215.049 313.421C211.638 314.885 201.036 312.588 197.07 311.665C194.923 311.164 193.576 308.019 195.23 304.878C195.361 304.625 197.618 302.573 191.169 298.927C177.675 291.298 147.977 273.07 147.977 273.07L166.653 264.57C166.653 264.57 193.06 288.767 204.725 294.278Z" fill="#F6A0A6"/>
<path d="M161.279 216.813C173.509 218.645 176.022 226.978 172.494 241.413C169.496 253.705 170.456 262.089 170.409 265.752C170.354 269.415 149.45 278.678 145.017 273.21C133.794 259.331 135.898 245.061 138.721 234.918C142.07 222.889 147.504 214.748 161.279 216.813Z" fill="white"/>
<path d="M276.966 221.717C278.734 254.701 317.32 295.941 362.813 313.597C389.735 324.004 413.159 323.895 427.424 315.242C414.079 317.374 397.214 315.204 378.754 308.066C333.218 290.424 294.62 249.188 292.856 216.204C292.115 202.653 302.468 191.371 312.452 185.446C292.812 188.48 275.878 202.083 276.966 221.717Z" fill="#B4C6D3"/>
<path d="M432.245 322.622L448.908 316.877C458.367 313.595 467.515 307.899 470.751 304.287C474.465 300.141 476.966 295.674 478.986 286.168L459.923 290.786C459.923 290.786 445.07 315.885 432.245 322.622Z" fill="#B4C6D3"/>
<path d="M454.482 280.661C446.455 230.157 378.799 173.994 301.044 179.651C383.568 145.206 475.229 228.572 477.625 272.626C476.153 273.134 454.665 280.598 454.482 280.661Z" fill="#B4C6D3"/>
<path d="M477.781 272.612L514.491 285.926L498.492 291.436L461.84 278.145L477.781 272.612Z" fill="#B4C6D3"/>
<path d="M445.323 295.714C425.339 346.149 347.454 303.468 317.12 279.109C266.8 238.703 266.157 167.453 350.112 188.364C411.633 206.022 459.573 259.751 445.323 295.714ZM461.936 278.197C454.869 249.651 433.242 221.183 405.889 204.001C308.842 143.269 235.13 191.681 288.339 263.853C333.642 327.694 449.767 352.27 461.632 291.506L489.574 301.672L502.118 292.908C502.063 292.908 465.04 279.305 461.936 278.197Z" fill="white"/>
<path d="M621.893 324.177C611.354 327.809 602.735 336.758 602.655 344.205C602.589 351.619 611.094 354.695 621.634 351.062C632.162 347.435 640.796 338.445 640.865 331.034C640.938 323.583 632.44 320.54 621.893 324.177Z" fill="#002E44"/>
<path d="M504.303 281.638C503.054 282.068 501.896 282.569 500.764 283.108C494.442 286.168 489.49 290.534 486.992 295.222C484.768 299.394 482.927 306.345 490.312 309.143L608.329 351.803C607.474 351.501 606.7 351.109 606.021 350.641C603.282 348.794 602.595 346.017 602.778 343.613C602.968 341.058 604.092 338.494 605.688 336.137C608.91 331.388 614.537 326.743 621.987 324.179C627.231 322.37 631.964 322.216 635.408 323.429L517.709 280.895C514.287 279.678 509.547 279.834 504.303 281.638Z" fill="#005A7C"/>
<path d="M620.995 323.211C613.856 325.666 607.629 330.224 603.911 335.713C602.075 338.417 601.045 341.056 600.858 343.562C600.734 345.243 601.019 346.794 601.687 348.145C575.824 338.795 491.774 308.413 491.183 308.199C484.017 305.482 487.421 297.842 488.637 295.565C491.011 291.105 495.813 286.883 501.792 283.987C503.026 283.399 504.078 282.963 505.107 282.609C507.792 281.684 510.341 281.218 512.594 281.218C514.106 281.218 515.49 281.428 516.684 281.853L627.076 321.747C625.115 322.007 623.07 322.497 620.995 323.211ZM636.246 322.475L518.536 279.934C514.38 278.452 508.979 278.721 503.311 280.671C502.124 281.078 500.926 281.577 499.531 282.238C492.899 285.452 487.794 289.941 485.164 294.877C483.74 297.543 479.836 306.519 489.243 310.085C489.327 310.118 529.021 324.466 607.217 352.73L607.311 352.765L608.235 352.917C608.86 352.917 609.47 352.723 609.806 352.369C610.317 351.842 610.032 351.161 609.167 350.849L609.083 350.818C608.429 350.58 607.826 350.27 607.282 349.896C604.598 348.087 604.39 345.216 604.503 343.665C604.675 341.417 605.61 339.029 607.286 336.563C610.701 331.524 616.346 327.364 622.792 325.15C627.28 323.603 631.4 323.334 634.398 324.393C635.26 324.698 636.374 324.522 636.889 323.992C637.397 323.465 637.108 322.784 636.246 322.475Z" fill="white"/>
</svg>
