<svg width="331" height="295" viewBox="0 0 331 295" fill="none" xmlns="http://www.w3.org/2000/svg">
<path d="M82.5736 260.877C78.7295 260.877 75.5859 257.462 75.5859 253.25V111.718C75.5859 107.512 78.7295 104.09 82.5736 104.09H272.054C275.906 104.09 279.041 107.512 279.041 111.718V253.25C279.041 257.462 275.906 260.877 272.054 260.877H82.5736Z" fill="#EAF4FE"/>
<path d="M278.305 253.334C278.305 257.152 275.468 260.25 271.974 260.25H82.494C79.0002 260.25 76.1719 257.152 76.1719 253.334V111.801C76.1719 107.984 79.0002 104.889 82.494 104.889H271.974C275.468 104.889 278.305 107.984 278.305 111.801V253.334Z" fill="#0450CF"/>
<path d="M268.45 114.803H86.1328V241.822H268.45V114.803Z" fill="#EAF4FE"/>
<path d="M169.927 114.805L173.448 104.889H144.438L140.918 114.805H169.927Z" fill="#0561FC"/>
<path d="M95.8965 241.757L89.3555 260.182H118.365L124.906 241.757H95.8965Z" fill="#0561FC"/>
<path d="M188.614 114.805L192.142 104.889H182.817L179.297 114.805H188.614Z" fill="#0561FC"/>
<path d="M134.276 241.757L127.734 260.182H137.06L143.601 241.757H134.276Z" fill="#0561FC"/>
<path d="M313.191 252.47H41.6016V261.145H313.191V252.47Z" fill="#C5E1F9"/>
<path d="M41.8945 261.104C45.1081 264.81 51.01 266.265 55.0817 266.265H299.5C303.572 266.265 309.482 264.81 312.687 261.104H41.8954H41.8945Z" fill="#EAF4FE"/>
<path d="M158.789 252.47V253.401C158.789 255.114 160.059 256.498 161.626 256.498H192.851C194.41 256.498 195.688 255.114 195.688 253.401V252.47H158.789Z" fill="#EAF4FE"/>
<path d="M109.277 200.843V196.758C114.321 196.758 118.428 192.276 118.428 186.768V180.678H122.167V186.768C122.167 194.529 116.388 200.843 109.277 200.843Z" fill="#C5E1F9"/>
<path d="M133.578 220.747H129.839V176.519C129.839 174.188 128.105 172.291 125.969 172.291C123.832 172.291 122.098 174.188 122.098 176.519V183.855H118.359V176.519C118.359 171.936 121.774 168.206 125.969 168.206C130.163 168.206 133.578 171.936 133.578 176.519V220.747Z" fill="#C5E1F9"/>
<path d="M154.356 193.462H150.608V162.267C150.608 159.066 148.227 156.461 145.293 156.461C142.36 156.461 139.969 159.066 139.969 162.267V193.462H136.23V162.267C136.23 156.814 140.293 152.377 145.293 152.377C150.293 152.377 154.356 156.814 154.356 162.267V193.462Z" fill="#C5E1F9"/>
<path d="M134.829 229.484C132.044 229.484 129.785 227.017 129.785 223.985V190.911H133.533V223.985C133.533 224.764 134.111 225.399 134.829 225.399C135.538 225.399 136.125 224.764 136.125 223.985V190.911H139.864V223.985C139.864 227.017 137.605 229.484 134.829 229.484Z" fill="#C5E1F9"/>
<path d="M109.569 200.815C102.459 200.815 96.6797 194.502 96.6797 186.741V174.123H100.419V186.741C100.419 192.248 104.525 196.731 109.569 196.731V200.815Z" fill="#C5E1F9"/>
<path d="M100.361 175.392H96.6222V162.772C96.6222 157.266 92.5154 152.784 87.4718 152.784H41.8945V148.7H87.4718C94.5819 148.7 100.361 155.012 100.361 162.772V175.392Z" fill="#C5E1F9"/>
<path d="M44.1402 152.826H37.8004C30.6903 152.826 24.9023 146.514 24.9023 138.754V108.567H28.6413V138.754C28.6413 144.261 32.748 148.742 37.8004 148.742H44.1402V152.826Z" fill="#C5E1F9"/>
<path d="M163.184 219.538V215.453C168.227 215.453 172.343 210.971 172.343 205.461V39.4934H176.082V205.461C176.082 213.223 170.293 219.538 163.184 219.538Z" fill="#C5E1F9"/>
<path d="M163.475 219.502C156.365 219.502 150.586 213.188 150.586 205.426V175.242H154.325V205.426C154.325 210.936 158.432 215.417 163.475 215.417V219.502Z" fill="#C5E1F9"/>
<path d="M210.956 188.018H205.379C198.267 188.018 192.48 181.705 192.48 173.947V141.185H196.228V173.947C196.228 179.455 200.335 183.934 205.379 183.934H210.956V188.018Z" fill="#C5E1F9"/>
<path d="M210.966 200.493H191.895V196.408H210.966C213.103 196.408 214.836 194.514 214.836 192.185C214.836 189.855 213.103 187.96 210.966 187.96H207.989V183.876H210.966C215.169 183.876 218.584 187.604 218.584 192.185C218.584 196.766 215.169 200.493 210.966 200.493Z" fill="#C5E1F9"/>
<path d="M236.854 291.807H233.115V213.114C233.115 209.912 230.733 207.308 227.791 207.308H199.219V203.223H227.791C232.791 203.223 236.854 207.661 236.854 213.114V291.807Z" fill="#C5E1F9"/>
<path d="M201.326 207.507H188.735C185.958 207.507 183.691 205.04 183.691 202.006C183.691 198.975 185.958 196.508 188.735 196.508H201.326V200.593H188.735C188.017 200.593 187.439 201.226 187.439 202.006C187.439 202.786 188.017 203.423 188.735 203.423H201.326V207.507Z" fill="#C5E1F9"/>
<path d="M125.779 89.0973H107.82C100.71 89.0973 94.9219 82.7842 94.9219 75.0223V55.8024H98.6695V75.0223C98.6695 80.5315 102.768 85.0132 107.82 85.0132H125.779V89.0973Z" fill="#C5E1F9"/>
<path d="M147.722 153.758H143.983V98.9759C143.983 93.4685 139.877 88.9877 134.833 88.9877H123.047V84.9027H134.833C141.943 84.9027 147.722 91.2148 147.722 98.9759V153.758Z" fill="#C5E1F9"/>
<path d="M130.313 214.149H37.2146C30.0956 214.149 24.3164 207.836 24.3164 200.074V192.99H28.0555V200.074C28.0555 205.583 32.1621 210.064 37.2146 210.064H130.313V214.149Z" fill="#C5E1F9"/>
<path d="M231.445 184.52V180.435C236.489 180.435 240.596 175.953 240.596 170.445H244.344L240.596 170.484L244.344 170.445C244.344 178.206 238.556 184.52 231.445 184.52Z" fill="#C5E1F9"/>
<path d="M255.755 191.188H252.016V166.286C252.016 163.954 250.273 162.058 248.146 162.058C246.009 162.058 244.275 163.954 244.275 166.286V171.576H240.527V166.286C240.527 161.702 243.942 157.974 248.146 157.974C252.34 157.974 255.755 161.702 255.755 166.286V191.188Z" fill="#C5E1F9"/>
<path d="M257.281 199.965C254.505 199.965 252.246 197.498 252.246 194.464V180.716H255.994V194.464C255.994 195.244 256.572 195.88 257.281 195.88C257.999 195.88 258.586 195.244 258.586 194.464V97.2145H262.325V194.464C262.325 197.498 260.065 199.965 257.281 199.965Z" fill="#C5E1F9"/>
<path d="M231.746 184.614C224.627 184.614 218.848 178.3 218.848 170.539V164.049H222.587V170.539C222.587 176.047 226.693 180.529 231.746 180.529V184.614Z" fill="#C5E1F9"/>
<path d="M262.439 98.8199H258.691C258.691 91.0588 264.48 84.7429 271.59 84.7429H281.274V88.8281H271.59C266.537 88.8281 262.439 93.3097 262.439 98.8199Z" fill="#C5E1F9"/>
<path d="M222.569 165.156H218.83V152.54C218.83 147.034 214.723 142.552 209.679 142.552H174.023V138.467H209.679C216.79 138.467 222.569 144.78 222.569 152.54V165.156Z" fill="#C5E1F9"/>
<path d="M256.075 282.145C247.021 295.337 229.885 298.029 217.792 288.14C205.708 278.268 203.239 259.564 212.293 246.363C221.347 233.166 238.475 230.481 250.567 240.354C262.66 250.235 265.121 268.942 256.075 282.145Z" fill="#7EB3FF"/>
<path d="M49.8191 228.102C40.7737 241.291 23.6286 243.984 11.5448 234.096C-0.547868 224.223 -3.00833 205.52 6.04581 192.321C15.0911 179.122 32.2274 176.437 44.32 186.313C56.4039 196.194 58.8731 214.899 49.8191 228.102Z" fill="#C5E1F9"/>
<path d="M118.376 47.7434C109.322 60.9324 92.1852 63.6277 80.1014 53.7363C68.0087 43.8669 65.5481 25.1611 74.5937 11.9596C83.6477 -1.23499 100.784 -3.92174 112.877 5.95361C124.969 15.8325 127.421 34.5402 118.376 47.7434Z" fill="#FFAB01"/>
<path d="M28.8024 217.23L23.7675 212.47L30.0634 204.543L33.8286 205.34L35.0895 209.309L28.8024 217.23ZM22.8744 203.122C22.8744 202.772 23.067 202.476 23.3297 202.32V202.759C23.3297 202.936 23.3297 203.124 23.356 203.302H24.0302C24.0126 203.126 23.9952 202.938 23.9952 202.759V202.263C24.3279 202.39 24.5644 202.723 24.5644 203.122C24.5644 203.63 24.1791 204.043 23.715 204.043C23.2509 204.043 22.8744 203.63 22.8744 203.122ZM23.9952 199.075C23.9952 196.388 26.0003 194.203 28.461 194.203C30.9303 194.203 32.9267 196.388 32.9267 199.075V200.762H23.9952V199.075ZM33.6097 202.759V202.32C33.8723 202.476 34.0563 202.772 34.0563 203.122C34.0563 203.63 33.6798 204.043 33.2157 204.043C32.7428 204.043 32.3664 203.63 32.3664 203.122C32.3664 202.723 32.6027 202.39 32.9267 202.263V202.759C32.9267 202.938 32.918 203.126 32.9004 203.302H33.5747C33.5922 203.124 33.6097 202.936 33.6097 202.759ZM36.368 200.762H33.6097V199.075C33.6097 195.986 31.298 193.469 28.461 193.469C25.6326 193.469 23.3297 195.986 23.3297 199.075V200.762H19.7921C19.9497 208.037 19.074 215.269 18.75 222.52C24.9584 223.05 31.2017 223.05 37.4188 222.52C37.0861 215.269 36.2105 208.037 36.368 200.762Z" fill="white"/>
<path d="M31.2979 206.623C30.9388 207.069 30.9827 207.737 31.3942 208.122C31.8057 208.51 32.4188 208.462 32.769 208.019C33.1192 207.578 33.0754 206.905 32.664 206.527C32.2611 206.136 31.6482 206.182 31.2979 206.623Z" fill="white"/>
<path d="M233.955 268.049C229.778 268.049 226.39 264.478 226.39 260.071C226.39 255.664 229.778 252.091 233.955 252.091C238.132 252.091 241.521 255.664 241.521 260.071C241.521 264.478 238.132 268.049 233.955 268.049ZM233.955 248.952C228.202 248.952 223.535 254.04 223.535 260.319C223.535 266.597 231.503 277.977 233.955 277.977C236.784 277.977 244.367 266.597 244.367 260.319C244.367 254.04 239.699 248.952 233.955 248.952Z" fill="white"/>
<path d="M112.904 28.0706C112.904 24.0535 109.918 20.7942 106.24 20.7942C105.522 20.7942 104.839 20.9185 104.191 21.1458C103.771 16.4549 100.146 12.7914 95.7325 12.7914C91.0478 12.7914 87.2388 16.9414 87.2388 22.0692C87.2388 22.6914 87.2913 23.3012 87.4052 23.8881H85.8203C82.9218 23.8881 80.5664 26.4553 80.5664 29.6219C80.5664 32.7807 82.9218 35.3479 85.8203 35.3479H106.818C108.368 35.3479 109.752 34.6158 110.706 33.4556C112.055 32.1232 112.904 30.2106 112.904 28.0706Z" fill="white"/>
<path d="M96.9035 47.1716C94.1715 47.1716 91.4395 46.037 89.3555 43.7652L91.0804 41.8917C94.2941 45.3919 99.5216 45.3919 102.726 41.8917L104.443 43.7652C102.359 46.037 99.6355 47.1716 96.9035 47.1716Z" fill="white"/>
<path d="M97.0042 41.9562C95.5068 41.9562 94.0094 41.334 92.8711 40.0895L94.5961 38.2142C95.9183 39.6604 98.0811 39.6604 99.4122 38.2142L101.128 40.0895C99.9988 41.334 98.4927 41.9562 97.0042 41.9562Z" fill="white"/>
<path d="M49.2418 116.977C40.1877 130.164 23.0515 132.861 10.9588 122.97C-1.13367 113.1 -3.59428 94.3923 5.45971 81.1929C14.5053 67.9963 31.6415 65.3134 43.7341 75.1858C55.8267 85.0649 58.2873 103.773 49.2418 116.977Z" fill="#7EB3FF"/>
<path d="M31.4264 110.29C31.9781 109.273 32.451 108.029 32.8187 106.617C33.7293 106.762 34.6313 106.948 35.5157 107.164C34.4036 108.524 33.0027 109.604 31.4264 110.29ZM19.3513 107.164C20.2445 106.948 21.1464 106.762 22.0571 106.617C22.4248 108.029 22.889 109.269 23.4493 110.29C21.8732 109.604 20.4721 108.524 19.3513 107.164ZM23.4493 87.7576C22.889 88.7753 22.4248 90.0198 22.0571 91.4315C21.1464 91.2843 20.2445 91.096 19.3513 90.881C20.481 89.5209 21.8732 88.4418 23.4493 87.7576ZM35.5157 90.881C34.6313 91.096 33.7293 91.2843 32.8187 91.4315C32.451 90.0198 31.9781 88.7753 31.4264 87.7576C33.0027 88.4418 34.4036 89.52 35.5157 90.881ZM33.6856 97.7015C33.6419 96.4017 33.528 95.1773 33.3441 94.0161C34.5875 93.8133 35.8221 93.5419 37.0393 93.2064C37.7136 94.5666 38.1601 96.0862 38.3177 97.7015H33.6856ZM16.5493 100.346H21.1815C21.234 101.647 21.3479 102.873 21.5316 104.029C20.2883 104.235 19.0623 104.507 17.8364 104.842C17.1622 103.477 16.7156 101.96 16.5493 100.346ZM27.4335 94.5169C28.6069 94.5169 29.7715 94.4394 30.936 94.3276C31.1024 95.3589 31.225 96.483 31.2687 97.7015H23.607C23.6596 96.483 23.7733 95.3589 23.9397 94.3276C25.1044 94.4394 26.2689 94.5169 27.4335 94.5169ZM27.4335 87.2871C28.3704 87.2871 29.5525 88.9101 30.367 91.7307C28.4141 91.9018 26.4616 91.9018 24.5089 91.7307C25.3233 88.9101 26.4966 87.2871 27.4335 87.2871ZM17.8364 93.2064C19.0623 93.5372 20.2883 93.8133 21.5316 94.0161C21.3479 95.1773 21.234 96.4017 21.1815 97.7015H16.5493C16.7156 96.0862 17.1622 94.5666 17.8364 93.2064ZM23.9397 103.721C23.7733 102.686 23.6596 101.563 23.607 100.346H31.2687C31.225 101.563 31.1024 102.686 30.936 103.721C28.6069 103.494 26.2689 103.494 23.9397 103.721ZM27.4335 110.761C26.4966 110.761 25.3233 109.134 24.5089 106.314C26.4616 106.146 28.4141 106.146 30.367 106.314C29.5525 109.134 28.3704 110.761 27.4335 110.761ZM37.0393 104.842C35.8221 104.507 34.5875 104.235 33.3441 104.029C33.528 102.873 33.6419 101.647 33.6856 100.346H38.3177C38.1601 101.96 37.7136 103.477 37.0393 104.842ZM40.8133 99.0224C40.8133 90.8848 34.8065 84.2632 27.4335 84.2632C20.0607 84.2632 14.0625 90.8848 14.0625 99.0224C14.0625 107.159 20.0607 113.779 27.4335 113.779C34.8152 113.779 40.8133 107.159 40.8133 99.0224Z" fill="white"/>
<path d="M287.224 112.105C275.14 102.227 272.671 83.5173 281.734 70.3283C290.779 57.1251 307.915 54.4364 320.008 64.3173C332.101 74.1955 334.552 92.9011 325.507 106.1C316.462 119.295 299.317 121.982 287.224 112.105Z" fill="#7EB3FF"/>
<path d="M300.031 92.8216C296.283 92.8216 293.253 89.5069 293.253 85.42C293.253 81.3359 296.283 78.0185 300.031 78.0185C303.77 78.0185 306.808 81.3359 306.808 85.42C306.808 89.5069 303.77 92.8216 300.031 92.8216ZM300.031 73.8702C294.199 73.8702 289.453 79.0525 289.453 85.42C289.453 91.7865 294.199 96.9678 300.031 96.9678C305.863 96.9678 310.608 91.7865 310.608 85.42C310.608 79.0525 305.863 73.8702 300.031 73.8702Z" fill="white"/>
<path d="M314.178 103.529C313.89 103.529 313.592 103.405 313.373 103.15L305.291 93.8196C304.862 93.3351 304.879 92.5695 305.334 92.1107C305.772 91.65 306.481 91.6702 306.902 92.1566L314.984 101.491C315.404 101.974 315.387 102.739 314.94 103.198C314.73 103.421 314.45 103.529 314.178 103.529Z" fill="white"/>
<path d="M314.101 104.887C313.488 104.887 312.875 104.623 312.429 104.099L307.367 98.2683C306.492 97.2571 306.536 95.6609 307.464 94.7042C308.392 93.7512 309.854 93.7924 310.73 94.8055L315.783 100.633C316.658 101.644 316.614 103.24 315.695 104.198C315.239 104.66 314.67 104.887 314.101 104.887Z" fill="white"/>
<path d="M195.428 51.4232C186.383 64.6112 169.238 67.3046 157.154 57.417C145.061 47.5445 142.592 28.8407 151.655 15.6394C160.7 2.44002 177.828 -0.243958 189.928 9.63323C202.013 19.5103 204.482 38.216 195.428 51.4232Z" fill="#9FC400"/>
<path d="M165.887 36.7779L165.712 36.7282H165.563C165.362 36.7282 164.958 36.7282 162.858 37.9421L163.576 35.7284L162.945 35.2583C160.975 33.8025 159.897 31.848 159.897 29.7605C159.897 25.5647 164.259 22.1515 169.626 22.1515C172.542 22.1515 175.16 23.1675 176.947 24.7638C177.385 24.7197 177.84 24.691 178.294 24.691C178.758 24.691 179.223 24.7236 179.679 24.7675C177.629 21.9116 173.9 19.9866 169.626 19.9866C163.164 19.9866 157.91 24.3699 157.91 29.7605C157.91 32.3039 159.101 34.7394 161.203 36.5505L159.206 42.6733L161.544 41.2138C163.059 40.2617 164.924 39.1769 165.546 38.9237C166.413 39.1952 167.323 39.3662 168.242 39.4561C167.717 38.7201 167.306 37.9229 167.017 37.0809C166.632 36.995 166.254 36.9012 165.887 36.7779Z" fill="white"/>
<path d="M184.059 32.859H172.999V31.7301H184.059V32.859ZM184.059 35.1202H172.999V33.9895H184.059V35.1202ZM184.059 37.3864H172.999V36.2539H184.059V37.3864ZM189.023 34.586C189.023 29.7917 184.233 25.9026 178.305 25.9026C172.385 25.9026 167.578 29.7917 167.578 34.586C167.578 39.3888 172.385 43.275 178.305 43.275C179.724 43.275 181.09 43.0505 182.334 42.6451C182.745 42.5038 186.887 45.1044 186.887 45.1044L185.546 40.984C187.675 39.3965 189.023 37.1235 189.023 34.586Z" fill="white"/>
</svg>
