<svg width="350" height="343" viewBox="0 0 350 343" fill="none" xmlns="http://www.w3.org/2000/svg">
<path d="M2.85731 263.306C3.48291 262.704 4.21473 262.16 5.04583 261.704L209.924 149.5C215.862 146.253 223.176 146.256 229.115 149.507L340.211 210.375H350V220.085C350.018 222.675 348.68 225.271 345.973 226.751L141.452 338.762C133.406 343.162 123.492 343.158 115.449 338.755L5.04154 278.26C1.69519 276.428 0.0183032 273.23 0.00362404 270.029H0V260.112L2.85683 263.306H2.85731Z" fill="#B8BCFC"/>
<path d="M120.137 340.237C118.47 339.715 116.843 339.034 115.29 338.181L5.03458 277.764C1.69285 275.934 0.0182779 272.741 0.00361904 269.544H0V259.641L2.85289 262.83C3.47762 262.229 4.20843 261.686 5.03838 261.23L17.1934 254.586L120.137 308.101V340.237Z" fill="#C9DAFC"/>
<path d="M135.355 341.137C132.736 341.816 130.039 342.117 127.346 342.051V325.658H135.355V341.137Z" fill="#C9DAFC"/>
<path d="M5.04645 251.682L209.921 139.477C215.86 136.231 223.174 136.233 229.113 139.483L345.972 203.509C351.345 206.449 351.341 213.791 345.969 216.727L141.45 328.74C133.404 333.139 123.491 333.135 115.448 328.729L60.2453 298.482L5.04217 268.234C-1.68358 264.552 -1.67929 255.357 5.04645 251.682Z" fill="#ECF3FA"/>
<path d="M182.808 267.586L69.835 199.853V231.642L182.808 299.323V267.586Z" fill="#B8BCFC"/>
<path d="M178.774 134.576L69.835 199.838L182.808 267.572L291.792 202.28L178.774 134.576Z" fill="white"/>
<path d="M291.805 202.255L182.821 267.547V299.284L291.805 233.865V202.255Z" fill="#B8BCFC"/>
<path d="M182.528 193.967L93.3979 140.53V198.44L182.532 251.836L182.528 193.967Z" fill="#C9DAFC"/>
<path d="M179.35 89.0388L93.3979 140.527L182.528 193.965L268.515 142.454L179.35 89.0388Z" fill="white"/>
<path d="M268.405 142.513L182.418 194.025L182.422 251.893L268.405 200.281V142.513Z" fill="#B8BCFC"/>
<path d="M179.598 269.554L182.961 267.533V299.262L179.598 301.281V269.554Z" fill="#B8BCFC"/>
<path d="M175.313 263.041L182.834 267.551L179.471 269.572L171.945 265.061L175.313 263.041Z" fill="white"/>
<path d="M171.945 265.026L179.471 269.537V301.264L171.945 296.746V265.026Z" fill="#C9DAFC"/>
<path d="M74.0635 206.365L77.4313 204.344V236.074L74.0635 238.093V206.365Z" fill="#C9DAFC"/>
<path d="M69.9793 199.853L77.5006 204.362L74.1327 206.383L66.6113 201.873L69.9793 199.853Z" fill="white"/>
<path d="M66.6113 201.838L74.1326 206.348V238.076L66.6113 233.558V201.838Z" fill="#B8BCFC"/>
<path d="M172.292 8.86408L168.924 6.84241V108.088L172.292 110.106V8.86408Z" fill="#C9DAFC"/>
<path d="M179.813 0.366577L168.924 6.89667L172.292 8.91833L183.181 2.38641L179.813 0.366577Z" fill="white"/>
<path d="M183.237 2.35107L172.348 8.88296V110.125L183.237 89.7862V2.35107Z" fill="#B8BCFC"/>
<path d="M243.442 42.4941L246.81 40.4727V141.717L243.442 143.736V42.4941Z" fill="#B8BCFC"/>
<path d="M235.935 33.8932L246.824 40.4237L243.456 42.4452L232.567 35.913L235.935 33.8932Z" fill="white"/>
<path d="M232.567 35.9817L243.456 42.5138V143.755L232.567 137.217V35.9817Z" fill="#C9DAFC"/>
<path d="M187.252 8.86305L190.62 6.84241V108.087L187.252 110.106V8.86305Z" fill="#B8BCFC"/>
<path d="M183.167 2.35107L190.689 6.8607L187.321 8.88135L179.8 4.3713L183.167 2.35107Z" fill="white"/>
<path d="M179.8 4.43921L187.321 8.94923V110.192L179.8 105.674V4.43921Z" fill="#C9DAFC"/>
<path d="M118.317 41.2407L114.949 39.219V140.465L118.317 142.483V41.2407Z" fill="#C9DAFC"/>
<path d="M125.838 32.6394L114.949 39.1695L118.317 41.1912L129.206 34.6592L125.838 32.6394Z" fill="white"/>
<path d="M129.261 34.6241L118.372 41.156V142.398L129.261 135.86V34.6241Z" fill="#B8BCFC"/>
<path d="M181.993 75.3086L121.796 39.219V140.494L181.993 176.556V75.3086Z" fill="#5F5363"/>
<path d="M179.843 4.43921L121.796 39.212L181.993 75.3022L240.062 40.5132L179.843 4.43921Z" fill="#2563EB"/>
<path d="M240.084 40.4727L182.015 75.2617V176.509L240.084 141.652V40.4727Z" fill="#5F5363"/>
<path d="M125.825 45.7311L129.188 43.7101V144.955L125.825 146.973V45.7311Z" fill="#B8BCFC"/>
<path d="M121.74 39.219L129.261 43.7283L125.898 45.7493L118.372 41.2394L121.74 39.219Z" fill="white"/>
<path d="M118.372 41.2039L125.898 45.7139V146.956L118.372 142.439V41.2039Z" fill="#C9DAFC"/>
<path d="M171.139 72.7828L174.507 70.7611V80.929L171.139 82.9474V72.7828Z" fill="#B8BCFC"/>
<path d="M129.192 43.7101L174.338 70.7812L170.97 72.8029L125.825 45.7299L129.192 43.7101Z" fill="white"/>
<path d="M125.825 45.6947L170.97 72.7677V82.932L125.825 55.8531V45.6947Z" fill="#C9DAFC"/>
<path d="M235.93 46.9854L232.567 44.9637V146.209L235.935 148.227L235.93 46.9854Z" fill="#C9DAFC"/>
<path d="M240.088 40.4727L232.567 44.9782L235.93 46.9999L243.456 42.4925L240.088 40.4727Z" fill="white"/>
<path d="M243.316 42.4574L235.791 46.9648L235.795 148.207L243.316 143.693V42.4574Z" fill="#B8BCFC"/>
<path d="M178.591 77.2736L181.955 75.2523V176.497L178.591 178.516V77.2736Z" fill="#B8BCFC"/>
<path d="M174.507 70.7611L182.028 75.2712L178.665 77.2928L171.139 72.7813L174.507 70.7611Z" fill="white"/>
<path d="M171.139 72.746L178.665 77.2566V178.499L171.139 173.981V72.746Z" fill="#C9DAFC"/>
<path d="M192.831 72.7822L189.467 70.7611V80.9288L192.831 82.9474V72.7822Z" fill="#B8BCFC"/>
<path d="M232.494 44.9637L189.467 70.7408L192.831 72.7618L235.862 46.9842L232.494 44.9637Z" fill="white"/>
<path d="M235.922 46.9486L192.891 72.7264V82.8914L235.922 57.1064V46.9486Z" fill="#B8BCFC"/>
<path d="M181.955 79.2587L178.591 77.2374V178.482L181.955 180.501V79.2587Z" fill="#C9DAFC"/>
<path d="M189.48 70.7611L178.591 77.2918L181.955 79.3131L192.848 72.781L189.48 70.7611Z" fill="white"/>
<path d="M192.908 72.746L182.015 79.2778V180.52L192.908 173.981V72.746Z" fill="#B8BCFC"/>
<path d="M130.659 39.2139L179.843 9.75146L231.194 40.5132L181.993 69.9894L130.659 39.2139ZM179.843 4.43921L121.796 39.212L181.993 75.3022L240.062 40.5132L179.843 4.43921Z" fill="white"/>
<path d="M130.658 39.1248L179.842 9.66223V13.0965L133.496 40.8243L130.658 39.1248Z" fill="#B8BCFC"/>
<path d="M231.151 40.4241L179.8 9.66223V13.0965L228.317 42.1238L231.151 40.4241Z" fill="#C9DAFC"/>
<path d="M185.843 200.021V249.786L193.39 245.231V195.467L185.843 200.021Z" fill="#5F5363"/>
<path d="M185.843 247.983V249.791L193.39 245.237L191.912 244.346L185.843 247.983Z" fill="#ECF3FA"/>
<path d="M193.564 195.467V245.233L192.085 244.342V196.357L193.564 195.467Z" fill="#C9DAFC"/>
<path d="M196.114 193.858V243.624L203.661 239.069V189.304L196.114 193.858Z" fill="#5F5363"/>
<path d="M196.114 241.822V243.629L203.661 239.075L202.187 238.184L196.114 241.822Z" fill="#ECF3FA"/>
<path d="M203.63 189.304V239.07L202.156 238.179V190.195L203.63 189.304Z" fill="#C9DAFC"/>
<path d="M206.385 187.697V237.462L213.933 232.907V183.142L206.385 187.697Z" fill="#5F5363"/>
<path d="M206.385 235.659V237.466L213.933 232.913L212.458 232.022L206.385 235.659Z" fill="#ECF3FA"/>
<path d="M213.902 183.142V232.909L212.428 232.018V184.033L213.902 183.142Z" fill="#C9DAFC"/>
<path d="M216.656 181.534V231.3L224.2 226.744V176.98L216.656 181.534Z" fill="#5F5363"/>
<path d="M216.656 229.497V231.304L224.2 226.75L222.725 225.86L216.656 229.497Z" fill="#ECF3FA"/>
<path d="M224.173 176.98V226.746L222.699 225.856V177.871L224.173 176.98Z" fill="#C9DAFC"/>
<path d="M226.928 175.372V225.137L234.475 220.582V170.818L226.928 175.372Z" fill="#5F5363"/>
<path d="M226.928 223.335V225.142L234.475 220.589L232.997 219.698L226.928 223.335Z" fill="#ECF3FA"/>
<path d="M234.449 170.818V220.584L232.971 219.693V171.708L234.449 170.818Z" fill="#C9DAFC"/>
<path d="M237.199 169.21V218.975L244.747 214.42V164.656L237.199 169.21Z" fill="#5F5363"/>
<path d="M237.199 217.173V218.981L244.747 214.426L243.273 213.535L237.199 217.173Z" fill="#ECF3FA"/>
<path d="M244.715 164.656V214.421L243.241 213.53V165.546L244.715 164.656Z" fill="#C9DAFC"/>
<path d="M247.471 163.048V212.813L255.018 208.258V158.494L247.471 163.048Z" fill="#5F5363"/>
<path d="M247.471 211.011V212.819L255.018 208.264L253.544 207.373L247.471 211.011Z" fill="#ECF3FA"/>
<path d="M254.987 158.494V208.26L253.513 207.369V159.384L254.987 158.494Z" fill="#C9DAFC"/>
<path d="M257.742 156.886V206.651L265.286 202.096V152.332L257.742 156.886Z" fill="#5F5363"/>
<path d="M257.742 204.848V206.655L265.286 202.101L263.811 201.211L257.742 204.848Z" fill="#ECF3FA"/>
<path d="M265.259 152.332V202.098L263.785 201.207V153.222L265.259 152.332Z" fill="#C9DAFC"/>
<path d="M177.277 198.977V248.742L169.729 244.187V194.423L177.277 198.977Z" fill="#5F5363"/>
<path d="M177.277 246.94V248.747L169.729 244.193L171.204 243.302L177.277 246.94Z" fill="#ECF3FA"/>
<path d="M169.729 194.423V244.189L171.204 243.298V195.314L169.729 194.423Z" fill="#B8BCFC"/>
<path d="M167.006 192.815V242.58L159.458 238.025V188.26L167.006 192.815Z" fill="#5F5363"/>
<path d="M167.006 240.778V242.585L159.458 238.031L160.932 237.14L167.006 240.778Z" fill="#ECF3FA"/>
<path d="M159.458 188.26V238.027L160.932 237.136V189.151L159.458 188.26Z" fill="#B8BCFC"/>
<path d="M156.73 186.652V236.418L149.187 231.862V182.098L156.73 186.652Z" fill="#5F5363"/>
<path d="M156.73 234.615V236.423L149.187 231.869L150.661 230.978L156.73 234.615Z" fill="#ECF3FA"/>
<path d="M149.187 182.098V231.864L150.661 230.973V182.988L149.187 182.098Z" fill="#B8BCFC"/>
<path d="M146.463 180.49V230.255L138.915 225.7V175.936L146.463 180.49Z" fill="#5F5363"/>
<path d="M146.463 228.453V230.26L138.915 225.706L140.389 224.815L146.463 228.453Z" fill="#ECF3FA"/>
<path d="M138.915 175.936V225.702L140.389 224.811V176.826L138.915 175.936Z" fill="#B8BCFC"/>
<path d="M136.191 174.329V224.094L128.644 219.538V169.774L136.191 174.329Z" fill="#5F5363"/>
<path d="M136.191 222.291V224.098L128.644 219.544L130.118 218.653L136.191 222.291Z" fill="#ECF3FA"/>
<path d="M128.644 169.774V219.54L130.118 218.65V170.664L128.644 169.774Z" fill="#B8BCFC"/>
<path d="M125.915 168.269V218.035L118.372 213.48V163.715L125.915 168.269Z" fill="#5F5363"/>
<path d="M125.915 216.129V217.937L118.372 213.383L119.846 212.491L125.915 216.129Z" fill="#ECF3FA"/>
<path d="M118.372 163.715V213.481L119.846 212.591V164.606L118.372 163.715Z" fill="#B8BCFC"/>
<path d="M115.648 162.108V211.873L108.101 207.318V157.554L115.648 162.108Z" fill="#5F5363"/>
<path d="M115.648 210.071V211.878L108.101 207.324L109.579 206.433L115.648 210.071Z" fill="#ECF3FA"/>
<path d="M108.101 157.554V207.32L109.579 206.429V158.444L108.101 157.554Z" fill="#B8BCFC"/>
<path d="M105.377 155.946V205.711L97.8296 201.156V151.391L105.377 155.946Z" fill="#5F5363"/>
<path d="M105.377 203.909V205.716L97.8296 201.161L99.3082 200.271L105.377 203.909Z" fill="#ECF3FA"/>
<path d="M97.8296 151.391V201.157L99.3082 200.266V152.282L97.8296 151.391Z" fill="#B8BCFC"/>
<path d="M169.505 288.908L148.402 276.305L146.368 277.528L169.505 291.371V288.908Z" fill="#ECF3FA"/>
<path d="M148.582 276.313V251.761L169.685 264.259V288.916L148.582 276.313Z" fill="#5F5363"/>
<path d="M146.368 250.508V277.502L148.402 276.279V251.727L146.368 250.508Z" fill="#C9DAFC"/>
<path d="M152.41 254.06V279.4L153.064 279.007V254.445L152.41 254.06Z" fill="#B8BCFC"/>
<path d="M152.502 279.391L151.805 278.975V253.642L152.502 254.06V279.391Z" fill="#C9DAFC"/>
<path d="M165.299 261.683V287.023L165.952 286.629V262.068L165.299 261.683Z" fill="#B8BCFC"/>
<path d="M165.191 287.014L164.494 286.598V261.265L165.191 261.683V287.014Z" fill="#C9DAFC"/>
<path d="M104.854 250.054L83.7515 237.453L81.7168 238.676L104.854 252.517V250.054Z" fill="#ECF3FA"/>
<path d="M83.7314 237.462V212.909L104.834 225.407V250.062L83.7314 237.462Z" fill="#5F5363"/>
<path d="M81.7168 211.759V238.753L83.7515 237.53V212.977L81.7168 211.759Z" fill="#C9DAFC"/>
<path d="M87.7593 215.311V240.651L88.4125 240.258V215.696L87.7593 215.311Z" fill="#B8BCFC"/>
<path d="M87.8517 240.644L87.1543 240.227V214.893L87.8517 215.311V240.644Z" fill="#C9DAFC"/>
<path d="M100.448 222.831V248.171L101.101 247.778V223.215L100.448 222.831Z" fill="#B8BCFC"/>
<path d="M100.536 248.164L99.8433 247.747V222.413L100.536 222.831V248.164Z" fill="#C9DAFC"/>
<path d="M133.888 268.182L118.634 259.073L117.164 259.957L133.888 269.963V268.182Z" fill="#ECF3FA"/>
<path d="M118.774 259.03V237.349L134.029 246.384V268.14L118.774 259.03Z" fill="#5F5363"/>
<path d="M117.164 236.513V259.959L118.634 259.075V237.393L117.164 236.513Z" fill="#C9DAFC"/>
<path d="M115.688 257.295L113.397 255.939L111.927 256.824L115.688 259.075V257.295Z" fill="#ECF3FA"/>
<path d="M113.538 255.953V234.319L115.829 235.688V257.308L113.538 255.953Z" fill="#5F5363"/>
<path d="M111.927 233.483V256.882L113.397 255.998V234.364L111.927 233.483Z" fill="#C9DAFC"/>
<path d="M139.252 271.29L136.966 269.935L135.491 270.819L139.252 273.071V271.29Z" fill="#ECF3FA"/>
<path d="M136.901 269.948V248.315L139.188 249.683V271.303L136.901 269.948Z" fill="#5F5363"/>
<path d="M135.491 247.479V270.877L136.961 269.993V248.36L135.491 247.479Z" fill="#C9DAFC"/>
<path d="M121.595 239.124V261.375L122.063 261.091V239.403L121.595 239.124Z" fill="#B8BCFC"/>
<path d="M121.494 261.358L120.991 261.056V238.811L121.494 239.113V261.358Z" fill="#C9DAFC"/>
<path d="M130.859 244.555V266.807L131.331 266.522V244.834L130.859 244.555Z" fill="#B8BCFC"/>
<path d="M130.758 266.79L130.255 266.488V244.242L130.758 244.544V266.79Z" fill="#C9DAFC"/>
<path d="M185.64 290.373L191.89 286.645L193.382 287.543L185.64 292.181V290.373Z" fill="#ECF3FA"/>
<path d="M191.89 286.618V269.935L185.64 273.678V290.345L191.89 286.618Z" fill="#5F5363"/>
<path d="M193.376 268.995V287.469L191.884 286.572V269.889L193.376 268.995Z" fill="#C9DAFC"/>
<path d="M195.912 284.106L202.162 280.379L203.654 281.276L195.912 285.91V284.106Z" fill="#ECF3FA"/>
<path d="M202.162 280.355V263.668L195.912 267.412V284.082L202.162 280.355Z" fill="#5F5363"/>
<path d="M203.647 262.833V281.311L202.155 280.413V263.726L203.647 262.833Z" fill="#C9DAFC"/>
<path d="M206.385 277.944L212.63 274.217L214.122 275.113L206.385 279.753V277.944Z" fill="#ECF3FA"/>
<path d="M212.63 274.191V257.506L206.385 261.249V277.918L212.63 274.191Z" fill="#5F5363"/>
<path d="M214.12 256.67V275.145L212.628 274.249V257.563L214.12 256.67Z" fill="#C9DAFC"/>
<path d="M216.656 271.677L222.906 267.951L224.398 268.848L216.656 273.485V271.677Z" fill="#ECF3FA"/>
<path d="M222.906 268.028V251.343L216.656 255.087V271.755L222.906 268.028Z" fill="#5F5363"/>
<path d="M224.392 250.404V268.879L222.9 267.982V251.297L224.392 250.404Z" fill="#C9DAFC"/>
<path d="M227.129 265.515L233.375 261.788L234.871 262.685L227.129 267.322V265.515Z" fill="#ECF3FA"/>
<path d="M233.375 261.762V245.078L227.129 248.82V265.489L233.375 261.762Z" fill="#5F5363"/>
<path d="M234.869 244.241V262.717L233.373 261.82V245.135L234.869 244.241Z" fill="#C9DAFC"/>
<path d="M237.401 259.353L243.651 255.626L245.143 256.523L237.401 261.16V259.353Z" fill="#ECF3FA"/>
<path d="M243.651 255.6V238.915L237.401 242.658V259.327L243.651 255.6Z" fill="#5F5363"/>
<path d="M245.136 237.975V256.451L243.645 255.554V238.869L245.136 237.975Z" fill="#C9DAFC"/>
<path d="M247.673 253.086L253.923 249.36L255.415 250.257L247.673 254.893V253.086Z" fill="#ECF3FA"/>
<path d="M253.923 249.437V232.753L247.673 236.496V253.164L253.923 249.437Z" fill="#5F5363"/>
<path d="M255.408 231.813V250.288L253.917 249.391V232.707L255.408 231.813Z" fill="#C9DAFC"/>
<path d="M258.145 246.925L264.391 243.197L265.883 244.095L258.145 248.732V246.925Z" fill="#ECF3FA"/>
<path d="M264.391 243.171V226.486L258.145 230.23V246.898L264.391 243.171Z" fill="#5F5363"/>
<path d="M265.881 225.65V244.126L264.389 243.229V226.544L265.881 225.65Z" fill="#C9DAFC"/>
<path d="M268.417 240.761L274.668 237.035L276.16 237.932L268.417 242.568V240.761Z" fill="#ECF3FA"/>
<path d="M274.668 237.009V220.324L268.417 224.068V240.736L274.668 237.009Z" fill="#5F5363"/>
<path d="M276.153 219.385V237.86L274.661 236.963V220.278L276.153 219.385Z" fill="#C9DAFC"/>
<path d="M278.89 234.496L285.135 230.768L286.632 231.666L278.89 236.304V234.496Z" fill="#ECF3FA"/>
<path d="M285.135 230.742V214.058L278.89 217.801V234.469L285.135 230.742Z" fill="#5F5363"/>
<path d="M286.63 213.222V231.698L285.133 230.8V214.116L286.63 213.222Z" fill="#C9DAFC"/>
<path fill-rule="evenodd" clip-rule="evenodd" d="M214.24 157.04V113.541V70.0429L215.829 69.0906V112.588V156.086L214.24 157.04Z" fill="#514555"/>
<path d="M168.355 168.344L166.762 167.39L166.766 149.831L162.586 147.321V164.884L160.997 163.93V98.2935L156.817 95.784V161.427L155.229 160.473V73.4771L156.817 74.4302V86.9293L160.997 89.4349V76.9344L162.586 77.8871V138.467L166.766 140.972V80.3943L168.355 81.347V168.344Z" fill="#514555"/>
<path d="M151.036 157.939L149.446 156.985V137.156L145.267 134.647V154.482L143.678 153.528V80.3672L139.502 77.8581L139.498 151.024L137.909 150.069V111.581L134.06 109.27V147.745L132.471 146.79L132.475 59.795L134.06 60.7504V100.415L137.909 102.723L137.913 63.0737L139.502 64.0264V69.004L143.682 71.5094V66.5329L145.267 67.4854V125.792L149.446 128.298V69.9896L151.036 70.9423V157.939Z" fill="#514555"/>
<path d="M134.055 60.7513L132.471 59.7973V59.795L134.055 60.7481V60.7513Z" fill="#9096B0"/>
<path d="M196.924 167.404L196.92 80.4067L198.509 79.454V85.8475L202.689 83.3425V76.9467L204.278 75.994V116.264L208.458 113.758V73.4898L210.047 72.5371V159.533L208.458 160.487V122.613L204.278 125.122L204.282 162.989L202.693 163.944L202.689 141.92L198.513 144.429V166.45L196.924 167.404ZM202.689 92.1966L198.509 94.7057L198.513 135.571L202.689 133.066V92.1966Z" fill="#514555"/>
<path d="M225.92 150.154V150.153L227.51 149.198V149.199L225.92 150.154Z" fill="#B1ADB2"/>
<path d="M220.08 153.606V66.6088L221.669 65.6567V69.1922L225.849 66.6866V63.1497L227.438 62.1971V149.192L225.849 150.146V147.863L221.669 150.372V152.652L220.08 153.606ZM225.849 99.6486L221.669 102.158V141.514L225.849 139.008V99.6486ZM225.849 75.5411L221.669 78.0509V93.2995L225.849 90.7939V75.5411Z" fill="#514555"/>
<path d="M130.868 52.1336L130.859 54.6125L133.397 53.0828L133.406 50.6039L130.868 52.1336Z" fill="#257CE0"/>
<path d="M135.335 53.8954L135.278 53.9239L135.26 53.9289C134.867 54.0663 134.43 53.7265 134.099 53.5295C133.949 53.4387 133.795 53.3481 133.645 53.2569L133.397 53.1105L130.859 54.6406L131.804 55.2049L131.888 55.2552L131.897 55.2598L131.98 55.3041L131.989 55.3093L132.011 55.3204L132.064 55.346L132.078 55.3532L132.1 55.3615L132.139 55.3808L132.157 55.3886L132.175 55.3949L132.21 55.4087L132.228 55.4161L132.245 55.422L132.276 55.4325L132.294 55.4381L132.312 55.4434L132.343 55.4512L132.356 55.4553L132.378 55.4605L132.4 55.4664L132.413 55.4687L132.457 55.4769L132.462 55.4773L132.497 55.481L132.515 55.4829V55.4833L132.559 55.4847L132.568 55.4851L132.616 55.4824L132.669 55.4747L132.674 55.4738L132.722 55.4597L132.731 55.4578L132.74 55.4541L132.797 55.4256L135.335 53.8954Z" fill="#25CAE0"/>
<path d="M130.868 47.7472L130.859 49.8624L133.397 48.3323L133.406 46.2169L130.868 47.7472Z" fill="#257CE0"/>
<path d="M135.185 49.0027L135.128 49.0298L135.097 49.0403L135.022 49.0555C134.73 49.0931 134.452 48.9359 134.205 48.7892L133.397 48.306L130.859 49.8368L131.667 50.3196L131.751 50.3681L131.786 50.3884L131.822 50.4067L131.848 50.4205L131.932 50.462L131.936 50.4634L131.945 50.4681L132.007 50.4954L132.051 50.5125L132.069 50.5185L132.078 50.523L132.144 50.5445L132.17 50.5524L132.184 50.5569L132.201 50.562L132.259 50.5748L132.276 50.578L132.29 50.5807L132.311 50.584L132.365 50.5893L132.391 50.5904L132.413 50.5912L132.466 50.5889L132.47 50.5881L132.484 50.5862L132.519 50.5807L132.559 50.571L132.581 50.5643L132.59 50.5606L132.643 50.5335L135.185 49.0027Z" fill="#25CAE0"/>
<path d="M134.082 52.7607L136.62 51.2303V51.3111L134.082 52.8414V52.7607Z" fill="#53A396"/>
<path d="M138.359 55.1197C138.372 53.7551 137.785 52.4879 136.84 51.5462C136.787 51.4937 136.734 51.4409 136.677 51.3888L136.62 51.3344L134.082 52.8642C134.157 52.9343 134.232 53.0053 134.302 53.0761C134.364 53.1402 134.426 53.2049 134.488 53.2697L134.523 53.3106C134.58 53.3728 134.638 53.4355 134.691 53.4983L134.713 53.524C134.766 53.5892 134.819 53.6553 134.867 53.7217L134.885 53.7418C134.924 53.798 134.964 53.8543 135.004 53.9112L135.044 53.9726C135.088 54.0358 135.128 54.0989 135.167 54.1625L135.185 54.1964C135.22 54.2582 135.255 54.3204 135.291 54.3832L135.304 54.4087C135.344 54.483 135.379 54.5575 135.41 54.6323C135.445 54.7068 135.476 54.7818 135.503 54.8579L135.511 54.8717C135.538 54.9466 135.565 55.0232 135.591 55.1L135.595 55.1138C135.618 55.1883 135.64 55.263 135.657 55.339L135.666 55.3639C135.684 55.438 135.701 55.5121 135.719 55.5871L135.724 55.6137C135.737 55.6901 135.75 55.7671 135.763 55.8453V55.8636C135.776 55.9381 135.785 56.0137 135.794 56.0897V56.116C135.803 56.1919 135.807 56.2683 135.812 56.3447L135.816 56.4012C135.816 56.4798 135.821 56.5595 135.821 56.6395L135.816 56.7178V56.8118L135.812 56.8919L135.807 56.9705L135.799 57.0498L135.794 57.1217L135.781 57.1931L135.772 57.2658L135.759 57.3249L135.746 57.405L135.732 57.4541L135.71 57.5395L135.697 57.5849L135.67 57.6727L135.653 57.7163L135.613 57.8134L135.595 57.8596L135.578 57.8949L135.543 57.9561L135.525 57.9887L135.503 58.0245L135.441 58.1164L135.419 58.1433L135.331 58.2441L135.313 58.2616L135.229 58.3357L135.203 58.3581L135.092 58.4341C135.587 58.1355 136.081 57.8368 136.575 57.5378C137.224 57.1492 137.983 56.8488 138.231 56.0546C138.301 55.8293 138.337 55.5918 138.35 55.3559C138.354 55.2768 138.359 55.198 138.359 55.1197Z" fill="#257CE0"/>
<path d="M128.241 43.6744L130.779 42.1439L134.235 44.2133L131.697 45.7435L128.241 43.6744Z" fill="#25CAE0"/>
<path d="M131.864 55.2163L130.919 54.6523L130.928 52.1738L131.815 52.7058C132.239 52.9594 132.561 53.2587 132.786 53.6027C133.007 53.9464 133.122 54.3145 133.118 54.7077C133.118 55.5467 132.698 55.7167 131.864 55.2163ZM130.942 47.7259L131.692 48.1758C132.53 48.6791 132.95 49.2618 132.95 49.9238C132.95 50.2954 132.844 50.512 132.632 50.5747C132.42 50.6375 132.124 50.5531 131.74 50.3233L130.933 49.8408L130.942 47.7259ZM135.466 54.6176C135.192 54.0008 134.746 53.4107 134.137 52.8495V52.7688C134.601 52.9128 134.976 52.8358 135.263 52.5376C135.55 52.2401 135.691 51.7598 135.695 51.0985C135.695 50.0917 135.373 49.1556 134.72 48.2885C134.071 47.4214 133.074 46.5845 131.727 45.7788L128.271 43.7101L128.24 55.5124L132.094 57.8208C133.259 58.5185 134.177 58.7616 134.857 58.5491C135.532 58.3372 135.872 57.6957 135.876 56.6249C135.876 55.9034 135.739 55.2342 135.466 54.6176Z" fill="#259DE0"/>
<path d="M138.175 49.5614C138.193 48.5002 137.751 47.4555 137.103 46.6242C136.37 45.6798 135.386 44.9606 134.388 44.3452L134.326 44.3078C134.286 44.2826 134.242 44.2579 134.203 44.2327L131.665 45.7626C131.727 45.8002 131.788 45.8377 131.85 45.8753C131.89 45.9014 131.934 45.9275 131.974 45.9536C132.013 45.9782 132.053 46.0034 132.093 46.0281C132.133 46.0541 132.172 46.0804 132.212 46.1069C132.252 46.133 132.296 46.1595 132.336 46.186L132.428 46.2488C132.468 46.2771 132.512 46.3055 132.552 46.334L132.64 46.3962C132.684 46.4287 132.733 46.4613 132.777 46.4938L132.839 46.5377C132.901 46.5853 132.967 46.633 133.029 46.681L133.042 46.6892C133.099 46.7332 133.152 46.7771 133.21 46.8215L133.262 46.8642L133.36 46.9432C133.426 46.9987 133.492 47.0537 133.554 47.1095L133.594 47.142C133.664 47.203 133.73 47.2638 133.797 47.3247L133.854 47.3804C133.894 47.4198 133.938 47.4588 133.977 47.4982L134.048 47.5709L134.136 47.6602L134.211 47.7418L134.278 47.8144L134.362 47.9075L134.41 47.9641C134.445 48.0068 134.481 48.0483 134.516 48.091L134.534 48.1126C134.578 48.1655 134.618 48.2187 134.657 48.2723C134.693 48.3167 134.723 48.3621 134.754 48.4068C134.785 48.4485 134.812 48.4902 134.843 48.5318L134.882 48.59L134.909 48.6366L134.975 48.7448L135.01 48.8015L135.063 48.8945L135.107 48.9819L135.161 49.0836L135.178 49.1183C135.205 49.1674 135.227 49.2166 135.249 49.2657L135.258 49.2904C135.28 49.3407 135.302 49.3912 135.324 49.4419L135.328 49.463C135.35 49.5148 135.368 49.5673 135.39 49.6201L135.394 49.6361C135.412 49.6864 135.425 49.7367 135.443 49.7877L135.447 49.8068C135.465 49.8585 135.478 49.9102 135.492 49.962L135.5 49.9977C135.513 50.0509 135.527 50.1045 135.536 50.1579L135.54 50.1638C135.549 50.2155 135.558 50.2673 135.567 50.3191L135.575 50.3599C135.584 50.4139 135.593 50.4679 135.597 50.5231C135.606 50.5778 135.611 50.6322 135.615 50.6872L135.619 50.7367C135.619 50.7777 135.624 50.819 135.624 50.8603L135.628 50.9118C135.628 50.9683 135.633 51.025 135.633 51.0822V51.1114L135.628 51.2268L135.624 51.2726L135.619 51.3615V51.4073L135.606 51.496V51.5323L135.589 51.6518L135.584 51.666L135.567 51.7674L135.558 51.8019L135.536 51.8857L135.527 51.9178L135.492 52.0303L135.487 52.0403L135.443 52.1516L135.43 52.1773L135.412 52.2167L135.394 52.2532L135.372 52.2904L135.355 52.3224L135.288 52.4167L135.275 52.4346L135.2 52.5214L135.099 52.6151L134.988 52.6908L137.526 51.1615C137.955 50.9036 138.113 50.3433 138.162 49.8626C138.171 49.7624 138.175 49.6616 138.175 49.5614Z" fill="#25CAE0"/>
<path d="M139.826 60.2805L139.318 62.1926L141.856 60.6625L142.364 58.7504L139.826 60.2805Z" fill="#257CE0"/>
<path d="M140.526 57.9835L143.064 56.4529L145.174 57.7148L142.636 59.2455L140.526 57.9835Z" fill="#25CAE0"/>
<path d="M141.576 53.5955C141.537 53.845 141.457 54.2497 141.334 54.8078L141.316 54.8837L141.307 54.9365L141.289 55.0018L141.276 55.0605L141.263 55.1305L141.245 55.1968L141.228 55.2724L141.21 55.3438L141.192 55.4284L141.17 55.5032L141.148 55.5974L141.13 55.6738L141.108 55.7728L141.086 55.8602L141.06 55.9545L141.038 56.0571L141.011 56.1604L140.985 56.2621L140.954 56.3803L140.932 56.4824C140.919 56.5226 140.91 56.5647 140.897 56.606L140.87 56.7144L140.839 56.8349C140.83 56.8766 140.821 56.9172 140.808 56.9597C140.799 57.001 140.786 57.0435 140.778 57.0856C140.764 57.1283 140.755 57.1704 140.742 57.2143C140.729 57.2675 140.716 57.3227 140.702 57.3778L140.676 57.4802C140.654 57.5605 140.632 57.6428 140.614 57.7256L140.605 57.7591C140.579 57.8547 140.552 57.9527 140.526 58.0529L143.064 56.523C143.09 56.4228 143.117 56.3249 143.143 56.2292L143.152 56.1957C143.501 54.848 143.867 53.4953 144.106 52.1211L144.114 52.0657L141.576 53.5955Z" fill="#257CE0"/>
<path d="M142.259 49.0366L139.721 50.5663L143.291 52.7042L145.829 51.1744L142.259 49.0366Z" fill="#25CAE0"/>
<path d="M145.884 51.1259L143.346 52.6554L146.585 66.4658L149.123 64.9357L145.884 51.1259Z" fill="#257CE0"/>
<path d="M140.506 57.9817C140.925 56.3762 141.195 55.2946 141.314 54.7365C141.437 54.1784 141.517 53.7737 141.556 53.5242C141.601 53.8474 141.693 54.3932 141.835 55.1613C141.976 55.9304 142.095 56.5598 142.192 57.0493L142.616 59.243L140.506 57.9817ZM143.331 52.637L139.76 50.4995L136.498 60.4159L139.438 62.1761L139.945 60.2643L143.163 62.1911L143.644 64.6949L146.571 66.4474L143.331 52.637Z" fill="#259DE0"/>
<path d="M152.449 61.718V61.5051C152.449 61.4612 152.449 61.4168 152.444 61.371V61.3216C152.444 61.2602 152.444 61.1975 152.44 61.1325V61.1082C152.44 61.0505 152.44 60.991 152.436 60.9302V60.8651C152.431 60.8144 152.431 60.7627 152.431 60.7105L152.427 60.6487C152.427 60.5768 152.422 60.5025 152.418 60.4266V60.3937C152.413 60.3274 152.413 60.2594 152.409 60.1904L152.405 60.1145C152.405 60.0549 152.4 59.9939 152.4 59.9321L152.396 59.859C152.391 59.7734 152.387 59.6868 152.383 59.5977V59.5839C152.378 59.4991 152.374 59.4126 152.369 59.3244L152.361 59.2406C152.361 59.171 152.356 59.1008 152.352 59.0289L152.347 58.9451C152.343 58.8472 152.334 58.7478 152.329 58.6458L149.792 60.1756C149.796 60.2779 149.8 60.3773 149.809 60.4752L149.814 60.559C149.818 60.6304 149.823 60.7008 149.823 60.7705L149.827 60.8542C149.836 60.9425 149.84 61.029 149.845 61.1142V61.1275C149.849 61.2168 149.853 61.3033 149.858 61.3889V61.4622C149.862 61.5244 149.867 61.5852 149.867 61.6458L149.871 61.7189C149.875 61.7891 149.875 61.8577 149.88 61.9246V61.9566C149.884 62.0326 149.889 62.1067 149.889 62.179L149.893 62.2389C149.893 62.2925 149.893 62.3451 149.898 62.3964V62.4592C149.902 62.5204 149.902 62.5806 149.902 62.6387V62.6625C149.906 62.727 149.906 62.7896 149.906 62.8506V62.9017C149.911 62.9471 149.911 62.9916 149.911 63.0346V63.2479L149.898 68.5679L152.436 67.038L152.449 61.718Z" fill="#257CE0"/>
<path d="M154.625 67.8004L157.163 66.2699L157.203 66.2941L154.665 67.8242L154.625 67.8004Z" fill="#5CB6A7"/>
<path d="M147.576 55.2672L150.114 53.7374L153.609 55.8309L151.071 57.3611L147.576 55.2672Z" fill="#25CAE0"/>
<path d="M151.2 57.4598L153.738 55.9299L157.318 66.2898L154.78 67.8197L151.2 57.4598Z" fill="#257CE0"/>
<path d="M157.073 61.0105L159.611 59.4811L159.58 71.2831L157.042 72.8131L157.073 61.0105Z" fill="#257CE0"/>
<path d="M154.625 59.5489L157.163 58.0192L159.546 59.4473L157.008 60.9771L154.625 59.5489Z" fill="#25CAE0"/>
<path d="M154.656 59.5222L154.642 64.8583C154.638 65.5796 154.669 66.5539 154.726 67.7807L154.687 67.7569L151.107 57.3971L147.611 55.3036L147.576 67.1064L149.951 68.5261L149.964 63.206C149.964 62.5172 149.924 61.4934 149.844 60.1337L149.902 60.1705L153.499 70.6516L157.008 72.7529L157.039 60.9501L154.656 59.5222Z" fill="#259DE0"/>
<path d="M161.884 71.6652L161.875 75.6135L164.413 74.0834L164.422 70.135L161.884 71.6652Z" fill="#257CE0"/>
<path d="M167.032 69.1949L164.494 70.7248L167.549 79.0773L170.087 77.5478L167.032 69.1949Z" fill="#25CAE0"/>
<path d="M159.256 62.2655L161.794 60.7346L164.482 62.3456L161.944 63.8759L159.256 62.2655Z" fill="#25CAE0"/>
<path d="M161.888 63.8312L164.426 62.3013L164.413 67.4271L161.875 68.9572L161.888 63.8312Z" fill="#257CE0"/>
<path d="M167.632 67.3823L164.494 70.8002L167.032 69.27L170.17 65.8519L167.632 67.3823Z" fill="#257CE0"/>
<path d="M164.695 65.6067L167.233 64.0769L170.16 65.8291L167.622 67.3595L164.695 65.6067Z" fill="#25CAE0"/>
<path d="M167.601 67.2958L164.675 65.5433L162.587 67.9147C162.172 68.3578 161.899 68.697 161.762 68.9333L161.775 63.8073L159.087 62.1973L159.056 73.9996L161.744 75.6098L161.753 71.6621L162.548 71.572L164.494 77.2569L167.518 79.0657L164.463 70.7131L167.601 67.2958Z" fill="#259DE0"/>
</svg>
