<svg width="214" height="278" viewBox="0 0 214 278" fill="none" xmlns="http://www.w3.org/2000/svg">
<path d="M0 23.0958L151.622 79.2794V207.582L0 151.402V23.0958Z" fill="#ABBADF"/>
<path fill-rule="evenodd" clip-rule="evenodd" d="M14.0239 60.7139V146.331L136.818 191.722V106.101L14.0239 60.7139Z" fill="url(#paint0_linear_592_1758)"/>
<path fill-rule="evenodd" clip-rule="evenodd" d="M14.0239 38.1697V55.3066C14.0239 56.3216 14.8636 57.2545 16.2215 57.7584L130.329 99.9289C133.229 101 136.836 99.6415 136.836 97.4771V80.3401C136.836 79.3287 135.996 78.3921 134.638 77.8883L20.5303 35.7177C17.6252 34.6468 14.0239 36.0015 14.0239 38.1697Z" fill="url(#paint1_linear_592_1758)"/>
<path d="M48.1865 60.1048L45.4654 53.8985L42.7963 58.082L48.1865 60.1048ZM39.9598 62.4931L34.5234 60.4592L42.7098 48.991L47.939 50.9504L56.3152 68.6209L51.086 66.6616L49.7224 63.5791L41.2889 60.4182L39.9598 62.4931Z" fill="white"/>
<path d="M77.7666 61.7663V64.8935L71.352 62.6059V74.0068L66.2609 72.0999V60.6952L60.416 58.5084V55.3773L77.7666 61.7663Z" fill="white"/>
<path d="M105.098 71.9967V86.5326L100.565 84.8346V75.628L96.0318 81.6812L92.6894 80.4308L88.1447 70.978L88.1275 80.1772L83.6113 78.4829V63.9509L89.1802 66.037L94.3578 76.4564L99.5353 69.9144L105.098 71.9967Z" fill="white"/>
<path fill-rule="evenodd" clip-rule="evenodd" d="M14.0239 146.34L136.818 191.731V170.639L37.7774 134.2L14.0239 146.34Z" fill="url(#paint2_linear_592_1758)"/>
<path d="M136.801 106.089V170.625L37.7603 134.183L57.8088 76.8983L136.801 106.089Z" fill="#8196CD"/>
<path fill-rule="evenodd" clip-rule="evenodd" d="M133.564 107.44L62.252 80.8351L46.3916 126.256L117.669 152.853L133.564 107.44Z" fill="url(#paint3_linear_592_1758)"/>
<path fill-rule="evenodd" clip-rule="evenodd" d="M129.954 112.532L71.747 90.8083L58.7974 127.892L116.976 149.601L129.954 112.532Z" fill="url(#paint4_linear_592_1758)"/>
<path fill-rule="evenodd" clip-rule="evenodd" d="M108.002 151.044L105.442 156.985L56.6406 138.957L59.3502 132.713L108.002 151.044Z" fill="url(#paint5_linear_592_1758)"/>
<path d="M107.387 152.401L105.385 156.969L60.9556 140.422L63.0899 135.6L107.387 152.401Z" fill="#31469D"/>
<path fill-rule="evenodd" clip-rule="evenodd" d="M106.155 155.315L105.419 156.95L56.6406 138.91L57.3537 137.35L106.155 155.315Z" fill="url(#paint6_linear_592_1758)"/>
<path fill-rule="evenodd" clip-rule="evenodd" d="M125.688 134.549L134.784 137.886L136.251 133.684L127.161 130.351L125.688 134.549Z" fill="url(#paint7_linear_592_1758)"/>
<path fill-rule="evenodd" clip-rule="evenodd" d="M121.373 146.276L130.462 149.609L131.935 145.41L122.846 142.074L121.373 146.276Z" fill="url(#paint8_linear_592_1758)"/>
<path fill-rule="evenodd" clip-rule="evenodd" d="M136.798 120.152L130.93 117.928L129.463 122.13L136.798 124.907V120.152Z" fill="url(#paint9_linear_592_1758)"/>
<path d="M51.7875 159.103L86.8743 172.303C87.6739 172.601 88.6749 172.545 89.3824 172.157L106.733 162.6C107.878 161.969 107.717 160.79 106.416 160.301L71.7386 147.25C70.9503 146.956 69.9725 147.008 69.2647 147.381L51.5115 156.786C50.3265 157.412 50.476 158.607 51.7875 159.103Z" fill="#ABBADF"/>
<path fill-rule="evenodd" clip-rule="evenodd" d="M93.9312 161.937L98.5335 163.665L99.1376 163.635L102.837 161.698L102.767 161.127L98.1654 159.396L97.5613 159.426L93.8623 161.362L93.9312 161.937Z" fill="url(#paint10_linear_592_1758)"/>
<path fill-rule="evenodd" clip-rule="evenodd" d="M86.3784 159.221L90.9807 160.953L91.5904 160.923L95.2781 158.986L95.2145 158.419L90.6125 156.684L90.0028 156.717L86.3091 158.65L86.3784 159.221Z" fill="url(#paint11_linear_592_1758)"/>
<path fill-rule="evenodd" clip-rule="evenodd" d="M79.3661 156.418L83.9685 158.146L84.5725 158.116L88.2715 156.183L88.2023 155.609L83.5943 153.884L82.9962 153.91L79.2969 155.847L79.3661 156.418Z" fill="url(#paint12_linear_592_1758)"/>
<path fill-rule="evenodd" clip-rule="evenodd" d="M87.9962 164.992L92.5988 166.723L93.2025 166.693L96.8959 164.76L96.827 164.189L92.2247 162.458L91.6206 162.488L87.9272 164.421L87.9962 164.992Z" fill="url(#paint13_linear_592_1758)"/>
<path fill-rule="evenodd" clip-rule="evenodd" d="M80.9838 162.196L85.5801 163.927L86.1899 163.898L89.8832 161.964L89.8199 161.39L85.2176 159.658L84.6079 159.688L80.9146 161.625L80.9838 162.196Z" fill="url(#paint14_linear_592_1758)"/>
<path fill-rule="evenodd" clip-rule="evenodd" d="M73.4316 159.484L78.0335 161.219L78.6376 161.186L82.3309 159.249L82.262 158.678L77.6597 156.946L77.0557 156.98L73.3623 158.909L73.4316 159.484Z" fill="url(#paint15_linear_592_1758)"/>
<path fill-rule="evenodd" clip-rule="evenodd" d="M82.0624 168.057L86.6644 169.789L87.2685 169.759L90.9619 167.818L90.8926 167.251L86.2963 165.52L85.6865 165.549L81.9932 167.486L82.0624 168.057Z" fill="url(#paint16_linear_592_1758)"/>
<path fill-rule="evenodd" clip-rule="evenodd" d="M75.0489 165.258L79.6512 166.985L80.2553 166.959L83.9543 165.023L83.8854 164.452L79.2831 162.72L78.679 162.75L74.98 164.683L75.0489 165.258Z" fill="url(#paint17_linear_592_1758)"/>
<path fill-rule="evenodd" clip-rule="evenodd" d="M67.493 162.542L72.1009 164.274L72.705 164.244L76.3984 162.311L76.3295 161.736L71.7328 160.008L71.1231 160.034L67.4297 161.971L67.493 162.542Z" fill="url(#paint18_linear_592_1758)"/>
<path fill-rule="evenodd" clip-rule="evenodd" d="M65.8795 151.519L75.8088 155.258L76.4188 155.225L80.1062 153.295L80.043 152.721L70.1137 148.985L69.5036 149.015L65.8105 150.948L65.8795 151.519Z" fill="url(#paint19_linear_592_1758)"/>
<path fill-rule="evenodd" clip-rule="evenodd" d="M60.4849 154.585L70.4143 158.32L71.0183 158.291L74.7117 156.354L74.6484 155.787L64.7131 152.047L64.1091 152.081L60.416 154.01L60.4849 154.585Z" fill="url(#paint20_linear_592_1758)"/>
<path fill-rule="evenodd" clip-rule="evenodd" d="M54.5513 157.559L64.4806 161.299L65.0907 161.265L68.7897 159.332L68.7204 158.757L58.7855 155.022L58.1814 155.051L54.4824 156.992L54.5513 157.559Z" fill="url(#paint21_linear_592_1758)"/>
<path fill-rule="evenodd" clip-rule="evenodd" d="M213.959 56.1647L173.39 199.384L151.581 207.553V79.2503L213.959 56.1647Z" fill="url(#paint22_linear_592_1758)"/>
<path d="M62.3839 0L214 56.1761L151.622 79.2617L0 23.0781L62.3839 0Z" fill="#B7CEEB"/>
<path d="M74.8776 124.121C73.5144 125.845 71.679 127.23 72.9564 127.547C74.3945 127.906 78.2201 126.517 78.6227 126.778C80.5559 128.036 73.6466 129.775 70.6666 129.775C66.8467 129.775 58.4877 145.71 58.4877 145.71L49.0879 143.21C49.0879 143.21 61.1227 130.73 62.3421 127.264C62.8084 125.931 64.1487 123.991 67.5485 122.505C68.3825 122.14 72.7436 123.864 73.7042 121.352C74.527 119.195 75.9363 117.654 76.4483 117.758C77.4722 117.964 76.2296 122.393 74.8776 124.121Z" fill="#FCC7A5"/>
<path fill-rule="evenodd" clip-rule="evenodd" d="M11.3335 150.684C11.5923 155.367 18.881 155.882 29.0061 155.166C37.5378 154.553 49.285 153.105 58.8634 147.485C62.6432 145.272 52.2994 140.007 49.3483 140.536C46.3971 141.059 39.8043 142.611 29.5125 143.481C17.4316 144.504 11.0976 146.534 11.3335 150.684Z" fill="url(#paint23_linear_592_1758)"/>
<path d="M16.1094 264.352C14.8668 265.143 13.2905 269.513 14.4009 270.312C15.0567 270.778 15.954 271.054 16.8517 271.278C24.3074 273.129 35.7897 266.684 37.6941 265.613C39.443 264.632 41.2148 262.46 40.2482 261.101C39.4603 259.989 17.7374 263.322 16.1094 264.352Z" fill="white"/>
<path d="M27.0422 260.428C24.2578 261.126 16.992 263.742 15.7434 264.526C14.4146 265.362 13.3848 268.172 14.4952 268.971C15.1509 269.433 16.8482 269.859 17.7627 270.06C21.3872 270.844 31.3854 267.829 36.3502 265C38.0819 264.011 40.9986 261.712 40.0377 260.357C39.2497 259.245 32.3116 259.1 27.0422 260.428Z" fill="#F05673"/>
<path d="M24.2419 266.476C23.6607 266.476 23.1948 266.872 23.1948 267.361C23.1948 267.849 23.6607 268.249 24.2419 268.249C24.8287 268.249 25.2946 267.849 25.2946 267.361C25.2946 266.872 24.8287 266.476 24.2419 266.476Z" fill="white"/>
<path d="M16.0153 264.889C16.0153 264.889 14.0648 266.084 14.6861 269.215C14.6861 269.215 15.5205 270.122 17.9249 270.241C17.9249 270.241 17.7582 267.069 18.7997 266.102L19.3346 265.46L17.2403 263.676L16.0153 264.889Z" fill="white"/>
<path d="M16.9477 262.424C16.7231 263.238 16.5335 264.055 16.1826 264.842C16.798 264.615 17.5803 264.51 18.2245 264.771C18.869 265.033 19.1911 265.589 18.967 266.055C20.7273 266.245 22.7234 265.917 24.363 265.466C28.9825 264.189 29.7993 262.465 29.3679 261.849C28.0047 259.912 18.242 262.569 16.9477 262.424Z" fill="#FCC7A5"/>
<path d="M12.4684 224.617C11.7093 225.726 10.2075 230.854 11.0247 236.784C11.8531 242.713 14.338 262.056 14.338 262.056C23.5313 264.355 28.3749 261.436 28.3749 261.436C28.3749 261.436 31.6312 234.253 31.942 225.864C32.2525 217.467 14.5338 221.606 12.4684 224.617Z" fill="#2B337C"/>
<path d="M31.5525 183.264C24.7409 179.42 17.9583 180.047 15.761 181.13C6.64251 185.593 6.7118 196.266 7.17174 199.778C7.60317 202.987 10.9284 220.755 12.2976 225.879C14.3458 233.503 32.0124 234.048 32.0124 228.357C32.0124 222.841 43.8232 190.179 31.5525 183.264Z" fill="#2B337C"/>
<path d="M36.0643 270.738C34.8217 271.525 33.2454 275.903 34.3674 276.702C35.0115 277.164 35.9089 277.441 36.8065 277.668C44.2622 279.519 55.7446 273.067 57.6546 271.996C59.3979 271.022 61.1641 268.85 60.2035 267.488C59.4152 266.376 37.6923 269.708 36.0643 270.738Z" fill="white"/>
<path d="M46.9979 266.901C44.2194 267.606 36.9536 270.218 35.6994 271.006C34.3706 271.834 33.3407 274.64 34.4627 275.443C35.1069 275.905 36.8041 276.335 37.7187 276.529C41.3428 277.316 51.3474 274.301 56.3062 271.472C58.0436 270.487 60.9602 268.188 59.9937 266.83C59.2057 265.718 52.2732 265.576 46.9979 266.901Z" fill="#F05673"/>
<path d="M44.7405 272.862C44.1652 272.862 43.6934 273.254 43.6934 273.747C43.6934 274.232 44.1652 274.628 44.7405 274.628C45.327 274.628 45.7932 274.232 45.7932 273.747C45.7932 273.254 45.327 272.862 44.7405 272.862Z" fill="white"/>
<path d="M35.9708 271.276C35.9708 271.276 34.0207 272.474 34.6477 275.605C34.6477 275.605 35.4761 276.504 37.8867 276.627C37.8867 276.627 37.7141 273.459 38.7552 272.489L39.2904 271.85L37.2018 270.063L35.9708 271.276Z" fill="white"/>
<path d="M36.9117 268.808C36.6814 269.622 36.4915 270.439 36.1406 271.227C36.7563 270.999 37.5386 270.898 38.1888 271.159C38.8273 271.417 39.1494 271.973 38.9251 272.439C40.6856 272.63 42.6817 272.301 44.327 271.85C48.9409 270.581 49.7577 268.853 49.3263 268.233C47.9687 266.3 38.206 268.957 36.9117 268.808Z" fill="#FCC7A5"/>
<path d="M31.1007 230.654C30.3299 231.767 29.8004 237.823 30.6232 243.753C31.446 249.687 34.0518 270.045 34.0518 270.045C43.2508 272.347 48.037 267.869 48.037 267.869C48.037 267.869 51.2241 241.219 51.5349 232.83C51.8454 224.437 33.1601 227.646 31.1007 230.654Z" fill="#35429B"/>
<path d="M49.4333 187.95C42.4667 184.225 34.0732 187.319 31.87 188.401C22.7631 192.865 24.1784 198.78 24.6327 202.284C25.0641 205.504 30.2705 227.664 31.6397 232.792C33.6879 240.416 51.3548 240.961 51.3548 235.27C51.3548 229.758 58.8506 192.973 49.4333 187.95Z" fill="#35429B"/>
<path d="M53.376 157.935C53.376 148.097 29.8928 144.261 22.7536 144.261C8.31411 144.261 7.66994 156.185 9.6717 164.899C11.6738 173.612 5.93262 193.563 5.93262 193.563C16.5578 201.52 54.7972 196.123 54.7972 196.123C51.0922 185.79 53.376 166.567 53.376 157.935Z" fill="#EF4D6D"/>
<path d="M46.3071 130.316C46.1633 129.174 44.0923 130.006 42.7691 129.241C41.3767 128.428 39.4323 128.155 37.5684 128.036C35.9172 127.935 34.1338 127.954 32.7361 128.532C31.7062 128.961 30.9987 129.652 30.4063 130.342C26.2125 135.201 28.1855 139.086 26.9717 144.221C29.2438 144.997 36.3029 146.602 38.8282 146.83C39.2772 146.871 35.9921 144.221 36.8493 141.922C40.2262 142.56 42.349 139.724 45.4727 136.362C46.4049 135.365 45.8581 133.757 45.4098 133.01C44.7768 131.936 46.4681 131.462 46.3071 130.316Z" fill="#FCC7A5"/>
<path d="M39.3804 124.281C39.5302 121.289 29.9113 121.18 30.924 124.64C26.4595 124.211 20.3273 126.685 22.795 130.581C20.4018 133.626 25.0101 136.675 26.2411 138.508C26.5115 138.911 27.4605 140.463 27.4605 140.463C27.4605 140.463 33.5298 141.515 35.9117 140.485C38.6901 139.291 39.6683 137.168 40.3125 135.152C41.3424 131.869 44.3512 133.484 44.3512 130.614C46.2611 130.029 47.1528 131.786 47.1528 131.786C51.5994 126.267 44.2591 122.475 39.3804 124.281Z" fill="#292E6D"/>
<path d="M38.2887 144.196C32.5416 142.3 30.1597 141.995 27.479 141.901C26.6221 141.871 25.8165 142.136 25.3506 142.599L23.7339 144.2L41.3492 147.846C41.4009 146.238 39.7153 144.666 38.2887 144.196Z" fill="white"/>
<path d="M77.3234 188.719C74.7689 187.715 73.6013 187.783 74.4297 187.077C75.3731 186.286 78.0309 185.107 78.0021 184.737C77.9563 183.987 74.8379 184.749 72.6522 185.805C71.6396 186.297 68.8206 186.1 68.0383 185.909C62.0148 184.446 45.8956 175.93 45.8956 175.93L39.9185 181.263C39.9185 181.263 62.9469 189.145 66.7901 191.679C68.2683 192.656 71.1965 195.351 72.0766 195.037C72.9567 194.72 77.2254 193.776 77.8987 193.22C78.5833 192.664 76.0924 189.268 78.5717 191.474C80.5794 193.269 84.1117 194.392 83.5365 193.716C82.6448 192.679 79.8716 189.723 77.3234 188.719Z" fill="#FCC7A5"/>
<path fill-rule="evenodd" clip-rule="evenodd" d="M44.9825 150.732C37.9755 149.617 35.2142 154.028 33.5057 160.54C32.0673 166.03 31.0033 173.758 36.7156 181.271C38.9593 184.237 49.602 179.222 49.6249 177.237C49.6537 175.255 49.159 170.713 50.6892 164.059C52.4786 156.241 51.2015 151.729 44.9825 150.732Z" fill="url(#paint24_linear_592_1758)"/>
<defs>
<linearGradient id="paint0_linear_592_1758" x1="14.0239" y1="126.216" x2="136.817" y2="126.216" gradientUnits="userSpaceOnUse">
<stop stop-color="#B7CEEB"/>
<stop offset="1" stop-color="#ABBADF"/>
</linearGradient>
<linearGradient id="paint1_linear_592_1758" x1="14.0239" y1="67.827" x2="136.834" y2="67.827" gradientUnits="userSpaceOnUse">
<stop stop-color="#F1677F"/>
<stop offset="1" stop-color="#F9A468"/>
</linearGradient>
<linearGradient id="paint2_linear_592_1758" x1="14.0239" y1="162.965" x2="136.817" y2="162.965" gradientUnits="userSpaceOnUse">
<stop stop-color="#4B5BA9"/>
<stop offset="1" stop-color="#6C77B9"/>
</linearGradient>
<linearGradient id="paint3_linear_592_1758" x1="46.3893" y1="116.844" x2="133.558" y2="116.844" gradientUnits="userSpaceOnUse">
<stop stop-color="#4B5BA9"/>
<stop offset="1" stop-color="#6C77B9"/>
</linearGradient>
<linearGradient id="paint4_linear_592_1758" x1="58.7974" y1="120.206" x2="129.955" y2="120.206" gradientUnits="userSpaceOnUse">
<stop stop-color="#00AAB7"/>
<stop offset="1" stop-color="#00B3C4"/>
</linearGradient>
<linearGradient id="paint5_linear_592_1758" x1="56.6406" y1="144.849" x2="108.006" y2="144.849" gradientUnits="userSpaceOnUse">
<stop stop-color="#4B5BA9"/>
<stop offset="1" stop-color="#6C77B9"/>
</linearGradient>
<linearGradient id="paint6_linear_592_1758" x1="56.6396" y1="147.151" x2="106.157" y2="147.151" gradientUnits="userSpaceOnUse">
<stop stop-color="#4B5BA9"/>
<stop offset="1" stop-color="#6C77B9"/>
</linearGradient>
<linearGradient id="paint7_linear_592_1758" x1="125.688" y1="134.117" x2="136.25" y2="134.117" gradientUnits="userSpaceOnUse">
<stop stop-color="#E9EAF6"/>
<stop offset="1" stop-color="#C6CFEA"/>
</linearGradient>
<linearGradient id="paint8_linear_592_1758" x1="121.373" y1="145.84" x2="131.935" y2="145.84" gradientUnits="userSpaceOnUse">
<stop stop-color="#E9EAF6"/>
<stop offset="1" stop-color="#C6CFEA"/>
</linearGradient>
<linearGradient id="paint9_linear_592_1758" x1="129.465" y1="121.416" x2="136.802" y2="121.416" gradientUnits="userSpaceOnUse">
<stop stop-color="#E9EAF6"/>
<stop offset="1" stop-color="#C6CFEA"/>
</linearGradient>
<linearGradient id="paint10_linear_592_1758" x1="93.6595" y1="161.531" x2="103.036" y2="161.531" gradientUnits="userSpaceOnUse">
<stop stop-color="#E9EAF6"/>
<stop offset="1" stop-color="#C6CFEA"/>
</linearGradient>
<linearGradient id="paint11_linear_592_1758" x1="86.1132" y1="158.817" x2="95.4841" y2="158.817" gradientUnits="userSpaceOnUse">
<stop stop-color="#E9EAF6"/>
<stop offset="1" stop-color="#C6CFEA"/>
</linearGradient>
<linearGradient id="paint12_linear_592_1758" x1="79.0977" y1="156.021" x2="88.4742" y2="156.021" gradientUnits="userSpaceOnUse">
<stop stop-color="#E9EAF6"/>
<stop offset="1" stop-color="#C6CFEA"/>
</linearGradient>
<linearGradient id="paint13_linear_592_1758" x1="87.7245" y1="164.59" x2="97.0953" y2="164.59" gradientUnits="userSpaceOnUse">
<stop stop-color="#E9EAF6"/>
<stop offset="1" stop-color="#C6CFEA"/>
</linearGradient>
<linearGradient id="paint14_linear_592_1758" x1="80.7121" y1="161.798" x2="90.0885" y2="161.798" gradientUnits="userSpaceOnUse">
<stop stop-color="#E9EAF6"/>
<stop offset="1" stop-color="#C6CFEA"/>
</linearGradient>
<linearGradient id="paint15_linear_592_1758" x1="73.1598" y1="159.078" x2="82.5307" y2="159.078" gradientUnits="userSpaceOnUse">
<stop stop-color="#E9EAF6"/>
<stop offset="1" stop-color="#C6CFEA"/>
</linearGradient>
<linearGradient id="paint16_linear_592_1758" x1="81.7907" y1="167.653" x2="91.1616" y2="167.653" gradientUnits="userSpaceOnUse">
<stop stop-color="#E9EAF6"/>
<stop offset="1" stop-color="#C6CFEA"/>
</linearGradient>
<linearGradient id="paint17_linear_592_1758" x1="74.7772" y1="164.856" x2="84.148" y2="164.856" gradientUnits="userSpaceOnUse">
<stop stop-color="#E9EAF6"/>
<stop offset="1" stop-color="#C6CFEA"/>
</linearGradient>
<linearGradient id="paint18_linear_592_1758" x1="67.2279" y1="162.138" x2="76.5988" y2="162.138" gradientUnits="userSpaceOnUse">
<stop stop-color="#E9EAF6"/>
<stop offset="1" stop-color="#C6CFEA"/>
</linearGradient>
<linearGradient id="paint19_linear_592_1758" x1="65.6078" y1="152.119" x2="80.3101" y2="152.119" gradientUnits="userSpaceOnUse">
<stop stop-color="#E9EAF6"/>
<stop offset="1" stop-color="#C6CFEA"/>
</linearGradient>
<linearGradient id="paint20_linear_592_1758" x1="60.2132" y1="155.187" x2="74.9155" y2="155.187" gradientUnits="userSpaceOnUse">
<stop stop-color="#E9EAF6"/>
<stop offset="1" stop-color="#C6CFEA"/>
</linearGradient>
<linearGradient id="paint21_linear_592_1758" x1="54.2829" y1="158.161" x2="68.9909" y2="158.161" gradientUnits="userSpaceOnUse">
<stop stop-color="#E9EAF6"/>
<stop offset="1" stop-color="#C6CFEA"/>
</linearGradient>
<linearGradient id="paint22_linear_592_1758" x1="151.58" y1="131.856" x2="213.963" y2="131.856" gradientUnits="userSpaceOnUse">
<stop stop-color="#B7CEEB"/>
<stop offset="1" stop-color="#ABBADF"/>
</linearGradient>
<linearGradient id="paint23_linear_592_1758" x1="59.6861" y1="147.962" x2="11.3262" y2="147.962" gradientUnits="userSpaceOnUse">
<stop stop-color="#E9EAF6"/>
<stop offset="1" stop-color="#C6CFEA"/>
</linearGradient>
<linearGradient id="paint24_linear_592_1758" x1="51.4242" y1="166.377" x2="32.3623" y2="166.377" gradientUnits="userSpaceOnUse">
<stop stop-color="#E9EAF6"/>
<stop offset="1" stop-color="#C6CFEA"/>
</linearGradient>
</defs>
</svg>
