<svg width="353" height="335" viewBox="0 0 353 335" fill="none" xmlns="http://www.w3.org/2000/svg">
<path d="M192.2 195.396L334.052 112.553V252.197L192.2 334.999V195.396V195.396Z" fill="#B8BCFC"/>
<path d="M141.886 0L335.958 112.547L194.106 195.389L0 82.821L141.886 0Z" fill="#EF6583"/>
<path d="M0 82.8269V111.541L1.17948 112.225V172.527L0 173.127V221.711L194.106 334.999V195.395L0 82.8264V82.8269Z" fill="#C9DAFC"/>
<path d="M192.2 285.112L305.697 218.891L306.877 219.576L192.2 286.492V285.112Z" fill="#ECF3FA"/>
<path d="M305.697 218.898V158.572L192.2 224.759V285.119L305.697 218.898Z" fill="#524556"/>
<path fill-rule="evenodd" clip-rule="evenodd" d="M308.258 219.573L307.079 218.888V158.562L308.258 157.879V219.573Z" fill="url(#paint0_linear_518_1936)"/>
<path d="M194.105 285.112L1.17948 172.526L0 173.211L194.106 286.492V285.112H194.105Z" fill="#ECF3FA"/>
<path d="M0 172.527V112.224L192.926 224.753V285.113L0 172.527Z" fill="#5F5363"/>
<path d="M8.83838 82.806L14.5325 86.1303L140.917 12.3294V5.71344L8.83872 82.806H8.83838Z" fill="#B8BCFC"/>
<path d="M194.095 189.677L9.8216 82.805L141.895 5.71207L326.135 112.564L194.095 189.677ZM141.886 0L0 82.821L194.106 195.389L335.958 112.547L141.886 0Z" fill="white"/>
<path d="M192.2 301.721V335L234.331 310.375V277.306L192.2 301.721Z" fill="#524556"/>
<path d="M192.2 332.994V334.991L234.331 310.368L232.799 309.474L192.2 332.994Z" fill="#ECF3FA"/>
<path fill-rule="evenodd" clip-rule="evenodd" d="M235.708 277.306V310.377L234.176 309.483V278.193L235.708 277.306Z" fill="url(#paint1_linear_518_1936)"/>
<path d="M317.841 108.056L312.147 111.38L141.388 12.339V5.71344L317.841 108.056H317.841Z" fill="#C9DAFC"/>
<path d="M305.816 136.584L254.056 166.356V185.124L305.816 155.243V136.584Z" fill="url(#paint2_linear_518_1936)"/>
<path d="M251.849 165.636L253.077 166.355V185.122L251.849 184.403V165.636Z" fill="url(#paint3_linear_518_1936)"/>
<path fill-rule="evenodd" clip-rule="evenodd" d="M251.849 165.629L253.076 166.348L304.836 136.576L303.609 135.857L251.849 165.629Z" fill="#F1F1F1"/>
<path d="M300.856 147.119L297.792 148.896L297.787 147.024L301.233 145.027L301.229 143.336L296.032 146.346L296.056 155.295L297.806 154.282L297.797 150.587L300.861 148.81L300.856 147.119Z" fill="#ECF3FA"/>
<path d="M296.81 147.059L291.614 150.068L291.638 159.017L293.383 158.007L293.373 154.311L296.448 152.533L296.443 150.842L293.368 152.62L293.364 150.748L296.815 148.749L296.81 147.059Z" fill="#ECF3FA"/>
<path d="M286.359 157.691C286.267 158.098 286.131 158.482 285.957 158.836C285.783 159.192 285.566 159.514 285.31 159.799C285.049 160.085 284.763 160.324 284.439 160.51C284.111 160.7 283.821 160.797 283.569 160.807C283.313 160.818 283.096 160.747 282.922 160.594C282.743 160.443 282.607 160.215 282.516 159.916C282.419 159.619 282.375 159.249 282.371 158.81C282.371 158.379 282.414 157.959 282.511 157.548C282.603 157.135 282.733 156.751 282.912 156.396C283.086 156.041 283.299 155.719 283.55 155.429C283.806 155.143 284.096 154.902 284.425 154.712C284.744 154.526 285.034 154.426 285.295 154.412C285.551 154.404 285.769 154.475 285.948 154.626C286.122 154.779 286.257 155.007 286.354 155.308C286.445 155.614 286.494 155.984 286.494 156.423C286.494 156.862 286.45 157.286 286.359 157.691ZM287.156 152.547C286.803 152.356 286.392 152.295 285.923 152.37C285.45 152.443 284.952 152.634 284.42 152.942C283.903 153.24 283.415 153.623 282.946 154.094C282.482 154.56 282.071 155.096 281.718 155.695C281.365 156.298 281.085 156.949 280.877 157.653C280.669 158.354 280.568 159.088 280.568 159.855C280.568 160.623 280.674 161.237 280.877 161.698C281.08 162.165 281.356 162.489 281.708 162.679C282.061 162.869 282.472 162.923 282.946 162.85C283.415 162.775 283.917 162.582 284.444 162.276C284.991 161.961 285.503 161.566 285.972 161.096C286.45 160.619 286.856 160.093 287.2 159.5C287.543 158.907 287.809 158.267 288.007 157.568C288.205 156.876 288.302 156.146 288.297 155.378C288.297 154.61 288.191 153.996 287.992 153.533C287.784 153.068 287.509 152.74 287.156 152.547Z" fill="#ECF3FA"/>
<path d="M276.444 165.955C276.308 166.237 276.134 166.436 275.926 166.555C275.709 166.681 275.535 166.683 275.404 166.555C275.274 166.431 275.206 166.147 275.206 165.708C275.206 165.27 275.269 164.914 275.4 164.638C275.53 164.365 275.704 164.166 275.922 164.04C276.125 163.921 276.303 163.918 276.434 164.037C276.569 164.16 276.637 164.439 276.637 164.878C276.642 165.317 276.574 165.676 276.444 165.955ZM277.362 162.595C277.004 162.375 276.521 162.439 275.917 162.788C275.308 163.14 274.829 163.633 274.472 164.27C274.114 164.908 273.935 165.633 273.94 166.442C273.94 167.251 274.123 167.767 274.481 167.991C274.844 168.21 275.322 168.148 275.931 167.796C276.535 167.447 277.014 166.952 277.372 166.317C277.729 165.679 277.908 164.954 277.903 164.145C277.903 163.335 277.72 162.819 277.362 162.595Z" fill="#ECF3FA"/>
<path d="M273.877 159.423L269.521 170.908L271.083 170.006L275.438 158.52L273.877 159.423Z" fill="#ECF3FA"/>
<path d="M268.773 165.399C268.647 165.269 268.58 164.986 268.58 164.547C268.575 164.108 268.643 163.753 268.768 163.482C268.899 163.205 269.073 163.006 269.29 162.881C269.498 162.759 269.672 162.759 269.808 162.881C269.943 163 270.011 163.278 270.011 163.716C270.015 164.155 269.948 164.517 269.812 164.799C269.677 165.077 269.508 165.278 269.295 165.4C269.082 165.525 268.908 165.524 268.773 165.399ZM270.745 165.155C271.103 164.517 271.277 163.794 271.277 162.985C271.272 162.175 271.093 161.662 270.736 161.437C270.373 161.215 269.895 161.277 269.286 161.629C268.681 161.978 268.203 162.473 267.845 163.112C267.487 163.75 267.309 164.471 267.313 165.281C267.313 166.09 267.497 166.606 267.855 166.83C268.212 167.054 268.696 166.99 269.3 166.64C269.909 166.289 270.388 165.795 270.745 165.155Z" fill="#ECF3FA"/>
<path d="M266.742 170.138C266.704 170.529 266.646 170.881 266.568 171.194C266.486 171.509 266.375 171.782 266.23 172.01C266.09 172.239 265.916 172.411 265.708 172.533C265.495 172.655 265.321 172.684 265.181 172.616C265.046 172.552 264.935 172.408 264.848 172.189C264.756 171.976 264.698 171.693 264.659 171.345C264.62 170.995 264.601 170.598 264.596 170.152C264.596 169.701 264.616 169.285 264.649 168.898C264.688 168.508 264.746 168.16 264.833 167.84C264.92 167.522 265.031 167.253 265.167 167.026C265.307 166.798 265.481 166.626 265.689 166.504C265.897 166.383 266.071 166.354 266.216 166.419C266.361 166.483 266.472 166.623 266.554 166.844C266.636 167.065 266.699 167.345 266.733 167.691C266.776 168.035 266.791 168.43 266.791 168.88C266.796 169.326 266.781 169.744 266.742 170.138ZM265.684 164.851C265.259 165.099 264.872 165.423 264.529 165.83C264.19 166.236 263.895 166.706 263.649 167.248C263.402 167.787 263.214 168.38 263.088 169.035C262.958 169.685 262.895 170.385 262.895 171.138C262.9 172.643 263.151 173.652 263.649 174.171C264.152 174.688 264.838 174.691 265.713 174.186C266.583 173.68 267.269 172.882 267.762 171.79C268.255 170.695 268.502 169.399 268.497 167.894C268.492 166.392 268.241 165.385 267.743 164.868C267.245 164.35 266.559 164.346 265.684 164.851Z" fill="#ECF3FA"/>
<path d="M260.753 171.891C260.231 171.691 259.424 171.861 258.336 172.405C258.355 172.18 258.375 171.915 258.394 171.616C258.409 171.319 258.428 171.007 258.442 170.687L261.241 169.065V167.454L257.036 169.888C257.007 170.627 256.973 171.425 256.92 172.28C256.871 173.139 256.804 173.992 256.726 174.838C257.34 174.482 257.848 174.226 258.249 174.06C258.655 173.894 258.974 173.808 259.211 173.798C259.453 173.788 259.622 173.854 259.718 173.989C259.815 174.127 259.863 174.322 259.863 174.572C259.868 174.889 259.752 175.236 259.52 175.605C259.293 175.976 258.916 176.311 258.404 176.609C257.973 176.856 257.611 177.021 257.302 177.109C256.997 177.195 256.751 177.247 256.562 177.26L256.267 179.024C256.354 179.026 256.485 179.001 256.649 178.959C256.813 178.913 256.997 178.859 257.2 178.785C257.408 178.714 257.621 178.631 257.843 178.532C258.06 178.434 258.273 178.328 258.476 178.21C258.993 177.912 259.438 177.576 259.825 177.21C260.207 176.84 260.526 176.455 260.782 176.046C261.033 175.642 261.222 175.226 261.347 174.8C261.473 174.374 261.536 173.952 261.536 173.54C261.531 172.644 261.27 172.094 260.753 171.891Z" fill="#ECF3FA"/>
<path d="M250.588 168.389L198.828 198.161V216.928L250.588 187.047V168.389Z" fill="url(#paint4_linear_518_1936)"/>
<path d="M196.618 197.44L197.851 198.159V216.926L196.618 216.207V197.44Z" fill="url(#paint5_linear_518_1936)"/>
<path fill-rule="evenodd" clip-rule="evenodd" d="M196.618 197.451L197.851 198.17L249.611 168.397L248.378 167.679L196.618 197.451Z" fill="#F1F1F1"/>
<path d="M247.841 178.924L244.771 180.7L244.766 178.828L248.213 176.831L248.208 175.141L243.011 178.15L243.036 187.099L244.786 186.086L244.776 182.391L247.845 180.614L247.841 178.924Z" fill="#ECF3FA"/>
<path d="M241.58 178.863L236.384 181.873L236.408 190.822L238.158 189.811L238.143 186.116L241.218 184.337L241.213 182.646L238.138 184.425L238.134 182.553L241.585 180.554L241.58 178.863Z" fill="#ECF3FA"/>
<path d="M233.339 189.495C233.247 189.902 233.112 190.286 232.937 190.64C232.763 190.996 232.546 191.319 232.29 191.603C232.034 191.889 231.744 192.128 231.42 192.314C231.096 192.505 230.801 192.602 230.55 192.612C230.293 192.622 230.081 192.551 229.902 192.398C229.728 192.247 229.593 192.019 229.496 191.721C229.399 191.424 229.356 191.053 229.356 190.614C229.351 190.183 229.394 189.763 229.491 189.353C229.583 188.94 229.713 188.556 229.892 188.2C230.066 187.846 230.279 187.523 230.535 187.234C230.786 186.947 231.076 186.706 231.405 186.516C231.729 186.33 232.014 186.231 232.275 186.217C232.531 186.209 232.749 186.28 232.928 186.43C233.102 186.584 233.237 186.811 233.334 187.112C233.426 187.419 233.474 187.789 233.474 188.227C233.474 188.666 233.431 189.09 233.339 189.495ZM234.136 184.351C233.783 184.161 233.373 184.099 232.904 184.175C232.43 184.248 231.932 184.438 231.4 184.746C230.883 185.045 230.395 185.428 229.926 185.898C229.462 186.365 229.051 186.901 228.698 187.5C228.345 188.102 228.065 188.753 227.857 189.458C227.649 190.158 227.548 190.892 227.548 191.659C227.553 192.427 227.654 193.042 227.857 193.502C228.06 193.969 228.336 194.293 228.689 194.483C229.041 194.673 229.452 194.727 229.926 194.654C230.395 194.579 230.898 194.386 231.429 194.08C231.971 193.765 232.483 193.37 232.957 192.9C233.431 192.424 233.837 191.897 234.18 191.304C234.523 190.711 234.789 190.071 234.992 189.373C235.185 188.68 235.282 187.95 235.277 187.182C235.277 186.414 235.175 185.8 234.973 185.337C234.765 184.873 234.489 184.545 234.136 184.351Z" fill="#ECF3FA"/>
<path d="M221.215 197.759C221.08 198.041 220.906 198.24 220.698 198.36C220.485 198.485 220.311 198.488 220.176 198.36C220.045 198.235 219.978 197.951 219.978 197.513C219.978 197.074 220.04 196.718 220.171 196.442C220.301 196.169 220.475 195.97 220.693 195.845C220.901 195.725 221.075 195.723 221.21 195.842C221.346 195.964 221.408 196.244 221.413 196.682C221.413 197.121 221.346 197.481 221.215 197.759ZM222.133 194.4C221.776 194.179 221.292 194.243 220.688 194.593C220.084 194.945 219.605 195.438 219.243 196.074C218.885 196.713 218.706 197.437 218.711 198.247C218.711 199.056 218.895 199.571 219.253 199.795C219.615 200.014 220.098 199.952 220.703 199.6C221.307 199.251 221.79 198.756 222.143 198.122C222.501 197.483 222.68 196.759 222.68 195.949C222.675 195.14 222.491 194.624 222.133 194.4Z" fill="#ECF3FA"/>
<path d="M220.856 191.244L216.5 202.73L218.057 201.827L222.412 190.342L220.856 191.244Z" fill="#ECF3FA"/>
<path d="M215.756 197.221C215.626 197.091 215.558 196.807 215.558 196.369C215.558 195.93 215.621 195.574 215.746 195.303C215.877 195.027 216.051 194.828 216.268 194.702C216.481 194.581 216.65 194.58 216.786 194.703C216.921 194.821 216.989 195.099 216.994 195.538C216.994 195.977 216.926 196.338 216.791 196.62C216.655 196.899 216.486 197.099 216.278 197.221C216.061 197.347 215.887 197.345 215.756 197.221ZM217.723 196.977C218.081 196.339 218.255 195.616 218.255 194.806C218.25 193.997 218.071 193.483 217.714 193.259C217.351 193.037 216.873 193.099 216.264 193.45C215.664 193.8 215.181 194.295 214.823 194.933C214.465 195.572 214.286 196.293 214.291 197.102C214.291 197.912 214.475 198.427 214.833 198.651C215.195 198.875 215.674 198.811 216.278 198.462C216.887 198.11 217.366 197.617 217.723 196.977Z" fill="#ECF3FA"/>
<path d="M211.512 201.942C211.479 202.334 211.421 202.686 211.338 202.998C211.256 203.314 211.145 203.587 211 203.814C210.86 204.043 210.686 204.216 210.478 204.338C210.265 204.459 210.091 204.488 209.956 204.42C209.816 204.356 209.705 204.213 209.618 203.994C209.531 203.781 209.468 203.497 209.429 203.149C209.39 202.799 209.371 202.402 209.371 201.956C209.366 201.506 209.386 201.09 209.42 200.702C209.458 200.312 209.516 199.964 209.603 199.644C209.69 199.326 209.801 199.058 209.937 198.83C210.077 198.603 210.251 198.43 210.459 198.309C210.671 198.187 210.845 198.158 210.986 198.224C211.131 198.288 211.242 198.427 211.324 198.648C211.406 198.869 211.469 199.149 211.503 199.495C211.546 199.839 211.561 200.234 211.566 200.684C211.566 201.131 211.551 201.548 211.512 201.942ZM210.454 196.655C210.029 196.903 209.647 197.227 209.299 197.635C208.96 198.04 208.665 198.51 208.419 199.052C208.172 199.592 207.989 200.184 207.858 200.839C207.728 201.489 207.665 202.19 207.665 202.942C207.67 204.447 207.921 205.457 208.419 205.975C208.922 206.492 209.608 206.496 210.483 205.99C211.353 205.485 212.039 204.687 212.532 203.594C213.03 202.499 213.272 201.204 213.267 199.698C213.262 198.196 213.011 197.189 212.513 196.673C212.015 196.154 211.329 196.15 210.454 196.655Z" fill="#ECF3FA"/>
<path d="M205.523 203.696C205 203.495 204.193 203.666 203.106 204.21C203.125 203.984 203.144 203.72 203.164 203.421C203.183 203.124 203.198 202.812 203.212 202.492L206.016 200.869L206.011 199.258L201.805 201.692C201.781 202.432 201.743 203.23 201.689 204.085C201.641 204.944 201.573 205.797 201.496 206.643C202.11 206.287 202.617 206.03 203.019 205.865C203.425 205.699 203.744 205.613 203.985 205.603C204.222 205.593 204.391 205.659 204.488 205.794C204.585 205.932 204.633 206.127 204.638 206.376C204.638 206.694 204.522 207.041 204.29 207.41C204.063 207.781 203.686 208.115 203.173 208.413C202.748 208.661 202.381 208.826 202.071 208.914C201.767 209 201.52 209.051 201.337 209.065L201.037 210.828C201.124 210.83 201.254 210.805 201.419 210.763C201.583 210.717 201.767 210.664 201.975 210.589C202.178 210.519 202.39 210.435 202.613 210.336C202.835 210.239 203.043 210.133 203.246 210.015C203.763 209.717 204.213 209.381 204.595 209.015C204.976 208.645 205.295 208.26 205.552 207.851C205.803 207.447 205.991 207.03 206.117 206.605C206.248 206.179 206.306 205.757 206.306 205.345C206.306 204.448 206.045 203.899 205.523 203.696Z" fill="#ECF3FA"/>
<path d="M324.751 115.951L353 99.4127V260.822L324.751 277.317V115.95V115.951Z" fill="#F5BB67"/>
<path d="M335.366 90.1154L351.298 99.4156L323.049 115.954L307.079 106.631L335.366 90.1154Z" fill="#F9E268"/>
<path d="M307.079 106.633L323.049 115.956L323.044 277.32L307.079 268.043V106.632V106.633Z" fill="#F9CB69"/>
<path d="M346.949 116.31L329.17 126.503V175.469L346.949 165.175V116.31Z" fill="url(#paint6_linear_518_1936)"/>
<path d="M329.17 125.833L330.321 126.507V175.473L329.17 174.799V125.833Z" fill="url(#paint7_linear_518_1936)"/>
<path fill-rule="evenodd" clip-rule="evenodd" d="M329.17 125.845L330.32 126.519L348.099 116.326L346.943 115.652L329.17 125.845Z" fill="#F1F1F1"/>
<path d="M346.949 172.873L329.17 183.065V232.032L346.949 221.737V172.873Z" fill="url(#paint8_linear_518_1936)"/>
<path d="M329.17 182.395L330.321 183.069V232.036L329.17 231.362V182.395Z" fill="url(#paint9_linear_518_1936)"/>
<path fill-rule="evenodd" clip-rule="evenodd" d="M329.17 182.389L330.32 183.063L348.099 172.871L346.943 172.198L329.17 182.389Z" fill="#F1F1F1"/>
<path d="M245.221 304.479V265.823L303.202 232.032V270.65L245.221 304.479Z" fill="#524556"/>
<path fill-rule="evenodd" clip-rule="evenodd" d="M303.916 232.032L302.659 232.753V269.945L303.916 270.65V232.032Z" fill="url(#paint10_linear_518_1936)"/>
<path d="M301.945 269.948L245.221 302.994V304.482L303.202 270.652L301.945 269.948Z" fill="#ECF3FA"/>
<path fill-rule="evenodd" clip-rule="evenodd" d="M301.945 239.286L245.221 272.332V273.276L302.728 239.723L301.945 239.286Z" fill="url(#paint11_linear_518_1936)"/>
<path fill-rule="evenodd" clip-rule="evenodd" d="M292.295 275.9L291.614 275.502V238.328L292.295 237.936V275.9Z" fill="url(#paint12_linear_518_1936)"/>
<path fill-rule="evenodd" clip-rule="evenodd" d="M281.249 283.224L280.568 282.827V245.652L281.249 245.259V283.224Z" fill="url(#paint13_linear_518_1936)"/>
<path fill-rule="evenodd" clip-rule="evenodd" d="M267.995 290.755L267.313 290.357V253.183L267.995 252.791V290.755Z" fill="url(#paint14_linear_518_1936)"/>
<path fill-rule="evenodd" clip-rule="evenodd" d="M254.738 298.078L254.056 297.681V260.507L254.738 260.114V298.078Z" fill="url(#paint15_linear_518_1936)"/>
<path fill-rule="evenodd" clip-rule="evenodd" d="M293.823 275.908V237.932L294.954 237.278V275.251L293.823 275.908Z" fill="url(#paint16_linear_518_1936)"/>
<path fill-rule="evenodd" clip-rule="evenodd" d="M280.568 283.231V245.254L281.704 244.601V282.574L280.568 283.231Z" fill="url(#paint17_linear_518_1936)"/>
<path fill-rule="evenodd" clip-rule="evenodd" d="M267.313 290.763V252.786L268.449 252.133V290.105L267.313 290.763Z" fill="url(#paint18_linear_518_1936)"/>
<path fill-rule="evenodd" clip-rule="evenodd" d="M256.267 298.086V260.11L257.403 259.456V297.429L256.267 298.086Z" fill="url(#paint19_linear_518_1936)"/>
<path fill-rule="evenodd" clip-rule="evenodd" d="M302.728 239.719V240.662L245.221 274.171V273.272L302.728 239.719Z" fill="url(#paint20_linear_518_1936)"/>
<path d="M256.267 270.871L258.718 269.394L261.183 270.823L258.737 272.301L256.267 270.871Z" fill="#F5F5F6"/>
<path d="M311.497 238.235L313.948 236.758L316.413 238.188L313.967 239.666L311.497 238.235Z" fill="#F5F5F6"/>
<path d="M243.011 263.888V266.377L262.018 277.361V274.87L243.011 263.888Z" fill="#F9CB69"/>
<path d="M322.471 239.961V242.45L262.895 277.363V274.872L322.471 239.961Z" fill="#F5BB67"/>
<path d="M321.594 239.955L302.597 228.968L243.011 263.884L262.018 274.866L321.594 239.955Z" fill="#F9E268"/>
<path d="M317.331 239.697L303.12 231.478L247.43 264.139L261.651 272.351L317.331 239.697Z" fill="#E4E3E5"/>
<path d="M243.011 260.322V262.811L262.018 273.795V271.304L243.011 260.322Z" fill="#F9CB69"/>
<path d="M322.471 236.395V238.884L262.895 273.797V271.305L322.471 236.395Z" fill="#F5BB67"/>
<path d="M321.594 236.389L302.597 225.401L243.011 260.317L262.018 271.299L321.594 236.389Z" fill="#F9E268"/>
<path fill-rule="evenodd" clip-rule="evenodd" d="M225.806 282.535V314.37L225.337 314.096V282.807L225.806 282.535Z" fill="url(#paint21_linear_518_1936)"/>
<path fill-rule="evenodd" clip-rule="evenodd" d="M225.337 314.361L225.84 314.07V282.24L225.337 282.531V314.361Z" fill="url(#paint22_linear_518_1936)"/>
<path fill-rule="evenodd" clip-rule="evenodd" d="M216.974 287.278V319.118L216.5 318.844V287.55L216.974 287.278Z" fill="url(#paint23_linear_518_1936)"/>
<path fill-rule="evenodd" clip-rule="evenodd" d="M218.711 319.127L219.209 318.836V287.001L218.711 287.293V319.127Z" fill="url(#paint24_linear_518_1936)"/>
<path fill-rule="evenodd" clip-rule="evenodd" d="M210.342 292.057V323.877L209.873 323.603V292.329L210.342 292.057Z" fill="url(#paint25_linear_518_1936)"/>
<path fill-rule="evenodd" clip-rule="evenodd" d="M209.873 323.868L210.376 323.577V291.763L209.873 292.053V323.868Z" fill="url(#paint26_linear_518_1936)"/>
<path fill-rule="evenodd" clip-rule="evenodd" d="M201.506 296.801V328.623L201.037 328.349V297.072L201.506 296.801Z" fill="url(#paint27_linear_518_1936)"/>
<path fill-rule="evenodd" clip-rule="evenodd" d="M201.037 328.632L201.54 328.341V296.524L201.037 296.815V328.632Z" fill="url(#paint28_linear_518_1936)"/>
<path d="M192.355 301.721V335L150.224 310.375V277.306L192.355 301.721Z" fill="#5F5363"/>
<path d="M192.355 332.994V334.991L150.224 310.368L151.757 309.474L192.355 332.994Z" fill="#ECF3FA"/>
<path fill-rule="evenodd" clip-rule="evenodd" d="M150.224 277.306V310.377L151.757 309.483V278.193L150.224 277.306Z" fill="url(#paint29_linear_518_1936)"/>
<path fill-rule="evenodd" clip-rule="evenodd" d="M159.062 282.535V314.361L159.531 314.087V282.806L159.062 282.535Z" fill="url(#paint30_linear_518_1936)"/>
<path fill-rule="evenodd" clip-rule="evenodd" d="M159.565 314.353L159.062 314.062V282.24L159.565 282.532V314.353Z" fill="url(#paint31_linear_518_1936)"/>
<path fill-rule="evenodd" clip-rule="evenodd" d="M167.899 287.296V319.133L168.368 318.859V287.568L167.899 287.296Z" fill="url(#paint32_linear_518_1936)"/>
<path fill-rule="evenodd" clip-rule="evenodd" d="M168.402 319.124L167.899 318.833V287.001L168.402 287.292V319.124Z" fill="url(#paint33_linear_518_1936)"/>
<path fill-rule="evenodd" clip-rule="evenodd" d="M176.735 292.057V323.877L177.204 323.602V292.328L176.735 292.057Z" fill="url(#paint34_linear_518_1936)"/>
<path fill-rule="evenodd" clip-rule="evenodd" d="M177.238 323.868L176.735 323.577V291.763L177.238 292.054V323.868Z" fill="url(#paint35_linear_518_1936)"/>
<path fill-rule="evenodd" clip-rule="evenodd" d="M185.572 296.801V328.625L186.041 328.352V297.073L185.572 296.801Z" fill="url(#paint36_linear_518_1936)"/>
<path fill-rule="evenodd" clip-rule="evenodd" d="M183.867 328.617L183.364 328.326V296.507L183.867 296.798V328.617Z" fill="url(#paint37_linear_518_1936)"/>
<path d="M143.756 273.345V306.624L101.625 281.999V248.93L143.756 273.345Z" fill="#5F5363"/>
<path d="M143.756 304.634V306.632L101.625 282.009L103.152 281.115L143.756 304.634Z" fill="#ECF3FA"/>
<path fill-rule="evenodd" clip-rule="evenodd" d="M101.625 248.93V282.001L103.152 281.107V249.817L101.625 248.93Z" fill="url(#paint38_linear_518_1936)"/>
<path fill-rule="evenodd" clip-rule="evenodd" d="M110.46 254.158V285.985L110.929 285.711V254.43L110.46 254.158Z" fill="url(#paint39_linear_518_1936)"/>
<path fill-rule="evenodd" clip-rule="evenodd" d="M110.963 285.994L110.46 285.703V253.881L110.963 254.172V285.994Z" fill="url(#paint40_linear_518_1936)"/>
<path fill-rule="evenodd" clip-rule="evenodd" d="M119.297 258.919V290.756L119.766 290.482V259.191L119.297 258.919Z" fill="url(#paint41_linear_518_1936)"/>
<path fill-rule="evenodd" clip-rule="evenodd" d="M119.8 290.748L119.297 290.457V258.625L119.8 258.917V290.748Z" fill="url(#paint42_linear_518_1936)"/>
<path fill-rule="evenodd" clip-rule="evenodd" d="M128.133 263.681V295.501L128.602 295.227V263.953L128.133 263.681Z" fill="url(#paint43_linear_518_1936)"/>
<path fill-rule="evenodd" clip-rule="evenodd" d="M128.631 295.492L128.133 295.201V263.386L128.631 263.677V295.492Z" fill="url(#paint44_linear_518_1936)"/>
<path fill-rule="evenodd" clip-rule="evenodd" d="M136.97 268.424V300.249L137.439 299.975V268.696L136.97 268.424Z" fill="url(#paint45_linear_518_1936)"/>
<path fill-rule="evenodd" clip-rule="evenodd" d="M135.265 300.258L134.762 299.967V268.147L135.265 268.439V300.258Z" fill="url(#paint46_linear_518_1936)"/>
<path d="M95.1532 244.916V278.195L53.022 253.571V220.501L95.1532 244.916Z" fill="#5F5363"/>
<path d="M95.1532 276.207V278.204L53.022 253.581L54.5542 252.687L95.1532 276.207Z" fill="#ECF3FA"/>
<path fill-rule="evenodd" clip-rule="evenodd" d="M53.022 220.501V253.573L54.5544 252.678V221.388L53.022 220.501Z" fill="url(#paint47_linear_518_1936)"/>
<path fill-rule="evenodd" clip-rule="evenodd" d="M61.8579 225.747V257.574L62.3268 257.3V226.019L61.8579 225.747Z" fill="url(#paint48_linear_518_1936)"/>
<path fill-rule="evenodd" clip-rule="evenodd" d="M62.3607 257.565L61.8579 257.275V225.453L62.3607 225.744V257.565Z" fill="url(#paint49_linear_518_1936)"/>
<path fill-rule="evenodd" clip-rule="evenodd" d="M70.6948 230.491V262.328L71.1637 262.054V230.763L70.6948 230.491Z" fill="url(#paint50_linear_518_1936)"/>
<path fill-rule="evenodd" clip-rule="evenodd" d="M71.1974 262.319L70.6948 262.029V230.197L71.1974 230.488V262.319Z" fill="url(#paint51_linear_518_1936)"/>
<path fill-rule="evenodd" clip-rule="evenodd" d="M79.5317 235.252V267.072L80.0007 266.798V235.524L79.5317 235.252Z" fill="url(#paint52_linear_518_1936)"/>
<path fill-rule="evenodd" clip-rule="evenodd" d="M80.0346 267.064L79.5317 266.773V234.958L80.0346 235.249V267.064Z" fill="url(#paint53_linear_518_1936)"/>
<path fill-rule="evenodd" clip-rule="evenodd" d="M86.1597 240.013V271.839L86.6286 271.565V240.285L86.1597 240.013Z" fill="url(#paint54_linear_518_1936)"/>
<path fill-rule="evenodd" clip-rule="evenodd" d="M86.6624 271.83L86.1597 271.539V239.719L86.6624 240.01V271.83Z" fill="url(#paint55_linear_518_1936)"/>
<path d="M46.5496 216.54V249.819L4.41846 225.194V192.125L46.5496 216.54Z" fill="#5F5363"/>
<path d="M46.5496 247.813V249.81L4.41846 225.187L5.95073 224.293L46.5496 247.813Z" fill="#ECF3FA"/>
<path fill-rule="evenodd" clip-rule="evenodd" d="M4.41846 192.125V225.196L5.95076 224.302V193.012L4.41846 192.125Z" fill="url(#paint56_linear_518_1936)"/>
<path fill-rule="evenodd" clip-rule="evenodd" d="M13.2568 197.354V229.181L13.7258 228.907V197.625L13.2568 197.354Z" fill="url(#paint57_linear_518_1936)"/>
<path fill-rule="evenodd" clip-rule="evenodd" d="M13.7596 229.172L13.2568 228.882V197.059L13.7596 197.351V229.172Z" fill="url(#paint58_linear_518_1936)"/>
<path fill-rule="evenodd" clip-rule="evenodd" d="M22.0925 202.115V233.951L22.5613 233.677V202.386L22.0925 202.115Z" fill="url(#paint59_linear_518_1936)"/>
<path fill-rule="evenodd" clip-rule="evenodd" d="M22.5952 233.943L22.0925 233.652V201.82L22.5952 202.112V233.943Z" fill="url(#paint60_linear_518_1936)"/>
<path fill-rule="evenodd" clip-rule="evenodd" d="M30.9294 206.876V238.696L31.3984 238.421V207.147L30.9294 206.876Z" fill="url(#paint61_linear_518_1936)"/>
<path fill-rule="evenodd" clip-rule="evenodd" d="M31.4321 238.687L30.9294 238.397V206.581L31.4321 206.873V238.687Z" fill="url(#paint62_linear_518_1936)"/>
<path fill-rule="evenodd" clip-rule="evenodd" d="M37.5574 211.62V243.445L38.0263 243.171V211.892L37.5574 211.62Z" fill="url(#paint63_linear_518_1936)"/>
<path fill-rule="evenodd" clip-rule="evenodd" d="M38.0601 243.436L37.5574 243.145V211.325L38.0601 211.616V243.436Z" fill="url(#paint64_linear_518_1936)"/>
<path d="M192.2 235.389V233L305.697 166.813V169.169L192.2 235.389Z" fill="#372B3C"/>
<path d="M192.926 235.401L0 122.815V120.483L192.926 233.011V235.401Z" fill="#4B3C4F"/>
<path d="M192.2 246.106V243.717L305.697 177.53V179.885L192.2 246.106Z" fill="#372B3C"/>
<path d="M192.926 246.1L0 133.514V131.182L192.926 243.711V246.1Z" fill="#4B3C4F"/>
<path d="M192.2 256.806V254.417L305.697 188.229V190.585L192.2 256.806Z" fill="#372B3C"/>
<path d="M192.926 256.8L0 144.214V141.882L192.926 254.41V256.8Z" fill="#4B3C4F"/>
<path d="M192.2 267.506V265.116L305.697 198.929V201.285L192.2 267.506Z" fill="#372B3C"/>
<path d="M192.926 267.517L0 154.931V152.599L192.926 265.127V267.517Z" fill="#4B3C4F"/>
<path d="M192.2 278.223V275.833L305.697 209.646V212.002L192.2 278.223Z" fill="#372B3C"/>
<path d="M192.926 278.216L0 165.63V163.298L192.926 275.827V278.216Z" fill="#4B3C4F"/>
<path d="M192.2 288.811V290.808L234.331 266.185L232.799 265.291L192.2 288.811Z" fill="#ECF3FA"/>
<path fill-rule="evenodd" clip-rule="evenodd" d="M192.2 290.797V305.311L234.331 280.686V266.381L192.2 290.797Z" fill="url(#paint65_linear_518_1936)"/>
<path fill-rule="evenodd" clip-rule="evenodd" d="M192.355 290.797V305.311L150.224 280.686V266.381L192.355 290.797Z" fill="url(#paint66_linear_518_1936)"/>
<path fill-rule="evenodd" clip-rule="evenodd" d="M192.355 288.821V290.819L150.224 266.393L151.757 265.499L192.355 288.821Z" fill="url(#paint67_linear_518_1936)"/>
<path d="M53.022 208.971L94.8101 233.213V247.545L53.022 223.153V208.971Z" fill="url(#paint68_linear_518_1936)"/>
<path d="M96.6873 232.222L94.9954 233.211V247.543L96.6873 246.555V232.222Z" fill="url(#paint69_linear_518_1936)"/>
<path d="M96.502 232.226L94.8101 233.215L53.022 208.973L54.7138 207.984L96.502 232.226Z" fill="url(#paint70_linear_518_1936)"/>
<path d="M4.41846 180.525L46.2064 204.767V219.1L4.41846 194.708V180.525Z" fill="url(#paint71_linear_518_1936)"/>
<path d="M48.0861 203.777L46.3943 204.765V219.098L48.0861 218.109V203.777Z" fill="url(#paint72_linear_518_1936)"/>
<path d="M47.8983 203.78L46.2065 204.769L4.41846 180.527L6.11024 179.538L47.8983 203.78Z" fill="url(#paint73_linear_518_1936)"/>
<path fill-rule="evenodd" clip-rule="evenodd" d="M6.62793 188.645L13.4532 192.583V194.603L6.62793 190.646V188.645Z" fill="#ECF3FA"/>
<path fill-rule="evenodd" clip-rule="evenodd" d="M6.62793 191.623L13.4532 195.561V197.581L6.62793 193.624V191.623Z" fill="#ECF3FA"/>
<path fill-rule="evenodd" clip-rule="evenodd" d="M14.7747 191.961L13.2568 191.086V198.297L14.7747 199.176V191.961Z" fill="#ECF3FA"/>
<path fill-rule="evenodd" clip-rule="evenodd" d="M16.9826 191.65L15.4648 190.774V199.687L16.9826 200.566V191.65Z" fill="#ECF3FA"/>
<path fill-rule="evenodd" clip-rule="evenodd" d="M19.1918 198.679L17.6741 197.804V201.05L19.1918 201.929V198.679Z" fill="#ECF3FA"/>
<path fill-rule="evenodd" clip-rule="evenodd" d="M23.6102 195.459L22.0925 194.583V202.423L23.6102 203.302V195.459Z" fill="#ECF3FA"/>
<path fill-rule="evenodd" clip-rule="evenodd" d="M25.8195 200.133L24.3018 199.258V203.8L25.8195 204.68V200.133Z" fill="#ECF3FA"/>
<path fill-rule="evenodd" clip-rule="evenodd" d="M28.0241 198.073L26.511 197.198V205.169L28.0241 206.049V198.073Z" fill="#ECF3FA"/>
<path fill-rule="evenodd" clip-rule="evenodd" d="M30.2367 202.661L28.719 201.786V206.55L30.2367 207.429V202.661Z" fill="#ECF3FA"/>
<path fill-rule="evenodd" clip-rule="evenodd" d="M32.4472 201.172L30.9294 200.297V207.908L32.4472 208.788V201.172Z" fill="#ECF3FA"/>
<path fill-rule="evenodd" clip-rule="evenodd" d="M34.6553 204.687L33.1375 203.811V209.301L34.6553 210.18V204.687Z" fill="#ECF3FA"/>
<path fill-rule="evenodd" clip-rule="evenodd" d="M36.8659 203.302L35.3481 202.426V210.676L36.8659 211.556V203.302Z" fill="#ECF3FA"/>
<path fill-rule="evenodd" clip-rule="evenodd" d="M55.23 217.454L62.0552 221.393V223.413L55.23 219.455V217.454Z" fill="#ECF3FA"/>
<path fill-rule="evenodd" clip-rule="evenodd" d="M55.23 220.432L62.0552 224.37V226.39L55.23 222.433V220.432Z" fill="#ECF3FA"/>
<path fill-rule="evenodd" clip-rule="evenodd" d="M65.5849 220.771L64.0671 219.896V227.106L65.5849 227.986V220.771Z" fill="#ECF3FA"/>
<path fill-rule="evenodd" clip-rule="evenodd" d="M67.7942 220.459L66.2764 219.584V228.496L67.7942 229.376V220.459Z" fill="#ECF3FA"/>
<path fill-rule="evenodd" clip-rule="evenodd" d="M70.0034 225.047L68.4856 224.172V229.854L70.0034 230.733V225.047Z" fill="#ECF3FA"/>
<path fill-rule="evenodd" clip-rule="evenodd" d="M72.2126 224.268L70.6948 223.393V231.232L72.2126 232.112V224.268Z" fill="#ECF3FA"/>
<path fill-rule="evenodd" clip-rule="evenodd" d="M74.4159 228.942L72.9028 228.067V232.609L74.4159 233.489V228.942Z" fill="#ECF3FA"/>
<path fill-rule="evenodd" clip-rule="evenodd" d="M76.631 226.882L75.1133 226.007V233.978L76.631 234.858V226.882Z" fill="#ECF3FA"/>
<path fill-rule="evenodd" clip-rule="evenodd" d="M78.839 231.471L77.3213 230.595V235.359L78.839 236.239V231.471Z" fill="#ECF3FA"/>
<path fill-rule="evenodd" clip-rule="evenodd" d="M81.0496 229.981L79.5317 229.106V236.717L81.0496 237.597V229.981Z" fill="#ECF3FA"/>
<path fill-rule="evenodd" clip-rule="evenodd" d="M83.259 233.496L81.7412 232.621V238.11L83.259 238.989V233.496Z" fill="#ECF3FA"/>
<path fill-rule="evenodd" clip-rule="evenodd" d="M85.467 232.111L83.9492 231.236V239.486L85.467 240.365V232.111Z" fill="#ECF3FA"/>
<path fill-rule="evenodd" clip-rule="evenodd" d="M154.644 272.649L161.469 276.587V281.255L154.644 277.297V272.649Z" fill="#ECF3FA"/>
<path fill-rule="evenodd" clip-rule="evenodd" d="M154.644 278.276L161.469 282.214V284.234L154.644 280.277V278.276Z" fill="#ECF3FA"/>
<path fill-rule="evenodd" clip-rule="evenodd" d="M164.999 278.615L163.481 277.739V284.95L164.999 285.829V278.615Z" fill="#ECF3FA"/>
<path fill-rule="evenodd" clip-rule="evenodd" d="M167.207 278.302L165.689 277.427V286.339L167.207 287.219V278.302Z" fill="#ECF3FA"/>
<path fill-rule="evenodd" clip-rule="evenodd" d="M169.417 285.332L167.899 284.456V287.703L169.417 288.582V285.332Z" fill="#ECF3FA"/>
<path fill-rule="evenodd" clip-rule="evenodd" d="M171.622 282.111L170.109 281.236V289.075L171.622 289.954V282.111Z" fill="#ECF3FA"/>
<path fill-rule="evenodd" clip-rule="evenodd" d="M173.834 286.786L172.317 285.911V290.453L173.834 291.332V286.786Z" fill="#ECF3FA"/>
<path fill-rule="evenodd" clip-rule="evenodd" d="M176.045 284.726L174.527 283.85V291.822L176.045 292.701V284.726Z" fill="#ECF3FA"/>
<path fill-rule="evenodd" clip-rule="evenodd" d="M178.253 289.314L176.735 288.438V293.202L178.253 294.082V289.314Z" fill="#ECF3FA"/>
<path fill-rule="evenodd" clip-rule="evenodd" d="M180.464 287.842L178.946 286.967V294.578L180.464 295.458V287.842Z" fill="#ECF3FA"/>
<path fill-rule="evenodd" clip-rule="evenodd" d="M182.672 291.339L181.154 290.464V295.953L182.672 296.833V291.339Z" fill="#ECF3FA"/>
<path fill-rule="evenodd" clip-rule="evenodd" d="M184.882 289.954L183.364 289.079V297.328L184.882 298.208V289.954Z" fill="#ECF3FA"/>
<path fill-rule="evenodd" clip-rule="evenodd" d="M232.163 275.298L225.337 279.236V281.256L232.163 277.299V275.298Z" fill="#ECF3FA"/>
<path fill-rule="evenodd" clip-rule="evenodd" d="M232.163 278.276L225.337 282.214V284.234L232.163 280.277V278.276Z" fill="#ECF3FA"/>
<path fill-rule="evenodd" clip-rule="evenodd" d="M223.129 278.615L224.647 277.739V284.95L223.129 285.829V278.615Z" fill="#ECF3FA"/>
<path fill-rule="evenodd" clip-rule="evenodd" d="M218.711 278.302L220.229 277.427V286.339L218.711 287.219V278.302Z" fill="#ECF3FA"/>
<path fill-rule="evenodd" clip-rule="evenodd" d="M216.5 285.332L218.018 284.456V287.703L216.5 288.582V285.332Z" fill="#ECF3FA"/>
<path fill-rule="evenodd" clip-rule="evenodd" d="M214.291 282.111L215.809 281.236V289.075L214.291 289.954V282.111Z" fill="#ECF3FA"/>
<path fill-rule="evenodd" clip-rule="evenodd" d="M212.083 286.786L213.601 285.911V290.453L212.083 291.332V286.786Z" fill="#ECF3FA"/>
<path fill-rule="evenodd" clip-rule="evenodd" d="M209.873 284.726L211.391 283.85V291.822L209.873 292.701V284.726Z" fill="#ECF3FA"/>
<path fill-rule="evenodd" clip-rule="evenodd" d="M207.665 289.314L209.178 288.438V293.202L207.665 294.082V289.314Z" fill="#ECF3FA"/>
<path fill-rule="evenodd" clip-rule="evenodd" d="M205.456 287.842L206.973 286.967V294.578L205.456 295.458V287.842Z" fill="#ECF3FA"/>
<path fill-rule="evenodd" clip-rule="evenodd" d="M203.246 291.339L204.764 290.464V295.953L203.246 296.833V291.339Z" fill="#ECF3FA"/>
<path fill-rule="evenodd" clip-rule="evenodd" d="M201.037 289.954L202.555 289.079V297.328L201.037 298.208V289.954Z" fill="#ECF3FA"/>
<path d="M335.686 145.427L340.307 142.75V128.776L338.209 129.985V141.599L335.686 143.063V131.458L333.588 132.667V146.641L335.686 145.432V145.427Z" fill="#ECF3FA"/>
<path d="M342.424 127.301V141.275L344.518 140.066V126.092L342.424 127.301Z" fill="#ECF3FA"/>
<path d="M335.686 202.145L340.307 199.468V185.494L338.209 186.703V198.318L335.686 199.781V188.176L333.588 189.385V203.359L335.686 202.15V202.145Z" fill="#ECF3FA"/>
<path d="M342.424 197.993L344.518 196.784V182.81L342.424 184.019V197.993Z" fill="#ECF3FA"/>
<path d="M338.209 160.256L335.686 161.719V152.712L338.209 151.173V160.256ZM342.835 145.97L340.307 147.433V147.433L338.209 148.641V148.647L333.588 151.324V165.298L335.686 164.089V164.083L340.307 161.407V149.897L342.835 148.359V159.938L344.928 158.73V144.756L342.835 145.964V145.97Z" fill="#ECF3FA"/>
<path d="M338.209 216.975L335.686 218.437V214.954L338.209 213.464V216.975ZM342.835 208.073L340.307 209.536V204.151L338.209 205.359V210.75L335.686 212.212V206.833L333.588 208.042V222.016L335.686 220.807V220.802L340.307 218.125V212.228L342.835 210.738V216.656L344.928 215.448V201.474L342.835 202.682V208.073Z" fill="#ECF3FA"/>
<path d="M125.925 179.476L127.414 178.608L127.428 174.448L125.935 175.316L125.925 179.476Z" fill="#4B4FA0"/>
<path d="M130.208 173.189C130.169 173.199 130.125 173.207 130.077 173.209C129.971 173.213 129.85 173.201 129.719 173.175L129.71 173.172C129.584 173.146 129.444 173.104 129.294 173.049L129.265 173.038C129.115 172.983 128.956 172.913 128.786 172.83L128.757 172.817C128.579 172.728 128.385 172.624 128.177 172.505L127.414 172.062L127.423 168.475L125.935 169.344L125.925 172.931L126.689 173.373C126.78 173.426 126.867 173.477 126.954 173.524C127.056 173.578 127.153 173.628 127.244 173.674L127.269 173.685L127.298 173.698C127.36 173.729 127.423 173.759 127.481 173.786C127.549 173.817 127.617 173.845 127.679 173.871L127.776 173.907L127.8 173.917L127.849 173.935C127.902 173.953 127.95 173.969 127.999 173.984C128.042 173.998 128.086 174.01 128.129 174.02L128.221 174.041L128.231 174.043L128.245 174.047L128.351 174.064L128.453 174.075L128.545 174.078L128.588 174.077L128.622 174.075L128.69 174.065L128.719 174.057L128.743 174.051L128.772 174.044L128.859 174.002L130.348 173.134L130.232 173.182L130.208 173.189Z" fill="#4B4FA0"/>
<path d="M133.412 173.097L133.407 173.051L133.403 173.014C133.398 172.967 133.398 172.92 133.393 172.873C133.383 172.803 133.378 172.733 133.369 172.663C133.364 172.615 133.354 172.567 133.349 172.519L133.345 172.493L133.34 172.464C133.33 172.4 133.32 172.336 133.306 172.273C133.296 172.212 133.282 172.151 133.272 172.09L133.253 172.002L133.243 171.972L133.229 171.915C133.214 171.858 133.2 171.802 133.185 171.746C133.171 171.693 133.156 171.64 133.142 171.586L133.113 171.496L133.103 171.475L133.093 171.434C133.074 171.386 133.059 171.338 133.04 171.29C133.026 171.245 133.006 171.2 132.992 171.156L132.939 171.026L132.929 171.004L132.924 170.992L132.885 170.9L132.827 170.773C132.808 170.728 132.784 170.683 132.76 170.638L132.711 170.541L132.702 170.52L132.682 170.487C132.644 170.409 132.6 170.332 132.557 170.256L132.484 170.144C132.46 170.1 132.431 170.056 132.402 170.012L132.339 169.913C132.286 169.832 132.228 169.752 132.17 169.673L132.141 169.636C132.102 169.579 132.059 169.522 132.01 169.466C131.962 169.403 131.914 169.342 131.865 169.28L131.817 169.226L131.783 169.188L131.706 169.096C131.648 169.031 131.59 168.967 131.532 168.904L131.455 168.82L131.406 168.769L131.339 168.699C131.266 168.626 131.194 168.554 131.121 168.482L131.049 168.417L130.976 168.35L130.865 168.247C130.778 168.164 130.681 168.082 130.585 168L130.58 167.994L130.555 167.975C130.459 167.896 130.367 167.818 130.266 167.74L130.154 167.654L130.029 167.557L129.913 167.471C129.83 167.409 129.744 167.348 129.656 167.288L129.555 167.214L129.521 167.189C129.376 167.091 129.226 166.993 129.076 166.896L129.047 166.88C128.999 166.848 128.946 166.818 128.898 166.786C128.791 166.719 128.68 166.651 128.569 166.585L128.443 166.511C128.293 166.425 128.134 166.337 127.97 166.247L127.912 166.214L127.834 166.172C127.733 166.117 127.626 166.061 127.515 166.004C127.467 165.979 127.423 165.955 127.375 165.93C127.215 165.848 127.056 165.765 126.887 165.68L126.853 165.665C126.66 165.568 126.466 165.477 126.273 165.392C126.22 165.367 126.167 165.347 126.113 165.323C126.05 165.295 125.983 165.268 125.92 165.242C125.852 165.212 125.775 165.178 125.707 165.15C125.538 165.082 125.369 165.019 125.205 164.96L123.716 165.829C123.948 165.911 124.19 166.008 124.431 166.11C124.494 166.137 124.557 166.163 124.625 166.192C124.876 166.302 125.132 166.418 125.398 166.549C125.567 166.634 125.727 166.717 125.886 166.798C125.934 166.823 125.978 166.848 126.026 166.872C126.133 166.929 126.239 166.985 126.345 167.041C126.389 167.066 126.437 167.091 126.481 167.115C126.645 167.205 126.805 167.294 126.954 167.38C127.109 167.47 127.259 167.562 127.409 167.654C127.457 167.685 127.51 167.717 127.559 167.749C127.733 167.858 127.902 167.969 128.061 168.082L128.168 168.156C128.293 168.245 128.419 168.335 128.54 168.426L128.666 168.522C128.801 168.629 128.936 168.735 129.067 168.844L129.091 168.863C129.226 168.98 129.357 169.098 129.487 169.218L129.56 169.286C129.681 169.401 129.802 169.518 129.913 169.637L129.961 169.688C130.077 169.809 130.188 169.932 130.295 170.057L130.328 170.095C130.439 170.23 130.551 170.366 130.652 170.504C130.744 170.628 130.831 170.754 130.913 170.881C130.942 170.925 130.966 170.968 130.995 171.012C131.073 171.136 131.145 171.261 131.213 171.389L131.223 171.409C131.3 171.557 131.372 171.707 131.435 171.86L131.44 171.872C131.503 172.027 131.561 172.184 131.614 172.344L131.619 172.365C131.672 172.521 131.716 172.68 131.754 172.841L131.759 172.87C131.798 173.031 131.832 173.195 131.856 173.362L131.861 173.387C131.885 173.55 131.899 173.715 131.914 173.882L131.919 173.92C131.928 174.095 131.933 174.273 131.933 174.453C131.933 174.591 131.928 174.722 131.923 174.848L131.919 174.909C131.909 175.028 131.894 175.141 131.88 175.25L131.875 175.304C131.856 175.411 131.836 175.514 131.812 175.61L131.803 175.655C131.778 175.754 131.749 175.849 131.716 175.936L131.711 175.949C131.682 176.027 131.648 176.1 131.614 176.169L131.571 176.246L131.498 176.354C131.46 176.416 131.411 176.473 131.363 176.525L131.3 176.592C131.227 176.659 131.155 176.72 131.073 176.769L132.561 175.901C132.644 175.852 132.721 175.791 132.789 175.723L132.852 175.657C132.9 175.604 132.948 175.547 132.992 175.485L133.026 175.442L133.059 175.377L133.103 175.301L133.132 175.247C133.156 175.194 133.18 175.138 133.2 175.081L133.204 175.068L133.209 175.064C133.229 175.007 133.248 174.947 133.267 174.886L133.291 174.787L133.306 174.742L133.316 174.703C133.33 174.642 133.34 174.578 133.354 174.513L133.364 174.436L133.374 174.381L133.383 174.311C133.388 174.241 133.398 174.169 133.403 174.094L133.407 174.041L133.412 173.98L133.417 173.859C133.422 173.775 133.422 173.688 133.427 173.6V173.585C133.427 173.502 133.422 173.42 133.422 173.338C133.417 173.257 133.417 173.177 133.412 173.097Z" fill="#4B4FA0"/>
<path d="M138.677 172.668L136.251 171.263L134.762 172.131L137.189 173.537L137.16 183.564L141.935 186.33L141.93 188.732L143.419 187.864L143.424 185.462L138.648 182.695L138.677 172.668Z" fill="#4B4FA0"/>
<path d="M148.712 189.459C148.606 189.741 148.504 190.025 148.398 190.309C148.263 190.686 148.132 191.056 148.016 191.414L149.505 190.546C149.621 190.187 149.751 189.817 149.892 189.441C150.027 189.064 150.167 188.687 150.302 188.316L148.814 189.184C148.78 189.276 148.746 189.367 148.712 189.459Z" fill="#4B4FA0"/>
<path d="M150.013 185.16C150.182 184.764 150.331 184.402 150.467 184.076C150.597 183.745 150.718 183.453 150.825 183.202C150.873 183.086 150.916 182.982 150.955 182.886L150.994 182.796C151.008 182.751 151.028 182.703 151.042 182.664L151.066 182.603L149.573 183.471C149.553 183.527 149.529 183.597 149.5 183.666L149.466 183.754C149.428 183.85 149.384 183.955 149.336 184.071C149.229 184.321 149.109 184.613 148.978 184.944C148.838 185.271 148.688 185.633 148.524 186.029C148.359 186.422 148.19 186.838 148.016 187.278L151.105 189.065L152.594 188.196L149.51 186.409C149.679 185.97 149.848 185.553 150.013 185.16Z" fill="#4B4FA0"/>
<path d="M154.455 189.258L154.43 189.171L154.416 189.123C154.358 188.902 154.295 188.685 154.232 188.468C154.203 188.362 154.174 188.255 154.145 188.15C154.053 187.831 153.966 187.515 153.875 187.204C153.72 186.653 153.56 186.116 153.406 185.587C153.353 185.423 153.304 185.262 153.256 185.099C153.188 184.867 153.116 184.631 153.048 184.403C152.98 184.181 152.913 183.961 152.845 183.743C152.507 182.642 152.154 181.556 151.806 180.489L149.505 179.157L148.016 180.025L150.317 181.357C150.665 182.424 151.013 183.511 151.356 184.611C151.492 185.055 151.632 185.512 151.767 185.971C151.815 186.132 151.864 186.29 151.912 186.453C152.072 186.983 152.226 187.521 152.386 188.072C152.478 188.383 152.565 188.699 152.656 189.018C152.685 189.123 152.714 189.23 152.743 189.336C152.806 189.553 152.864 189.77 152.927 189.992C152.942 190.036 152.951 190.082 152.966 190.127C153.125 190.705 153.285 191.296 153.449 191.904C153.812 193.25 154.194 194.712 154.595 196.286L156.083 195.418C155.682 193.844 155.3 192.382 154.938 191.035C154.774 190.428 154.614 189.837 154.455 189.258Z" fill="#4B4FA0"/>
<path d="M164.544 194.566C165.022 194.053 165.506 193.566 165.999 193.108C166.487 192.651 166.961 192.24 167.42 191.876C167.879 191.511 168.271 191.229 168.604 191.027L168.609 189.088L160.551 184.421L159.062 185.289L167.12 189.956L167.115 191.895C166.782 192.098 166.385 192.38 165.931 192.744C165.472 193.108 164.998 193.519 164.505 193.977C164.017 194.434 163.534 194.921 163.055 195.435C162.572 195.948 162.146 196.455 161.769 196.954L167.265 200.137L167.26 202.486L168.749 201.617L168.754 199.268L163.258 196.086C163.635 195.586 164.065 195.08 164.544 194.566Z" fill="#4B4FA0"/>
<path d="M170.718 203.497C170.645 203.697 170.568 203.898 170.495 204.1V204.108L170.481 204.144C170.346 204.506 170.225 204.865 170.109 205.212L171.597 204.343C171.718 203.986 171.844 203.614 171.984 203.24C172.12 202.86 172.26 202.486 172.4 202.115L170.906 202.983C170.843 203.154 170.781 203.325 170.718 203.497Z" fill="#4B4FA0"/>
<path d="M179.239 204.836C179.079 204.244 178.924 203.669 178.765 203.104L178.736 202.994L178.717 202.93C178.659 202.713 178.601 202.502 178.543 202.289C178.509 202.179 178.48 202.066 178.446 201.957C178.359 201.635 178.267 201.317 178.175 201.005C178.016 200.443 177.856 199.895 177.697 199.356C177.643 199.18 177.59 199.011 177.537 198.837C177.465 198.589 177.392 198.337 177.315 198.094C177.257 197.909 177.204 197.726 177.146 197.544C176.802 196.441 176.459 195.356 176.106 194.289L173.806 192.956L172.317 193.824L174.618 195.158C174.97 196.225 175.314 197.31 175.657 198.412C175.787 198.832 175.918 199.268 176.048 199.704C176.101 199.877 176.155 200.048 176.208 200.224C176.367 200.763 176.527 201.311 176.686 201.873C176.778 202.185 176.865 202.503 176.957 202.825C176.986 202.935 177.02 203.047 177.049 203.158C177.112 203.37 177.17 203.582 177.228 203.799C177.247 203.856 177.262 203.915 177.276 203.973C177.431 204.537 177.59 205.113 177.75 205.704C178.112 207.051 178.494 208.513 178.895 210.085L180.384 209.217C179.983 207.644 179.601 206.183 179.239 204.836Z" fill="#4B4FA0"/>
<path d="M174.313 198.959C174.477 198.563 174.627 198.201 174.758 197.873C174.898 197.544 175.014 197.251 175.12 197.001C175.227 196.753 175.304 196.552 175.362 196.401L173.873 197.27C173.815 197.42 173.738 197.621 173.632 197.87C173.525 198.12 173.404 198.412 173.269 198.741C173.138 199.069 172.989 199.431 172.819 199.827C172.737 200.024 172.655 200.227 172.568 200.434C172.486 200.643 172.399 200.857 172.317 201.077L175.401 202.863L176.889 201.995L173.806 200.208C173.975 199.768 174.144 199.352 174.313 198.959Z" fill="#4B4FA0"/>
<path d="M128.825 174.08C128.395 174.098 127.762 173.863 126.925 173.377L126.162 172.934L126.171 169.347C126.292 169.41 126.442 169.483 126.611 169.569C126.785 169.657 126.959 169.751 127.138 169.854C127.486 170.057 127.81 170.271 128.1 170.493C128.39 170.713 128.637 170.953 128.84 171.208C129.043 171.462 129.192 171.734 129.304 172.026C129.41 172.315 129.463 172.633 129.463 172.981C129.463 173.696 129.246 174.065 128.825 174.08ZM126.988 167.377C126.543 167.119 126.022 166.842 125.432 166.547C124.837 166.254 124.281 166.014 123.75 165.826L123.716 178.075L126.142 179.48L126.152 175.32L126.916 175.763C128.535 176.699 129.777 177.087 130.652 176.929C131.527 176.772 131.962 175.943 131.967 174.45C131.972 172.966 131.547 171.651 130.686 170.502C129.831 169.349 128.598 168.309 126.988 167.377Z" fill="#6469AF"/>
<path d="M137.227 173.533L134.801 172.128L134.762 184.557L141.969 188.729L141.974 186.327L137.198 183.561L137.227 173.533Z" fill="#6469AF"/>
<path d="M149.685 187.282C149.859 186.842 150.028 186.425 150.193 186.033C150.357 185.637 150.507 185.274 150.647 184.948C150.777 184.617 150.898 184.325 151.005 184.075C151.111 183.828 151.188 183.627 151.242 183.475C151.309 183.69 151.391 183.981 151.498 184.353C151.599 184.725 151.72 185.153 151.86 185.642C151.996 186.129 152.145 186.666 152.295 187.244C152.45 187.826 152.61 188.435 152.774 189.069L149.685 187.282ZM154.524 188.07C154.18 186.863 153.837 185.712 153.494 184.609C153.151 183.508 152.803 182.422 152.455 181.355L150.154 180.023C149.786 180.674 149.429 181.353 149.091 182.06C148.752 182.767 148.404 183.52 148.056 184.324C147.698 185.125 147.341 185.989 146.978 186.915C146.611 187.839 146.219 188.854 145.808 189.957L148.332 191.417C148.448 191.059 148.578 190.689 148.713 190.312C148.854 189.935 148.989 189.559 149.129 189.187L153.339 191.626C153.475 192.157 153.615 192.688 153.75 193.225C153.886 193.758 154.016 194.279 154.132 194.777L156.733 196.284C156.332 194.71 155.95 193.248 155.587 191.901C155.225 190.555 154.872 189.278 154.524 188.07Z" fill="#6469AF"/>
<path d="M161.131 195.432C161.609 194.919 162.093 194.431 162.581 193.974C163.074 193.516 163.548 193.106 164.007 192.741C164.461 192.377 164.858 192.095 165.191 191.893L165.196 189.954L157.138 185.286L157.133 187.639L161.972 190.441C161.566 190.767 161.126 191.151 160.652 191.59C160.179 192.026 159.71 192.494 159.251 192.989C158.791 193.484 158.351 193.982 157.931 194.487C157.506 194.989 157.148 195.461 156.858 195.904L156.853 197.572L165.336 202.483L165.341 200.134L159.845 196.951C160.222 196.452 160.648 195.946 161.131 195.432Z" fill="#6469AF"/>
<path d="M171.781 201.082C171.95 200.642 172.119 200.226 172.284 199.833C172.453 199.437 172.603 199.074 172.733 198.747C172.868 198.417 172.989 198.125 173.096 197.875C173.202 197.627 173.279 197.426 173.337 197.276C173.395 197.488 173.482 197.781 173.589 198.153C173.69 198.526 173.811 198.954 173.951 199.442C174.087 199.93 174.236 200.467 174.386 201.044C174.541 201.625 174.701 202.234 174.865 202.869L171.781 201.082ZM177.678 205.701C177.316 204.353 176.963 203.077 176.615 201.87C176.272 200.664 175.923 199.51 175.585 198.409C175.242 197.307 174.899 196.222 174.546 195.155L172.245 193.822C171.878 194.473 171.525 195.153 171.182 195.86C170.843 196.567 170.495 197.319 170.142 198.122C169.794 198.925 169.432 199.789 169.064 200.713C168.697 201.638 168.31 202.654 167.899 203.756L170.423 205.216C170.539 204.859 170.669 204.487 170.809 204.113C170.945 203.733 171.085 203.359 171.22 202.988L175.43 205.426C175.571 205.957 175.706 206.488 175.841 207.025C175.977 207.559 176.107 208.079 176.223 208.577L178.824 210.082C178.422 208.51 178.041 207.048 177.678 205.701Z" fill="#6469AF"/>
<path fill-rule="evenodd" clip-rule="evenodd" d="M30.1307 129.306V137.558L17.6741 130.293V122.041L30.1307 129.306Z" fill="#524556"/>
<path fill-rule="evenodd" clip-rule="evenodd" d="M142.795 195.789V204.041L130.343 196.776V188.524L142.795 195.789Z" fill="#524556"/>
<path fill-rule="evenodd" clip-rule="evenodd" d="M214.291 211.89V220.142L226.748 212.877V204.625L214.291 211.89Z" fill="#3B313F"/>
<path fill-rule="evenodd" clip-rule="evenodd" d="M103.035 182.527V190.868L90.5781 183.602V175.262L103.035 182.527Z" fill="#524556"/>
<path fill-rule="evenodd" clip-rule="evenodd" d="M69.8973 173.818V182.159L57.4407 174.894V166.553L69.8973 173.818Z" fill="#524556"/>
<path fill-rule="evenodd" clip-rule="evenodd" d="M36.7537 166.097V174.438L24.3018 167.173V158.832L36.7537 166.097Z" fill="#524556"/>
<path fill-rule="evenodd" clip-rule="evenodd" d="M106.042 206.149V214.489L118.498 221.755V213.414L106.042 206.149Z" fill="#524556"/>
<path fill-rule="evenodd" clip-rule="evenodd" d="M276.149 207.839V216.18L288.606 208.914V200.574L276.149 207.839Z" fill="#3B313F"/>
<path fill-rule="evenodd" clip-rule="evenodd" d="M91.9884 208.116V216.456L79.5317 209.191V200.851L91.9884 208.116Z" fill="#524556"/>
<path fill-rule="evenodd" clip-rule="evenodd" d="M243.011 238.068V246.408L255.468 239.143V230.803L243.011 238.068Z" fill="#3B313F"/>
<path fill-rule="evenodd" clip-rule="evenodd" d="M180.356 270.946V277.85L167.899 270.585V263.681L180.356 270.946Z" fill="#524556"/>
<path fill-rule="evenodd" clip-rule="evenodd" d="M67.6867 205.38V212.285L55.23 205.02V198.115L67.6867 205.38Z" fill="#524556"/>
<path fill-rule="evenodd" clip-rule="evenodd" d="M160.473 227.714V236.055L148.016 228.79V220.449L160.473 227.714Z" fill="#524556"/>
<path fill-rule="evenodd" clip-rule="evenodd" d="M218.711 231.143V239.483L231.168 232.218V223.877L218.711 231.143Z" fill="#3B313F"/>
<path fill-rule="evenodd" clip-rule="evenodd" d="M258.475 197.261V205.601L270.932 198.336V189.995L258.475 197.261Z" fill="#3B313F"/>
<path fill-rule="evenodd" clip-rule="evenodd" d="M14.6671 130.241V138.582L2.21045 131.317V122.976L14.6671 130.241Z" fill="#524556"/>
<path d="M142.396 62.8027C145.576 60.9499 147.418 58.9521 147.921 56.8118C148.428 54.6696 147.553 51.8844 145.291 48.4552C142.961 44.8593 141.69 42.5706 141.453 41.5883C141.226 40.6059 141.569 39.8436 142.492 39.3049C143.348 38.805 144.45 38.6062 145.789 38.7047C147.123 38.805 148.621 39.3379 150.289 40.3028C153.508 42.1691 156.327 44.9732 158.743 48.7157L172.491 45.2589C169.644 40.9899 165.767 37.4328 160.861 34.5923C155.302 31.3726 149.724 29.5528 144.116 29.1267C138.509 28.6999 133.535 29.7516 129.199 32.2818C126.879 33.6331 125.245 35.0204 124.293 36.4412C123.341 37.8633 122.988 39.4034 123.22 41.0636C123.452 42.7214 124.424 44.852 126.115 47.4573C128.005 50.325 129.098 52.1317 129.397 52.8765C129.692 53.6218 129.775 54.239 129.649 54.7273C129.523 55.2156 129.137 55.6462 128.489 56.0224C127.459 56.6227 126.173 56.8585 124.631 56.7271C123.089 56.5956 121.373 55.9783 119.469 54.8761C117.265 53.5985 115.191 51.995 113.253 50.0588C111.31 48.1231 109.743 46.0871 108.545 43.9449L97.2046 50.5567C98.4227 52.5352 99.8825 54.2739 101.579 55.7699C103.281 57.2658 105.712 58.9274 108.868 60.755C112.649 62.9452 116.574 64.4915 120.639 65.3847C124.714 66.2803 128.619 66.5003 132.38 66.0426C136.136 65.5874 139.476 64.5047 142.396 62.8027Z" fill="white"/>
<path d="M184.525 72.4066L178.831 78.0982L168.748 72.2564C178.101 69.0875 184.322 66.9375 187.406 65.8044C190.49 64.6716 192.685 63.8435 193.97 63.3169C193.008 64.131 191.5 65.5285 189.455 67.5146C187.406 69.4982 185.767 71.129 184.525 72.4066ZM193.11 53.7922L130.343 72.4071L144.419 80.559L155.648 76.8017L171.053 85.7236L164.557 92.2221L178.565 100.335L210.202 63.6912L193.11 53.7922Z" fill="white"/>
<path d="M208.663 104.735L245.487 83.2682L232.678 75.8493L185.572 103.309L216.639 121.302L226.92 115.31L208.663 104.735Z" fill="white"/>
<path d="M288.173 120.494L298.386 114.54L270.235 98.2355L223.129 125.695L251.281 141.999L261.659 135.951L246.317 127.065L255.206 121.881L269.413 130.109L279.627 124.155L265.42 115.928L272.83 111.608L288.173 120.494Z" fill="white"/>
<path d="M2.21068 16.0388L7.69706 12.8706L7.70669 12.8764C9.4856 11.7631 11.8251 11.5589 13.9036 12.7605L193.861 116.881C197.849 119.189 200.309 123.458 200.309 128.078V173.195C200.309 174.807 199.405 176.1 198.163 176.762V176.769L192.638 179.964L191.758 177.66L193.353 176.175L9.19534 69.6234C6.51735 68.0723 4.8642 65.2041 4.8642 62.0999V17.9968C4.8642 17.9109 4.8787 17.8305 4.88357 17.7462L2.21045 16.0388H2.21068Z" fill="white"/>
<path d="M181.154 133.437L200.228 122.4C199.121 120.126 197.352 118.188 195.094 116.881L192.968 115.652L181.163 122.503L181.154 133.437Z" fill="#B8BCFC"/>
<path d="M200.785 127.443L192.2 132.424V175.22L193.853 176.177L192.258 177.661L193.138 179.965L198.663 176.771V176.764C199.905 176.101 200.809 174.808 200.809 173.196V128.079C200.809 127.866 200.795 127.654 200.785 127.443Z" fill="#B8BCFC"/>
<path d="M9.03898 15.9838L188.996 120.104C192.984 122.412 195.444 126.681 195.444 131.301V176.419C195.444 179.532 192.085 181.478 189.397 179.923L4.33103 72.8467C1.65315 71.2961 0 68.4279 0 65.3237V21.2201C0 16.5681 5.02234 13.6597 9.0391 15.9838H9.03898Z" fill="#C9DAFC"/>
<path fill-rule="evenodd" clip-rule="evenodd" d="M189.91 173.716L4.41846 66.3908V19.9448L189.91 127.267V173.716ZM176.506 140.627C175.979 140.627 175.52 140.786 175.129 141.103C174.234 141.83 173.78 143.346 173.775 145.652C173.77 147.865 174.22 149.887 175.133 151.722C176.042 153.555 177.28 154.926 178.841 155.832C179.779 156.374 180.596 156.645 181.292 156.645C181.828 156.645 182.292 156.484 182.689 156.162C183.597 155.421 184.052 153.906 184.061 151.608C184.066 149.397 183.602 147.375 182.669 145.544C181.736 143.711 180.475 142.336 178.884 141.413C177.981 140.889 177.188 140.627 176.506 140.627ZM174.829 130.228L163.702 146.811L167.752 149.157L178.88 132.575L174.829 130.228ZM146.58 114.36C145.759 114.36 145.077 114.644 144.521 115.212C143.337 116.437 142.737 119.091 142.723 123.18C142.713 127.079 143.308 130.368 144.512 133.044C145.715 135.72 147.508 137.75 149.896 139.131C151.206 139.891 152.337 140.271 153.29 140.271C154.102 140.271 154.783 139.993 155.33 139.436C156.519 138.228 157.118 135.591 157.128 131.523C157.142 127.592 156.543 124.282 155.334 121.592C154.126 118.902 152.332 116.868 149.959 115.495C148.654 114.738 147.528 114.36 146.58 114.36ZM161.367 122.688C160.835 122.688 160.376 122.847 159.984 123.166C159.09 123.892 158.636 125.409 158.631 127.715C158.626 129.936 159.076 131.965 159.989 133.8C160.898 135.634 162.135 137.005 163.697 137.91C164.639 138.455 165.456 138.728 166.157 138.728C166.694 138.728 167.158 138.566 167.549 138.243C168.458 137.502 168.908 135.977 168.917 133.671C168.922 131.46 168.458 129.438 167.525 127.606C166.592 125.774 165.331 124.396 163.74 123.474C162.836 122.95 162.044 122.688 161.367 122.688ZM131.228 105.969C131.175 105.969 131.122 105.97 131.069 105.971C129.517 106.016 128.338 106.802 127.535 108.327C126.738 109.853 126.332 112.219 126.322 115.429C126.312 118.594 126.97 121.443 128.294 123.972C129.614 126.503 131.455 128.451 133.81 129.815C135.211 130.628 136.42 131.034 137.435 131.034C138.02 131.034 138.542 130.897 139.001 130.622C140.238 129.875 140.867 128.241 140.872 125.716C140.881 123.367 140.398 121.251 139.422 119.37C138.445 117.487 137.072 116.032 135.298 115.005C134.496 114.539 133.79 114.306 133.181 114.306C132.417 114.306 131.808 114.67 131.349 115.397L131.19 115.302C131.272 113.282 131.76 112.074 132.645 111.674C132.891 111.562 133.176 111.505 133.49 111.505C134.312 111.505 135.376 111.881 136.671 112.634C137.739 113.251 138.725 113.921 139.634 114.648L139.649 109.79C138.566 108.985 137.618 108.347 136.811 107.877C134.612 106.605 132.751 105.969 131.228 105.969ZM107.132 113.152V114.567L114.121 118.629V117.213L107.132 113.152ZM107.132 110.295V111.711L118.786 118.481V117.066L107.132 110.295ZM84.4662 91.4717V106.188L105.223 118.196V103.48L84.4662 91.4717ZM107.132 107.439V108.854L118.786 115.625V114.209L107.132 107.439ZM107.132 104.582V105.997L118.786 112.768V111.352L107.132 104.582ZM107.132 94.877V96.2924L114.121 100.353V98.938L107.132 94.877ZM107.132 92.0202V93.4355L118.786 100.206V98.7906L107.132 92.0202ZM84.4662 73.1968V87.9127L105.223 99.921V85.205L84.4662 73.1968ZM107.132 89.1632V90.5785L118.786 97.349V95.9337L107.132 89.1632ZM69.9021 91.6279V93.0432L76.8917 97.1046V95.6893L69.9021 91.6279ZM69.9021 88.7714V90.1867L81.5563 96.9573V95.5414L69.9021 88.7714ZM47.2365 69.9475V84.6634L67.9927 96.6727V81.9562L47.2365 69.9475ZM107.132 86.3067V87.722L118.786 94.4925V93.0772L107.132 86.3067ZM69.9021 85.9144V87.3299L81.5563 94.1003V92.6849L69.9021 85.9144ZM69.9021 83.0574V84.4729L81.5563 91.2434V89.8279L69.9021 83.0574ZM69.9021 73.3524V74.7678L76.8917 78.8293V77.4143L69.9021 73.3524ZM69.9021 70.4954V71.9113L81.5563 78.6818V77.2664L69.9021 70.4954ZM47.2365 51.6725V66.3885L67.9927 78.3972V63.6808L47.2365 51.6725ZM69.9021 67.6389V69.0544L81.5563 75.8253V74.4095L69.9021 67.6389ZM32.6723 70.0726V71.488L39.6619 75.5494V74.1341L32.6723 70.0726ZM32.6723 67.2157V68.631L44.3265 75.4021V73.9862L32.6723 67.2157ZM10.0067 48.3923V63.1081L30.763 75.1169V60.4011L10.0067 48.3923ZM69.9021 64.7819V66.1974L81.5563 72.9683V71.553L69.9021 64.7819ZM32.6723 64.3587V65.7741L44.3265 72.5451V71.1297L32.6723 64.3587ZM32.6723 61.5017V62.9175L44.3265 69.688V68.2727L32.6723 61.5017ZM32.6723 51.7971V53.2126L39.6619 57.274V55.8586L32.6723 51.7971ZM32.6723 48.9402V50.3555L44.3265 57.1266V55.7112L32.6723 48.9402ZM10.0067 30.1174V44.8332L30.763 56.8414V42.1256L10.0067 30.1174ZM32.6723 46.0837V47.4991L44.3265 54.2701V52.8543L32.6723 46.0837ZM32.6723 43.2268V44.6421L44.3265 51.4131V49.9978L32.6723 43.2268ZM179.227 152.207C179.131 152.207 179.024 152.174 178.908 152.105C178.56 151.905 178.304 151.489 178.135 150.855C177.961 150.219 177.879 149.299 177.879 148.094C177.884 146.909 177.971 146.092 178.14 145.645C178.256 145.337 178.415 145.183 178.618 145.183C178.715 145.183 178.817 145.215 178.928 145.28C179.319 145.506 179.59 145.972 179.735 146.672C179.885 147.371 179.957 148.245 179.953 149.295C179.953 150.343 179.875 151.129 179.721 151.657C179.614 152.024 179.45 152.207 179.227 152.207ZM150.486 134.361C150.312 134.361 150.118 134.3 149.911 134.177C149.243 133.792 148.77 133.03 148.494 131.892C148.214 130.754 148.079 128.886 148.083 126.284C148.093 123.665 148.238 121.942 148.523 121.12C148.717 120.56 148.997 120.28 149.369 120.28C149.543 120.28 149.737 120.341 149.949 120.464C150.611 120.848 151.08 121.633 151.361 122.818C151.641 124.003 151.776 125.872 151.767 128.418C151.762 130.955 151.617 132.646 151.337 133.493C151.148 134.072 150.863 134.361 150.486 134.361ZM164.069 134.264C163.977 134.264 163.875 134.232 163.764 134.168C163.416 133.968 163.16 133.549 162.991 132.915C162.817 132.282 162.735 131.362 162.735 130.154C162.739 128.971 162.826 128.155 162.996 127.708C163.112 127.4 163.271 127.246 163.474 127.246C163.571 127.246 163.672 127.278 163.784 127.343C164.127 127.544 164.383 127.96 164.552 128.591C164.716 129.223 164.799 130.142 164.799 131.347C164.794 132.575 164.707 133.401 164.538 133.83C164.422 134.119 164.267 134.264 164.069 134.264ZM134.529 125.087C134.283 125.087 134.007 124.998 133.698 124.821C133.094 124.468 132.601 123.862 132.229 123C131.856 122.14 131.678 121.208 131.678 120.202C131.682 119.509 131.876 119.032 132.262 118.775C132.427 118.667 132.61 118.612 132.813 118.612C133.094 118.612 133.413 118.716 133.775 118.925C135.027 119.651 135.651 120.949 135.646 122.813C135.641 123.905 135.462 124.594 135.1 124.884C134.931 125.02 134.742 125.087 134.529 125.087Z" fill="url(#paint74_linear_518_1936)"/>
<path fill-rule="evenodd" clip-rule="evenodd" d="M31.8028 56.8491L11.0464 44.8409V30.125L31.8028 42.1332V56.8491Z" fill="url(#paint75_linear_518_1936)"/>
<path fill-rule="evenodd" clip-rule="evenodd" d="M44.7917 51.4175L33.1375 44.6465V43.2312L44.7917 50.0022V51.4175Z" fill="url(#paint76_linear_518_1936)"/>
<path fill-rule="evenodd" clip-rule="evenodd" d="M44.7917 54.2743L33.1375 47.5034V46.088L44.7917 52.8585V54.2743Z" fill="url(#paint77_linear_518_1936)"/>
<path fill-rule="evenodd" clip-rule="evenodd" d="M44.7917 57.1309L33.1375 50.3598V48.9445L44.7917 55.7156V57.1309Z" fill="url(#paint78_linear_518_1936)"/>
<path fill-rule="evenodd" clip-rule="evenodd" d="M40.1271 57.278L33.1375 53.2166V51.8011L40.1271 55.8626V57.278Z" fill="url(#paint79_linear_518_1936)"/>
<path fill-rule="evenodd" clip-rule="evenodd" d="M69.3585 78.4046L48.6023 66.396V51.68L69.3585 63.6883V78.4046Z" fill="url(#paint80_linear_518_1936)"/>
<path fill-rule="evenodd" clip-rule="evenodd" d="M82.3489 72.9727L70.6948 66.2017V64.7863L82.3489 71.5573V72.9727Z" fill="url(#paint81_linear_518_1936)"/>
<path fill-rule="evenodd" clip-rule="evenodd" d="M82.3489 75.8293L70.6948 69.0583V67.6429L82.3489 74.4135V75.8293Z" fill="url(#paint82_linear_518_1936)"/>
<path fill-rule="evenodd" clip-rule="evenodd" d="M82.3489 78.6859L70.6948 71.9154V70.4995L82.3489 77.2704V78.6859Z" fill="url(#paint83_linear_518_1936)"/>
<path fill-rule="evenodd" clip-rule="evenodd" d="M77.6845 78.8331L70.6948 74.7717V73.3563L77.6845 77.4182V78.8331Z" fill="url(#paint84_linear_518_1936)"/>
<path fill-rule="evenodd" clip-rule="evenodd" d="M104.706 99.9246L83.9492 87.9163V73.2004L104.706 85.2086V99.9246Z" fill="url(#paint85_linear_518_1936)"/>
<path fill-rule="evenodd" clip-rule="evenodd" d="M119.905 94.4923L108.251 87.7218V86.3065L119.905 93.077V94.4923Z" fill="url(#paint86_linear_518_1936)"/>
<path fill-rule="evenodd" clip-rule="evenodd" d="M119.905 97.3491L108.251 90.5786V89.1633L119.905 95.9338V97.3491Z" fill="url(#paint87_linear_518_1936)"/>
<path fill-rule="evenodd" clip-rule="evenodd" d="M119.905 100.206L108.251 93.4352V92.0199L119.905 98.7904V100.206Z" fill="url(#paint88_linear_518_1936)"/>
<path fill-rule="evenodd" clip-rule="evenodd" d="M115.241 100.353L108.251 96.292V94.8765L115.241 98.9375V100.353Z" fill="url(#paint89_linear_518_1936)"/>
<path fill-rule="evenodd" clip-rule="evenodd" d="M31.8028 75.1152L11.0464 63.1064V48.3906L31.8028 60.3993V75.1152Z" fill="url(#paint90_linear_518_1936)"/>
<path fill-rule="evenodd" clip-rule="evenodd" d="M44.7917 69.6829L33.1375 62.9124V61.4966L44.7917 68.2676V69.6829Z" fill="url(#paint91_linear_518_1936)"/>
<path fill-rule="evenodd" clip-rule="evenodd" d="M44.7917 72.5397L33.1375 65.7687V64.3533L44.7917 71.1242V72.5397Z" fill="url(#paint92_linear_518_1936)"/>
<path fill-rule="evenodd" clip-rule="evenodd" d="M44.7917 75.3964L33.1375 68.6254V67.21L44.7917 73.9805V75.3964Z" fill="url(#paint93_linear_518_1936)"/>
<path fill-rule="evenodd" clip-rule="evenodd" d="M40.1271 75.5435L33.1375 71.482V70.0667L40.1271 74.1281V75.5435Z" fill="url(#paint94_linear_518_1936)"/>
<path fill-rule="evenodd" clip-rule="evenodd" d="M69.3585 96.6705L48.6023 84.6613V69.9454L69.3585 81.9541V96.6705Z" fill="url(#paint95_linear_518_1936)"/>
<path fill-rule="evenodd" clip-rule="evenodd" d="M82.3489 91.2376L70.6948 84.4671V83.0516L82.3489 89.8221V91.2376Z" fill="url(#paint96_linear_518_1936)"/>
<path fill-rule="evenodd" clip-rule="evenodd" d="M82.3489 94.0943L70.6948 87.3238V85.9083L82.3489 92.6788V94.0943Z" fill="url(#paint97_linear_518_1936)"/>
<path fill-rule="evenodd" clip-rule="evenodd" d="M82.3489 96.951L70.6948 90.1803V88.765L82.3489 95.535V96.951Z" fill="url(#paint98_linear_518_1936)"/>
<path fill-rule="evenodd" clip-rule="evenodd" d="M77.6845 97.0984L70.6948 93.037V91.6216L77.6845 95.683V97.0984Z" fill="url(#paint99_linear_518_1936)"/>
<path fill-rule="evenodd" clip-rule="evenodd" d="M104.706 118.191L83.9492 106.182V91.4658L104.706 103.475V118.191Z" fill="url(#paint100_linear_518_1936)"/>
<path fill-rule="evenodd" clip-rule="evenodd" d="M119.905 112.776L108.251 106.005V104.589L119.905 111.36V112.776Z" fill="url(#paint101_linear_518_1936)"/>
<path fill-rule="evenodd" clip-rule="evenodd" d="M119.905 115.632L108.251 108.861V107.446L119.905 114.217V115.632Z" fill="url(#paint102_linear_518_1936)"/>
<path fill-rule="evenodd" clip-rule="evenodd" d="M119.905 118.489L108.251 111.718V110.303L119.905 117.074V118.489Z" fill="url(#paint103_linear_518_1936)"/>
<path fill-rule="evenodd" clip-rule="evenodd" d="M115.241 118.636L108.251 114.575V113.159L115.241 117.221V118.636Z" fill="url(#paint104_linear_518_1936)"/>
<path fill-rule="evenodd" clip-rule="evenodd" d="M137.038 131.04C136.023 131.04 134.814 130.633 133.413 129.821C131.058 128.457 129.217 126.508 127.897 123.978C126.573 121.448 125.915 118.599 125.925 115.434C125.935 112.225 126.341 109.859 127.138 108.333C127.941 106.808 129.12 106.022 130.672 105.977C130.725 105.975 130.778 105.974 130.831 105.974C132.354 105.974 134.215 106.61 136.414 107.883C137.222 108.352 138.169 108.991 139.252 109.795L139.237 114.654C138.328 113.926 137.342 113.256 136.274 112.639C134.979 111.887 133.915 111.511 133.093 111.511C132.779 111.511 132.494 111.567 132.248 111.679C131.363 112.079 130.875 113.287 130.793 115.307L130.952 115.402C131.411 114.675 132.02 114.311 132.784 114.311C133.393 114.311 134.099 114.544 134.901 115.01C136.675 116.037 138.048 117.493 139.025 119.376C140.001 121.256 140.484 123.373 140.475 125.721C140.47 128.247 139.841 129.881 138.604 130.628C138.145 130.902 137.623 131.04 137.038 131.04ZM132.417 118.618C132.214 118.618 132.03 118.672 131.866 118.781C131.479 119.038 131.286 119.514 131.281 120.207C131.281 121.213 131.46 122.145 131.832 123.006C132.204 123.868 132.697 124.474 133.301 124.826C133.611 125.004 133.886 125.092 134.133 125.092C134.345 125.092 134.534 125.025 134.703 124.89C135.066 124.599 135.245 123.911 135.249 122.818C135.254 120.954 134.631 119.656 133.379 118.93C133.016 118.722 132.697 118.618 132.417 118.618Z" fill="url(#paint105_linear_518_1936)"/>
<path fill-rule="evenodd" clip-rule="evenodd" d="M154.164 140.265C153.212 140.265 152.081 139.885 150.771 139.125C148.383 137.744 146.59 135.714 145.386 133.038C144.183 130.362 143.588 127.073 143.598 123.174C143.612 119.085 144.212 116.431 145.396 115.206C145.952 114.638 146.633 114.354 147.455 114.354C148.403 114.354 149.529 114.732 150.834 115.489C153.207 116.862 155.001 118.896 156.209 121.586C157.418 124.276 158.017 127.586 158.002 131.517C157.993 135.585 157.393 138.222 156.204 139.43C155.658 139.987 154.976 140.265 154.164 140.265ZM150.244 120.274C149.872 120.274 149.592 120.554 149.398 121.114C149.113 121.936 148.968 123.659 148.959 126.278C148.954 128.88 149.089 130.748 149.369 131.886C149.645 133.024 150.119 133.786 150.786 134.171C150.993 134.294 151.187 134.355 151.361 134.355C151.738 134.355 152.023 134.066 152.212 133.487C152.492 132.64 152.637 130.949 152.642 128.412C152.651 125.866 152.516 123.998 152.236 122.812C151.955 121.627 151.487 120.842 150.824 120.458C150.612 120.336 150.418 120.274 150.244 120.274Z" fill="url(#paint106_linear_518_1936)"/>
<path fill-rule="evenodd" clip-rule="evenodd" d="M166.589 138.721C165.888 138.721 165.071 138.448 164.128 137.903C162.567 136.998 161.33 135.627 160.421 133.793C159.507 131.959 159.058 129.93 159.063 127.708C159.067 125.402 159.522 123.886 160.416 123.159C160.808 122.841 161.267 122.682 161.798 122.682C162.475 122.682 163.268 122.943 164.172 123.467C165.762 124.389 167.024 125.767 167.957 127.599C168.89 129.431 169.354 131.454 169.349 133.664C169.339 135.971 168.89 137.495 167.981 138.236C167.589 138.559 167.125 138.721 166.589 138.721ZM163.906 127.24C163.703 127.24 163.543 127.393 163.427 127.701C163.258 128.148 163.171 128.964 163.166 130.147C163.166 131.355 163.249 132.275 163.423 132.908C163.592 133.543 163.848 133.962 164.196 134.161C164.307 134.225 164.409 134.257 164.501 134.257C164.699 134.257 164.853 134.112 164.969 133.823C165.139 133.394 165.226 132.568 165.231 131.341C165.231 130.135 165.148 129.216 164.984 128.584C164.815 127.953 164.559 127.537 164.215 127.336C164.104 127.272 164.003 127.24 163.906 127.24Z" fill="url(#paint107_linear_518_1936)"/>
<path fill-rule="evenodd" clip-rule="evenodd" d="M182.044 156.653C181.348 156.653 180.531 156.382 179.593 155.84C178.032 154.934 176.794 153.564 175.886 151.73C174.972 149.895 174.523 147.873 174.527 145.66C174.532 143.354 174.987 141.838 175.881 141.111C176.273 140.794 176.732 140.635 177.259 140.635C177.94 140.635 178.733 140.897 179.637 141.421C181.227 142.344 182.489 143.719 183.422 145.552C184.355 147.383 184.819 149.406 184.814 151.616C184.804 153.914 184.35 155.429 183.441 156.17C183.045 156.492 182.581 156.653 182.044 156.653ZM179.371 145.191C179.168 145.191 179.008 145.345 178.892 145.654C178.723 146.1 178.636 146.917 178.631 148.102C178.631 149.307 178.714 150.228 178.888 150.863C179.057 151.497 179.313 151.913 179.661 152.113C179.777 152.182 179.883 152.216 179.98 152.216C180.202 152.216 180.367 152.032 180.473 151.665C180.628 151.137 180.705 150.351 180.705 149.303C180.71 148.253 180.637 147.379 180.488 146.68C180.343 145.98 180.072 145.514 179.68 145.288C179.569 145.223 179.468 145.191 179.371 145.191Z" fill="url(#paint108_linear_518_1936)"/>
<path fill-rule="evenodd" clip-rule="evenodd" d="M167.532 149.159L163.481 146.813L174.608 130.23L178.659 132.577L167.532 149.159Z" fill="url(#paint109_linear_518_1936)"/>
<defs>
<linearGradient id="paint0_linear_518_1936" x1="307.669" y1="243.457" x2="307.669" y2="88.0627" gradientUnits="userSpaceOnUse">
<stop stop-color="#EBF2F9"/>
<stop offset="1" stop-color="#93D8F6"/>
</linearGradient>
<linearGradient id="paint1_linear_518_1936" x1="234.939" y1="334.132" x2="234.939" y2="199.203" gradientUnits="userSpaceOnUse">
<stop stop-color="#EBF2F9"/>
<stop offset="1" stop-color="#93D8F6"/>
</linearGradient>
<linearGradient id="paint2_linear_518_1936" x1="254.056" y1="160.854" x2="305.816" y2="160.854" gradientUnits="userSpaceOnUse">
<stop stop-color="#70A3D6"/>
<stop offset="1" stop-color="#6E7CBC"/>
</linearGradient>
<linearGradient id="paint3_linear_518_1936" x1="252.462" y1="349.342" x2="252.462" y2="-24.7057" gradientUnits="userSpaceOnUse">
<stop stop-color="#EBF2F9"/>
<stop offset="1" stop-color="#93D8F6"/>
</linearGradient>
<linearGradient id="paint4_linear_518_1936" x1="198.827" y1="192.659" x2="250.588" y2="192.659" gradientUnits="userSpaceOnUse">
<stop stop-color="#DB6777"/>
<stop offset="1" stop-color="#C34297"/>
</linearGradient>
<linearGradient id="paint5_linear_518_1936" x1="197.232" y1="349.336" x2="197.232" y2="-24.7106" gradientUnits="userSpaceOnUse">
<stop stop-color="#EBF2F9"/>
<stop offset="1" stop-color="#93D8F6"/>
</linearGradient>
<linearGradient id="paint6_linear_518_1936" x1="329.17" y1="145.89" x2="346.947" y2="145.89" gradientUnits="userSpaceOnUse">
<stop stop-color="#DB6777"/>
<stop offset="1" stop-color="#C34297"/>
</linearGradient>
<linearGradient id="paint7_linear_518_1936" x1="329.745" y1="349.336" x2="329.745" y2="-24.7126" gradientUnits="userSpaceOnUse">
<stop stop-color="#EBF2F9"/>
<stop offset="1" stop-color="#93D8F6"/>
</linearGradient>
<linearGradient id="paint8_linear_518_1936" x1="329.17" y1="202.451" x2="346.947" y2="202.451" gradientUnits="userSpaceOnUse">
<stop stop-color="#DB6777"/>
<stop offset="1" stop-color="#C34297"/>
</linearGradient>
<linearGradient id="paint9_linear_518_1936" x1="329.745" y1="349.345" x2="329.745" y2="-24.7046" gradientUnits="userSpaceOnUse">
<stop stop-color="#EBF2F9"/>
<stop offset="1" stop-color="#93D8F6"/>
</linearGradient>
<linearGradient id="paint10_linear_518_1936" x1="303.287" y1="334.125" x2="303.287" y2="199.196" gradientUnits="userSpaceOnUse">
<stop stop-color="#EBF2F9"/>
<stop offset="1" stop-color="#93D8F6"/>
</linearGradient>
<linearGradient id="paint11_linear_518_1936" x1="273.973" y1="349.345" x2="273.973" y2="-24.7028" gradientUnits="userSpaceOnUse">
<stop stop-color="#EBF2F9"/>
<stop offset="1" stop-color="#93D8F6"/>
</linearGradient>
<linearGradient id="paint12_linear_518_1936" x1="291.952" y1="349.342" x2="291.952" y2="-24.7066" gradientUnits="userSpaceOnUse">
<stop stop-color="#EBF2F9"/>
<stop offset="1" stop-color="#93D8F6"/>
</linearGradient>
<linearGradient id="paint13_linear_518_1936" x1="280.91" y1="349.339" x2="280.91" y2="-24.7091" gradientUnits="userSpaceOnUse">
<stop stop-color="#EBF2F9"/>
<stop offset="1" stop-color="#93D8F6"/>
</linearGradient>
<linearGradient id="paint14_linear_518_1936" x1="267.651" y1="349.343" x2="267.651" y2="-24.7052" gradientUnits="userSpaceOnUse">
<stop stop-color="#EBF2F9"/>
<stop offset="1" stop-color="#93D8F6"/>
</linearGradient>
<linearGradient id="paint15_linear_518_1936" x1="254.4" y1="349.345" x2="254.4" y2="-24.7039" gradientUnits="userSpaceOnUse">
<stop stop-color="#EBF2F9"/>
<stop offset="1" stop-color="#93D8F6"/>
</linearGradient>
<linearGradient id="paint16_linear_518_1936" x1="294.388" y1="349.337" x2="294.388" y2="-24.7108" gradientUnits="userSpaceOnUse">
<stop stop-color="#EBF2F9"/>
<stop offset="1" stop-color="#93D8F6"/>
</linearGradient>
<linearGradient id="paint17_linear_518_1936" x1="281.134" y1="349.334" x2="281.134" y2="-24.7142" gradientUnits="userSpaceOnUse">
<stop stop-color="#EBF2F9"/>
<stop offset="1" stop-color="#93D8F6"/>
</linearGradient>
<linearGradient id="paint18_linear_518_1936" x1="267.878" y1="349.339" x2="267.878" y2="-24.7087" gradientUnits="userSpaceOnUse">
<stop stop-color="#EBF2F9"/>
<stop offset="1" stop-color="#93D8F6"/>
</linearGradient>
<linearGradient id="paint19_linear_518_1936" x1="256.833" y1="349.342" x2="256.833" y2="-24.7062" gradientUnits="userSpaceOnUse">
<stop stop-color="#EBF2F9"/>
<stop offset="1" stop-color="#93D8F6"/>
</linearGradient>
<linearGradient id="paint20_linear_518_1936" x1="273.973" y1="349.34" x2="273.973" y2="-24.7066" gradientUnits="userSpaceOnUse">
<stop stop-color="#EBF2F9"/>
<stop offset="1" stop-color="#93D8F6"/>
</linearGradient>
<linearGradient id="paint21_linear_518_1936" x1="225.574" y1="349.346" x2="225.574" y2="-24.7037" gradientUnits="userSpaceOnUse">
<stop stop-color="#EBF2F9"/>
<stop offset="1" stop-color="#93D8F6"/>
</linearGradient>
<linearGradient id="paint22_linear_518_1936" x1="225.589" y1="349.342" x2="225.589" y2="-24.7079" gradientUnits="userSpaceOnUse">
<stop stop-color="#EBF2F9"/>
<stop offset="1" stop-color="#93D8F6"/>
</linearGradient>
<linearGradient id="paint23_linear_518_1936" x1="216.738" y1="349.332" x2="216.738" y2="-24.7172" gradientUnits="userSpaceOnUse">
<stop stop-color="#EBF2F9"/>
<stop offset="1" stop-color="#93D8F6"/>
</linearGradient>
<linearGradient id="paint24_linear_518_1936" x1="218.958" y1="349.346" x2="218.958" y2="-24.7036" gradientUnits="userSpaceOnUse">
<stop stop-color="#EBF2F9"/>
<stop offset="1" stop-color="#93D8F6"/>
</linearGradient>
<linearGradient id="paint25_linear_518_1936" x1="210.105" y1="349.346" x2="210.105" y2="-24.7015" gradientUnits="userSpaceOnUse">
<stop stop-color="#EBF2F9"/>
<stop offset="1" stop-color="#93D8F6"/>
</linearGradient>
<linearGradient id="paint26_linear_518_1936" x1="210.125" y1="349.343" x2="210.125" y2="-24.703" gradientUnits="userSpaceOnUse">
<stop stop-color="#EBF2F9"/>
<stop offset="1" stop-color="#93D8F6"/>
</linearGradient>
<linearGradient id="paint27_linear_518_1936" x1="201.274" y1="349.332" x2="201.274" y2="-24.7151" gradientUnits="userSpaceOnUse">
<stop stop-color="#EBF2F9"/>
<stop offset="1" stop-color="#93D8F6"/>
</linearGradient>
<linearGradient id="paint28_linear_518_1936" x1="201.287" y1="349.347" x2="201.287" y2="-24.7005" gradientUnits="userSpaceOnUse">
<stop stop-color="#EBF2F9"/>
<stop offset="1" stop-color="#93D8F6"/>
</linearGradient>
<linearGradient id="paint29_linear_518_1936" x1="150.992" y1="349.342" x2="150.992" y2="-24.7047" gradientUnits="userSpaceOnUse">
<stop stop-color="#EBF2F9"/>
<stop offset="1" stop-color="#93D8F6"/>
</linearGradient>
<linearGradient id="paint30_linear_518_1936" x1="159.3" y1="349.336" x2="159.3" y2="-24.7129" gradientUnits="userSpaceOnUse">
<stop stop-color="#EBF2F9"/>
<stop offset="1" stop-color="#93D8F6"/>
</linearGradient>
<linearGradient id="paint31_linear_518_1936" x1="159.315" y1="349.334" x2="159.315" y2="-24.7157" gradientUnits="userSpaceOnUse">
<stop stop-color="#EBF2F9"/>
<stop offset="1" stop-color="#93D8F6"/>
</linearGradient>
<linearGradient id="paint32_linear_518_1936" x1="168.131" y1="349.346" x2="168.131" y2="-24.7036" gradientUnits="userSpaceOnUse">
<stop stop-color="#EBF2F9"/>
<stop offset="1" stop-color="#93D8F6"/>
</linearGradient>
<linearGradient id="paint33_linear_518_1936" x1="168.15" y1="349.342" x2="168.15" y2="-24.7067" gradientUnits="userSpaceOnUse">
<stop stop-color="#EBF2F9"/>
<stop offset="1" stop-color="#93D8F6"/>
</linearGradient>
<linearGradient id="paint34_linear_518_1936" x1="176.972" y1="349.346" x2="176.972" y2="-24.7038" gradientUnits="userSpaceOnUse">
<stop stop-color="#EBF2F9"/>
<stop offset="1" stop-color="#93D8F6"/>
</linearGradient>
<linearGradient id="paint35_linear_518_1936" x1="176.986" y1="349.343" x2="176.986" y2="-24.7054" gradientUnits="userSpaceOnUse">
<stop stop-color="#EBF2F9"/>
<stop offset="1" stop-color="#93D8F6"/>
</linearGradient>
<linearGradient id="paint36_linear_518_1936" x1="185.804" y1="349.334" x2="185.804" y2="-24.7129" gradientUnits="userSpaceOnUse">
<stop stop-color="#EBF2F9"/>
<stop offset="1" stop-color="#93D8F6"/>
</linearGradient>
<linearGradient id="paint37_linear_518_1936" x1="183.615" y1="349.332" x2="183.615" y2="-24.7165" gradientUnits="userSpaceOnUse">
<stop stop-color="#EBF2F9"/>
<stop offset="1" stop-color="#93D8F6"/>
</linearGradient>
<linearGradient id="paint38_linear_518_1936" x1="102.389" y1="349.34" x2="102.389" y2="-24.7057" gradientUnits="userSpaceOnUse">
<stop stop-color="#EBF2F9"/>
<stop offset="1" stop-color="#93D8F6"/>
</linearGradient>
<linearGradient id="paint39_linear_518_1936" x1="110.697" y1="349.334" x2="110.697" y2="-24.7156" gradientUnits="userSpaceOnUse">
<stop stop-color="#EBF2F9"/>
<stop offset="1" stop-color="#93D8F6"/>
</linearGradient>
<linearGradient id="paint40_linear_518_1936" x1="110.711" y1="349.348" x2="110.711" y2="-24.6994" gradientUnits="userSpaceOnUse">
<stop stop-color="#EBF2F9"/>
<stop offset="1" stop-color="#93D8F6"/>
</linearGradient>
<linearGradient id="paint41_linear_518_1936" x1="119.529" y1="349.344" x2="119.529" y2="-24.7062" gradientUnits="userSpaceOnUse">
<stop stop-color="#EBF2F9"/>
<stop offset="1" stop-color="#93D8F6"/>
</linearGradient>
<linearGradient id="paint42_linear_518_1936" x1="119.549" y1="349.34" x2="119.549" y2="-24.7088" gradientUnits="userSpaceOnUse">
<stop stop-color="#EBF2F9"/>
<stop offset="1" stop-color="#93D8F6"/>
</linearGradient>
<linearGradient id="paint43_linear_518_1936" x1="128.37" y1="349.344" x2="128.37" y2="-24.7024" gradientUnits="userSpaceOnUse">
<stop stop-color="#EBF2F9"/>
<stop offset="1" stop-color="#93D8F6"/>
</linearGradient>
<linearGradient id="paint44_linear_518_1936" x1="128.38" y1="349.341" x2="128.38" y2="-24.7089" gradientUnits="userSpaceOnUse">
<stop stop-color="#EBF2F9"/>
<stop offset="1" stop-color="#93D8F6"/>
</linearGradient>
<linearGradient id="paint45_linear_518_1936" x1="137.202" y1="349.332" x2="137.202" y2="-24.7168" gradientUnits="userSpaceOnUse">
<stop stop-color="#EBF2F9"/>
<stop offset="1" stop-color="#93D8F6"/>
</linearGradient>
<linearGradient id="paint46_linear_518_1936" x1="135.014" y1="349.346" x2="135.014" y2="-24.7018" gradientUnits="userSpaceOnUse">
<stop stop-color="#EBF2F9"/>
<stop offset="1" stop-color="#93D8F6"/>
</linearGradient>
<linearGradient id="paint47_linear_518_1936" x1="53.7854" y1="349.337" x2="53.7854" y2="-24.7095" gradientUnits="userSpaceOnUse">
<stop stop-color="#EBF2F9"/>
<stop offset="1" stop-color="#93D8F6"/>
</linearGradient>
<linearGradient id="paint48_linear_518_1936" x1="62.0899" y1="349.348" x2="62.0899" y2="-24.6981" gradientUnits="userSpaceOnUse">
<stop stop-color="#EBF2F9"/>
<stop offset="1" stop-color="#93D8F6"/>
</linearGradient>
<linearGradient id="paint49_linear_518_1936" x1="62.1089" y1="349.345" x2="62.1089" y2="-24.7022" gradientUnits="userSpaceOnUse">
<stop stop-color="#EBF2F9"/>
<stop offset="1" stop-color="#93D8F6"/>
</linearGradient>
<linearGradient id="paint50_linear_518_1936" x1="70.9315" y1="349.341" x2="70.9315" y2="-24.7099" gradientUnits="userSpaceOnUse">
<stop stop-color="#EBF2F9"/>
<stop offset="1" stop-color="#93D8F6"/>
</linearGradient>
<linearGradient id="paint51_linear_518_1936" x1="70.9457" y1="349.337" x2="70.9457" y2="-24.712" gradientUnits="userSpaceOnUse">
<stop stop-color="#EBF2F9"/>
<stop offset="1" stop-color="#93D8F6"/>
</linearGradient>
<linearGradient id="paint52_linear_518_1936" x1="79.7638" y1="349.341" x2="79.7638" y2="-24.708" gradientUnits="userSpaceOnUse">
<stop stop-color="#EBF2F9"/>
<stop offset="1" stop-color="#93D8F6"/>
</linearGradient>
<linearGradient id="paint53_linear_518_1936" x1="79.7828" y1="349.338" x2="79.7828" y2="-24.7112" gradientUnits="userSpaceOnUse">
<stop stop-color="#EBF2F9"/>
<stop offset="1" stop-color="#93D8F6"/>
</linearGradient>
<linearGradient id="paint54_linear_518_1936" x1="86.3963" y1="349.346" x2="86.3963" y2="-24.7026" gradientUnits="userSpaceOnUse">
<stop stop-color="#EBF2F9"/>
<stop offset="1" stop-color="#93D8F6"/>
</linearGradient>
<linearGradient id="paint55_linear_518_1936" x1="86.4106" y1="349.344" x2="86.4106" y2="-24.7045" gradientUnits="userSpaceOnUse">
<stop stop-color="#EBF2F9"/>
<stop offset="1" stop-color="#93D8F6"/>
</linearGradient>
<linearGradient id="paint56_linear_518_1936" x1="5.18182" y1="349.344" x2="5.18182" y2="-24.7029" gradientUnits="userSpaceOnUse">
<stop stop-color="#EBF2F9"/>
<stop offset="1" stop-color="#93D8F6"/>
</linearGradient>
<linearGradient id="paint57_linear_518_1936" x1="13.4889" y1="349.337" x2="13.4889" y2="-24.7091" gradientUnits="userSpaceOnUse">
<stop stop-color="#EBF2F9"/>
<stop offset="1" stop-color="#93D8F6"/>
</linearGradient>
<linearGradient id="paint58_linear_518_1936" x1="13.5079" y1="349.334" x2="13.5079" y2="-24.7149" gradientUnits="userSpaceOnUse">
<stop stop-color="#EBF2F9"/>
<stop offset="1" stop-color="#93D8F6"/>
</linearGradient>
<linearGradient id="paint59_linear_518_1936" x1="22.3292" y1="349.347" x2="22.3292" y2="-24.7027" gradientUnits="userSpaceOnUse">
<stop stop-color="#EBF2F9"/>
<stop offset="1" stop-color="#93D8F6"/>
</linearGradient>
<linearGradient id="paint60_linear_518_1936" x1="22.3435" y1="349.344" x2="22.3435" y2="-24.706" gradientUnits="userSpaceOnUse">
<stop stop-color="#EBF2F9"/>
<stop offset="1" stop-color="#93D8F6"/>
</linearGradient>
<linearGradient id="paint61_linear_518_1936" x1="31.1615" y1="349.347" x2="31.1615" y2="-24.6998" gradientUnits="userSpaceOnUse">
<stop stop-color="#EBF2F9"/>
<stop offset="1" stop-color="#93D8F6"/>
</linearGradient>
<linearGradient id="paint62_linear_518_1936" x1="31.1804" y1="349.344" x2="31.1804" y2="-24.7051" gradientUnits="userSpaceOnUse">
<stop stop-color="#EBF2F9"/>
<stop offset="1" stop-color="#93D8F6"/>
</linearGradient>
<linearGradient id="paint63_linear_518_1936" x1="37.794" y1="349.336" x2="37.794" y2="-24.7139" gradientUnits="userSpaceOnUse">
<stop stop-color="#EBF2F9"/>
<stop offset="1" stop-color="#93D8F6"/>
</linearGradient>
<linearGradient id="paint64_linear_518_1936" x1="37.8083" y1="349.332" x2="37.8083" y2="-24.7155" gradientUnits="userSpaceOnUse">
<stop stop-color="#EBF2F9"/>
<stop offset="1" stop-color="#93D8F6"/>
</linearGradient>
<linearGradient id="paint65_linear_518_1936" x1="192.2" y1="285.846" x2="234.33" y2="285.846" gradientUnits="userSpaceOnUse">
<stop stop-color="#DB6777"/>
<stop offset="1" stop-color="#C34297"/>
</linearGradient>
<linearGradient id="paint66_linear_518_1936" x1="150.225" y1="285.846" x2="192.355" y2="285.846" gradientUnits="userSpaceOnUse">
<stop stop-color="#F07279"/>
<stop offset="1" stop-color="#ED529C"/>
</linearGradient>
<linearGradient id="paint67_linear_518_1936" x1="171.29" y1="349.346" x2="171.29" y2="-24.7038" gradientUnits="userSpaceOnUse">
<stop stop-color="#EBF2F9"/>
<stop offset="1" stop-color="#93D8F6"/>
</linearGradient>
<linearGradient id="paint68_linear_518_1936" x1="53.022" y1="228.257" x2="94.8096" y2="228.257" gradientUnits="userSpaceOnUse">
<stop stop-color="#F07279"/>
<stop offset="1" stop-color="#ED529C"/>
</linearGradient>
<linearGradient id="paint69_linear_518_1936" x1="95.8416" y1="262.327" x2="95.8416" y2="138.569" gradientUnits="userSpaceOnUse">
<stop stop-color="#F07279"/>
<stop offset="1" stop-color="#ED529C"/>
</linearGradient>
<linearGradient id="paint70_linear_518_1936" x1="53.0222" y1="220.6" x2="96.5028" y2="220.6" gradientUnits="userSpaceOnUse">
<stop stop-color="#F07279"/>
<stop offset="1" stop-color="#ED529C"/>
</linearGradient>
<linearGradient id="paint71_linear_518_1936" x1="4.41846" y1="199.813" x2="46.206" y2="199.813" gradientUnits="userSpaceOnUse">
<stop stop-color="#F07279"/>
<stop offset="1" stop-color="#ED529C"/>
</linearGradient>
<linearGradient id="paint72_linear_518_1936" x1="47.2404" y1="262.321" x2="47.2404" y2="138.561" gradientUnits="userSpaceOnUse">
<stop stop-color="#F07279"/>
<stop offset="1" stop-color="#ED529C"/>
</linearGradient>
<linearGradient id="paint73_linear_518_1936" x1="4.41857" y1="192.154" x2="47.8991" y2="192.154" gradientUnits="userSpaceOnUse">
<stop stop-color="#F07279"/>
<stop offset="1" stop-color="#ED529C"/>
</linearGradient>
<linearGradient id="paint74_linear_518_1936" x1="97.1644" y1="15.7808" x2="97.1644" y2="147.462" gradientUnits="userSpaceOnUse">
<stop stop-color="#52AFE6"/>
<stop offset="1" stop-color="#2B77E6"/>
</linearGradient>
<linearGradient id="paint75_linear_518_1936" x1="98.2042" y1="15.7879" x2="98.2042" y2="147.469" gradientUnits="userSpaceOnUse">
<stop stop-color="#A4FFFF"/>
<stop offset="1" stop-color="#58F0FF"/>
</linearGradient>
<linearGradient id="paint76_linear_518_1936" x1="97.6299" y1="15.7851" x2="97.6299" y2="147.466" gradientUnits="userSpaceOnUse">
<stop stop-color="#A4FFFF"/>
<stop offset="1" stop-color="#58F0FF"/>
</linearGradient>
<linearGradient id="paint77_linear_518_1936" x1="97.6299" y1="15.7851" x2="97.6299" y2="147.466" gradientUnits="userSpaceOnUse">
<stop stop-color="#A4FFFF"/>
<stop offset="1" stop-color="#58F0FF"/>
</linearGradient>
<linearGradient id="paint78_linear_518_1936" x1="97.6299" y1="15.7847" x2="97.6299" y2="147.466" gradientUnits="userSpaceOnUse">
<stop stop-color="#A4FFFF"/>
<stop offset="1" stop-color="#58F0FF"/>
</linearGradient>
<linearGradient id="paint79_linear_518_1936" x1="97.6289" y1="15.785" x2="97.6289" y2="147.466" gradientUnits="userSpaceOnUse">
<stop stop-color="#A4FFFF"/>
<stop offset="1" stop-color="#58F0FF"/>
</linearGradient>
<linearGradient id="paint80_linear_518_1936" x1="98.5305" y1="15.7889" x2="98.5305" y2="147.47" gradientUnits="userSpaceOnUse">
<stop stop-color="#A4FFFF"/>
<stop offset="1" stop-color="#58F0FF"/>
</linearGradient>
<linearGradient id="paint81_linear_518_1936" x1="97.9569" y1="15.7855" x2="97.9569" y2="147.467" gradientUnits="userSpaceOnUse">
<stop stop-color="#A4FFFF"/>
<stop offset="1" stop-color="#58F0FF"/>
</linearGradient>
<linearGradient id="paint82_linear_518_1936" x1="97.9569" y1="15.7854" x2="97.9569" y2="147.466" gradientUnits="userSpaceOnUse">
<stop stop-color="#A4FFFF"/>
<stop offset="1" stop-color="#58F0FF"/>
</linearGradient>
<linearGradient id="paint83_linear_518_1936" x1="97.9569" y1="15.7848" x2="97.9569" y2="147.466" gradientUnits="userSpaceOnUse">
<stop stop-color="#A4FFFF"/>
<stop offset="1" stop-color="#58F0FF"/>
</linearGradient>
<linearGradient id="paint84_linear_518_1936" x1="97.9573" y1="15.7845" x2="97.9573" y2="147.465" gradientUnits="userSpaceOnUse">
<stop stop-color="#A4FFFF"/>
<stop offset="1" stop-color="#58F0FF"/>
</linearGradient>
<linearGradient id="paint85_linear_518_1936" x1="96.6475" y1="15.7843" x2="96.6475" y2="147.465" gradientUnits="userSpaceOnUse">
<stop stop-color="#A4FFFF"/>
<stop offset="1" stop-color="#58F0FF"/>
</linearGradient>
<linearGradient id="paint86_linear_518_1936" x1="98.283" y1="15.7813" x2="98.283" y2="147.462" gradientUnits="userSpaceOnUse">
<stop stop-color="#A4FFFF"/>
<stop offset="1" stop-color="#58F0FF"/>
</linearGradient>
<linearGradient id="paint87_linear_518_1936" x1="98.283" y1="15.7808" x2="98.283" y2="147.462" gradientUnits="userSpaceOnUse">
<stop stop-color="#A4FFFF"/>
<stop offset="1" stop-color="#58F0FF"/>
</linearGradient>
<linearGradient id="paint88_linear_518_1936" x1="98.283" y1="15.78" x2="98.283" y2="147.462" gradientUnits="userSpaceOnUse">
<stop stop-color="#A4FFFF"/>
<stop offset="1" stop-color="#58F0FF"/>
</linearGradient>
<linearGradient id="paint89_linear_518_1936" x1="98.2835" y1="15.7801" x2="98.2835" y2="147.461" gradientUnits="userSpaceOnUse">
<stop stop-color="#A4FFFF"/>
<stop offset="1" stop-color="#58F0FF"/>
</linearGradient>
<linearGradient id="paint90_linear_518_1936" x1="98.2042" y1="15.7788" x2="98.2042" y2="147.46" gradientUnits="userSpaceOnUse">
<stop stop-color="#A4FFFF"/>
<stop offset="1" stop-color="#58F0FF"/>
</linearGradient>
<linearGradient id="paint91_linear_518_1936" x1="97.6299" y1="15.7753" x2="97.6299" y2="147.456" gradientUnits="userSpaceOnUse">
<stop stop-color="#A4FFFF"/>
<stop offset="1" stop-color="#58F0FF"/>
</linearGradient>
<linearGradient id="paint92_linear_518_1936" x1="97.6299" y1="15.7751" x2="97.6299" y2="147.456" gradientUnits="userSpaceOnUse">
<stop stop-color="#A4FFFF"/>
<stop offset="1" stop-color="#58F0FF"/>
</linearGradient>
<linearGradient id="paint93_linear_518_1936" x1="97.6299" y1="15.7748" x2="97.6299" y2="147.456" gradientUnits="userSpaceOnUse">
<stop stop-color="#A4FFFF"/>
<stop offset="1" stop-color="#58F0FF"/>
</linearGradient>
<linearGradient id="paint94_linear_518_1936" x1="97.6289" y1="15.7753" x2="97.6289" y2="147.456" gradientUnits="userSpaceOnUse">
<stop stop-color="#A4FFFF"/>
<stop offset="1" stop-color="#58F0FF"/>
</linearGradient>
<linearGradient id="paint95_linear_518_1936" x1="98.5305" y1="15.7784" x2="98.5305" y2="147.459" gradientUnits="userSpaceOnUse">
<stop stop-color="#A4FFFF"/>
<stop offset="1" stop-color="#58F0FF"/>
</linearGradient>
<linearGradient id="paint96_linear_518_1936" x1="97.9569" y1="15.7753" x2="97.9569" y2="147.456" gradientUnits="userSpaceOnUse">
<stop stop-color="#A4FFFF"/>
<stop offset="1" stop-color="#58F0FF"/>
</linearGradient>
<linearGradient id="paint97_linear_518_1936" x1="97.9569" y1="15.775" x2="97.9569" y2="147.456" gradientUnits="userSpaceOnUse">
<stop stop-color="#A4FFFF"/>
<stop offset="1" stop-color="#58F0FF"/>
</linearGradient>
<linearGradient id="paint98_linear_518_1936" x1="97.9569" y1="15.7747" x2="97.9569" y2="147.456" gradientUnits="userSpaceOnUse">
<stop stop-color="#A4FFFF"/>
<stop offset="1" stop-color="#58F0FF"/>
</linearGradient>
<linearGradient id="paint99_linear_518_1936" x1="97.9573" y1="15.7748" x2="97.9573" y2="147.455" gradientUnits="userSpaceOnUse">
<stop stop-color="#A4FFFF"/>
<stop offset="1" stop-color="#58F0FF"/>
</linearGradient>
<linearGradient id="paint100_linear_518_1936" x1="96.6475" y1="15.7749" x2="96.6475" y2="147.456" gradientUnits="userSpaceOnUse">
<stop stop-color="#A4FFFF"/>
<stop offset="1" stop-color="#58F0FF"/>
</linearGradient>
<linearGradient id="paint101_linear_518_1936" x1="98.283" y1="15.7885" x2="98.283" y2="147.47" gradientUnits="userSpaceOnUse">
<stop stop-color="#A4FFFF"/>
<stop offset="1" stop-color="#58F0FF"/>
</linearGradient>
<linearGradient id="paint102_linear_518_1936" x1="98.283" y1="15.7889" x2="98.283" y2="147.47" gradientUnits="userSpaceOnUse">
<stop stop-color="#A4FFFF"/>
<stop offset="1" stop-color="#58F0FF"/>
</linearGradient>
<linearGradient id="paint103_linear_518_1936" x1="98.283" y1="15.7886" x2="98.283" y2="147.469" gradientUnits="userSpaceOnUse">
<stop stop-color="#A4FFFF"/>
<stop offset="1" stop-color="#58F0FF"/>
</linearGradient>
<linearGradient id="paint104_linear_518_1936" x1="98.2835" y1="15.7875" x2="98.2835" y2="147.469" gradientUnits="userSpaceOnUse">
<stop stop-color="#A4FFFF"/>
<stop offset="1" stop-color="#58F0FF"/>
</linearGradient>
<linearGradient id="paint105_linear_518_1936" x1="96.7668" y1="15.7858" x2="96.7668" y2="147.467" gradientUnits="userSpaceOnUse">
<stop stop-color="#A4FFFF"/>
<stop offset="1" stop-color="#58F0FF"/>
</linearGradient>
<linearGradient id="paint106_linear_518_1936" x1="98.0396" y1="15.7748" x2="98.0396" y2="147.456" gradientUnits="userSpaceOnUse">
<stop stop-color="#A4FFFF"/>
<stop offset="1" stop-color="#58F0FF"/>
</linearGradient>
<linearGradient id="paint107_linear_518_1936" x1="97.5958" y1="15.7736" x2="97.5958" y2="147.455" gradientUnits="userSpaceOnUse">
<stop stop-color="#A4FFFF"/>
<stop offset="1" stop-color="#58F0FF"/>
</linearGradient>
<linearGradient id="paint108_linear_518_1936" x1="97.9162" y1="15.7886" x2="97.9162" y2="147.47" gradientUnits="userSpaceOnUse">
<stop stop-color="#A4FFFF"/>
<stop offset="1" stop-color="#58F0FF"/>
</linearGradient>
<linearGradient id="paint109_linear_518_1936" x1="96.9441" y1="15.7826" x2="96.9441" y2="147.464" gradientUnits="userSpaceOnUse">
<stop stop-color="#A4FFFF"/>
<stop offset="1" stop-color="#58F0FF"/>
</linearGradient>
</defs>
</svg>
