<svg width="376" height="298" viewBox="0 0 376 298" fill="none" xmlns="http://www.w3.org/2000/svg">
<path d="M287.752 209.79V9.42691C287.752 4.23221 284.215 0 279.887 0H8.49747C4.15689 0 0.632324 4.23221 0.632324 9.42691V209.79H287.752Z" fill="#0450CF"/>
<path d="M0.000305558 210.119V239.095C0.000305558 244.665 3.7773 249.192 8.43646 249.192H279.826C284.469 249.192 288.244 244.665 288.244 239.095V210.119H0H0.000305558Z" fill="#C5E1F9"/>
<path d="M193.927 291.819C193.927 291.819 191.839 290.592 189.437 289.508C186.882 288.351 183.793 286.906 181.982 285.866C178.817 284.034 178.54 282.834 177.349 276.605C176.052 269.791 174.833 255.417 174.348 249.149H114.227C113.73 255.417 112.513 269.791 111.22 276.605C110.034 282.834 109.763 284.034 106.585 285.866C104.782 286.898 101.759 288.32 99.2125 289.477C96.7794 290.572 94.788 291.421 94.788 291.421C94.788 291.421 92.8498 292.708 95.9576 292.889H192.612C195.529 292.962 193.927 291.819 193.927 291.819Z" fill="#C5E1F9"/>
<path d="M174.868 256.724C174.604 253.738 174.38 251.062 174.234 249.149H114.105C113.962 251.062 113.742 253.738 113.472 256.724H174.868Z" fill="#EAF4FE"/>
<path d="M52.1528 209.79H111.908L221.134 0H161.389L52.1528 209.79Z" fill="#0561FC"/>
<path d="M128.959 209.79H150.77L259.987 0H238.184L128.959 209.79Z" fill="#0561FC"/>
<path d="M274.345 16.1049H13.9072V191.92H274.345V16.1049Z" fill="#7EB3FF"/>
<path d="M375.727 290.805C375.727 294.23 373.392 297.022 370.551 297.022H339.586C336.735 297.022 334.409 294.23 334.409 290.805V202.876C334.409 199.459 336.735 196.667 339.586 196.667H370.551C373.392 196.667 375.727 199.459 375.727 202.876V290.805Z" fill="#003E99"/>
<path d="M340.544 296.055C337.693 296.055 335.357 293.259 335.357 289.839V203.824C335.357 200.409 337.693 197.614 340.544 197.614H369.897C372.757 197.614 375.093 200.409 375.093 203.824V289.839C375.093 293.259 372.757 296.055 369.897 296.055H340.544Z" fill="#0450CF"/>
<path d="M350.341 202.809C350.341 203.269 350.026 203.646 349.645 203.646C349.263 203.646 348.949 203.269 348.949 202.809C348.949 202.354 349.263 201.972 349.645 201.972C350.026 201.972 350.341 202.354 350.341 202.809Z" fill="#003E99"/>
<path d="M355.534 200.047C355.534 200.341 355.343 200.584 355.086 200.584C354.847 200.584 354.638 200.341 354.638 200.047C354.638 199.749 354.847 199.509 355.086 199.509C355.343 199.509 355.534 199.749 355.534 200.047Z" fill="#003E99"/>
<path d="M357.878 202.747C357.878 202.968 357.716 203.143 357.545 203.143H352.759C352.578 203.143 352.425 202.968 352.425 202.747C352.425 202.527 352.578 202.351 352.759 202.351H357.545C357.716 202.351 357.878 202.527 357.878 202.747Z" fill="#003E99"/>
<path d="M358.002 291.663C358.002 292.057 357.735 292.376 357.411 292.376H353.026C352.692 292.376 352.425 292.057 352.425 291.663V290.232C352.425 289.83 352.692 289.506 353.026 289.506H357.411C357.735 289.506 358.002 289.83 358.002 290.232V291.663Z" fill="#003E99"/>
<path d="M335.382 208.603H334.409V212.432H335.382V208.603Z" fill="#0450CF"/>
<path d="M335.382 215.993H334.409V222.452H335.382V215.993Z" fill="#0450CF"/>
<path d="M335.382 223.95H334.409V230.101H335.382V223.95Z" fill="#0450CF"/>
<path d="M373.203 208.035H336.938V285.207H373.203V208.035Z" fill="#7EB3FF"/>
<path d="M326.462 291.678C326.462 294.616 324.469 296.995 322.019 296.995H247.496C245.046 296.995 243.063 294.616 243.063 291.678V161.439C243.063 158.505 245.046 156.121 247.496 156.121H322.019C324.469 156.121 326.462 158.505 326.462 161.439V291.678Z" fill="#003E99"/>
<path d="M247.451 296.32C245.373 296.32 243.695 294.302 243.695 291.815V161.576C243.695 159.093 245.373 157.068 247.451 157.068H321.974C324.052 157.068 325.74 159.093 325.74 161.576V291.815C325.74 294.302 324.052 296.32 321.974 296.32H247.451Z" fill="#0450CF"/>
<path d="M285.65 162.514C285.65 163.013 285.316 163.403 284.896 163.403C284.487 163.403 284.153 163.013 284.153 162.514C284.153 162.011 284.487 161.615 284.896 161.615C285.316 161.615 285.65 162.011 285.65 162.514Z" fill="#003E99"/>
<path d="M288.781 291.186C288.781 291.738 288.409 292.185 287.951 292.185H281.822C281.374 292.185 280.992 291.738 280.992 291.186V289.191C280.992 288.633 281.374 288.18 281.822 288.18H287.951C288.409 288.18 288.781 288.633 288.781 289.191V291.186Z" fill="#003E99"/>
<path d="M320.995 167.868H248.436V283.925H320.995V167.868Z" fill="#7EB3FF"/>
<path d="M283.881 234.61C287.77 224.939 290.03 214.12 290.03 202.652C290.03 162 262.545 129.027 228.625 129.027C194.705 129.027 167.205 162 167.205 202.652C167.205 214.12 169.449 224.939 173.364 234.61H283.881Z" fill="#EAF4FE"/>
<path d="M310.38 205.372C310.38 221.488 299.493 234.549 286.041 234.549C272.608 234.549 261.711 221.488 261.711 205.372C261.711 189.265 272.608 176.205 286.041 176.205C299.493 176.205 310.38 189.265 310.38 205.372Z" fill="#EAF4FE"/>
<path d="M287.113 168.684C287.113 203.878 263.317 232.425 233.964 232.425C204.591 232.425 180.796 203.878 180.796 168.684C180.796 133.51 204.591 104.965 233.964 104.965C263.317 104.965 287.113 133.51 287.113 168.684Z" fill="#EAF4FE"/>
<path d="M233.964 104.965C204.591 104.965 180.796 133.51 180.796 168.684C180.796 177.649 182.35 186.172 185.143 193.914C194.524 203.876 206.832 209.977 220.35 209.977C249.704 209.977 273.49 181.435 273.49 146.236C273.49 137.276 271.936 128.762 269.152 121.026C259.771 111.061 247.473 104.965 233.964 104.965Z" fill="#C5E1F9"/>
<path d="M41.4139 211.26C35.6615 211.26 30.9796 216.871 30.9796 223.772V272.883C30.9796 279.785 35.6615 285.395 41.4139 285.395H46.8261C52.5775 285.395 57.2585 279.785 57.2585 272.883V223.772C57.2585 216.871 52.5775 211.26 46.8261 211.26H41.4139ZM46.8261 293.737H41.4139C31.8223 293.737 24.022 284.377 24.022 272.883V223.772C24.022 212.276 31.8223 202.919 41.4139 202.919H46.8261C56.4148 202.919 64.216 212.276 64.216 223.772V272.883C64.216 284.377 56.4148 293.737 46.8261 293.737Z" fill="#EAF4FE"/>
<path d="M41.435 208.85C34.6473 208.85 29.1273 215.47 29.1273 223.612V272.723C29.1273 280.86 34.6473 287.481 41.435 287.481H46.8472C53.6349 287.481 59.152 280.86 59.152 272.723V223.612C59.152 215.47 53.6349 208.85 46.8472 208.85H41.435ZM41.435 291.325C32.8807 291.325 25.9185 282.983 25.9185 272.723V223.612C25.9185 213.352 32.8807 205.004 41.435 205.004H46.8472C55.4016 205.004 62.3639 213.352 62.3639 223.612V272.723C62.3639 282.983 55.4016 291.325 46.8472 291.325H41.435Z" fill="white"/>
<path d="M70.7221 237.592H17.3843V296.901H70.7221V237.592Z" fill="#0450CF"/>
<path d="M70.7221 245.928H17.3843V288.558H70.7221V245.928Z" fill="#0561FC"/>
<path d="M49.0319 259.023C49.0319 262.28 46.8278 264.921 44.1107 264.921C41.3975 264.921 39.1934 262.28 39.1934 259.023C39.1934 255.765 41.3975 253.128 44.1107 253.128C46.8278 253.128 49.0319 255.765 49.0319 259.023Z" fill="#0450CF"/>
<path d="M40.458 278.586H47.7292L46.302 259.949H41.8899L40.458 278.586Z" fill="#0450CF"/>
<path d="M20.229 249.719H25.4448L29.5041 241.381H24.2883L20.229 249.719Z" fill="#0561FC"/>
<path d="M30.3433 249.719H35.5628L39.6221 241.381H34.4064L30.3433 249.719Z" fill="#0561FC"/>
<path d="M40.458 249.719H45.6785L49.734 241.381H44.522L40.458 249.719Z" fill="#0561FC"/>
<path d="M37.9292 293.111H43.1488L47.2061 284.769H41.9876L37.9292 293.111Z" fill="#0561FC"/>
<path d="M48.0435 293.111H53.2592L57.3176 284.769H52.1019L48.0435 293.111Z" fill="#0561FC"/>
<path d="M58.1582 293.111H63.3749L67.4324 284.769H62.2128L58.1582 293.111Z" fill="#0561FC"/>
</svg>
