<svg width="732" height="702" viewBox="0 0 732 702" fill="none" xmlns="http://www.w3.org/2000/svg">
<path d="M0 602.379L190.607 692.62L533.885 518.981L332.101 435.129L0 602.379Z" fill="#565B70"/>
<path d="M16.353 602.778L184.381 681.683V263.203L16.353 185.163V602.778Z" fill="#005A7C"/>
<path d="M195.497 682.406L516.312 519.322V95.651L195.497 248.543V682.406V682.406Z" fill="#002E44"/>
<path d="M354.569 172.957L355.827 172.354L354.569 172.957Z" fill="#F4F6FA"/>
<path d="M349.366 175.249V175.246L354.169 172.96L349.366 175.249Z" fill="#F1F6FA"/>
<path d="M344.906 177.564L349.714 175.272V175.275L344.906 177.564Z" fill="#F2F5FA"/>
<path d="M340.446 179.581L344.716 177.546L340.446 179.581Z" fill="#F0F3F8"/>
<path d="M516.597 323.294L340.446 179.605L344.716 177.57L349.524 175.281L354.327 172.992L355.585 172.392L516.597 303.725V323.294Z" fill="#00465A"/>
<path d="M474.989 115.471C474.993 115.458 474.989 115.481 474.989 115.471L516.578 95.651L474.989 115.471Z" fill="white"/>
<path d="M445.255 129.503L474.689 115.475C474.689 115.485 474.693 115.462 474.689 115.475L445.255 129.503Z" fill="white"/>
<path d="M440.796 131.779L445.596 129.493L440.796 131.779Z" fill="white"/>
<path d="M435.593 134.055L440.396 131.766L435.593 134.055Z" fill="white"/>
<path d="M431.132 136.367L435.936 134.078L431.132 136.367Z" fill="white"/>
<path d="M426.672 138.641L431.472 136.352L426.672 138.641Z" fill="white"/>
<path d="M421.469 140.915L426.273 138.626L421.469 140.915Z" fill="white"/>
<path d="M417.009 143.226L421.809 140.937L417.009 143.226Z" fill="white"/>
<path d="M411.806 145.497L416.61 143.211L411.806 145.497Z" fill="#FDFEFE"/>
<path d="M407.346 147.812L412.149 145.523L407.346 147.812Z" fill="#FEFEFE"/>
<path d="M402.142 150.086L406.942 147.797L402.142 150.086Z" fill="#FBFEFF"/>
<path d="M397.683 152.36L402.486 150.07L397.683 152.36Z" fill="#FBFCFD"/>
<path d="M392.479 154.671L397.283 152.382L392.479 154.671Z" fill="#FAFCFD"/>
<path d="M390.249 155.771L392.591 154.656L390.249 155.771Z" fill="#FAFAFD"/>
<path d="M516.438 258.721L390.249 155.788L392.591 154.673L397.394 152.384L402.198 150.095L406.998 147.806L411.802 145.516L416.606 143.231L421.405 140.942L426.209 138.652L431.009 136.363L435.813 134.074L440.616 131.785L445.416 129.499L474.85 115.471L516.438 95.651V258.721Z" fill="#00465A"/>
<path d="M296.589 200.47L300.803 198.464L296.589 200.47Z" fill="#E6EAF2"/>
<path d="M292.873 202.348L296.884 200.435L292.873 202.348Z" fill="#E5EAF1"/>
<path d="M516.815 385.042C442.166 324.153 367.522 263.261 292.873 202.372L296.884 200.459L301.097 198.453L305.844 196.191C376.167 253.553 446.493 310.92 516.815 368.283V385.042Z" fill="#00465A"/>
<path d="M210.363 241.704C210.363 241.7 210.363 241.707 210.363 241.704L212.51 240.681L210.363 241.704Z" fill="#D1D9E7"/>
<path d="M205.16 244.001L209.975 241.705C209.975 241.709 209.975 241.702 209.975 241.705L205.16 244.001Z" fill="#D0D8E6"/>
<path d="M200.7 246.315L205.524 244.016L200.7 246.315Z" fill="#CDD8E5"/>
<path d="M195.497 248.545L200.146 246.328L195.497 248.545Z" fill="#CCD7E5"/>
<path d="M488.823 533.271C391.045 453.515 293.271 373.759 195.497 294V248.515L200.146 246.298L204.971 244L209.786 241.704L211.934 240.681C313.392 323.442 414.85 406.202 516.312 488.966V519.295L488.823 533.271Z" fill="#00465A"/>
<path d="M408.136 574.468C347.91 525.342 287.685 476.215 227.459 427.089C232.821 423.496 236.133 417.965 234.806 412.391C297.79 463.767 360.777 515.146 423.764 566.523L417.82 569.544L408.136 574.468Z" fill="#00465A"/>
<path d="M319.21 619.502C277.974 585.861 236.737 552.224 195.497 518.587V495.65C242.507 533.997 289.522 572.348 336.533 610.695L319.21 619.502Z" fill="#00465A"/>
<path d="M15.6099 602.617L42.5647 590.215L15.6099 577.809V602.617Z" fill="#008CBB"/>
<path d="M15.6099 577.832L42.5647 565.43L15.6099 553.025V577.832Z" fill="#008CBB"/>
<path d="M15.6099 553.01L42.5647 540.608L15.6099 528.203V553.01Z" fill="#008CBB"/>
<path d="M15.6099 528.185L42.5647 515.783L15.6099 503.381V528.185Z" fill="#008CBB"/>
<path d="M15.6099 503.403L42.5647 490.998L15.6099 478.596V503.403Z" fill="#008CBB"/>
<path d="M15.6099 478.581L42.5647 466.179L15.6099 453.774V478.581Z" fill="#008CBB"/>
<path d="M15.6099 453.797L42.5647 441.395L15.6099 428.989V453.797Z" fill="#008CBB"/>
<path d="M15.6099 428.975L42.5647 416.573L15.6099 404.167V428.975Z" fill="#008CBB"/>
<path d="M15.6099 404.149L42.5647 391.747L15.6099 379.345V404.149Z" fill="#008CBB"/>
<path d="M15.6099 379.368L42.5647 366.966L15.6099 354.561V379.368Z" fill="#008CBB"/>
<path d="M15.6099 357.843L42.5647 345.441L15.6099 333.035V357.843Z" fill="#008CBB"/>
<path d="M15.6099 333.058L42.5647 320.656L15.6099 308.251V333.058Z" fill="#008CBB"/>
<path d="M15.6099 308.233L42.5647 295.831L15.6099 283.429V308.233Z" fill="#008CBB"/>
<path d="M15.6099 283.414L42.5647 271.012L15.6099 258.606V283.414Z" fill="#008CBB"/>
<path d="M15.6099 258.629L42.5647 246.227L15.6099 233.822V258.629Z" fill="#008CBB"/>
<path d="M15.6099 233.807L42.5647 221.405L15.6099 209V233.807Z" fill="#008CBB"/>
<path d="M15.6099 209.019L42.5647 196.617L15.6099 184.215V209.019Z" fill="#008CBB"/>
<path d="M516.584 519.853V494.854L489.856 507.553L516.584 519.853Z" fill="#008CBB"/>
<path d="M516.584 494.882V469.88L489.856 482.579L516.584 494.882Z" fill="#005A7C"/>
<path d="M516.584 469.867V444.868L489.856 457.567L516.584 469.867Z" fill="#005A7C"/>
<path d="M516.584 444.855V419.856L489.856 432.552L516.584 444.855Z" fill="#005A7C"/>
<path d="M516.584 419.881V394.883L489.856 407.578L516.584 419.881Z" fill="#005A7C"/>
<path d="M516.584 394.872V369.871L489.856 382.57L516.584 394.872Z" fill="#005A7C"/>
<path d="M516.584 369.861V344.859L489.856 357.561L516.584 369.861Z" fill="#005A7C"/>
<path d="M516.584 344.846V319.847L489.856 332.546L516.584 344.846Z" fill="#005A7C"/>
<path d="M516.584 320.251V295.252L489.856 307.951L516.584 320.251Z" fill="#005A7C"/>
<path d="M516.584 296.149V271.15L489.856 283.849L516.584 296.149Z" fill="#005A7C"/>
<path d="M516.584 271.444V246.442L489.856 259.14L516.584 271.444Z" fill="#005A7C"/>
<path d="M516.584 246.47V221.468L489.856 234.17L516.584 246.47Z" fill="#005A7C"/>
<path d="M516.584 221.837V196.835L489.856 209.534L516.584 221.837Z" fill="#005A7C"/>
<path d="M516.584 197.735V172.733L489.856 185.432L516.584 197.735Z" fill="#005A7C"/>
<path d="M516.584 173.023V148.024L489.856 160.72L516.584 173.023Z" fill="#005A7C"/>
<path d="M516.584 148.734V123.732L489.856 136.431L516.584 148.734Z" fill="#005A7C"/>
<path d="M0 611.762L190.603 702V692.642L0 602.404V611.762Z" fill="#EAF5F8"/>
<path d="M190.293 701.994L533.574 528.351V518.994L190.293 692.636V701.994Z" fill="#A4B7D3"/>
<path d="M516.615 520.733L522.988 518.012V83.2209L516.615 84.8571V520.734V520.733Z" fill="#A4B7D3"/>
<path d="M190.293 249.016V686.31L197.883 682.767L197.757 246.821L190.293 249.014V249.016Z" fill="#A4B7D3"/>
<path d="M183.603 683.074L190.744 686.304V248.963L183.603 246.707V683.076V683.074Z" fill="#EAF5F8"/>
<path d="M10.4067 601.945L17.5475 604.085V169.975L10.4067 167.692V601.945V601.945Z" fill="#EAF5F8"/>
<path d="M197.727 582.315L516.233 420.076V418.189L197.727 580.392V582.315Z" fill="#A4B7D3"/>
<path d="M197.727 508.489L516.233 346.253V344.366L197.727 506.566V508.489Z" fill="#A4B7D3"/>
<path d="M197.727 483.405L516.233 321.166V319.279L197.727 481.482V483.405Z" fill="#A4B7D3"/>
<path d="M197.727 458.659L516.233 296.419V294.532L197.727 456.735V458.659Z" fill="#A4B7D3"/>
<path d="M197.727 533.656L516.233 371.42V369.53L197.727 531.736V533.656Z" fill="#A4B7D3"/>
<path d="M197.727 558.819L516.233 396.583V394.693L197.727 556.899V558.819Z" fill="#A4B7D3"/>
<path d="M197.727 384.608L516.233 222.372V220.482L197.727 382.685V384.608Z" fill="#A4B7D3"/>
<path d="M197.727 359.634L516.233 197.395V195.509L197.727 357.711V359.634Z" fill="#A4B7D3"/>
<path d="M197.727 335.719L516.233 173.482V171.596L197.727 333.799V335.719Z" fill="#A4B7D3"/>
<path d="M197.727 311.051L516.233 148.815V146.925L197.727 309.128V311.051Z" fill="#A4B7D3"/>
<path d="M197.727 285.42L516.233 127.63V99.7059L197.727 261.909V285.42Z" fill="#A4B7D3"/>
<path d="M197.727 409.393L516.233 247.157V245.267L197.727 407.47V409.393Z" fill="#A4B7D3"/>
<path d="M197.727 434.404L516.233 272.165V270.279L197.727 432.481V434.404Z" fill="#A4B7D3"/>
<path d="M121.906 652.174C129.415 656.987 130.187 655.334 130.41 655.413V214.86L121.906 210.061V652.174Z" fill="#EAF5F8"/>
<path d="M66.1562 627.037C66.1562 627.037 74.2799 630.554 74.6599 630.62V210.612L66.1562 205.816V627.037Z" fill="#EAF5F8"/>
<path d="M17.0967 528.577L183.248 606.799V604.879L17.0967 526.687V528.577Z" fill="#EAF5F8"/>
<path d="M17.0967 503.489L183.248 581.711V579.788L17.0967 501.599V503.489Z" fill="#EAF5F8"/>
<path d="M17.0967 553.74L183.248 631.962V630.039L17.0967 551.85V553.74Z" fill="#EAF5F8"/>
<path d="M17.0967 429.663L183.248 507.886V505.966L17.0967 427.777V429.663Z" fill="#EAF5F8"/>
<path d="M17.0967 404.579L183.248 482.801V480.878L17.0967 402.689V404.579Z" fill="#EAF5F8"/>
<path d="M17.0967 380.663L183.248 458.888V456.966L17.0967 378.777V380.663Z" fill="#EAF5F8"/>
<path d="M17.0967 357.584L183.248 435.806V433.886L17.0967 355.697V357.584Z" fill="#EAF5F8"/>
<path d="M17.0967 333.485L183.248 411.707V409.787L17.0967 331.595V333.485Z" fill="#EAF5F8"/>
<path d="M17.0967 309.421L183.248 387.643V385.72L17.0967 307.531V309.421Z" fill="#EAF5F8"/>
<path d="M17.0967 285.319L183.248 363.537V361.618L17.0967 283.429V285.319Z" fill="#EAF5F8"/>
<path d="M17.0967 261.251L183.248 339.473V337.553L17.0967 259.364V261.251Z" fill="#EAF5F8"/>
<path d="M17.0967 237.152L183.248 315.374V313.451L17.0967 235.262V237.152Z" fill="#EAF5F8"/>
<path d="M17.0967 209.759L183.248 287.982V264.375L17.0967 186.186V209.759Z" fill="#EAF5F8"/>
<path d="M17.0967 454.827L183.248 533.049V531.129L17.0967 452.94V454.827Z" fill="#EAF5F8"/>
<path d="M17.0967 479.99L183.248 558.212V556.289L17.0967 478.103V479.99Z" fill="#EAF5F8"/>
<path d="M17.0967 604.079L183.248 683.076V657.332L17.0967 578.378V604.079Z" fill="#EAF5F8"/>
<path d="M197.727 606.949L516.233 444.825V442.935L197.727 605.026V606.949Z" fill="#A4B7D3"/>
<path d="M197.727 632.141L516.233 470.024V468.137L197.727 630.218V632.141Z" fill="#A4B7D3"/>
<path d="M198.47 682.781L516.851 520.756V494.854L198.47 656.842V682.781Z" fill="#A4B7D3"/>
<path d="M447.486 554.979C455.392 550.853 455.796 550.764 456.176 550.649V113.197L447.486 117.175V554.981V554.979Z" fill="#A4B7D3"/>
<path d="M366.462 595.907C374.368 591.781 374.768 591.692 375.152 591.577V154.126L366.462 158.103V595.91V595.907Z" fill="#A4B7D3"/>
<path d="M272.803 644.226C280.708 640.1 281.112 640.007 281.493 639.895V202.444L272.803 206.421V644.228V644.226Z" fill="#A4B7D3"/>
<path d="M4.45996 184.34L188.662 268.291V260.062L4.45996 176.143V184.34Z" fill="#A4B7D3"/>
<path d="M188.807 268.293L536.027 103.91V95.651L188.807 260.064V268.293Z" fill="#565B70"/>
<path d="M1.48682 175.439L192.094 261.383V255.3L1.48682 169.36V175.439Z" fill="white"/>
<path d="M191.78 261.358L542.954 95.7836V89.7012L191.78 255.275V261.358Z" fill="#A4B7D3"/>
<path d="M1.48682 169.344L192.094 255.285L543.269 89.7105L344.768 0L1.48682 169.344Z" fill="#B4C6D3"/>
<path d="M195.665 130.977C189.491 130.977 183.215 131.353 176.96 132.135H176.952C153.491 135.031 134.591 143.419 127.636 154.03C124.07 159.459 123.859 164.99 127.005 170.469C136.726 187.769 176.576 198.354 214.032 193.624C237.339 190.744 256.166 182.399 263.173 171.851C266.801 166.392 267.071 160.811 263.978 155.26C255.66 140.635 227.032 130.977 195.665 130.977ZM195.641 201.368C161.068 201.368 129.16 190.144 119.666 173.243C115.452 165.904 115.736 158.176 120.499 150.916C128.764 138.319 149.415 128.862 175.742 125.614C217.084 120.438 259.951 132.497 271.325 152.505C275.482 159.954 275.118 167.724 270.282 174.997C261.968 187.512 241.394 196.916 215.257 200.145C208.71 200.972 202.127 201.368 195.641 201.368Z" fill="#FFD792"/>
<path d="M139.746 165.057L150.094 169.975L210.76 140.626L199.858 135.405L139.746 165.057Z" fill="#FFD792"/>
<path d="M182.86 182.183L193.212 187.101L253.873 157.752L242.968 152.534L182.86 182.183Z" fill="#FFD792"/>
<path d="M220.807 165.915L183.731 149.578L176.17 155.251L213.242 172.364L220.807 165.915Z" fill="#FFD792"/>
<path d="M333.756 75.8536L371.988 93.0909V65.4042L333.756 48.1665V75.8536Z" fill="white"/>
<path d="M372.409 93.0697L442.849 59.8613V32.1742L372.409 65.3829V93.0697Z" fill="#A4B7D3"/>
<path d="M333.756 48.1404L371.988 65.378L442.428 32.1693L402.611 14.1733L333.756 48.1404Z" fill="#EAF5F8"/>
<path d="M281.723 108.378L309.499 120.902V100.785L281.723 88.2612V108.378Z" fill="white"/>
<path d="M309.226 120.91L360.405 96.7821V76.6648L309.226 100.793V120.91Z" fill="#A4B7D3"/>
<path d="M281.723 88.266L309.498 100.79L360.678 76.6621L331.746 63.5905L281.723 88.266Z" fill="#EAF5F8"/>
<path d="M673.202 431.15C675.054 436.342 685.603 435.432 683.052 441.926C680.812 447.623 679.591 452.834 680.529 453.329C682.413 454.319 687.217 442.678 689.659 437.991C692.097 433.294 693.052 428.538 695.547 429.679C698.369 430.966 700.075 438.308 701.269 438.391C706.966 438.796 703.585 425.127 697.969 422.938C691.98 420.599 725.118 384.87 724.559 370.516L699.885 368.203C699.885 368.203 687.504 408.837 680.573 416.291C677.904 419.151 670.804 424.431 673.202 431.15Z" fill="#F6A0A6"/>
<path d="M677.362 342.168C689.052 357.09 694.094 368.331 696.755 373.081C699.42 377.824 726.334 382.458 726.738 373.774C727.749 351.747 715.521 333.935 705.546 321.744C693.71 307.294 682.631 298.632 670.714 306.192C660.144 312.911 663.65 324.644 677.362 342.168Z" fill="white"/>
<path d="M662.137 628.006C660.115 631.569 663.831 637.291 667.462 639.858C671.465 642.688 695.488 659.648 711.08 654.777C712.965 654.186 714.857 653.467 716.204 652.246C718.541 650.139 715.241 638.621 712.637 636.553C709.237 633.838 663.779 625.081 662.137 628.006Z" fill="#FFD792"/>
<path d="M689.91 626.393C678.871 622.9 664.359 623.282 662.705 626.198C660.695 629.77 666.797 635.83 670.416 638.426C680.804 645.86 701.746 653.796 709.315 651.725C711.224 651.207 714.794 650.085 716.141 648.865C718.478 646.758 716.331 639.379 713.545 637.182C710.921 635.114 695.721 628.237 689.91 626.393Z" fill="#F1617C"/>
<path d="M694.993 642.158C693.776 642.158 692.785 643.2 692.785 644.483C692.785 645.77 693.776 646.812 694.993 646.812C696.202 646.812 697.193 645.77 697.193 644.483C697.193 643.2 696.202 642.158 694.993 642.158Z" fill="#FFD792"/>
<path d="M709.788 634.768L705.421 639.468L706.537 641.16C708.709 643.703 708.349 652.035 708.349 652.035C713.391 651.728 715.134 649.344 715.134 649.344C716.432 641.117 712.36 637.957 712.36 637.957L709.788 634.768Z" fill="#FFD792"/>
<path d="M684.82 630.08C683.919 631.706 685.621 636.245 695.273 639.589C698.71 640.787 702.887 641.651 706.583 641.153C706.11 639.916 706.773 638.451 708.12 637.775C709.486 637.086 711.12 637.363 712.406 637.95C711.666 635.882 711.261 633.725 710.792 631.594C708.079 631.97 687.663 624.984 684.82 630.08Z" fill="#F6A0A6"/>
<path d="M679.413 528.522C680.056 550.609 686.87 629.025 686.87 629.025C686.87 629.025 697.003 636.707 716.254 630.648C716.254 630.648 721.434 572.87 723.157 557.268C724.879 541.663 721.754 528.179 720.157 525.25C715.826 517.341 678.758 506.449 679.413 528.522Z" fill="#002E44"/>
<path d="M713.702 410.813C709.096 407.969 694.911 406.304 680.654 416.42C655.001 434.637 679.695 520.571 679.695 535.077C679.695 550.049 716.666 548.614 720.944 528.55C723.819 515.069 730.77 468.33 731.664 459.873C732.634 450.635 732.764 422.565 713.702 410.813Z" fill="#002E44"/>
<path d="M619.765 644.87C617.747 648.433 621.459 654.155 625.098 656.732C629.097 659.555 653.12 676.515 668.712 671.64C670.597 671.05 672.481 670.331 673.836 669.111C676.173 667.003 672.873 655.488 670.269 653.42C666.861 650.702 621.41 641.945 619.765 644.87Z" fill="#FFD792"/>
<path d="M647.541 643.258C636.506 639.765 621.99 640.144 620.336 643.063C618.326 646.635 624.416 652.695 628.043 655.287C638.435 662.732 659.377 670.664 666.942 668.586C668.859 668.072 672.417 666.947 673.772 665.727C676.109 663.619 673.958 656.24 671.164 654.044C668.551 651.982 653.356 645.099 647.541 643.258Z" fill="#F1617C"/>
<path d="M652.615 659.022C651.406 659.022 650.415 660.064 650.415 661.351C650.415 662.633 651.406 663.676 652.615 663.676C653.832 663.676 654.823 662.633 654.823 661.351C654.823 660.064 653.832 659.022 652.615 659.022Z" fill="#FFD792"/>
<path d="M667.411 651.632L663.052 656.335L664.172 658.024C666.331 660.567 665.984 668.899 665.984 668.899C671.03 668.592 672.773 666.218 672.773 666.218C674.067 657.985 669.999 654.825 669.999 654.825L667.411 651.632Z" fill="#FFD792"/>
<path d="M642.454 646.945C641.54 648.578 643.255 653.11 652.903 656.458C656.34 657.652 660.521 658.519 664.217 658.018C663.744 656.781 664.407 655.316 665.753 654.64C667.112 653.961 668.753 654.228 670.044 654.818C669.3 652.75 668.891 650.59 668.426 648.456C665.713 648.838 645.297 641.846 642.454 646.945Z" fill="#F6A0A6"/>
<path d="M638.529 546.731C639.172 568.814 645.836 645.816 645.836 645.816C645.836 645.816 655.864 657.598 675.103 651.535C675.103 651.535 680.55 591.075 682.272 575.474C683.995 559.869 682.887 543.924 681.294 541.009C676.963 533.089 637.874 524.655 638.529 546.731Z" fill="#005A7C"/>
<path d="M679.266 429.94C674.66 427.097 657.106 418.96 642.513 428.753C622.808 441.973 638.49 538.762 638.49 553.268C638.49 568.233 675.472 566.801 679.742 546.737C682.613 533.253 693.511 474.934 694.405 466.483C695.371 457.248 698.327 441.682 679.266 429.94Z" fill="#005A7C"/>
<path d="M693.385 473.971C693.967 470.461 694.363 467.832 694.509 466.483C695.479 457.248 698.431 441.682 679.37 429.94C674.764 427.097 657.21 418.96 642.617 428.753C637.243 432.358 650.704 460.144 693.385 473.971Z" fill="#002E44"/>
<path d="M705.649 352.58C704.266 329.428 695.459 298.868 665.807 303.678C651.154 306.056 605.4 323.771 611.591 349.166C617.026 371.443 629.524 426.399 628.428 454.293C628.428 454.293 705.483 454.293 731.354 425.303C731.354 425.303 707.024 375.731 705.649 352.58Z" fill="#F1617E"/>
<path d="M635.514 266.385C632.28 265.346 607.65 269.548 608.05 272.556C608.451 275.571 612.951 279.183 612.312 282.171C611.867 284.236 611.771 288.56 614.306 290.836C622.822 298.459 628.98 305.078 635.494 302.301C638.693 307.955 633.634 315.874 634.512 315.627C639.57 314.205 653.043 307.711 657.22 304.947C651.499 292.099 653.096 281.409 641.443 270.277C639.772 268.694 637.9 267.15 635.514 266.385Z" fill="#F6A0A6"/>
<path d="M639.879 250.723C637.388 240.508 615.225 246.392 617.413 254.071C606.272 251.043 595.063 264.23 607.667 276.988C607.667 276.988 608.379 272.159 612.681 273.027C614.489 280.428 619.62 275.263 623.826 283.397C626.397 288.391 629.749 293.523 636.199 295.7C641.735 297.57 653.526 292.824 653.526 292.824C651.779 285.653 665.139 271.443 658.172 264.652C660.784 253.781 648.775 248.134 639.879 250.723Z" fill="#002E44"/>
<path d="M654.621 299.245C649.162 300.393 644.463 301.963 633.873 308.774C631.236 310.473 628.762 315.074 629.873 319.22L663.743 303.945L659.42 300.343C658.171 299.311 656.335 298.882 654.621 299.245Z" fill="white"/>
<path d="M500.875 376.811C498.954 376.194 493.362 372.893 492.767 370.412C491.486 365.112 487.753 359.224 485.784 360.866C484.805 361.678 486.653 367.889 486.346 370.95C486.083 373.658 484.13 371.943 476.985 370.828C469.84 369.716 457.406 372.744 453.184 373.932C450.439 374.7 459.642 376.847 467.794 375.446C477.83 373.717 464.801 378.137 464.612 380.304C464.43 382.461 469.787 390.308 470.584 392.198C471.373 394.085 483.503 392.149 488.586 391.594C499.633 390.394 551.1 406.619 572.362 408.812L566.025 383.589C566.025 383.589 515.452 381.495 500.875 376.811Z" fill="#F6A0A6"/>
<path d="M639.29 326.933C625.538 320.907 611.875 329.47 595.454 349.643C581.467 366.814 569.162 376.492 564.213 381.037C559.272 385.589 567.076 413.919 578.6 410.185C607.84 400.689 628.243 380.351 639.464 365.947C652.772 348.858 654.777 333.718 639.29 326.933Z" fill="white"/>
<path d="M322.225 150.179L315.173 144.424L318.982 149.883L329.075 161.691L336.131 167.447L322.225 150.179Z" fill="#A4B7D3"/>
<path d="M337.091 134.064L345.461 130.208L338.409 124.452L330.039 128.308C330.039 128.308 330.735 148.214 331.131 151.539L337.964 157.384L338.183 157.295C337.787 153.97 337.091 134.064 337.091 134.064Z" fill="#A4B7D3"/>
<path d="M316.777 134.343L307.788 138.496L307.739 171.605L314.791 177.361L314.84 144.252L323.833 140.099L316.777 134.343Z" fill="#A4B7D3"/>
<path d="M344.906 130.213L344.858 163.292L335.868 167.445L321.962 150.178L321.708 150.297C322.136 153.77 322.799 173.498 322.799 173.498L314.429 177.383L314.478 144.274L323.471 140.121L337.409 157.388L337.627 157.299C337.231 153.974 336.535 134.068 336.535 134.068L344.906 130.213Z" fill="white"/>
<path d="M284.537 168.638L287.865 158.116C288.447 159.887 289.029 161.655 289.636 163.229L290.542 165.867L284.537 168.638ZM301.722 183.372L299.332 176.607L294.8 172.913L297.594 171.623L296.688 168.984C295.6 166.164 294.589 162.724 293.538 159.755L289.118 156.15L298.859 151.658L291.807 145.902L281.326 150.738L269.086 189.454L276.134 195.21L283.801 170.967L289.296 175.452L293.259 173.622L294.67 177.616L301.722 183.372Z" fill="#A4B7D3"/>
<path d="M289.68 175.457L297.977 171.627L297.072 168.989C295.984 166.169 294.973 162.728 293.922 159.76L293.703 159.882C292.749 163.797 291.689 168.157 290.63 171.954L289.68 175.457ZM299.243 151.662L311.386 179.105L302.106 183.376L299.716 176.611L287.925 182.07L285.507 191.062L276.518 195.214L288.762 156.498L299.243 151.662Z" fill="white"/>
<path d="M272.92 182.264V182.261V182.264L265.868 176.508L264.975 175.97L264.594 175.848L264.404 175.789L264.198 175.723L263.551 175.621L263.349 175.324L257.611 170.643L258.25 170.347C259.172 169.921 260.066 169.542 260.931 169.192L261.748 168.892C262.298 168.684 262.836 168.486 263.357 168.322C264.376 167.992 265.339 167.738 266.224 167.583C266.916 167.461 267.571 167.385 268.165 167.385C268.747 167.385 269.273 167.457 269.75 167.586L269.92 167.642C270.377 167.784 270.793 167.979 271.137 168.256H271.133H271.137L264.085 162.5L263.268 162.012L262.868 161.883L262.702 161.83L262.532 161.774L261.764 161.659L261.117 161.629L260.793 161.635C260.32 161.656 259.819 161.708 259.293 161.797L259.172 161.827C258.286 161.982 257.324 162.236 256.305 162.566L256.095 162.618C255.646 162.767 255.157 162.962 254.684 163.14L253.883 163.437C253.018 163.786 252.124 164.166 251.198 164.591L237.915 170.736L237.866 203.813L244.918 209.568L244.967 176.488L256.859 170.993L256.9 171.267C256.895 173.672 254.999 176.073 250.741 178.032L246.665 179.932L253.717 185.688L257.793 183.788L258.683 183.29L258.772 183.907C258.768 186.931 256.325 189.514 251.522 191.74L246.645 193.993L253.697 199.749L258.574 197.493C263.377 195.27 265.82 192.687 265.824 189.662C265.824 188.772 265.601 188.148 265.148 187.782L259.253 182.97C261.626 181.624 263.082 180.13 263.636 178.58L267.401 181.65C268.27 181.442 269.095 181.33 269.855 181.33C270.433 181.33 270.967 181.41 271.457 181.545L271.646 181.604C272.119 181.756 272.552 181.964 272.92 182.264Z" fill="#A4B7D3"/>
<path d="M254.111 178.214L254.099 185.692L258.175 183.792C262.437 181.833 264.329 179.432 264.333 177.027C264.333 175.632 263.739 174.972 262.53 174.972C261.527 174.972 260.108 175.424 258.26 176.285L254.111 178.214ZM258.955 197.497C263.759 195.274 266.201 192.691 266.206 189.667C266.209 188.107 265.518 187.374 264.131 187.374C262.934 187.374 261.211 187.922 258.967 188.954L254.091 191.21L254.079 199.753L258.955 197.497ZM270.237 181.335C272.938 181.335 274.798 182.747 274.794 186.197C274.782 192.929 268.118 199.011 259.675 202.926L245.3 209.573L245.349 176.493L258.632 170.351C262.534 168.553 266.007 167.389 268.547 167.389C271.244 167.389 272.889 168.702 272.889 171.954C272.881 174.923 270.948 178.987 267.783 181.45V181.655C268.652 181.447 269.477 181.335 270.237 181.335Z" fill="white"/>
<path d="M363.12 135.357L363.168 135.338L374.766 116.467L384.409 112.018L377.358 106.262L367.709 110.712L361.539 120.759L355.918 116.174L347.184 120.208L347.136 153.284L354.188 159.043L354.236 125.963L359.97 123.315L356.116 129.582L355.902 129.671L369.845 142.782L376.897 148.538L367.491 138.926L363.12 135.357Z" fill="#A4B7D3"/>
<path d="M384.791 112.022L373.016 130.655L386.886 144.093L377.278 148.543L367.873 138.931L363.316 146.141L363.303 155.011L354.569 159.048L354.618 125.968L363.352 121.934L363.332 135.431L363.55 135.342L375.147 116.472L384.791 112.022Z" fill="white"/>
</svg>
