<svg width="598" height="637" viewBox="0 0 598 637" fill="none" xmlns="http://www.w3.org/2000/svg">
<path d="M157.75 637C67.5599 636.994 13.9125 569.463 28.8643 454.251C34.8028 408.481 50.9462 360.14 74.6581 312.726C30.0728 438.429 43.1304 558.973 116.674 612.09C134.064 624.651 153.656 632.589 174.729 636.235C168.936 636.747 163.276 637 157.75 637V637ZM564.777 291.645L564.806 273.004C589.561 166.776 571.14 70.7348 507.684 24.9045C490.335 12.3656 470.778 4.42998 449.745 0.778081C455.585 0.258515 461.28 0 466.847 0C556.903 0 610.448 67.545 595.514 182.738C590.926 218.059 580.26 254.897 564.777 291.645Z" fill="white"/>
<path d="M174.803 636.189C153.73 632.543 134.138 624.604 116.748 612.043C43.2044 558.926 30.1467 438.382 74.732 312.68C78.413 305.313 82.2747 297.982 86.3131 290.673C32.5962 422.453 42.4951 552.616 119.358 608.13C140.835 623.642 165.721 632.012 192.611 633.868C186.55 634.905 180.611 635.677 174.803 636.189ZM564.878 272.961V257.757C583.993 159.302 564.617 71.7084 505.17 28.7736C483.739 13.3033 458.929 4.93589 432.123 3.0496C438.14 2.02119 444.053 1.24564 449.817 0.734253C470.85 4.38616 490.407 12.3217 507.756 24.8607C571.212 70.691 589.633 166.732 564.878 272.961Z" fill="white"/>
<path d="M192.513 633.903C165.622 632.046 140.736 623.676 119.259 608.165C42.3965 552.65 32.4976 422.487 86.2145 290.708C90.352 283.22 94.6725 275.771 99.1616 268.372C35.3683 405.873 41.6298 546.301 121.862 604.249C146.091 621.748 174.714 630.033 205.666 630.033C207.525 630.033 209.396 630.003 211.276 629.942C204.905 631.535 198.64 632.854 192.513 633.902V633.903ZM564.78 257.791V238.196C577.329 149.492 556.964 72.0861 502.454 32.7234C478.225 15.2236 449.603 6.93878 418.654 6.93878C416.91 6.93878 415.167 6.96359 413.409 7.01574C419.743 5.43449 425.932 4.12867 432.025 3.08362C458.831 4.9699 483.641 13.3374 505.072 28.8076C564.519 71.7424 583.896 159.336 564.78 257.791Z" fill="white"/>
<path d="M205.722 629.996C174.77 629.996 146.148 621.711 121.919 604.211C41.6862 546.263 35.4248 405.835 99.218 268.334C103.936 260.561 108.841 252.842 113.923 245.198C38.7455 388.108 40.7505 539.788 124.525 600.295C148.423 617.556 176.656 625.728 207.181 625.728C215.136 625.728 223.242 625.172 231.474 624.078C224.631 626.322 217.928 628.258 211.333 629.905C209.453 629.965 207.582 629.996 205.722 629.996V629.996ZM564.838 238.159L564.896 194.993C564.926 192.381 564.926 189.774 564.896 187.195V165.73C564.926 161.419 564.083 157.212 562.485 153.304C555.744 103.3 534.999 61.949 499.906 36.5988C476.008 19.3387 447.778 11.1692 417.253 11.1692C409.487 11.1692 401.56 11.6997 393.533 12.7419C400.296 10.5286 406.944 8.6091 413.467 6.97851C415.225 6.92636 416.968 6.90155 418.712 6.90155C449.661 6.90155 478.283 15.1864 502.512 32.6862C557.023 72.0489 577.387 149.455 564.838 238.159Z" fill="white"/>
<path d="M207.083 625.719C176.558 625.719 148.325 617.547 124.428 600.287C40.6531 539.778 38.6481 388.099 113.825 245.189C119.334 236.907 125.044 228.715 130.948 220.623C42.5039 368.615 39.4008 533.078 127.037 596.376C150.6 613.397 178.441 621.454 208.542 621.454C223.113 621.454 238.207 619.568 253.606 615.891C246.07 618.963 238.657 621.688 231.376 624.072C223.145 625.166 215.039 625.722 207.083 625.722V625.719ZM564.799 194.984V187.186C564.829 189.765 564.829 192.372 564.799 194.984ZM562.388 153.295C561.109 150.185 559.366 147.268 557.187 144.636C549.11 100.252 529.207 63.6282 497.203 40.5054C473.636 23.4843 445.798 15.4275 415.697 15.4275C401.399 15.4275 386.605 17.2425 371.504 20.7813C378.94 17.762 386.25 15.0839 393.435 12.7327C401.463 11.6905 409.39 11.1599 417.156 11.1599C447.681 11.1599 475.911 19.3295 499.809 36.5896C534.902 61.9398 555.647 103.291 562.388 153.295Z" fill="white"/>
<path d="M208.6 621.443C178.499 621.443 150.659 613.387 127.095 596.366C39.4591 533.069 42.5621 368.606 131.006 220.612C137.68 211.469 144.612 202.439 151.748 193.596C150.383 195.59 149.029 197.597 147.681 199.618C46.9032 350.956 38.852 526.832 129.701 592.45C152.934 609.231 180.382 617.176 210.059 617.176C232.216 617.176 255.62 612.743 279.431 604.257C277.906 605.013 276.371 605.761 274.843 606.493C267.687 609.919 260.62 613.048 253.665 615.88C238.266 619.557 223.171 621.443 208.6 621.443V621.443ZM557.243 144.627C555.79 142.875 554.163 141.25 552.333 139.785C543.616 99.3052 524.44 65.9286 494.652 44.4119C471.417 27.6302 443.972 19.6859 414.292 19.6859C392.541 19.6859 369.599 23.9509 346.239 32.1369C347.355 31.5925 348.465 31.0563 349.58 30.5201C357.013 26.9508 364.346 23.7006 371.56 20.7721C386.661 17.2332 401.455 15.4183 415.753 15.4183C445.854 15.4183 473.692 23.4751 497.259 40.4961C529.263 63.6189 549.166 100.243 557.243 144.627Z" fill="white"/>
<path d="M210.122 617.314C180.445 617.314 152.997 609.37 129.764 592.588C38.9151 526.97 46.9662 351.096 147.744 199.756C149.092 197.735 150.446 195.728 151.811 193.734C160.708 182.713 169.936 171.965 179.48 161.515C169.273 174.082 159.441 187.415 150.094 201.455C50.7546 350.63 42.82 523.995 132.37 588.674C155.272 605.214 182.325 613.046 211.58 613.046C243.46 613.046 277.957 603.738 312.509 586.274C301.599 592.849 290.584 598.906 279.494 604.395C255.683 612.881 232.279 617.313 210.122 617.313V617.314ZM552.396 139.922C551.292 139.02 550.101 138.176 548.88 137.401L547.66 136.732C538.508 99.4181 520.057 68.6456 492.107 48.4626C469.205 31.9228 442.152 24.0912 412.897 24.0912C381.514 24.0912 347.604 33.1051 313.589 50.0489C324.401 43.5982 335.32 37.6557 346.302 32.2746C369.663 24.0887 392.604 19.8236 414.355 19.8236C444.035 19.8236 471.481 27.7679 494.716 44.5496C524.503 66.0664 543.679 99.4429 552.396 139.922Z" fill="white"/>
<path d="M211.485 613.037C182.23 613.037 155.176 605.206 132.275 588.666C42.7245 523.986 50.6592 350.622 149.999 201.447C159.346 187.407 169.178 174.073 179.385 161.507C219.795 117.249 265.609 78.6237 313.494 50.0397C347.509 33.0959 381.419 24.082 412.802 24.082C442.057 24.082 469.11 31.9135 492.012 48.4534C519.963 68.6364 538.413 99.4089 547.565 136.723L542.771 134.119C533.357 99.7032 515.633 71.3064 489.405 52.3689C466.836 36.0655 440.175 28.3496 411.343 28.3496C327.438 28.3496 225.211 93.7281 152.346 203.144C54.4483 350.157 46.6294 521.009 134.884 584.75C157.451 601.05 184.115 608.769 212.943 608.769C266.373 608.769 327.232 582.261 383.206 534.751L383.535 534.929C360.668 554.249 336.823 571.548 312.414 586.265C277.861 603.728 243.364 613.037 211.485 613.037V613.037Z" fill="#FDFEFE"/>
<path d="M213.002 608.76C184.174 608.76 157.51 601.041 134.943 584.74C46.688 520.998 54.5068 350.147 152.405 203.134C225.269 93.7188 327.496 28.3403 411.402 28.3403C440.233 28.3403 466.894 36.0563 489.464 52.3596C515.692 71.2971 533.416 99.694 542.829 134.11L537.89 131.401C528.273 99.9333 511.305 73.9288 486.855 56.2726C464.619 40.2111 438.348 32.6082 409.94 32.6082C395.215 32.6082 379.921 34.651 364.315 38.6192C362.97 38.4266 361.622 38.3302 360.279 38.3302C353.12 38.3302 346.208 41.036 341.484 45.7163C276.06 69.6885 207.572 125.52 154.755 204.831C58.2956 349.683 50.593 518.02 137.549 580.824C159.788 596.886 186.056 604.492 214.463 604.492C266.51 604.492 325.707 578.966 380.339 533.146L383.265 534.741C327.29 582.251 266.432 608.759 213.002 608.759V608.76Z" fill="#FEFEFE"/>
<path d="M214.368 604.481C185.96 604.481 159.692 596.876 137.453 580.814C50.4971 518.01 58.1997 349.672 154.659 204.821C207.476 125.51 275.965 69.6784 341.388 45.7062C340.162 46.9244 339.084 48.2717 338.186 49.7401C337.84 50.1937 337.523 50.6696 337.239 51.1725C273.922 75.5107 208.042 129.887 157.01 206.52C61.9914 349.208 54.402 515.032 140.056 576.903C161.964 592.726 187.843 600.213 215.823 600.213C266.481 600.213 324.025 575.658 377.303 531.538L380.243 533.138C325.611 578.957 266.414 604.483 214.368 604.483V604.481ZM537.795 131.392L532.594 128.562C522.889 100.081 506.764 76.5095 484.156 60.1788C462.251 44.3564 436.372 36.8663 408.389 36.8663C396.523 36.8663 384.27 38.2164 371.791 40.8478C369.342 39.7176 366.788 38.9835 364.219 38.6096C379.825 34.6414 395.12 32.5987 409.845 32.5987C438.252 32.5987 464.524 40.2016 486.759 56.263C511.209 73.9193 528.177 99.9238 537.795 131.392Z" fill="#FBFEFF"/>
<path d="M215.882 600.203C187.902 600.203 162.023 592.715 140.115 576.893C54.4606 515.023 62.05 349.199 157.069 206.51C208.101 129.877 273.981 75.5001 337.297 51.162C336.536 52.5067 335.999 54.0274 335.717 55.68C273.722 79.8695 209.356 133.215 159.419 208.207C65.8388 348.733 58.3658 512.047 142.724 572.977C164.298 588.56 189.785 595.934 217.341 595.934C266.612 595.934 322.485 572.358 374.407 529.918L377.361 531.527C324.083 575.647 266.539 600.202 215.882 600.202V600.203ZM532.651 128.553L527.189 125.573C517.485 100.146 502.306 79.0356 481.607 64.0852C460.034 48.5022 434.547 41.1248 406.988 41.1248C397.354 41.1248 387.46 42.0294 377.396 43.7973L373.464 41.65C372.93 41.3585 372.392 41.089 371.849 40.8386C384.328 38.2073 396.581 36.8572 408.447 36.8572C436.43 36.8572 462.309 44.3473 484.213 60.1697C506.821 76.5004 522.947 100.071 532.651 128.553Z" fill="#FBFCFD"/>
<path d="M217.399 595.927C189.843 595.927 164.356 588.552 142.783 572.969C58.4244 512.04 65.8973 348.726 159.478 208.199C209.415 133.208 273.781 79.8622 335.776 55.6727C335.685 56.1841 335.621 56.7121 335.583 57.2483C335.578 57.2785 335.572 58.1033 335.563 59.6544C274.481 83.4454 211.036 136.002 161.826 209.896C69.6891 348.261 62.3263 509.062 145.389 569.056C166.631 584.397 191.726 591.659 218.861 591.659C266.732 591.659 320.949 569.042 371.496 528.294L374.465 529.91C322.544 572.35 266.671 595.926 217.399 595.926V595.927ZM527.249 125.563L521.467 122.398C511.85 100.092 497.749 81.49 479.058 67.9889C457.816 52.648 432.721 45.3831 405.587 45.3831C398.276 45.3831 390.821 45.9112 383.249 46.9506L377.455 43.7881C387.52 42.0202 397.413 41.1155 407.048 41.1155C434.607 41.1155 460.094 48.4929 481.667 64.076C502.366 79.0264 517.544 100.136 527.249 125.563Z" fill="#FAFCFD"/>
<path d="M218.765 591.65C191.631 591.65 166.536 584.388 145.294 569.048C62.2308 509.053 69.5936 348.253 161.73 209.887C210.941 135.993 274.385 83.437 335.468 59.646C335.465 60.6496 335.462 61.9611 335.456 63.5562C275.219 86.9099 212.614 138.702 164.08 211.584C73.3793 347.788 66.1361 506.076 147.903 565.131C168.811 580.233 193.513 587.382 220.224 587.382C266.697 587.382 319.246 565.728 368.41 526.657L371.4 528.285C320.853 569.033 266.636 591.65 218.765 591.65V591.65ZM521.37 122.389L515.123 118.988C505.826 99.888 492.919 83.8596 476.355 71.8954C455.444 56.7936 430.742 49.644 404.031 49.644C399.205 49.644 394.321 49.8752 389.376 50.3373L383.152 46.9413C390.724 45.9019 398.18 45.3739 405.49 45.3739C432.624 45.3739 457.719 52.6388 478.961 67.9797C497.652 81.4808 511.753 100.083 521.37 122.389Z" fill="#FAFAFD"/>
<path d="M220.284 587.369C193.573 587.369 168.87 580.22 147.962 565.118C66.1958 506.061 73.439 347.774 164.14 211.571C212.674 138.688 275.279 86.8964 335.516 63.5427C335.516 64.6949 335.513 66.001 335.51 67.4472C276.113 90.3639 214.35 141.397 166.491 213.267C77.2308 347.31 70.1007 503.085 150.566 561.204C171.145 576.067 195.456 583.103 221.742 583.103C266.812 583.103 317.691 562.406 365.466 525.006L368.47 526.642C319.306 565.714 266.757 587.368 220.284 587.368V587.369ZM515.184 118.976L508.385 115.258C499.59 99.4773 488.078 86.1025 473.809 75.7963C453.233 60.9342 428.922 53.8973 402.636 53.8973C400.515 53.8973 398.377 53.9441 396.232 54.0349L389.436 50.3255C394.381 49.8634 399.266 49.6323 404.091 49.6323C430.802 49.6323 455.504 56.7819 476.415 71.8837C492.98 83.8478 505.886 99.8762 515.184 118.976Z" fill="#F9FBFC"/>
<path d="M221.801 583.098C195.515 583.098 171.204 576.061 150.624 561.199C70.1594 503.08 77.2895 347.303 166.549 213.262C214.409 141.391 276.171 90.3585 335.569 67.4418C335.566 68.6461 335.563 69.9497 335.563 71.3494C277.008 93.8258 216.092 144.094 168.9 214.961C81.0813 346.839 74.0644 500.102 153.234 557.285C173.479 571.909 197.397 578.83 223.259 578.83C266.923 578.83 316.122 559.092 362.497 523.356L365.525 525.003C317.749 562.403 266.871 583.1 221.801 583.1V583.098ZM508.444 115.252L500.802 111.08C492.838 98.7697 482.994 88.1802 471.262 79.7056C451.711 65.5854 428.746 58.6453 403.903 58.186L396.291 54.0284C398.435 53.9376 400.574 53.8908 402.695 53.8908C428.981 53.8908 453.291 60.9276 473.868 75.7898C488.137 86.096 499.648 99.4708 508.444 115.252Z" fill="#F9F9FB"/>
<path d="M223.162 578.791C197.3 578.791 173.381 571.87 153.136 557.246C73.9668 500.065 80.9836 346.802 168.802 214.922C215.994 144.055 276.911 93.7869 335.465 71.3106C335.462 72.5422 335.46 73.843 335.46 75.2179C277.753 97.2545 217.67 146.764 171.153 216.619C84.7724 346.336 77.8747 497.086 155.742 553.33C175.657 567.714 199.182 574.523 224.62 574.523C266.869 574.523 314.392 555.731 359.351 521.656L362.399 523.317C316.025 559.052 266.826 578.79 223.162 578.79V578.791ZM500.704 111.043L491.761 106.163C485.108 97.5338 477.376 89.9529 468.555 83.5817C452.086 71.6889 433.154 64.974 412.705 63.0051L403.806 58.1492C428.648 58.6084 451.613 65.5485 471.164 79.6687C482.897 88.1433 492.74 98.7328 500.704 111.043Z" fill="#F6F9FB"/>
<path d="M224.678 574.514C199.24 574.514 175.715 567.706 155.8 553.322C77.9326 497.079 84.8304 346.328 171.211 216.61C217.728 146.756 277.811 97.2462 335.518 75.2096C335.515 76.4554 335.515 77.7587 335.512 79.1169C278.648 100.714 219.405 149.461 173.562 218.307C88.6191 345.863 81.8346 494.103 158.406 549.406C177.99 563.55 201.123 570.246 226.137 570.246C266.974 570.246 312.805 552.403 356.341 519.975L359.409 521.647C314.45 555.722 266.927 574.514 224.678 574.514V574.514ZM491.819 106.152L480.342 99.8886C475.941 95.3568 471.164 91.2101 466.01 87.4869C453.385 78.3687 439.294 72.3496 424.165 69.2204L412.763 62.9949C433.212 64.9638 452.144 71.6786 468.613 83.5714C477.434 89.9427 485.166 97.5236 491.819 106.152Z" fill="#F5F7F9"/>
<path d="M226.042 570.335C201.029 570.335 177.895 563.639 158.312 549.495C81.7399 494.192 88.5244 345.952 173.467 218.396C219.31 149.551 278.553 100.803 335.417 79.2062C335.417 80.4602 335.414 81.7663 335.414 83.1138C279.399 104.27 220.986 152.262 175.814 220.096C92.3132 345.488 85.6451 491.214 160.918 545.581C180.17 559.487 202.912 566.067 227.504 566.067C266.911 566.067 311.057 549.162 353.152 518.381L356.247 520.063C312.71 552.492 266.879 570.335 226.042 570.335V570.335ZM480.248 99.9773L457.184 87.3859C453.863 85.3265 450.449 83.4622 446.951 81.8012L424.07 69.3091C439.199 72.4383 453.29 78.4574 465.915 87.5756C471.069 91.2989 475.846 95.4455 480.248 99.9773Z" fill="#F5F7F9"/>
<path d="M227.563 566.055C202.971 566.055 180.229 559.475 160.977 545.569C85.7044 491.201 92.3725 345.475 175.874 220.084C221.046 152.25 279.458 104.258 335.473 83.102C335.471 84.3695 335.471 85.6646 335.468 87.0122C280.295 107.723 222.725 154.953 178.224 221.78C96.1612 345.011 89.6093 488.224 163.587 541.653C182.504 555.319 204.853 561.787 229.021 561.787C267.04 561.787 309.55 545.772 350.231 516.567C350.73 516.916 351.242 517.255 351.762 517.579L353.211 518.368C311.116 549.149 266.97 566.055 227.563 566.055V566.055ZM457.243 87.3753L447.01 81.7906C450.508 83.4516 453.922 85.3159 457.243 87.3753Z" fill="#F4F6FA"/>
<path d="M229.08 561.705C204.912 561.705 182.563 555.237 163.645 541.571C89.6683 488.141 96.2202 344.928 178.283 221.698C222.784 154.871 280.354 107.641 335.527 86.9301C335.527 88.2004 335.527 89.5036 335.524 90.8402C281.196 111.109 224.463 157.577 180.634 223.395C100.012 344.464 93.5705 485.167 166.252 537.658C184.838 551.085 206.795 557.44 230.539 557.44C267.267 557.44 308.264 542.225 347.622 514.439C348.473 515.159 349.363 515.841 350.29 516.487C309.609 545.693 267.099 561.707 229.08 561.707V561.705Z" fill="#F2F5F8"/>
<path d="M230.442 557.494C206.699 557.494 184.742 551.139 166.155 537.712C93.4742 485.222 99.9155 344.52 180.538 223.45C224.367 157.631 281.1 111.163 335.427 90.8947C335.427 92.165 335.424 93.4739 335.424 94.8048C281.94 114.631 226.047 160.337 182.888 225.146C103.704 344.054 97.3791 482.243 168.761 533.799C187.017 546.984 208.582 553.226 231.901 553.226C267.418 553.226 306.997 538.74 345.105 512.246C345.873 513.027 346.68 513.778 347.526 514.493C308.168 542.279 267.171 557.494 230.442 557.494V557.494Z" fill="#F0F5F8"/>
<path d="M231.961 553.28C208.641 553.28 187.076 547.039 168.821 533.853C97.4385 482.298 103.764 344.109 182.948 225.201C226.106 160.392 281.999 114.685 335.484 94.8595C335.484 96.1354 335.481 97.4415 335.481 98.7724C282.842 118.153 227.783 163.095 185.298 226.897C107.555 343.644 101.343 479.32 171.427 529.937C189.351 542.883 210.524 549.012 233.419 549.012C267.8 549.012 306.063 535.184 342.989 509.867C343.672 510.708 344.398 511.519 345.165 512.3C307.056 538.794 267.477 553.28 231.961 553.28V553.28Z" fill="#F0F3F8"/>
<path d="M233.477 548.917C210.582 548.917 189.409 542.788 171.485 529.842C101.402 479.225 107.613 343.548 185.356 226.802C227.841 163 282.9 118.057 335.539 98.6773C335.539 99.9558 335.539 101.262 335.536 102.59C283.745 121.528 229.517 165.711 187.704 228.502C111.4 343.084 105.306 476.247 174.092 525.928C191.684 538.635 212.465 544.649 234.936 544.649C268.262 544.649 305.292 531.42 341.114 507.156C341.716 508.055 342.358 508.927 343.047 509.771C306.121 535.088 267.858 548.917 233.477 548.917V548.917Z" fill="#EFF1F6"/>
<path d="M234.841 544.701C212.37 544.701 191.59 538.687 173.997 525.98C105.212 476.298 111.305 343.135 187.609 228.553C229.422 165.763 283.651 121.579 335.441 102.642C335.441 103.926 335.441 105.227 335.438 106.555C284.493 125.044 231.102 168.466 189.96 230.25C115.096 342.671 109.117 473.323 176.603 522.067C193.862 534.534 214.253 540.435 236.3 540.435C268.644 540.435 304.547 527.731 339.341 504.413C339.855 505.367 340.416 506.302 341.02 507.21C305.198 531.474 268.167 544.703 234.841 544.703V544.701Z" fill="#ECF1F6"/>
<path d="M236.358 540.487C214.311 540.487 193.92 534.586 176.661 522.119C109.175 473.377 115.154 342.725 190.018 230.302C231.16 168.518 284.551 125.096 335.497 106.607V110.523C285.394 128.564 232.842 171.224 192.368 231.999C118.946 342.259 113.08 470.397 179.267 518.205C196.195 530.431 216.194 536.219 237.816 536.219C269.26 536.219 304.14 523.972 337.984 501.484C338.405 502.499 338.879 503.494 339.399 504.465C304.605 527.783 268.702 540.487 236.358 540.487V540.487Z" fill="#EAF0F5"/>
<path d="M237.719 536.121C216.096 536.121 196.098 530.333 179.17 518.107C112.983 470.3 118.849 342.161 192.271 231.901C232.745 171.126 285.297 128.466 335.399 110.425C335.397 111.706 335.397 113.026 335.397 114.34C286.14 131.933 234.424 173.829 194.622 233.6C122.638 341.696 116.888 467.322 181.78 514.191C198.373 526.177 217.979 531.853 239.178 531.853C269.811 531.853 303.764 520.001 336.75 498.218C337.073 499.293 337.454 500.349 337.887 501.385C304.043 523.873 269.163 536.121 237.719 536.121V536.121Z" fill="#E9EEF5"/>
<path d="M239.236 531.902C218.038 531.902 198.432 526.226 181.838 514.24C116.947 467.37 122.697 341.745 194.681 233.649C234.483 173.877 286.198 131.982 335.455 114.389C335.453 115.687 335.453 116.977 335.453 118.308C287.041 135.45 236.16 176.583 197.028 235.346C126.485 341.28 120.852 464.395 184.445 510.327C200.709 522.071 219.921 527.634 240.695 527.634C270.613 527.634 303.762 516.099 335.981 494.893C336.196 496.034 336.475 497.159 336.809 498.267C303.823 520.05 269.869 531.902 239.236 531.902Z" fill="#E8EDF3"/>
<path d="M240.755 527.681C219.98 527.681 200.769 522.118 184.504 510.373C120.911 464.441 126.545 341.326 197.088 235.392C236.219 176.63 287.1 135.496 335.512 118.354C335.512 119.638 335.512 120.958 335.509 122.272C287.946 138.966 237.896 179.335 199.438 237.088C130.334 340.862 124.816 461.463 187.11 506.458C203.041 517.966 221.863 523.413 242.213 523.413C271.521 523.413 303.999 512.108 335.561 491.334C335.654 492.55 335.814 493.754 336.041 494.939C303.822 516.145 270.673 527.681 240.755 527.681Z" fill="#E7EDF4"/>
<path d="M242.117 523.313C221.767 523.313 202.945 517.865 187.014 506.358C124.72 461.363 130.238 340.761 199.342 236.988C237.8 179.235 287.85 138.866 335.413 122.172V126.093C288.698 142.336 239.479 181.943 201.693 238.685C134.029 340.297 128.622 458.385 189.62 502.442C205.22 513.71 223.65 519.045 243.576 519.045C272.395 519.045 304.339 507.886 335.369 487.379V488.6C335.367 489.485 335.398 490.362 335.465 491.234C303.903 512.008 271.425 523.313 242.117 523.313Z" fill="#E7ECF2"/>
<path d="M243.635 519.089C223.709 519.089 205.279 513.754 189.68 502.485C128.682 458.429 134.089 340.34 201.752 238.728C239.538 181.987 288.757 142.38 335.472 126.137C335.469 127.429 335.469 128.741 335.469 130.061C289.603 145.847 241.218 184.693 204.103 240.425C137.875 339.876 132.587 455.453 192.289 498.572C207.555 509.599 225.592 514.818 245.093 514.818C273.454 514.818 304.903 503.781 335.429 483.498V487.422C304.398 507.93 272.455 519.089 243.635 519.089Z" fill="#E6EAF2"/>
<path d="M245.153 514.859C225.651 514.859 207.614 509.64 192.348 498.613C132.646 455.494 137.934 339.916 204.162 240.466C241.277 184.733 289.663 145.888 335.529 130.101C335.529 131.399 335.529 132.7 335.526 134.023C290.505 149.355 242.96 187.434 206.513 242.165C141.726 339.452 136.551 452.516 194.955 494.697C209.892 505.485 227.537 510.591 246.615 510.591C274.513 510.591 305.472 499.672 335.488 479.618V483.539C304.963 503.821 273.514 514.859 245.153 514.859Z" fill="#E5EAF1"/>
<path d="M246.518 510.488C227.44 510.488 209.795 505.381 194.858 494.594C136.454 452.413 141.629 339.348 206.416 242.062C242.863 187.33 290.408 149.252 335.429 133.919V137.846C291.254 152.722 244.542 190.033 208.764 243.758C145.421 338.883 140.359 449.435 197.464 490.678C212.067 501.226 229.32 506.22 247.973 506.22C275.413 506.22 305.88 495.416 335.391 475.588V479.514C305.375 499.569 274.416 510.488 246.518 510.488Z" fill="#E4E9F2"/>
<path d="M248.032 506.258C229.378 506.258 212.125 501.264 197.522 490.716C140.417 449.473 145.479 338.921 208.822 243.796C244.6 190.072 291.312 152.76 335.487 137.884C335.487 139.19 335.485 140.485 335.485 141.814C292.163 156.23 246.274 192.783 211.172 245.493C149.265 338.46 144.323 446.495 200.128 486.803C214.4 497.113 231.261 501.991 249.493 501.991C276.468 501.991 306.447 491.299 335.45 471.699V475.626C305.938 495.454 275.471 506.258 248.032 506.258Z" fill="#E3E7F0"/>
<path d="M249.398 502.026C231.166 502.026 214.306 497.148 200.033 486.839C144.228 446.53 149.17 338.495 211.077 245.528C246.179 192.818 292.068 156.265 335.39 141.849V145.778C292.914 159.736 247.861 195.518 213.431 247.227C152.961 338.03 148.132 443.552 202.643 482.923C216.58 492.993 233.049 497.758 250.857 497.758C277.375 497.758 306.854 487.185 335.355 467.805V471.734C306.352 491.335 276.373 502.026 249.398 502.026Z" fill="#E1E8F0"/>
<path d="M250.914 497.794C233.106 497.794 216.638 493.028 202.7 482.959C148.19 443.588 153.019 338.065 213.488 247.263C247.919 195.554 292.971 159.771 335.447 145.813C335.447 147.117 335.444 148.423 335.444 149.745C293.82 163.241 249.598 198.259 215.836 248.96C156.808 337.598 152.095 440.612 205.303 479.046C218.913 488.873 234.989 493.526 252.373 493.526C278.429 493.526 307.42 483.066 335.412 463.908V467.841C306.912 487.221 277.433 497.794 250.914 497.794Z" fill="#E0E6EF"/>
<path d="M252.432 493.412C235.049 493.412 218.973 488.759 205.363 478.932C152.155 440.498 156.867 337.484 215.896 248.846C249.658 198.145 293.88 163.127 335.504 149.631V153.566C294.728 166.597 251.337 200.848 218.246 250.542C160.659 337.019 156.057 437.52 207.97 475.016C221.248 484.604 236.932 489.144 253.891 489.144C279.489 489.144 307.986 478.802 335.472 459.859V463.794C307.48 482.952 278.489 493.412 252.432 493.412Z" fill="#DFE5EF"/>
<path d="M253.795 489.174C236.836 489.174 221.152 484.634 207.874 475.046C155.961 437.55 160.563 337.049 218.151 250.572C251.241 200.878 294.632 166.627 335.408 153.596C335.408 154.902 335.405 156.211 335.405 157.533C295.48 170.097 252.924 203.581 220.498 252.268C164.352 336.584 159.866 434.572 210.483 471.13C223.427 480.479 238.718 484.906 255.254 484.906C280.392 484.906 308.401 474.672 335.376 455.951V459.889C307.89 478.832 279.393 489.174 253.795 489.174Z" fill="#DEE4EE"/>
<path d="M255.313 484.933C238.777 484.933 223.486 480.506 210.542 471.157C159.925 434.599 164.411 336.611 220.557 252.295C252.983 203.608 295.539 170.124 335.464 157.561V161.501C296.391 173.597 254.659 206.311 222.908 253.992C168.2 336.147 163.83 431.624 213.148 467.244C225.761 476.354 240.66 480.666 256.771 480.666C281.451 480.666 308.969 470.544 335.435 452.041V455.978C308.46 474.699 280.451 484.933 255.313 484.933Z" fill="#DDE3EE"/>
<path d="M256.675 480.69C240.564 480.69 225.665 476.378 213.052 467.268C163.734 431.648 168.104 336.171 222.812 254.016C254.563 206.335 296.295 173.621 335.368 161.525C335.368 162.831 335.365 164.149 335.365 165.469C297.146 177.094 256.245 209.038 225.165 255.716C171.896 335.706 167.639 428.67 215.659 463.353C227.94 472.223 242.447 476.422 258.134 476.422C282.354 476.422 309.381 466.41 335.339 448.119V452.065C308.873 470.568 281.355 480.69 256.675 480.69Z" fill="#DCE2ED"/>
<path d="M258.192 476.444C242.505 476.444 227.998 472.245 215.716 463.374C167.697 428.691 171.953 335.727 225.223 255.737C256.303 209.06 297.204 177.116 335.423 165.49V169.438C298.055 180.586 257.983 211.763 227.57 257.434C175.739 335.263 171.602 425.716 218.325 459.461C230.273 468.09 244.388 472.176 259.65 472.176C283.411 472.176 309.948 462.274 335.397 444.195V448.141C309.439 466.432 282.412 476.444 258.192 476.444Z" fill="#DBE1EE"/>
<path d="M259.71 472.193C244.448 472.193 230.333 468.106 218.385 459.478C171.662 425.732 175.799 335.279 227.63 257.45C258.043 211.779 298.115 180.603 335.483 169.455C335.483 170.767 335.483 172.081 335.48 173.406C298.97 184.075 259.725 214.482 229.981 259.147C179.591 334.815 175.567 422.755 220.992 455.562C232.608 463.951 246.331 467.925 261.172 467.925C284.471 467.925 310.519 458.127 335.457 440.259V444.211C310.008 462.291 283.472 472.193 259.71 472.193Z" fill="#D8E0EC"/>
<path d="M261.075 467.938C246.234 467.938 232.511 463.964 220.895 455.575C175.47 422.768 179.494 334.828 229.884 259.16C259.628 214.495 298.873 184.088 335.383 173.419V177.374C299.73 187.567 261.307 217.201 232.232 260.859C183.283 334.363 179.375 419.79 223.498 451.66C234.783 459.81 248.116 463.67 262.531 463.67C285.377 463.67 310.93 453.98 335.36 436.318V440.273C310.422 458.14 284.374 467.938 261.075 467.938Z" fill="#D6DEEB"/>
<path d="M262.591 463.534C248.176 463.534 234.843 459.673 223.558 451.523C179.435 419.654 183.343 334.227 232.292 260.723C261.367 217.065 299.79 187.431 335.443 177.237V181.197C300.644 190.904 263.044 219.765 234.642 262.419C187.132 333.765 183.34 416.675 226.167 447.61C237.121 455.521 250.059 459.266 264.052 459.266C286.433 459.266 311.508 449.678 335.42 432.223V436.182C310.99 453.844 285.436 463.534 262.591 463.534Z" fill="#D5DDE9"/>
<path d="M264.111 459.271C250.118 459.271 237.179 455.526 226.226 447.615C183.399 416.68 187.19 333.77 234.701 262.424C263.102 219.77 300.703 190.909 335.502 181.202C335.502 182.513 335.502 183.844 335.499 185.167C301.56 194.384 264.785 222.473 237.052 264.121C190.982 333.305 187.304 413.702 228.832 443.7C239.454 451.372 252 455.001 265.569 455.001C287.494 455.001 312.077 445.514 335.476 428.263C335.476 429.607 335.479 430.919 335.479 432.228C311.566 449.683 286.492 459.271 264.111 459.271Z" fill="#D4DCE8"/>
<path d="M265.472 455.001C251.903 455.001 239.357 451.371 228.735 443.699C187.206 413.702 190.884 333.305 236.954 264.121C264.687 222.473 301.462 194.384 335.402 185.167V189.137C302.323 197.86 266.37 225.173 239.305 265.817C194.674 332.84 191.108 410.727 231.344 439.786C241.632 447.216 253.786 450.736 266.927 450.736C288.393 450.736 312.495 441.346 335.378 424.291V428.262C311.98 445.514 287.397 455.001 265.472 455.001Z" fill="#D3DBE8"/>
<path d="M266.988 450.73C253.846 450.73 241.693 447.21 231.404 439.78C191.168 410.721 194.734 332.834 239.365 265.812C266.43 225.167 302.383 197.854 335.462 189.131V193.108C303.243 201.335 268.112 227.87 241.716 267.508C198.522 332.369 195.073 407.743 234.007 435.865C243.965 443.055 255.729 446.46 268.447 446.46C289.456 446.46 313.069 437.171 335.439 420.31V424.286C312.555 441.34 288.454 450.73 266.988 450.73Z" fill="#D2DAE7"/>
<path d="M268.351 446.595C255.633 446.595 243.869 443.191 233.912 436C194.978 407.878 198.426 332.504 241.62 267.643C268.016 228.005 303.147 201.47 335.366 193.243C335.366 194.563 335.363 195.899 335.363 197.227C304.01 204.946 269.696 230.706 243.968 269.34C202.218 332.037 198.883 404.9 236.521 432.087C246.147 439.039 257.516 442.33 269.812 442.33C290.36 442.33 313.493 433.129 335.343 416.463V420.445C312.973 437.306 289.36 446.595 268.351 446.595Z" fill="#D1D9E7"/>
<path d="M269.87 442.31C257.574 442.31 246.204 439.019 236.578 432.068C198.941 404.881 202.276 332.018 244.025 269.32C269.753 230.686 304.067 204.926 335.421 197.208V201.198C304.933 208.408 271.436 233.389 246.376 271.02C206.065 331.553 202.846 401.906 239.185 428.152C248.479 434.864 259.457 438.04 271.328 438.04C291.423 438.04 314.068 428.936 335.401 412.454V416.444C313.551 433.11 290.417 442.31 269.87 442.31Z" fill="#CED8E6"/>
<path d="M271.388 438.015C259.516 438.015 248.539 434.839 239.244 428.127C202.905 401.88 206.124 331.528 246.435 270.994C271.495 233.364 304.993 208.382 335.48 201.172V205.173C305.859 211.863 273.178 236.061 248.786 272.694C209.916 331.063 206.81 398.902 241.853 424.214C250.814 430.684 261.399 433.75 272.846 433.75C292.482 433.75 314.648 424.728 335.46 408.427V412.428C314.128 428.91 291.482 438.015 271.388 438.015Z" fill="#CDD7E5"/>
<path d="M272.748 433.714C261.301 433.714 250.716 430.648 241.755 424.177C206.712 398.866 209.818 331.027 248.688 272.658C273.08 236.025 305.761 211.827 335.383 205.137C335.383 206.468 335.383 207.804 335.38 209.143C306.63 215.309 274.765 238.723 251.039 274.354C213.604 330.562 210.617 395.888 244.359 420.262C252.988 426.493 263.184 429.443 274.207 429.443C293.387 429.443 315.073 420.507 335.362 404.382V408.391C314.55 424.692 292.384 433.714 272.748 433.714Z" fill="#CDD6E5"/>
<path d="M274.268 429.402C263.245 429.402 253.049 426.451 244.42 420.22C210.678 395.846 213.665 330.52 251.099 274.313C274.826 238.681 306.69 215.267 335.44 209.102V213.122C307.565 218.751 276.508 241.379 253.45 276.009C217.457 330.058 214.58 392.874 247.029 416.305C255.327 422.299 265.127 425.134 275.727 425.134C294.453 425.134 315.657 416.28 335.423 400.32V404.341C315.134 420.465 293.447 429.402 274.268 429.402Z" fill="#CCD6E4"/>
<path d="M275.785 425.225C265.186 425.225 255.386 422.391 247.088 416.396C214.639 392.965 217.516 330.15 253.509 276.1C276.567 241.47 307.624 218.842 335.499 213.214V217.245C308.504 222.329 278.249 244.17 255.856 277.797C221.304 329.685 218.544 389.987 249.694 412.48C257.661 418.236 267.069 420.958 277.244 420.958C295.514 420.958 316.242 412.178 335.482 396.38V400.412C315.716 416.371 294.511 425.225 275.785 425.225Z" fill="#C9D5E3"/>
<path d="M277.148 420.891C266.973 420.891 257.565 418.169 249.598 412.414C218.449 389.921 221.208 329.619 255.761 277.731C278.154 244.104 308.409 222.262 335.404 217.178V221.223C309.286 225.749 279.839 246.798 258.112 279.427C224.997 329.154 222.353 386.94 252.205 408.501C259.837 414.014 268.856 416.624 278.607 416.624C296.421 416.624 316.681 407.91 335.386 392.272V396.314C316.146 412.111 295.418 420.891 277.148 420.891Z" fill="#C8D4E4"/>
<path d="M278.666 416.691C268.915 416.691 259.896 414.081 252.264 408.568C222.412 387.007 225.056 329.221 258.171 279.494C279.898 246.865 309.345 225.816 335.463 221.29C335.463 222.648 335.46 223.987 335.46 225.351C310.234 229.305 281.586 249.56 260.521 281.191C228.848 328.756 226.317 384.029 254.87 404.652C262.171 409.926 270.798 412.423 280.124 412.423C297.485 412.423 317.271 403.772 335.448 388.275C335.445 389.636 335.445 390.997 335.445 392.339C316.74 407.976 296.48 416.691 278.666 416.691Z" fill="#C6D2E2"/>
<path d="M280.027 412.326C270.701 412.326 262.074 409.829 254.773 404.555C226.22 383.932 228.751 328.659 260.424 281.094C281.489 249.463 310.137 229.209 335.363 225.254V229.335C311.029 232.701 283.174 252.158 262.774 282.79C232.54 328.195 230.122 380.957 257.379 400.639C264.349 405.674 272.583 408.059 281.489 408.059C298.396 408.059 317.715 399.46 335.351 384.097V388.178C317.174 403.675 297.388 412.326 280.027 412.326Z" fill="#C6D1E1"/>
<path d="M281.549 408.089C272.644 408.089 264.41 405.705 257.439 400.67C230.183 380.988 232.6 328.225 262.835 282.821C283.235 252.189 311.089 232.731 335.423 229.366V233.466C311.99 236.227 284.922 254.878 265.182 284.521C236.389 327.76 234.091 378.012 260.048 396.76C266.688 401.553 274.53 403.821 283.008 403.821C299.465 403.821 318.318 395.27 335.412 380.028V384.128C317.775 399.491 298.456 408.089 281.549 408.089Z" fill="#C3D1E2"/>
<path d="M283.066 403.833C274.587 403.833 266.745 401.565 260.106 396.772C234.149 378.024 236.447 327.772 265.24 284.533C284.98 254.89 312.048 236.239 335.481 233.478V237.605C312.957 239.739 286.668 257.582 267.591 286.229C240.239 327.308 238.054 375.046 262.71 392.854C269.017 397.41 276.467 399.566 284.521 399.566C300.534 399.566 318.929 391.05 335.47 375.913V380.04C318.376 395.282 299.522 403.833 283.066 403.833Z" fill="#C2CEE0"/>
<path d="M284.425 399.55C276.371 399.55 268.921 397.394 262.613 392.838C237.957 375.03 240.142 327.292 267.494 286.213C286.572 257.566 312.861 239.723 335.384 237.589C335.384 238.967 335.382 240.364 335.382 241.747C313.779 243.221 288.263 260.25 269.845 287.91C243.931 326.827 241.862 372.052 265.222 388.925C271.196 393.239 278.253 395.282 285.883 395.282C301.448 395.282 319.39 386.788 335.373 371.739V375.897C318.832 391.034 300.437 399.55 284.425 399.55Z" fill="#C2CEDF"/>
<path d="M285.942 395.383C278.312 395.383 271.255 393.34 265.281 389.026C241.92 372.153 243.989 326.928 269.904 288.011C288.322 260.351 313.837 243.321 335.44 241.848V246.041C314.767 246.825 290.018 263.029 272.254 289.71C247.781 326.46 245.825 369.175 267.887 385.113C273.529 389.185 280.195 391.115 287.403 391.115C302.521 391.115 320.018 382.627 335.431 367.644V371.84C319.448 386.889 301.507 395.383 285.942 395.383Z" fill="#BFCCE0"/>
<path d="M287.461 391.034C280.253 391.034 273.588 389.103 267.945 385.031C245.884 369.093 247.839 326.378 272.312 289.628C290.076 262.947 314.826 246.743 335.498 245.959V250.196C315.776 250.251 291.776 265.622 274.663 291.324C251.625 325.914 249.786 366.115 270.551 381.115C275.863 384.951 282.136 386.766 288.92 386.766C303.596 386.766 320.657 378.264 335.49 363.321V367.562C320.076 382.545 302.579 391.034 287.461 391.034Z" fill="#BDCBDE"/>
<path d="M288.826 386.787C282.042 386.787 275.769 384.972 270.458 381.136C249.692 366.136 251.531 325.935 274.569 291.346C291.682 265.644 315.682 250.273 335.405 250.218V254.512C334.954 254.493 334.504 254.485 334.048 254.485C315.539 254.485 292.99 268.908 276.916 293.042C255.323 325.473 253.597 363.158 273.064 377.221C278.044 380.82 283.925 382.519 290.285 382.519C304.528 382.519 321.159 373.981 335.396 359.048V363.343C320.563 378.285 303.502 386.787 288.826 386.787Z" fill="#BCCADC"/>
<path d="M290.343 382.51C283.983 382.51 278.102 380.811 273.122 377.211C253.655 363.149 255.381 325.464 276.975 293.033C293.048 268.898 315.598 254.476 334.106 254.476C334.562 254.476 335.012 254.484 335.463 254.503V258.867C334.536 258.785 333.598 258.743 332.647 258.743C315.374 258.743 294.33 272.203 279.325 294.729C259.17 324.999 257.56 360.171 275.732 373.298C280.377 376.653 285.866 378.243 291.802 378.243C305.615 378.243 321.836 369.639 335.454 354.674V359.038C321.217 373.972 304.586 382.51 290.343 382.51Z" fill="#B9C9DD"/>
<path d="M291.706 378.233C285.769 378.233 280.281 376.644 275.635 373.289C257.464 360.162 259.074 324.99 279.229 294.72C294.233 272.194 315.278 258.734 332.551 258.734C333.501 258.734 334.44 258.775 335.367 258.858C335.364 260.34 335.364 261.828 335.364 263.313C333.975 263.106 332.548 263.002 331.093 263.002C315.054 263.002 295.509 275.502 281.58 296.417C262.863 324.525 261.369 357.187 278.241 369.374C282.556 372.489 287.652 373.966 293.164 373.966C306.556 373.966 322.388 365.254 335.358 350.208V354.665C321.74 369.629 305.518 378.233 291.706 378.233Z" fill="#B9C7DC"/>
<path d="M293.223 373.956C287.711 373.956 282.615 372.48 278.3 369.364C261.428 357.178 262.922 324.516 281.639 296.408C295.568 275.493 315.113 262.993 331.151 262.993C332.607 262.993 334.034 263.097 335.422 263.303V267.884C333.583 267.466 331.669 267.26 329.696 267.26C314.889 267.26 296.846 278.798 283.989 298.107C266.713 324.051 265.333 354.202 280.906 365.449C284.89 368.328 289.594 369.689 294.681 369.689C307.663 369.689 323.135 360.815 335.417 345.615V350.198C322.446 365.245 306.614 373.956 293.223 373.956Z" fill="#B8C6DA"/>
<path d="M294.74 369.68C289.652 369.68 284.948 368.319 280.965 365.439C265.391 354.193 266.771 324.042 284.047 298.098C296.904 278.789 314.948 267.251 329.754 267.251C331.727 267.251 333.642 267.457 335.481 267.875V272.63C333.217 271.882 330.806 271.519 328.293 271.519C314.721 271.519 298.183 282.094 286.398 299.795C270.56 323.577 269.296 351.215 283.571 361.527C287.223 364.164 291.535 365.412 296.201 365.412C308.794 365.412 323.94 356.305 335.475 340.851V345.605C323.193 360.806 307.722 369.68 294.74 369.68Z" fill="#B6C5D9"/>
<path d="M296.105 365.403C291.439 365.403 287.127 364.154 283.475 361.517C269.2 351.206 270.464 323.568 286.302 299.785C298.087 282.085 314.625 271.509 328.196 271.509C330.71 271.509 333.121 271.873 335.385 272.62V277.633C332.744 276.382 329.823 275.777 326.738 275.777C314.398 275.777 299.365 285.393 288.652 301.482C274.253 323.103 273.105 348.228 286.084 357.602C289.402 359.997 293.324 361.132 297.564 361.132C309.799 361.132 324.681 351.682 335.379 335.832V340.842C323.844 356.296 308.697 365.403 296.105 365.403Z" fill="#B4C4DA"/>
<path d="M297.622 361.123C293.383 361.123 289.461 359.987 286.143 357.593C273.164 348.219 274.311 323.094 288.711 301.473C299.424 285.384 314.457 275.768 326.797 275.768C329.882 275.768 332.802 276.373 335.443 277.624V283.055C332.503 281.006 329.057 280.035 325.338 280.035C314.233 280.035 300.702 288.689 291.059 303.172C278.103 322.629 277.066 345.24 288.749 353.677C291.736 355.835 295.263 356.856 299.081 356.856C310.183 356.856 323.714 348.205 333.357 333.722C334.09 332.622 334.784 331.516 335.438 330.4V335.823C324.74 351.672 309.858 361.123 297.622 361.123Z" fill="#B3C3D9"/>
<path d="M298.986 356.846C295.168 356.846 291.641 355.826 288.653 353.667C276.971 345.231 278.008 322.62 290.963 303.163C300.607 288.68 314.138 280.026 325.243 280.026C328.962 280.026 332.408 280.997 335.348 283.045C335.345 285.121 335.345 287.195 335.345 289.268C334.633 288.471 333.84 287.75 332.969 287.12C330.313 285.201 327.178 284.294 323.784 284.294C313.914 284.294 301.885 291.988 293.311 304.859C281.797 322.155 280.875 342.256 291.257 349.752C293.913 351.671 297.05 352.579 300.441 352.579C310.314 352.579 322.34 344.888 330.914 332.016C332.626 329.448 334.102 326.816 335.342 324.171V330.391C334.688 331.507 333.994 332.612 333.262 333.713C323.618 348.196 310.087 356.846 298.986 356.846Z" fill="#B2C1D8"/>
<path d="M300.501 352.57C297.11 352.57 293.972 351.662 291.317 349.743C280.935 342.247 281.856 322.146 293.371 304.85C301.945 291.979 313.974 284.285 323.844 284.285C327.238 284.285 330.373 285.192 333.028 287.111C333.9 287.741 334.693 288.462 335.405 289.259V297.844C334.362 295.02 332.703 292.674 330.422 291.025C328.098 289.347 325.355 288.552 322.385 288.552C313.747 288.552 303.224 295.284 295.725 306.547C285.645 321.682 284.841 339.269 293.926 345.83C296.25 347.51 298.993 348.302 301.962 348.302C310.598 348.302 321.122 341.573 328.621 330.31C331.825 325.496 334.095 320.436 335.405 315.561C335.402 318.442 335.402 321.305 335.402 324.162C334.162 326.807 332.686 329.439 330.974 332.007C322.4 344.879 310.374 352.57 300.501 352.57Z" fill="#AFC0D7"/>
<path d="M302.021 348.439C299.051 348.439 296.308 347.647 293.984 345.968C284.899 339.407 285.704 321.819 295.783 306.684C303.282 295.421 313.806 288.69 322.444 288.69C325.413 288.69 328.156 289.485 330.48 291.162C332.761 292.812 334.42 295.157 335.463 297.981V315.698C334.153 320.573 331.883 325.633 328.679 330.448C321.18 341.711 310.656 348.439 302.021 348.439ZM320.985 292.961C313.582 292.961 304.56 298.727 298.133 308.381C289.492 321.354 288.804 336.428 296.591 342.052C298.584 343.49 300.934 344.172 303.479 344.172C310.883 344.172 319.901 338.403 326.331 328.751C334.972 315.778 335.661 300.704 327.871 295.078C325.881 293.64 323.527 292.961 320.985 292.961Z" fill="#AEBFD7"/>
<path d="M303.383 344.16C300.838 344.16 298.488 343.478 296.495 342.04C288.708 336.416 289.396 321.342 298.037 308.369C304.464 298.714 313.486 292.948 320.889 292.948C323.431 292.948 325.785 293.627 327.775 295.065C335.565 300.691 334.876 315.765 326.235 328.739C319.806 338.391 310.787 344.16 303.383 344.16ZM319.431 297.213C313.262 297.213 305.743 302.022 300.385 310.065C293.188 320.877 292.613 333.438 299.101 338.127C300.76 339.326 302.721 339.892 304.839 339.892C311.01 339.892 318.527 335.085 323.885 327.04C331.085 316.23 331.66 303.667 325.169 298.981C323.51 297.782 321.552 297.213 319.431 297.213Z" fill="#ADBED6"/>
<path d="M304.897 339.885C302.779 339.885 300.818 339.319 299.159 338.12C292.671 333.432 293.246 320.871 300.443 310.059C305.801 302.016 313.321 297.207 319.489 297.207C321.61 297.207 323.568 297.776 325.227 298.974C331.718 303.66 331.143 316.224 323.943 327.033C318.585 335.079 311.069 339.885 304.897 339.885ZM318.03 301.477C313.094 301.477 307.079 305.321 302.794 311.758C297.035 320.406 296.576 330.457 301.768 334.205C303.096 335.164 304.662 335.618 306.359 335.618C311.295 335.618 317.307 331.771 321.595 325.336C327.351 316.688 327.81 306.638 322.621 302.888C321.293 301.931 319.724 301.477 318.03 301.477Z" fill="#ABBDD5"/>
<path d="M306.418 335.606C304.721 335.606 303.155 335.152 301.827 334.193C296.635 330.445 297.094 320.394 302.853 311.747C307.138 305.309 313.153 301.465 318.089 301.465C319.783 301.465 321.352 301.919 322.68 302.876C327.869 306.626 327.41 316.677 321.654 325.325C317.366 331.759 311.354 335.606 306.418 335.606ZM316.631 305.733C312.929 305.733 308.417 308.617 305.2 313.443C300.883 319.93 300.54 327.467 304.433 330.28C305.43 330.998 306.604 331.338 307.876 331.338C311.578 331.338 316.087 328.454 319.304 323.626C323.621 317.141 323.964 309.604 320.074 306.791C319.077 306.074 317.9 305.733 316.631 305.733Z" fill="#AABCD5"/>
<path d="M307.78 331.329C306.508 331.329 305.334 330.988 304.337 330.27C300.444 327.458 300.787 319.92 305.104 313.434C308.321 308.608 312.833 305.723 316.535 305.723C317.804 305.723 318.981 306.064 319.978 306.782C323.868 309.595 323.525 317.132 319.208 323.616C315.991 328.444 311.482 331.329 307.78 331.329ZM315.073 309.991C312.606 309.991 309.599 311.913 307.458 315.13C304.578 319.456 304.349 324.482 306.943 326.355C307.609 326.833 308.39 327.061 309.239 327.061C311.706 327.061 314.716 325.139 316.857 321.919C319.737 317.597 319.966 312.57 317.369 310.698C316.706 310.217 315.922 309.991 315.073 309.991Z" fill="#A8BAD4"/>
<path d="M309.297 327.052C308.449 327.052 307.667 326.824 307.002 326.345C304.407 324.473 304.636 319.447 307.516 315.121C309.658 311.904 312.665 309.982 315.131 309.982C315.98 309.982 316.764 310.207 317.427 310.688C320.024 312.561 319.795 317.588 316.915 321.91C314.774 325.13 311.764 327.052 309.297 327.052ZM313.676 314.249C312.441 314.249 310.936 315.212 309.867 316.82C308.425 318.982 308.312 321.492 309.608 322.433C309.939 322.672 310.331 322.785 310.756 322.785C311.991 322.785 313.493 321.822 314.565 320.214C316.006 318.052 316.119 315.539 314.823 314.601C314.489 314.362 314.097 314.249 313.676 314.249Z" fill="#A7B8D3"/>
<path d="M310.659 322.776C310.235 322.776 309.843 322.663 309.512 322.424C308.216 321.483 308.329 318.972 309.77 316.811C310.84 315.203 312.345 314.24 313.579 314.24C314.001 314.24 314.393 314.353 314.727 314.592C316.023 315.53 315.91 318.043 314.469 320.204C313.397 321.813 311.894 322.776 310.659 322.776Z" fill="#A4B7D3"/>
<path d="M286.62 71.2115L257.503 87.4376L228.393 71.5854L257.503 55.359L286.62 71.2115Z" fill="#6480C0"/>
<path d="M257.503 361.104L228.393 345.254V71.6585L257.503 87.5108V361.104Z" fill="#466AB2"/>
<path d="M286.679 344.811L257.563 361.037V87.4441L286.679 71.218V344.811Z" fill="#325DAB"/>
<path d="M134.409 220.84L105.296 237.066L76.1829 221.217L105.296 204.99L134.409 220.84Z" fill="#FFD792"/>
<path d="M105.296 436.884L76.1829 421.039V221.143L105.296 236.993V436.884Z" fill="#FBAD56"/>
<path d="M134.311 420.743L105.198 436.967V237.076L134.311 220.849V420.743Z" fill="#F89958"/>
<path d="M210.443 146.242L181.327 162.466L152.21 146.619L181.327 130.395L210.443 146.242Z" fill="#F387A3"/>
<path d="M181.327 398.792L152.21 382.951V146.694L181.327 162.541V398.792Z" fill="#F1617E"/>
<path d="M210.496 382.508L181.38 398.729V162.478L210.496 146.254V382.508Z" fill="#EF3E63"/>
<path d="M58.2292 288.387L29.1161 304.608L0 288.758L29.1161 272.537L58.2292 288.387Z" fill="#565B70"/>
<path d="M29.116 482.235L0 466.388V288.837L29.116 304.686V482.235Z" fill="#005A7C"/>
<path d="M58.2828 465.942L29.1697 482.166V304.617L58.2828 288.396V465.942Z" fill="#002E44"/>
<path d="M527.182 613.162L351.66 517.6C341.404 511.193 335.253 500.32 335.299 488.686C335.299 488.686 335.27 57.9961 335.43 57.2716C337.748 41.3889 358.072 33.3211 373.37 41.664L548.711 137.378C558.794 143.691 564.808 154.388 564.75 165.826L564.43 592.688C564.43 593.505 564.343 594.275 564.198 595.02C563.006 611.868 542.959 621.775 527.182 613.163V613.162Z" fill="#002E44"/>
<path d="M560.598 191.038L560.569 184.617C560.569 182.758 559 182.118 557.024 183.19C555.048 184.262 553.45 186.638 553.45 188.5L553.479 194.92C553.479 196.779 555.077 197.42 557.024 196.348C559 195.275 560.598 192.899 560.598 191.038Z" fill="#005A7C"/>
<path d="M553.45 188.542C553.45 186.681 555.048 184.305 556.994 183.233C557.489 182.977 557.924 182.886 558.331 182.817C558.418 183.054 558.447 183.249 558.447 183.552L558.476 189.975C558.476 191.834 556.878 194.212 554.903 195.282C554.438 195.538 554.002 195.689 553.595 195.758C553.508 195.521 553.45 195.266 553.45 194.963V188.542Z" fill="#565B70"/>
<path d="M563.154 192.547C562.863 190.688 561.178 190.047 559.377 191.12C557.575 192.192 556.326 194.568 556.588 196.429C556.878 198.288 558.563 198.926 560.365 197.856C562.166 196.784 563.415 194.408 563.154 192.547Z" fill="#DFDCDD"/>
<path d="M559.47 191.164C557.639 192.236 556.419 194.615 556.681 196.474C556.797 197.265 557.174 197.821 557.697 198.132V198.14L554.472 196.831C553.891 196.534 553.63 196.047 553.485 195.209C553.223 193.35 554.472 190.971 556.274 189.902C557.145 189.382 558.511 189.426 558.511 189.426L561.765 190.721C561.126 190.545 560.312 190.658 559.47 191.164Z" fill="#005A7C"/>
<path d="M560.772 254.061C558.796 255.134 557.227 257.51 557.198 259.371V278.636C557.198 279.532 557.576 280.137 558.157 280.409L554.961 278.971L554.67 278.834C553.944 278.551 553.45 277.976 553.45 276.972L553.479 257.707C553.479 255.849 555.077 253.47 557.053 252.398C558.012 251.881 558.68 251.702 559.319 251.93L559.493 251.993L559.639 252.048L563.3 253.676C562.66 253.418 561.76 253.528 560.772 254.061Z" fill="#005A7C"/>
<path d="M564.292 274.809L564.321 255.542C564.321 253.683 562.723 253.042 560.748 254.115C558.772 255.187 557.203 257.563 557.174 259.424V278.689C557.174 280.551 558.743 281.189 560.718 280.116C562.694 279.044 564.292 276.668 564.292 274.809Z" fill="#DFDCDD"/>
<path d="M560.588 296.496C558.641 297.571 557.043 299.947 557.014 301.806V312.843C557.014 313.74 557.392 314.345 557.973 314.617L554.777 313.179L554.486 313.041C553.76 312.758 553.295 312.184 553.295 311.18V300.145C553.324 298.283 554.893 295.908 556.868 294.835C557.827 294.316 558.496 294.14 559.135 294.368L559.338 294.431V294.439L559.454 294.483L563.115 296.111C562.476 295.855 561.575 295.963 560.588 296.496Z" fill="#005A7C"/>
<path d="M564.137 308.871L564.166 297.833C564.166 295.972 562.568 295.334 560.592 296.404C558.646 297.478 557.047 299.854 557.019 301.713V312.751C557.019 314.612 558.587 315.25 560.563 314.178C562.539 313.108 564.137 310.73 564.137 308.871Z" fill="#DFDCDD"/>
<path d="M335.428 57.2472L335.297 488.363C335.251 499.994 341.402 510.867 351.658 517.274L529.01 613.843C539.209 618.127 551.441 613.359 551.499 602.453L551.848 172.848C551.906 161.41 545.862 150.713 535.78 144.4L358.591 47.7729C345.9 41.0332 336.146 47.1321 335.428 57.2486V57.2472Z" fill="#565B70"/>
<path d="M523.651 599.834L355.141 507.225C347.95 502.738 343.641 495.118 343.676 486.968L343.989 67.0726C344.492 59.9836 351.323 55.7103 360.22 60.4318L528.62 153.085C535.68 157.509 539.893 165.002 539.864 173.018L539.399 591.856C539.37 599.498 530.392 604.046 523.651 599.836V599.834Z" fill="#A4B7D3"/>
<path d="M353.129 59.8721C351.795 59.8721 350.557 60.1498 349.465 60.708C347.155 61.8931 345.708 64.2663 345.499 67.2221L345.185 487.025C345.156 494.746 349.195 501.89 355.999 506.135L524.496 598.745C527.227 600.441 530.539 600.587 533.415 599.135C536.292 597.683 538.006 594.98 538.006 591.903L538.471 173.07C538.5 165.489 534.549 158.469 527.866 154.284L359.55 61.6778C357.289 60.4788 355.102 59.871 353.129 59.871V59.8721ZM529.29 602.885C527.081 602.888 524.902 602.274 522.956 601.064L354.471 508.477C346.777 503.673 342.245 495.669 342.279 487.021L342.596 67.1308C342.878 63.1243 344.874 59.9372 348.085 58.2931C351.702 56.437 356.287 56.7973 360.988 59.2911L529.406 151.953C536.96 156.693 541.406 164.577 541.376 173.082L540.912 591.914C540.912 596.023 538.616 599.628 534.781 601.561C533.038 602.446 531.149 602.886 529.29 602.886V602.885Z" fill="white"/>
<path d="M426.133 87.4271L425.921 87.309C424.805 86.6955 423.899 87.3392 423.893 88.7498C423.887 90.1577 424.782 91.7993 425.895 92.4153L426.107 92.5334C427.222 93.1494 428.132 92.5032 428.14 91.0954C428.143 89.6847 427.249 88.0431 426.133 87.4271Z" fill="#002E44"/>
<path d="M471.04 112.159L432.44 90.8347C431.325 90.2187 430.418 90.862 430.409 92.2727C430.403 93.6806 431.299 95.325 432.414 95.9382L471.014 117.262C472.129 117.878 473.042 117.232 473.047 115.824C473.053 114.414 472.156 112.772 471.04 112.159Z" fill="#002E44"/>
<path d="M524.607 165.128L507.523 155.988L508.947 153.596L526.031 162.736L524.607 165.128Z" fill="#93A6C3"/>
<path d="M524.607 172.326L507.523 163.183L508.947 160.791L526.031 169.934L524.607 172.326Z" fill="#93A6C3"/>
<path d="M524.607 179.665L507.523 170.526L508.947 168.133L526.031 177.273L524.607 179.665Z" fill="#93A6C3"/>
<path d="M529.824 226.821V419.964C529.824 424.972 524.101 428.098 519.51 425.579L356.555 335.956C354.442 334.793 353.141 332.654 353.141 330.338V137.196C353.141 132.185 358.879 129.062 363.455 131.578L526.396 221.203C528.517 222.364 529.824 224.506 529.824 226.821Z" fill="#B4C6D3"/>
<path d="M416.738 131.158L477.945 164.821C481.504 166.778 483.695 170.381 483.695 174.277V250.787C483.695 259.22 474.034 264.478 466.332 260.243L405.127 226.578C401.568 224.62 399.377 221.02 399.377 217.124V140.615C399.377 132.181 409.035 126.921 416.738 131.158Z" fill="#005A7C"/>
<path d="M410.837 131.093C409.105 131.093 407.374 131.523 405.796 132.383C402.623 134.11 400.732 137.206 400.732 140.671V217.18C400.732 220.574 402.658 223.741 405.756 225.446L466.963 259.111C470.127 260.849 473.904 260.86 477.08 259.131C480.25 257.404 482.144 254.305 482.144 250.843V174.334C482.144 170.94 480.215 167.772 477.117 166.065L415.913 132.402C414.324 131.531 412.58 131.093 410.837 131.093ZM472.039 263.175C469.796 263.175 467.547 262.612 465.504 261.487L404.3 227.822C400.308 225.63 397.826 221.55 397.826 217.18V140.671C397.826 136.214 400.264 132.224 404.346 129.999C408.434 127.777 413.301 127.786 417.372 130.026L478.576 163.689C482.568 165.886 485.05 169.964 485.05 174.334V250.843C485.05 255.303 482.612 259.29 478.53 261.512C476.496 262.62 474.267 263.175 472.039 263.175Z" fill="white"/>
<path d="M493.77 437.181L459.34 418.813L459.282 418.777L459.114 414.386L459.169 414.411L493.599 432.779L493.77 437.181Z" fill="#008CBB"/>
<path d="M417.915 386.867L379.841 366.513L379.783 366.474L379.672 362.111L417.743 382.467L417.915 386.867Z" fill="#008CBB"/>
<path d="M402.094 387.299L401.954 387.236L380.209 375.791L380.151 375.756L379.983 371.361L380.041 371.389L401.783 382.834L401.925 382.927L402.094 387.299Z" fill="#008CBB"/>
<path d="M406.74 398.849L380.675 385.042L380.617 385.004L380.448 380.612L380.506 380.64L406.572 394.446L406.74 398.849Z" fill="#008CBB"/>
<path d="M432.412 403.865L432.282 403.786L432.116 399.408L432.244 399.466L454.416 411.559L454.581 415.962L432.412 403.865Z" fill="#008CBB"/>
<path d="M409.646 391.481L409.631 391.47L409.463 387.073L409.48 387.082L422.436 394.149L422.602 398.551L409.646 391.481Z" fill="#008CBB"/>
<path d="M365.398 385.21L408.109 408.505L407.94 404.103L365.398 380.906V385.21Z" fill="#008CBB"/>
<path d="M427.032 418.79L420.027 414.97L419.859 410.568L426.864 414.39L427.032 418.79Z" fill="#008CBB"/>
<path d="M404.514 441.986L404.343 437.587L413.777 442.734L413.949 447.134L404.514 441.986Z" fill="#008CBB"/>
<path d="M483.639 494.265L483.473 489.862L493.445 495.304L493.614 499.706L483.639 494.265Z" fill="#008CBB"/>
<path d="M483.952 503.516L483.784 499.113L493.758 504.555L493.924 508.957L483.952 503.516Z" fill="#008CBB"/>
<path d="M448.497 438.982L375.403 399.427L375.345 399.391L375.173 395.003L375.234 395.03L448.325 434.583L448.497 438.982Z" fill="#008CBB"/>
<path d="M398.451 420.67L375.71 408.681L375.649 408.643L375.483 404.254L375.538 404.282L398.28 416.27L398.451 420.67Z" fill="#008CBB"/>
<path d="M410.6 436.297L376.175 417.932L376.114 417.894L375.948 413.505L376.004 413.53L410.434 431.895L410.6 436.297Z" fill="#008CBB"/>
<path d="M488.802 552.011L454.375 533.645L454.317 533.607L454.148 529.216L454.207 529.243L488.631 547.609L488.802 552.011Z" fill="#008CBB"/>
<path d="M414.967 456.763L376.896 436.409L376.835 436.371L376.724 432.007L414.798 452.361L414.967 456.763Z" fill="#008CBB"/>
<path d="M422.975 452.121L422.806 447.719L459.041 467.49L459.212 471.889L422.975 452.121Z" fill="#008CBB"/>
<path d="M398.988 457.046L398.845 456.983L377.106 445.538L377.045 445.5L376.88 441.111L376.935 441.136L398.68 452.583L398.822 452.674L398.988 457.046Z" fill="#008CBB"/>
<path d="M403.64 468.593L377.575 454.789L377.517 454.751L377.345 450.362L377.403 450.387L403.469 464.19L403.64 468.593Z" fill="#008CBB"/>
<path d="M429.309 473.618L429.182 473.533L429.013 469.158L429.141 469.215L451.31 481.312L451.481 485.711L429.309 473.618Z" fill="#008CBB"/>
<path d="M466.991 494.162L460.989 490.89L460.82 486.485L466.823 489.763L466.991 494.162Z" fill="#008CBB"/>
<path d="M507.661 462.806L468.436 441.399L468.268 436.999L507.515 458.403L507.661 462.806Z" fill="#008CBB"/>
<path d="M406.543 461.234L406.525 461.22L406.36 456.823L406.374 456.831L419.327 463.898L419.498 468.301L406.543 461.234Z" fill="#008CBB"/>
<path d="M412.95 501.696L374.876 481.343L374.818 481.304L374.708 476.94L412.779 497.294L412.95 501.696Z" fill="#008CBB"/>
<path d="M397.129 502.126L396.986 502.066L375.244 490.618L375.186 490.58L375.018 486.191L375.076 486.216L396.818 497.661L396.96 497.754L397.129 502.126Z" fill="#008CBB"/>
<path d="M401.778 513.527L375.713 499.723L375.655 499.684L375.483 495.296L375.544 495.32L401.61 509.124L401.778 513.527Z" fill="#008CBB"/>
<path d="M427.289 518.551L427.161 518.466L426.996 514.091L427.124 514.149L449.295 526.245L449.461 530.644L427.289 518.551Z" fill="#008CBB"/>
<path d="M404.683 506.167L404.666 506.156L404.498 501.756L404.515 501.765L417.468 508.832L417.639 513.234L404.683 506.167Z" fill="#008CBB"/>
<path d="M407.149 425.396L406.98 420.994L423.385 429.944L423.554 434.344L407.149 425.396Z" fill="#008CBB"/>
<path d="M456.594 434.981L441.442 426.715L441.27 422.315L456.423 430.581L456.594 434.981Z" fill="#008CBB"/>
<path d="M365.398 466.116L405.079 487.762L404.91 483.36L365.398 461.816V466.116Z" fill="#008CBB"/>
<path d="M423.929 498.084L416.924 494.265L416.755 489.862L423.758 493.684L423.929 498.084Z" fill="#008CBB"/>
<path d="M504.569 542.103L465.33 520.696L465.165 516.294L504.404 537.7L504.569 542.103Z" fill="#008CBB"/>
<path d="M453.643 514.278L438.491 506.012L438.322 501.61L453.475 509.878L453.643 514.278Z" fill="#008CBB"/>
<path d="M484.421 512.62L484.249 508.217L494.224 513.659L494.392 518.062L484.421 512.62Z" fill="#008CBB"/>
<path d="M396.975 437.948L376.486 427.186L376.425 427.147L376.259 422.756L376.314 422.783L396.807 433.546L396.975 437.948Z" fill="#008CBB"/>
<path d="M471.356 460.344L433.523 439.784L433.357 435.384L471.187 455.941L471.356 460.344Z" fill="#008CBB"/>
<path d="M439.335 496.875L368.403 458.895L368.362 458.868L368.191 454.474L368.238 454.493L439.167 492.473L439.335 496.875Z" fill="#008CBB"/>
<path d="M432.2 195.422C433.441 199.42 434.972 203.055 436.686 206.267L442.883 226.247L450.958 224.003L450.949 223.981C457.754 221.558 461.406 206.833 455.83 188.858C450.254 170.883 438.775 160.362 431.668 161.803L431.66 161.778L423.582 164.02L429.78 184.002C430.175 187.582 430.962 191.421 432.2 195.422Z" fill="#FBAD56"/>
<path d="M425.441 164.855L431.229 183.518C431.679 187.398 432.475 191.159 433.649 194.938C434.82 198.716 436.296 202.285 438.039 205.552L443.923 224.445L450.344 222.661L450.492 222.597C456.614 220.417 459.764 206.146 454.493 189.146C449.223 172.153 438.431 161.778 432.025 163.049L431.856 163.074L425.441 164.855ZM442.938 227.525C442.307 227.525 441.729 227.137 441.546 226.538L435.349 206.558C433.623 203.377 432.083 199.651 430.863 195.713C429.639 191.773 428.809 187.849 428.39 184.046L422.245 164.311C422.135 163.962 422.181 163.585 422.364 163.266C422.55 162.944 422.861 162.708 423.23 162.603L431.304 160.362L431.72 160.307C439.553 159.05 451.367 169.299 457.277 188.374C463.204 207.474 459.058 222.171 451.779 225.075L451.422 225.229L443.348 227.47L442.938 227.525Z" fill="white"/>
<path d="M455.802 218.39C456.16 217.656 456.485 216.861 456.77 216.003L441.115 220.353L441.719 222.303L455.802 218.39Z" fill="#F387A3"/>
<path d="M430.094 185.91L452.004 179.825C451.696 179.19 451.376 178.574 451.054 177.971L429.789 183.875L429.841 184.037C429.907 184.651 430.003 185.283 430.094 185.91Z" fill="#F387A3"/>
<path d="M453.393 183.088C453.123 182.45 452.85 181.818 452.568 181.202L430.254 187.4C430.367 188.066 430.486 188.734 430.629 189.413L453.393 183.088Z" fill="#F387A3"/>
<path d="M443.599 167.858C443.018 167.269 442.431 166.725 441.85 166.224L425.599 170.739L426.203 172.689L443.599 167.858Z" fill="#F387A3"/>
<path d="M454.736 186.349C454.503 185.703 454.268 185.059 454.024 184.432L431.03 190.82C431.183 191.478 431.338 192.135 431.512 192.803L454.736 186.349Z" fill="#F387A3"/>
<path d="M440.57 165.063C439.8 164.494 439.036 163.996 438.283 163.581L424.668 167.365L425.273 169.312L440.57 165.063Z" fill="#F387A3"/>
<path d="M448.473 173.722C448.064 173.109 447.645 172.518 447.224 171.951L427.771 177.354L428.376 179.301L448.473 173.722Z" fill="#F387A3"/>
<path d="M450.282 176.703C449.924 176.081 449.561 175.476 449.192 174.888L428.702 180.58L429.307 182.529L450.282 176.703Z" fill="#F387A3"/>
<path d="M446.219 170.727C445.74 170.128 445.252 169.559 444.767 169.014L426.686 174.038L427.29 175.988L446.219 170.727Z" fill="#F387A3"/>
<path d="M458.237 206.963C458.26 206.27 458.26 205.564 458.252 204.843L438.012 210.467L438.616 212.413L458.237 206.963Z" fill="#F387A3"/>
<path d="M456.65 193.015C456.493 192.36 456.328 191.703 456.144 191.04L432.892 197.5C433.121 198.151 433.357 198.789 433.598 199.419L456.65 193.015Z" fill="#F387A3"/>
<path d="M432.398 196.088L455.715 189.612L455.497 188.878C455.369 188.468 455.238 188.067 455.105 187.663L431.806 194.136C431.925 194.546 432.029 194.95 432.157 195.362L432.398 196.088Z" fill="#F387A3"/>
<path d="M450.681 223.552L450.675 223.53C452.204 222.986 453.567 221.809 454.7 220.115L442.046 223.632L442.706 225.768L450.681 223.552Z" fill="#F387A3"/>
<path d="M436.275 162.595C434.642 161.998 433.096 161.814 431.722 162.094L431.713 162.069L423.738 164.286L424.246 165.936L436.275 162.595Z" fill="#F387A3"/>
<path d="M457.189 214.438C457.375 213.72 457.541 212.969 457.677 212.185L440.029 217.088L440.633 219.038L457.189 214.438Z" fill="#F387A3"/>
<path d="M457.383 196.422C457.264 195.76 457.13 195.091 456.987 194.418L434.133 200.764C434.394 201.41 434.673 202.032 434.955 202.653L457.383 196.422Z" fill="#F387A3"/>
<path d="M458.01 210.545C458.097 209.842 458.173 209.116 458.225 208.368L439.098 213.683L439.702 215.63L458.01 210.545Z" fill="#F387A3"/>
<path d="M458.148 203.398C458.116 202.716 458.067 202.023 458.009 201.319L436.926 207.176L437.53 209.123L458.148 203.398Z" fill="#F387A3"/>
<path d="M457.876 199.835C457.797 199.164 457.701 198.482 457.597 197.795L435.53 203.924C435.832 204.559 436.146 205.175 436.462 205.783L457.876 199.835Z" fill="#F387A3"/>
<path d="M417.619 199.373C423.305 217.708 435.142 228.3 442.211 226.334C449.278 224.371 453.191 209.406 447.505 191.071C441.816 172.736 429.979 162.146 422.913 164.107C415.844 166.07 411.933 181.037 417.619 199.373Z" fill="#FFD792"/>
<path d="M424.733 165.3C424.259 165.3 423.812 165.357 423.393 165.473C417.739 167.043 413.364 180.572 419.088 199.034C421.659 207.322 425.726 214.617 430.541 219.583C434.67 223.842 438.917 225.88 441.875 225.06C447.532 223.49 451.908 209.964 446.184 191.505C440.882 174.407 430.704 165.3 424.733 165.3ZM440.516 227.989C436.817 227.989 432.526 225.695 428.4 221.441C423.289 216.173 418.994 208.49 416.301 199.807C410.281 180.407 414.689 165.028 422.577 162.833C430.48 160.652 442.956 171.333 448.971 190.73C454.988 210.129 450.583 225.508 442.695 227.7C441.994 227.892 441.268 227.989 440.516 227.989Z" fill="white"/>
<path d="M448.745 211.694L418.269 195.941C417.531 193.084 417.037 190.367 416.755 187.81L448.777 204.361C448.98 207.011 448.957 209.469 448.745 211.694Z" fill="#FFDFAA"/>
<path d="M450.084 212.456L448.71 211.744C448.922 209.519 448.945 207.061 448.742 204.41L450.235 205.18C450.389 207.784 450.328 210.223 450.084 212.456ZM418.234 195.99L416.531 195.111C415.872 192.317 415.442 189.627 415.204 187.076L416.72 187.859C417.002 190.417 417.496 193.133 418.234 195.99Z" fill="white"/>
<path d="M446.56 192.771L416.755 177.364C416.944 175.994 417.205 174.727 417.531 173.566L444.869 187.697C445.337 188.929 445.778 190.214 446.191 191.544C446.319 191.954 446.441 192.364 446.56 192.771Z" fill="#FFDFAA"/>
<path d="M448.258 193.615L446.512 192.71C446.393 192.303 446.271 191.893 446.143 191.484C445.73 190.153 445.288 188.868 444.82 187.636L446.703 188.61C446.994 189.424 447.273 190.249 447.537 191.096C447.796 191.943 448.037 192.781 448.258 193.615ZM416.707 177.303L415.359 176.607C415.565 175.257 415.841 173.998 416.178 172.832L417.483 173.506C417.157 174.666 416.896 175.934 416.707 177.303Z" fill="white"/>
<path d="M374.552 244.784V308.636L512.776 383.372V319.52L374.552 244.784Z" fill="#002E44"/>
<path d="M579.734 361.724C498.662 379.602 426.196 416.832 368.937 467.482C366.677 469.465 362.432 470.262 359.369 469.234C328.719 458.826 309.514 449.479 274.209 441.406C270.676 440.614 268.63 434.084 270.987 431.76C330.462 372.244 393.709 330.178 479.57 303.902C482.946 302.854 488.304 303.421 491.512 305.117C523.6 322.075 554.253 335.012 581.623 352.682C584.322 354.453 582.93 361.028 579.734 361.724Z" fill="#005A7C"/>
<path d="M579.745 356.289C498.673 374.168 426.207 411.4 368.948 462.05C366.688 464.033 362.442 464.833 359.38 463.802C328.73 453.394 309.525 444.048 274.22 435.975C270.687 435.18 269.67 432.598 272.023 430.274C331.502 370.758 393.72 324.747 479.581 298.47C482.957 297.42 488.315 297.989 491.523 299.683C523.611 316.64 553.276 334.181 580.643 351.854C583.348 353.622 582.941 355.596 579.745 356.289Z" fill="#43B978"/>
<path d="M548.03 353.569C548.291 353.726 548.553 353.885 548.814 354.045C551.4 355.604 550.964 357.523 547.913 358.397C483.946 376.406 426.054 406.543 377.671 445.722C375.329 447.616 371.163 448.339 368.336 447.319L367.813 447.116C364.991 446.071 360.764 446.832 358.46 448.815L358.326 448.936C356.048 450.891 351.914 451.719 349.037 450.759C329.727 444.402 323.3 438.561 302.227 433.053C299.08 432.242 298.362 429.798 300.707 427.62L300.78 427.535C303.11 425.332 302.485 422.918 299.272 422.079C298.964 422 298.653 421.917 298.345 421.837C295.16 421.04 294.449 418.581 296.849 416.395C346.934 371.099 393.491 334.824 460.603 310.97C463.793 309.831 468.791 310.131 471.754 311.591C472.094 311.759 472.431 311.929 472.765 312.097C475.715 313.557 480.634 313.868 483.85 312.842C484.73 312.562 485.61 312.281 486.491 312.006C489.728 310.981 494.74 311.432 497.625 312.963C516.796 323.225 535.042 333.683 552.417 344.234C555.032 345.823 554.596 347.734 551.516 348.537C550.645 348.768 549.773 349.002 548.901 349.238C545.851 350.082 545.473 352.029 548.03 353.569Z" fill="#76C694"/>
<path d="M371.506 392.636C364.588 384.145 364.681 373.17 372.631 363.722C385.415 348.285 414.819 342.34 436.683 349.657C445.295 352.481 451.661 356.911 455.214 362.353C460.804 370.943 458.767 380.782 450.574 389.212C437.194 402.719 412.262 409.525 391.052 404.152C382.695 401.982 375.902 398.039 371.506 392.636Z" fill="white"/>
<path d="M434.477 353.646C454.02 360.089 458.579 374.627 446.814 386.638C434.983 398.616 411.727 404.72 392.69 399.828C373.706 394.942 365.628 379.78 376.948 366.232C388.219 352.665 414.981 347.204 434.477 353.646Z" fill="#43B978"/>
<path d="M344.349 420.374C337.571 418.135 336.164 412.903 341.513 408.778C346.88 404.656 356.909 403.334 363.636 405.759C370.391 408.179 371.33 413.28 366.039 417.217C360.745 421.152 351.165 422.612 344.349 420.374Z" fill="#43B978"/>
<path d="M468.915 347.779C462.508 344.617 462.397 339.868 468.999 337.338C475.565 334.787 486.246 335.562 492.58 338.925C498.943 342.291 498.62 346.809 492.127 349.171C485.639 351.527 475.356 350.964 468.915 347.779Z" fill="#43B978"/>
<path d="M272.768 403.68L287.281 403.372V406.738L477.113 295.508C479.949 293.957 484.743 294.075 487.828 295.763L568.851 340.106L568.038 339.254L583.03 337.397L583.088 343.315C583.117 344.319 582.446 345.339 581.083 346.078L364.963 463.98C362.133 465.52 357.348 465.412 354.259 463.73L275.261 413.118C273.623 412.216 272.809 411.039 272.85 409.931H272.803L272.768 403.68Z" fill="#005A7C"/>
<path d="M274.779 401.074L477.104 283.024C479.94 281.487 484.734 281.583 487.822 283.272L580.572 334.035C583.652 335.718 583.852 338.36 581.005 339.889L364.905 457.794C362.075 459.35 357.289 459.226 354.204 457.535L275.203 406.934C272.147 405.238 271.926 402.614 274.779 401.074Z" fill="#43B978"/>
<path d="M305.814 398.874L304.936 398.401C302.112 396.842 302.057 394.37 304.829 392.838L464.858 297.892C467.662 296.358 472.253 296.399 475.086 297.972L475.609 298.277C478.429 299.866 483.02 299.91 485.83 298.379L485.993 298.282C488.77 296.773 493.32 296.806 496.139 298.367L553.072 329.52C555.92 331.062 555.978 333.548 553.188 335.055L553.101 335.118C550.312 336.658 550.341 339.127 553.218 340.681L554.031 341.132C556.878 342.655 556.937 345.157 554.147 346.686L380.311 441.531C377.556 443.03 373.044 443.005 370.203 441.487L369.229 440.959C366.399 439.43 361.899 439.427 359.132 440.931L356.869 442.166C354.094 443.681 349.533 443.646 346.691 442.106L303.803 411.229C300.961 409.672 300.903 407.197 303.632 405.699L305.962 404.409C308.684 402.891 308.626 400.419 305.814 398.874Z" fill="#76C694"/>
<path d="M464.501 354.119C470.487 363.988 469.191 375.416 461.038 384.691C447.824 399.707 420.907 404.846 399.758 396.391C391.431 393.069 385.024 387.993 381.224 381.724C375.233 371.846 376.531 360.408 384.687 351.124C397.898 336.13 424.809 331.001 445.956 339.443C454.289 342.776 460.701 347.849 464.501 354.119Z" fill="white"/>
<path d="M401.743 391.898C382.837 384.347 376.944 367.452 388.616 354.174C400.279 340.934 425.063 336.306 443.966 343.856C462.875 351.418 468.773 368.294 457.107 381.561C445.436 394.823 420.664 399.459 401.743 391.898Z" fill="#43B978"/>
<path d="M495.354 329.97C501.784 333.504 502.202 338.995 496.281 342.229C490.333 345.449 480.298 345.22 473.862 341.692C467.4 338.167 466.996 332.679 472.926 329.445C478.856 326.212 488.892 326.437 495.354 329.97Z" fill="#43B978"/>
<path d="M368.908 398.86C375.332 402.377 375.771 407.86 369.82 411.085C363.899 414.327 353.852 414.102 347.41 410.566C340.948 407.04 340.536 401.552 346.481 398.307C352.411 395.068 362.455 395.315 368.908 398.86Z" fill="#43B978"/>
<path d="M272.768 390.905L287.281 390.594V393.963L477.113 282.732C479.949 281.181 484.743 281.299 487.828 282.991L568.851 327.33L568.038 326.478L583.03 324.622L583.088 330.542C583.117 331.543 582.446 332.563 581.083 333.303L364.963 451.204C362.133 452.744 357.348 452.637 354.259 450.954L275.261 400.342C273.623 399.44 272.809 398.263 272.85 397.155H272.803L272.768 390.905Z" fill="#005A7C"/>
<path d="M274.779 388.293L477.104 270.248C479.94 268.711 484.734 268.81 487.822 270.496L580.572 321.259C583.652 322.942 583.852 325.584 581.005 327.113L364.905 445.015C362.075 446.574 357.289 446.447 354.204 444.762L275.203 394.158C272.147 392.461 271.926 389.838 274.779 388.293Z" fill="#43B978"/>
<path d="M305.814 386.099L304.936 385.626C302.112 384.067 302.057 381.598 304.829 380.06L464.858 285.117C467.662 283.582 472.253 283.624 475.086 285.196L475.609 285.502C478.429 287.091 483.02 287.135 485.83 285.603L485.993 285.51C488.77 283.995 493.32 284.031 496.139 285.592L553.072 316.744C555.92 318.29 555.978 320.773 553.188 322.28L553.101 322.343C550.312 323.883 550.341 326.352 553.218 327.908L554.031 328.36C556.878 329.88 556.937 332.382 554.147 333.914L380.311 428.756C377.556 430.255 373.044 430.233 370.203 428.712L369.229 428.184C366.399 426.655 361.899 426.653 359.132 428.159L356.869 429.391C354.094 430.909 349.533 430.871 346.691 429.331L303.803 398.451C300.961 396.897 300.903 394.422 303.632 392.924L305.962 391.634C308.684 390.116 308.626 387.644 305.814 386.099Z" fill="#76C694"/>
<path d="M464.501 341.344C470.487 351.216 469.191 362.641 461.038 371.916C447.824 386.932 420.907 392.072 399.758 383.616C391.431 380.295 385.024 375.221 381.224 368.946C375.233 359.072 376.531 347.633 384.687 338.35C397.898 323.355 424.809 318.227 445.956 326.666C454.289 330.001 460.701 335.075 464.501 341.344Z" fill="white"/>
<path d="M401.743 379.124C382.837 371.571 376.944 354.679 388.616 341.4C400.279 328.16 425.063 323.53 443.966 331.081C462.875 338.645 468.773 355.518 457.107 368.783C445.436 382.047 420.664 386.686 401.743 379.124Z" fill="#43B978"/>
<path d="M495.354 317.195C501.784 320.728 502.202 326.219 496.281 329.453C490.333 332.673 480.298 332.445 473.862 328.917C467.4 325.392 466.996 319.903 472.926 316.672C478.856 313.436 488.892 313.661 495.354 317.195Z" fill="#43B978"/>
<path d="M368.908 386.084C375.332 389.6 375.771 395.084 369.82 398.312C363.899 401.551 353.852 401.323 347.41 397.789C340.948 394.267 340.536 388.776 346.481 385.531C352.411 382.294 362.455 382.539 368.908 386.084Z" fill="#43B978"/>
<path d="M260.899 313.66C265.464 315.453 270.054 317.208 274.666 318.924C274.224 319.696 273.776 320.469 273.332 321.239C352.376 321.167 414.423 302.527 480.344 269.181C483.101 267.786 487.512 268.034 490.269 269.752C514.35 284.813 540.325 299.584 568.334 313.737C568.043 313.457 567.753 313.176 567.491 312.893C572.605 312.077 577.716 311.205 582.83 310.278C582.919 312.321 583.007 314.362 583.094 316.405C583.178 317.436 582.542 318.528 581.118 319.358C507.551 363.445 421.466 390.398 330.864 395.983C327.302 396.205 322.2 394.426 319.498 392.048C292.418 368.183 281.648 344.45 259.38 320.945C258.2 319.693 257.924 318.591 258.415 317.87L258.374 317.851C259.22 316.46 260.063 315.063 260.899 313.66Z" fill="#005A7C"/>
<path d="M263.849 312.748C347.08 313.584 413.047 293.536 481.37 257.192C484.063 255.773 488.386 255.949 491.103 257.64C518.267 274.631 547.903 291.261 580.183 307.034C583.408 308.596 583.757 311.335 580.88 313.061C508.185 357.522 422.879 385.012 332.884 391.256C329.342 391.52 324.275 389.761 321.59 387.396C294.65 363.712 284.013 340.166 261.864 316.856C259.682 314.533 260.56 312.701 263.849 312.748Z" fill="#43B978"/>
<path d="M294.033 322.458L293.376 321.815C291.273 319.725 292.159 317.954 295.355 317.792C362.008 314.663 412.038 298.233 468.86 271.04C471.612 269.723 475.839 269.954 478.332 271.582L478.789 271.896C481.267 273.548 485.564 273.754 488.298 272.346L488.458 272.259C491.16 270.873 495.385 270.996 497.939 272.575C515.108 283.087 533.209 293.443 552.298 303.523C555.174 305.019 555.232 307.555 552.414 309.144L552.327 309.21C549.509 310.827 549.509 313.312 552.414 314.85C552.705 314.995 552.995 315.147 553.257 315.292C556.162 316.78 556.249 319.329 553.344 320.916C493.342 353.671 425.688 375.218 354.514 383.318C351.127 383.712 346.347 382.296 343.837 380.212C343.552 379.972 343.264 379.733 342.979 379.494C340.484 377.412 335.782 376.004 332.4 376.277C331.474 376.356 330.55 376.428 329.625 376.499C326.223 376.771 321.467 375.204 319.05 373.068C303.008 358.799 294.123 342.938 287.423 330.537C286.008 327.916 286.185 326.651 289.367 326.558C290.279 326.53 291.186 326.5 292.095 326.467C295.28 326.335 296.137 324.529 294.033 322.458Z" fill="#76C694"/>
<path d="M461.421 324.026C466.015 333.826 463.176 344.468 453.085 351.862C436.794 363.986 406.742 363.158 387.334 351.139C379.678 346.464 374.602 340.728 372.513 334.646C369.235 325.049 373.686 315.945 383.757 309.595C400.141 299.482 426.067 298.467 445.325 308.452C452.899 312.433 458.51 317.79 461.421 324.026Z" fill="white"/>
<path d="M390.567 347.782C373.198 337.135 372.417 321.989 386.86 312.964C401.352 303.983 425.477 303.274 442.744 312.304C459.96 321.313 464.001 337.861 449.61 348.477C435.26 359.122 407.893 358.42 390.567 347.782Z" fill="#43B978"/>
<path d="M494.782 303.224C500.808 306.919 500.86 312.32 494.628 315.127C488.384 317.926 478.308 316.959 472.38 313.092C466.424 309.221 466.793 304.057 472.921 301.42C479.048 298.785 488.721 299.519 494.782 303.224Z" fill="#43B978"/>
<path d="M355.516 345.763C360.949 350.276 359.866 354.915 352.817 355.891C345.8 356.892 335.619 353.741 330.308 349.052C324.973 344.353 326.417 340.036 333.318 339.2C340.213 338.369 350.06 341.226 355.516 345.763Z" fill="#43B978"/>
<path d="M172.536 289.578L186.204 291.737C182.203 281.26 187.906 279.836 187.906 279.836L182.212 270.775L172.536 289.578Z" fill="#F6A0A6"/>
<path d="M228.846 270.237C223.837 276.391 209.246 285.679 192.699 294.828C185.179 298.991 189.288 311.813 199.228 310.293C209.168 308.777 237.609 276.69 237.609 276.69C236.043 269.2 228.846 270.237 228.846 270.237Z" fill="#F6A0A6"/>
<path d="M247.757 251.977C242.972 254.542 243.393 251.009 241.612 250.808C239.837 250.602 232.709 254.097 231.707 255.343C230.513 256.816 232.625 264.576 227.979 271.404C227.145 272.633 236.725 277.566 236.725 277.566C236.725 277.566 247.028 269.809 248.931 267.15C250.834 264.499 256.168 263.278 254.472 262.456C252.778 261.634 248.484 263.091 246.136 263.99C243.788 264.884 244.346 261.021 247.126 257.193C249.91 253.376 259.519 249.189 258.196 247.489C257.339 246.384 251.575 249.934 247.757 251.977Z" fill="#F6A0A6"/>
<path d="M151.518 420.406C151.518 420.406 160.519 441.863 153.323 457.108C141.628 481.869 145.632 535.168 144.664 541.421C143.694 547.676 155.574 554.397 158.486 541.888C161.397 529.377 175.279 474.349 181.425 461.158C187.573 447.973 185.187 423.296 185.187 423.296L151.518 420.406Z" fill="#F6A0A6"/>
<path d="M176.969 437.158C182.573 448.093 188.46 480.444 185.54 500.641C182.623 520.838 188.841 561.31 189.001 567.65C189.166 573.986 201.424 578.622 202.055 565.769C202.683 552.909 209.13 501.816 212.82 487.66C216.504 473.501 210.185 430.468 210.185 430.468C210.185 430.468 171.361 426.225 176.969 437.158Z" fill="#F6A0A6"/>
<path d="M210.137 582.612C202.112 578.025 203.056 564.491 203.056 564.491C192.701 564.87 187.925 562.99 187.925 562.99C187.925 567.111 182.953 574.167 182.352 580.365C181.82 585.898 186.666 589.175 186.666 594.007H190.926L188.785 582.705C195.749 582.705 204.626 594.141 213.301 594.042C222.407 593.941 224.982 591.329 225.676 588.612C226.37 585.89 218.154 587.207 210.137 582.612Z" fill="#002E44"/>
<path d="M166.69 560.597C158.674 556.002 159.612 542.467 159.612 542.467C149.26 542.847 144.481 540.963 144.481 540.963C144.481 545.088 139.506 552.144 138.908 558.342C138.373 563.874 143.222 567.152 143.222 571.983H147.479L145.344 560.687C152.305 560.687 161.179 572.118 169.854 572.016C178.96 571.917 181.538 569.308 182.229 566.586C182.923 563.874 174.707 565.183 166.69 560.597Z" fill="#002E44"/>
<path d="M158.316 347.573C158.316 347.573 155.704 356.59 148.803 367.613C141.903 378.634 135.455 394.954 137.806 407.512C140.13 419.922 135.13 469.104 130.333 494.254C130.333 494.254 153.987 498.59 162.936 504.552C194.242 525.422 228.132 505.913 228.132 505.913C228.132 452.358 204.51 382.96 199.699 352.253L158.316 347.573Z" fill="#F1617E"/>
<path d="M206.869 318.25C204.836 313.312 203.055 310.16 200.835 302.263C198.618 294.377 185.534 287.598 172.599 289.647C158.397 291.891 156.011 311.101 155.977 323.224C155.942 334.468 157.188 347.186 150.348 365.323C165.376 378.041 190.017 384.148 205.501 376.292C203.624 364.075 197.229 343.471 200.068 334.226C200.544 332.678 210.83 327.863 206.869 318.25Z" fill="#002E44"/>
<path d="M196.936 255.872C197.279 254.326 196.979 251.486 196.802 250.083C195.268 237.921 177.007 249.173 170.722 259.056C164.438 268.941 190.259 286.468 195.559 277.823C201.791 267.651 198.859 259.952 198.531 259.515C197.27 257.868 196.622 257.277 196.936 255.872Z" fill="#F6A0A6"/>
<path d="M178.664 235.885C164.761 239.306 160.237 231.535 152.848 246.964C146.752 259.682 136.153 247.615 129.869 262.352C123.584 277.096 133.213 277.522 121.477 286.613C110.111 295.417 122.079 309.43 125.322 317.08C128.567 324.724 134.427 328.552 127.3 339.625C127.3 339.625 156.358 339.26 154.057 321.023C151.753 302.787 170.116 311.512 168.489 298.629C167.187 288.296 181.192 292.566 180.799 286.041C180.413 279.507 193.459 276.637 184.698 264.884C179.503 257.913 199.447 253.533 198.491 245.963C197.855 240.923 192.566 232.464 178.664 235.885Z" fill="#005A7C"/>
<path d="M182.742 260.179C181.739 262.34 182.617 265.538 184.04 267.499C185.473 269.454 186.731 268.788 186.504 267.779C186.217 266.492 187.71 264.171 186.963 260.83C186.748 259.876 183.744 258.017 182.742 260.179Z" fill="#F6A0A6"/>
<path d="M203.14 317.565C202.448 301.635 196.739 296.54 193.052 295.327C182.307 291.799 177.444 303.981 179.524 317.163C181.508 329.741 185.748 347.804 196.515 361.302C200.763 366.618 208.989 351.917 208.233 347.982C207.475 344.039 203.735 331.143 203.14 317.565Z" fill="#F6A0A6"/>
<path d="M273.159 354.376C268.635 353.776 263.751 355.019 265.672 353.724C267.839 352.258 269.771 350.386 269.147 348.241C268.676 346.619 266.755 350.773 263.632 351.216C260.064 351.725 256.816 355.649 253.285 355.77C253.285 355.77 252.835 365.721 254.27 365.713C255.711 365.707 260.392 366.411 263.568 366.906C266.75 367.398 269.864 371.432 272.316 370.811C273.801 370.434 277.712 364.797 278.145 363.274C278.575 361.748 275.114 358.159 277.465 359.314C277.883 359.52 281.591 361.778 282.009 362.025C286.216 364.489 288.875 363.516 287.567 362.559C285.353 360.926 277.674 354.986 273.159 354.376Z" fill="#F6A0A6"/>
<path d="M255.76 355.704C248.148 356.391 215.54 348.778 207.201 347.595C203.406 347.051 190.148 356.755 197.557 362.196C204.975 367.641 256.574 365.567 256.574 365.567C260.961 359.798 255.76 355.704 255.76 355.704Z" fill="#F6A0A6"/>
</svg>
