<svg width="576" height="477" viewBox="0 0 576 477" fill="none" xmlns="http://www.w3.org/2000/svg">
<path d="M288.175 382.561C129.212 382.561 0.349365 403.702 0.349365 429.782C0.349365 455.861 129.212 477 288.175 477C447.136 477 576 455.861 576 429.782C576 403.702 447.136 382.561 288.175 382.561Z" fill="#E5AD70"/>
<path d="M213.913 465.385C109.083 465.385 24.1038 449.574 24.1038 430.067C24.1038 410.562 109.084 394.749 213.913 394.749C318.742 394.749 403.723 410.562 403.723 430.067C403.723 449.574 318.742 465.385 213.913 465.385Z" fill="#BC813A"/>
<path d="M473.133 0H160.825C150.912 0 142.876 12.4603 142.876 27.8328V334.106C142.876 349.478 150.912 361.938 160.825 361.938H473.133C483.045 361.938 491.082 349.478 491.082 334.106V27.8328C491.082 12.4603 483.045 0 473.133 0Z" fill="#4D4D4D"/>
<path d="M461.817 13.2711H172.433C163.247 13.2711 155.802 24.3595 155.802 38.0394V310.595C155.802 324.273 163.247 335.362 172.433 335.362H461.817C471.002 335.362 478.45 324.273 478.45 310.595V38.0394C478.45 24.3595 471.002 13.2711 461.817 13.2711Z" fill="#EDF5FF"/>
<path d="M316.41 60.939C241.987 60.939 181.652 154.492 181.652 269.894C181.652 292.334 183.962 313.93 188.184 334.191H444.635C448.859 313.93 451.165 292.334 451.165 269.894C451.165 154.492 390.833 60.939 316.41 60.939Z" fill="#B3D4F7"/>
<path d="M419.624 136.08C416.43 136.114 413.882 138.742 412.332 144.515C411.264 148.479 411.572 161.299 408.027 162.407C404.229 163.595 401.109 130.89 393.546 148.98C392.545 151.375 393.09 154.584 392.288 156.865C391.785 158.29 391.331 159.069 390.845 159.603C390.143 160.377 389.163 159.531 389.235 158.201C389.654 150.581 385.776 138.683 390.632 138.155C391.054 138.106 391.413 137.654 391.533 137.026C392.436 132.318 390.471 127.391 391.342 122.52C393.174 112.29 394.581 121.462 396.032 126.06C396.877 128.74 400.419 138.992 403.502 135.445C405.268 133.414 403.929 126.175 403.324 121.473C403.127 119.937 404.319 118.944 405.047 120.027C406.436 122.093 407.419 125.335 409.508 126.093C410.548 126.471 411.468 126.693 412.294 126.778C413.233 126.872 413.758 125.128 413.101 124.083C395.18 95.5773 372.069 74.9719 346.115 65.9886C345.459 65.7611 344.835 66.5531 344.864 67.5953C344.892 68.5581 344.848 69.6846 344.698 71.0664C344.229 75.4266 342.802 74.6425 344.701 78.9362C346.214 82.3539 350.302 83.0666 352.183 86.0499C353.399 87.9759 353.699 90.29 354.951 92.3078C356.539 94.8647 358.955 95.5773 360.207 98.9054C360.374 99.35 360.561 99.774 360.752 100.195C361.326 101.455 360.517 103.128 359.579 102.612C357.066 101.23 354.295 98.0498 353.063 101.054C351.277 105.409 356.176 110.098 356.848 113.225C357.677 117.069 355.252 123.485 359.627 123.986C363.138 124.387 362.54 119.033 362.169 115.077C362.075 114.078 362.601 113.202 363.251 113.263C366.74 113.593 367.35 118.796 369.073 122.323C371.624 127.552 375.212 126.328 377.816 130.336C383.185 138.612 376.932 136.428 374.576 136.632C372.362 136.821 371.305 135.741 369.524 138.987C367.241 143.153 368.648 140.872 369.783 144.849C370.758 148.262 373.095 158.985 374.543 160.995C375.369 162.144 380.487 163.626 383.867 164.05C384.694 164.155 385.102 165.662 384.57 166.648C383.28 169.038 382.256 171.692 380.613 174.742C376.223 182.903 378.462 180.527 379.238 189.743C379.907 197.7 375.769 200.193 374.426 206.906C372.876 214.645 376.716 223.718 377.326 230.665C377.897 237.187 379.986 238.111 381.684 243.181C382.999 247.107 382.862 251.199 384.722 255.572C387.389 261.848 394.114 273.046 399.737 271.999C403.672 271.268 402.082 265.993 404.482 263.353C406.774 260.829 410.072 264.257 410.498 259.002C410.584 257.942 411.287 257.291 411.92 257.713C413.674 258.883 416.082 261.199 417.005 260.63C418.914 259.45 418.543 254.686 418.464 251.442C418.443 250.543 418.906 249.779 419.486 249.792C424.259 249.899 423.266 261.23 422.009 265.547C421.355 267.792 419.421 271.089 419.328 273.452C419.159 277.748 420.938 276.548 422.161 280.566C423.525 285.051 421.811 292.632 421.657 297.728C421.553 301.168 420.981 302.037 421.307 305.595C421.607 308.831 423.147 311.577 422.951 314.893C422.5 322.555 416.983 324.055 415.585 329.91C415.397 330.701 415.265 331.501 415.166 332.3C415.046 333.281 415.531 334.19 416.175 334.19H444.079C444.47 334.19 444.827 333.848 445 333.306C445.023 333.233 445.043 333.156 445.059 333.079C449.136 313.135 451.385 291.927 451.385 269.894C451.385 219.248 439.752 172.826 420.421 136.658C420.225 136.29 419.932 136.078 419.624 136.08Z" fill="#538DAB"/>
<path d="M339.649 311.053C339.012 310.486 338.246 310.442 337.532 310.179C333.719 308.782 333.441 299.515 329.466 299.855C327.514 300.021 325.562 300.3 323.608 300.225C320.025 300.087 314.925 298.897 312.015 295.321C309.611 292.374 311.092 289.602 310.507 285.38C309.928 281.211 308.127 276.716 305.184 276.095C303.337 275.707 301.364 276.823 299.642 275.715C297.766 274.506 296.946 271.201 295.886 268.511C294.572 265.171 292.551 262.371 290.111 261.359C291.029 261.74 286.657 264.938 285.988 265.035C283.947 265.329 281.722 265.303 280.486 262.312C278.77 258.162 275.154 257.329 271.986 256.895C271.383 256.813 270.743 256.741 270.202 257.165C269.607 257.633 269.26 258.598 268.911 259.48C267.652 262.657 265.127 267.63 262.589 268.294C260.039 268.964 255.833 266.412 253.258 265.732C253.1 261.819 252.942 257.903 252.782 253.988C252.731 252.711 253.026 248.639 252.496 247.615C251.41 245.518 246.554 245.548 244.803 245.091C245.689 242.933 246.585 240.741 247.091 238.305C247.597 235.868 247.677 233.117 246.953 230.816C246.953 231.965 242.072 235.847 241.311 236.673C239.163 239.002 237.418 241.038 234.658 241.181C232.99 241.268 231.225 240.604 230.053 238.762C228.945 237.02 228.52 234.476 228.451 232.029C228.18 222.422 232.887 213.72 238.588 209.942C244.291 206.164 250.766 206.44 256.904 207.796C256.176 207.636 257.413 215.832 258.377 216.782C259.577 217.967 261.047 218.248 262.462 218.496C261.997 213.383 261.633 207.293 264.032 203.13C266.348 199.104 270.252 197.582 272.76 193.5C275.215 189.505 276.683 184.31 278.844 179.924C282.824 171.845 289.441 169.219 293.562 161.275C294.888 158.724 298.227 153.257 299.894 158.233C300.441 157.454 302.07 154.33 302.737 154.361C301.589 154.31 299.327 154.2 298.39 153.015C295.572 149.449 301.973 145.127 304.105 150.093C304.312 150.575 304.49 151.137 304.821 151.411C305.156 151.684 305.559 151.589 305.931 151.49C307.743 151.002 308.885 150.489 310.486 149.362C311.12 148.918 313.779 145.83 313.519 150.103C313.367 152.604 310.735 154.008 311.453 156.499C311.611 157.045 311.899 157.477 312.249 157.735C314.421 159.337 316.775 160.345 319.17 160.698C319.67 160.772 320.179 160.576 320.571 160.09C321.282 159.209 321.098 158.116 320.767 157.265C319.675 154.455 317.245 153.776 315.509 152.008C315.22 151.717 314.986 151.303 314.86 150.805C314.431 149.132 315.438 147.998 316.369 147.666C317.139 147.393 317.976 147.418 318.668 146.823C319.772 145.87 320.137 143.523 319.735 141.666C319.335 139.807 318.337 138.399 317.26 137.375C316.367 136.524 315.365 135.845 314.705 134.583C313.062 131.444 314.365 127.227 313.835 123.763C313.095 124.361 305.197 129.015 305.03 128.082C304.6 125.671 305.109 122.422 305.276 119.801C305.294 119.5 305.305 119.16 305.179 118.933C305.08 118.754 304.923 118.69 304.777 118.637C302.695 117.863 300.612 117.091 298.53 116.317C297.565 115.96 296.567 115.597 295.587 115.853C293.719 116.338 292.343 119.02 291.862 121.863C291.73 122.642 291.636 134.2 291.753 134.207C288.426 133.955 285.084 136.9 283.522 141.462C283.031 142.889 282.698 144.471 282.039 145.725C281.38 146.979 280.246 147.85 279.287 147.209L279.285 144.729C279.28 139.945 277.198 135.712 274.2 134.586C273.324 134.256 272.474 133.796 271.67 133.145C268.863 130.869 266.251 124.971 269.588 121.515C274.439 116.491 279.666 112.476 285.268 109.896C284.453 112.266 286.209 115.201 287.938 115.096C289.67 114.992 291.086 112.969 292.177 110.884C291.742 109.814 291.498 108.558 291.483 107.293C294.87 105.577 297.81 102.154 301.191 100.402C304.569 98.6495 308.923 99.1477 310.875 103.771L301.767 111.87C303.922 111.671 305.92 113.413 307.933 114.624C309.944 115.835 312.435 116.43 314.094 114.287C314.96 113.165 315.466 111.441 316.416 110.501C317.589 109.342 319.113 109.671 320.465 109.163C321.818 108.657 323.142 106.248 322.309 104.519C321.655 103.16 320.159 103.393 319.513 102.024C318.915 100.757 319.404 98.9662 319.23 97.4208C319.039 95.7223 318.075 94.5217 317.141 93.5868C311.57 88.0161 304.495 86.1949 298.062 88.6749C295.998 89.4694 293.676 91.3034 293.463 94.5857C293.33 96.6266 294.088 98.785 293.239 100.629C292.602 102.016 291.399 102.391 290.398 101.694C288.627 100.461 288.307 96.9867 289.08 94.4835C289.734 92.3633 291.012 90.859 292.36 89.7811C289.701 89.2703 287.031 88.9125 284.354 88.7082C283.102 88.6112 281.552 88.5907 280.778 90.4605C280.374 91.4336 280.42 92.8895 281.007 93.6022C281.722 94.4708 282.996 94.1003 283.242 95.7273C283.375 96.6008 283.087 97.4975 282.583 97.9343C278.949 101.089 274.94 103.173 270.825 104.139C270.655 104.177 270.484 104.203 270.313 104.197C268.059 104.126 267.866 100.146 268.082 97.2037C272.176 98.1413 276.538 94.8283 278.569 89.237C279.013 88.0185 276.371 87.6074 276.04 87.6968C274.747 88.0517 273.291 91.0683 271.968 91.9138C270.42 92.8997 268.545 93.0224 267.152 91.587C265.825 90.2229 265.163 87.7452 263.974 86.1055C261.534 82.7389 257.68 83.809 254.756 86.0748C252.392 87.9061 250.237 90.3812 248.419 93.3544C249.92 93.1324 257.044 92.0826 255.491 97.0046C255.186 97.965 254.622 98.6547 254.075 99.3109C256.599 98.7005 259.218 99.071 261.628 100.376C261.911 100.529 262.203 100.708 262.404 101.053C262.92 101.942 262.519 103.48 261.834 104.029C260.752 104.895 258.773 104.473 257.564 104.555C256.63 104.616 255.649 104.662 254.814 104.008C253.978 103.354 253.377 101.743 253.767 100.425C253.711 100.611 248.613 98.7005 248.121 98.5089L245.096 95.9316L240.286 96.0491C219.943 117.648 203.755 147.939 193.952 183.485C193.387 185.538 193.41 189.978 193.894 192.057C194.866 196.228 197.917 195.02 199.424 197.909C200.221 199.436 199.981 201.648 199.829 203.6C199.567 206.961 199.722 210.634 200.248 214.134C200.633 216.711 201.22 219.191 201.989 221.38C203.308 225.142 205.544 228.338 208.258 229.117C208.586 229.209 208.954 229.255 209.224 228.956C209.444 228.716 209.552 228.299 209.619 227.893C209.972 225.761 209.489 223.49 208.767 221.594C208.044 219.699 207.084 218.041 206.349 216.157C205.264 213.375 204.735 210.238 204.392 207.061C203.969 203.137 203.173 200.422 206.15 200.42C206.397 200.42 206.664 200.432 206.857 200.67C207.153 201.038 207.123 201.737 207.089 202.325C206.822 206.729 207.763 211.132 209.146 215.002C210.664 219.245 212.718 222.948 214.444 226.982C214.859 227.952 215.284 229.055 215.162 230.205C214.979 231.919 213.638 233.078 213.726 234.81C213.759 235.492 214.019 236.093 214.269 236.655C215.663 239.776 216.559 243.321 218.694 245.449C221.293 248.039 224.958 248.453 227.904 249.515C228.47 249.72 229.086 249.919 229.617 249.549C230.147 249.178 230.455 247.973 230.035 247.349C230.951 248.713 233.356 248.054 234.536 248.542C234.419 249.758 234.302 250.974 234.185 252.19C234.152 252.527 234.124 252.9 234.247 253.181C234.371 253.464 234.605 253.566 234.819 253.646C239.38 255.342 242.867 255.927 246.029 261.704C247.579 264.534 249.28 269.178 251.488 270.713C252.326 271.298 253.267 271.382 254.186 271.462C256.238 271.635 258.291 271.809 260.343 271.983C262.444 272.159 262.47 282.792 261.602 285.063C260.286 288.499 256.741 289.262 255.719 292.703C255.584 293.16 255.512 293.658 255.479 294.162C255.14 299.495 254.799 304.828 254.458 310.164C254.431 310.586 254.405 311.017 254.466 311.431C254.55 311.998 254.792 312.473 255.026 312.928C258.258 319.204 264.279 327.183 264.715 335.623C286.541 335.628 308.366 335.625 330.192 335.625H333.457L333.823 330.182C335.129 327.59 343.499 314.473 339.649 311.053Z" fill="#538DAB"/>
<path d="M120.869 371.456C120.973 372.08 120.388 393.237 130.645 405.64C134.488 410.289 139.926 412.598 145.489 412.598H488.426C493.992 412.598 499.43 410.289 503.273 405.64C513.53 393.237 512.945 372.08 513.049 371.456H120.869H120.869Z" fill="#4D4D4D"/>
<path d="M120.829 277.34C117.376 277.34 114.581 281.677 114.581 287.026C114.581 292.377 117.376 296.714 120.829 296.714C124.278 296.714 127.075 292.377 127.075 287.026C127.075 281.677 124.278 277.34 120.829 277.34Z" fill="white"/>
<path d="M120.644 296.443C117.29 296.443 114.561 292.21 114.561 287.01C114.561 281.809 117.29 277.58 120.644 277.58C123.998 277.58 126.726 281.809 126.726 287.01C126.726 292.21 123.998 296.443 120.644 296.443ZM120.644 277.069C117.108 277.069 114.231 281.529 114.231 287.01C114.231 292.494 117.108 296.954 120.644 296.954C124.179 296.954 127.055 292.494 127.055 287.01C127.055 281.529 124.179 277.069 120.644 277.069Z" fill="black"/>
<path d="M440.606 209.167L365.75 328.391L420.111 411.512L495.714 294.616L522.889 336.754V177.671H420.296L440.606 209.167Z" fill="#D0E7E6"/>
<path d="M382.818 324.802L420.423 390.401L382.818 324.802ZM447.797 209.119L372.736 328.672L420.224 399.798L495.603 283.244L517.533 317.249V185.796H432.756L447.797 209.119Z" fill="#89C4C0"/>
<path d="M510.25 293.842L493.934 268.539L418.768 384.841L384.371 331.505L457.762 213.339L458.042 212.887L446.984 195.74H510.25V293.842ZM456.887 212.902L383.497 331.071L383.217 331.523L418.766 386.647L493.933 270.345L511.074 296.925V194.463H444.996L456.887 212.902Z" fill="#D0E7E6"/>
<path d="M420.121 411.506C420.121 411.506 420.62 373.6 447.828 301.174L370.64 331.368L420.121 411.506Z" fill="#5E9993"/>
<path d="M308.46 345.524L363.567 430.973L447.617 301.172L392.511 215.724L308.46 345.524Z" fill="#D0E7E6"/>
<path d="M328.126 333.949C329.58 336.881 330.455 340.529 330.455 344.447C330.455 348.457 329.539 352.181 328.022 355.149L357.777 401.282C359.766 398.513 362.381 396.812 365.214 396.812C368.326 396.812 371.174 398.866 373.22 402.13L443.248 294.12L398.716 225.068L328.126 333.949Z" fill="#89C4C0"/>
<path d="M374.493 391.046C372.551 388.175 370.052 386.601 367.411 386.601C365.028 386.601 362.713 387.919 360.852 390.325L335.057 350.328C336.36 347.585 337.075 344.267 337.075 340.918C337.075 337.603 336.41 334.425 335.147 331.695L401.502 229.357L400.92 228.453L334.311 331.179L334.054 331.575L334.277 332.022C335.568 334.624 336.252 337.702 336.252 340.918C336.252 344.164 335.519 347.388 334.189 349.988L333.96 350.435L360.816 392.075L361.106 391.672C362.863 389.225 365.104 387.878 367.411 387.878C369.963 387.878 372.375 389.483 374.198 392.392L374.488 392.854L440.894 290.44L440.313 289.534L374.493 391.046Z" fill="#D0E7E6"/>
<path d="M366.5 291.097C357.582 304.923 357.582 327.345 366.5 341.173C375.418 355.005 389.878 355.005 398.796 341.173C407.715 327.345 407.715 304.923 398.796 291.097C389.878 277.268 375.418 277.268 366.5 291.097Z" fill="#D0E7E6"/>
<path d="M368.757 294.461C361.021 306.456 361.021 325.902 368.757 337.896C376.492 349.894 389.034 349.894 396.77 337.896C404.506 325.902 404.506 306.456 396.77 294.461C389.034 282.466 376.492 282.466 368.757 294.461Z" fill="#89C4C0"/>
<path d="M86.5618 111.662C94.2677 88.0911 76.9336 59.2483 61.1939 69.394C60.8184 69.6365 60.4394 69.8945 60.0557 70.1677C60.0557 70.1677 52.2857 75.6238 54.5653 91.662C54.5653 91.662 55.1896 96.4871 57.1282 109.167C56.542 109.192 55.048 109.205 54.4648 110.14C54.1798 110.594 54.1766 112.645 54.7482 113.923C55.8025 116.273 57.565 116.832 57.6027 116.95C59.9483 124.349 63.0817 130.472 71.7874 127.59C74.456 126.707 77.538 124.87 80.2264 122.104L85.6311 135.938L92.1015 124.055L86.234 112.288L86.5618 111.662Z" fill="#FD9772"/>
<path d="M72.4269 101.536C70.0564 103.005 68.9017 107.173 69.8472 110.852C70.7928 114.53 73.4827 116.32 75.8548 114.854C78.2253 113.385 79.3815 109.214 78.4344 105.539C77.4889 101.861 74.7989 100.067 72.4269 101.536Z" fill="#DD7A66"/>
<path d="M64.6259 117.827C64.5947 117.802 64.5551 117.817 64.5354 117.868L64.5337 117.873C64.4185 118.195 64.2834 118.512 64.1368 118.806C63.9918 119.102 63.8369 119.385 63.6623 119.638C63.3213 120.154 62.9228 120.563 62.4845 120.816C62.3742 120.867 62.2638 120.928 62.1501 120.967C62.0331 121 61.9194 121.043 61.8026 121.053C61.5704 121.104 61.3348 121.089 61.1041 121.043C60.8735 120.992 60.6462 120.887 60.4351 120.732C60.2228 120.581 60.0186 120.371 59.8523 120.129L59.8473 120.118C59.8226 120.085 59.7864 120.08 59.7581 120.116C59.7319 120.152 59.727 120.215 59.7517 120.259C60.0828 120.877 60.5573 121.263 61.063 121.416C61.315 121.495 61.5752 121.51 61.8289 121.472C62.0859 121.439 62.3329 121.345 62.58 121.219C63.0611 120.938 63.4943 120.479 63.8354 119.901C64.1813 119.332 64.4596 118.678 64.6556 117.957C64.6671 117.909 64.6556 117.855 64.6259 117.827Z" fill="#18004C"/>
<path d="M91.768 27.573C88.7847 26.3833 85.3469 27.4638 82.6158 29.7374C79.8845 32.011 77.7826 35.3588 76.0662 38.8925C72.676 45.8747 70.5956 54.3141 72.1211 61.9642C75.2656 77.7367 92.4004 78.0432 97.9765 63.1211C100.176 57.2361 100.258 50.556 99.6699 44.2698C99.0192 37.3448 96.942 29.6345 91.768 27.573Z" fill="#18004C"/>
<path d="M92.9935 58.3774C90.3693 55.0491 86.1985 54.4846 83.3537 57.0746C82.9434 53.9764 82.3588 50.8292 81.0672 48.201C79.0576 44.1073 71.8178 40.6604 71.6152 48.1706C71.5527 50.5149 72.7091 54.1628 73.0287 56.5487C73.4552 59.7337 74.0994 62.8806 75.1272 65.8281C76.9903 71.1513 80.2485 75.8232 84.2926 77.412C88.3382 79.0005 93.0905 76.8704 94.9256 71.7568C96.4527 67.4935 95.6159 61.7081 92.9935 58.3774Z" fill="#89C4C0"/>
<path d="M88.1947 64.3379C84.8622 59.9013 81.0109 55.8525 76.6786 55.0429C75.0594 51.668 72.6346 49.0227 70.017 47.4615C65.815 44.9578 61.7429 47.5486 57.9114 50.3442C54.2824 52.9919 50.6536 55.6406 47.0248 58.2894C44.5605 60.0877 41.9108 62.1616 40.7508 65.9828C39.146 71.2702 41.1191 77.6047 43.7926 81.725C49.2769 90.1719 57.9508 93.2267 65.2499 89.2752C69.3747 87.0453 73.1782 82.4197 75.7215 76.6342C77.4446 79.7759 78.7953 83.4515 79.6816 87.5767C80.5134 91.449 80.9467 95.6662 82.5462 98.9074C84.1457 102.149 87.5193 103.809 89.3972 100.951C92.7032 95.914 95.4196 90.1158 95.3964 82.9305C95.3735 75.4643 91.8466 69.1963 88.1947 64.3379Z" fill="#18004C"/>
<path d="M81.6451 81.0452C78.1924 82.2253 78.2501 88.6698 78.2501 88.6698L82.7603 101.262C82.7603 101.262 85.76 100.864 87.2688 95.9546C89.4681 88.7847 86.6018 79.3517 81.6451 81.0452Z" fill="#FD9772"/>
<path d="M83.5398 96.6331C83.0408 97.5373 83.0078 98.9753 83.4526 99.9461C83.8956 100.917 84.772 101.343 85.4985 100.963C86.2265 100.579 86.7521 99.4326 86.7587 98.2424C86.7734 95.3202 84.6665 94.5847 83.5398 96.6331Z" fill="#89C4C0"/>
<path d="M82.036 106.499C81.3194 108.772 81.9733 111.809 83.4049 113.004C86.1328 115.278 89.2262 110.491 87.8178 106.251C86.6467 102.721 83.143 102.989 82.036 106.499Z" fill="#89C4C0"/>
<path d="M61.6406 98.6335C60.8877 98.9606 60.5713 100.848 60.9338 102.853C61.2947 104.858 62.1957 106.222 62.9468 105.895C63.6997 105.571 64.0159 103.681 63.6536 101.676C63.2927 99.6706 62.3917 98.309 61.6406 98.6335Z" fill="#18004C"/>
<path d="M58.5821 92.2321C58.1554 92.3777 58.3366 93.3893 58.7633 93.2461C60.8818 92.5334 63.0083 93.3407 64.6703 95.5066C65.0032 95.9385 65.4842 95.2001 65.1482 94.761C63.2933 92.3421 60.954 91.4352 58.5821 92.2321Z" fill="#18004C"/>
<path d="M57.1153 108.839C56.9408 108.798 56.7661 108.768 56.5916 108.742C56.6278 108.99 56.6623 109.238 56.6987 109.485C56.8353 109.268 56.9753 109.054 57.1153 108.839Z" fill="#18004C"/>
<path d="M55.612 96.6601C55.5198 95.9987 54.8658 96.2821 54.9598 96.9412C55.5165 100.847 56.0716 104.755 56.6284 108.66C56.803 108.686 56.9777 108.716 57.1522 108.757C57.0122 108.972 56.8722 109.186 56.7356 109.404C56.6992 109.156 56.6646 108.908 56.6284 108.66C55.6171 108.517 54.6106 108.691 53.978 110.078C53.2845 111.598 54.7636 114.41 55.3733 115.355C55.683 115.835 56.1623 115.092 55.851 114.614C55.4737 114.101 55.1689 113.495 54.935 112.798C53.9516 110.259 55.6269 109.467 56.9695 109.769C57.228 109.825 57.4488 109.547 57.3878 109.123C56.7964 104.969 56.2051 100.816 55.612 96.6601Z" fill="#18004C"/>
<path d="M166.182 347.623H69.1677V373.533H166.182V347.623Z" fill="#FCBD4C"/>
<path d="M79.6393 347.623H74.7568V373.533H79.6393V347.623Z" fill="#E59A20"/>
<path d="M99.9019 347.623H95.0178V373.533H99.9019V347.623Z" fill="#E59A20"/>
<path d="M120.513 347.623H115.628V373.533H120.513V347.623Z" fill="#E59A20"/>
<path d="M141.122 347.623H136.239V373.533H141.122V347.623Z" fill="#E59A20"/>
<path d="M161.384 347.623H156.5V373.533H161.384V347.623Z" fill="#E59A20"/>
<path d="M167.577 321.622H70.5647V347.538H167.577V321.622Z" fill="#FCBD4C"/>
<path d="M81.0382 321.622H76.1541V347.538H81.0382V321.622Z" fill="#E59A20"/>
<path d="M101.647 321.622H96.7646V347.538H101.647V321.622Z" fill="#E59A20"/>
<path d="M121.909 321.622H117.026V347.538H121.909V321.622Z" fill="#E59A20"/>
<path d="M142.521 321.622H137.637V347.538H142.521V321.622Z" fill="#E59A20"/>
<path d="M163.133 321.622H158.247V347.538H163.133V321.622Z" fill="#E59A20"/>
<path d="M170.373 295.757H73.3591V321.665H170.373V295.757Z" fill="#FCBD4C"/>
<path d="M83.8329 295.757H78.9487V321.665H83.8329V295.757Z" fill="#E59A20"/>
<path d="M104.442 295.757H99.5593V321.665H104.442V295.757Z" fill="#E59A20"/>
<path d="M124.703 295.757H119.821V321.665H124.703V295.757Z" fill="#E59A20"/>
<path d="M145.316 295.757H140.431V321.665H145.316V295.757Z" fill="#E59A20"/>
<path d="M165.924 295.757H161.042V321.665H165.924V295.757Z" fill="#E59A20"/>
<path d="M162.337 398.811H65.325V424.724H162.337V398.811Z" fill="#FCBD4C"/>
<path d="M75.7982 398.811H70.9141V424.724H75.7982V398.811Z" fill="#E59A20"/>
<path d="M96.4071 398.811H91.5247V424.724H96.4071V398.811Z" fill="#E59A20"/>
<path d="M116.668 398.811H111.786V424.724H116.668V398.811Z" fill="#E59A20"/>
<path d="M137.281 398.811H132.396V424.724H137.281V398.811Z" fill="#E59A20"/>
<path d="M157.891 398.811H153.007V424.724H157.891V398.811Z" fill="#E59A20"/>
<path d="M168.276 372.946H71.2637V398.857H168.276V372.946Z" fill="#FCBD4C"/>
<path d="M81.3875 372.946H76.5034V398.857H81.3875V372.946Z" fill="#E59A20"/>
<path d="M101.998 372.946H97.1143V398.857H101.998V372.946Z" fill="#E59A20"/>
<path d="M122.607 372.946H117.725V398.857H122.607V372.946Z" fill="#E59A20"/>
<path d="M143.219 372.946H138.335V398.857H143.219V372.946Z" fill="#E59A20"/>
<path d="M163.479 372.946H158.596V398.857H163.479V372.946Z" fill="#E59A20"/>
<path d="M161.986 269.892H64.9756V295.807H161.986V269.892Z" fill="#FCBD4C"/>
<path d="M75.4471 269.892H70.5647V295.807H75.4471V269.892Z" fill="#E59A20"/>
<path d="M95.7088 269.892H90.8264V295.807H95.7088V269.892Z" fill="#E59A20"/>
<path d="M116.319 269.892H111.437V295.807H116.319V269.892Z" fill="#E59A20"/>
<path d="M136.93 269.892H132.047V295.807H136.93V269.892Z" fill="#E59A20"/>
<path d="M157.542 269.892H152.657V295.807H157.542V269.892Z" fill="#E59A20"/>
<path d="M150.521 269.079H64.659C64.448 269.079 64.2769 269.342 64.2769 269.669C64.2769 269.996 64.448 270.262 64.659 270.262H150.521C150.732 270.262 150.903 269.996 150.903 269.669C150.903 269.342 150.732 269.079 150.521 269.079Z" fill="#F08D32"/>
<path d="M162.215 295.351H73.3974C73.1833 295.351 73.0103 295.621 73.0103 295.953C73.0103 296.285 73.1833 296.554 73.3974 296.554H162.215C162.43 296.554 162.603 296.285 162.603 295.953C162.603 295.621 162.43 295.351 162.215 295.351Z" fill="#F08D32"/>
<path d="M168.26 320.81H73.7595C73.537 320.81 73.3591 321.088 73.3591 321.431C73.3591 321.773 73.537 322.051 73.7595 322.051H168.26C168.48 322.051 168.66 321.773 168.66 321.431C168.66 321.088 168.48 320.81 168.26 320.81Z" fill="#F08D32"/>
<path d="M154.179 347.216H68.8494C68.6403 347.216 68.469 347.479 68.469 347.806C68.469 348.131 68.6403 348.396 68.8494 348.396H154.179C154.39 348.396 154.56 348.131 154.56 347.806C154.56 347.479 154.39 347.216 154.179 347.216Z" fill="#F08D32"/>
<path d="M166.322 372.54H70.9666C70.7458 372.54 70.5647 372.818 70.5647 373.163C70.5647 373.505 70.7458 373.786 70.9666 373.786H166.322C166.544 373.786 166.725 373.505 166.725 373.163C166.725 372.818 166.544 372.54 166.322 372.54Z" fill="#F08D32"/>
<path d="M162.418 397.999H71.6557C71.4382 397.999 71.2637 398.27 71.2637 398.607C71.2637 398.941 71.4382 399.215 71.6557 399.215H162.418C162.636 399.215 162.812 398.941 162.812 398.607C162.812 398.27 162.636 397.999 162.418 397.999Z" fill="#F08D32"/>
<path d="M65.6746 354.034L70.0299 370.519L76.7326 362.092L73.5632 348.029L65.6746 354.034Z" fill="#FD9772"/>
<path d="M76.7627 356.027C75.4678 355.777 75.2407 361.233 73.4253 361.682C71.6677 362.119 70.261 359.079 68.4836 358.947C67.0257 358.839 65.7952 360.773 65.2828 362.893C64.7723 365.01 64.7805 367.33 64.5696 369.567C64.2287 373.197 63.2881 376.686 61.8599 379.613C61.3591 380.64 60.7957 381.611 60.4316 382.77C60.0692 383.927 59.9292 385.348 60.3164 386.489C60.7776 387.856 61.8812 388.461 62.8713 388.308C63.8613 388.157 64.764 387.396 65.6222 386.612C71.5178 381.222 76.7181 374.014 80.8315 365.529C80.105 363.761 79.3802 361.994 78.6537 360.224C78.3227 359.419 77.4002 356.15 76.7627 356.027Z" fill="#161099"/>
<path d="M72.9208 361.774C72.2602 362.643 71.6837 363.636 71.1895 364.742C70.3082 366.714 69.6922 368.967 69.384 371.317C69.2293 372.492 69.1535 373.688 69.1699 374.888C69.1781 375.511 69.203 376.132 69.2524 376.75C69.3017 377.355 69.3512 377.943 69.5703 378.464C69.7581 378.911 70.1914 378.617 70.2292 378.162C70.2868 377.447 70.1238 376.699 70.071 375.991C70.02 375.284 70.0019 374.574 70.0118 373.864C70.0316 372.446 70.1518 371.028 70.3905 369.657C70.8815 366.847 71.832 364.283 73.1366 362.191C73.2865 361.951 73.0955 361.544 72.9208 361.774Z" fill="black"/>
<path d="M79.5208 364.345C78.3316 366.36 77.1406 368.368 75.8986 370.307C73.7736 373.625 71.5646 376.853 69.2025 379.765C68.0082 381.239 66.7809 382.641 65.4944 383.916C64.2755 385.124 63.002 386.335 61.5164 386.414C60.9825 386.442 61.0187 387.852 61.5476 387.862C63.2822 387.898 64.8239 386.335 66.2291 384.927C71.5679 379.571 75.5906 371.934 79.7168 364.57C79.8206 364.383 79.6246 364.169 79.5208 364.345Z" fill="black"/>
<path d="M68.7495 368.813C68.1268 368.313 67.486 367.953 66.7909 367.776C66.4532 367.692 66.1122 367.656 65.7696 367.666C65.5983 367.671 65.4303 367.689 65.2606 367.707C64.9987 367.733 64.7764 367.712 64.6511 368.144C64.605 368.297 64.6231 368.545 64.7038 368.668C64.8109 368.834 64.9295 368.946 65.0844 368.913C65.1701 368.892 65.2507 368.836 65.3347 368.811C65.4913 368.76 65.6576 368.737 65.8174 368.716C66.1221 368.678 66.4285 368.68 66.7332 368.716C67.3707 368.785 68.0182 369 68.6045 369.398C68.8483 369.562 68.9752 368.995 68.7495 368.813Z" fill="black"/>
<path d="M67.9252 371.334C67.3257 370.806 66.6766 370.446 65.9914 370.305C65.6455 370.234 65.2962 370.223 64.947 370.254C64.6192 370.282 64.2832 370.315 63.9653 370.463C63.7264 370.573 63.5403 370.864 63.5847 371.286C63.6209 371.636 63.8763 371.988 64.1152 371.879C64.4314 371.733 64.6885 371.592 65.0293 371.516C65.316 371.449 65.6043 371.437 65.8926 371.462C66.5021 371.516 67.0901 371.735 67.6469 372.126C67.9467 372.338 68.2136 371.587 67.9252 371.334Z" fill="black"/>
<path d="M67.4073 373.68C67.0629 373.468 66.7237 373.274 66.3579 373.169C66.0055 373.07 65.6497 373.065 65.2956 373.105C64.9381 373.149 64.5888 373.259 64.2461 373.419C63.8706 373.596 63.2874 373.833 63.2314 374.531C63.2085 374.835 63.3369 375.09 63.5049 375.213C63.7405 375.389 63.9415 375.18 64.1506 375.029C64.2874 374.932 64.4257 374.84 64.5657 374.756C64.8375 374.597 65.1143 374.492 65.4059 374.421C65.9791 374.288 66.648 374.234 67.2145 374.462C67.5425 374.592 67.7368 373.885 67.4073 373.68Z" fill="black"/>
<path d="M76.1541 360.774L82.4992 375.624L88.0142 365.33L83.1352 352.498L76.1541 360.774Z" fill="#FD9772"/>
<path d="M87.1787 359.405C85.8773 359.551 86.3402 364.971 84.6171 365.962C82.9468 366.923 81.1858 364.366 79.425 364.775C77.9836 365.109 77.0183 367.38 76.7828 369.612C76.5489 371.842 76.8487 374.116 76.9228 376.374C77.0447 380.036 76.5605 383.745 75.5308 387.048C75.1685 388.208 74.7369 389.329 74.526 390.575C74.3152 391.822 74.358 393.255 74.8801 394.258C75.5045 395.459 76.6642 395.72 77.6162 395.27C78.5684 394.821 79.3574 393.801 80.1004 392.774C85.2053 385.704 89.3974 377.061 92.3643 367.495C91.4286 365.98 90.4947 364.465 89.5606 362.951C89.1339 362.261 87.8179 359.334 87.1787 359.405Z" fill="#161099"/>
<path d="M84.0119 366.142C83.4732 367.194 83.0317 368.344 82.6873 369.578C82.0713 371.779 81.7501 374.175 81.7435 376.574C81.7402 377.771 81.8159 378.967 81.9823 380.139C82.0696 380.747 82.1717 381.35 82.2987 381.94C82.4222 382.52 82.5458 383.082 82.8258 383.526C83.0645 383.907 83.4534 383.488 83.4336 383.031C83.4007 382.313 83.1454 381.629 83.0054 380.949C82.8669 380.27 82.7582 379.58 82.6791 378.88C82.521 377.483 82.4601 376.055 82.5227 374.64C82.6511 371.736 83.259 368.931 84.2754 366.484C84.3923 366.206 84.1534 365.866 84.0119 366.142Z" fill="black"/>
<path d="M90.9858 366.678C90.0732 369.013 89.1574 371.342 88.1838 373.618C86.5169 377.516 84.7559 381.352 82.8056 384.921C81.8205 386.729 80.7926 388.476 79.6905 390.116C78.6478 391.669 77.5507 393.243 76.1045 393.769C75.5839 393.958 75.7981 395.329 76.3169 395.181C78.0236 394.688 79.3381 392.691 80.5389 390.885C85.1001 384.017 88.0867 375.309 91.2066 366.836C91.2839 366.625 91.065 366.474 90.9858 366.678Z" fill="black"/>
<path d="M80.615 374.324C79.9396 374.02 79.2658 373.861 78.5624 373.9C78.2214 373.917 77.8822 373.986 77.5477 374.099C77.3797 374.155 77.2182 374.227 77.0536 374.293C76.7999 374.398 76.5791 374.446 76.5098 374.906C76.4852 375.072 76.533 375.309 76.6285 375.407C76.7538 375.534 76.8839 375.611 77.0321 375.529C77.1128 375.486 77.1854 375.404 77.2643 375.353C77.4125 375.256 77.5723 375.184 77.7256 375.115C78.0188 374.985 78.3203 374.896 78.6234 374.837C79.2575 374.712 79.9198 374.727 80.5457 374.939C80.8059 375.029 80.8571 374.431 80.615 374.324Z" fill="black"/>
<path d="M80.4477 377.042C79.7937 376.705 79.1118 376.55 78.4215 376.618C78.0724 376.654 77.7297 376.749 77.392 376.884C77.0724 377.012 76.7478 377.147 76.4548 377.387C76.234 377.569 76.0874 377.908 76.1847 378.309C76.2653 378.641 76.5601 378.91 76.7809 378.728C77.0708 378.491 77.3063 378.276 77.6309 378.097C77.9042 377.947 78.1844 377.847 78.4709 377.783C79.0755 377.653 79.68 377.689 80.2747 377.903C80.5959 378.021 80.7623 377.203 80.4477 377.042Z" fill="black"/>
<path d="M80.4928 379.496C80.1288 379.391 79.7713 379.301 79.3991 379.312C79.0416 379.319 78.6924 379.422 78.3497 379.569C78.0038 379.72 77.676 379.935 77.3598 380.196C77.0139 380.482 76.4718 380.89 76.5049 381.593C76.5196 381.897 76.6777 382.106 76.859 382.177C77.1126 382.277 77.2823 382.014 77.4684 381.802C77.5903 381.664 77.7139 381.531 77.8408 381.409C78.0878 381.171 78.3465 380.982 78.6248 380.826C79.1701 380.522 79.8174 380.267 80.4022 380.318C80.7399 380.349 80.842 379.593 80.4928 379.496Z" fill="black"/>
<path d="M112.436 251.185C112.445 251.017 112.412 250.851 112.347 250.713C107.574 240.146 102.503 229.229 96.8565 217.328C96.7495 217.096 96.6457 216.937 96.4826 216.871C96.4497 216.851 96.4085 216.835 96.3573 216.835C96.3194 216.815 96.2717 216.807 96.2173 216.807C96.1367 216.807 96.0626 216.835 95.9967 216.866C95.3426 217.17 94.6936 217.443 94.0347 217.691C88.0601 219.901 81.6703 220.233 76.5359 220.501L74.7519 220.588C69.4163 220.84 63.8997 221.109 58.5329 222.47C55.4261 223.267 52.6561 224.376 50.0683 225.862C47.2934 227.461 44.6961 229.62 42.3419 232.271C41.2441 233.497 40.1561 234.922 39.0109 236.626C38.0535 238.059 37.1614 239.558 36.3579 241.093C34.8444 243.985 33.607 247.165 32.6772 250.547C31.8224 253.663 31.2383 257.029 30.9474 260.549C30.6776 263.832 30.6727 267.331 30.9301 270.953C31.1635 274.312 31.6304 277.788 32.3593 281.579C33.0175 285.004 33.873 288.488 34.9705 292.248C36.8903 298.845 39.3431 305.548 42.6875 313.326C45.8594 320.715 49.3022 327.727 51.9507 333.007C53.2831 335.673 54.6322 338.317 55.978 340.968L58.1128 345.17C59.7948 348.501 61.5737 352.051 63.2606 355.717C63.3857 355.982 63.5785 356.143 63.7696 356.143C63.8536 356.143 63.9343 356.112 64.0084 356.064C64.0446 356.077 64.0842 356.084 64.1237 356.084C65.3953 355.622 66.4464 355.106 67.4216 354.511C68.4643 353.875 69.5201 353.027 70.5562 351.985C71.5002 351.034 72.4061 349.834 73.2479 348.398C74.0189 347.093 74.7041 345.487 75.2839 343.612C75.4191 343.19 75.3037 342.705 75.1258 342.445C74.0469 339.178 72.996 336.222 71.912 333.405C70.912 330.797 69.8463 328.197 68.8184 325.683L68.6175 325.198C66.2866 319.528 63.8997 313.732 61.8406 307.727C59.714 301.453 58.3237 296.072 57.4768 290.828H57.482C56.9778 287.576 56.7439 284.945 56.7439 282.557L56.7159 282.766C56.7159 282.695 56.7159 282.621 56.721 282.549L56.7292 282.498H56.721C56.7671 281.093 56.874 279.847 57.07 278.682C57.21 277.929 57.398 277.195 57.617 276.529L57.6087 276.544V276.537L57.5987 276.529L57.6399 276.457L57.6218 276.516V276.521C57.6399 276.465 57.6532 276.414 57.673 276.363C57.9265 275.696 58.2298 275.052 58.579 274.457C58.9397 273.908 59.3367 273.407 59.7948 272.945C60.5226 272.255 61.3447 271.719 62.2969 271.298L62.1404 271.336C63.6015 270.754 65.1993 270.473 67.1696 270.473H67.6323L67.4742 270.437C69.2451 270.524 71.1838 270.784 73.5741 271.308C74.2248 271.446 74.8738 271.597 75.5178 271.75C75.9477 271.855 76.3778 271.954 76.806 272.054C77.3792 271.798 77.9624 271.594 78.5489 271.423C79.9703 271.009 81.4036 270.784 82.8431 270.634C84.1593 270.503 85.4772 270.429 86.795 270.291C88.21 270.138 89.6251 270.077 91.04 270.069C92.3397 270.059 93.6378 270.077 94.9359 270.097C96.7264 270.118 98.5103 270.148 100.299 270.089C101.433 270.054 102.569 269.987 103.703 269.867C107.002 267.867 109.447 264.978 110.984 261.252C112.038 258.703 112.678 255.604 112.833 252.299C112.856 251.793 112.697 251.344 112.436 251.185Z" fill="#4D4D4D"/>
<path d="M107.321 218.199C107.204 217.939 107.097 217.765 106.929 217.699C106.893 217.67 106.85 217.648 106.802 217.648C106.766 217.635 106.723 217.62 106.662 217.62C106.583 217.62 106.502 217.648 106.43 217.691C85.5854 227.931 56.521 213.223 44.2298 250.049C32.6347 284.789 53.7882 322.457 66.4046 348.539L68.5395 352.971C70.1274 356.273 71.9642 360.135 73.6871 364.077C73.8173 364.373 74.0101 364.547 74.216 364.547C74.9572 364.547 75.8945 363.921 76.5946 363.563C78.166 362.759 79.6453 361.607 81.0076 360.153C91.5419 348.925 78.4872 331.903 74.4515 320.733C71.6082 312.858 65.133 293.098 66.7637 283.65C68.747 272.163 82.1674 272.306 88.2375 272.248C97.4605 272.158 123.448 274.891 126.105 246.746C127.594 230.955 111.96 228.491 107.321 218.199Z" fill="#0E002B"/>
<path d="M84.0732 219.38H32.4878V225.643H84.0732V219.38Z" fill="#161099"/>
<path d="M1.30268 133.111L1.31643 133.089C3.09436 139.114 4.87899 145.124 6.66547 151.129L1.30268 133.111ZM86.4395 221.063C86.3275 220.874 86.1646 220.764 85.9981 220.764H32.0808L27.2594 204.598L20.1985 180.968L12.6273 155.62L5.07701 130.345C5.02336 130.164 4.91974 130.023 4.78544 129.952C4.70697 129.85 4.61593 129.794 4.51214 129.778C4.29686 129.75 4.0856 129.732 3.87082 129.732C3.7164 129.732 3.56734 129.742 3.41175 129.763C3.04506 129.806 2.64032 129.944 2.17153 130.184C1.48627 130.527 0.82601 131.193 0.209838 132.166C0.145286 132.266 0.0998471 132.394 0.0802302 132.544C0.0554156 132.606 0.0358016 132.677 0.0192026 132.762C-0.0193605 132.999 -0.000415082 133.208 0.0812382 133.489L9.03074 163.441L17.9209 193.198C21.4528 205.035 24.9888 216.864 28.5251 228.693C28.5915 228.917 28.7342 229.081 28.9162 229.137C29.0121 229.382 29.1932 229.543 29.381 229.551C37.5931 230.031 45.5836 230.363 53.1287 230.534C55.1005 230.585 57.0737 230.613 59.0439 230.644L60.4473 230.657C61.8361 230.667 63.2198 230.677 64.6085 230.738C65.867 230.79 67.1238 230.866 68.3823 230.943C70.5287 231.076 72.7491 231.211 74.9335 231.211L75.2531 231.208C76.953 231.193 78.5261 231.083 80.0614 230.876C80.8142 230.766 81.5605 230.621 82.3099 230.447C82.5653 230.386 82.8222 230.312 83.0758 230.238C83.4828 230.118 83.888 230 84.2981 229.934C84.5699 229.906 84.8303 229.875 85.097 229.839C85.3656 229.806 85.6225 229.709 85.9092 229.533C86.1497 229.397 86.405 229.083 86.573 228.711C86.7526 228.302 86.8745 227.839 86.9536 227.255C86.9732 227.101 86.9816 226.976 86.9766 226.851C87.0227 226.565 87.0606 226.268 87.0936 225.962C87.1463 225.492 87.1462 225.02 87.1446 224.549C87.1414 223.477 86.9667 222.442 86.6439 221.446C86.5911 221.29 86.5252 221.165 86.4395 221.063Z" fill="#18004C"/>
<path d="M103.766 148.453C102.738 144.997 101.519 141.469 100.034 137.681C98.6821 134.197 97.1748 130.808 95.5506 127.592C94.8868 126.251 94.1571 124.874 93.3317 123.383L93.3153 123.367L93.3037 123.383L92.4043 125.431C90.0882 130.859 88.1792 135.819 86.5582 140.616C85.5994 143.454 84.7626 146.128 84.0016 148.8C83.2077 151.574 82.473 154.392 81.8206 157.173L81.7679 157.413C81.6888 157.761 81.5949 158.159 81.5109 158.55C82.3214 159.868 82.9572 160.961 83.5174 162.019L83.5898 162.157C84.5815 164.07 85.2864 165.763 85.8022 167.495C86.0474 168.366 86.2485 169.286 86.3984 170.233C86.4857 171.023 86.527 171.789 86.5186 172.522C86.4824 173.24 86.4264 173.812 86.3407 174.305C86.2369 174.905 86.0788 175.528 85.8499 176.218C85.5847 176.976 85.2222 177.766 84.738 178.629C84.0774 179.707 83.4003 180.578 82.6755 181.288C82.3494 181.592 81.9985 181.865 81.6444 182.113C81.2326 182.381 80.8703 182.576 80.5358 182.721C79.7105 183.056 78.8556 183.214 77.9331 183.214C77.7798 183.214 77.6201 183.206 77.4588 183.199C75.9119 183.061 74.3601 182.563 72.4263 181.584C72.1644 181.418 71.9271 181.288 71.6932 181.158L71.5402 181.076C69.8516 180.129 68.1763 179.02 66.3182 177.773L66.1782 177.679C64.47 176.534 62.7338 175.378 60.9893 174.412C59.039 173.327 57.423 172.688 55.9125 172.399C55.3721 172.305 54.8368 172.249 54.3096 172.249C54.0263 172.249 53.7446 172.261 53.4713 172.289C52.6613 172.384 51.8434 172.637 51.0376 173.066C50.7358 173.26 50.623 173.863 50.7115 174.305C50.6671 174.412 50.647 174.581 50.6547 174.754L50.6902 175.444L50.6911 175.441L50.7233 175.508L50.7959 176.854C50.8405 177.607 50.8844 178.381 50.9248 179.173C51.0177 180.918 51.1386 183.554 51.1057 186.185V186.392L51.0861 187.068L51.0601 187.12C51.0579 187.15 51.0579 187.181 51.0579 187.212L51.0499 187.408L51.0376 187.661C51.0257 187.929 51.0376 188.154 51.1265 188.386C51.1869 188.552 51.2756 188.683 51.3802 188.754C51.4404 189.046 51.6017 189.27 51.7796 189.334C53.8616 189.929 56.0542 190.856 58.2925 192.095C62.261 194.31 66.2096 197.403 70.0246 200.397L70.4316 200.713C71.8103 201.794 73.1841 202.867 74.5612 203.901C75.6731 204.741 77.1392 205.822 78.6432 206.711C80.0004 207.523 81.3132 208.162 82.5553 208.609C84.1169 209.168 85.6687 209.449 87.1594 209.449C88.1543 209.449 89.1379 209.319 90.0768 209.081C91.2726 208.762 92.4768 208.205 93.658 207.436L93.8424 207.314C94.9131 206.611 95.9855 205.661 97.1221 204.415C98.2423 203.199 99.3427 201.707 100.482 199.86C100.804 199.344 101.115 198.816 101.413 198.282C102.074 197.048 102.678 195.832 103.202 194.665C104.676 191.385 105.8 187.727 106.538 183.802C107.21 180.215 107.541 176.317 107.525 172.218C107.513 168.458 107.177 164.555 106.502 160.294C105.877 156.427 104.978 152.55 103.766 148.453Z" fill="#FF1D38"/>
<path d="M50.8481 176.909L50.7755 175.563L50.7423 175.504C49.3051 175.846 47.8551 176.431 46.2956 177.287C44.7729 178.12 43.282 179.162 41.8644 180.388C41.1354 181.016 40.4579 181.662 39.8536 182.298C39.8219 182.278 39.7867 182.27 39.7419 182.27L39.5157 182.329C36.6611 183.059 32.9218 185.009 31.58 189.425C31.2639 190.464 31.4802 191.578 32.2469 191.915C32.6884 192.109 33.1622 191.908 33.6111 191.872C33.3131 192.61 33.0663 193.399 32.876 194.219C32.5789 195.499 32.4714 197.435 33.4992 197.997C33.7666 198.14 34.0586 198.153 34.3391 198.092C35.6586 197.803 36.6632 195.657 37.5629 194.291C38.6529 192.636 39.8122 191.072 41.4283 191.083C42.1795 191.088 42.9293 191.867 42.2898 193.024C41.8906 193.744 40.3987 194.899 41.4957 195.634C42.8915 196.572 44.3848 196.975 45.8336 196.023C47.4604 194.952 48.5335 192.646 49.5271 190.492L49.7202 190.071C50.2078 188.991 50.6509 188.023 51.1387 187.124L51.1585 186.449V186.24C51.1908 183.611 51.0699 180.98 50.9767 179.228C50.9366 178.439 50.8925 177.662 50.8481 176.909Z" fill="#DD7A66"/>
<path d="M89.7725 122.317C88.8286 122.113 87.9408 122.013 87.061 122.013C84.9937 122.013 71.4039 154.849 73.598 177.346C75.4198 196.034 84.2756 214.128 93.6468 224.154C100.312 231.283 112.399 250.787 121.402 246.723C133.397 241.308 130.557 204.695 128.826 191.349C125.073 162.419 110.156 126.864 89.7725 122.317Z" fill="#FF1D38"/>
<path d="M64.2421 177.86C64.0246 177.23 63.5107 177.04 63.056 176.918C59.6246 175.988 56.4307 175.117 52.9352 175.684C52.1633 175.809 51.3997 175.986 50.6663 176.208C47.6349 177.133 44.7816 179.102 42.4123 182.205C41.4972 183.403 40.4521 186.07 42.0502 187.204C42.5919 187.587 43.2171 187.536 43.8085 187.421C45.2471 187.145 46.6595 186.542 47.9877 185.641C49.0132 188.813 50.6187 191.991 52.8857 192.502C54.7686 192.923 56.5871 191.385 58.1949 189.807C59.8043 188.228 61.4944 186.491 63.3985 186.456C63.6836 186.45 63.9785 186.481 64.2404 186.305C64.5006 186.126 64.7048 185.651 64.5945 185.245C64.3688 184.427 64.4595 178.491 64.2421 177.86Z" fill="#FD9772"/>
<path d="M115.77 172.317C115.172 168.171 114.422 164.041 113.541 160.044C111.653 151.466 109.23 144.018 106.339 137.911C104.835 134.721 103.119 131.834 101.237 129.331C99.3777 126.858 97.2973 124.823 95.0552 123.28C94.4885 122.894 93.9582 122.585 93.4393 122.338C92.9319 122.092 92.3833 121.908 91.7096 121.758C91.265 121.658 90.8119 121.607 90.3655 121.607C89.7707 121.607 89.1646 121.691 88.5156 121.868C86.5175 122.414 84.6725 124.12 83.3201 126.675C82.6465 127.942 82.0978 129.464 81.6909 131.193C81.2808 132.943 81.037 134.846 80.9448 137.009C80.8772 138.626 80.92 140.11 81.0701 141.418C81.1804 142.409 81.373 143.346 81.5296 144.051C82.065 146.453 82.7831 148.69 83.3515 150.371C84.1306 152.687 84.9674 154.92 85.9822 157.556C86.6394 159.265 87.3049 160.961 87.9703 162.659C89.3326 166.131 90.7393 169.717 92.0456 173.346C93.2102 176.585 94.5397 180.468 95.5577 184.705L95.5971 184.881C96.1539 187.293 96.4817 189.323 96.6333 191.295V191.277C96.6958 192.286 96.7025 193.275 96.6482 194.217C96.5872 194.989 96.4769 195.737 96.3188 196.434C96.1721 197.009 96.0007 197.533 95.8081 197.995C95.5807 198.516 95.3072 198.999 94.9761 199.477C94.5512 200.051 94.0553 200.56 93.4639 201.032C92.614 201.638 91.8233 202.018 91.0178 202.225C90.6522 202.304 90.2684 202.345 89.8861 202.345C89.499 202.345 89.1103 202.304 88.728 202.22C87.7579 201.98 86.786 201.492 85.7531 200.728C84.0894 199.426 82.5277 197.686 80.6153 195.037C79.1558 193.004 77.7375 190.795 76.367 188.657C74.9685 186.475 73.5206 184.22 72.0299 182.151C70.4057 179.898 69.0202 178.286 67.6679 177.078C66.915 176.404 66.1523 175.852 65.4077 175.441C64.6517 175.017 63.8364 174.744 62.9829 174.621C62.6701 174.621 62.4642 175.109 62.456 175.546C62.3901 175.653 62.3406 175.796 62.3158 175.947L62.0143 177.982C61.5318 181.277 61.0326 184.682 60.2667 187.865L60.222 188.046L60.1613 188.279C60.0952 188.537 60.064 188.738 60.1003 188.994C60.1251 189.186 60.1826 189.354 60.2651 189.482C60.2699 189.801 60.3704 190.105 60.5204 190.256C62.3703 192.154 64.2431 194.409 66.0816 196.963C69.4123 201.597 72.5454 207.055 75.5763 212.332C76.7211 214.325 77.8644 216.314 79.0223 218.273C80.0257 219.97 81.1177 221.773 82.2938 223.474C83.386 225.055 84.4946 226.478 85.59 227.699C87.8501 230.22 90.1859 231.962 92.5349 232.874C93.7012 233.331 94.9367 233.576 96.2051 233.607L96.4043 233.609C97.5459 233.609 98.7337 233.395 100.033 232.953C101.313 232.524 102.634 231.819 104.067 230.802C105.314 229.924 106.514 228.874 107.635 227.686C109.662 225.528 111.424 222.81 112.87 219.612C114.2 216.68 115.274 213.239 116.058 209.387C116.776 205.868 117.223 202.005 117.419 197.574C117.59 193.594 117.508 189.4 117.163 184.756C116.878 180.897 116.42 176.828 115.77 172.317Z" fill="#FF4A60"/>
<path d="M126.845 215.31C126.832 215.34 126.82 215.371 126.807 215.402C126.837 215.356 126.88 215.254 126.908 215.182C126.888 215.218 126.872 215.254 126.855 215.284L126.845 215.31Z" fill="white"/>
<path d="M126.842 215.205L126.82 215.259L126.807 215.287L127.064 215.603C127.11 215.529 127.166 215.394 127.186 215.338L126.916 215.047L126.842 215.205Z" fill="black"/>
<path d="M196.246 345.981C183.214 366.398 183.323 399.327 196.49 419.534C209.655 439.744 230.893 439.575 243.924 419.159C256.956 398.742 256.847 365.813 243.681 345.603C230.516 325.399 209.277 325.567 196.246 345.981Z" fill="#E59A20"/>
<path d="M198.342 349.098C185.31 369.512 185.419 402.444 198.584 422.651C211.751 442.858 232.989 442.689 246.019 422.273C259.052 401.859 258.943 368.927 245.777 348.72C232.612 328.513 211.374 328.681 198.342 349.098Z" fill="#FCBD4C"/>
<path d="M242.418 417.556C231.271 435.018 213.039 435.163 201.779 417.878C190.516 400.594 190.424 372.323 201.571 354.862C212.718 337.398 230.95 337.253 242.211 354.54C253.473 371.822 253.565 400.093 242.418 417.556ZM221.839 338.821C213.675 338.887 206.017 343.876 200.275 352.872C194.532 361.868 191.393 373.794 191.434 386.45C191.477 399.109 194.694 410.984 200.496 419.889C206.297 428.793 213.988 433.659 222.152 433.595C230.314 433.531 237.972 428.54 243.715 419.544C249.457 410.547 252.597 398.624 252.556 385.965C252.513 373.309 249.294 361.434 243.492 352.527C237.691 343.626 230.001 338.757 221.839 338.821Z" fill="#E59A20"/>
<path d="M232.007 360.447L233.085 356.128L229.071 353.716L227.992 358.033C224.909 356.797 222.342 356.884 220.293 358.296C218.244 359.709 216.715 362.434 215.705 366.473C215.008 369.262 214.733 371.97 214.878 374.598C215.025 377.226 215.425 379.436 216.077 381.226C216.73 383.017 218.064 386.008 220.08 390.194C221.293 392.695 221.873 394.68 221.82 396.148C221.766 397.617 221.36 399.87 220.603 402.904C220.301 404.11 219.93 404.932 219.489 405.374C219.047 405.814 218.532 405.857 217.942 405.502C217.252 405.088 216.928 404.386 216.967 403.395C217.008 402.406 217.483 400.092 218.39 396.457L219.219 393.142L210.498 387.903L209.839 390.547C208.332 396.572 208.148 401.318 209.284 404.784C210.421 408.251 212.109 410.863 214.351 412.623L213.038 417.875L217.053 420.289L218.324 415.2C221.479 416.352 224.148 416.005 226.33 414.161C228.511 412.314 230.206 408.983 231.41 404.164C232.163 401.15 232.514 398.468 232.464 396.115C232.415 393.765 232.125 391.793 231.596 390.204C231.066 388.616 229.952 386.12 228.256 382.713C226.264 378.692 225.108 376.1 224.788 374.932C224.452 373.755 224.551 372.107 225.08 369.987C225.398 368.715 225.768 367.842 226.195 367.367C226.62 366.889 227.098 366.812 227.63 367.132C228.292 367.53 228.631 368.158 228.65 369.014C228.667 369.872 228.377 371.494 227.781 373.882L227.221 376.125L235.94 381.364C236.283 380.261 236.523 379.431 236.662 378.871C237.66 374.879 237.774 371.346 237.001 368.278C236.229 365.208 234.563 362.598 232.007 360.447Z" fill="#E59A20"/>
<path d="M392.823 322.221C392.778 319.884 392.081 317.551 390.731 315.219C389.889 313.761 389.05 312.732 388.217 312.126C387.383 311.523 386.617 311.224 385.917 311.232C385.219 311.24 384.043 311.488 382.389 311.976C380.442 312.543 379.221 312.798 378.725 312.747C378.224 312.706 377.676 312.169 377.083 311.145C376.727 310.53 376.525 309.978 376.475 309.493C376.426 309.005 376.529 308.584 376.788 308.223C377.108 307.779 377.421 307.666 377.724 307.886C378.027 308.108 378.513 308.795 379.182 309.95L379.809 311.035L384.028 305.166C383.738 304.576 383.514 304.147 383.357 303.876C382.24 301.945 381.04 300.88 379.758 300.686C378.477 300.491 377.109 301.171 375.658 302.721L374.449 300.632L372.507 303.334L373.716 305.424C372.439 307.669 371.766 309.845 371.695 311.95C371.624 314.055 372.154 316.083 373.286 318.037C374.067 319.385 374.935 320.361 375.89 320.959C376.847 321.559 377.727 321.83 378.531 321.774C379.333 321.717 380.741 321.421 382.754 320.882C383.959 320.55 384.809 320.609 385.306 321.056C385.803 321.506 386.477 322.463 387.327 323.93C387.665 324.514 387.85 325.051 387.882 325.541C387.914 326.032 387.789 326.476 387.502 326.872C387.169 327.337 386.835 327.416 386.5 327.112C386.166 326.806 385.491 325.774 384.473 324.014L383.545 322.41L379.327 328.282L380.066 329.559C381.753 332.477 383.357 333.932 384.876 333.932C386.397 333.932 387.77 333.232 388.999 331.835L390.469 334.379L392.412 331.677L390.988 329.214C392.254 326.887 392.865 324.555 392.823 322.221Z" fill="#D0E7E6"/>
</svg>
