<svg width="737" height="409" viewBox="0 0 737 409" fill="none" xmlns="http://www.w3.org/2000/svg">
<path d="M245.57 120.63L245.557 118.756L246.394 118.753L246.407 120.628L245.57 120.63Z" fill="black"/>
<path d="M245.58 127.888L245.557 124.277L246.395 124.274L246.417 127.886L245.58 127.888ZM245.626 135.113L245.603 131.5L246.441 131.498L246.463 135.111L245.626 135.113ZM245.672 142.337L245.649 138.725L246.486 138.723L246.509 142.334L245.672 142.337ZM245.718 149.561L245.694 145.949L246.531 145.946L246.555 149.559L245.718 149.561ZM245.764 156.786L245.74 153.174L246.577 153.171L246.6 156.783L245.764 156.786ZM245.808 164.01L245.786 160.398L246.623 160.395L246.646 164.007L245.808 164.01ZM245.854 171.234L245.832 167.622L246.669 167.619L246.692 171.232L245.854 171.234ZM245.9 178.458L245.878 174.846L246.715 174.844L246.738 178.456L245.9 178.458ZM245.946 185.682L245.923 182.07L246.76 182.068L246.784 185.679L245.946 185.682Z" fill="black"/>
<path d="M243.855 192.304L243.438 191.871L245.945 191.01L245.934 189.282L246.772 189.279L246.784 191.152C246.784 191.243 246.705 191.326 246.574 191.37L243.855 192.304Z" fill="black"/>
<path d="M233.395 195.942L232.977 195.509L238.257 193.695L238.673 194.128L233.395 195.942ZM222.836 199.569L222.42 199.136L227.699 197.323L228.116 197.756L222.836 199.569ZM212.278 203.196L211.861 202.763L217.14 200.949L217.557 201.382L212.278 203.196ZM201.72 206.823L201.303 206.389L206.582 204.577L206.999 205.01L201.72 206.823ZM191.161 210.45L190.745 210.017L196.023 208.203L196.44 208.636L191.161 210.45ZM180.603 214.077L180.186 213.643L185.465 211.831L185.882 212.264L180.603 214.077ZM170.045 217.704L169.628 217.271L174.907 215.457L175.324 215.89L170.045 217.704ZM159.486 221.331L159.069 220.898L164.349 219.085L164.766 219.518L159.486 221.331Z" fill="black"/>
<path d="M151.695 225.734H150.858V223.861C150.858 223.771 150.939 223.689 151.068 223.644L153.788 222.71L154.204 223.143L151.695 224.005V225.734Z" fill="black"/>
<path d="M151.695 233.48H150.858V229.599H151.695V233.48ZM151.695 241.242H150.858V237.361H151.695V241.242ZM151.695 249.004H150.858V245.123H151.695V249.004Z" fill="black"/>
<path d="M151.695 252.872H150.858V254.746H151.695V252.872Z" fill="black"/>
<path d="M663.926 309.149L736.621 284.259L523.719 210.963L451.908 235.352L663.926 309.149Z" fill="#C2CAE7"/>
<path d="M736.621 284.246L663.926 309.136L451.908 235.34L452.182 241.798L664.368 315.746L736.621 290.391V284.246Z" fill="#7995C4"/>
<path d="M681.328 294.782L499.059 231.937V17.27L673.827 77.5282C678.465 79.1282 681.328 82.0858 681.328 85.2861V294.783V294.782Z" fill="#403A37"/>
<path d="M681.328 85.2844C681.328 82.084 678.465 79.1269 673.827 77.5265L651.992 69.9988C650.159 110.454 630.653 192.934 499.059 228.244V231.936L681.328 294.78V85.2846V85.2844Z" fill="#312A27"/>
<path d="M673.443 262.183L505.681 204.144V38.4675L673.443 96.5061V262.183Z" fill="#D1E3DF"/>
<path d="M609.258 66.9183L569.826 53.2847C569.145 53.0497 568.726 52.6166 568.726 52.148C568.726 51.1363 570.565 50.5045 572.026 51.0115L611.463 64.6453C612.139 64.8801 612.558 65.3132 612.558 65.782C612.558 66.7937 610.725 67.4255 609.258 66.9183Z" fill="#1B1617"/>
<path d="M499.059 17.2722L510.471 13.6957C513.619 12.7091 517.396 12.7546 520.474 13.8159L690.476 72.4308C695.114 74.0308 697.972 76.9872 697.972 80.187V285.234C697.972 287.391 696.092 289.393 693.013 290.516L681.328 294.783V85.2865C681.328 82.0871 678.471 79.1307 673.827 77.5307L499.059 17.2722Z" fill="#1B1617"/>
<path d="M570.3 248.255C574.176 252.265 580.478 254.428 584.372 253.086C588.259 251.744 588.27 247.406 584.395 243.395C580.519 239.385 574.222 237.222 570.329 238.564C566.436 239.906 566.424 244.245 570.3 248.255Z" fill="#1B1617"/>
<path d="M573.14 250.592C576.288 248.981 576.061 244.954 572.441 241.211C571.597 240.335 570.631 239.555 569.607 238.873C566.453 240.484 566.68 244.511 570.299 248.254C571.149 249.13 572.109 249.911 573.14 250.592Z" fill="#595757"/>
<path d="M673.756 77.5278C678.4 79.1278 681.257 82.0842 681.257 85.2836V294.781L692.942 290.513C696.026 289.39 697.901 287.389 697.901 285.233V80.1839C697.901 76.9842 695.043 74.0278 690.405 72.4277C688.799 78.7562 673.756 77.5276 673.756 77.5276V77.5278Z" fill="#020206"/>
<path d="M478.996 230.518C478.448 230.329 477.884 230.171 477.302 230.036L477.32 230.037L477.157 229.999C477.157 229.998 477.151 229.997 477.145 229.996L470.092 228.336L470.086 228.34C460.548 226.079 446.663 230.934 438.144 239.745C429.129 249.071 429.542 259.293 439.063 262.576C439.529 262.735 440.006 262.869 440.489 262.99H440.46L440.861 263.084C440.884 263.09 440.908 263.096 440.937 263.101L448.188 264.808C457.72 266.944 471.459 262.093 479.915 253.349C488.929 244.023 488.522 233.801 478.996 230.518Z" fill="#083B5D"/>
<path d="M481.834 251.132L436.128 242.052C429.267 250.698 430.309 259.558 439.049 262.572C439.515 262.731 439.992 262.865 440.475 262.986H440.446L440.848 263.08C440.871 263.085 440.894 263.092 440.923 263.097L448.174 264.804C457.706 266.94 471.446 262.089 479.902 253.344C480.611 252.612 481.24 251.873 481.834 251.132Z" fill="#083B5D"/>
<path d="M451.365 265.24C442.002 261.895 441.635 251.744 450.603 242.473C458.156 234.657 469.929 229.967 479.153 230.581C479.095 230.562 479.048 230.536 478.996 230.518C478.449 230.329 477.884 230.171 477.302 230.036L477.32 230.037L477.157 229.999C477.157 229.998 477.151 229.997 477.145 229.996L470.092 228.336L470.086 228.34C460.548 226.079 446.663 230.934 438.144 239.745C429.129 249.071 429.542 259.293 439.063 262.576C439.529 262.735 440.006 262.869 440.489 262.99H440.46L440.861 263.084C440.884 263.09 440.908 263.096 440.937 263.102L448.188 264.808C449.2 265.035 450.271 265.167 451.365 265.24Z" fill="#001F36"/>
<path d="M485.814 202.263V235.698L393.897 267.436V248.834L471.516 206.862L485.814 202.263Z" fill="#0E77A0"/>
<path d="M393.873 248.827L270.324 205.84V224.822L393.873 267.429V248.827Z" fill="#1999C3"/>
<path d="M485.795 202.276L361.842 159.603L347.805 164.342L471.496 206.875L485.795 202.276Z" fill="#0FC2F3"/>
<path d="M473.981 201.495L362.849 163.224L358.798 164.556L469.96 202.789L473.981 201.495Z" fill="#31235F"/>
<path d="M471.492 206.871L347.877 164.372L270.324 205.855L393.873 248.843L471.492 206.871Z" fill="#59CAEB"/>
<path d="M455.616 205.467L352.91 170.157L285.688 205.268L388.332 240.983L455.616 205.467Z" fill="#31235F"/>
<path d="M298.27 204.92L386.635 235.701L443.153 205.77L354.024 175.413L298.27 204.92Z" fill="#5DC4B5"/>
<path d="M312.84 210.031L386.585 235.719L443.103 205.789L425.104 199.657C378.188 200.324 333.822 206.602 312.84 210.031Z" fill="#55C1AD"/>
<path d="M227.809 325.336L393.85 267.43V252.986L389.969 252.739L229.346 292.637L227.809 325.336Z" fill="#0E77A0"/>
<path d="M270.348 212.376L135.951 258.965C135.951 258.965 111.493 269.399 113.492 285.778C113.492 285.778 148.377 307.446 227.856 325.368C227.856 325.368 228.609 308.75 261.757 297.372L390.016 252.772L270.348 212.376Z" fill="#59CAEB"/>
<path d="M232.047 323.89L240.086 326.719C240.086 326.719 240.609 323.939 243.713 319.821L232.047 323.89Z" fill="#083B5D"/>
<path d="M453.778 225.679L402.445 253.257L277.183 297.366C241.33 309.63 238.272 326.03 238.272 326.03L240.157 326.735L242.35 324.619L459.365 249.376C477.212 221.8 453.778 225.679 453.778 225.679Z" fill="#0C5D7E"/>
<path d="M240.126 326.696C240.126 326.696 243.183 310.293 279.038 298.028L404.3 253.92L455.633 226.341C455.633 226.341 479.061 222.462 461.219 250.039L240.126 326.696Z" fill="#083B5D"/>
<path d="M178.547 244.084L135.686 258.942C135.686 258.942 111.228 269.375 113.227 285.755C113.227 285.755 148.112 307.423 227.591 325.345C227.591 325.345 228.344 308.723 261.492 297.349L351.089 266.192C295.543 253.605 225.171 247.184 178.547 244.084Z" fill="#3EC3D9"/>
<path d="M297.277 228.655L281.557 234.284C281.346 234.36 281.082 234.36 280.871 234.284L255.225 225.138L255.249 226.189C255.256 226.461 255.498 226.713 255.891 226.853L280.924 235.792C281.137 235.868 281.402 235.867 281.614 235.791L296.643 230.335C297.036 230.192 297.277 229.938 297.277 229.663V228.655Z" fill="#00010B"/>
<path d="M281.536 234.312L296.955 229.009C297.384 228.862 297.384 228.492 296.956 228.345L271.5 219.581C271.302 219.513 271.059 219.513 270.86 219.58L255.548 224.824C255.12 224.971 255.117 225.339 255.544 225.487L280.893 234.311C281.092 234.38 281.337 234.38 281.536 234.312Z" fill="#083B5D"/>
<path d="M255.891 226.853L280.924 235.792C281.031 235.83 281.15 235.849 281.27 235.848V234.332C281.132 234.339 280.994 234.328 280.871 234.284L255.225 225.138L255.249 226.189C255.256 226.461 255.498 226.713 255.891 226.853Z" fill="#001F36"/>
<path d="M329.196 239.652L313.476 245.281C313.265 245.356 313.002 245.356 312.79 245.281L287.145 236.135L287.169 237.185C287.175 237.458 287.418 237.709 287.811 237.85L312.844 246.789C313.056 246.865 313.322 246.864 313.533 246.788L328.563 241.332C328.956 241.189 329.196 240.934 329.196 240.659V239.652Z" fill="#00010B"/>
<path d="M313.456 245.264L328.875 239.961C329.303 239.814 329.303 239.445 328.875 239.297L303.419 230.533C303.221 230.465 302.978 230.465 302.779 230.533L287.468 235.776C287.039 235.923 287.037 236.291 287.463 236.44L312.813 245.263C313.011 245.332 313.257 245.332 313.456 245.264Z" fill="#083B5D"/>
<path d="M287.811 237.85L312.844 246.789C312.95 246.827 313.07 246.846 313.189 246.845V245.328C313.052 245.336 312.913 245.325 312.79 245.281L287.145 236.135L287.169 237.185C287.175 237.458 287.418 237.709 287.811 237.85Z" fill="#001F36"/>
<path d="M361.114 250.604L345.396 256.233C345.186 256.308 344.924 256.308 344.709 256.233L319.064 247.087L319.088 248.137C319.095 248.41 319.338 248.661 319.73 248.802L344.761 257.741C344.977 257.817 345.238 257.816 345.454 257.739L360.485 252.284C360.875 252.141 361.114 251.887 361.114 251.612V250.604Z" fill="#00010B"/>
<path d="M345.378 256.26L360.793 250.957C361.224 250.81 361.224 250.44 360.793 250.294L335.338 241.529C335.14 241.462 334.897 241.461 334.699 241.529L319.387 246.772C318.959 246.919 318.957 247.287 319.383 247.436L344.732 256.259C344.93 256.328 345.174 256.328 345.378 256.26Z" fill="#083B5D"/>
<path d="M319.73 248.802L344.761 257.74C344.872 257.779 344.988 257.797 345.11 257.797V256.28C344.971 256.287 344.831 256.277 344.709 256.233L319.064 247.087L319.088 248.137C319.095 248.41 319.338 248.661 319.73 248.802Z" fill="#001F36"/>
<path d="M270.39 237.929L254.671 243.558C254.459 243.634 254.196 243.634 253.985 243.558L228.339 234.412L228.363 235.462C228.369 235.735 228.612 235.987 229.005 236.127L254.038 245.066C254.25 245.142 254.516 245.142 254.727 245.064L269.756 239.609C270.15 239.467 270.39 239.211 270.39 238.937V237.929Z" fill="#00010B"/>
<path d="M254.65 243.586L270.069 238.283C270.497 238.136 270.497 237.766 270.069 237.619L244.613 228.855C244.415 228.787 244.171 228.787 243.973 228.855L228.661 234.098C228.233 234.245 228.231 234.613 228.657 234.761L254.006 243.585C254.205 243.654 254.45 243.654 254.65 243.586Z" fill="#083B5D"/>
<path d="M229.005 236.127L254.038 245.066C254.144 245.104 254.264 245.123 254.384 245.123V243.606C254.246 243.613 254.107 243.602 253.985 243.559L228.339 234.412L228.363 235.462C228.369 235.735 228.612 235.987 229.005 236.127Z" fill="#001F36"/>
<path d="M302.31 248.926L286.59 254.555C286.379 254.63 286.115 254.63 285.904 254.555L260.258 245.409L260.282 246.459C260.289 246.732 260.531 246.983 260.924 247.124L285.957 256.063C286.17 256.138 286.435 256.138 286.647 256.061L301.676 250.606C302.069 250.463 302.31 250.208 302.31 249.933V248.926Z" fill="#00010B"/>
<path d="M286.569 254.538L301.988 249.235C302.417 249.088 302.417 248.718 301.988 248.571L276.532 239.807C276.334 239.739 276.091 239.739 275.893 239.807L260.581 245.05C260.152 245.197 260.151 245.565 260.577 245.714L285.926 254.536C286.125 254.606 286.37 254.606 286.569 254.538Z" fill="#083B5D"/>
<path d="M260.923 247.124L285.957 256.062C286.064 256.1 286.183 256.119 286.303 256.119V254.602C286.165 254.609 286.027 254.599 285.904 254.555L260.258 245.409L260.282 246.459C260.289 246.731 260.531 246.983 260.923 247.124Z" fill="#001F36"/>
<path d="M334.229 259.878L318.509 265.507C318.298 265.582 318.035 265.583 317.823 265.507L292.178 256.361L292.202 257.411C292.208 257.684 292.451 257.936 292.844 258.076L317.877 267.014C318.089 267.09 318.355 267.089 318.566 267.013L333.596 261.558C333.989 261.415 334.229 261.16 334.229 260.885V259.878Z" fill="#00010B"/>
<path d="M318.489 265.534L333.908 260.231C334.336 260.084 334.336 259.714 333.908 259.567L308.452 250.803C308.255 250.735 308.011 250.735 307.812 250.803L292.501 256.046C292.072 256.193 292.07 256.561 292.496 256.709L317.846 265.533C318.045 265.602 318.29 265.602 318.489 265.534Z" fill="#083B5D"/>
<path d="M292.844 258.076L317.877 267.014C317.983 267.052 318.103 267.071 318.222 267.071V265.554C318.085 265.561 317.946 265.551 317.823 265.507L292.178 256.361L292.202 257.411C292.208 257.684 292.451 257.936 292.844 258.076Z" fill="#001F36"/>
<path d="M243.503 247.204L227.783 252.832C227.572 252.908 227.309 252.908 227.098 252.833L201.452 243.686L201.476 244.737C201.482 245.01 201.725 245.261 202.117 245.401L227.15 254.34C227.363 254.416 227.628 254.415 227.84 254.339L242.869 248.883C243.263 248.741 243.503 248.486 243.503 248.211V247.204Z" fill="#00010B"/>
<path d="M227.764 252.859L243.183 247.557C243.611 247.409 243.611 247.04 243.183 246.893L217.726 238.129C217.529 238.061 217.285 238.061 217.087 238.128L201.775 243.372C201.346 243.519 201.345 243.887 201.771 244.035L227.12 252.859C227.319 252.928 227.564 252.928 227.764 252.859Z" fill="#083B5D"/>
<path d="M202.117 245.401L227.151 254.34C227.257 254.378 227.376 254.397 227.496 254.397V252.88C227.359 252.887 227.22 252.877 227.098 252.833L201.452 243.686L201.476 244.737C201.482 245.01 201.725 245.261 202.117 245.401Z" fill="#001F36"/>
<path d="M275.423 258.2L259.704 263.829C259.492 263.904 259.229 263.904 259.018 263.829L233.372 254.682L233.396 255.733C233.402 256.006 233.645 256.257 234.038 256.398L259.071 265.337C259.283 265.413 259.549 265.412 259.76 265.335L274.79 259.88C275.183 259.737 275.423 259.482 275.423 259.207V258.2Z" fill="#00010B"/>
<path d="M259.683 263.812L275.102 258.509C275.53 258.361 275.53 257.992 275.102 257.845L249.646 249.081C249.448 249.013 249.204 249.013 249.006 249.08L233.694 254.324C233.266 254.471 233.264 254.839 233.69 254.987L259.04 263.81C259.238 263.88 259.483 263.88 259.683 263.812Z" fill="#083B5D"/>
<path d="M234.038 256.398L259.071 265.337C259.177 265.375 259.297 265.393 259.416 265.393V263.876C259.279 263.883 259.141 263.873 259.018 263.829L233.372 254.682L233.396 255.733C233.402 256.006 233.645 256.257 234.038 256.398Z" fill="#001F36"/>
<path d="M307.343 269.151L291.623 274.78C291.412 274.856 291.148 274.856 290.937 274.781L265.291 265.635L265.316 266.684C265.322 266.957 265.565 267.209 265.957 267.349L290.99 276.288C291.203 276.364 291.468 276.364 291.68 276.287L306.709 270.832C307.103 270.689 307.343 270.434 307.343 270.159V269.151Z" fill="#00010B"/>
<path d="M291.602 274.808L307.021 269.505C307.449 269.358 307.449 268.989 307.021 268.841L281.565 260.077C281.368 260.009 281.124 260.009 280.926 260.077L265.613 265.321C265.186 265.467 265.183 265.835 265.61 265.984L290.959 274.807C291.158 274.876 291.403 274.877 291.602 274.808Z" fill="#083B5D"/>
<path d="M265.957 267.349L290.99 276.288C291.096 276.326 291.216 276.345 291.336 276.344V274.828C291.198 274.835 291.06 274.824 290.937 274.781L265.291 265.635L265.315 266.684C265.322 266.957 265.565 267.209 265.957 267.349Z" fill="#001F36"/>
<path d="M216.749 256.477L201.029 262.106C200.819 262.182 200.555 262.182 200.344 262.106L174.698 252.96L174.722 254.01C174.729 254.283 174.971 254.535 175.364 254.675L200.397 263.614C200.609 263.69 200.875 263.689 201.086 263.612L216.116 258.157C216.509 258.014 216.749 257.759 216.749 257.484V256.477Z" fill="#00010B"/>
<path d="M201.009 262.133L216.428 256.831C216.856 256.684 216.856 256.314 216.428 256.167L190.972 247.403C190.774 247.335 190.53 247.335 190.333 247.403L175.021 252.646C174.592 252.792 174.59 253.161 175.017 253.309L200.366 262.132C200.564 262.202 200.81 262.202 201.009 262.133Z" fill="#083B5D"/>
<path d="M175.364 254.675L200.397 263.614C200.503 263.652 200.623 263.67 200.743 263.67V262.154C200.604 262.161 200.467 262.15 200.344 262.106L174.698 252.96L174.722 254.01C174.729 254.283 174.971 254.535 175.364 254.675Z" fill="#001F36"/>
<path d="M248.536 267.473L232.817 273.102C232.605 273.178 232.342 273.178 232.131 273.103L206.485 263.956L206.509 265.006C206.515 265.279 206.758 265.531 207.15 265.671L232.183 274.61C232.396 274.686 232.662 274.685 232.873 274.608L247.903 269.153C248.296 269.01 248.536 268.755 248.536 268.481V267.473Z" fill="#00010B"/>
<path d="M232.796 273.085L248.215 267.783C248.643 267.635 248.643 267.266 248.216 267.119L222.759 258.355C222.562 258.287 222.318 258.287 222.12 258.354L206.808 263.598C206.38 263.744 206.377 264.113 206.804 264.261L232.153 273.084C232.351 273.153 232.597 273.154 232.796 273.085Z" fill="#083B5D"/>
<path d="M207.15 265.671L232.183 274.61C232.29 274.648 232.41 274.667 232.529 274.667V273.15C232.392 273.157 232.253 273.147 232.131 273.103L206.485 263.956L206.509 265.006C206.515 265.279 206.758 265.531 207.15 265.671Z" fill="#001F36"/>
<path d="M280.456 278.426L264.736 284.055C264.525 284.13 264.261 284.13 264.05 284.055L238.405 274.909L238.429 275.959C238.435 276.232 238.678 276.484 239.07 276.623L264.103 285.563C264.316 285.639 264.582 285.636 264.793 285.56L279.822 280.106C280.216 279.963 280.456 279.708 280.456 279.433V278.426Z" fill="#00010B"/>
<path d="M264.715 284.082L280.135 278.779C280.563 278.632 280.564 278.262 280.135 278.115L254.679 269.351C254.481 269.283 254.237 269.283 254.039 269.351L238.727 274.594C238.299 274.741 238.297 275.109 238.723 275.257L264.072 284.081C264.271 284.15 264.517 284.15 264.715 284.082Z" fill="#083B5D"/>
<path d="M239.07 276.624L264.103 285.563C264.21 285.601 264.33 285.619 264.449 285.619V284.102C264.312 284.109 264.173 284.099 264.05 284.055L238.405 274.909L238.429 275.959C238.435 276.232 238.678 276.483 239.07 276.624Z" fill="#001F36"/>
<path d="M527.141 85.5464C527.077 74.1672 513.861 69.2955 497.619 74.6649C497.119 74.8321 496.624 75.0305 496.124 75.2129L419.989 48.9778L420.198 91.7798L527.129 128.648V85.8955L527.118 85.8921C527.118 85.7778 527.141 85.6603 527.141 85.5464Z" fill="#D9DEF1"/>
<path d="M527.141 128.639V85.8865L527.129 85.8831C527.129 85.7688 527.153 85.6513 527.153 85.5374C527.089 74.1582 513.873 69.2865 497.631 74.6559C497.131 74.8231 496.636 75.0215 496.136 75.2039L494.873 74.7685C474.871 82.8238 464.036 96.8021 459.06 105.166L527.141 128.639Z" fill="#D9DEED"/>
<path d="M433.233 56.1529L514.099 82.8909L514.105 82.0308L433.239 55.2932L433.233 56.1529Z" fill="#083B5D"/>
<path d="M433.233 65.2501L514.099 91.9878L514.105 91.1284L433.239 64.3904L433.233 65.2501Z" fill="#083B5D"/>
<path d="M433.233 83.5774L514.099 110.315L514.105 109.455L433.239 82.7175L433.233 83.5774Z" fill="#083B5D"/>
<path d="M433.233 92.6742L514.099 119.412L514.105 118.552L433.239 91.8147L433.233 92.6742Z" fill="#083B5D"/>
<path d="M433.233 74.3475L514.099 101.085L514.105 100.225L433.239 73.4878L433.233 74.3475Z" fill="#083B5D"/>
<path d="M409.641 36.3381C409.566 36.3113 409.496 36.2885 409.42 36.2629L408.879 36.0752L408.856 36.0898C403.577 34.3779 396.519 34.5798 388.75 37.1494C372.508 42.5188 359.397 56.0962 359.461 67.475L361.335 164.806L468.475 201.626L468.324 105.036C468.266 93.6561 481.377 80.0791 497.619 74.7097C505.661 72.0504 512.953 71.91 518.283 73.8209L518.289 73.8176L409.641 36.3381Z" fill="#E6EAF6"/>
<path d="M518.266 73.8034L518.272 73.8002L498.16 66.8635C424.772 84.4704 379.794 142.797 364.494 165.881L468.458 201.609L468.306 105.018C468.248 93.6387 481.359 80.0616 497.601 74.6923C505.644 72.0329 512.935 71.8925 518.266 73.8034Z" fill="#D9DEED"/>
<path d="M487.429 67.5571L404.445 40.1016C403.933 40.2062 403.421 40.3257 402.903 40.4522L486.196 68.0095C486.609 67.8595 487.011 67.6963 487.429 67.5571Z" fill="#083B5D"/>
<path d="M476.092 72.9158L391.327 44.8711C390.99 45.048 390.652 45.2165 390.321 45.3996L475.231 73.4919C475.517 73.3019 475.796 73.1009 476.092 72.9158Z" fill="#083B5D"/>
<path d="M518.297 73.8041L518.291 73.8073C512.96 71.8965 505.669 72.0369 497.626 74.6962C481.384 80.0655 468.273 93.6426 468.332 105.022L468.483 201.613L471.183 200.761L471.032 105.854C470.968 94.4753 484.085 80.8981 500.321 75.5289C508.363 72.8696 515.661 72.7289 520.985 74.6399L520.991 74.6368L518.297 73.8041Z" fill="#3798D3"/>
<path d="M529.868 86.3896C529.833 79.8985 525.509 75.5364 518.793 73.9731C523.944 75.9861 527.139 79.9847 527.173 85.557C527.173 85.671 527.15 85.7885 527.15 85.9028L527.162 85.9061V128.658L529.856 127.829V86.7389L529.844 86.7353C529.85 86.621 529.868 86.5035 529.868 86.3896Z" fill="#3798D3"/>
<path d="M418.134 79.3375L453.487 91.0271L453.493 90.1672L418.14 78.4778L418.134 79.3375Z" fill="#083B5D"/>
<path d="M372.705 64.2786L414.89 78.2263L414.896 77.3663L372.711 63.4189L372.705 64.2786Z" fill="#083B5D"/>
<path d="M418.134 85.4761L453.487 97.1658L453.493 96.3055L418.14 84.6162L418.134 85.4761Z" fill="#083B5D"/>
<path d="M372.705 70.4172L414.89 84.365L414.896 83.5053L372.711 69.5571L372.705 70.4172Z" fill="#083B5D"/>
<path d="M418.134 91.6146L453.487 103.304L453.493 102.444L418.14 90.7549L418.134 91.6146Z" fill="#083B5D"/>
<path d="M372.573 76.5557L414.758 90.5037L414.763 89.644L372.579 75.6958L372.573 76.5557Z" fill="#083B5D"/>
<path d="M418.134 97.7531L453.487 109.442L453.493 108.583L418.14 96.8936L418.134 97.7531Z" fill="#083B5D"/>
<path d="M372.573 90.952L453.439 117.69V116.83L372.578 90.0923L372.573 90.952Z" fill="#083B5D"/>
<path d="M372.573 107.248L453.439 133.986V133.126L372.578 106.388L372.573 107.248Z" fill="#083B5D"/>
<path d="M372.573 116.301L453.439 143.039V142.179L372.578 115.441L372.573 116.301Z" fill="#083B5D"/>
<path d="M372.573 125.398L453.439 152.136V151.276L372.578 124.538L372.573 125.398Z" fill="#083B5D"/>
<path d="M372.573 134.495L453.439 161.233V160.373L372.578 133.636L372.573 134.495Z" fill="#083B5D"/>
<path d="M372.573 143.593L453.439 170.331V169.471L372.578 142.733L372.573 143.593Z" fill="#083B5D"/>
<path d="M372.573 82.6942L414.752 96.6421L414.757 95.7824L372.573 81.834V82.6942Z" fill="#083B5D"/>
<path d="M372.44 98.5038L391.807 104.908V104.048L372.44 97.644V98.5038Z" fill="#083B5D"/>
<path d="M372.573 158.122L453.439 184.859V184L372.578 157.262L372.573 158.122Z" fill="#083B5D"/>
<path d="M372.44 165.674L391.807 172.077V171.217L372.44 164.814V165.674Z" fill="#083B5D"/>
<path d="M424.033 4.19978C424.574 3.97222 425.145 3.77553 425.732 3.60172L425.721 3.60341L425.878 3.55543C425.884 3.55407 425.889 3.55237 425.895 3.55102L433.036 1.42312L433.041 1.42685C442.696 -1.46834 458.007 2.86037 468.295 11.6338C479.189 20.9193 480.33 31.6627 470.85 35.6297C470.39 35.8217 469.913 35.9883 469.418 36.142L469.448 36.1406L469.046 36.2608C469.017 36.2681 468.994 36.2758 468.97 36.2831L461.626 38.4718C451.954 41.2354 436.795 36.9023 426.582 28.1959C415.694 18.9102 414.547 8.1668 424.033 4.19978Z" fill="#54B947"/>
<path d="M467.685 30.1468C467.685 38.2087 456.739 40.9708 443.244 36.3165C429.743 31.6617 418.797 21.3531 418.797 13.2911C418.797 5.22923 429.743 2.46716 443.244 7.12159C456.739 11.7764 467.685 22.085 467.685 30.1468Z" fill="#77C262"/>
<path d="M467.685 30.1453C467.685 22.0834 456.739 11.7748 443.244 7.12006C441.591 6.55065 439.979 6.09621 438.42 5.74487C436.924 13.4355 437.017 25.6306 447.882 37.6438C459.16 40.2377 467.685 37.2591 467.685 30.1453Z" fill="#64BC4C"/>
<path d="M437.905 25.9026L430.054 18.1634L433.022 17.5352L438.201 22.6373L450.143 20.5464L452.808 23.2928L437.905 25.9026Z" fill="#E6EAF6"/>
<path d="M271.322 75.738C270.733 75.4916 270.117 75.2786 269.481 75.0902L269.496 75.0919L269.322 75.0402C269.316 75.0385 269.31 75.0366 269.305 75.0353L261.567 72.7298L261.564 72.7335C251.102 69.5972 234.516 74.2871 223.365 83.792C211.565 93.852 210.327 105.491 220.601 109.789C221.098 109.997 221.618 110.178 222.149 110.344L222.119 110.343L222.555 110.473C222.583 110.481 222.61 110.49 222.637 110.497L230.595 112.868C241.069 115.863 257.493 111.168 268.557 101.735C280.358 91.6754 281.596 80.0362 271.322 75.738Z" fill="#1999C3"/>
<path d="M223.968 103.842C223.968 112.576 235.825 115.569 250.45 110.526C265.076 105.483 276.933 94.3145 276.933 85.5801C276.933 76.846 265.076 73.8535 250.45 78.8961C235.825 83.9386 223.968 95.1075 223.968 103.842Z" fill="#3EC3D9"/>
<path d="M223.968 103.854C223.968 95.1195 235.825 83.9506 250.45 78.908C252.239 78.2915 253.984 77.7987 255.673 77.4182C257.293 85.7506 257.196 98.9624 245.425 111.978C233.205 114.788 223.968 111.561 223.968 103.854Z" fill="#59CAEB"/>
<path d="M236.757 100.923L238.065 98.4743C238.077 98.4511 238.099 98.4301 238.114 98.4075C238.139 98.37 238.164 98.3336 238.196 98.2975C238.226 98.2615 238.261 98.2303 238.297 98.1976C238.329 98.1684 238.36 98.1403 238.396 98.1131C238.442 98.0787 238.491 98.0499 238.542 98.0207C238.566 98.0072 238.586 97.9899 238.611 97.9773C238.623 97.9714 238.634 97.9697 238.646 97.9641C238.693 97.9422 238.74 97.9263 238.789 97.9098C238.837 97.8932 238.885 97.8776 238.932 97.8674C238.944 97.8651 238.956 97.8591 238.967 97.8571C238.992 97.8528 239.013 97.8564 239.036 97.8539C239.088 97.8488 239.137 97.8442 239.185 97.8472C239.222 97.8495 239.253 97.8567 239.286 97.8637C239.323 97.8717 239.358 97.8796 239.39 97.8939C239.423 97.9081 239.448 97.928 239.474 97.9485C239.49 97.961 239.512 97.9668 239.525 97.9815L240.914 99.5204C241.037 99.6562 241.024 99.8689 240.878 100.085C240.734 100.3 240.478 100.487 240.2 100.581L240.021 100.641C241.608 103.728 246.339 104.667 251.805 102.822C257.77 100.809 262.76 96.1041 263.669 91.6352L265.481 91.2405C264.434 96.3835 258.694 101.796 251.831 104.113C245.357 106.298 239.768 105.095 238.111 101.286L237.504 101.491C237.225 101.585 236.965 101.572 236.815 101.456C236.663 101.341 236.641 101.14 236.757 100.923Z" fill="#E6EAF6"/>
<path d="M265.159 90.0273C265.135 90.0648 265.11 90.1014 265.079 90.1375C265.048 90.173 265.013 90.2042 264.977 90.2369C264.945 90.2661 264.914 90.2946 264.878 90.3214C264.831 90.3558 264.783 90.3846 264.731 90.4138C264.708 90.4273 264.688 90.445 264.663 90.4572C264.651 90.4631 264.639 90.4648 264.627 90.4704C264.581 90.4926 264.534 90.5084 264.485 90.5247C264.437 90.5413 264.389 90.5572 264.342 90.5671C264.33 90.5694 264.319 90.5754 264.307 90.5774C264.282 90.582 264.261 90.5781 264.237 90.5806C264.186 90.5862 264.137 90.5903 264.09 90.5872C264.052 90.5855 264.021 90.5781 263.988 90.5708C263.951 90.5628 263.916 90.5548 263.883 90.5406C263.851 90.5264 263.825 90.5065 263.8 90.486C263.784 90.4736 263.762 90.4677 263.748 90.4531L262.36 88.9145C262.237 88.7783 262.25 88.5657 262.395 88.3498C262.54 88.1348 262.795 87.9478 263.074 87.8539L263.246 87.7955C261.634 84.7498 256.852 83.8328 251.47 85.6489C245.71 87.5932 240.749 92.166 239.676 96.5221L237.875 96.8689C239.109 91.8564 244.816 86.5952 251.444 84.3583C257.821 82.2064 263.457 83.3964 265.139 87.1568L265.77 86.9438C266.048 86.85 266.309 86.8628 266.459 86.9786C266.611 87.0939 266.633 87.2948 266.516 87.5117L265.209 89.9602C265.196 89.9836 265.174 90.0044 265.159 90.0273Z" fill="#E6EAF6"/>
<path d="M271.322 24.4222C270.733 24.1758 270.117 23.9625 269.481 23.7745L269.496 23.7758L269.322 23.7241C269.316 23.7228 269.31 23.7211 269.305 23.7192L261.567 21.4137L261.564 21.418C251.102 18.2815 234.516 22.9711 223.365 32.4764C211.565 42.5362 210.327 54.1757 220.601 58.4736C221.098 58.6813 221.618 58.8621 222.149 59.0286L222.119 59.0269L222.555 59.1571C222.583 59.1653 222.61 59.1736 222.637 59.1816L230.595 61.5528C241.069 64.547 257.493 59.8525 268.557 50.4196C280.358 40.3596 281.596 28.7203 271.322 24.4222Z" fill="#1999C3"/>
<path d="M223.968 52.4818C223.968 61.2163 235.825 64.2088 250.45 59.1662C265.076 54.1232 276.933 42.9546 276.933 34.2202C276.933 25.4857 265.076 22.4932 250.45 27.5363C235.825 32.5789 223.968 43.7474 223.968 52.4818Z" fill="#3EC3D9"/>
<path d="M223.968 52.4933C223.968 43.759 235.825 32.5907 250.45 27.5481C252.239 26.9312 253.984 26.4386 255.673 26.0581C257.293 34.3904 257.196 47.6019 245.425 60.6171C233.205 63.4275 223.968 60.2008 223.968 52.4933Z" fill="#59CAEB"/>
<path d="M252.173 31.9316C252.173 31.9316 249.283 37.4859 238.692 41.6221C238.692 41.6221 237.497 55.4163 252.611 53.6849C268.019 44.7269 265.86 32.4534 265.86 32.4534C255.246 35.4737 252.173 31.9316 252.173 31.9316Z" fill="#E6EAF6"/>
<path d="M252.227 36.1714C252.227 36.1714 250.346 39.7863 243.452 42.4785C243.452 42.4785 242.675 51.457 252.512 50.3301C262.541 44.4993 261.136 36.5109 261.136 36.5109C254.227 38.4769 252.227 36.1714 252.227 36.1714Z" fill="#D1E3DF"/>
<path d="M708.915 175.237C706.372 184.422 691.439 187.218 673.876 181.164L575.348 147.193L575.389 219.367L672.008 252.113C672.631 252.347 673.248 252.597 673.876 252.815C674.813 253.138 675.738 253.415 676.652 253.688L677.036 253.818V253.808C694.907 259.015 708.915 254.891 708.915 243.972V175.237Z" fill="#54B947"/>
<path d="M697.993 159.558V183.686C703.679 182.462 707.659 179.588 708.876 175.274C708.771 170.247 704.476 164.379 697.993 159.558Z" fill="#0F8943"/>
<path d="M676.226 187.713L595.18 160.221C593.573 162.951 589.494 164.194 584.222 163.63L584.245 209.769C588.982 212.533 592.747 216.091 594.627 219.572L678.74 247.689C693.149 252.349 708.908 249.869 708.908 240.851V184.088C707.895 188.94 693.347 192.478 676.226 187.713Z" fill="#75C159"/>
<path d="M644.78 206.251C644.78 212 636.977 213.97 627.351 210.65C617.72 207.332 609.917 199.98 609.917 194.231C609.917 188.482 617.72 186.512 627.351 189.832C636.977 193.151 644.78 200.502 644.78 206.251Z" fill="#17A04A"/>
<path d="M214.088 189.847C214.463 179.07 202.42 166.081 187.189 160.835C186.107 160.463 185.044 160.153 183.992 159.877C178.134 153.092 169.557 147.125 159.872 143.789C151.426 140.88 143.668 140.5 137.723 142.201L137.732 142.185L128.235 144.946L131.527 145.231C130.859 145.745 130.23 146.293 129.677 146.898C125.041 145.729 120.804 145.663 117.35 146.526L117.362 146.506L116.723 146.69C116.562 146.737 116.397 146.778 116.241 146.83L107.018 149.495L111.331 149.734C109.648 151.433 108.65 153.662 108.556 156.356C108.235 165.574 118.535 176.683 131.563 181.17L185.83 199.861C189.11 200.99 192.257 201.642 195.201 201.904L194.166 204.179L204.216 201.246C210.07 199.644 213.885 195.677 214.088 189.847Z" fill="#1999C3"/>
<path d="M177.447 163.67C176.366 163.297 175.302 162.987 174.25 162.711C168.391 155.927 159.815 149.959 150.131 146.624C136.985 142.096 125.483 143.666 119.934 149.732C108.311 146.8 99.1091 150.705 98.8136 159.191C98.493 168.408 108.794 179.517 121.821 184.004L176.089 202.695C191.32 207.941 203.971 203.458 204.346 192.681C204.721 181.905 192.678 168.916 177.447 163.67Z" fill="#3EC3D9"/>
<path d="M204.312 192.694C204.687 181.918 192.644 168.929 177.412 163.683C176.885 163.501 176.362 163.335 175.841 163.18C143.826 164.568 122.267 172.476 110.727 178.209C113.999 180.609 117.761 182.63 121.787 184.017L176.054 202.708C191.285 207.953 203.937 203.47 204.312 192.694Z" fill="#59CAEB"/>
<path d="M147.003 173.798L146.736 181.462L141.371 179.614L141.637 171.95L136.553 170.199L140.603 166.778L144.652 163.356L148.369 169.453L152.086 175.549L147.003 173.798Z" fill="#E6EAF6"/>
<path d="M161.259 178.033C161.488 171.45 154.104 163.488 144.801 160.284C135.497 157.08 127.742 159.828 127.513 166.41C127.283 172.993 134.666 180.955 143.97 184.159C153.273 187.363 161.029 184.616 161.259 178.033ZM163.735 178.886C163.472 186.434 154.578 189.585 143.909 185.911C133.24 182.236 124.774 173.106 125.037 165.558C125.299 158.009 134.193 154.857 144.862 158.532C155.53 162.207 163.997 171.337 163.735 178.886Z" fill="#E6EAF6"/>
<path d="M636.791 159.806L534.422 124.509V63.3748L636.791 98.671V159.806Z" fill="#3E78BD"/>
<path d="M636.791 104.59L534.422 69.2942V63.3748L636.791 98.6709V104.59Z" fill="#083B5D"/>
<path d="M534.422 63.3759L538.827 62.0056L641.842 97.0475V158.159L636.791 159.811V98.676L534.422 63.3759Z" fill="#1371B9"/>
<path d="M636.803 98.6541L641.855 97.0256V158.137L636.803 159.789V98.6541Z" fill="#0C69A7"/>
<path d="M570.521 106.352C576.468 112.499 586.123 115.815 592.088 113.757C598.052 111.7 598.07 105.05 592.128 98.9027C586.187 92.7556 576.532 89.44 570.567 91.4971C564.597 93.5541 564.579 100.205 570.521 106.352Z" fill="#F0AE2B"/>
<path d="M582.006 100.866C583.56 101.136 584.695 100.677 584.695 99.6662C584.695 98.4443 583.036 96.8817 580.988 96.1759C578.939 95.4705 577.281 95.8892 577.281 97.1111C577.281 98.1217 578.416 99.3639 579.97 100.163C576.681 99.3238 574.156 100.143 574.156 102.189V104.72L587.82 109.431V106.9C587.82 104.854 585.294 102.295 582.006 100.866Z" fill="white"/>
<path d="M630.09 151.811L540.78 121.073V119.946L630.09 150.683V151.811Z" fill="white"/>
<path d="M630.09 144.966L540.78 114.228V113.101L630.09 143.838V144.966Z" fill="white"/>
<path d="M630.09 138.165L540.78 107.428V106.3L630.09 137.037V138.165Z" fill="white"/>
<path d="M547.85 173.548L518.793 163.53V146.178L547.85 156.196V173.548Z" fill="#64BC4C"/>
<path d="M518.793 146.17L522.017 145.162L551.254 155.108V172.454L547.85 173.542V156.189L518.793 146.17Z" fill="#D1D0CE"/>
<path d="M547.799 156.179L551.204 155.098V172.444L547.799 173.532V156.179Z" fill="#BDBFBE"/>
<path d="M547.85 200.266L518.793 190.247V172.895L547.85 182.914V200.266Z" fill="#475CA9"/>
<path d="M518.793 172.888L522.017 171.88L551.254 181.826V199.171L547.85 200.259V182.907L518.793 172.888Z" fill="#D1D0CE"/>
<path d="M547.799 182.897L551.204 181.816V199.161L547.799 200.249V182.897Z" fill="#BDBFBE"/>
<path d="M347.049 196.112L345.007 195.435L347.643 194.98L347.398 193.655L344.762 194.11L346.444 192.788L344.523 192.153L342.842 193.473L342.58 192.061L340.108 192.488L340.366 193.9L338.318 193.223L336.74 194.461L338.788 195.14L336.15 195.594L336.392 196.92L339.028 196.465L337.347 197.785L339.268 198.42L340.95 197.1L341.208 198.513L343.686 198.087L343.424 196.674L345.472 197.351L347.049 196.112Z" fill="#312A27"/>
<path d="M361.619 200.925L359.576 200.248L362.207 199.794L361.968 198.468L359.332 198.923L361.014 197.602L359.092 196.966L357.411 198.287L357.15 196.875L354.676 197.301L354.932 198.714L352.89 198.036L351.307 199.275L353.355 199.953L350.719 200.408L350.963 201.733L353.6 201.279L351.918 202.598L353.838 203.234L355.52 201.914L355.776 203.327L358.249 202.9L357.993 201.487L360.041 202.164L361.619 200.925Z" fill="#312A27"/>
<path d="M376.056 205.695L374.008 205.018L376.644 204.563L376.405 203.238L373.763 203.693L375.451 202.371L373.531 201.736L371.843 203.057L371.587 201.645L369.114 202.071L369.369 203.483L367.321 202.806L365.744 204.045L367.793 204.723L365.156 205.178L365.395 206.503L368.031 206.049L366.349 207.368L368.275 208.004L369.957 206.683L370.214 208.097L372.687 207.67L372.431 206.257L374.479 206.934L376.056 205.695Z" fill="#312A27"/>
<path d="M390.624 210.508L388.576 209.832L391.212 209.377L390.974 208.051L388.332 208.506L390.013 207.185L388.093 206.549L386.411 207.87L386.155 206.458L383.682 206.885L383.938 208.297L381.889 207.619L380.312 208.858L382.361 209.536L379.725 209.991L379.963 211.316L382.6 210.862L380.918 212.182L382.838 212.817L384.52 211.497L384.782 212.91L387.255 212.483L386.999 211.07L389.047 211.748L390.624 210.508Z" fill="#312A27"/>
<path d="M361.619 200.925L359.576 200.248L362.207 199.794L361.968 198.468L359.332 198.923L361.014 197.602L359.092 196.966L357.411 198.287L357.15 196.875L354.676 197.301L354.932 198.714L352.89 198.036L351.307 199.275L353.355 199.953L350.719 200.408L350.963 201.733L353.6 201.279L351.918 202.598L353.838 203.234L355.52 201.914L355.776 203.327L358.249 202.9L357.993 201.487L360.041 202.164L361.619 200.925Z" fill="#312A27"/>
<path d="M376.056 205.695L374.008 205.018L376.644 204.563L376.405 203.238L373.763 203.693L375.451 202.371L373.531 201.736L371.843 203.057L371.587 201.645L369.114 202.071L369.369 203.483L367.321 202.806L365.744 204.045L367.793 204.723L365.156 205.178L365.395 206.503L368.031 206.049L366.349 207.368L368.275 208.004L369.957 206.683L370.214 208.097L372.687 207.67L372.431 206.257L374.479 206.934L376.056 205.695Z" fill="#312A27"/>
<path d="M390.624 210.508L388.576 209.832L391.212 209.377L390.974 208.051L388.332 208.506L390.013 207.185L388.093 206.549L386.411 207.87L386.155 206.458L383.682 206.885L383.938 208.297L381.889 207.619L380.312 208.858L382.361 209.536L379.725 209.991L379.963 211.316L382.6 210.862L380.918 212.182L382.838 212.817L384.52 211.497L384.782 212.91L387.255 212.483L386.999 211.07L389.047 211.748L390.624 210.508Z" fill="#312A27"/>
<path d="M405.067 215.322L403.019 214.645L405.655 214.19L405.411 212.865L402.774 213.32L404.456 211.999L402.536 211.363L400.854 212.683L400.598 211.271L398.125 211.698L398.381 213.11L396.332 212.433L394.755 213.672L396.803 214.349L394.161 214.804L394.406 216.13L397.042 215.675L395.36 216.995L397.281 217.631L398.963 216.31L399.224 217.723L401.698 217.297L401.442 215.883L403.484 216.561L405.067 215.322Z" fill="#312A27"/>
<path d="M376.056 205.695L374.008 205.018L376.644 204.563L376.405 203.238L373.763 203.693L375.451 202.371L373.531 201.736L371.843 203.057L371.587 201.645L369.114 202.071L369.369 203.483L367.321 202.806L365.744 204.045L367.793 204.723L365.156 205.178L365.395 206.503L368.031 206.049L366.349 207.368L368.275 208.004L369.957 206.683L370.214 208.097L372.687 207.67L372.431 206.257L374.479 206.934L376.056 205.695Z" fill="#312A27"/>
<path d="M390.624 210.508L388.576 209.832L391.212 209.377L390.974 208.051L388.332 208.506L390.013 207.185L388.093 206.549L386.411 207.87L386.155 206.458L383.682 206.885L383.938 208.297L381.889 207.619L380.312 208.858L382.361 209.536L379.725 209.991L379.963 211.316L382.6 210.862L380.918 212.182L382.838 212.817L384.52 211.497L384.782 212.91L387.255 212.483L386.999 211.07L389.047 211.748L390.624 210.508Z" fill="#312A27"/>
<path d="M405.067 215.322L403.019 214.645L405.655 214.19L405.411 212.865L402.774 213.32L404.456 211.999L402.536 211.363L400.854 212.683L400.598 211.271L398.125 211.698L398.381 213.11L396.332 212.433L394.755 213.672L396.803 214.349L394.161 214.804L394.406 216.13L397.042 215.675L395.36 216.995L397.281 217.631L398.963 216.31L399.224 217.723L401.698 217.297L401.442 215.883L403.484 216.561L405.067 215.322Z" fill="#312A27"/>
<path d="M707.614 177.802C708.12 177.019 708.557 176.194 708.818 175.274C708.714 170.247 704.419 164.379 697.936 159.558V160.948C703.424 165.48 706.98 170.718 707.073 175.274C707.078 175.26 706.223 179.585 700.136 181.901C694.614 184.003 687.636 183.466 683.557 182.748C683.557 182.748 684.604 183.315 685.954 184.027C695.719 185.214 703.529 183.201 707.09 178.601V178.611C707.114 178.582 707.131 178.547 707.154 178.517C707.306 178.313 707.463 178.113 707.602 177.9C707.608 177.867 707.608 177.835 707.614 177.802Z" fill="#0E743B"/>
<path d="M678.316 181.194L578.589 146.752L575.348 147.223L579.788 148.753L673.876 181.194C681.057 183.669 687.779 184.643 693.412 184.328C688.809 184.061 683.687 183.047 678.316 181.194Z" fill="#0F8943"/>
<path d="M606.341 229.915L671.873 252.124C672.495 252.359 673.112 252.609 673.747 252.827C674.683 253.15 675.603 253.426 676.522 253.7L676.901 253.83V253.82C694.772 259.027 708.785 254.903 708.785 243.983V185.04C654.036 189.781 619.004 217.894 606.341 229.915Z" fill="#0F8943"/>
<path d="M683.118 189.204C648.528 197.442 624.371 214.343 611.638 225.252L678.724 247.677C693.133 252.337 708.892 249.856 708.892 240.839V185.04C708.747 185.053 708.607 185.071 708.462 185.084C706.186 188.746 695.932 191.266 683.118 189.204Z" fill="#50BB73"/>
<path d="M676.14 207.643C676.14 218.83 690.508 232.955 708.821 240.233V197.59C690.508 192.239 676.14 196.456 676.14 207.643Z" fill="#0F8943"/>
<path d="M630.313 211.47C638.536 213.47 644.803 211.366 644.803 206.216C644.803 205.341 644.606 204.428 644.262 203.499C639.176 206.102 634.52 208.797 630.313 211.47Z" fill="#0F8943"/>
<path d="M39.7228 396.118L54.8828 391.336C64.0724 390.147 72.7206 387.235 74.3825 389.518C76.2261 392.052 72.8251 394.856 69.0984 396.354C63.783 398.488 59.8201 399.488 55.2152 399.336L55.0824 401.376L45.7093 403.568L38.9623 402.008L38.9407 400.517L39.7228 396.118Z" fill="#312A27"/>
<path d="M77.3375 400.622L92.498 395.84C101.688 394.652 110.335 391.739 111.997 394.023C113.841 396.556 110.44 399.361 106.713 400.858C101.398 402.992 97.4353 403.993 92.8298 403.84L92.697 405.877L83.3236 408.073L76.5767 406.513L76.5553 405.022L77.3375 400.622Z" fill="#312A27"/>
<path d="M92.8162 403.834C97.4217 403.987 101.384 402.986 106.699 400.852C110.426 399.354 113.827 396.55 111.983 394.017C111.831 393.808 111.6 393.655 111.335 393.527C111.427 393.968 112.48 400.685 92.5118 402.399L90.6821 401.096L87.5478 400.616H83.8852L83.3101 408.067L92.6835 405.87L92.8162 403.834Z" fill="#171719"/>
<path d="M55.2013 399.325C59.8063 399.478 63.7692 398.477 69.0846 396.344C72.8113 394.846 76.2122 392.041 74.3687 389.508C74.3687 389.508 74.2988 396.264 54.8237 398.022L52.209 396.927L50.5755 396.107H46.5887L45.6954 403.558L55.0686 401.365L55.2013 399.325Z" fill="#171719"/>
<path d="M78.5894 299.418C58.4565 299.418 41.3465 293.117 39.4358 292.387C38.2733 295.623 36.2841 304.249 40.083 319.724C40.083 319.724 41.2404 343.189 41.2404 345.754C41.2404 345.754 33.5422 360.704 40.1859 396.114H52.525C52.525 396.114 62.1204 351.21 63.243 346.73C64.2143 342.852 66.7858 335.109 69.7189 326.675C71.9901 335.519 75.0575 347.585 75.225 348.888C75.225 348.888 68.2106 361.146 77.6216 400.618H91.0479C91.0479 400.618 96.2151 359.272 98.3607 349.983C100.501 340.714 108.176 292.415 108.215 292.176C96.8965 299.453 78.5894 299.418 78.5894 299.418Z" fill="#414239"/>
<path d="M66.1391 273.888L9.06507 292.759L8.87537 258.406L65.9502 239.535L66.1391 273.888Z" fill="#083B5D"/>
<path d="M9.11517 292.773L5.16675 291.376V257.542L62.7013 238.52L66.0295 239.55L8.92547 258.421L9.11517 292.773Z" fill="#0C5D7E"/>
<path d="M65.9437 239.535L34.1069 250.062C30.6396 258.897 24.9349 276.436 27.3233 286.719L66.1326 273.888L65.9437 239.535Z" fill="#002138"/>
<path d="M165.069 268.623C167.302 269.429 169.208 270.128 169.208 270.128C167.154 269.918 157.215 268.791 157.215 268.791C157.215 268.791 157.244 266.015 158.183 266.224L158.856 264.442C158.856 264.442 166.868 265.046 167.45 265.003C168.032 264.961 176.041 266.112 176.328 266.227C176.569 266.324 170.883 266.098 169.044 266.022C171.647 266.184 176.761 267.158 176.891 267.314C176.977 267.418 172.234 266.829 168.781 266.987C168.781 266.987 175.856 268.362 176.236 268.515C176.615 268.669 167.471 268.16 167.471 268.16L167.465 268.147C166.698 268.356 165.886 268.508 165.069 268.623Z" fill="#F69374"/>
<path d="M59.5646 213.94C59.5646 213.94 59.5674 213.944 59.5674 213.944C66.7469 216.092 72.8463 214 72.8463 214C72.4643 211.927 73.4741 209.579 76.6164 209.492C79.1264 209.423 79.9808 210.984 79.9808 210.984C80.7891 208.675 80.7647 205.779 77.3805 205.75C77.3805 205.75 79.6619 205.026 83.0056 205.692C86.9007 204.249 88.825 203.086 89.7613 202.215C89.7676 202.216 89.7775 202.218 89.7842 202.218C89.7842 202.218 90.1432 201.888 90.5889 201.335C91.1084 204.844 92.2951 216.601 85.2326 218.562C83.3886 219.074 81.4902 219.024 79.6444 218.608C78.9136 220.329 78.1162 222.547 77.8601 224.527L55.2315 219.828C55.2315 219.828 58.4514 216.335 59.5646 213.94Z" fill="#F69274"/>
<path d="M76.5614 209.507C77.4239 209.484 78.0787 209.657 78.5827 209.889C78.4896 209.887 75.4454 209.843 74.8977 211.315C74.3421 212.811 76.7209 213.407 76.479 214.337C76.2362 215.267 73.8562 215.453 72.7913 214.015C72.4093 211.942 73.4191 209.594 76.5614 209.507Z" fill="#C67A62"/>
<path d="M74.9448 215.379C74.9448 215.379 75.6361 217.291 76.2052 218.286L73.561 219.83C73.561 219.83 70.9015 221.453 70.3304 222.969L77.845 224.53C78.1011 222.55 78.8985 220.331 79.6293 218.611C79.6293 218.611 76.818 217.565 74.9448 215.379Z" fill="#C67A62"/>
<path d="M85.6942 242.847C85.6942 242.847 93.9665 248.62 100.763 248.727C100.72 248.521 100.685 248.319 100.641 248.111C100.62 247.09 100.55 245.977 100.384 244.816C100.314 244.807 89.5159 243.47 85.6942 242.847Z" fill="#DD5B35"/>
<path d="M69.8123 326.685L68.8427 322.917C63.9364 317.343 62.3772 310.768 62.3772 310.768C61.3316 317.093 63.8805 322.653 63.8805 322.653C63.8805 322.653 56.9751 339.494 55.9287 345.764C54.8837 352.033 48.6091 396.124 48.6091 396.124H52.6188C52.6188 396.124 62.2137 351.22 63.3363 346.74C64.3077 342.862 66.8797 335.119 69.8123 326.685Z" fill="#353530"/>
<path d="M88.1622 298.664C88.1622 298.664 91.8942 306.706 93.1523 310.765C94.411 314.824 92.0582 349.476 92.0582 349.476C92.0582 349.476 87.0093 390.414 87.4423 400.625H91.02C91.02 400.625 96.1871 359.279 98.3327 349.99C100.478 340.701 108.185 292.189 108.187 292.176C102.213 296.019 94.3126 297.819 88.1622 298.664Z" fill="#353530"/>
<path d="M42.9393 345.762C42.9393 341.338 41.7625 319.198 41.7625 319.198C38.364 305.223 40.8651 292.917 40.8651 292.917L39.4376 292.396C38.2756 295.625 36.2795 304.243 40.083 319.733C40.083 319.733 41.2404 343.198 41.2404 345.762C41.2404 345.762 33.5422 360.713 40.1859 396.123C36.9103 359.709 42.9393 345.762 42.9393 345.762Z" fill="#56564D"/>
<path d="M77.9368 348.627C77.9368 345.816 70.2902 322.518 70.2902 322.518C66.0298 318.327 62.2512 310.768 62.2512 310.768C63.6241 317.131 68.7167 322.917 68.7167 322.917L69.6863 326.684H69.6868C71.9575 335.529 75.0248 347.595 75.1924 348.898C75.1924 348.898 68.1779 361.155 77.5889 400.627C72.5354 363.877 77.9368 348.627 77.9368 348.627Z" fill="#56564D"/>
<path d="M160.014 269.084L161.351 264.619C129.503 254.666 117.13 252.12 117.13 252.12C104.432 239.416 94.35 233.479 91.4067 231.884C89.4058 230.686 86.982 229.588 84.0235 228.644C82.3168 228.099 80.5931 227.574 78.864 227.071L78.8815 227.074L77.8916 224.538C77.8916 224.538 68.3677 220.127 55.263 219.839C55.263 219.839 52.2404 220.805 50.3054 222.458L50.3807 222.47C47.5139 222.587 44.8283 222.965 42.4172 223.699C32.863 226.605 31.6125 234.978 35.7483 247.518C39.4854 258.85 39.3562 267.931 39.7951 277.879C39.7951 277.879 40.0972 288.843 39.3244 292.308C39.3244 292.308 57.2939 299.408 78.6611 299.408C78.6611 299.408 97.1236 299.447 108.43 292.075C108.43 292.075 107.983 290.386 107.352 287.828C107.049 286.612 103.811 271.196 103.811 271.196C103.796 271.099 103.779 271 103.764 270.905C103.538 269.334 103.276 267.666 103.005 265.975C102.894 264.006 102.702 261.521 102.375 258.702C104.053 259.618 105.054 260.094 105.054 260.094C130.176 268.191 160.014 269.084 160.014 269.084Z" fill="#E96A23"/>
<path d="M96.4524 236.357C95.1937 234.776 94.1199 233.832 94.1199 233.832C91.7218 231.874 88.4396 230.086 83.9412 228.65C82.2345 228.106 80.5107 227.581 78.7817 227.077L78.7992 227.08L77.8088 224.545C77.8088 224.545 74.7844 223.144 69.8006 221.87L70.8658 225.57L73.5252 227.737C73.5252 227.737 87.7459 230.421 96.4524 236.357Z" fill="#B95726"/>
<path d="M86.2381 196.46C86.2381 196.46 83.1789 195.282 77.6901 195.126C73.3831 195.003 62.6168 195.412 58.2061 199.782L58.1735 199.769C58.1735 199.769 55.6084 202.002 54.4758 207.934C53.3428 213.867 47.4171 217.145 47.4171 217.145C47.4171 217.145 57.787 224.301 78.6759 221.886L79.6826 220.398C79.6826 220.398 75.5648 218.245 72.8845 214.033C72.9193 213.771 72.8746 213.45 72.7942 213.104C72.7993 212.205 73.0693 210.869 74.4674 210.094C76.5471 208.941 78.6759 209.908 78.6759 209.908C78.6759 209.908 80.0864 210.66 80.4355 211.778C80.4355 211.778 81.1724 210.429 81.0018 208.994C81.0018 208.994 83.5606 207.479 83.0439 205.726C83.0439 205.726 89.5279 203.709 90.6272 201.369C91.7264 199.029 89.9574 197.761 86.2381 196.46Z" fill="#312A27"/>
<path d="M81.8812 202.417C81.8812 202.417 85.6727 201.324 87.2408 198.983C87.2408 198.983 85.0185 201.246 77.6988 202.065C70.3792 202.886 67.3729 206.32 67.5033 210.848C67.5033 210.848 69.057 206.71 74.9463 205.93C74.9463 205.93 68.6799 207.456 68.1568 212.938C67.722 217.497 62.6878 218.917 60.9267 221.645C65.6074 222.382 71.4726 222.682 78.5893 221.859L79.596 220.371C79.596 220.371 75.4782 218.218 72.7979 214.006C72.8327 213.744 72.788 213.423 72.7076 213.077C72.7127 212.178 72.9827 210.842 74.3808 210.067C76.4605 208.914 78.5893 209.881 78.5893 209.881C78.5893 209.881 79.9998 210.633 80.3489 211.751C80.3489 211.751 81.0858 210.402 80.9152 208.967C80.9152 208.967 83.474 207.452 82.9573 205.699C82.9573 205.699 89.4414 203.682 90.5406 201.342C91.1964 199.946 90.8122 198.935 89.6211 198.067C89.6222 198.096 89.6844 200.864 81.8812 202.417Z" fill="#0E1013"/>
<path d="M58.2061 199.777L58.1735 199.763C58.1735 199.763 55.6084 201.996 54.4758 207.929C53.3428 213.861 47.4171 217.139 47.4171 217.139C47.4171 217.139 47.6864 217.318 48.1647 217.589C56.2131 214.321 55.9326 206.116 59.3554 201.363C62.8273 196.542 70.6975 195.409 70.9522 195.374C66.3219 195.837 60.9947 197.014 58.2061 199.777Z" fill="#433D3A"/>
<path d="M107.339 287.836C107.036 286.62 103.798 271.204 103.798 271.204C103.783 271.107 103.766 271.008 103.751 270.913C103.525 269.342 103.263 267.674 102.991 265.983C102.881 264.015 102.686 261.524 102.36 258.709C102.329 258.693 90.8576 252.722 86.8876 249.604C86.8876 249.604 92.3543 256.263 96.5217 258.71C96.5217 258.71 80.0626 288.156 89.3068 298.509C95.3327 297.598 102.767 295.767 108.417 292.083C108.417 292.083 107.969 290.394 107.339 287.836Z" fill="#B95726"/>
<path d="M105.031 260.114C130.153 268.211 159.991 269.104 159.991 269.104L160.808 266.377C140.681 266.511 105.031 260.114 105.031 260.114Z" fill="#B95726"/>
<path d="M56.9445 219.91C56.3744 219.882 55.8051 219.852 55.2198 219.839C55.2198 219.839 52.1972 220.805 50.2621 222.458L50.3374 222.47C47.4707 222.587 44.785 222.965 42.3739 223.699C41.4418 223.982 40.591 224.32 39.8142 224.706C37.291 225.926 0.601826 243.886 0.796856 256.765C0.830167 258.944 2.44737 260.739 5.12593 262.221V257.542L29.4427 249.502C31.5664 248.098 33.4633 246.815 35.1248 245.657C35.3058 246.268 35.496 246.886 35.705 247.518C39.4421 258.85 39.313 267.931 39.7519 277.879C39.7519 277.879 40.0539 288.843 39.2812 292.308C39.2812 292.308 45.2132 294.647 54.3062 296.642C58.907 287.112 51.0636 257.005 48.1509 243.555C45.2384 230.104 55.2198 224.016 55.2198 224.016C54.7425 220.774 56.7353 219.984 56.9445 219.91Z" fill="#F2792E"/>
<path d="M33.5681 238.166L33.4534 238.243C33.4534 238.243 16.2298 250.114 13.1136 254.888L29.4265 249.495C31.5522 248.089 33.4484 246.807 35.1108 245.647C34.3088 242.938 33.7835 240.438 33.5681 238.166Z" fill="#E96A23"/>
</svg>
