<svg width="267" height="266" viewBox="0 0 267 266" fill="none" xmlns="http://www.w3.org/2000/svg">
<path d="M117.257 265.391L72.2493 265.467C69.4838 265.438 67.2575 263.182 67.2575 260.417V246.888C67.2575 235.563 60.8068 225.234 50.6299 220.272L26.7723 208.811C18.0074 204.534 11.6211 196.554 9.3654 187.069L0.225485 148.635C-0.875945 143.215 2.14727 137.801 7.33832 135.897C13.1679 133.753 19.6302 136.758 21.7453 142.606C24.1241 149.174 27.1297 157.44 29.2506 163.276C30.9615 167.969 34.3538 171.853 38.7715 174.179L52.8035 181.485C52.8035 181.485 52.118 178.023 53.4714 173.57C55.3053 167.535 62.5001 165.127 67.6442 168.783C73.5381 172.966 80.5513 179.47 92.7965 181.585C116.49 185.909 124.886 208.278 122.39 231.122C122.39 231.122 122.941 247.228 122.355 260.581C122.238 263.293 119.976 265.414 117.257 265.391Z" fill="#FFD5C5"/>
<path d="M43.3619 176.514L52.9002 181.482C53.0115 181.915 55.9409 193.036 74.4023 199.205C76.1542 199.797 77.0976 201.689 76.5117 203.441C75.9257 205.193 74.0333 206.136 72.2814 205.55C55.6129 200.605 43.151 186.105 43.3619 176.514Z" fill="#F4A490"/>
<path d="M149.398 265.391L194.407 265.467C197.172 265.438 199.398 263.182 199.398 260.417V246.888C199.398 235.563 205.855 225.234 216.026 220.272L239.884 208.811C248.648 204.534 255.04 196.554 257.296 187.069L266.43 148.635C267.531 143.215 264.514 137.801 259.323 135.897C253.488 133.753 247.026 136.758 244.91 142.606C242.538 149.174 239.532 157.44 237.405 163.276C235.694 167.969 232.302 171.853 227.884 174.179L213.852 181.485C213.852 181.485 214.544 178.023 213.19 173.57C211.351 167.535 204.156 165.127 199.012 168.783C193.118 172.966 186.105 179.47 173.859 181.585C150.172 185.909 141.77 208.278 144.272 231.122C144.272 231.122 143.715 247.228 144.301 260.581C144.424 263.293 146.68 265.414 149.398 265.391Z" fill="#FFD5C5"/>
<path d="M223.466 176.514L213.921 181.482C213.81 181.915 210.881 193.036 192.419 199.205C190.673 199.797 189.724 201.689 190.31 203.441C190.896 205.193 192.788 206.136 194.54 205.55C211.215 200.605 223.671 186.105 223.466 176.514Z" fill="#F4A490"/>
<path d="M205.395 84.3712C202.565 175.976 69.6089 175.952 66.7966 84.3653C69.6265 -7.23302 202.583 -7.21531 205.395 84.3712Z" fill="#446996"/>
<path d="M136.049 15.0879C100.913 15.0879 71.9058 41.2422 67.3827 75.1417C79.2821 154.589 192.846 154.536 204.716 75.1417C200.193 41.2422 171.185 15.0879 136.049 15.0879Z" fill="#82A3D8"/>
<path d="M147.41 16.1328C111.723 9.6938 76.482 33.7564 68.5549 67.8669H93.1507C97.6855 67.8669 102.015 65.9979 105.132 62.7053L112.028 55.4167C115.145 52.1241 119.481 50.2609 124.015 50.2609C131.087 50.2609 137.374 45.7554 139.641 39.0586L147.41 16.1328Z" fill="#CDE877"/>
<path d="M205.196 84.4724C205.196 75.0981 203.327 66.1633 199.953 58.0077C192.652 60.9898 182.399 66.9191 172.603 78.6193C169.516 82.3047 164.981 84.4724 160.17 84.4724C150.187 83.4529 141.258 90.2903 141.211 100.62C141.211 109.537 148.441 116.767 157.358 116.767H197.211C202.302 107.117 205.196 96.1374 205.196 84.4724Z" fill="#93BC4B"/>
<path d="M200.102 58.0077C192.802 60.9898 182.549 66.9191 172.752 78.6193C168.927 83.2888 163.361 84.8648 157.508 84.4724C136.169 85.1286 136.169 116.111 157.508 116.767H183.169C194.671 106.086 202.533 91.5558 204.713 75.2211C203.91 69.2041 202.346 63.433 200.102 58.0077Z" fill="#CDE877"/>
<path d="M136.02 153.753C140.385 153.753 144.651 153.331 148.793 152.558L145.723 142.439C143.959 136.633 138.604 132.661 132.534 132.661C124.683 132.72 121.344 126.855 116.821 121.634C114.202 118.535 110.353 116.748 106.292 116.748H74.7069C86.3192 138.748 109.409 153.753 136.02 153.753Z" fill="#93BC4B"/>
<path d="M121.873 127.769L116.693 121.634C114.074 118.535 110.225 116.748 106.165 116.748H88.7697C101.993 129.146 120.882 136.428 140.217 135.104C133.678 130.522 128.294 135.163 121.873 127.769Z" fill="#CDE877"/>
<path d="M48.424 84.28H31.9664V67.8223H16.4578V84.28H0V99.7885H16.4578V116.246H31.9664V99.7885H48.424V84.28Z" fill="#CDE877"/>
<path d="M265.812 16.4577H249.355V0H233.84V16.4577H217.383V31.9662H233.84V48.424H249.355V31.9662H265.812V16.4577Z" fill="#CDE877"/>
</svg>
