<svg width="800" height="472" viewBox="0 0 800 472" fill="none" xmlns="http://www.w3.org/2000/svg">
<path d="M138.069 307.038H13.5398V471.231H138.069V307.038Z" fill="#FF663F"/>
<path d="M691.905 307.038H138.107V471.231H691.905V307.038Z" fill="#FFD85E"/>
<path d="M709.861 296.336L691.908 316.373H138.107L155.324 296.336H709.862H709.861Z" fill="#F4C542"/>
<path d="M155.38 296.336L138.163 316.373H13.6408L0 296.336H155.38Z" fill="#FC5230"/>
<path d="M341.732 387.244H180.45C180.45 376.164 192.085 367.182 206.438 367.182H315.744C330.097 367.182 341.732 376.164 341.732 387.244Z" fill="#83A3E7"/>
<path d="M374.173 316.869L341.869 387.243H249.38L282.338 315.449C286.129 307.197 296.231 301.684 307.575 301.684H360.271C370.457 301.684 377.572 309.46 374.173 316.869Z" fill="#152547"/>
<path d="M315.291 387.245H279.661L290.101 364.506C292.914 358.38 300.421 354.286 308.84 354.286C319.37 354.286 326.731 362.328 323.213 369.989L315.291 387.245Z" fill="#83A3E7"/>
<path d="M270.756 387.246H235.594V407.897H270.756V387.246Z" fill="#152547"/>
<path d="M261.206 407.898H242.733V447.956H261.206V407.898Z" fill="#83A3E7"/>
<path d="M305.17 471.189C305.17 466.626 300.379 462.928 294.469 462.928H287.081L281.759 455.044C278.817 450.687 272.981 447.954 266.617 447.954H237.221C230.856 447.954 225.02 450.687 222.078 455.044L216.756 462.928H209.369C203.459 462.928 198.667 466.626 198.667 471.189H305.17Z" fill="#152547"/>
<path d="M307.574 301.684C296.23 301.684 286.128 307.197 282.337 315.45L258.053 368.344L255.81 366.634C250.98 362.95 249.348 357.442 251.622 352.504L268.911 314.973C272.58 307.003 282.356 301.684 293.308 301.684H307.574Z" fill="#83A3E7"/>
<path d="M738.327 387.244H577.046C577.046 376.164 588.681 367.182 603.034 367.182H712.339C726.692 367.182 738.327 376.164 738.327 387.244Z" fill="#83A3E7"/>
<path d="M738.219 387.245H645.73L678.692 315.449C682.48 307.2 692.589 301.687 703.927 301.687H756.63C766.812 301.687 773.93 309.463 770.528 316.871L738.219 387.245Z" fill="#152547"/>
<path d="M711.639 387.245H676.01L686.449 364.506C689.261 358.38 696.769 354.286 705.189 354.286C715.718 354.286 723.079 362.328 719.561 369.989L711.639 387.245Z" fill="#83A3E7"/>
<path d="M667.106 387.246H631.944V407.897H667.106V387.246Z" fill="#152547"/>
<path d="M657.556 407.898H639.083V447.956H657.556V407.898Z" fill="#83A3E7"/>
<path d="M691.064 462.968H683.703L678.354 455.044C675.412 450.687 669.576 447.954 663.212 447.954H633.816C627.451 447.954 621.615 450.687 618.674 455.044L613.324 462.968H605.965C600.054 462.968 595.263 466.666 595.263 471.228H701.765C701.765 466.666 696.974 462.968 691.064 462.968Z" fill="#152547"/>
<path d="M703.677 301.684C692.334 301.684 682.231 307.197 678.441 315.45L654.156 368.344L651.913 366.634C647.083 362.95 645.451 357.442 647.726 352.504L665.014 314.973C668.684 307.003 678.459 301.684 689.412 301.684H703.677Z" fill="#83A3E7"/>
<path d="M800 0.00012207H603.879V111.744H800V0.00012207Z" fill="#FFD85E"/>
<path d="M772.055 0.00012207H619.635V94.257H772.055V0.00012207Z" fill="#D4E2FF"/>
<path d="M756.347 18.4907H742.039V9.78563H756.347V18.4907ZM756.347 27.9164H742.039V19.2113H756.347V27.9164ZM756.347 37.3423H742.039V28.6372H756.347V37.3423ZM756.347 46.7682H742.039V38.0631H756.347V46.7682ZM756.347 56.1932H742.039V47.4882H756.347V56.1932ZM756.347 65.6198H742.039V56.9147H756.347V65.6198ZM756.347 75.045H742.039V66.3399H756.347V75.045ZM756.347 84.4708H742.039V75.7657H756.347V84.4708ZM726.796 75.7657H741.104V84.4708H726.796V75.7657ZM711.554 75.7657H725.862L725.862 84.4708H711.554V75.7657ZM696.312 75.7657H710.62V84.4708H696.312V75.7657ZM681.07 75.7657H695.378V84.4708H681.07V75.7657ZM665.827 75.7657H680.135V84.4708H665.827V75.7657ZM650.586 75.7657H664.893V84.4708H650.586V75.7657ZM635.344 75.7657H649.652V84.4708H635.344V75.7657ZM635.344 66.3406H649.652V75.0457H635.344V66.3406ZM635.344 56.914H649.652V65.6191H635.344V56.914ZM635.344 47.4888H649.652V56.1939H635.344V47.4888ZM635.344 38.0631H649.652V46.7682H635.344V38.0631ZM635.344 28.6372H649.652V37.3423H635.344V28.6372ZM635.344 19.2113H649.652V27.9164H635.344V19.2113ZM635.344 9.78563H649.652V18.4907H635.344V9.78563ZM664.893 18.4907H650.586V9.78563H664.893V18.4907ZM680.136 18.4907H665.828V9.78563H680.136V18.4907ZM695.378 18.4907H681.07V9.78563H695.378V18.4907ZM710.62 18.4907H696.312V9.78563H710.62V18.4907ZM725.862 18.4907H711.554V9.78563H725.862L725.862 18.4907ZM726.796 19.2113H741.104V27.9164H726.796V19.2113ZM726.796 28.6372H741.104V37.3423H726.796V28.6372ZM726.796 38.0631H741.104V46.7682H726.796V38.0631ZM726.796 47.4888H741.104V56.1939H726.796V47.4888ZM726.796 56.914H741.104V65.6191H726.796V56.914ZM726.796 66.3406H741.104V75.0457H726.796V66.3406ZM711.554 66.3406H725.862V75.0457H711.554V66.3406ZM696.312 66.3406H710.62V75.0457H696.312L696.312 66.3406ZM681.07 66.3406H695.378V75.0457H681.07V66.3406ZM665.827 66.3406H680.135V75.0457H665.827V66.3406ZM664.893 75.045H650.586V66.3399H664.893V75.045ZM664.893 65.6198H650.586V56.9147H664.893V65.6198ZM664.893 56.1932H650.586V47.4882H664.893V56.1932ZM664.893 46.7682H650.586V38.0631H664.893V46.7682ZM664.893 37.3423H650.586V28.6372H664.893V37.3423ZM664.893 27.9164H650.586V19.2113H664.893V27.9164ZM680.136 27.9164H665.828V19.2113H680.136V27.9164ZM695.378 27.9164H681.07V19.2113H695.378V27.9164ZM710.62 27.9164H696.312V19.2113H710.62V27.9164ZM711.554 19.2113H725.862V27.9164H711.554V19.2113ZM711.554 28.6372H725.862V37.3423H711.554V28.6372ZM711.554 38.0631H725.862V46.7682H711.554V38.0631ZM711.554 47.4888H725.862V56.1939H711.554V47.4888ZM711.554 56.914H725.862V65.6191H711.554V56.914ZM696.312 56.914H710.62V65.6191H696.312V56.914ZM681.07 56.914H695.378V65.6191H681.07V56.914ZM680.136 65.6198H665.828V56.9147H680.136V65.6198ZM680.136 56.1932H665.828V47.4882H680.136V56.1932ZM680.136 46.7682H665.828V38.0631H680.136V46.7682ZM680.136 37.3423H665.828V28.6372H680.136V37.3423ZM695.378 37.3423H681.07V28.6372H695.378V37.3423ZM696.312 28.6372H710.62V37.3423H696.312V28.6372ZM696.312 38.0631H710.62V46.7682H696.312V38.0631ZM696.312 47.4888H710.62V56.1939H696.312V47.4888ZM681.07 38.0631H695.378V46.7682H681.07V38.0631ZM695.378 56.1932H681.07V47.4882H695.378V56.1932ZM741.104 18.4907H726.796V9.78563H741.104V18.4907ZM772.055 9.78563V9.06483H757.281V0.00012207H756.347V9.06483H742.038V0.00012207H741.104V9.06483H726.796V0.00012207H725.862V9.06483H711.554V0.00012207H710.62V9.06483H696.312V0.00012207H695.378V9.06483H681.07V0.00012207H680.136V9.06483H665.827V0.00012207H664.893V9.06483H650.586V0.00012207H649.652V9.06483H635.344V0.00012207H634.41V9.06483H619.635V9.78563H634.41V18.4907H619.635V19.2113H634.41V27.9164H619.635V28.6372H634.41V37.3423H619.635V38.0631H634.41V46.7682H619.635V47.4888H634.41V56.1932H619.635V56.914H634.41V65.6198H619.635V66.3406H634.41V75.045H619.635V75.7657H634.41V84.4708H619.635V85.1916H634.41V94.257H635.344V85.1916H649.652V94.257H650.586V85.1916H664.893V94.257H665.827V85.1916H680.136V94.257H681.07V85.1916H695.378V94.257H696.312V85.1916H710.62V94.257H711.554V85.1916H725.862V94.257H726.796V85.1916H741.104V94.257H742.038V85.1916H756.347V94.257H757.281V85.1916H772.055V84.4708H757.281V75.7657H772.055V75.0449H757.281V66.3406H772.055V65.6198H757.281V56.914H772.055V56.1932H757.281V47.4888H772.055V46.7682H757.281V38.0631H772.055V37.3423H757.281V28.6372H772.055V27.9164H757.281V19.2113H772.055V18.4907H757.281V9.78563H772.055Z" fill="#61A1E0"/>
<path d="M637.141 66.7484L635.39 65.0605L681.991 36.2424L697.233 45.6674L742.084 17.932L743.834 19.62L697.233 48.438L681.991 39.0128L637.141 66.7484Z" fill="#38B8AA"/>
<path d="M701.594 47.1286C701.594 49.1185 699.505 50.7324 696.926 50.7324C694.348 50.7324 692.258 49.1185 692.258 47.1286C692.258 45.1386 694.348 43.5249 696.926 43.5249C699.505 43.5249 701.594 45.1386 701.594 47.1286Z" fill="#FF663F"/>
<path d="M686.824 37.6266C686.824 39.6166 684.734 41.2303 682.156 41.2303C679.577 41.2303 677.487 39.6166 677.487 37.6266C677.487 35.636 679.577 34.023 682.156 34.023C684.734 34.023 686.824 35.636 686.824 37.6266Z" fill="#FF663F"/>
<path d="M738.294 16.4941L746.262 22.6442L749.498 14.9567L738.294 16.4941Z" fill="#FF663F"/>
<path d="M518.038 296.334H435.394C435.394 296.334 435.394 296.329 435.387 296.324L413.807 237.568C408.79 237.568 404.719 234.426 404.719 230.553V219.666C404.719 215.777 408.812 212.629 413.841 212.645C416.679 212.655 420.056 212.667 423.805 212.678C450.36 212.764 495.28 212.861 495.981 212.612L518.038 296.334Z" fill="#9271D2"/>
<path d="M445.926 296.334H435.395C435.395 296.334 435.395 296.329 435.388 296.323L413.808 237.568C408.791 237.568 404.719 234.425 404.719 230.553V219.665C404.719 215.776 408.812 212.628 413.842 212.645C416.68 212.655 420.057 212.666 423.806 212.677L424.331 213.004C427.544 215.005 429.411 218.021 429.411 221.207V228.822C429.411 232.188 427.328 235.351 423.806 237.336L445.926 296.334Z" fill="#152547"/>
<path d="M701.783 296.337H642.397L635.39 281.771H694.776L701.783 296.337Z" fill="#EBF2FC"/>
<path d="M635.391 281.771L626.035 296.337H642.398L635.391 281.771Z" fill="#FF663F"/>
<path d="M553.354 205.574C553.064 207.095 538.284 286.419 536.585 295.004C535.932 291.998 519.686 204.832 519.686 204.832C521.199 204.378 522.067 204.126 522.067 204.126H549.48L553.354 205.574Z" fill="#EBF2FC"/>
<path d="M573.166 168.579C573.166 168.579 573.817 137.481 534.149 141.455C534.149 141.455 526.617 142.892 522.54 147.567C522.54 147.567 497.333 146.13 495.718 176.986C494.044 208.984 475.62 221.183 475.62 221.183L522.118 204.124L573.166 168.579Z" fill="black"/>
<path d="M535.991 176.673C534.402 177.611 533.182 180.583 532.576 182.343C532.441 182.736 531.735 182.762 531.55 182.381C530.798 180.82 528.578 176.2 527.754 175.781C527.754 175.781 518.98 168.488 513.545 175.738C508.112 182.989 522.218 188.92 522.218 188.92V204.123C534.188 215.116 549.639 208.216 549.639 208.216V199.678C569.369 204.401 572.919 182.317 573.266 168.579C562.436 171.375 553.553 160.155 553.553 160.155C551.895 165.893 541.962 173.15 535.991 176.673Z" fill="url(#paint0_linear_491_1616)"/>
<path d="M617.995 296.337H448.62C445.585 274.412 464.529 231.435 471.346 224.191C475.677 219.586 495.005 212.732 508.514 208.349C508.626 208.313 508.729 208.277 508.841 208.241L508.981 208.198C513.127 206.85 516.693 205.755 519.055 205.041L519.718 204.832C519.718 204.832 535.965 291.998 536.617 295.003C538.316 286.419 553.096 207.095 553.386 205.575L564.851 209.863L585.111 217.445C596.409 221.668 604.318 229.892 606.287 239.463L617.995 296.337Z" fill="#FF663F"/>
<path d="M523.311 224.189L540.07 216.725L550.455 221.184L552.842 208.38L549.502 208.218L540.07 211.114L520.178 207.389L523.311 224.189Z" fill="#FF663F"/>
<path d="M543.693 213.918C543.693 215.466 542.066 216.723 540.059 216.723C538.052 216.723 536.426 215.466 536.426 213.918C536.426 212.369 538.052 211.112 540.059 211.112C542.066 211.112 543.693 212.369 543.693 213.917" fill="#C9371B"/>
<path d="M534.406 219.331L528.549 245.988L533.324 242.746L536.83 247.265L540.265 216.722L534.406 219.331H534.406Z" fill="#FF663F"/>
<path d="M540.119 216.725L541.331 241.431L543.893 235.268L547.666 236.388L545.562 219.062L540.119 216.725Z" fill="#FF663F"/>
<path d="M503.145 235.565C505.633 239.874 529.515 281.235 535.7 292.288C532.88 277.529 520.572 211.512 519.421 205.338L508.989 208.606L503.114 226.075L515.854 229.441L503.145 235.565ZM536.302 295.233L536.247 295.15C535.155 292.762 502.457 236.144 502.126 235.572L501.961 235.285L513.695 229.632L501.993 226.54L508.127 208.301V208.103L508.887 207.861L520.174 204.322L520.26 204.779C520.421 205.648 536.428 291.522 537.152 294.916L537.16 294.951C537.171 294.992 537.182 295.034 537.182 295.081H536.715L536.302 295.233Z" fill="#C9371B"/>
<path d="M553.939 206.093C553.741 207.155 553.23 209.89 552.505 213.777C548.972 232.713 539.985 280.871 537.659 292.996C543.873 281.896 567.72 240.596 570.209 236.287L557.509 230.163L570.24 226.797L564.633 210.113L553.939 206.093ZM537.085 295.905L536.18 295.737C536.197 295.66 536.252 295.399 536.325 294.983L536.36 294.852C537.852 287.246 547.814 233.858 551.581 213.675C552.48 208.856 553.049 205.808 553.102 205.521V204.945L553.769 205.228L565.428 209.61L565.483 209.771L571.361 227.262L559.669 230.354L571.392 236.008L571.227 236.294C559.616 256.397 537.537 294.725 537.085 295.905Z" fill="#C9371B"/>
<path d="M514.762 296.336L558.675 296.336C558.675 296.336 549.89 283.881 528.635 281.769C528.242 281.731 527.861 281.712 527.49 281.712C517.131 281.713 514.762 296.336 514.762 296.336V296.336Z" fill="url(#paint1_linear_491_1616)"/>
<path d="M492.435 290.088H487.89L478.081 257.927C478.081 256.958 479.099 256.172 480.353 256.172C481.608 256.172 482.626 256.958 482.626 257.927L492.435 290.088Z" fill="#83A3E7"/>
<path d="M500.331 285.7H482.758V296.336H500.331V285.7Z" fill="#152547"/>
<path d="M482.44 292.018C460.344 273.554 478.32 259.743 478.504 259.605L479.153 260.123C478.429 260.664 461.661 273.594 483.126 291.529L482.44 292.018Z" fill="black"/>
<path d="M615.014 296.337H550.951C550.951 293.98 553.426 292.069 556.481 292.069H609.484C612.539 292.069 615.014 293.98 615.014 296.337Z" fill="#152547"/>
<path d="M542.508 224.186L519.786 278.918H514.762L537.492 224.186H542.508Z" fill="#83A3E7"/>
<path d="M646.232 224.186L623.51 278.918H519.686L542.408 224.186H646.232Z" fill="#152547"/>
<path d="M596.271 291.889H573.617L569.414 267.685H592.066L596.271 291.889Z" fill="#83A3E7"/>
<path d="M573.637 291.889H569.433L565.229 267.685H569.433L573.637 291.889Z" fill="#152547"/>
<path d="M592.385 262.12H565.229V262.841H592.385V262.12Z" fill="#83A3E7"/>
<path d="M594.601 256.915H567.445V257.636H594.601V256.915Z" fill="#83A3E7"/>
<path d="M596.078 251.709H568.922V252.43H596.078V251.709Z" fill="#83A3E7"/>
<path d="M158.615 296.334H75.9714C75.9714 296.334 75.9714 296.329 75.9649 296.324L54.3844 237.568C49.3677 237.568 45.2971 234.426 45.2971 230.553V219.666C45.2971 215.777 49.3892 212.629 54.4189 212.645C57.2573 212.655 60.6344 212.667 64.383 212.678C90.9381 212.764 135.858 212.861 136.558 212.612L158.615 296.334Z" fill="#9271D2"/>
<path d="M86.5031 296.334H75.9723C75.9723 296.334 75.9724 296.329 75.965 296.323L54.3853 237.568C49.3677 237.568 45.2971 234.425 45.2971 230.553V219.665C45.2971 215.776 49.3892 212.628 54.4198 212.645C57.2573 212.655 60.6342 212.666 64.3839 212.677L64.9085 213.004C68.1213 215.005 69.9886 218.021 69.9886 221.207V228.822C69.9886 232.188 67.9055 235.351 64.3839 237.336L86.5031 296.334Z" fill="#152547"/>
<path d="M342.36 296.337H282.975L275.968 281.771H335.354L342.36 296.337Z" fill="#EBF2FC"/>
<path d="M275.968 281.771L266.613 296.337H282.974L275.968 281.771Z" fill="#FF663F"/>
<path d="M162.671 204.123C162.671 204.123 118.737 216.944 111.921 224.187C105.103 231.429 86.1667 274.408 89.1965 296.335H258.567L246.864 239.461C244.894 229.891 236.988 221.668 225.692 217.441L190.092 204.123H162.671Z" fill="#EBF2FC"/>
<path d="M158.607 205.351C158.136 205.495 160.316 224.186 160.316 224.186L179.211 210.348L198.893 219.339L195.479 206.129L190.117 204.123H162.695L158.607 205.351Z" fill="#EBF2FC"/>
<path d="M159.184 205.617C159.074 207.035 160.085 216.626 160.869 223.413L179.32 209.9L198.405 218.618L195.24 206.376L190.183 204.484L162.958 204.484L159.184 205.617ZM160.112 224.961L160.025 224.22C157.814 205.26 158.2 205.141 158.609 205.017L158.612 205.016L162.87 203.763H190.398L196.065 205.883L199.73 220.061L179.452 210.798L160.112 224.961Z" fill="#C5D0DD"/>
<path d="M166.186 158.282V178.865C166.186 178.865 160.883 171.146 155.449 178.397C150.015 185.647 162.852 188.922 162.852 188.922V204.124C174.821 215.118 190.273 208.217 190.273 208.217V199.68C225.723 212.896 213.603 158.282 213.603 158.282H166.186Z" fill="url(#paint2_linear_491_1616)"/>
<path d="M156.873 176.758C156.873 176.758 137.635 154.774 166.874 153.136C166.874 153.136 179.751 138.869 199.294 144.599C218.837 150.33 217.064 159.715 214.844 166.366C214.844 166.366 196.567 171.029 175.661 158.867C175.661 158.867 178.474 172.722 168.54 174.187L167.935 181.615L165.773 178.416C165.773 178.416 161.568 172.898 156.873 176.758Z" fill="black"/>
<path d="M155.339 296.336L199.253 296.336C199.253 296.336 190.466 283.881 169.213 281.769C168.82 281.731 168.439 281.712 168.067 281.712C157.708 281.713 155.339 296.336 155.339 296.336V296.336Z" fill="url(#paint3_linear_491_1616)"/>
<path d="M163.198 241.43H141.308V245.99H163.198V241.43Z" fill="#FF663F"/>
<path d="M170.356 216.323L175.552 220.497H183.303L190.425 215.062L180.108 210.349H178.464L170.356 216.323Z" fill="#FF663F"/>
<path d="M175.632 220.496L173.803 257.274L184.757 264.998L192.782 256.914L183.381 220.496H175.632Z" fill="#FF663F"/>
<path d="M119.227 290.088H114.682L104.873 257.927C104.873 256.958 105.89 256.172 107.145 256.172C108.4 256.172 109.418 256.958 109.418 257.927L119.227 290.088Z" fill="#83A3E7"/>
<path d="M126.877 285.7H109.304V296.336H126.877V285.7Z" fill="#152547"/>
<path d="M108.985 292.018C86.8881 273.554 104.866 259.743 105.05 259.605L105.699 260.123C104.975 260.664 88.2073 273.594 109.67 291.529L108.985 292.018Z" fill="black"/>
<path d="M183.086 224.186L160.363 278.918H155.339L178.069 224.186H183.086Z" fill="#83A3E7"/>
<path d="M287.056 224.186L264.333 278.918H160.51L183.232 224.186H287.056Z" fill="#152547"/>
<path d="M237.094 291.889H214.442L210.238 267.685H232.891L237.094 291.889Z" fill="#83A3E7"/>
<path d="M214.46 291.889H210.255L206.052 267.685H210.255L214.46 291.889Z" fill="#152547"/>
<path d="M251.653 296.337H187.589C187.589 293.98 190.065 292.069 193.119 292.069H246.123C249.177 292.069 251.653 293.98 251.653 296.337Z" fill="#152547"/>
<path d="M233.208 262.12H206.052V262.841H233.208V262.12Z" fill="#83A3E7"/>
<path d="M235.178 256.915H208.022V257.636H235.178V256.915Z" fill="#83A3E7"/>
<path d="M236.654 252.069H209.499V252.79H236.654V252.069Z" fill="#83A3E7"/>
<defs>
<linearGradient id="paint0_linear_491_1616" x1="542.225" y1="158.26" x2="543.849" y2="234.72" gradientUnits="userSpaceOnUse">
<stop stop-color="#F4B08E"/>
<stop offset="0.1" stop-color="#F4B08E"/>
<stop offset="0.9" stop-color="#F78181"/>
<stop offset="1" stop-color="#F78181"/>
</linearGradient>
<linearGradient id="paint1_linear_491_1616" x1="514.762" y1="289.023" x2="558.676" y2="289.023" gradientUnits="userSpaceOnUse">
<stop stop-color="#F4B08E"/>
<stop offset="0.1" stop-color="#F4B08E"/>
<stop offset="0.9" stop-color="#F78181"/>
<stop offset="1" stop-color="#F78181"/>
</linearGradient>
<linearGradient id="paint2_linear_491_1616" x1="186.85" y1="152.603" x2="183.598" y2="229.134" gradientUnits="userSpaceOnUse">
<stop stop-color="#F4B08E"/>
<stop offset="0.1" stop-color="#F4B08E"/>
<stop offset="0.9" stop-color="#F78181"/>
<stop offset="1" stop-color="#F78181"/>
</linearGradient>
<linearGradient id="paint3_linear_491_1616" x1="155.339" y1="289.023" x2="199.253" y2="289.023" gradientUnits="userSpaceOnUse">
<stop stop-color="#F4B08E"/>
<stop offset="0.1" stop-color="#F4B08E"/>
<stop offset="0.9" stop-color="#F78181"/>
<stop offset="1" stop-color="#F78181"/>
</linearGradient>
</defs>
</svg>
